G04 #@! TF.FileFunction,Copper,L1,Top,Signal*
%FSLAX46Y46*%
G04 Gerber Fmt 4.6, Leading zero omitted, Abs format (unit mm)*
G04 Created by KiCad (PCBNEW 4.0.7) date 02/02/18 15:52:00*
%MOMM*%
%LPD*%
G01*
G04 APERTURE LIST*
%ADD10C,0.100000*%
%ADD11R,1.200000X0.900000*%
%ADD12R,1.500000X0.300000*%
%ADD13R,0.300000X1.500000*%
%ADD14R,8.000000X8.000000*%
%ADD15C,0.300000*%
%ADD16R,1.727200X1.727200*%
%ADD17O,1.727200X1.727200*%
%ADD18R,0.500000X2.300000*%
%ADD19R,2.000000X2.500000*%
%ADD20C,1.198880*%
%ADD21R,1.198880X1.198880*%
%ADD22C,3.556000*%
%ADD23R,1.200000X0.750000*%
%ADD24R,0.750000X1.200000*%
%ADD25R,1.700000X1.700000*%
%ADD26O,1.700000X1.700000*%
%ADD27R,1.778000X2.286000*%
%ADD28R,1.500000X1.250000*%
%ADD29R,0.900000X1.200000*%
%ADD30R,2.000000X3.800000*%
%ADD31R,2.000000X1.500000*%
%ADD32R,1.560000X0.650000*%
%ADD33R,3.325000X2.400000*%
%ADD34R,0.900000X0.800000*%
%ADD35C,1.102360*%
%ADD36C,0.254000*%
%ADD37C,0.381000*%
%ADD38C,0.304800*%
%ADD39C,1.270000*%
%ADD40C,0.762000*%
G04 APERTURE END LIST*
D10*
D11*
X146220000Y-3810000D03*
X148420000Y-3810000D03*
D12*
X125342000Y-236914000D03*
X125342000Y-236414000D03*
X125342000Y-235914000D03*
X125342000Y-235414000D03*
X125342000Y-234914000D03*
X125342000Y-234414000D03*
X125342000Y-233914000D03*
X125342000Y-233414000D03*
X125342000Y-232914000D03*
X125342000Y-232414000D03*
X125342000Y-231914000D03*
X125342000Y-231414000D03*
X125342000Y-230914000D03*
X125342000Y-230414000D03*
X125342000Y-229914000D03*
X125342000Y-229414000D03*
D13*
X123392000Y-227464000D03*
X122892000Y-227464000D03*
X122392000Y-227464000D03*
X121892000Y-227464000D03*
X121392000Y-227464000D03*
X120892000Y-227464000D03*
X120392000Y-227464000D03*
X119892000Y-227464000D03*
X119392000Y-227464000D03*
X118892000Y-227464000D03*
X118392000Y-227464000D03*
X117892000Y-227464000D03*
X117392000Y-227464000D03*
X116892000Y-227464000D03*
X116392000Y-227464000D03*
X115892000Y-227464000D03*
D12*
X113942000Y-229414000D03*
X113942000Y-229914000D03*
X113942000Y-230414000D03*
X113942000Y-230914000D03*
X113942000Y-231414000D03*
X113942000Y-231914000D03*
X113942000Y-232414000D03*
X113942000Y-232914000D03*
X113942000Y-233414000D03*
X113942000Y-233914000D03*
X113942000Y-234414000D03*
X113942000Y-234914000D03*
X113942000Y-235414000D03*
X113942000Y-235914000D03*
X113942000Y-236414000D03*
X113942000Y-236914000D03*
D13*
X115892000Y-238864000D03*
X116392000Y-238864000D03*
X116892000Y-238864000D03*
X117392000Y-238864000D03*
X117892000Y-238864000D03*
X118392000Y-238864000D03*
X118892000Y-238864000D03*
X119392000Y-238864000D03*
X119892000Y-238864000D03*
X120392000Y-238864000D03*
X120892000Y-238864000D03*
X121392000Y-238864000D03*
X121892000Y-238864000D03*
X122392000Y-238864000D03*
X122892000Y-238864000D03*
X123392000Y-238864000D03*
D14*
X119642000Y-233164000D03*
D15*
X123142000Y-236664000D03*
X122142000Y-236664000D03*
X121142000Y-236664000D03*
X120142000Y-236664000D03*
X119142000Y-236664000D03*
X118142000Y-236664000D03*
X117142000Y-236664000D03*
X116142000Y-236664000D03*
X116142000Y-235664000D03*
X117142000Y-235664000D03*
X118142000Y-235664000D03*
X119142000Y-235664000D03*
X120142000Y-235664000D03*
X121142000Y-235664000D03*
X122142000Y-235664000D03*
X123142000Y-235664000D03*
X123142000Y-234664000D03*
X123142000Y-233664000D03*
X122142000Y-234664000D03*
X122142000Y-233664000D03*
X121142000Y-233664000D03*
X121142000Y-234664000D03*
X120142000Y-234664000D03*
X120142000Y-233664000D03*
X119142000Y-233664000D03*
X119142000Y-234664000D03*
X118142000Y-234664000D03*
X118142000Y-233664000D03*
X117142000Y-234664000D03*
X117142000Y-233664000D03*
X116142000Y-234664000D03*
X116142000Y-233664000D03*
X123142000Y-229664000D03*
X123142000Y-230664000D03*
X123142000Y-231664000D03*
X123142000Y-232664000D03*
X122142000Y-232664000D03*
X122142000Y-231664000D03*
X122142000Y-230664000D03*
X122142000Y-229664000D03*
X121142000Y-229664000D03*
X121142000Y-230664000D03*
X121142000Y-231664000D03*
X121142000Y-232664000D03*
X120142000Y-232664000D03*
X120142000Y-231664000D03*
X120142000Y-230664000D03*
X120142000Y-229664000D03*
X119142000Y-229664000D03*
X119142000Y-230664000D03*
X119142000Y-231664000D03*
X119142000Y-232664000D03*
X118142000Y-232664000D03*
X118142000Y-231664000D03*
X118142000Y-230664000D03*
X118142000Y-229664000D03*
X117142000Y-229664000D03*
X117142000Y-230664000D03*
X117142000Y-231664000D03*
X117142000Y-232664000D03*
X116142000Y-232664000D03*
X116142000Y-231664000D03*
X116142000Y-230664000D03*
X116142000Y-229664000D03*
D16*
X157734000Y-120650000D03*
D17*
X160274000Y-120650000D03*
X157734000Y-123190000D03*
X160274000Y-123190000D03*
X157734000Y-125730000D03*
X160274000Y-125730000D03*
X157734000Y-128270000D03*
X160274000Y-128270000D03*
D18*
X155966000Y-253432000D03*
X156766000Y-253432000D03*
X157566000Y-253432000D03*
X158366000Y-253432000D03*
X159166000Y-253432000D03*
D19*
X153116000Y-253532000D03*
X153116000Y-259032000D03*
X162016000Y-253532000D03*
X162016000Y-259032000D03*
D11*
X139868000Y-241300000D03*
X137668000Y-241300000D03*
D20*
X138125200Y-201241660D03*
X136123680Y-202242420D03*
X138125200Y-203240640D03*
X136123680Y-204241400D03*
X138125200Y-205242160D03*
X136123680Y-206240380D03*
X138125200Y-207241140D03*
X133624320Y-202242420D03*
X133624320Y-204241400D03*
X133624320Y-206240380D03*
X131622800Y-201241660D03*
X131622800Y-203240640D03*
X131622800Y-205242160D03*
X131622800Y-207241140D03*
X136123680Y-198241920D03*
X136123680Y-196240400D03*
X136123680Y-194241420D03*
X136123680Y-192242440D03*
X136123680Y-190240920D03*
X136123680Y-188241940D03*
X138125200Y-189242700D03*
X138125200Y-191241680D03*
X138125200Y-193240660D03*
X138125200Y-195242180D03*
X138125200Y-197241160D03*
X133624320Y-188241940D03*
X131622800Y-189242700D03*
X133624320Y-190240920D03*
X131622800Y-191241680D03*
X133624320Y-192242440D03*
X131622800Y-193240660D03*
X133624320Y-194241420D03*
X131622800Y-195242180D03*
X133624320Y-196240400D03*
X131622800Y-197241160D03*
X133624320Y-198241920D03*
X88168480Y-101902260D03*
X90170000Y-100901500D03*
X88168480Y-99903280D03*
X90170000Y-98902520D03*
X88168480Y-97901760D03*
X90170000Y-96903540D03*
X88168480Y-95902780D03*
X92669360Y-100901500D03*
X92669360Y-98902520D03*
X92669360Y-96903540D03*
X94670880Y-101902260D03*
X94670880Y-99903280D03*
X94670880Y-97901760D03*
X94670880Y-95902780D03*
X90170000Y-104902000D03*
X90170000Y-106903520D03*
X90170000Y-108902500D03*
X90170000Y-110901480D03*
X90170000Y-112903000D03*
D21*
X90170000Y-114901980D03*
D20*
X88168480Y-113901220D03*
X88168480Y-111902240D03*
X88168480Y-109903260D03*
X88168480Y-107901740D03*
X88168480Y-105902760D03*
X92669360Y-114901980D03*
X94670880Y-113901220D03*
X92669360Y-112903000D03*
X94670880Y-111902240D03*
X92669360Y-110901480D03*
X94670880Y-109903260D03*
X92669360Y-108902500D03*
X94670880Y-107901740D03*
X92669360Y-106903520D03*
X94670880Y-105902760D03*
X92669360Y-104902000D03*
X92669360Y-94902020D03*
X94670880Y-93901260D03*
X92669360Y-92903040D03*
X94670880Y-91902280D03*
X92669360Y-90901520D03*
X94670880Y-89903300D03*
X92669360Y-88902540D03*
X94670880Y-87901780D03*
X92669360Y-86903560D03*
X94670880Y-85902800D03*
X92669360Y-84902040D03*
X94670880Y-83901280D03*
X92669360Y-82903060D03*
X94670880Y-81902300D03*
X90170000Y-94902020D03*
X88168480Y-93901260D03*
X90170000Y-92903040D03*
X88168480Y-91902280D03*
X90170000Y-90901520D03*
X88168480Y-89903300D03*
X90170000Y-88902540D03*
X88168480Y-87901780D03*
X90170000Y-86903560D03*
X88168480Y-85902800D03*
X90170000Y-84902040D03*
X88168480Y-83901280D03*
X90170000Y-82903060D03*
X88168480Y-81902300D03*
X92669360Y-80901540D03*
X94670880Y-79903320D03*
X92669360Y-78902560D03*
X94670880Y-77901800D03*
X92669360Y-76903580D03*
X94670880Y-75902820D03*
X92669360Y-74902060D03*
X94670880Y-73901300D03*
X92669360Y-72903080D03*
X94670880Y-71902320D03*
X92669360Y-70901560D03*
X94670880Y-69903340D03*
X92669360Y-68902580D03*
X94670880Y-67901820D03*
X92669360Y-66903600D03*
X94670880Y-65902840D03*
X92669360Y-64902080D03*
X90170000Y-80901540D03*
X88168480Y-79903320D03*
X90170000Y-78902560D03*
X88168480Y-77901800D03*
X90170000Y-76903580D03*
X88168480Y-75902820D03*
X90170000Y-74902060D03*
X88168480Y-73901300D03*
X90170000Y-72903080D03*
X88168480Y-71902320D03*
X90170000Y-70901560D03*
X88168480Y-69903340D03*
X90170000Y-68902580D03*
X88168480Y-67901820D03*
X90170000Y-66903600D03*
X88168480Y-65902840D03*
X90170000Y-64902080D03*
X94670880Y-63901320D03*
X92669360Y-62903100D03*
X94670880Y-61902340D03*
X92669360Y-60901580D03*
X94670880Y-59903360D03*
X92669360Y-58902600D03*
X94670880Y-57901840D03*
X92669360Y-56903620D03*
X94670880Y-55902860D03*
X92669360Y-54902100D03*
X94670880Y-53901340D03*
X92669360Y-52903120D03*
X94670880Y-51902360D03*
X92669360Y-50901600D03*
X94670880Y-49903380D03*
X92669360Y-48902620D03*
X94670880Y-47901860D03*
X92669360Y-46903640D03*
X94670880Y-45902880D03*
X92669360Y-44902120D03*
X94670880Y-43901360D03*
X92669360Y-42903140D03*
X94670880Y-41902380D03*
X92669360Y-40901620D03*
X94670880Y-39903400D03*
X92669360Y-38902640D03*
X94670880Y-37901880D03*
X92669360Y-36901120D03*
X94670880Y-35902900D03*
X92669360Y-34902140D03*
X94670880Y-33901380D03*
X92669360Y-32903160D03*
X94670880Y-31902400D03*
X88168480Y-63901320D03*
X90170000Y-62903100D03*
X88168480Y-61902340D03*
X90170000Y-60901580D03*
X88168480Y-59903360D03*
X90170000Y-58902600D03*
X88168480Y-57901840D03*
X90170000Y-56903620D03*
X88168480Y-55902860D03*
X90170000Y-54902100D03*
X88168480Y-53901340D03*
X90170000Y-52903120D03*
X88168480Y-51902360D03*
X90170000Y-50901600D03*
X88168480Y-49903380D03*
X90170000Y-48902620D03*
X88168480Y-47901860D03*
X90170000Y-46903640D03*
X88168480Y-45902880D03*
X90170000Y-44902120D03*
X88168480Y-43901360D03*
X90170000Y-42903140D03*
X88168480Y-41902380D03*
X90170000Y-40901620D03*
X88168480Y-39903400D03*
X90170000Y-38902640D03*
X88168480Y-37901880D03*
X90170000Y-36901120D03*
X88168480Y-35902900D03*
X90170000Y-34902140D03*
X88168480Y-33901380D03*
X90170000Y-32903160D03*
X88168480Y-31902400D03*
D22*
X151892000Y-72136000D03*
X151892000Y-67005200D03*
D23*
X142160000Y-251690000D03*
X144060000Y-251690000D03*
D24*
X163576000Y-238252000D03*
X163576000Y-240152000D03*
D23*
X109474000Y-212344000D03*
X111374000Y-212344000D03*
X107310000Y-220726000D03*
X105410000Y-220726000D03*
X116962000Y-212344000D03*
X115062000Y-212344000D03*
X131958000Y-226822000D03*
X133858000Y-226822000D03*
X137546000Y-239268000D03*
X139446000Y-239268000D03*
X139200000Y-222382000D03*
X141100000Y-222382000D03*
X100380000Y-237998000D03*
X98480000Y-237998000D03*
D24*
X151384000Y-241168000D03*
X151384000Y-239268000D03*
X145288000Y-239268000D03*
X145288000Y-241168000D03*
X122890000Y-249503528D03*
X122890000Y-251403528D03*
X97944000Y-245568000D03*
X97944000Y-247468000D03*
X121390000Y-249520000D03*
X121390000Y-251420000D03*
X117890000Y-249550000D03*
X117890000Y-251450000D03*
D23*
X100380000Y-235420000D03*
X98480000Y-235420000D03*
D24*
X119380000Y-215834000D03*
X119380000Y-213934000D03*
D23*
X100330000Y-231394000D03*
X98430000Y-231394000D03*
D24*
X122428000Y-215768000D03*
X122428000Y-213868000D03*
X106149000Y-245568000D03*
X106149000Y-243668000D03*
D23*
X119882000Y-195052000D03*
X117982000Y-195052000D03*
D24*
X113233267Y-243661749D03*
X113233267Y-245561749D03*
D23*
X84958000Y-108204000D03*
X83058000Y-108204000D03*
X144592000Y-96520000D03*
X146492000Y-96520000D03*
D25*
X161798000Y-97028000D03*
D26*
X161798000Y-99568000D03*
X161798000Y-102108000D03*
D25*
X161798000Y-108458000D03*
D26*
X161798000Y-110998000D03*
X161798000Y-113538000D03*
D27*
X157988000Y-92202000D03*
X160528000Y-92202000D03*
X163068000Y-92202000D03*
X163068000Y-79502000D03*
X160528000Y-79502000D03*
X157988000Y-79502000D03*
D23*
X119832000Y-191052000D03*
X117932000Y-191052000D03*
X83148000Y-110662000D03*
X85048000Y-110662000D03*
D28*
X144044724Y-90868200D03*
X146544724Y-90868200D03*
D24*
X148336000Y-239268000D03*
X148336000Y-241168000D03*
X110164000Y-243668000D03*
X110164000Y-245568000D03*
D22*
X160782000Y-72136000D03*
X160782000Y-67005200D03*
X151892000Y-46736000D03*
X151892000Y-41605200D03*
X151892000Y-59182000D03*
X151892000Y-54051200D03*
X160782000Y-59182000D03*
X160782000Y-54051200D03*
X160782000Y-46736000D03*
X160782000Y-41605200D03*
D11*
X139954000Y-255270000D03*
X142154000Y-255270000D03*
X139614000Y-233426000D03*
X137414000Y-233426000D03*
X141478000Y-230632000D03*
X139278000Y-230632000D03*
X141392000Y-226568000D03*
X139192000Y-226568000D03*
X139954000Y-259588000D03*
X137754000Y-259588000D03*
X117400000Y-219700000D03*
X115200000Y-219700000D03*
X139192000Y-228600000D03*
X141392000Y-228600000D03*
X139204000Y-224282000D03*
X141404000Y-224282000D03*
X107442000Y-223012000D03*
X105242000Y-223012000D03*
X139740000Y-235410000D03*
X137540000Y-235410000D03*
X139700000Y-237236000D03*
X137500000Y-237236000D03*
D29*
X125984000Y-251628000D03*
X125984000Y-249428000D03*
D30*
X154178000Y-240538000D03*
D31*
X160478000Y-240538000D03*
X160478000Y-238238000D03*
X160478000Y-242838000D03*
D32*
X100564000Y-245568000D03*
X100564000Y-246518000D03*
X100564000Y-247468000D03*
X103264000Y-247468000D03*
X103264000Y-245568000D03*
D33*
X110744000Y-216154000D03*
X116269000Y-216154000D03*
D11*
X161460000Y-19050000D03*
X163660000Y-19050000D03*
X161460000Y0D03*
X163660000Y0D03*
X161460000Y-11430000D03*
X163660000Y-11430000D03*
X161460000Y-22860000D03*
X163660000Y-22860000D03*
X161460000Y-3810000D03*
X163660000Y-3810000D03*
X161460000Y-15240000D03*
X163660000Y-15240000D03*
X161460000Y-7620000D03*
X163660000Y-7620000D03*
X146220000Y-19050000D03*
X148420000Y-19050000D03*
X146220000Y0D03*
X148420000Y0D03*
X146220000Y-11430000D03*
X148420000Y-11430000D03*
X146220000Y-22860000D03*
X148420000Y-22860000D03*
X146220000Y-15240000D03*
X148420000Y-15240000D03*
X146220000Y-7620000D03*
X148420000Y-7620000D03*
X161460000Y-26670000D03*
X163660000Y-26670000D03*
X148420000Y-26670000D03*
X146220000Y-26670000D03*
X146120000Y-33400000D03*
X148320000Y-33400000D03*
D34*
X147558000Y-30922000D03*
X147558000Y-29022000D03*
X145558000Y-29972000D03*
D35*
X95300800Y-235458000D03*
X144170400Y-236626400D03*
X163652200Y-17119600D03*
X136245600Y-113588800D03*
X114096800Y-113538000D03*
X153365200Y-102108000D03*
X164338000Y-40386000D03*
X104902000Y-113538000D03*
X163652200Y-13487400D03*
X155956000Y-245618000D03*
X106680000Y-193040000D03*
X96520000Y-193040000D03*
X162560000Y-246380000D03*
X134620000Y-254000000D03*
X149352000Y-100838000D03*
X116840000Y-93980000D03*
X139446000Y-36576000D03*
X131953000Y-228473000D03*
X140970000Y-246634000D03*
X107188000Y-239268000D03*
X103632000Y-225552000D03*
X154025600Y-198831200D03*
X154178000Y-178206400D03*
X134620000Y-127000000D03*
X154178000Y-226568000D03*
X94488000Y-220980000D03*
X90932000Y-233934000D03*
X94488000Y-230378000D03*
X122428000Y-218186000D03*
X122428000Y-223520000D03*
X163322000Y-123698000D03*
X129540000Y-175006000D03*
X129540000Y-99060000D03*
X163652200Y-5511800D03*
X149352000Y-106426000D03*
X93218000Y-121412000D03*
X137160000Y-116840000D03*
X124206000Y-106680000D03*
X134620000Y-81280000D03*
X126238000Y-188214000D03*
X126238000Y-177546000D03*
X134620000Y-91440000D03*
X158140400Y-95300800D03*
X134620000Y-96520000D03*
X89662000Y-228600000D03*
X96520000Y-228600000D03*
X96520000Y-226568000D03*
X89662000Y-226568000D03*
X163652200Y-1752600D03*
X127000000Y-73660000D03*
X127000000Y-40640000D03*
X132080000Y-81280000D03*
X116840000Y-106680000D03*
X143738600Y0D03*
X98806000Y-106680000D03*
X104140000Y-106680000D03*
X123190000Y-66040000D03*
X123190000Y-40640000D03*
X130048000Y-239014000D03*
X129286000Y-229362000D03*
X143510000Y-19050000D03*
X143510000Y-7594600D03*
X96316800Y-239115600D03*
X139700000Y-243941600D03*
X143510000Y-229057200D03*
X143560800Y-224485200D03*
X83058000Y-103886000D03*
X150876000Y-28956000D03*
X147320000Y-98806000D03*
X159512000Y-259080000D03*
X113792000Y-197612000D03*
X139700000Y-33782000D03*
X132080000Y-35560000D03*
X119380000Y-127000000D03*
X93980000Y-243840000D03*
D36*
X95338800Y-235420000D02*
X95300800Y-235458000D01*
D37*
X163652200Y-17119600D02*
X163652200Y-15247800D01*
X163652200Y-15247800D02*
X163660000Y-15240000D01*
X153365200Y-102108000D02*
X161798000Y-102108000D01*
X136245600Y-113588800D02*
X161747200Y-113588800D01*
X161747200Y-113588800D02*
X161798000Y-113538000D01*
X104902000Y-113538000D02*
X114096800Y-113538000D01*
X164338000Y-50495200D02*
X164338000Y-40386000D01*
X160782000Y-54051200D02*
X164338000Y-50495200D01*
X160782000Y-54051200D02*
X164896800Y-58166000D01*
X164896800Y-58166000D02*
X164896800Y-101295200D01*
X164896800Y-101295200D02*
X164084000Y-102108000D01*
X164084000Y-102108000D02*
X161798000Y-102108000D01*
X163652200Y-13487400D02*
X163652200Y-11437800D01*
X163652200Y-11437800D02*
X163660000Y-11430000D01*
X155966000Y-253432000D02*
X155966000Y-245628000D01*
X155966000Y-245628000D02*
X155956000Y-245618000D01*
D36*
X142154000Y-255270000D02*
X142154000Y-251696000D01*
X142154000Y-251696000D02*
X142160000Y-251690000D01*
X142154000Y-255270000D02*
X155028000Y-255270000D01*
X155966000Y-254332000D02*
X155028000Y-255270000D01*
X155966000Y-253432000D02*
X155966000Y-254332000D01*
D37*
X163800000Y-26800000D02*
X163800000Y-25969000D01*
X163800000Y-25969000D02*
X165023790Y-24745210D01*
X165023790Y-24745210D02*
X165023790Y-21183600D01*
X165023790Y-21183600D02*
X164962600Y-21183600D01*
X164962600Y-21183600D02*
X163660000Y-19881000D01*
X163660000Y-19881000D02*
X163660000Y-19050000D01*
X139446000Y-36576000D02*
X140728710Y-35293290D01*
X140728710Y-35293290D02*
X155191510Y-35293290D01*
X155191510Y-35293290D02*
X163713200Y-26771600D01*
X163713200Y-26771600D02*
X163863200Y-26771600D01*
X96520000Y-193040000D02*
X86360000Y-203200000D01*
X86360000Y-203200000D02*
X86360000Y-251460000D01*
X86360000Y-251460000D02*
X88900000Y-254000000D01*
X88900000Y-254000000D02*
X107551000Y-254000000D01*
X84074000Y-116586000D02*
X84074000Y-180594000D01*
X84074000Y-180594000D02*
X96520000Y-193040000D01*
X81026000Y-113538000D02*
X84074000Y-116586000D01*
X106680000Y-193040000D02*
X116700000Y-193040000D01*
X116700000Y-193040000D02*
X117932000Y-191808000D01*
X117932000Y-191808000D02*
X117932000Y-191052000D01*
X162560000Y-246380000D02*
X164776491Y-244163509D01*
X164776491Y-244163509D02*
X164776491Y-239677491D01*
X164776491Y-239677491D02*
X163576000Y-238477000D01*
X163576000Y-238477000D02*
X163576000Y-238252000D01*
X107551000Y-254000000D02*
X134620000Y-254000000D01*
X100564000Y-247468000D02*
X101019000Y-247468000D01*
X101019000Y-247468000D02*
X107551000Y-254000000D01*
X144044724Y-91874200D02*
X149352000Y-97181476D01*
X149352000Y-97181476D02*
X151738524Y-99568000D01*
X149352000Y-100838000D02*
X149352000Y-97181476D01*
X85048000Y-110662000D02*
X85048000Y-111418000D01*
X85048000Y-111418000D02*
X82928000Y-113538000D01*
X89693291Y-91909899D02*
X93208649Y-91909899D01*
X82928000Y-113538000D02*
X81026000Y-113538000D01*
X78994000Y-111506000D02*
X78994000Y-101605890D01*
X81026000Y-113538000D02*
X78994000Y-111506000D01*
X93208649Y-91909899D02*
X94194171Y-92895421D01*
X78994000Y-101605890D02*
X87691771Y-92908119D01*
X94194171Y-92895421D02*
X96959421Y-92895421D01*
X87691771Y-92908119D02*
X88695071Y-92908119D01*
X98044000Y-93980000D02*
X116840000Y-93980000D01*
X88695071Y-92908119D02*
X89693291Y-91909899D01*
X96959421Y-92895421D02*
X98044000Y-93980000D01*
X144044724Y-90868200D02*
X144044724Y-91874200D01*
X151738524Y-99568000D02*
X152869524Y-99568000D01*
X161798000Y-99568000D02*
X152869524Y-99568000D01*
D36*
X100564000Y-245568000D02*
X98806000Y-245568000D01*
X98806000Y-245568000D02*
X97944000Y-245568000D01*
X99060000Y-246998000D02*
X99060000Y-245822000D01*
X99060000Y-245822000D02*
X98806000Y-245568000D01*
X100564000Y-247468000D02*
X99530000Y-247468000D01*
X99530000Y-247468000D02*
X99060000Y-246998000D01*
X160478000Y-238238000D02*
X163562000Y-238238000D01*
X163562000Y-238238000D02*
X163576000Y-238252000D01*
D38*
X117707000Y-191052000D02*
X117932000Y-191052000D01*
D36*
X110744000Y-216154000D02*
X111206500Y-216154000D01*
X111206500Y-216154000D02*
X114752500Y-219700000D01*
X114752500Y-219700000D02*
X115200000Y-219700000D01*
X116892000Y-222556000D02*
X115200000Y-220864000D01*
X115200000Y-220864000D02*
X115200000Y-219700000D01*
X116892000Y-227464000D02*
X116892000Y-222556000D01*
X110744000Y-216154000D02*
X110744000Y-213389000D01*
X110744000Y-213389000D02*
X109699000Y-212344000D01*
X109699000Y-212344000D02*
X109474000Y-212344000D01*
X115232000Y-219710000D02*
X115082000Y-219710000D01*
X131958000Y-226822000D02*
X131958000Y-228468000D01*
X131958000Y-228468000D02*
X131953000Y-228473000D01*
X142748000Y-238760000D02*
X142748000Y-244856000D01*
X142748000Y-244856000D02*
X140970000Y-246634000D01*
X142748000Y-238760000D02*
X143256000Y-239268000D01*
X142240000Y-238252000D02*
X142748000Y-238760000D01*
X143256000Y-239268000D02*
X144018000Y-239268000D01*
X144018000Y-239268000D02*
X145288000Y-239268000D01*
X100380000Y-237998000D02*
X100380000Y-238810000D01*
X100380000Y-238810000D02*
X100838000Y-239268000D01*
X100838000Y-239268000D02*
X107188000Y-239268000D01*
X103632000Y-222504000D02*
X103632000Y-225552000D01*
X104140000Y-221996000D02*
X103632000Y-222504000D01*
X106669000Y-221996000D02*
X104140000Y-221996000D01*
X107310000Y-220726000D02*
X107310000Y-221355000D01*
X107310000Y-221355000D02*
X106669000Y-221996000D01*
X136305000Y-238252000D02*
X142240000Y-238252000D01*
X136305000Y-238252000D02*
X137321000Y-239268000D01*
X134467000Y-236414000D02*
X136305000Y-238252000D01*
X145288000Y-239268000D02*
X148336000Y-239268000D01*
X116392000Y-223580000D02*
X113538000Y-220726000D01*
X113538000Y-220726000D02*
X107310000Y-220726000D01*
X116392000Y-227464000D02*
X116392000Y-223580000D01*
X121892000Y-227464000D02*
X121892000Y-228468000D01*
X121892000Y-228468000D02*
X122257799Y-228833799D01*
X122257799Y-228833799D02*
X126004201Y-228833799D01*
X126004201Y-228833799D02*
X128016000Y-226822000D01*
X128016000Y-226822000D02*
X131958000Y-226822000D01*
X125342000Y-236414000D02*
X134467000Y-236414000D01*
X137321000Y-239268000D02*
X137546000Y-239268000D01*
X113942000Y-236914000D02*
X100835000Y-236914000D01*
X100835000Y-236914000D02*
X100380000Y-237369000D01*
X100380000Y-237369000D02*
X100380000Y-237998000D01*
X117400000Y-219700000D02*
X117400000Y-217285000D01*
X117400000Y-217285000D02*
X116269000Y-216154000D01*
X117392000Y-221024000D02*
X117400000Y-221016000D01*
X117400000Y-221016000D02*
X117400000Y-219700000D01*
X117392000Y-227464000D02*
X117392000Y-221024000D01*
X116269000Y-216154000D02*
X116269000Y-213037000D01*
X116269000Y-213037000D02*
X116962000Y-212344000D01*
X125344000Y-222382000D02*
X122892000Y-224834000D01*
X122892000Y-224834000D02*
X122892000Y-227464000D01*
X125730000Y-222382000D02*
X125344000Y-222382000D01*
X139200000Y-222382000D02*
X125730000Y-222382000D01*
D37*
X136893290Y-106184710D02*
X136893290Y-32867600D01*
X162103400Y-25247600D02*
X144513290Y-25247600D01*
X144513290Y-25247600D02*
X136893290Y-32867600D01*
X163660000Y-22860000D02*
X163660000Y-23691000D01*
X163660000Y-23691000D02*
X162103400Y-25247600D01*
D36*
X154178000Y-178206400D02*
X154178000Y-198678800D01*
X154178000Y-198678800D02*
X154025600Y-198831200D01*
D37*
X134620000Y-108458000D02*
X134620000Y-116840000D01*
X134620000Y-108458000D02*
X136893290Y-106184710D01*
X134620000Y-127000000D02*
X134620000Y-116840000D01*
X154178000Y-237490000D02*
X154178000Y-226568000D01*
X150114000Y-233426000D02*
X154178000Y-237490000D01*
X154178000Y-237490000D02*
X154178000Y-240538000D01*
X141392000Y-226568000D02*
X143256000Y-226568000D01*
X143256000Y-226568000D02*
X147320000Y-230632000D01*
X150114000Y-233426000D02*
X147320000Y-230632000D01*
X147320000Y-230632000D02*
X141478000Y-230632000D01*
X139614000Y-233426000D02*
X150114000Y-233426000D01*
X148336000Y-241168000D02*
X151384000Y-241168000D01*
X151384000Y-241168000D02*
X153548000Y-241168000D01*
X153548000Y-241168000D02*
X154178000Y-240538000D01*
X160478000Y-240538000D02*
X159097000Y-240538000D01*
X159097000Y-240538000D02*
X154178000Y-240538000D01*
D36*
X94488000Y-220980000D02*
X94488000Y-230378000D01*
X119392000Y-227464000D02*
X119392000Y-221234000D01*
X119392000Y-221234000D02*
X119392000Y-218198000D01*
X122428000Y-218186000D02*
X121876821Y-218737179D01*
X121876821Y-218737179D02*
X121876821Y-218749179D01*
X121876821Y-218749179D02*
X119392000Y-221234000D01*
X90380821Y-238970821D02*
X91440000Y-240030000D01*
X91440000Y-240030000D02*
X91948000Y-240538000D01*
X93218000Y-236728000D02*
X91440000Y-238506000D01*
X91440000Y-238506000D02*
X91440000Y-240030000D01*
X99701000Y-236728000D02*
X93218000Y-236728000D01*
X100380000Y-235420000D02*
X100380000Y-236049000D01*
X100380000Y-236049000D02*
X99701000Y-236728000D01*
X116510251Y-243661749D02*
X115316000Y-243661749D01*
X115316000Y-243661749D02*
X113233267Y-243661749D01*
X91948000Y-240538000D02*
X112192251Y-240538000D01*
X112192251Y-240538000D02*
X115316000Y-243661749D01*
X90932000Y-233934000D02*
X90380821Y-234485179D01*
X90380821Y-234485179D02*
X90380821Y-238970821D01*
X100330000Y-231394000D02*
X100105000Y-231394000D01*
X100105000Y-231394000D02*
X99089000Y-230378000D01*
X99089000Y-230378000D02*
X98983362Y-230378000D01*
X98983362Y-230378000D02*
X94488000Y-230378000D01*
X121390000Y-249520000D02*
X122873528Y-249520000D01*
X122873528Y-249520000D02*
X122890000Y-249503528D01*
X117890000Y-249550000D02*
X121360000Y-249550000D01*
X121360000Y-249550000D02*
X121390000Y-249520000D01*
X117892000Y-243840000D02*
X117892000Y-247940000D01*
X117892000Y-241808000D02*
X117892000Y-243840000D01*
X117892000Y-243840000D02*
X117892000Y-244638000D01*
X117892000Y-242280000D02*
X116510251Y-243661749D01*
X117892000Y-241610000D02*
X117892000Y-241808000D01*
X117892000Y-241808000D02*
X117892000Y-242280000D01*
X113233267Y-243661749D02*
X110170251Y-243661749D01*
X110170251Y-243661749D02*
X110164000Y-243668000D01*
X119380000Y-215834000D02*
X119380000Y-218186000D01*
X119380000Y-218186000D02*
X119392000Y-218198000D01*
X122428000Y-218186000D02*
X122428000Y-215768000D01*
X122392000Y-227464000D02*
X122392000Y-223556000D01*
X122392000Y-223556000D02*
X122428000Y-223520000D01*
X117892000Y-247940000D02*
X117890000Y-247942000D01*
X117890000Y-247942000D02*
X117890000Y-249550000D01*
X117892000Y-241610000D02*
X117892000Y-241772000D01*
X117892000Y-238864000D02*
X117892000Y-241610000D01*
X121390000Y-249520000D02*
X121390000Y-238866000D01*
X121390000Y-238866000D02*
X121392000Y-238864000D01*
X121392000Y-239868000D02*
X121392000Y-238864000D01*
X122892000Y-238864000D02*
X122892000Y-248368000D01*
X122892000Y-248368000D02*
X122890000Y-248370000D01*
X122890000Y-248370000D02*
X122890000Y-249503528D01*
X113942000Y-231414000D02*
X100350000Y-231414000D01*
X100350000Y-231414000D02*
X100330000Y-231394000D01*
X113942000Y-235414000D02*
X102914000Y-235414000D01*
X102908000Y-235420000D02*
X100380000Y-235420000D01*
X102914000Y-235414000D02*
X102908000Y-235420000D01*
X138125200Y-197241160D02*
X137124440Y-197241160D01*
X137124440Y-197241160D02*
X136123680Y-196240400D01*
X131622800Y-195242180D02*
X132470536Y-195242180D01*
X132470536Y-195242180D02*
X132541655Y-195171061D01*
X132541655Y-195171061D02*
X135054341Y-195171061D01*
X135054341Y-195171061D02*
X135524241Y-195640961D01*
X135524241Y-195640961D02*
X136123680Y-196240400D01*
X121103000Y-194056000D02*
X130436620Y-194056000D01*
X130436620Y-194056000D02*
X131622800Y-195242180D01*
X119882000Y-195052000D02*
X120107000Y-195052000D01*
X120107000Y-195052000D02*
X121103000Y-194056000D01*
X119832000Y-191052000D02*
X119832000Y-195002000D01*
X119832000Y-195002000D02*
X119882000Y-195052000D01*
D37*
X84958000Y-108204000D02*
X85939000Y-108204000D01*
X85939000Y-108204000D02*
X87234401Y-106908599D01*
X87234401Y-106908599D02*
X88632491Y-106908599D01*
X88632491Y-106908599D02*
X89638330Y-105902760D01*
X89638330Y-105902760D02*
X90639090Y-105902760D01*
X90639090Y-105902760D02*
X90654330Y-105918000D01*
X93823144Y-105902760D02*
X94670880Y-105902760D01*
X90654330Y-105918000D02*
X92185030Y-105918000D01*
X92185030Y-105918000D02*
X92200270Y-105902760D01*
X92200270Y-105902760D02*
X93823144Y-105902760D01*
X83148000Y-110662000D02*
X83148000Y-110014000D01*
X83148000Y-110014000D02*
X84958000Y-108204000D01*
D36*
X83373000Y-110662000D02*
X83148000Y-110662000D01*
D37*
X160020000Y-94234000D02*
X151041524Y-94234000D01*
X160528000Y-93726000D02*
X160020000Y-94234000D01*
X160528000Y-92202000D02*
X160528000Y-93726000D01*
X147675724Y-90868200D02*
X146544724Y-90868200D01*
X151041524Y-94234000D02*
X147675724Y-90868200D01*
X141732000Y-95504000D02*
X142748000Y-96520000D01*
X142748000Y-96520000D02*
X144592000Y-96520000D01*
X141732000Y-89662000D02*
X141732000Y-95504000D01*
X143002000Y-88392000D02*
X141732000Y-89662000D01*
X146544724Y-89862200D02*
X145074524Y-88392000D01*
X146544724Y-90868200D02*
X146544724Y-89862200D01*
X145074524Y-88392000D02*
X143002000Y-88392000D01*
D36*
X146402273Y-91010651D02*
X146544724Y-90868200D01*
X138125200Y-201241660D02*
X138724639Y-200642221D01*
X138724639Y-200642221D02*
X144848579Y-200642221D01*
X144848579Y-200642221D02*
X148082000Y-197408800D01*
X148082000Y-197408800D02*
X148082000Y-129184400D01*
X148082000Y-129184400D02*
X156616400Y-120650000D01*
X156616400Y-120650000D02*
X157734000Y-120650000D01*
X160274000Y-120650000D02*
X163322000Y-123698000D01*
X157734000Y-123190000D02*
X156512686Y-123190000D01*
X152400000Y-127302686D02*
X152400000Y-200050400D01*
X156512686Y-123190000D02*
X152400000Y-127302686D01*
X152400000Y-200050400D02*
X149209760Y-203240640D01*
X149209760Y-203240640D02*
X138125200Y-203240640D01*
X164642790Y-198184618D02*
X164642790Y-129032000D01*
X164642790Y-129032000D02*
X164642790Y-127558790D01*
X164642790Y-127558790D02*
X160274000Y-123190000D01*
X153226618Y-209600790D02*
X164642790Y-198184618D01*
X138365382Y-209600790D02*
X153226618Y-209600790D01*
X137053321Y-208288729D02*
X138365382Y-209600790D01*
X136123680Y-204241400D02*
X137053321Y-205171041D01*
X137053321Y-205171041D02*
X137053321Y-208288729D01*
X155448000Y-128789174D02*
X155448000Y-164693600D01*
X155448000Y-164693600D02*
X155448000Y-165100000D01*
X138125200Y-205242160D02*
X149291040Y-205242160D01*
X155448000Y-199085200D02*
X155448000Y-164693600D01*
X149291040Y-205242160D02*
X155448000Y-199085200D01*
X157734000Y-125730000D02*
X155448000Y-128016000D01*
X155448000Y-128016000D02*
X155448000Y-128789174D01*
X136123680Y-206240380D02*
X136123680Y-208026760D01*
X136123680Y-208026760D02*
X136652000Y-208555080D01*
X136652000Y-208555080D02*
X136673080Y-208555080D01*
X153416000Y-210058000D02*
X165100000Y-198374000D01*
X165100000Y-118872000D02*
X164338000Y-118110000D01*
X136673080Y-208555080D02*
X138176000Y-210058000D01*
X138176000Y-210058000D02*
X153416000Y-210058000D01*
X159766000Y-118110000D02*
X159004000Y-118872000D01*
X165100000Y-198374000D02*
X165100000Y-118872000D01*
X164338000Y-118110000D02*
X159766000Y-118110000D01*
X159004000Y-118872000D02*
X159004000Y-124460000D01*
X159004000Y-124460000D02*
X160274000Y-125730000D01*
X157734000Y-128270000D02*
X157734000Y-200406000D01*
X157734000Y-200406000D02*
X150898860Y-207241140D01*
X150898860Y-207241140D02*
X138125200Y-207241140D01*
X91440000Y-231394000D02*
X91555408Y-231394000D01*
X91555408Y-231394000D02*
X94075408Y-233914000D01*
X94075408Y-233914000D02*
X113942000Y-233914000D01*
X91440000Y-231394000D02*
X91440000Y-212090000D01*
X113942000Y-233914000D02*
X111780000Y-233914000D01*
X91440000Y-212090000D02*
X101346000Y-202184000D01*
X101346000Y-202184000D02*
X132080000Y-202184000D01*
X132080000Y-202184000D02*
X133024881Y-203128881D01*
X133024881Y-203128881D02*
X133024881Y-203641961D01*
X133024881Y-203641961D02*
X133624320Y-204241400D01*
X91948000Y-212228592D02*
X91948000Y-230886000D01*
X113942000Y-233414000D02*
X94222000Y-233414000D01*
X94222000Y-233414000D02*
X91948000Y-231140000D01*
X91948000Y-231140000D02*
X91948000Y-230886000D01*
X120836000Y-203164678D02*
X120836000Y-202941201D01*
X120236000Y-203164678D02*
X120228478Y-203231435D01*
X119665709Y-203294844D02*
X119643521Y-203231435D01*
X131622800Y-203240640D02*
X131023361Y-202641201D01*
X120806290Y-202811036D02*
X120770549Y-202754155D01*
X122036000Y-203164678D02*
X122036000Y-202941201D01*
X119643521Y-203231435D02*
X119636000Y-203164678D01*
X131023361Y-202641201D02*
X122936000Y-202641201D01*
X121436000Y-203164678D02*
X121428478Y-203231435D01*
X121605834Y-202670911D02*
X121548953Y-202706652D01*
X122701450Y-202754155D02*
X122665709Y-202811036D01*
X121866165Y-202670911D02*
X121802756Y-202648723D01*
X122336000Y-203464678D02*
X122269243Y-203457157D01*
X122606290Y-203294844D02*
X122570549Y-203351725D01*
X122205834Y-203434969D02*
X122148953Y-203399228D01*
X122936000Y-202641201D02*
X122869243Y-202648723D01*
X122869243Y-202648723D02*
X122805834Y-202670911D01*
X121202756Y-203457157D02*
X121136000Y-203464678D01*
X118436000Y-202941201D02*
X118428478Y-202874445D01*
X121923046Y-202706652D02*
X121866165Y-202670911D01*
X122748953Y-202706652D02*
X122701450Y-202754155D01*
X118370549Y-202754155D02*
X118323046Y-202706652D01*
X122628478Y-203231435D02*
X122606290Y-203294844D01*
X119466165Y-202670911D02*
X119402756Y-202648723D01*
X119570549Y-202754155D02*
X119523046Y-202706652D01*
X122805834Y-202670911D02*
X122748953Y-202706652D01*
X118501450Y-203351725D02*
X118465709Y-203294844D01*
X122665709Y-202811036D02*
X122643521Y-202874445D01*
X122402756Y-203457157D02*
X122336000Y-203464678D01*
X119748953Y-203399228D02*
X119701450Y-203351725D01*
X122643521Y-202874445D02*
X122636000Y-202941201D01*
X121370549Y-203351725D02*
X121323046Y-203399228D01*
X122636000Y-202941201D02*
X122636000Y-203164678D01*
X120723046Y-202706652D02*
X120666165Y-202670911D01*
X122036000Y-202941201D02*
X122028478Y-202874445D01*
X122570549Y-203351725D02*
X122523046Y-203399228D01*
X119869243Y-203457157D02*
X119805834Y-203434969D01*
X122636000Y-203164678D02*
X122628478Y-203231435D01*
X120836000Y-202941201D02*
X120828478Y-202874445D01*
X118970549Y-203351725D02*
X118923046Y-203399228D01*
X122523046Y-203399228D02*
X122466165Y-203434969D01*
X122148953Y-203399228D02*
X122101450Y-203351725D01*
X121436000Y-202941201D02*
X121436000Y-203164678D01*
X122466165Y-203434969D02*
X122402756Y-203457157D01*
X122269243Y-203457157D02*
X122205834Y-203434969D01*
X121736000Y-202641201D02*
X121669243Y-202648723D01*
X120901450Y-203351725D02*
X120865709Y-203294844D01*
X122101450Y-203351725D02*
X122065709Y-203294844D01*
X122028478Y-202874445D02*
X122006290Y-202811036D01*
X122065709Y-203294844D02*
X122043521Y-203231435D01*
X122043521Y-203231435D02*
X122036000Y-203164678D01*
X121970549Y-202754155D02*
X121923046Y-202706652D01*
X120828478Y-202874445D02*
X120806290Y-202811036D01*
X120236000Y-202941201D02*
X120236000Y-203164678D01*
X122006290Y-202811036D02*
X121970549Y-202754155D01*
X121069243Y-203457157D02*
X121005834Y-203434969D01*
X118465709Y-203294844D02*
X118443521Y-203231435D01*
X119636000Y-203164678D02*
X119636000Y-202941201D01*
X121802756Y-202648723D02*
X121736000Y-202641201D01*
X121669243Y-202648723D02*
X121605834Y-202670911D01*
X121548953Y-202706652D02*
X121501450Y-202754155D01*
X121501450Y-202754155D02*
X121465709Y-202811036D01*
X121465709Y-202811036D02*
X121443521Y-202874445D01*
X101535391Y-202641201D02*
X91948000Y-212228592D01*
X121136000Y-203464678D02*
X121069243Y-203457157D01*
X121443521Y-202874445D02*
X121436000Y-202941201D01*
X118736000Y-203464678D02*
X118669243Y-203457157D01*
X121428478Y-203231435D02*
X121406290Y-203294844D01*
X121406290Y-203294844D02*
X121370549Y-203351725D01*
X120066165Y-203434969D02*
X120002756Y-203457157D01*
X121323046Y-203399228D02*
X121266165Y-203434969D01*
X120206290Y-203294844D02*
X120170549Y-203351725D01*
X120843521Y-203231435D02*
X120836000Y-203164678D01*
X121266165Y-203434969D02*
X121202756Y-203457157D01*
X119636000Y-202941201D02*
X119628478Y-202874445D01*
X121005834Y-203434969D02*
X120948953Y-203399228D01*
X120948953Y-203399228D02*
X120901450Y-203351725D01*
X120865709Y-203294844D02*
X120843521Y-203231435D01*
X119402756Y-202648723D02*
X119336000Y-202641201D01*
X119523046Y-202706652D02*
X119466165Y-202670911D01*
X120770549Y-202754155D02*
X120723046Y-202706652D01*
X120666165Y-202670911D02*
X120602756Y-202648723D01*
X119205834Y-202670911D02*
X119148953Y-202706652D01*
X119269243Y-202648723D02*
X119205834Y-202670911D01*
X120265709Y-202811036D02*
X120243521Y-202874445D01*
X120602756Y-202648723D02*
X120536000Y-202641201D01*
X120536000Y-202641201D02*
X120469243Y-202648723D01*
X120469243Y-202648723D02*
X120405834Y-202670911D01*
X120405834Y-202670911D02*
X120348953Y-202706652D01*
X120348953Y-202706652D02*
X120301450Y-202754155D01*
X120301450Y-202754155D02*
X120265709Y-202811036D01*
X120243521Y-202874445D02*
X120236000Y-202941201D01*
X118202756Y-202648723D02*
X118136000Y-202641201D01*
X119701450Y-203351725D02*
X119665709Y-203294844D01*
X120228478Y-203231435D02*
X120206290Y-203294844D01*
X120170549Y-203351725D02*
X120123046Y-203399228D01*
X120123046Y-203399228D02*
X120066165Y-203434969D01*
X120002756Y-203457157D02*
X119936000Y-203464678D01*
X119936000Y-203464678D02*
X119869243Y-203457157D01*
X119036000Y-202941201D02*
X119036000Y-203164678D01*
X119805834Y-203434969D02*
X119748953Y-203399228D01*
X119628478Y-202874445D02*
X119606290Y-202811036D01*
X119606290Y-202811036D02*
X119570549Y-202754155D01*
X119336000Y-202641201D02*
X119269243Y-202648723D01*
X119148953Y-202706652D02*
X119101450Y-202754155D01*
X118406290Y-202811036D02*
X118370549Y-202754155D01*
X119101450Y-202754155D02*
X119065709Y-202811036D01*
X119065709Y-202811036D02*
X119043521Y-202874445D01*
X119043521Y-202874445D02*
X119036000Y-202941201D01*
X119036000Y-203164678D02*
X119028478Y-203231435D01*
X118802756Y-203457157D02*
X118736000Y-203464678D01*
X119028478Y-203231435D02*
X119006290Y-203294844D01*
X119006290Y-203294844D02*
X118970549Y-203351725D01*
X118923046Y-203399228D02*
X118866165Y-203434969D01*
X118866165Y-203434969D02*
X118802756Y-203457157D01*
X118669243Y-203457157D02*
X118605834Y-203434969D01*
X118605834Y-203434969D02*
X118548953Y-203399228D01*
X118548953Y-203399228D02*
X118501450Y-203351725D01*
X118443521Y-203231435D02*
X118436000Y-203164678D01*
X118436000Y-203164678D02*
X118436000Y-202941201D01*
X118136000Y-202641201D02*
X101535391Y-202641201D01*
X118428478Y-202874445D02*
X118406290Y-202811036D01*
X118323046Y-202706652D02*
X118266165Y-202670911D01*
X118266165Y-202670911D02*
X118202756Y-202648723D01*
X129540000Y-116840000D02*
X129540000Y-117449600D01*
X129540000Y-117449600D02*
X129540000Y-118110000D01*
X129540000Y-109220000D02*
X129540000Y-117449600D01*
X129540000Y-120904000D02*
X129540000Y-175006000D01*
X129540000Y-118110000D02*
X129540000Y-120904000D01*
X129540000Y-99839486D02*
X129540000Y-109220000D01*
D37*
X129540000Y-99060000D02*
X129540000Y-99839486D01*
X163652200Y-5511800D02*
X163652200Y-3817800D01*
X163652200Y-3817800D02*
X163660000Y-3810000D01*
D39*
X139395210Y-60198000D02*
X139395210Y-59486790D01*
X139395210Y-59486790D02*
X144830800Y-54051200D01*
X144830800Y-54051200D02*
X151892000Y-54051200D01*
X139395210Y-60198000D02*
X139395210Y-54101990D01*
X139395210Y-96469210D02*
X139395210Y-60198000D01*
X139395210Y-54101990D02*
X151892000Y-41605200D01*
X149352000Y-106426000D02*
X139395210Y-96469210D01*
X131622800Y-189242700D02*
X132626100Y-189242700D01*
X132626100Y-189242700D02*
X133624320Y-190240920D01*
X91669715Y-121412000D02*
X92456000Y-121412000D01*
X92456000Y-121412000D02*
X93218000Y-121412000D01*
X88168480Y-113901220D02*
X88168480Y-120426480D01*
X88168480Y-120426480D02*
X89154000Y-121412000D01*
X89154000Y-121412000D02*
X92456000Y-121412000D01*
X92669360Y-114901980D02*
X92669360Y-115749716D01*
X92669360Y-115749716D02*
X93218000Y-116298356D01*
X93218000Y-116298356D02*
X93218000Y-121412000D01*
X94670880Y-113901220D02*
X93670120Y-113901220D01*
X93670120Y-113901220D02*
X92669360Y-114901980D01*
X92669360Y-112903000D02*
X93667580Y-113901220D01*
X93667580Y-113901220D02*
X94670880Y-113901220D01*
D37*
X92669360Y-112903000D02*
X92669360Y-114901980D01*
D36*
X144962880Y-184404000D02*
X144962880Y-124642880D01*
X144962880Y-124642880D02*
X137160000Y-116840000D01*
X127000000Y-103886000D02*
X127000000Y-97525802D01*
X124206000Y-106680000D02*
X124757179Y-106128821D01*
X124757179Y-106128821D02*
X127000000Y-103886000D01*
X132791210Y-91734592D02*
X132791210Y-83108790D01*
X132791210Y-83108790D02*
X134620000Y-81280000D01*
X127000000Y-97525802D02*
X132791210Y-91734592D01*
X137160000Y-117094000D02*
X137160000Y-116840000D01*
X138125200Y-191241680D02*
X144962880Y-184404000D01*
X134620000Y-91440000D02*
X128270000Y-97790000D01*
X128270000Y-97790000D02*
X128270000Y-113741200D01*
X128270000Y-113741200D02*
X126238000Y-115773200D01*
X126238000Y-115773200D02*
X126238000Y-118364000D01*
X126238000Y-118364000D02*
X126238000Y-177546000D01*
X126238000Y-188214000D02*
X126238000Y-188993486D01*
X129555533Y-192311019D02*
X132317029Y-192311019D01*
X126238000Y-188993486D02*
X129555533Y-192311019D01*
X132317029Y-192311019D02*
X133246670Y-193240660D01*
X133246670Y-193240660D02*
X137277464Y-193240660D01*
X137277464Y-193240660D02*
X138125200Y-193240660D01*
D37*
X132080000Y-109016800D02*
X132080000Y-109220000D01*
X132080000Y-99060000D02*
X132080000Y-109016800D01*
X132080000Y-109016800D02*
X132080000Y-177292000D01*
X132080000Y-177292000D02*
X122936000Y-186436000D01*
X122936000Y-186436000D02*
X122936000Y-192024000D01*
X124513340Y-193240660D02*
X131622800Y-193240660D01*
X122936000Y-192024000D02*
X124206000Y-193294000D01*
X124206000Y-193294000D02*
X124460000Y-193294000D01*
X124460000Y-193294000D02*
X124513340Y-193240660D01*
X158140400Y-95300800D02*
X160223200Y-95300800D01*
X160223200Y-95300800D02*
X160274000Y-95250000D01*
X134620000Y-96520000D02*
X132080000Y-99060000D01*
X163068000Y-92456000D02*
X160274000Y-95250000D01*
D36*
X163068000Y-92456000D02*
X163068000Y-92202000D01*
X93267069Y-100125069D02*
X93268799Y-100123339D01*
X93268799Y-100123339D02*
X93268799Y-99501959D01*
X93268799Y-99501959D02*
X92669360Y-98902520D01*
X93268799Y-100125069D02*
X93267069Y-100125069D01*
X89662000Y-228600000D02*
X87884000Y-226822000D01*
X87884000Y-226822000D02*
X87884000Y-214041506D01*
X87884000Y-214041506D02*
X101142790Y-200782716D01*
X101142790Y-200782716D02*
X101142790Y-101535382D01*
X93981730Y-100838000D02*
X93268799Y-100125069D01*
X101142790Y-101535382D02*
X100445408Y-100838000D01*
X100445408Y-100838000D02*
X93981730Y-100838000D01*
X98850000Y-229914000D02*
X97536000Y-228600000D01*
X97536000Y-228600000D02*
X96520000Y-228600000D01*
X113942000Y-229914000D02*
X98850000Y-229914000D01*
X101629709Y-185683834D02*
X101607521Y-185747243D01*
X94670880Y-99903280D02*
X101274880Y-99903280D01*
X102266573Y-185506478D02*
X102199817Y-185514000D01*
X101900000Y-184914000D02*
X102199817Y-184914000D01*
X101274880Y-99903280D02*
X101600000Y-100228400D01*
X101607521Y-185747243D02*
X101600000Y-185814000D01*
X101833243Y-185521521D02*
X101769834Y-185543709D01*
X101769834Y-186743709D02*
X101712953Y-186779450D01*
X101769834Y-184884290D02*
X101833243Y-184906478D01*
X101769834Y-185543709D02*
X101712953Y-185579450D01*
X101600000Y-100228400D02*
X101600000Y-184614000D01*
X102386863Y-186179450D02*
X102434366Y-186226953D01*
X101600000Y-184614000D02*
X101607521Y-184680756D01*
X102266573Y-186706478D02*
X102199817Y-186714000D01*
X101665450Y-187201046D02*
X101712953Y-187248549D01*
X101607521Y-184680756D02*
X101629709Y-184744165D01*
X101712953Y-184848549D02*
X101769834Y-184884290D01*
X102434366Y-187801046D02*
X102386863Y-187848549D01*
X101665450Y-185626953D02*
X101629709Y-185683834D01*
X101629709Y-184744165D02*
X101665450Y-184801046D01*
X101665450Y-184801046D02*
X101712953Y-184848549D01*
X102492295Y-187680756D02*
X102470107Y-187744165D01*
X101833243Y-186106478D02*
X101900000Y-186114000D01*
X102266573Y-186121521D02*
X102329982Y-186143709D01*
X101833243Y-184906478D02*
X101900000Y-184914000D01*
X102470107Y-185344165D02*
X102434366Y-185401046D01*
X102199817Y-184914000D02*
X102266573Y-184921521D01*
X101600000Y-185814000D02*
X101607521Y-185880756D01*
X102266573Y-184921521D02*
X102329982Y-184943709D01*
X102329982Y-186684290D02*
X102266573Y-186706478D01*
X101629709Y-187144165D02*
X101665450Y-187201046D01*
X102434366Y-185026953D02*
X102470107Y-185083834D01*
X102386863Y-185448549D02*
X102329982Y-185484290D01*
X102199817Y-186714000D02*
X101900000Y-186714000D01*
X102499817Y-185214000D02*
X102492295Y-185280756D01*
X102329982Y-184943709D02*
X102386863Y-184979450D01*
X102470107Y-187483834D02*
X102492295Y-187547243D01*
X101712953Y-185579450D02*
X101665450Y-185626953D01*
X101607521Y-187080756D02*
X101629709Y-187144165D01*
X102386863Y-184979450D02*
X102434366Y-185026953D01*
X102470107Y-185083834D02*
X102492295Y-185147243D01*
X101629709Y-186883834D02*
X101607521Y-186947243D01*
X102386863Y-187379450D02*
X102434366Y-187426953D01*
X102492295Y-185147243D02*
X102499817Y-185214000D01*
X102492295Y-185280756D02*
X102470107Y-185344165D01*
X102434366Y-185401046D02*
X102386863Y-185448549D01*
X102329982Y-185484290D02*
X102266573Y-185506478D01*
X101769834Y-186084290D02*
X101833243Y-186106478D01*
X102266573Y-187906478D02*
X102199817Y-187914000D01*
X101769834Y-187943709D02*
X101712953Y-187979450D01*
X102199817Y-185514000D02*
X101900000Y-185514000D01*
X102434366Y-186601046D02*
X102386863Y-186648549D01*
X101900000Y-185514000D02*
X101833243Y-185521521D01*
X101607521Y-185880756D02*
X101629709Y-185944165D01*
X102499817Y-186414000D02*
X102492295Y-186480756D01*
X101629709Y-185944165D02*
X101665450Y-186001046D01*
X101665450Y-186001046D02*
X101712953Y-186048549D01*
X101712953Y-186779450D02*
X101665450Y-186826953D01*
X101712953Y-186048549D02*
X101769834Y-186084290D01*
X101900000Y-186114000D02*
X102199817Y-186114000D01*
X101900000Y-186714000D02*
X101833243Y-186721521D01*
X102199817Y-186114000D02*
X102266573Y-186121521D01*
X102329982Y-186143709D02*
X102386863Y-186179450D01*
X102434366Y-186226953D02*
X102470107Y-186283834D01*
X101833243Y-187921521D02*
X101769834Y-187943709D01*
X102470107Y-186283834D02*
X102492295Y-186347243D01*
X102492295Y-186347243D02*
X102499817Y-186414000D01*
X102492295Y-186480756D02*
X102470107Y-186544165D01*
X101769834Y-187284290D02*
X101833243Y-187306478D01*
X101600000Y-187014000D02*
X101607521Y-187080756D01*
X102470107Y-186544165D02*
X102434366Y-186601046D01*
X102386863Y-186648549D02*
X102329982Y-186684290D01*
X88392000Y-225298000D02*
X89662000Y-226568000D01*
X101833243Y-186721521D02*
X101769834Y-186743709D01*
X101665450Y-186826953D02*
X101629709Y-186883834D01*
X101607521Y-186947243D02*
X101600000Y-187014000D01*
X101712953Y-187248549D02*
X101769834Y-187284290D01*
X101900000Y-187314000D02*
X102199817Y-187314000D01*
X101833243Y-187306478D02*
X101900000Y-187314000D01*
X102386863Y-187848549D02*
X102329982Y-187884290D01*
X102199817Y-187314000D02*
X102266573Y-187321521D01*
X102266573Y-187321521D02*
X102329982Y-187343709D01*
X102329982Y-187343709D02*
X102386863Y-187379450D01*
X101900000Y-187914000D02*
X101833243Y-187921521D01*
X102434366Y-187426953D02*
X102470107Y-187483834D01*
X102329982Y-187884290D02*
X102266573Y-187906478D01*
X102492295Y-187547243D02*
X102499817Y-187614000D01*
X101600000Y-188214000D02*
X101600000Y-200972098D01*
X102499817Y-187614000D02*
X102492295Y-187680756D01*
X102470107Y-187744165D02*
X102434366Y-187801046D01*
X102199817Y-187914000D02*
X101900000Y-187914000D01*
X101712953Y-187979450D02*
X101665450Y-188026953D01*
X101665450Y-188026953D02*
X101629709Y-188083834D01*
X101629709Y-188083834D02*
X101607521Y-188147243D01*
X101607521Y-188147243D02*
X101600000Y-188214000D01*
X101600000Y-200972098D02*
X88392000Y-214180098D01*
X88392000Y-214180098D02*
X88392000Y-225298000D01*
X96520000Y-226568000D02*
X99366000Y-229414000D01*
X99366000Y-229414000D02*
X113942000Y-229414000D01*
D37*
X163652200Y-1752600D02*
X163652200Y-7800D01*
X163652200Y-7800D02*
X163660000Y0D01*
X127000000Y-40640000D02*
X127000000Y-73660000D01*
D40*
X117391179Y-106128821D02*
X132080000Y-91440000D01*
X132080000Y-91440000D02*
X132080000Y-81280000D01*
X116840000Y-106680000D02*
X117391179Y-106128821D01*
D37*
X143738600Y0D02*
X146220000Y0D01*
X92669360Y-108902500D02*
X96583500Y-108902500D01*
X96583500Y-108902500D02*
X98806000Y-106680000D01*
X123190000Y-84836000D02*
X123190000Y-89122405D01*
X123190000Y-89122405D02*
X105632405Y-106680000D01*
X105632405Y-106680000D02*
X104140000Y-106680000D01*
X123190000Y-40640000D02*
X123190000Y-66040000D01*
X123190000Y-66040000D02*
X123190000Y-84836000D01*
X148420000Y-19050000D02*
X161460000Y-19050000D01*
X161460000Y0D02*
X148420000Y0D01*
D36*
X156766000Y-253432000D02*
X156766000Y-256334000D01*
X120892000Y-221500000D02*
X120892000Y-227464000D01*
X156766000Y-256334000D02*
X157734000Y-257302000D01*
X157734000Y-257302000D02*
X161821184Y-257302000D01*
X161821184Y-257302000D02*
X165754411Y-253368773D01*
X164592000Y-220218000D02*
X122174000Y-220218000D01*
X165754411Y-253368773D02*
X165754411Y-221380411D01*
X165754411Y-221380411D02*
X164592000Y-220218000D01*
X122174000Y-220218000D02*
X120892000Y-221500000D01*
X157566000Y-253432000D02*
X157566000Y-256487408D01*
X157566000Y-256487408D02*
X157890793Y-256812201D01*
X164502938Y-251117243D02*
X164525126Y-251053834D01*
X164502938Y-249917243D02*
X164525126Y-249853834D01*
X164608370Y-249749450D02*
X164665251Y-249713709D01*
X161664391Y-256812201D02*
X165297201Y-253179391D01*
X164728660Y-252091521D02*
X164795416Y-252084000D01*
X164997201Y-249684000D02*
X165063958Y-249676478D01*
X165297201Y-253179391D02*
X165297201Y-252984000D01*
X157890793Y-256812201D02*
X161664391Y-256812201D01*
X164608370Y-252618549D02*
X164560867Y-252571046D01*
X165297201Y-252984000D02*
X165289680Y-252917243D01*
X164795416Y-252084000D02*
X164997201Y-252084000D01*
X164728660Y-252676478D02*
X164665251Y-252654290D01*
X165289680Y-252917243D02*
X165267492Y-252853834D01*
X165297201Y-251784000D02*
X165289680Y-251717243D01*
X165231751Y-252796953D02*
X165184248Y-252749450D01*
X164728660Y-251476478D02*
X164665251Y-251454290D01*
X164665251Y-252654290D02*
X164608370Y-252618549D01*
X165063958Y-252076478D02*
X165127367Y-252054290D01*
X164560867Y-251371046D02*
X164525126Y-251314165D01*
X164608370Y-251418549D02*
X164560867Y-251371046D01*
X165267492Y-252853834D02*
X165231751Y-252796953D01*
X164795416Y-252684000D02*
X164728660Y-252676478D01*
X165127367Y-252713709D02*
X165063958Y-252691521D01*
X165231751Y-249571046D02*
X165267492Y-249514165D01*
X165289680Y-251850756D02*
X165297201Y-251784000D01*
X165184248Y-252749450D02*
X165127367Y-252713709D01*
X164608370Y-250218549D02*
X164560867Y-250171046D01*
X165063958Y-252691521D02*
X164997201Y-252684000D01*
X164608370Y-252149450D02*
X164665251Y-252113709D01*
X164997201Y-252684000D02*
X164795416Y-252684000D01*
X164795416Y-250884000D02*
X164997201Y-250884000D01*
X164560867Y-252571046D02*
X164525126Y-252514165D01*
X164525126Y-252514165D02*
X164502938Y-252450756D01*
X164525126Y-252253834D02*
X164560867Y-252196953D01*
X164502938Y-252450756D02*
X164495416Y-252384000D01*
X164495416Y-252384000D02*
X164502938Y-252317243D01*
X164502938Y-252317243D02*
X164525126Y-252253834D01*
X164795416Y-251484000D02*
X164728660Y-251476478D01*
X164560867Y-252196953D02*
X164608370Y-252149450D01*
X164665251Y-252113709D02*
X164728660Y-252091521D01*
X164997201Y-252084000D02*
X165063958Y-252076478D01*
X165127367Y-252054290D02*
X165184248Y-252018549D01*
X165184248Y-252018549D02*
X165231751Y-251971046D01*
X164525126Y-251053834D02*
X164560867Y-250996953D01*
X165063958Y-251491521D02*
X164997201Y-251484000D01*
X165231751Y-251971046D02*
X165267492Y-251914165D01*
X165267492Y-251914165D02*
X165289680Y-251850756D01*
X165267492Y-250714165D02*
X165289680Y-250650756D01*
X164665251Y-251454290D02*
X164608370Y-251418549D01*
X164728660Y-250891521D02*
X164795416Y-250884000D01*
X165289680Y-251717243D02*
X165267492Y-251653834D01*
X165289680Y-250650756D02*
X165297201Y-250584000D01*
X165267492Y-251653834D02*
X165231751Y-251596953D01*
X164608370Y-250949450D02*
X164665251Y-250913709D01*
X165231751Y-251596953D02*
X165184248Y-251549450D01*
X165184248Y-251549450D02*
X165127367Y-251513709D01*
X165184248Y-250349450D02*
X165127367Y-250313709D01*
X164502938Y-250050756D02*
X164495416Y-249984000D01*
X165127367Y-251513709D02*
X165063958Y-251491521D01*
X165063958Y-250876478D02*
X165127367Y-250854290D01*
X164997201Y-251484000D02*
X164795416Y-251484000D01*
X165127367Y-250854290D02*
X165184248Y-250818549D01*
X164560867Y-250171046D02*
X164525126Y-250114165D01*
X164525126Y-251314165D02*
X164502938Y-251250756D01*
X164502938Y-251250756D02*
X164495416Y-251184000D01*
X165063958Y-249676478D02*
X165127367Y-249654290D01*
X164560867Y-250996953D02*
X164608370Y-250949450D01*
X164495416Y-251184000D02*
X164502938Y-251117243D01*
X164665251Y-250913709D02*
X164728660Y-250891521D01*
X164997201Y-250884000D02*
X165063958Y-250876478D01*
X164728660Y-250276478D02*
X164665251Y-250254290D01*
X165184248Y-250818549D02*
X165231751Y-250771046D01*
X164795416Y-250284000D02*
X164728660Y-250276478D01*
X165231751Y-250771046D02*
X165267492Y-250714165D01*
X165297201Y-250584000D02*
X165289680Y-250517243D01*
X165289680Y-250517243D02*
X165267492Y-250453834D01*
X165267492Y-250453834D02*
X165231751Y-250396953D01*
X165231751Y-250396953D02*
X165184248Y-250349450D01*
X164525126Y-250114165D02*
X164502938Y-250050756D01*
X165127367Y-250313709D02*
X165063958Y-250291521D01*
X165063958Y-250291521D02*
X164997201Y-250284000D01*
X164560867Y-249796953D02*
X164608370Y-249749450D01*
X164997201Y-250284000D02*
X164795416Y-250284000D01*
X164665251Y-250254290D02*
X164608370Y-250218549D01*
X164495416Y-249984000D02*
X164502938Y-249917243D01*
X164525126Y-249853834D02*
X164560867Y-249796953D01*
X164665251Y-249713709D02*
X164728660Y-249691521D01*
X165289680Y-249450756D02*
X165297201Y-249384000D01*
X164338000Y-220675210D02*
X122363382Y-220675210D01*
X164728660Y-249691521D02*
X164795416Y-249684000D01*
X164795416Y-249684000D02*
X164997201Y-249684000D01*
X165127367Y-249654290D02*
X165184248Y-249618549D01*
X165184248Y-249618549D02*
X165231751Y-249571046D01*
X165267492Y-249514165D02*
X165289680Y-249450756D01*
X165297201Y-249384000D02*
X165297201Y-221634411D01*
X165297201Y-221634411D02*
X164338000Y-220675210D01*
X122363382Y-220675210D02*
X121392000Y-221646592D01*
X121392000Y-221646592D02*
X121392000Y-227464000D01*
D37*
X163322000Y-39065200D02*
X165608000Y-36779200D01*
X163322000Y-39065200D02*
X160782000Y-41605200D01*
X165608000Y-10615954D02*
X163856359Y-8864313D01*
X163856359Y-8864313D02*
X163856359Y-8033313D01*
X165608000Y-36779200D02*
X165608000Y-10615954D01*
D39*
X161798000Y-110998000D02*
X141478000Y-110998000D01*
X141478000Y-110998000D02*
X137922000Y-107442000D01*
X137922000Y-107442000D02*
X137922000Y-41402000D01*
X143002000Y-36322000D02*
X155498800Y-36322000D01*
X137922000Y-41402000D02*
X143002000Y-36322000D01*
X155498800Y-36322000D02*
X160782000Y-41605200D01*
D36*
X139954000Y-248920000D02*
X131318000Y-240284000D01*
X131318000Y-240284000D02*
X131064000Y-240030000D01*
X130599179Y-239565179D02*
X131318000Y-240284000D01*
X130048000Y-239014000D02*
X130599179Y-239565179D01*
X139954000Y-255270000D02*
X139954000Y-259588000D01*
X139954000Y-254762000D02*
X139954000Y-255270000D01*
X129286000Y-229362000D02*
X125394000Y-229362000D01*
X125394000Y-229362000D02*
X125342000Y-229414000D01*
X139954000Y-254762000D02*
X139954000Y-248920000D01*
X137414000Y-233426000D02*
X125354000Y-233426000D01*
X125354000Y-233426000D02*
X125342000Y-233414000D01*
X134874000Y-230632000D02*
X132592000Y-232914000D01*
X132592000Y-232914000D02*
X125342000Y-232914000D01*
X139278000Y-230632000D02*
X134874000Y-230632000D01*
X139278000Y-230632000D02*
X139128000Y-230632000D01*
X125342000Y-230914000D02*
X133298816Y-230914000D01*
X133298816Y-230914000D02*
X137644816Y-226568000D01*
X137644816Y-226568000D02*
X138338000Y-226568000D01*
X138338000Y-226568000D02*
X139192000Y-226568000D01*
X125361799Y-230894201D02*
X125342000Y-230914000D01*
X125342000Y-232414000D02*
X132445408Y-232414000D01*
X132445408Y-232414000D02*
X136259408Y-228600000D01*
X136259408Y-228600000D02*
X138338000Y-228600000D01*
X138338000Y-228600000D02*
X139192000Y-228600000D01*
X123392000Y-227464000D02*
X123392000Y-224980592D01*
X123392000Y-224980592D02*
X124090592Y-224282000D01*
X124090592Y-224282000D02*
X124714000Y-224282000D01*
X124714000Y-224282000D02*
X139204000Y-224282000D01*
X107442000Y-223012000D02*
X114554000Y-223012000D01*
X114554000Y-223012000D02*
X115892000Y-224350000D01*
X115892000Y-224350000D02*
X115892000Y-227464000D01*
X134576000Y-235414000D02*
X134580000Y-235410000D01*
X134580000Y-235410000D02*
X137540000Y-235410000D01*
X125342000Y-235414000D02*
X134576000Y-235414000D01*
X137500000Y-237236000D02*
X136646000Y-237236000D01*
X136646000Y-237236000D02*
X135324000Y-235914000D01*
X135324000Y-235914000D02*
X126346000Y-235914000D01*
X126346000Y-235914000D02*
X125342000Y-235914000D01*
X125342000Y-236914000D02*
X133132000Y-236914000D01*
X133132000Y-236914000D02*
X137518000Y-241300000D01*
X137518000Y-241300000D02*
X137668000Y-241300000D01*
X123392000Y-238864000D02*
X123392000Y-246686000D01*
X123392000Y-246686000D02*
X125984000Y-249278000D01*
X125984000Y-249278000D02*
X125984000Y-249428000D01*
D37*
X143510000Y-20269200D02*
X143510000Y-19050000D01*
X146100800Y-22860000D02*
X143510000Y-20269200D01*
X146220000Y-22860000D02*
X146100800Y-22860000D01*
X143510000Y-17800000D02*
X143510000Y-19050000D01*
X146220000Y-15240000D02*
X146070000Y-15240000D01*
X146070000Y-15240000D02*
X143510000Y-17800000D01*
X146220000Y-19050000D02*
X143510000Y-19050000D01*
X143510000Y-7594600D02*
X143510000Y-6370000D01*
X143510000Y-6370000D02*
X146070000Y-3810000D01*
X146070000Y-3810000D02*
X146220000Y-3810000D01*
X146220000Y-11430000D02*
X146070000Y-11430000D01*
X146070000Y-11430000D02*
X143510000Y-8870000D01*
X143510000Y-8870000D02*
X143510000Y-7594600D01*
X146220000Y-7620000D02*
X143535400Y-7620000D01*
X143535400Y-7620000D02*
X143510000Y-7594600D01*
X146220000Y-7620000D02*
X146070000Y-7620000D01*
D36*
X98480000Y-237998000D02*
X97434400Y-237998000D01*
X97434400Y-237998000D02*
X96316800Y-239115600D01*
X139868000Y-241300000D02*
X139868000Y-243773600D01*
X139868000Y-243773600D02*
X139700000Y-243941600D01*
X139446000Y-239268000D02*
X139446000Y-240878000D01*
X139446000Y-240878000D02*
X139868000Y-241300000D01*
X141392000Y-228600000D02*
X143052800Y-228600000D01*
X143052800Y-228600000D02*
X143510000Y-229057200D01*
X141404000Y-224282000D02*
X143357600Y-224282000D01*
X143357600Y-224282000D02*
X143560800Y-224485200D01*
X83058000Y-108204000D02*
X83058000Y-103886000D01*
X147558000Y-29022000D02*
X150810000Y-29022000D01*
X150810000Y-29022000D02*
X150876000Y-28956000D01*
X146492000Y-96520000D02*
X146492000Y-97978000D01*
X146492000Y-97978000D02*
X147320000Y-98806000D01*
X83058000Y-108204000D02*
X82833000Y-108204000D01*
X162016000Y-259032000D02*
X159560000Y-259032000D01*
X159560000Y-259032000D02*
X159512000Y-259080000D01*
D38*
X115062000Y-212344000D02*
X114837000Y-212344000D01*
X117982000Y-195052000D02*
X116352000Y-195052000D01*
X116352000Y-195052000D02*
X113792000Y-197612000D01*
D37*
X161460000Y-11430000D02*
X148420000Y-11430000D01*
X148420000Y-22860000D02*
X161460000Y-22860000D01*
X148420000Y-3810000D02*
X161460000Y-3810000D01*
X148420000Y-15240000D02*
X161460000Y-15240000D01*
X148420000Y-7620000D02*
X161460000Y-7620000D01*
X132080000Y-35560000D02*
X131135119Y-36504881D01*
X131135119Y-36504881D02*
X131135119Y-83748881D01*
X131135119Y-83748881D02*
X113030000Y-101854000D01*
X113030000Y-101854000D02*
X113030000Y-106172000D01*
X113030000Y-106172000D02*
X117602000Y-110744000D01*
X117602000Y-110744000D02*
X117602000Y-110794800D01*
X117602000Y-110794800D02*
X119380000Y-112572800D01*
X119380000Y-112572800D02*
X119380000Y-116840000D01*
X119380000Y-116840000D02*
X119380000Y-127000000D01*
X139700000Y-33782000D02*
X140627080Y-34709080D01*
X140627080Y-34709080D02*
X146860920Y-34709080D01*
X146860920Y-34709080D02*
X148170000Y-33400000D01*
X148170000Y-33400000D02*
X148320000Y-33400000D01*
X103264000Y-245568000D02*
X102809000Y-245568000D01*
X102809000Y-245568000D02*
X101081000Y-243840000D01*
X101081000Y-243840000D02*
X93980000Y-243840000D01*
D36*
X106149000Y-245568000D02*
X103264000Y-245568000D01*
X107746000Y-245568000D02*
X106149000Y-245568000D01*
X110164000Y-245568000D02*
X107746000Y-245568000D01*
D37*
X146120000Y-33400000D02*
X146120000Y-32360000D01*
X146120000Y-32360000D02*
X147558000Y-30922000D01*
X145558000Y-29972000D02*
X145558000Y-27332000D01*
X145558000Y-27332000D02*
X146220000Y-26670000D01*
X148420000Y-26664920D02*
X161454920Y-26664920D01*
X161454920Y-26664920D02*
X161460000Y-26670000D01*
D36*
G36*
X85661500Y-251460000D02*
X85714670Y-251727305D01*
X85866086Y-251953914D01*
X88406086Y-254493914D01*
X88632696Y-254645330D01*
X88900000Y-254698500D01*
X133820680Y-254698500D01*
X134019239Y-254897406D01*
X134408392Y-255058996D01*
X134829760Y-255059364D01*
X135219194Y-254898453D01*
X135517406Y-254600761D01*
X135678996Y-254211608D01*
X135679364Y-253790240D01*
X135518453Y-253400806D01*
X135220761Y-253102594D01*
X134831608Y-252941004D01*
X134410240Y-252940636D01*
X134020806Y-253101547D01*
X133820504Y-253301500D01*
X107840328Y-253301500D01*
X102849780Y-248310952D01*
X104044000Y-248310952D01*
X104232253Y-248275530D01*
X104405153Y-248164272D01*
X104521145Y-247994512D01*
X104561952Y-247793000D01*
X104561952Y-247143000D01*
X104526530Y-246954747D01*
X104415272Y-246781847D01*
X104245512Y-246665855D01*
X104044000Y-246625048D01*
X102484000Y-246625048D01*
X102295747Y-246660470D01*
X102122847Y-246771728D01*
X102006855Y-246941488D01*
X101966048Y-247143000D01*
X101966048Y-247427220D01*
X101861952Y-247323124D01*
X101861952Y-247143000D01*
X101826530Y-246954747D01*
X101715272Y-246781847D01*
X101545512Y-246665855D01*
X101344000Y-246625048D01*
X99784000Y-246625048D01*
X99695000Y-246641794D01*
X99695000Y-246392929D01*
X99784000Y-246410952D01*
X101344000Y-246410952D01*
X101532253Y-246375530D01*
X101705153Y-246264272D01*
X101821145Y-246094512D01*
X101861952Y-245893000D01*
X101861952Y-245608780D01*
X101966048Y-245712876D01*
X101966048Y-245893000D01*
X102001470Y-246081253D01*
X102112728Y-246254153D01*
X102282488Y-246370145D01*
X102484000Y-246410952D01*
X104044000Y-246410952D01*
X104232253Y-246375530D01*
X104405153Y-246264272D01*
X104447018Y-246203000D01*
X105262634Y-246203000D01*
X105291470Y-246356253D01*
X105402728Y-246529153D01*
X105572488Y-246645145D01*
X105774000Y-246685952D01*
X106524000Y-246685952D01*
X106712253Y-246650530D01*
X106885153Y-246539272D01*
X107001145Y-246369512D01*
X107034864Y-246203000D01*
X109277634Y-246203000D01*
X109306470Y-246356253D01*
X109417728Y-246529153D01*
X109587488Y-246645145D01*
X109789000Y-246685952D01*
X110539000Y-246685952D01*
X110727253Y-246650530D01*
X110900153Y-246539272D01*
X111016145Y-246369512D01*
X111056952Y-246168000D01*
X111056952Y-244968000D01*
X111021530Y-244779747D01*
X110916110Y-244615919D01*
X111016145Y-244469512D01*
X111051130Y-244296749D01*
X112346901Y-244296749D01*
X112375737Y-244450002D01*
X112486995Y-244622902D01*
X112656755Y-244738894D01*
X112858267Y-244779701D01*
X113608267Y-244779701D01*
X113796520Y-244744279D01*
X113969420Y-244633021D01*
X114085412Y-244463261D01*
X114119131Y-244296749D01*
X116510251Y-244296749D01*
X116753255Y-244248413D01*
X116959264Y-244110762D01*
X117257000Y-243813026D01*
X117257000Y-247931945D01*
X117255000Y-247942000D01*
X117255000Y-248513638D01*
X117153847Y-248578728D01*
X117037855Y-248748488D01*
X116997048Y-248950000D01*
X116997048Y-250150000D01*
X117032470Y-250338253D01*
X117143728Y-250511153D01*
X117313488Y-250627145D01*
X117515000Y-250667952D01*
X118265000Y-250667952D01*
X118453253Y-250632530D01*
X118626153Y-250521272D01*
X118742145Y-250351512D01*
X118775864Y-250185000D01*
X120509279Y-250185000D01*
X120532470Y-250308253D01*
X120643728Y-250481153D01*
X120813488Y-250597145D01*
X121015000Y-250637952D01*
X121765000Y-250637952D01*
X121953253Y-250602530D01*
X122126153Y-250491272D01*
X122144133Y-250464958D01*
X122313488Y-250580673D01*
X122515000Y-250621480D01*
X123265000Y-250621480D01*
X123453253Y-250586058D01*
X123626153Y-250474800D01*
X123742145Y-250305040D01*
X123782952Y-250103528D01*
X123782952Y-248903528D01*
X123747530Y-248715275D01*
X123636272Y-248542375D01*
X123525000Y-248466346D01*
X123525000Y-248378055D01*
X123527000Y-248368000D01*
X123527000Y-247719026D01*
X125016048Y-249208073D01*
X125016048Y-250028000D01*
X125051470Y-250216253D01*
X125162728Y-250389153D01*
X125332488Y-250505145D01*
X125534000Y-250545952D01*
X126434000Y-250545952D01*
X126622253Y-250510530D01*
X126795153Y-250399272D01*
X126911145Y-250229512D01*
X126951952Y-250028000D01*
X126951952Y-248828000D01*
X126916530Y-248639747D01*
X126805272Y-248466847D01*
X126635512Y-248350855D01*
X126434000Y-248310048D01*
X125914073Y-248310048D01*
X124027000Y-246422974D01*
X124027000Y-239776723D01*
X124059952Y-239614000D01*
X124059952Y-238114000D01*
X124024530Y-237925747D01*
X123913272Y-237752847D01*
X123743512Y-237636855D01*
X123542000Y-237596048D01*
X123242000Y-237596048D01*
X123138329Y-237615555D01*
X123042000Y-237596048D01*
X122742000Y-237596048D01*
X122638329Y-237615555D01*
X122542000Y-237596048D01*
X122242000Y-237596048D01*
X122138329Y-237615555D01*
X122042000Y-237596048D01*
X121742000Y-237596048D01*
X121638329Y-237615555D01*
X121542000Y-237596048D01*
X121242000Y-237596048D01*
X121138329Y-237615555D01*
X121042000Y-237596048D01*
X120742000Y-237596048D01*
X120638329Y-237615555D01*
X120542000Y-237596048D01*
X120242000Y-237596048D01*
X120138329Y-237615555D01*
X120042000Y-237596048D01*
X119742000Y-237596048D01*
X119638329Y-237615555D01*
X119542000Y-237596048D01*
X119242000Y-237596048D01*
X119138329Y-237615555D01*
X119042000Y-237596048D01*
X118742000Y-237596048D01*
X118638329Y-237615555D01*
X118542000Y-237596048D01*
X118242000Y-237596048D01*
X118138329Y-237615555D01*
X118042000Y-237596048D01*
X117742000Y-237596048D01*
X117638329Y-237615555D01*
X117542000Y-237596048D01*
X117242000Y-237596048D01*
X117138329Y-237615555D01*
X117042000Y-237596048D01*
X116742000Y-237596048D01*
X116638329Y-237615555D01*
X116542000Y-237596048D01*
X116242000Y-237596048D01*
X116138329Y-237615555D01*
X116042000Y-237596048D01*
X115742000Y-237596048D01*
X115553747Y-237631470D01*
X115380847Y-237742728D01*
X115264855Y-237912488D01*
X115224048Y-238114000D01*
X115224048Y-239614000D01*
X115259470Y-239802253D01*
X115370728Y-239975153D01*
X115540488Y-240091145D01*
X115742000Y-240131952D01*
X116042000Y-240131952D01*
X116145671Y-240112445D01*
X116242000Y-240131952D01*
X116542000Y-240131952D01*
X116645671Y-240112445D01*
X116742000Y-240131952D01*
X117042000Y-240131952D01*
X117145671Y-240112445D01*
X117242000Y-240131952D01*
X117257000Y-240131952D01*
X117257000Y-242016974D01*
X116247225Y-243026749D01*
X115579026Y-243026749D01*
X112641264Y-240088987D01*
X112435255Y-239951336D01*
X112192251Y-239903000D01*
X108051107Y-239903000D01*
X108085406Y-239868761D01*
X108246996Y-239479608D01*
X108247364Y-239058240D01*
X108086453Y-238668806D01*
X107788761Y-238370594D01*
X107399608Y-238209004D01*
X106978240Y-238208636D01*
X106588806Y-238369547D01*
X106324893Y-238633000D01*
X101417182Y-238633000D01*
X101457145Y-238574512D01*
X101497952Y-238373000D01*
X101497952Y-237623000D01*
X101484028Y-237549000D01*
X113029277Y-237549000D01*
X113192000Y-237581952D01*
X114692000Y-237581952D01*
X114880253Y-237546530D01*
X115053153Y-237435272D01*
X115169145Y-237265512D01*
X115209952Y-237064000D01*
X115209952Y-236764000D01*
X115190445Y-236660329D01*
X115209952Y-236564000D01*
X115209952Y-236264000D01*
X115190445Y-236160329D01*
X115209952Y-236064000D01*
X115209952Y-235764000D01*
X115190445Y-235660329D01*
X115209952Y-235564000D01*
X115209952Y-235264000D01*
X115190445Y-235160329D01*
X115209952Y-235064000D01*
X115209952Y-234764000D01*
X115190445Y-234660329D01*
X115209952Y-234564000D01*
X115209952Y-234264000D01*
X115190445Y-234160329D01*
X115209952Y-234064000D01*
X115209952Y-233764000D01*
X115190445Y-233660329D01*
X115209952Y-233564000D01*
X115209952Y-233264000D01*
X115190445Y-233160329D01*
X115209952Y-233064000D01*
X115209952Y-232764000D01*
X115190445Y-232660329D01*
X115209952Y-232564000D01*
X115209952Y-232264000D01*
X115190445Y-232160329D01*
X115209952Y-232064000D01*
X115209952Y-231764000D01*
X115190445Y-231660329D01*
X115209952Y-231564000D01*
X115209952Y-231264000D01*
X115190445Y-231160329D01*
X115209952Y-231064000D01*
X115209952Y-230764000D01*
X115190445Y-230660329D01*
X115209952Y-230564000D01*
X115209952Y-230264000D01*
X115190445Y-230160329D01*
X115209952Y-230064000D01*
X115209952Y-229764000D01*
X115190445Y-229660329D01*
X115209952Y-229564000D01*
X115209952Y-229264000D01*
X115174530Y-229075747D01*
X115063272Y-228902847D01*
X114893512Y-228786855D01*
X114692000Y-228746048D01*
X113192000Y-228746048D01*
X113016874Y-228779000D01*
X99629026Y-228779000D01*
X97579040Y-226729014D01*
X97579364Y-226358240D01*
X97418453Y-225968806D01*
X97120761Y-225670594D01*
X96731608Y-225509004D01*
X96310240Y-225508636D01*
X95920806Y-225669547D01*
X95622594Y-225967239D01*
X95461004Y-226356392D01*
X95460636Y-226777760D01*
X95621547Y-227167194D01*
X95919239Y-227465406D01*
X96205068Y-227584092D01*
X95920806Y-227701547D01*
X95622594Y-227999239D01*
X95461004Y-228388392D01*
X95460636Y-228809760D01*
X95621547Y-229199194D01*
X95919239Y-229497406D01*
X96308392Y-229658996D01*
X96729760Y-229659364D01*
X97119194Y-229498453D01*
X97327993Y-229290019D01*
X97780974Y-229743000D01*
X95350709Y-229743000D01*
X95123000Y-229514893D01*
X95123000Y-221842709D01*
X95385406Y-221580761D01*
X95546996Y-221191608D01*
X95547364Y-220770240D01*
X95386453Y-220380806D01*
X95088761Y-220082594D01*
X94699608Y-219921004D01*
X94278240Y-219920636D01*
X93888806Y-220081547D01*
X93590594Y-220379239D01*
X93429004Y-220768392D01*
X93428636Y-221189760D01*
X93589547Y-221579194D01*
X93853000Y-221843107D01*
X93853000Y-229515291D01*
X93590594Y-229777239D01*
X93429004Y-230166392D01*
X93428636Y-230587760D01*
X93589547Y-230977194D01*
X93887239Y-231275406D01*
X94276392Y-231436996D01*
X94697760Y-231437364D01*
X95087194Y-231276453D01*
X95351107Y-231013000D01*
X98825974Y-231013000D01*
X99212048Y-231399074D01*
X99212048Y-231769000D01*
X99247470Y-231957253D01*
X99358728Y-232130153D01*
X99528488Y-232246145D01*
X99730000Y-232286952D01*
X100930000Y-232286952D01*
X101118253Y-232251530D01*
X101291153Y-232140272D01*
X101353516Y-232049000D01*
X112674048Y-232049000D01*
X112674048Y-232064000D01*
X112693555Y-232167671D01*
X112674048Y-232264000D01*
X112674048Y-232564000D01*
X112693555Y-232667671D01*
X112674048Y-232764000D01*
X112674048Y-232779000D01*
X94485026Y-232779000D01*
X92583000Y-230876974D01*
X92583000Y-212491618D01*
X100477618Y-204597000D01*
X121793000Y-204597000D01*
X121793000Y-212090000D01*
X121803006Y-212139410D01*
X121831447Y-212181035D01*
X121873841Y-212208315D01*
X121920000Y-212217000D01*
X165787000Y-212217000D01*
X165787000Y-220514974D01*
X165041013Y-219768987D01*
X164835004Y-219631336D01*
X164592000Y-219583000D01*
X122174000Y-219583000D01*
X121930996Y-219631336D01*
X121815552Y-219708474D01*
X122278974Y-219245051D01*
X122637760Y-219245364D01*
X123027194Y-219084453D01*
X123325406Y-218786761D01*
X123486996Y-218397608D01*
X123487364Y-217976240D01*
X123326453Y-217586806D01*
X123063000Y-217322893D01*
X123063000Y-216804362D01*
X123164153Y-216739272D01*
X123280145Y-216569512D01*
X123320952Y-216368000D01*
X123320952Y-215168000D01*
X123285530Y-214979747D01*
X123174272Y-214806847D01*
X123004512Y-214690855D01*
X122803000Y-214650048D01*
X122053000Y-214650048D01*
X121864747Y-214685470D01*
X121691847Y-214796728D01*
X121575855Y-214966488D01*
X121535048Y-215168000D01*
X121535048Y-216368000D01*
X121570470Y-216556253D01*
X121681728Y-216729153D01*
X121793000Y-216805182D01*
X121793000Y-217323291D01*
X121530594Y-217585239D01*
X121369004Y-217974392D01*
X121368668Y-218359307D01*
X120027000Y-219700974D01*
X120027000Y-218198005D01*
X120027001Y-218198000D01*
X120015000Y-218137668D01*
X120015000Y-216870362D01*
X120116153Y-216805272D01*
X120232145Y-216635512D01*
X120272952Y-216434000D01*
X120272952Y-215234000D01*
X120237530Y-215045747D01*
X120126272Y-214872847D01*
X119956512Y-214756855D01*
X119755000Y-214716048D01*
X119005000Y-214716048D01*
X118816747Y-214751470D01*
X118643847Y-214862728D01*
X118527855Y-215032488D01*
X118487048Y-215234000D01*
X118487048Y-216434000D01*
X118522470Y-216622253D01*
X118633728Y-216795153D01*
X118745000Y-216871182D01*
X118745000Y-218186000D01*
X118757000Y-218246329D01*
X118757000Y-226196048D01*
X118742000Y-226196048D01*
X118638329Y-226215555D01*
X118542000Y-226196048D01*
X118242000Y-226196048D01*
X118138329Y-226215555D01*
X118042000Y-226196048D01*
X118027000Y-226196048D01*
X118027000Y-221056219D01*
X118035000Y-221016000D01*
X118035000Y-220661366D01*
X118188253Y-220632530D01*
X118361153Y-220521272D01*
X118477145Y-220351512D01*
X118517952Y-220150000D01*
X118517952Y-219250000D01*
X118482530Y-219061747D01*
X118371272Y-218888847D01*
X118201512Y-218772855D01*
X118035000Y-218739136D01*
X118035000Y-217852477D01*
X118119753Y-217836530D01*
X118292653Y-217725272D01*
X118408645Y-217555512D01*
X118449452Y-217354000D01*
X118449452Y-214954000D01*
X118414030Y-214765747D01*
X118302772Y-214592847D01*
X118133012Y-214476855D01*
X117931500Y-214436048D01*
X116904000Y-214436048D01*
X116904000Y-213300026D01*
X116967074Y-213236952D01*
X117562000Y-213236952D01*
X117750253Y-213201530D01*
X117923153Y-213090272D01*
X118039145Y-212920512D01*
X118079952Y-212719000D01*
X118079952Y-211969000D01*
X118044530Y-211780747D01*
X117933272Y-211607847D01*
X117763512Y-211491855D01*
X117562000Y-211451048D01*
X116362000Y-211451048D01*
X116173747Y-211486470D01*
X116000847Y-211597728D01*
X115884855Y-211767488D01*
X115844048Y-211969000D01*
X115844048Y-212563926D01*
X115819987Y-212587987D01*
X115682336Y-212793996D01*
X115634000Y-213037000D01*
X115634000Y-214436048D01*
X114606500Y-214436048D01*
X114418247Y-214471470D01*
X114245347Y-214582728D01*
X114129355Y-214752488D01*
X114088548Y-214954000D01*
X114088548Y-217354000D01*
X114123970Y-217542253D01*
X114235228Y-217715153D01*
X114404988Y-217831145D01*
X114606500Y-217871952D01*
X116765000Y-217871952D01*
X116765000Y-218738634D01*
X116611747Y-218767470D01*
X116438847Y-218878728D01*
X116322855Y-219048488D01*
X116300659Y-219158095D01*
X116282530Y-219061747D01*
X116171272Y-218888847D01*
X116001512Y-218772855D01*
X115800000Y-218732048D01*
X114682574Y-218732048D01*
X112924452Y-216973926D01*
X112924452Y-214954000D01*
X112889030Y-214765747D01*
X112777772Y-214592847D01*
X112608012Y-214476855D01*
X112406500Y-214436048D01*
X111379000Y-214436048D01*
X111379000Y-213389000D01*
X111330664Y-213145996D01*
X111193013Y-212939987D01*
X110591952Y-212338926D01*
X110591952Y-211969000D01*
X110556530Y-211780747D01*
X110445272Y-211607847D01*
X110275512Y-211491855D01*
X110074000Y-211451048D01*
X108874000Y-211451048D01*
X108685747Y-211486470D01*
X108512847Y-211597728D01*
X108396855Y-211767488D01*
X108356048Y-211969000D01*
X108356048Y-212719000D01*
X108391470Y-212907253D01*
X108502728Y-213080153D01*
X108672488Y-213196145D01*
X108874000Y-213236952D01*
X109693926Y-213236952D01*
X110109000Y-213652026D01*
X110109000Y-214436048D01*
X109081500Y-214436048D01*
X108893247Y-214471470D01*
X108720347Y-214582728D01*
X108604355Y-214752488D01*
X108563548Y-214954000D01*
X108563548Y-217354000D01*
X108598970Y-217542253D01*
X108710228Y-217715153D01*
X108879988Y-217831145D01*
X109081500Y-217871952D01*
X112026426Y-217871952D01*
X114082048Y-219927574D01*
X114082048Y-220150000D01*
X114117470Y-220338253D01*
X114228728Y-220511153D01*
X114398488Y-220627145D01*
X114565000Y-220660864D01*
X114565000Y-220854974D01*
X113987013Y-220276987D01*
X113781004Y-220139336D01*
X113538000Y-220091000D01*
X108346362Y-220091000D01*
X108281272Y-219989847D01*
X108111512Y-219873855D01*
X107910000Y-219833048D01*
X106710000Y-219833048D01*
X106521747Y-219868470D01*
X106348847Y-219979728D01*
X106232855Y-220149488D01*
X106192048Y-220351000D01*
X106192048Y-221101000D01*
X106227470Y-221289253D01*
X106273638Y-221361000D01*
X104140000Y-221361000D01*
X103896995Y-221409336D01*
X103835144Y-221450664D01*
X103690987Y-221546987D01*
X103690985Y-221546990D01*
X103182987Y-222054987D01*
X103045336Y-222260996D01*
X102997000Y-222504000D01*
X102997000Y-224689291D01*
X102734594Y-224951239D01*
X102573004Y-225340392D01*
X102572636Y-225761760D01*
X102733547Y-226151194D01*
X103031239Y-226449406D01*
X103420392Y-226610996D01*
X103841760Y-226611364D01*
X104231194Y-226450453D01*
X104529406Y-226152761D01*
X104690996Y-225763608D01*
X104691364Y-225342240D01*
X104530453Y-224952806D01*
X104267000Y-224688893D01*
X104267000Y-222767026D01*
X104403025Y-222631000D01*
X106324048Y-222631000D01*
X106324048Y-223462000D01*
X106359470Y-223650253D01*
X106470728Y-223823153D01*
X106640488Y-223939145D01*
X106842000Y-223979952D01*
X108042000Y-223979952D01*
X108230253Y-223944530D01*
X108403153Y-223833272D01*
X108519145Y-223663512D01*
X108522489Y-223647000D01*
X114290974Y-223647000D01*
X115257000Y-224613026D01*
X115257000Y-226551277D01*
X115224048Y-226714000D01*
X115224048Y-228214000D01*
X115259470Y-228402253D01*
X115370728Y-228575153D01*
X115540488Y-228691145D01*
X115742000Y-228731952D01*
X116042000Y-228731952D01*
X116145671Y-228712445D01*
X116242000Y-228731952D01*
X116542000Y-228731952D01*
X116645671Y-228712445D01*
X116742000Y-228731952D01*
X117042000Y-228731952D01*
X117145671Y-228712445D01*
X117242000Y-228731952D01*
X117542000Y-228731952D01*
X117645671Y-228712445D01*
X117742000Y-228731952D01*
X118042000Y-228731952D01*
X118145671Y-228712445D01*
X118242000Y-228731952D01*
X118542000Y-228731952D01*
X118645671Y-228712445D01*
X118742000Y-228731952D01*
X119042000Y-228731952D01*
X119145671Y-228712445D01*
X119242000Y-228731952D01*
X119542000Y-228731952D01*
X119645671Y-228712445D01*
X119742000Y-228731952D01*
X120042000Y-228731952D01*
X120145671Y-228712445D01*
X120242000Y-228731952D01*
X120542000Y-228731952D01*
X120645671Y-228712445D01*
X120742000Y-228731952D01*
X121042000Y-228731952D01*
X121145671Y-228712445D01*
X121242000Y-228731952D01*
X121319333Y-228731952D01*
X121442987Y-228917013D01*
X121808786Y-229282812D01*
X122014795Y-229420463D01*
X122257799Y-229468799D01*
X124074048Y-229468799D01*
X124074048Y-229564000D01*
X124093555Y-229667671D01*
X124074048Y-229764000D01*
X124074048Y-230064000D01*
X124093555Y-230167671D01*
X124074048Y-230264000D01*
X124074048Y-230564000D01*
X124093555Y-230667671D01*
X124074048Y-230764000D01*
X124074048Y-231064000D01*
X124093555Y-231167671D01*
X124074048Y-231264000D01*
X124074048Y-231564000D01*
X124093555Y-231667671D01*
X124074048Y-231764000D01*
X124074048Y-232064000D01*
X124093555Y-232167671D01*
X124074048Y-232264000D01*
X124074048Y-232564000D01*
X124093555Y-232667671D01*
X124074048Y-232764000D01*
X124074048Y-233064000D01*
X124093555Y-233167671D01*
X124074048Y-233264000D01*
X124074048Y-233564000D01*
X124093555Y-233667671D01*
X124074048Y-233764000D01*
X124074048Y-234064000D01*
X124093555Y-234167671D01*
X124074048Y-234264000D01*
X124074048Y-234564000D01*
X124093555Y-234667671D01*
X124074048Y-234764000D01*
X124074048Y-235064000D01*
X124093555Y-235167671D01*
X124074048Y-235264000D01*
X124074048Y-235564000D01*
X124093555Y-235667671D01*
X124074048Y-235764000D01*
X124074048Y-236064000D01*
X124093555Y-236167671D01*
X124074048Y-236264000D01*
X124074048Y-236564000D01*
X124093555Y-236667671D01*
X124074048Y-236764000D01*
X124074048Y-237064000D01*
X124109470Y-237252253D01*
X124220728Y-237425153D01*
X124390488Y-237541145D01*
X124592000Y-237581952D01*
X126092000Y-237581952D01*
X126267126Y-237549000D01*
X132868974Y-237549000D01*
X136550048Y-241230074D01*
X136550048Y-241750000D01*
X136585470Y-241938253D01*
X136696728Y-242111153D01*
X136866488Y-242227145D01*
X137068000Y-242267952D01*
X138268000Y-242267952D01*
X138456253Y-242232530D01*
X138629153Y-242121272D01*
X138745145Y-241951512D01*
X138785952Y-241750000D01*
X138785952Y-240850000D01*
X138750530Y-240661747D01*
X138639272Y-240488847D01*
X138469512Y-240372855D01*
X138268000Y-240332048D01*
X137448074Y-240332048D01*
X137276978Y-240160952D01*
X138146000Y-240160952D01*
X138334253Y-240125530D01*
X138507153Y-240014272D01*
X138623145Y-239844512D01*
X138663952Y-239643000D01*
X138663952Y-238893000D01*
X138662823Y-238887000D01*
X141976974Y-238887000D01*
X142113000Y-239023025D01*
X142113000Y-244592974D01*
X141131014Y-245574960D01*
X140760240Y-245574636D01*
X140370806Y-245735547D01*
X140072594Y-246033239D01*
X139911004Y-246422392D01*
X139910636Y-246843760D01*
X140071547Y-247233194D01*
X140369239Y-247531406D01*
X140758392Y-247692996D01*
X141179760Y-247693364D01*
X141569194Y-247532453D01*
X141867406Y-247234761D01*
X142028996Y-246845608D01*
X142029322Y-246472704D01*
X143197013Y-245305013D01*
X143334664Y-245099004D01*
X143383000Y-244856000D01*
X143383000Y-239903000D01*
X144401634Y-239903000D01*
X144430470Y-240056253D01*
X144541728Y-240229153D01*
X144711488Y-240345145D01*
X144913000Y-240385952D01*
X145663000Y-240385952D01*
X145851253Y-240350530D01*
X146024153Y-240239272D01*
X146140145Y-240069512D01*
X146173864Y-239903000D01*
X147449634Y-239903000D01*
X147478470Y-240056253D01*
X147583890Y-240220081D01*
X147483855Y-240366488D01*
X147443048Y-240568000D01*
X147443048Y-241768000D01*
X147478470Y-241956253D01*
X147589728Y-242129153D01*
X147759488Y-242245145D01*
X147961000Y-242285952D01*
X148711000Y-242285952D01*
X148899253Y-242250530D01*
X149072153Y-242139272D01*
X149188145Y-241969512D01*
X149209005Y-241866500D01*
X150509582Y-241866500D01*
X150526470Y-241956253D01*
X150637728Y-242129153D01*
X150807488Y-242245145D01*
X151009000Y-242285952D01*
X151759000Y-242285952D01*
X151947253Y-242250530D01*
X152120153Y-242139272D01*
X152236145Y-241969512D01*
X152257005Y-241866500D01*
X152660048Y-241866500D01*
X152660048Y-242438000D01*
X152695470Y-242626253D01*
X152806728Y-242799153D01*
X152976488Y-242915145D01*
X153178000Y-242955952D01*
X155178000Y-242955952D01*
X155366253Y-242920530D01*
X155539153Y-242809272D01*
X155655145Y-242639512D01*
X155695952Y-242438000D01*
X155695952Y-241236500D01*
X158960048Y-241236500D01*
X158960048Y-241288000D01*
X158995470Y-241476253D01*
X159106728Y-241649153D01*
X159276488Y-241765145D01*
X159478000Y-241805952D01*
X161478000Y-241805952D01*
X161666253Y-241770530D01*
X161839153Y-241659272D01*
X161955145Y-241489512D01*
X161995952Y-241288000D01*
X161995952Y-239788000D01*
X161960530Y-239599747D01*
X161849272Y-239426847D01*
X161793432Y-239388693D01*
X161839153Y-239359272D01*
X161955145Y-239189512D01*
X161995952Y-238988000D01*
X161995952Y-238873000D01*
X162686999Y-238873000D01*
X162718470Y-239040253D01*
X162829728Y-239213153D01*
X162999488Y-239329145D01*
X163201000Y-239369952D01*
X163481124Y-239369952D01*
X164077991Y-239966819D01*
X164077991Y-243874181D01*
X162631291Y-245320881D01*
X162350240Y-245320636D01*
X161960806Y-245481547D01*
X161662594Y-245779239D01*
X161501004Y-246168392D01*
X161500636Y-246589760D01*
X161661547Y-246979194D01*
X161959239Y-247277406D01*
X162348392Y-247438996D01*
X162769760Y-247439364D01*
X163159194Y-247278453D01*
X163457406Y-246980761D01*
X163618996Y-246591608D01*
X163619243Y-246308585D01*
X164662201Y-245265627D01*
X164662201Y-249059991D01*
X164657568Y-249060513D01*
X164589583Y-249082181D01*
X164518931Y-249092156D01*
X164455522Y-249114344D01*
X164394069Y-249150594D01*
X164327409Y-249176040D01*
X164270528Y-249211781D01*
X164218682Y-249260797D01*
X164159357Y-249300437D01*
X164111854Y-249347940D01*
X164072215Y-249407265D01*
X164023198Y-249459111D01*
X163987457Y-249515992D01*
X163962011Y-249582652D01*
X163925761Y-249644105D01*
X163903573Y-249707514D01*
X163893599Y-249778162D01*
X163871931Y-249846143D01*
X163864409Y-249912900D01*
X163870406Y-249984001D01*
X163864409Y-250055101D01*
X163871931Y-250121857D01*
X163893599Y-250189838D01*
X163903573Y-250260485D01*
X163925761Y-250323894D01*
X163962011Y-250385347D01*
X163987457Y-250452007D01*
X164023198Y-250508888D01*
X164072215Y-250560734D01*
X164087760Y-250584000D01*
X164072215Y-250607265D01*
X164023198Y-250659111D01*
X163987457Y-250715992D01*
X163962011Y-250782652D01*
X163925761Y-250844105D01*
X163903573Y-250907514D01*
X163893599Y-250978162D01*
X163871931Y-251046143D01*
X163864409Y-251112900D01*
X163870406Y-251184001D01*
X163864409Y-251255101D01*
X163871931Y-251321857D01*
X163893599Y-251389838D01*
X163903573Y-251460485D01*
X163925761Y-251523894D01*
X163962011Y-251585347D01*
X163987457Y-251652007D01*
X164023198Y-251708888D01*
X164072215Y-251760734D01*
X164087760Y-251784000D01*
X164072215Y-251807265D01*
X164023198Y-251859111D01*
X163987457Y-251915992D01*
X163962011Y-251982652D01*
X163925761Y-252044105D01*
X163903573Y-252107514D01*
X163893599Y-252178162D01*
X163871931Y-252246143D01*
X163864409Y-252312900D01*
X163870406Y-252384001D01*
X163864409Y-252455101D01*
X163871931Y-252521857D01*
X163893599Y-252589838D01*
X163903573Y-252660485D01*
X163925761Y-252723894D01*
X163962011Y-252785347D01*
X163987457Y-252852007D01*
X164023198Y-252908888D01*
X164072215Y-252960734D01*
X164111854Y-253020059D01*
X164159357Y-253067562D01*
X164218682Y-253107202D01*
X164270528Y-253156218D01*
X164327409Y-253191959D01*
X164370253Y-253208313D01*
X161401365Y-256177201D01*
X160723873Y-256177201D01*
X160724166Y-255842278D01*
X160578626Y-255490046D01*
X160309372Y-255220321D01*
X159957394Y-255074167D01*
X159576278Y-255073834D01*
X159224046Y-255219374D01*
X158954321Y-255488628D01*
X158808167Y-255840606D01*
X158807873Y-256177201D01*
X158201000Y-256177201D01*
X158201000Y-255099952D01*
X158616000Y-255099952D01*
X158804253Y-255064530D01*
X158977153Y-254953272D01*
X159093145Y-254783512D01*
X159133952Y-254582000D01*
X159133952Y-252282000D01*
X159098530Y-252093747D01*
X158987272Y-251920847D01*
X158817512Y-251804855D01*
X158616000Y-251764048D01*
X158116000Y-251764048D01*
X157960493Y-251793308D01*
X157816000Y-251764048D01*
X157316000Y-251764048D01*
X157160493Y-251793308D01*
X157016000Y-251764048D01*
X156664500Y-251764048D01*
X156664500Y-246407338D01*
X156853406Y-246218761D01*
X157014996Y-245829608D01*
X157015364Y-245408240D01*
X156854453Y-245018806D01*
X156556761Y-244720594D01*
X156167608Y-244559004D01*
X155746240Y-244558636D01*
X155356806Y-244719547D01*
X155058594Y-245017239D01*
X154897004Y-245406392D01*
X154896636Y-245827760D01*
X155057547Y-246217194D01*
X155267500Y-246427514D01*
X155267500Y-252038565D01*
X155238855Y-252080488D01*
X155198048Y-252282000D01*
X155198048Y-254201926D01*
X154764974Y-254635000D01*
X143237142Y-254635000D01*
X143236530Y-254631747D01*
X143125272Y-254458847D01*
X142955512Y-254342855D01*
X142789000Y-254309136D01*
X142789000Y-252577495D01*
X142948253Y-252547530D01*
X143121153Y-252436272D01*
X143237145Y-252266512D01*
X143277952Y-252065000D01*
X143277952Y-251315000D01*
X143242530Y-251126747D01*
X143131272Y-250953847D01*
X142961512Y-250837855D01*
X142760000Y-250797048D01*
X141560000Y-250797048D01*
X141371747Y-250832470D01*
X141198847Y-250943728D01*
X141082855Y-251113488D01*
X141042048Y-251315000D01*
X141042048Y-252065000D01*
X141077470Y-252253253D01*
X141188728Y-252426153D01*
X141358488Y-252542145D01*
X141519000Y-252574649D01*
X141519000Y-254308634D01*
X141365747Y-254337470D01*
X141192847Y-254448728D01*
X141076855Y-254618488D01*
X141054659Y-254728095D01*
X141036530Y-254631747D01*
X140925272Y-254458847D01*
X140755512Y-254342855D01*
X140589000Y-254309136D01*
X140589000Y-248920000D01*
X140557522Y-248761747D01*
X140540664Y-248676995D01*
X140403013Y-248470987D01*
X131107040Y-239175014D01*
X131107364Y-238804240D01*
X130946453Y-238414806D01*
X130648761Y-238116594D01*
X130259608Y-237955004D01*
X129838240Y-237954636D01*
X129448806Y-238115547D01*
X129150594Y-238413239D01*
X128989004Y-238802392D01*
X128988636Y-239223760D01*
X129149547Y-239613194D01*
X129447239Y-239911406D01*
X129836392Y-240072996D01*
X130209296Y-240073322D01*
X139319000Y-249183026D01*
X139319000Y-254308634D01*
X139165747Y-254337470D01*
X138992847Y-254448728D01*
X138876855Y-254618488D01*
X138836048Y-254820000D01*
X138836048Y-255720000D01*
X138871470Y-255908253D01*
X138982728Y-256081153D01*
X139152488Y-256197145D01*
X139319000Y-256230864D01*
X139319000Y-258626634D01*
X139165747Y-258655470D01*
X138992847Y-258766728D01*
X138876855Y-258936488D01*
X138836048Y-259138000D01*
X138836048Y-260038000D01*
X138871470Y-260226253D01*
X138982728Y-260399153D01*
X139152488Y-260515145D01*
X139354000Y-260555952D01*
X140554000Y-260555952D01*
X140742253Y-260520530D01*
X140915153Y-260409272D01*
X141031145Y-260239512D01*
X141071952Y-260038000D01*
X141071952Y-259138000D01*
X141036530Y-258949747D01*
X140925272Y-258776847D01*
X140755512Y-258660855D01*
X140589000Y-258627136D01*
X140589000Y-256231366D01*
X140742253Y-256202530D01*
X140915153Y-256091272D01*
X141031145Y-255921512D01*
X141053341Y-255811905D01*
X141071470Y-255908253D01*
X141182728Y-256081153D01*
X141352488Y-256197145D01*
X141554000Y-256237952D01*
X142754000Y-256237952D01*
X142942253Y-256202530D01*
X143115153Y-256091272D01*
X143231145Y-255921512D01*
X143234489Y-255905000D01*
X154408111Y-255905000D01*
X154407834Y-256221722D01*
X154553374Y-256573954D01*
X154822628Y-256843679D01*
X155174606Y-256989833D01*
X155555722Y-256990166D01*
X155907954Y-256844626D01*
X156177679Y-256575372D01*
X156178580Y-256573203D01*
X156179336Y-256577004D01*
X156316987Y-256783013D01*
X157284987Y-257751013D01*
X157490996Y-257888664D01*
X157734000Y-257937000D01*
X161821184Y-257937000D01*
X162064188Y-257888664D01*
X162270197Y-257751013D01*
X165787000Y-254234210D01*
X165787000Y-261291000D01*
X76783000Y-261291000D01*
X76783000Y-257703664D01*
X95875652Y-257703664D01*
X96180708Y-258441955D01*
X96745074Y-259007307D01*
X97482832Y-259313651D01*
X98281664Y-259314348D01*
X99019955Y-259009292D01*
X99585307Y-258444926D01*
X99891651Y-257707168D01*
X99892348Y-256908336D01*
X99587292Y-256170045D01*
X99022926Y-255604693D01*
X98285168Y-255298349D01*
X97486336Y-255297652D01*
X96748045Y-255602708D01*
X96182693Y-256167074D01*
X95876349Y-256904832D01*
X95875652Y-257703664D01*
X76783000Y-257703664D01*
X76783000Y-208677664D01*
X79170052Y-208677664D01*
X79475108Y-209415955D01*
X80039474Y-209981307D01*
X80777232Y-210287651D01*
X81576064Y-210288348D01*
X82314355Y-209983292D01*
X82879707Y-209418926D01*
X83186051Y-208681168D01*
X83186748Y-207882336D01*
X82881692Y-207144045D01*
X82317326Y-206578693D01*
X81579568Y-206272349D01*
X80780736Y-206271652D01*
X80042445Y-206576708D01*
X79477093Y-207141074D01*
X79170749Y-207878832D01*
X79170052Y-208677664D01*
X76783000Y-208677664D01*
X76783000Y-204597000D01*
X85661500Y-204597000D01*
X85661500Y-251460000D01*
X85661500Y-251460000D01*
G37*
X85661500Y-251460000D02*
X85714670Y-251727305D01*
X85866086Y-251953914D01*
X88406086Y-254493914D01*
X88632696Y-254645330D01*
X88900000Y-254698500D01*
X133820680Y-254698500D01*
X134019239Y-254897406D01*
X134408392Y-255058996D01*
X134829760Y-255059364D01*
X135219194Y-254898453D01*
X135517406Y-254600761D01*
X135678996Y-254211608D01*
X135679364Y-253790240D01*
X135518453Y-253400806D01*
X135220761Y-253102594D01*
X134831608Y-252941004D01*
X134410240Y-252940636D01*
X134020806Y-253101547D01*
X133820504Y-253301500D01*
X107840328Y-253301500D01*
X102849780Y-248310952D01*
X104044000Y-248310952D01*
X104232253Y-248275530D01*
X104405153Y-248164272D01*
X104521145Y-247994512D01*
X104561952Y-247793000D01*
X104561952Y-247143000D01*
X104526530Y-246954747D01*
X104415272Y-246781847D01*
X104245512Y-246665855D01*
X104044000Y-246625048D01*
X102484000Y-246625048D01*
X102295747Y-246660470D01*
X102122847Y-246771728D01*
X102006855Y-246941488D01*
X101966048Y-247143000D01*
X101966048Y-247427220D01*
X101861952Y-247323124D01*
X101861952Y-247143000D01*
X101826530Y-246954747D01*
X101715272Y-246781847D01*
X101545512Y-246665855D01*
X101344000Y-246625048D01*
X99784000Y-246625048D01*
X99695000Y-246641794D01*
X99695000Y-246392929D01*
X99784000Y-246410952D01*
X101344000Y-246410952D01*
X101532253Y-246375530D01*
X101705153Y-246264272D01*
X101821145Y-246094512D01*
X101861952Y-245893000D01*
X101861952Y-245608780D01*
X101966048Y-245712876D01*
X101966048Y-245893000D01*
X102001470Y-246081253D01*
X102112728Y-246254153D01*
X102282488Y-246370145D01*
X102484000Y-246410952D01*
X104044000Y-246410952D01*
X104232253Y-246375530D01*
X104405153Y-246264272D01*
X104447018Y-246203000D01*
X105262634Y-246203000D01*
X105291470Y-246356253D01*
X105402728Y-246529153D01*
X105572488Y-246645145D01*
X105774000Y-246685952D01*
X106524000Y-246685952D01*
X106712253Y-246650530D01*
X106885153Y-246539272D01*
X107001145Y-246369512D01*
X107034864Y-246203000D01*
X109277634Y-246203000D01*
X109306470Y-246356253D01*
X109417728Y-246529153D01*
X109587488Y-246645145D01*
X109789000Y-246685952D01*
X110539000Y-246685952D01*
X110727253Y-246650530D01*
X110900153Y-246539272D01*
X111016145Y-246369512D01*
X111056952Y-246168000D01*
X111056952Y-244968000D01*
X111021530Y-244779747D01*
X110916110Y-244615919D01*
X111016145Y-244469512D01*
X111051130Y-244296749D01*
X112346901Y-244296749D01*
X112375737Y-244450002D01*
X112486995Y-244622902D01*
X112656755Y-244738894D01*
X112858267Y-244779701D01*
X113608267Y-244779701D01*
X113796520Y-244744279D01*
X113969420Y-244633021D01*
X114085412Y-244463261D01*
X114119131Y-244296749D01*
X116510251Y-244296749D01*
X116753255Y-244248413D01*
X116959264Y-244110762D01*
X117257000Y-243813026D01*
X117257000Y-247931945D01*
X117255000Y-247942000D01*
X117255000Y-248513638D01*
X117153847Y-248578728D01*
X117037855Y-248748488D01*
X116997048Y-248950000D01*
X116997048Y-250150000D01*
X117032470Y-250338253D01*
X117143728Y-250511153D01*
X117313488Y-250627145D01*
X117515000Y-250667952D01*
X118265000Y-250667952D01*
X118453253Y-250632530D01*
X118626153Y-250521272D01*
X118742145Y-250351512D01*
X118775864Y-250185000D01*
X120509279Y-250185000D01*
X120532470Y-250308253D01*
X120643728Y-250481153D01*
X120813488Y-250597145D01*
X121015000Y-250637952D01*
X121765000Y-250637952D01*
X121953253Y-250602530D01*
X122126153Y-250491272D01*
X122144133Y-250464958D01*
X122313488Y-250580673D01*
X122515000Y-250621480D01*
X123265000Y-250621480D01*
X123453253Y-250586058D01*
X123626153Y-250474800D01*
X123742145Y-250305040D01*
X123782952Y-250103528D01*
X123782952Y-248903528D01*
X123747530Y-248715275D01*
X123636272Y-248542375D01*
X123525000Y-248466346D01*
X123525000Y-248378055D01*
X123527000Y-248368000D01*
X123527000Y-247719026D01*
X125016048Y-249208073D01*
X125016048Y-250028000D01*
X125051470Y-250216253D01*
X125162728Y-250389153D01*
X125332488Y-250505145D01*
X125534000Y-250545952D01*
X126434000Y-250545952D01*
X126622253Y-250510530D01*
X126795153Y-250399272D01*
X126911145Y-250229512D01*
X126951952Y-250028000D01*
X126951952Y-248828000D01*
X126916530Y-248639747D01*
X126805272Y-248466847D01*
X126635512Y-248350855D01*
X126434000Y-248310048D01*
X125914073Y-248310048D01*
X124027000Y-246422974D01*
X124027000Y-239776723D01*
X124059952Y-239614000D01*
X124059952Y-238114000D01*
X124024530Y-237925747D01*
X123913272Y-237752847D01*
X123743512Y-237636855D01*
X123542000Y-237596048D01*
X123242000Y-237596048D01*
X123138329Y-237615555D01*
X123042000Y-237596048D01*
X122742000Y-237596048D01*
X122638329Y-237615555D01*
X122542000Y-237596048D01*
X122242000Y-237596048D01*
X122138329Y-237615555D01*
X122042000Y-237596048D01*
X121742000Y-237596048D01*
X121638329Y-237615555D01*
X121542000Y-237596048D01*
X121242000Y-237596048D01*
X121138329Y-237615555D01*
X121042000Y-237596048D01*
X120742000Y-237596048D01*
X120638329Y-237615555D01*
X120542000Y-237596048D01*
X120242000Y-237596048D01*
X120138329Y-237615555D01*
X120042000Y-237596048D01*
X119742000Y-237596048D01*
X119638329Y-237615555D01*
X119542000Y-237596048D01*
X119242000Y-237596048D01*
X119138329Y-237615555D01*
X119042000Y-237596048D01*
X118742000Y-237596048D01*
X118638329Y-237615555D01*
X118542000Y-237596048D01*
X118242000Y-237596048D01*
X118138329Y-237615555D01*
X118042000Y-237596048D01*
X117742000Y-237596048D01*
X117638329Y-237615555D01*
X117542000Y-237596048D01*
X117242000Y-237596048D01*
X117138329Y-237615555D01*
X117042000Y-237596048D01*
X116742000Y-237596048D01*
X116638329Y-237615555D01*
X116542000Y-237596048D01*
X116242000Y-237596048D01*
X116138329Y-237615555D01*
X116042000Y-237596048D01*
X115742000Y-237596048D01*
X115553747Y-237631470D01*
X115380847Y-237742728D01*
X115264855Y-237912488D01*
X115224048Y-238114000D01*
X115224048Y-239614000D01*
X115259470Y-239802253D01*
X115370728Y-239975153D01*
X115540488Y-240091145D01*
X115742000Y-240131952D01*
X116042000Y-240131952D01*
X116145671Y-240112445D01*
X116242000Y-240131952D01*
X116542000Y-240131952D01*
X116645671Y-240112445D01*
X116742000Y-240131952D01*
X117042000Y-240131952D01*
X117145671Y-240112445D01*
X117242000Y-240131952D01*
X117257000Y-240131952D01*
X117257000Y-242016974D01*
X116247225Y-243026749D01*
X115579026Y-243026749D01*
X112641264Y-240088987D01*
X112435255Y-239951336D01*
X112192251Y-239903000D01*
X108051107Y-239903000D01*
X108085406Y-239868761D01*
X108246996Y-239479608D01*
X108247364Y-239058240D01*
X108086453Y-238668806D01*
X107788761Y-238370594D01*
X107399608Y-238209004D01*
X106978240Y-238208636D01*
X106588806Y-238369547D01*
X106324893Y-238633000D01*
X101417182Y-238633000D01*
X101457145Y-238574512D01*
X101497952Y-238373000D01*
X101497952Y-237623000D01*
X101484028Y-237549000D01*
X113029277Y-237549000D01*
X113192000Y-237581952D01*
X114692000Y-237581952D01*
X114880253Y-237546530D01*
X115053153Y-237435272D01*
X115169145Y-237265512D01*
X115209952Y-237064000D01*
X115209952Y-236764000D01*
X115190445Y-236660329D01*
X115209952Y-236564000D01*
X115209952Y-236264000D01*
X115190445Y-236160329D01*
X115209952Y-236064000D01*
X115209952Y-235764000D01*
X115190445Y-235660329D01*
X115209952Y-235564000D01*
X115209952Y-235264000D01*
X115190445Y-235160329D01*
X115209952Y-235064000D01*
X115209952Y-234764000D01*
X115190445Y-234660329D01*
X115209952Y-234564000D01*
X115209952Y-234264000D01*
X115190445Y-234160329D01*
X115209952Y-234064000D01*
X115209952Y-233764000D01*
X115190445Y-233660329D01*
X115209952Y-233564000D01*
X115209952Y-233264000D01*
X115190445Y-233160329D01*
X115209952Y-233064000D01*
X115209952Y-232764000D01*
X115190445Y-232660329D01*
X115209952Y-232564000D01*
X115209952Y-232264000D01*
X115190445Y-232160329D01*
X115209952Y-232064000D01*
X115209952Y-231764000D01*
X115190445Y-231660329D01*
X115209952Y-231564000D01*
X115209952Y-231264000D01*
X115190445Y-231160329D01*
X115209952Y-231064000D01*
X115209952Y-230764000D01*
X115190445Y-230660329D01*
X115209952Y-230564000D01*
X115209952Y-230264000D01*
X115190445Y-230160329D01*
X115209952Y-230064000D01*
X115209952Y-229764000D01*
X115190445Y-229660329D01*
X115209952Y-229564000D01*
X115209952Y-229264000D01*
X115174530Y-229075747D01*
X115063272Y-228902847D01*
X114893512Y-228786855D01*
X114692000Y-228746048D01*
X113192000Y-228746048D01*
X113016874Y-228779000D01*
X99629026Y-228779000D01*
X97579040Y-226729014D01*
X97579364Y-226358240D01*
X97418453Y-225968806D01*
X97120761Y-225670594D01*
X96731608Y-225509004D01*
X96310240Y-225508636D01*
X95920806Y-225669547D01*
X95622594Y-225967239D01*
X95461004Y-226356392D01*
X95460636Y-226777760D01*
X95621547Y-227167194D01*
X95919239Y-227465406D01*
X96205068Y-227584092D01*
X95920806Y-227701547D01*
X95622594Y-227999239D01*
X95461004Y-228388392D01*
X95460636Y-228809760D01*
X95621547Y-229199194D01*
X95919239Y-229497406D01*
X96308392Y-229658996D01*
X96729760Y-229659364D01*
X97119194Y-229498453D01*
X97327993Y-229290019D01*
X97780974Y-229743000D01*
X95350709Y-229743000D01*
X95123000Y-229514893D01*
X95123000Y-221842709D01*
X95385406Y-221580761D01*
X95546996Y-221191608D01*
X95547364Y-220770240D01*
X95386453Y-220380806D01*
X95088761Y-220082594D01*
X94699608Y-219921004D01*
X94278240Y-219920636D01*
X93888806Y-220081547D01*
X93590594Y-220379239D01*
X93429004Y-220768392D01*
X93428636Y-221189760D01*
X93589547Y-221579194D01*
X93853000Y-221843107D01*
X93853000Y-229515291D01*
X93590594Y-229777239D01*
X93429004Y-230166392D01*
X93428636Y-230587760D01*
X93589547Y-230977194D01*
X93887239Y-231275406D01*
X94276392Y-231436996D01*
X94697760Y-231437364D01*
X95087194Y-231276453D01*
X95351107Y-231013000D01*
X98825974Y-231013000D01*
X99212048Y-231399074D01*
X99212048Y-231769000D01*
X99247470Y-231957253D01*
X99358728Y-232130153D01*
X99528488Y-232246145D01*
X99730000Y-232286952D01*
X100930000Y-232286952D01*
X101118253Y-232251530D01*
X101291153Y-232140272D01*
X101353516Y-232049000D01*
X112674048Y-232049000D01*
X112674048Y-232064000D01*
X112693555Y-232167671D01*
X112674048Y-232264000D01*
X112674048Y-232564000D01*
X112693555Y-232667671D01*
X112674048Y-232764000D01*
X112674048Y-232779000D01*
X94485026Y-232779000D01*
X92583000Y-230876974D01*
X92583000Y-212491618D01*
X100477618Y-204597000D01*
X121793000Y-204597000D01*
X121793000Y-212090000D01*
X121803006Y-212139410D01*
X121831447Y-212181035D01*
X121873841Y-212208315D01*
X121920000Y-212217000D01*
X165787000Y-212217000D01*
X165787000Y-220514974D01*
X165041013Y-219768987D01*
X164835004Y-219631336D01*
X164592000Y-219583000D01*
X122174000Y-219583000D01*
X121930996Y-219631336D01*
X121815552Y-219708474D01*
X122278974Y-219245051D01*
X122637760Y-219245364D01*
X123027194Y-219084453D01*
X123325406Y-218786761D01*
X123486996Y-218397608D01*
X123487364Y-217976240D01*
X123326453Y-217586806D01*
X123063000Y-217322893D01*
X123063000Y-216804362D01*
X123164153Y-216739272D01*
X123280145Y-216569512D01*
X123320952Y-216368000D01*
X123320952Y-215168000D01*
X123285530Y-214979747D01*
X123174272Y-214806847D01*
X123004512Y-214690855D01*
X122803000Y-214650048D01*
X122053000Y-214650048D01*
X121864747Y-214685470D01*
X121691847Y-214796728D01*
X121575855Y-214966488D01*
X121535048Y-215168000D01*
X121535048Y-216368000D01*
X121570470Y-216556253D01*
X121681728Y-216729153D01*
X121793000Y-216805182D01*
X121793000Y-217323291D01*
X121530594Y-217585239D01*
X121369004Y-217974392D01*
X121368668Y-218359307D01*
X120027000Y-219700974D01*
X120027000Y-218198005D01*
X120027001Y-218198000D01*
X120015000Y-218137668D01*
X120015000Y-216870362D01*
X120116153Y-216805272D01*
X120232145Y-216635512D01*
X120272952Y-216434000D01*
X120272952Y-215234000D01*
X120237530Y-215045747D01*
X120126272Y-214872847D01*
X119956512Y-214756855D01*
X119755000Y-214716048D01*
X119005000Y-214716048D01*
X118816747Y-214751470D01*
X118643847Y-214862728D01*
X118527855Y-215032488D01*
X118487048Y-215234000D01*
X118487048Y-216434000D01*
X118522470Y-216622253D01*
X118633728Y-216795153D01*
X118745000Y-216871182D01*
X118745000Y-218186000D01*
X118757000Y-218246329D01*
X118757000Y-226196048D01*
X118742000Y-226196048D01*
X118638329Y-226215555D01*
X118542000Y-226196048D01*
X118242000Y-226196048D01*
X118138329Y-226215555D01*
X118042000Y-226196048D01*
X118027000Y-226196048D01*
X118027000Y-221056219D01*
X118035000Y-221016000D01*
X118035000Y-220661366D01*
X118188253Y-220632530D01*
X118361153Y-220521272D01*
X118477145Y-220351512D01*
X118517952Y-220150000D01*
X118517952Y-219250000D01*
X118482530Y-219061747D01*
X118371272Y-218888847D01*
X118201512Y-218772855D01*
X118035000Y-218739136D01*
X118035000Y-217852477D01*
X118119753Y-217836530D01*
X118292653Y-217725272D01*
X118408645Y-217555512D01*
X118449452Y-217354000D01*
X118449452Y-214954000D01*
X118414030Y-214765747D01*
X118302772Y-214592847D01*
X118133012Y-214476855D01*
X117931500Y-214436048D01*
X116904000Y-214436048D01*
X116904000Y-213300026D01*
X116967074Y-213236952D01*
X117562000Y-213236952D01*
X117750253Y-213201530D01*
X117923153Y-213090272D01*
X118039145Y-212920512D01*
X118079952Y-212719000D01*
X118079952Y-211969000D01*
X118044530Y-211780747D01*
X117933272Y-211607847D01*
X117763512Y-211491855D01*
X117562000Y-211451048D01*
X116362000Y-211451048D01*
X116173747Y-211486470D01*
X116000847Y-211597728D01*
X115884855Y-211767488D01*
X115844048Y-211969000D01*
X115844048Y-212563926D01*
X115819987Y-212587987D01*
X115682336Y-212793996D01*
X115634000Y-213037000D01*
X115634000Y-214436048D01*
X114606500Y-214436048D01*
X114418247Y-214471470D01*
X114245347Y-214582728D01*
X114129355Y-214752488D01*
X114088548Y-214954000D01*
X114088548Y-217354000D01*
X114123970Y-217542253D01*
X114235228Y-217715153D01*
X114404988Y-217831145D01*
X114606500Y-217871952D01*
X116765000Y-217871952D01*
X116765000Y-218738634D01*
X116611747Y-218767470D01*
X116438847Y-218878728D01*
X116322855Y-219048488D01*
X116300659Y-219158095D01*
X116282530Y-219061747D01*
X116171272Y-218888847D01*
X116001512Y-218772855D01*
X115800000Y-218732048D01*
X114682574Y-218732048D01*
X112924452Y-216973926D01*
X112924452Y-214954000D01*
X112889030Y-214765747D01*
X112777772Y-214592847D01*
X112608012Y-214476855D01*
X112406500Y-214436048D01*
X111379000Y-214436048D01*
X111379000Y-213389000D01*
X111330664Y-213145996D01*
X111193013Y-212939987D01*
X110591952Y-212338926D01*
X110591952Y-211969000D01*
X110556530Y-211780747D01*
X110445272Y-211607847D01*
X110275512Y-211491855D01*
X110074000Y-211451048D01*
X108874000Y-211451048D01*
X108685747Y-211486470D01*
X108512847Y-211597728D01*
X108396855Y-211767488D01*
X108356048Y-211969000D01*
X108356048Y-212719000D01*
X108391470Y-212907253D01*
X108502728Y-213080153D01*
X108672488Y-213196145D01*
X108874000Y-213236952D01*
X109693926Y-213236952D01*
X110109000Y-213652026D01*
X110109000Y-214436048D01*
X109081500Y-214436048D01*
X108893247Y-214471470D01*
X108720347Y-214582728D01*
X108604355Y-214752488D01*
X108563548Y-214954000D01*
X108563548Y-217354000D01*
X108598970Y-217542253D01*
X108710228Y-217715153D01*
X108879988Y-217831145D01*
X109081500Y-217871952D01*
X112026426Y-217871952D01*
X114082048Y-219927574D01*
X114082048Y-220150000D01*
X114117470Y-220338253D01*
X114228728Y-220511153D01*
X114398488Y-220627145D01*
X114565000Y-220660864D01*
X114565000Y-220854974D01*
X113987013Y-220276987D01*
X113781004Y-220139336D01*
X113538000Y-220091000D01*
X108346362Y-220091000D01*
X108281272Y-219989847D01*
X108111512Y-219873855D01*
X107910000Y-219833048D01*
X106710000Y-219833048D01*
X106521747Y-219868470D01*
X106348847Y-219979728D01*
X106232855Y-220149488D01*
X106192048Y-220351000D01*
X106192048Y-221101000D01*
X106227470Y-221289253D01*
X106273638Y-221361000D01*
X104140000Y-221361000D01*
X103896995Y-221409336D01*
X103835144Y-221450664D01*
X103690987Y-221546987D01*
X103690985Y-221546990D01*
X103182987Y-222054987D01*
X103045336Y-222260996D01*
X102997000Y-222504000D01*
X102997000Y-224689291D01*
X102734594Y-224951239D01*
X102573004Y-225340392D01*
X102572636Y-225761760D01*
X102733547Y-226151194D01*
X103031239Y-226449406D01*
X103420392Y-226610996D01*
X103841760Y-226611364D01*
X104231194Y-226450453D01*
X104529406Y-226152761D01*
X104690996Y-225763608D01*
X104691364Y-225342240D01*
X104530453Y-224952806D01*
X104267000Y-224688893D01*
X104267000Y-222767026D01*
X104403025Y-222631000D01*
X106324048Y-222631000D01*
X106324048Y-223462000D01*
X106359470Y-223650253D01*
X106470728Y-223823153D01*
X106640488Y-223939145D01*
X106842000Y-223979952D01*
X108042000Y-223979952D01*
X108230253Y-223944530D01*
X108403153Y-223833272D01*
X108519145Y-223663512D01*
X108522489Y-223647000D01*
X114290974Y-223647000D01*
X115257000Y-224613026D01*
X115257000Y-226551277D01*
X115224048Y-226714000D01*
X115224048Y-228214000D01*
X115259470Y-228402253D01*
X115370728Y-228575153D01*
X115540488Y-228691145D01*
X115742000Y-228731952D01*
X116042000Y-228731952D01*
X116145671Y-228712445D01*
X116242000Y-228731952D01*
X116542000Y-228731952D01*
X116645671Y-228712445D01*
X116742000Y-228731952D01*
X117042000Y-228731952D01*
X117145671Y-228712445D01*
X117242000Y-228731952D01*
X117542000Y-228731952D01*
X117645671Y-228712445D01*
X117742000Y-228731952D01*
X118042000Y-228731952D01*
X118145671Y-228712445D01*
X118242000Y-228731952D01*
X118542000Y-228731952D01*
X118645671Y-228712445D01*
X118742000Y-228731952D01*
X119042000Y-228731952D01*
X119145671Y-228712445D01*
X119242000Y-228731952D01*
X119542000Y-228731952D01*
X119645671Y-228712445D01*
X119742000Y-228731952D01*
X120042000Y-228731952D01*
X120145671Y-228712445D01*
X120242000Y-228731952D01*
X120542000Y-228731952D01*
X120645671Y-228712445D01*
X120742000Y-228731952D01*
X121042000Y-228731952D01*
X121145671Y-228712445D01*
X121242000Y-228731952D01*
X121319333Y-228731952D01*
X121442987Y-228917013D01*
X121808786Y-229282812D01*
X122014795Y-229420463D01*
X122257799Y-229468799D01*
X124074048Y-229468799D01*
X124074048Y-229564000D01*
X124093555Y-229667671D01*
X124074048Y-229764000D01*
X124074048Y-230064000D01*
X124093555Y-230167671D01*
X124074048Y-230264000D01*
X124074048Y-230564000D01*
X124093555Y-230667671D01*
X124074048Y-230764000D01*
X124074048Y-231064000D01*
X124093555Y-231167671D01*
X124074048Y-231264000D01*
X124074048Y-231564000D01*
X124093555Y-231667671D01*
X124074048Y-231764000D01*
X124074048Y-232064000D01*
X124093555Y-232167671D01*
X124074048Y-232264000D01*
X124074048Y-232564000D01*
X124093555Y-232667671D01*
X124074048Y-232764000D01*
X124074048Y-233064000D01*
X124093555Y-233167671D01*
X124074048Y-233264000D01*
X124074048Y-233564000D01*
X124093555Y-233667671D01*
X124074048Y-233764000D01*
X124074048Y-234064000D01*
X124093555Y-234167671D01*
X124074048Y-234264000D01*
X124074048Y-234564000D01*
X124093555Y-234667671D01*
X124074048Y-234764000D01*
X124074048Y-235064000D01*
X124093555Y-235167671D01*
X124074048Y-235264000D01*
X124074048Y-235564000D01*
X124093555Y-235667671D01*
X124074048Y-235764000D01*
X124074048Y-236064000D01*
X124093555Y-236167671D01*
X124074048Y-236264000D01*
X124074048Y-236564000D01*
X124093555Y-236667671D01*
X124074048Y-236764000D01*
X124074048Y-237064000D01*
X124109470Y-237252253D01*
X124220728Y-237425153D01*
X124390488Y-237541145D01*
X124592000Y-237581952D01*
X126092000Y-237581952D01*
X126267126Y-237549000D01*
X132868974Y-237549000D01*
X136550048Y-241230074D01*
X136550048Y-241750000D01*
X136585470Y-241938253D01*
X136696728Y-242111153D01*
X136866488Y-242227145D01*
X137068000Y-242267952D01*
X138268000Y-242267952D01*
X138456253Y-242232530D01*
X138629153Y-242121272D01*
X138745145Y-241951512D01*
X138785952Y-241750000D01*
X138785952Y-240850000D01*
X138750530Y-240661747D01*
X138639272Y-240488847D01*
X138469512Y-240372855D01*
X138268000Y-240332048D01*
X137448074Y-240332048D01*
X137276978Y-240160952D01*
X138146000Y-240160952D01*
X138334253Y-240125530D01*
X138507153Y-240014272D01*
X138623145Y-239844512D01*
X138663952Y-239643000D01*
X138663952Y-238893000D01*
X138662823Y-238887000D01*
X141976974Y-238887000D01*
X142113000Y-239023025D01*
X142113000Y-244592974D01*
X141131014Y-245574960D01*
X140760240Y-245574636D01*
X140370806Y-245735547D01*
X140072594Y-246033239D01*
X139911004Y-246422392D01*
X139910636Y-246843760D01*
X140071547Y-247233194D01*
X140369239Y-247531406D01*
X140758392Y-247692996D01*
X141179760Y-247693364D01*
X141569194Y-247532453D01*
X141867406Y-247234761D01*
X142028996Y-246845608D01*
X142029322Y-246472704D01*
X143197013Y-245305013D01*
X143334664Y-245099004D01*
X143383000Y-244856000D01*
X143383000Y-239903000D01*
X144401634Y-239903000D01*
X144430470Y-240056253D01*
X144541728Y-240229153D01*
X144711488Y-240345145D01*
X144913000Y-240385952D01*
X145663000Y-240385952D01*
X145851253Y-240350530D01*
X146024153Y-240239272D01*
X146140145Y-240069512D01*
X146173864Y-239903000D01*
X147449634Y-239903000D01*
X147478470Y-240056253D01*
X147583890Y-240220081D01*
X147483855Y-240366488D01*
X147443048Y-240568000D01*
X147443048Y-241768000D01*
X147478470Y-241956253D01*
X147589728Y-242129153D01*
X147759488Y-242245145D01*
X147961000Y-242285952D01*
X148711000Y-242285952D01*
X148899253Y-242250530D01*
X149072153Y-242139272D01*
X149188145Y-241969512D01*
X149209005Y-241866500D01*
X150509582Y-241866500D01*
X150526470Y-241956253D01*
X150637728Y-242129153D01*
X150807488Y-242245145D01*
X151009000Y-242285952D01*
X151759000Y-242285952D01*
X151947253Y-242250530D01*
X152120153Y-242139272D01*
X152236145Y-241969512D01*
X152257005Y-241866500D01*
X152660048Y-241866500D01*
X152660048Y-242438000D01*
X152695470Y-242626253D01*
X152806728Y-242799153D01*
X152976488Y-242915145D01*
X153178000Y-242955952D01*
X155178000Y-242955952D01*
X155366253Y-242920530D01*
X155539153Y-242809272D01*
X155655145Y-242639512D01*
X155695952Y-242438000D01*
X155695952Y-241236500D01*
X158960048Y-241236500D01*
X158960048Y-241288000D01*
X158995470Y-241476253D01*
X159106728Y-241649153D01*
X159276488Y-241765145D01*
X159478000Y-241805952D01*
X161478000Y-241805952D01*
X161666253Y-241770530D01*
X161839153Y-241659272D01*
X161955145Y-241489512D01*
X161995952Y-241288000D01*
X161995952Y-239788000D01*
X161960530Y-239599747D01*
X161849272Y-239426847D01*
X161793432Y-239388693D01*
X161839153Y-239359272D01*
X161955145Y-239189512D01*
X161995952Y-238988000D01*
X161995952Y-238873000D01*
X162686999Y-238873000D01*
X162718470Y-239040253D01*
X162829728Y-239213153D01*
X162999488Y-239329145D01*
X163201000Y-239369952D01*
X163481124Y-239369952D01*
X164077991Y-239966819D01*
X164077991Y-243874181D01*
X162631291Y-245320881D01*
X162350240Y-245320636D01*
X161960806Y-245481547D01*
X161662594Y-245779239D01*
X161501004Y-246168392D01*
X161500636Y-246589760D01*
X161661547Y-246979194D01*
X161959239Y-247277406D01*
X162348392Y-247438996D01*
X162769760Y-247439364D01*
X163159194Y-247278453D01*
X163457406Y-246980761D01*
X163618996Y-246591608D01*
X163619243Y-246308585D01*
X164662201Y-245265627D01*
X164662201Y-249059991D01*
X164657568Y-249060513D01*
X164589583Y-249082181D01*
X164518931Y-249092156D01*
X164455522Y-249114344D01*
X164394069Y-249150594D01*
X164327409Y-249176040D01*
X164270528Y-249211781D01*
X164218682Y-249260797D01*
X164159357Y-249300437D01*
X164111854Y-249347940D01*
X164072215Y-249407265D01*
X164023198Y-249459111D01*
X163987457Y-249515992D01*
X163962011Y-249582652D01*
X163925761Y-249644105D01*
X163903573Y-249707514D01*
X163893599Y-249778162D01*
X163871931Y-249846143D01*
X163864409Y-249912900D01*
X163870406Y-249984001D01*
X163864409Y-250055101D01*
X163871931Y-250121857D01*
X163893599Y-250189838D01*
X163903573Y-250260485D01*
X163925761Y-250323894D01*
X163962011Y-250385347D01*
X163987457Y-250452007D01*
X164023198Y-250508888D01*
X164072215Y-250560734D01*
X164087760Y-250584000D01*
X164072215Y-250607265D01*
X164023198Y-250659111D01*
X163987457Y-250715992D01*
X163962011Y-250782652D01*
X163925761Y-250844105D01*
X163903573Y-250907514D01*
X163893599Y-250978162D01*
X163871931Y-251046143D01*
X163864409Y-251112900D01*
X163870406Y-251184001D01*
X163864409Y-251255101D01*
X163871931Y-251321857D01*
X163893599Y-251389838D01*
X163903573Y-251460485D01*
X163925761Y-251523894D01*
X163962011Y-251585347D01*
X163987457Y-251652007D01*
X164023198Y-251708888D01*
X164072215Y-251760734D01*
X164087760Y-251784000D01*
X164072215Y-251807265D01*
X164023198Y-251859111D01*
X163987457Y-251915992D01*
X163962011Y-251982652D01*
X163925761Y-252044105D01*
X163903573Y-252107514D01*
X163893599Y-252178162D01*
X163871931Y-252246143D01*
X163864409Y-252312900D01*
X163870406Y-252384001D01*
X163864409Y-252455101D01*
X163871931Y-252521857D01*
X163893599Y-252589838D01*
X163903573Y-252660485D01*
X163925761Y-252723894D01*
X163962011Y-252785347D01*
X163987457Y-252852007D01*
X164023198Y-252908888D01*
X164072215Y-252960734D01*
X164111854Y-253020059D01*
X164159357Y-253067562D01*
X164218682Y-253107202D01*
X164270528Y-253156218D01*
X164327409Y-253191959D01*
X164370253Y-253208313D01*
X161401365Y-256177201D01*
X160723873Y-256177201D01*
X160724166Y-255842278D01*
X160578626Y-255490046D01*
X160309372Y-255220321D01*
X159957394Y-255074167D01*
X159576278Y-255073834D01*
X159224046Y-255219374D01*
X158954321Y-255488628D01*
X158808167Y-255840606D01*
X158807873Y-256177201D01*
X158201000Y-256177201D01*
X158201000Y-255099952D01*
X158616000Y-255099952D01*
X158804253Y-255064530D01*
X158977153Y-254953272D01*
X159093145Y-254783512D01*
X159133952Y-254582000D01*
X159133952Y-252282000D01*
X159098530Y-252093747D01*
X158987272Y-251920847D01*
X158817512Y-251804855D01*
X158616000Y-251764048D01*
X158116000Y-251764048D01*
X157960493Y-251793308D01*
X157816000Y-251764048D01*
X157316000Y-251764048D01*
X157160493Y-251793308D01*
X157016000Y-251764048D01*
X156664500Y-251764048D01*
X156664500Y-246407338D01*
X156853406Y-246218761D01*
X157014996Y-245829608D01*
X157015364Y-245408240D01*
X156854453Y-245018806D01*
X156556761Y-244720594D01*
X156167608Y-244559004D01*
X155746240Y-244558636D01*
X155356806Y-244719547D01*
X155058594Y-245017239D01*
X154897004Y-245406392D01*
X154896636Y-245827760D01*
X155057547Y-246217194D01*
X155267500Y-246427514D01*
X155267500Y-252038565D01*
X155238855Y-252080488D01*
X155198048Y-252282000D01*
X155198048Y-254201926D01*
X154764974Y-254635000D01*
X143237142Y-254635000D01*
X143236530Y-254631747D01*
X143125272Y-254458847D01*
X142955512Y-254342855D01*
X142789000Y-254309136D01*
X142789000Y-252577495D01*
X142948253Y-252547530D01*
X143121153Y-252436272D01*
X143237145Y-252266512D01*
X143277952Y-252065000D01*
X143277952Y-251315000D01*
X143242530Y-251126747D01*
X143131272Y-250953847D01*
X142961512Y-250837855D01*
X142760000Y-250797048D01*
X141560000Y-250797048D01*
X141371747Y-250832470D01*
X141198847Y-250943728D01*
X141082855Y-251113488D01*
X141042048Y-251315000D01*
X141042048Y-252065000D01*
X141077470Y-252253253D01*
X141188728Y-252426153D01*
X141358488Y-252542145D01*
X141519000Y-252574649D01*
X141519000Y-254308634D01*
X141365747Y-254337470D01*
X141192847Y-254448728D01*
X141076855Y-254618488D01*
X141054659Y-254728095D01*
X141036530Y-254631747D01*
X140925272Y-254458847D01*
X140755512Y-254342855D01*
X140589000Y-254309136D01*
X140589000Y-248920000D01*
X140557522Y-248761747D01*
X140540664Y-248676995D01*
X140403013Y-248470987D01*
X131107040Y-239175014D01*
X131107364Y-238804240D01*
X130946453Y-238414806D01*
X130648761Y-238116594D01*
X130259608Y-237955004D01*
X129838240Y-237954636D01*
X129448806Y-238115547D01*
X129150594Y-238413239D01*
X128989004Y-238802392D01*
X128988636Y-239223760D01*
X129149547Y-239613194D01*
X129447239Y-239911406D01*
X129836392Y-240072996D01*
X130209296Y-240073322D01*
X139319000Y-249183026D01*
X139319000Y-254308634D01*
X139165747Y-254337470D01*
X138992847Y-254448728D01*
X138876855Y-254618488D01*
X138836048Y-254820000D01*
X138836048Y-255720000D01*
X138871470Y-255908253D01*
X138982728Y-256081153D01*
X139152488Y-256197145D01*
X139319000Y-256230864D01*
X139319000Y-258626634D01*
X139165747Y-258655470D01*
X138992847Y-258766728D01*
X138876855Y-258936488D01*
X138836048Y-259138000D01*
X138836048Y-260038000D01*
X138871470Y-260226253D01*
X138982728Y-260399153D01*
X139152488Y-260515145D01*
X139354000Y-260555952D01*
X140554000Y-260555952D01*
X140742253Y-260520530D01*
X140915153Y-260409272D01*
X141031145Y-260239512D01*
X141071952Y-260038000D01*
X141071952Y-259138000D01*
X141036530Y-258949747D01*
X140925272Y-258776847D01*
X140755512Y-258660855D01*
X140589000Y-258627136D01*
X140589000Y-256231366D01*
X140742253Y-256202530D01*
X140915153Y-256091272D01*
X141031145Y-255921512D01*
X141053341Y-255811905D01*
X141071470Y-255908253D01*
X141182728Y-256081153D01*
X141352488Y-256197145D01*
X141554000Y-256237952D01*
X142754000Y-256237952D01*
X142942253Y-256202530D01*
X143115153Y-256091272D01*
X143231145Y-255921512D01*
X143234489Y-255905000D01*
X154408111Y-255905000D01*
X154407834Y-256221722D01*
X154553374Y-256573954D01*
X154822628Y-256843679D01*
X155174606Y-256989833D01*
X155555722Y-256990166D01*
X155907954Y-256844626D01*
X156177679Y-256575372D01*
X156178580Y-256573203D01*
X156179336Y-256577004D01*
X156316987Y-256783013D01*
X157284987Y-257751013D01*
X157490996Y-257888664D01*
X157734000Y-257937000D01*
X161821184Y-257937000D01*
X162064188Y-257888664D01*
X162270197Y-257751013D01*
X165787000Y-254234210D01*
X165787000Y-261291000D01*
X76783000Y-261291000D01*
X76783000Y-257703664D01*
X95875652Y-257703664D01*
X96180708Y-258441955D01*
X96745074Y-259007307D01*
X97482832Y-259313651D01*
X98281664Y-259314348D01*
X99019955Y-259009292D01*
X99585307Y-258444926D01*
X99891651Y-257707168D01*
X99892348Y-256908336D01*
X99587292Y-256170045D01*
X99022926Y-255604693D01*
X98285168Y-255298349D01*
X97486336Y-255297652D01*
X96748045Y-255602708D01*
X96182693Y-256167074D01*
X95876349Y-256904832D01*
X95875652Y-257703664D01*
X76783000Y-257703664D01*
X76783000Y-208677664D01*
X79170052Y-208677664D01*
X79475108Y-209415955D01*
X80039474Y-209981307D01*
X80777232Y-210287651D01*
X81576064Y-210288348D01*
X82314355Y-209983292D01*
X82879707Y-209418926D01*
X83186051Y-208681168D01*
X83186748Y-207882336D01*
X82881692Y-207144045D01*
X82317326Y-206578693D01*
X81579568Y-206272349D01*
X80780736Y-206271652D01*
X80042445Y-206576708D01*
X79477093Y-207141074D01*
X79170749Y-207878832D01*
X79170052Y-208677664D01*
X76783000Y-208677664D01*
X76783000Y-204597000D01*
X85661500Y-204597000D01*
X85661500Y-251460000D01*
G36*
X87434987Y-213592493D02*
X87297336Y-213798502D01*
X87249000Y-214041506D01*
X87249000Y-226822000D01*
X87297336Y-227065004D01*
X87434987Y-227271013D01*
X88602960Y-228438986D01*
X88602636Y-228809760D01*
X88763547Y-229199194D01*
X89061239Y-229497406D01*
X89450392Y-229658996D01*
X89871760Y-229659364D01*
X90261194Y-229498453D01*
X90559406Y-229200761D01*
X90720996Y-228811608D01*
X90721364Y-228390240D01*
X90560453Y-228000806D01*
X90262761Y-227702594D01*
X89976932Y-227583908D01*
X90261194Y-227466453D01*
X90559406Y-227168761D01*
X90720996Y-226779608D01*
X90721364Y-226358240D01*
X90560453Y-225968806D01*
X90262761Y-225670594D01*
X89873608Y-225509004D01*
X89500704Y-225508678D01*
X89027000Y-225034974D01*
X89027000Y-214443124D01*
X90805000Y-212665124D01*
X90805000Y-231394000D01*
X90853336Y-231637004D01*
X90990987Y-231843013D01*
X91196996Y-231980664D01*
X91255728Y-231992346D01*
X93626395Y-234363013D01*
X93832404Y-234500664D01*
X94075408Y-234549000D01*
X99663334Y-234549000D01*
X99591747Y-234562470D01*
X99418847Y-234673728D01*
X99302855Y-234843488D01*
X99262048Y-235045000D01*
X99262048Y-235795000D01*
X99297470Y-235983253D01*
X99368090Y-236093000D01*
X93218000Y-236093000D01*
X92974996Y-236141336D01*
X92768987Y-236278987D01*
X91015821Y-238032153D01*
X91015821Y-234993254D01*
X91141760Y-234993364D01*
X91531194Y-234832453D01*
X91829406Y-234534761D01*
X91990996Y-234145608D01*
X91991364Y-233724240D01*
X91830453Y-233334806D01*
X91532761Y-233036594D01*
X91143608Y-232875004D01*
X90722240Y-232874636D01*
X90332806Y-233035547D01*
X90034594Y-233333239D01*
X89873004Y-233722392D01*
X89872653Y-234124698D01*
X89794157Y-234242175D01*
X89745821Y-234485179D01*
X89745821Y-238970821D01*
X89794157Y-239213825D01*
X89931808Y-239419834D01*
X90990987Y-240479013D01*
X91498985Y-240987010D01*
X91498987Y-240987013D01*
X91603724Y-241056996D01*
X91704995Y-241124664D01*
X91948000Y-241173000D01*
X111929225Y-241173000D01*
X113300022Y-242543797D01*
X112858267Y-242543797D01*
X112670014Y-242579219D01*
X112497114Y-242690477D01*
X112381122Y-242860237D01*
X112347403Y-243026749D01*
X111049190Y-243026749D01*
X111021530Y-242879747D01*
X110910272Y-242706847D01*
X110740512Y-242590855D01*
X110539000Y-242550048D01*
X109789000Y-242550048D01*
X109600747Y-242585470D01*
X109427847Y-242696728D01*
X109311855Y-242866488D01*
X109271048Y-243068000D01*
X109271048Y-244268000D01*
X109306470Y-244456253D01*
X109411890Y-244620081D01*
X109311855Y-244766488D01*
X109278136Y-244933000D01*
X107035366Y-244933000D01*
X107006530Y-244779747D01*
X106895272Y-244606847D01*
X106725512Y-244490855D01*
X106524000Y-244450048D01*
X105774000Y-244450048D01*
X105585747Y-244485470D01*
X105412847Y-244596728D01*
X105296855Y-244766488D01*
X105263136Y-244933000D01*
X104448188Y-244933000D01*
X104415272Y-244881847D01*
X104245512Y-244765855D01*
X104044000Y-244725048D01*
X102953876Y-244725048D01*
X101574914Y-243346086D01*
X101348305Y-243194670D01*
X101081000Y-243141500D01*
X94779320Y-243141500D01*
X94580761Y-242942594D01*
X94191608Y-242781004D01*
X93770240Y-242780636D01*
X93380806Y-242941547D01*
X93082594Y-243239239D01*
X92921004Y-243628392D01*
X92920636Y-244049760D01*
X93081547Y-244439194D01*
X93379239Y-244737406D01*
X93768392Y-244898996D01*
X94189760Y-244899364D01*
X94579194Y-244738453D01*
X94779496Y-244538500D01*
X97298336Y-244538500D01*
X97207847Y-244596728D01*
X97091855Y-244766488D01*
X97051048Y-244968000D01*
X97051048Y-246168000D01*
X97086470Y-246356253D01*
X97197728Y-246529153D01*
X97367488Y-246645145D01*
X97569000Y-246685952D01*
X98319000Y-246685952D01*
X98425000Y-246666007D01*
X98425000Y-246998000D01*
X98473336Y-247241004D01*
X98610987Y-247447013D01*
X99080987Y-247917013D01*
X99286995Y-248054664D01*
X99357767Y-248068741D01*
X99412728Y-248154153D01*
X99582488Y-248270145D01*
X99784000Y-248310952D01*
X100874124Y-248310952D01*
X105864672Y-253301500D01*
X89189328Y-253301500D01*
X87058500Y-251170672D01*
X87058500Y-204597000D01*
X96430480Y-204597000D01*
X87434987Y-213592493D01*
X87434987Y-213592493D01*
G37*
X87434987Y-213592493D02*
X87297336Y-213798502D01*
X87249000Y-214041506D01*
X87249000Y-226822000D01*
X87297336Y-227065004D01*
X87434987Y-227271013D01*
X88602960Y-228438986D01*
X88602636Y-228809760D01*
X88763547Y-229199194D01*
X89061239Y-229497406D01*
X89450392Y-229658996D01*
X89871760Y-229659364D01*
X90261194Y-229498453D01*
X90559406Y-229200761D01*
X90720996Y-228811608D01*
X90721364Y-228390240D01*
X90560453Y-228000806D01*
X90262761Y-227702594D01*
X89976932Y-227583908D01*
X90261194Y-227466453D01*
X90559406Y-227168761D01*
X90720996Y-226779608D01*
X90721364Y-226358240D01*
X90560453Y-225968806D01*
X90262761Y-225670594D01*
X89873608Y-225509004D01*
X89500704Y-225508678D01*
X89027000Y-225034974D01*
X89027000Y-214443124D01*
X90805000Y-212665124D01*
X90805000Y-231394000D01*
X90853336Y-231637004D01*
X90990987Y-231843013D01*
X91196996Y-231980664D01*
X91255728Y-231992346D01*
X93626395Y-234363013D01*
X93832404Y-234500664D01*
X94075408Y-234549000D01*
X99663334Y-234549000D01*
X99591747Y-234562470D01*
X99418847Y-234673728D01*
X99302855Y-234843488D01*
X99262048Y-235045000D01*
X99262048Y-235795000D01*
X99297470Y-235983253D01*
X99368090Y-236093000D01*
X93218000Y-236093000D01*
X92974996Y-236141336D01*
X92768987Y-236278987D01*
X91015821Y-238032153D01*
X91015821Y-234993254D01*
X91141760Y-234993364D01*
X91531194Y-234832453D01*
X91829406Y-234534761D01*
X91990996Y-234145608D01*
X91991364Y-233724240D01*
X91830453Y-233334806D01*
X91532761Y-233036594D01*
X91143608Y-232875004D01*
X90722240Y-232874636D01*
X90332806Y-233035547D01*
X90034594Y-233333239D01*
X89873004Y-233722392D01*
X89872653Y-234124698D01*
X89794157Y-234242175D01*
X89745821Y-234485179D01*
X89745821Y-238970821D01*
X89794157Y-239213825D01*
X89931808Y-239419834D01*
X90990987Y-240479013D01*
X91498985Y-240987010D01*
X91498987Y-240987013D01*
X91603724Y-241056996D01*
X91704995Y-241124664D01*
X91948000Y-241173000D01*
X111929225Y-241173000D01*
X113300022Y-242543797D01*
X112858267Y-242543797D01*
X112670014Y-242579219D01*
X112497114Y-242690477D01*
X112381122Y-242860237D01*
X112347403Y-243026749D01*
X111049190Y-243026749D01*
X111021530Y-242879747D01*
X110910272Y-242706847D01*
X110740512Y-242590855D01*
X110539000Y-242550048D01*
X109789000Y-242550048D01*
X109600747Y-242585470D01*
X109427847Y-242696728D01*
X109311855Y-242866488D01*
X109271048Y-243068000D01*
X109271048Y-244268000D01*
X109306470Y-244456253D01*
X109411890Y-244620081D01*
X109311855Y-244766488D01*
X109278136Y-244933000D01*
X107035366Y-244933000D01*
X107006530Y-244779747D01*
X106895272Y-244606847D01*
X106725512Y-244490855D01*
X106524000Y-244450048D01*
X105774000Y-244450048D01*
X105585747Y-244485470D01*
X105412847Y-244596728D01*
X105296855Y-244766488D01*
X105263136Y-244933000D01*
X104448188Y-244933000D01*
X104415272Y-244881847D01*
X104245512Y-244765855D01*
X104044000Y-244725048D01*
X102953876Y-244725048D01*
X101574914Y-243346086D01*
X101348305Y-243194670D01*
X101081000Y-243141500D01*
X94779320Y-243141500D01*
X94580761Y-242942594D01*
X94191608Y-242781004D01*
X93770240Y-242780636D01*
X93380806Y-242941547D01*
X93082594Y-243239239D01*
X92921004Y-243628392D01*
X92920636Y-244049760D01*
X93081547Y-244439194D01*
X93379239Y-244737406D01*
X93768392Y-244898996D01*
X94189760Y-244899364D01*
X94579194Y-244738453D01*
X94779496Y-244538500D01*
X97298336Y-244538500D01*
X97207847Y-244596728D01*
X97091855Y-244766488D01*
X97051048Y-244968000D01*
X97051048Y-246168000D01*
X97086470Y-246356253D01*
X97197728Y-246529153D01*
X97367488Y-246645145D01*
X97569000Y-246685952D01*
X98319000Y-246685952D01*
X98425000Y-246666007D01*
X98425000Y-246998000D01*
X98473336Y-247241004D01*
X98610987Y-247447013D01*
X99080987Y-247917013D01*
X99286995Y-248054664D01*
X99357767Y-248068741D01*
X99412728Y-248154153D01*
X99582488Y-248270145D01*
X99784000Y-248310952D01*
X100874124Y-248310952D01*
X105864672Y-253301500D01*
X89189328Y-253301500D01*
X87058500Y-251170672D01*
X87058500Y-204597000D01*
X96430480Y-204597000D01*
X87434987Y-213592493D01*
G36*
X138531470Y-234064253D02*
X138642728Y-234237153D01*
X138812488Y-234353145D01*
X139014000Y-234393952D01*
X140214000Y-234393952D01*
X140402253Y-234358530D01*
X140575153Y-234247272D01*
X140659039Y-234124500D01*
X149824672Y-234124500D01*
X153479500Y-237779328D01*
X153479500Y-238120048D01*
X153178000Y-238120048D01*
X152989747Y-238155470D01*
X152816847Y-238266728D01*
X152700855Y-238436488D01*
X152660048Y-238638000D01*
X152660048Y-240469500D01*
X152258418Y-240469500D01*
X152241530Y-240379747D01*
X152130272Y-240206847D01*
X151960512Y-240090855D01*
X151759000Y-240050048D01*
X151009000Y-240050048D01*
X150820747Y-240085470D01*
X150647847Y-240196728D01*
X150531855Y-240366488D01*
X150510995Y-240469500D01*
X149210418Y-240469500D01*
X149193530Y-240379747D01*
X149088110Y-240215919D01*
X149188145Y-240069512D01*
X149228952Y-239868000D01*
X149228952Y-238668000D01*
X149193530Y-238479747D01*
X149082272Y-238306847D01*
X148912512Y-238190855D01*
X148711000Y-238150048D01*
X147961000Y-238150048D01*
X147772747Y-238185470D01*
X147599847Y-238296728D01*
X147483855Y-238466488D01*
X147450136Y-238633000D01*
X146174366Y-238633000D01*
X146145530Y-238479747D01*
X146034272Y-238306847D01*
X145864512Y-238190855D01*
X145663000Y-238150048D01*
X144913000Y-238150048D01*
X144724747Y-238185470D01*
X144551847Y-238296728D01*
X144435855Y-238466488D01*
X144402136Y-238633000D01*
X143519025Y-238633000D01*
X143197013Y-238310987D01*
X143197010Y-238310985D01*
X142689013Y-237802987D01*
X142483004Y-237665336D01*
X142240000Y-237617000D01*
X138617952Y-237617000D01*
X138617952Y-236786000D01*
X138582530Y-236597747D01*
X138471272Y-236424847D01*
X138339863Y-236335059D01*
X138501153Y-236231272D01*
X138617145Y-236061512D01*
X138657952Y-235860000D01*
X138657952Y-234960000D01*
X138622530Y-234771747D01*
X138511272Y-234598847D01*
X138341512Y-234482855D01*
X138140000Y-234442048D01*
X136940000Y-234442048D01*
X136751747Y-234477470D01*
X136578847Y-234588728D01*
X136462855Y-234758488D01*
X136459511Y-234775000D01*
X134580000Y-234775000D01*
X134559890Y-234779000D01*
X126609952Y-234779000D01*
X126609952Y-234764000D01*
X126590445Y-234660329D01*
X126609952Y-234564000D01*
X126609952Y-234264000D01*
X126590445Y-234160329D01*
X126609952Y-234064000D01*
X126609952Y-234061000D01*
X136330858Y-234061000D01*
X136331470Y-234064253D01*
X136442728Y-234237153D01*
X136612488Y-234353145D01*
X136814000Y-234393952D01*
X138014000Y-234393952D01*
X138202253Y-234358530D01*
X138375153Y-234247272D01*
X138491145Y-234077512D01*
X138513341Y-233967905D01*
X138531470Y-234064253D01*
X138531470Y-234064253D01*
G37*
X138531470Y-234064253D02*
X138642728Y-234237153D01*
X138812488Y-234353145D01*
X139014000Y-234393952D01*
X140214000Y-234393952D01*
X140402253Y-234358530D01*
X140575153Y-234247272D01*
X140659039Y-234124500D01*
X149824672Y-234124500D01*
X153479500Y-237779328D01*
X153479500Y-238120048D01*
X153178000Y-238120048D01*
X152989747Y-238155470D01*
X152816847Y-238266728D01*
X152700855Y-238436488D01*
X152660048Y-238638000D01*
X152660048Y-240469500D01*
X152258418Y-240469500D01*
X152241530Y-240379747D01*
X152130272Y-240206847D01*
X151960512Y-240090855D01*
X151759000Y-240050048D01*
X151009000Y-240050048D01*
X150820747Y-240085470D01*
X150647847Y-240196728D01*
X150531855Y-240366488D01*
X150510995Y-240469500D01*
X149210418Y-240469500D01*
X149193530Y-240379747D01*
X149088110Y-240215919D01*
X149188145Y-240069512D01*
X149228952Y-239868000D01*
X149228952Y-238668000D01*
X149193530Y-238479747D01*
X149082272Y-238306847D01*
X148912512Y-238190855D01*
X148711000Y-238150048D01*
X147961000Y-238150048D01*
X147772747Y-238185470D01*
X147599847Y-238296728D01*
X147483855Y-238466488D01*
X147450136Y-238633000D01*
X146174366Y-238633000D01*
X146145530Y-238479747D01*
X146034272Y-238306847D01*
X145864512Y-238190855D01*
X145663000Y-238150048D01*
X144913000Y-238150048D01*
X144724747Y-238185470D01*
X144551847Y-238296728D01*
X144435855Y-238466488D01*
X144402136Y-238633000D01*
X143519025Y-238633000D01*
X143197013Y-238310987D01*
X143197010Y-238310985D01*
X142689013Y-237802987D01*
X142483004Y-237665336D01*
X142240000Y-237617000D01*
X138617952Y-237617000D01*
X138617952Y-236786000D01*
X138582530Y-236597747D01*
X138471272Y-236424847D01*
X138339863Y-236335059D01*
X138501153Y-236231272D01*
X138617145Y-236061512D01*
X138657952Y-235860000D01*
X138657952Y-234960000D01*
X138622530Y-234771747D01*
X138511272Y-234598847D01*
X138341512Y-234482855D01*
X138140000Y-234442048D01*
X136940000Y-234442048D01*
X136751747Y-234477470D01*
X136578847Y-234588728D01*
X136462855Y-234758488D01*
X136459511Y-234775000D01*
X134580000Y-234775000D01*
X134559890Y-234779000D01*
X126609952Y-234779000D01*
X126609952Y-234764000D01*
X126590445Y-234660329D01*
X126609952Y-234564000D01*
X126609952Y-234264000D01*
X126590445Y-234160329D01*
X126609952Y-234064000D01*
X126609952Y-234061000D01*
X136330858Y-234061000D01*
X136331470Y-234064253D01*
X136442728Y-234237153D01*
X136612488Y-234353145D01*
X136814000Y-234393952D01*
X138014000Y-234393952D01*
X138202253Y-234358530D01*
X138375153Y-234247272D01*
X138491145Y-234077512D01*
X138513341Y-233967905D01*
X138531470Y-234064253D01*
G36*
X99302855Y-237421488D02*
X99262048Y-237623000D01*
X99262048Y-238373000D01*
X99297470Y-238561253D01*
X99408728Y-238734153D01*
X99578488Y-238850145D01*
X99760309Y-238886964D01*
X99793336Y-239053004D01*
X99930987Y-239259013D01*
X100388987Y-239717013D01*
X100594996Y-239854664D01*
X100838000Y-239903000D01*
X92211025Y-239903000D01*
X92075000Y-239766974D01*
X92075000Y-238769026D01*
X93481026Y-237363000D01*
X99342818Y-237363000D01*
X99302855Y-237421488D01*
X99302855Y-237421488D01*
G37*
X99302855Y-237421488D02*
X99262048Y-237623000D01*
X99262048Y-238373000D01*
X99297470Y-238561253D01*
X99408728Y-238734153D01*
X99578488Y-238850145D01*
X99760309Y-238886964D01*
X99793336Y-239053004D01*
X99930987Y-239259013D01*
X100388987Y-239717013D01*
X100594996Y-239854664D01*
X100838000Y-239903000D01*
X92211025Y-239903000D01*
X92075000Y-239766974D01*
X92075000Y-238769026D01*
X93481026Y-237363000D01*
X99342818Y-237363000D01*
X99302855Y-237421488D01*
G36*
X164662201Y-221897437D02*
X164662201Y-238575373D01*
X164468952Y-238382124D01*
X164468952Y-237652000D01*
X164433530Y-237463747D01*
X164322272Y-237290847D01*
X164152512Y-237174855D01*
X163951000Y-237134048D01*
X163201000Y-237134048D01*
X163012747Y-237169470D01*
X162839847Y-237280728D01*
X162723855Y-237450488D01*
X162692971Y-237603000D01*
X161995952Y-237603000D01*
X161995952Y-237488000D01*
X161960530Y-237299747D01*
X161849272Y-237126847D01*
X161679512Y-237010855D01*
X161478000Y-236970048D01*
X159478000Y-236970048D01*
X159289747Y-237005470D01*
X159116847Y-237116728D01*
X159000855Y-237286488D01*
X158960048Y-237488000D01*
X158960048Y-238988000D01*
X158995470Y-239176253D01*
X159106728Y-239349153D01*
X159162568Y-239387307D01*
X159116847Y-239416728D01*
X159000855Y-239586488D01*
X158960048Y-239788000D01*
X158960048Y-239839500D01*
X155695952Y-239839500D01*
X155695952Y-238638000D01*
X155660530Y-238449747D01*
X155549272Y-238276847D01*
X155379512Y-238160855D01*
X155178000Y-238120048D01*
X154876500Y-238120048D01*
X154876500Y-227367320D01*
X155075406Y-227168761D01*
X155236996Y-226779608D01*
X155237364Y-226358240D01*
X155076453Y-225968806D01*
X154778761Y-225670594D01*
X154389608Y-225509004D01*
X153968240Y-225508636D01*
X153578806Y-225669547D01*
X153280594Y-225967239D01*
X153119004Y-226356392D01*
X153118636Y-226777760D01*
X153279547Y-227167194D01*
X153479500Y-227367496D01*
X153479500Y-235803672D01*
X143749914Y-226074086D01*
X143523305Y-225922670D01*
X143256000Y-225869500D01*
X142435762Y-225869500D01*
X142363272Y-225756847D01*
X142193512Y-225640855D01*
X141992000Y-225600048D01*
X140792000Y-225600048D01*
X140603747Y-225635470D01*
X140430847Y-225746728D01*
X140314855Y-225916488D01*
X140292659Y-226026095D01*
X140274530Y-225929747D01*
X140163272Y-225756847D01*
X139993512Y-225640855D01*
X139792000Y-225600048D01*
X138592000Y-225600048D01*
X138403747Y-225635470D01*
X138230847Y-225746728D01*
X138114855Y-225916488D01*
X138111511Y-225933000D01*
X137644816Y-225933000D01*
X137401812Y-225981336D01*
X137195803Y-226118987D01*
X133035790Y-230279000D01*
X129840307Y-230279000D01*
X129885194Y-230260453D01*
X130183406Y-229962761D01*
X130344996Y-229573608D01*
X130345364Y-229152240D01*
X130184453Y-228762806D01*
X129886761Y-228464594D01*
X129497608Y-228303004D01*
X129076240Y-228302636D01*
X128686806Y-228463547D01*
X128422893Y-228727000D01*
X127009026Y-228727000D01*
X128279026Y-227457000D01*
X130921638Y-227457000D01*
X130986728Y-227558153D01*
X131156488Y-227674145D01*
X131237583Y-227690567D01*
X131055594Y-227872239D01*
X130894004Y-228261392D01*
X130893636Y-228682760D01*
X131054547Y-229072194D01*
X131352239Y-229370406D01*
X131741392Y-229531996D01*
X132162760Y-229532364D01*
X132552194Y-229371453D01*
X132850406Y-229073761D01*
X133011996Y-228684608D01*
X133012364Y-228263240D01*
X132851453Y-227873806D01*
X132671548Y-227693587D01*
X132746253Y-227679530D01*
X132919153Y-227568272D01*
X133035145Y-227398512D01*
X133075952Y-227197000D01*
X133075952Y-226447000D01*
X133040530Y-226258747D01*
X132929272Y-226085847D01*
X132759512Y-225969855D01*
X132558000Y-225929048D01*
X131358000Y-225929048D01*
X131169747Y-225964470D01*
X130996847Y-226075728D01*
X130920818Y-226187000D01*
X128016000Y-226187000D01*
X127772995Y-226235336D01*
X127566987Y-226372987D01*
X125741175Y-228198799D01*
X124059952Y-228198799D01*
X124059952Y-226714000D01*
X124027000Y-226538874D01*
X124027000Y-225243618D01*
X124353618Y-224917000D01*
X138120858Y-224917000D01*
X138121470Y-224920253D01*
X138232728Y-225093153D01*
X138402488Y-225209145D01*
X138604000Y-225249952D01*
X139804000Y-225249952D01*
X139992253Y-225214530D01*
X140165153Y-225103272D01*
X140281145Y-224933512D01*
X140321952Y-224732000D01*
X140321952Y-223832000D01*
X140286530Y-223643747D01*
X140175272Y-223470847D01*
X140005512Y-223354855D01*
X139804000Y-223314048D01*
X138604000Y-223314048D01*
X138415747Y-223349470D01*
X138242847Y-223460728D01*
X138126855Y-223630488D01*
X138123511Y-223647000D01*
X124977026Y-223647000D01*
X125607026Y-223017000D01*
X138163638Y-223017000D01*
X138228728Y-223118153D01*
X138398488Y-223234145D01*
X138600000Y-223274952D01*
X139800000Y-223274952D01*
X139988253Y-223239530D01*
X140161153Y-223128272D01*
X140277145Y-222958512D01*
X140317952Y-222757000D01*
X140317952Y-222007000D01*
X140282530Y-221818747D01*
X140171272Y-221645847D01*
X140001512Y-221529855D01*
X139800000Y-221489048D01*
X138600000Y-221489048D01*
X138411747Y-221524470D01*
X138238847Y-221635728D01*
X138162818Y-221747000D01*
X125344005Y-221747000D01*
X125344000Y-221746999D01*
X125100996Y-221795336D01*
X124894987Y-221932987D01*
X123487337Y-223340637D01*
X123487364Y-223310240D01*
X123326453Y-222920806D01*
X123028761Y-222622594D01*
X122639608Y-222461004D01*
X122218240Y-222460636D01*
X122027000Y-222539655D01*
X122027000Y-221909618D01*
X122626408Y-221310210D01*
X164074974Y-221310210D01*
X164662201Y-221897437D01*
X164662201Y-221897437D01*
G37*
X164662201Y-221897437D02*
X164662201Y-238575373D01*
X164468952Y-238382124D01*
X164468952Y-237652000D01*
X164433530Y-237463747D01*
X164322272Y-237290847D01*
X164152512Y-237174855D01*
X163951000Y-237134048D01*
X163201000Y-237134048D01*
X163012747Y-237169470D01*
X162839847Y-237280728D01*
X162723855Y-237450488D01*
X162692971Y-237603000D01*
X161995952Y-237603000D01*
X161995952Y-237488000D01*
X161960530Y-237299747D01*
X161849272Y-237126847D01*
X161679512Y-237010855D01*
X161478000Y-236970048D01*
X159478000Y-236970048D01*
X159289747Y-237005470D01*
X159116847Y-237116728D01*
X159000855Y-237286488D01*
X158960048Y-237488000D01*
X158960048Y-238988000D01*
X158995470Y-239176253D01*
X159106728Y-239349153D01*
X159162568Y-239387307D01*
X159116847Y-239416728D01*
X159000855Y-239586488D01*
X158960048Y-239788000D01*
X158960048Y-239839500D01*
X155695952Y-239839500D01*
X155695952Y-238638000D01*
X155660530Y-238449747D01*
X155549272Y-238276847D01*
X155379512Y-238160855D01*
X155178000Y-238120048D01*
X154876500Y-238120048D01*
X154876500Y-227367320D01*
X155075406Y-227168761D01*
X155236996Y-226779608D01*
X155237364Y-226358240D01*
X155076453Y-225968806D01*
X154778761Y-225670594D01*
X154389608Y-225509004D01*
X153968240Y-225508636D01*
X153578806Y-225669547D01*
X153280594Y-225967239D01*
X153119004Y-226356392D01*
X153118636Y-226777760D01*
X153279547Y-227167194D01*
X153479500Y-227367496D01*
X153479500Y-235803672D01*
X143749914Y-226074086D01*
X143523305Y-225922670D01*
X143256000Y-225869500D01*
X142435762Y-225869500D01*
X142363272Y-225756847D01*
X142193512Y-225640855D01*
X141992000Y-225600048D01*
X140792000Y-225600048D01*
X140603747Y-225635470D01*
X140430847Y-225746728D01*
X140314855Y-225916488D01*
X140292659Y-226026095D01*
X140274530Y-225929747D01*
X140163272Y-225756847D01*
X139993512Y-225640855D01*
X139792000Y-225600048D01*
X138592000Y-225600048D01*
X138403747Y-225635470D01*
X138230847Y-225746728D01*
X138114855Y-225916488D01*
X138111511Y-225933000D01*
X137644816Y-225933000D01*
X137401812Y-225981336D01*
X137195803Y-226118987D01*
X133035790Y-230279000D01*
X129840307Y-230279000D01*
X129885194Y-230260453D01*
X130183406Y-229962761D01*
X130344996Y-229573608D01*
X130345364Y-229152240D01*
X130184453Y-228762806D01*
X129886761Y-228464594D01*
X129497608Y-228303004D01*
X129076240Y-228302636D01*
X128686806Y-228463547D01*
X128422893Y-228727000D01*
X127009026Y-228727000D01*
X128279026Y-227457000D01*
X130921638Y-227457000D01*
X130986728Y-227558153D01*
X131156488Y-227674145D01*
X131237583Y-227690567D01*
X131055594Y-227872239D01*
X130894004Y-228261392D01*
X130893636Y-228682760D01*
X131054547Y-229072194D01*
X131352239Y-229370406D01*
X131741392Y-229531996D01*
X132162760Y-229532364D01*
X132552194Y-229371453D01*
X132850406Y-229073761D01*
X133011996Y-228684608D01*
X133012364Y-228263240D01*
X132851453Y-227873806D01*
X132671548Y-227693587D01*
X132746253Y-227679530D01*
X132919153Y-227568272D01*
X133035145Y-227398512D01*
X133075952Y-227197000D01*
X133075952Y-226447000D01*
X133040530Y-226258747D01*
X132929272Y-226085847D01*
X132759512Y-225969855D01*
X132558000Y-225929048D01*
X131358000Y-225929048D01*
X131169747Y-225964470D01*
X130996847Y-226075728D01*
X130920818Y-226187000D01*
X128016000Y-226187000D01*
X127772995Y-226235336D01*
X127566987Y-226372987D01*
X125741175Y-228198799D01*
X124059952Y-228198799D01*
X124059952Y-226714000D01*
X124027000Y-226538874D01*
X124027000Y-225243618D01*
X124353618Y-224917000D01*
X138120858Y-224917000D01*
X138121470Y-224920253D01*
X138232728Y-225093153D01*
X138402488Y-225209145D01*
X138604000Y-225249952D01*
X139804000Y-225249952D01*
X139992253Y-225214530D01*
X140165153Y-225103272D01*
X140281145Y-224933512D01*
X140321952Y-224732000D01*
X140321952Y-223832000D01*
X140286530Y-223643747D01*
X140175272Y-223470847D01*
X140005512Y-223354855D01*
X139804000Y-223314048D01*
X138604000Y-223314048D01*
X138415747Y-223349470D01*
X138242847Y-223460728D01*
X138126855Y-223630488D01*
X138123511Y-223647000D01*
X124977026Y-223647000D01*
X125607026Y-223017000D01*
X138163638Y-223017000D01*
X138228728Y-223118153D01*
X138398488Y-223234145D01*
X138600000Y-223274952D01*
X139800000Y-223274952D01*
X139988253Y-223239530D01*
X140161153Y-223128272D01*
X140277145Y-222958512D01*
X140317952Y-222757000D01*
X140317952Y-222007000D01*
X140282530Y-221818747D01*
X140171272Y-221645847D01*
X140001512Y-221529855D01*
X139800000Y-221489048D01*
X138600000Y-221489048D01*
X138411747Y-221524470D01*
X138238847Y-221635728D01*
X138162818Y-221747000D01*
X125344005Y-221747000D01*
X125344000Y-221746999D01*
X125100996Y-221795336D01*
X124894987Y-221932987D01*
X123487337Y-223340637D01*
X123487364Y-223310240D01*
X123326453Y-222920806D01*
X123028761Y-222622594D01*
X122639608Y-222461004D01*
X122218240Y-222460636D01*
X122027000Y-222539655D01*
X122027000Y-221909618D01*
X122626408Y-221310210D01*
X164074974Y-221310210D01*
X164662201Y-221897437D01*
G36*
X140309470Y-227206253D02*
X140420728Y-227379153D01*
X140590488Y-227495145D01*
X140792000Y-227535952D01*
X141992000Y-227535952D01*
X142180253Y-227500530D01*
X142353153Y-227389272D01*
X142437039Y-227266500D01*
X142966672Y-227266500D01*
X145633672Y-229933500D01*
X142521762Y-229933500D01*
X142449272Y-229820847D01*
X142279512Y-229704855D01*
X142078000Y-229664048D01*
X140878000Y-229664048D01*
X140689747Y-229699470D01*
X140516847Y-229810728D01*
X140400855Y-229980488D01*
X140378659Y-230090095D01*
X140360530Y-229993747D01*
X140249272Y-229820847D01*
X140079512Y-229704855D01*
X139878000Y-229664048D01*
X138678000Y-229664048D01*
X138489747Y-229699470D01*
X138316847Y-229810728D01*
X138200855Y-229980488D01*
X138197511Y-229997000D01*
X135760433Y-229997000D01*
X136522433Y-229235000D01*
X138108858Y-229235000D01*
X138109470Y-229238253D01*
X138220728Y-229411153D01*
X138390488Y-229527145D01*
X138592000Y-229567952D01*
X139792000Y-229567952D01*
X139980253Y-229532530D01*
X140153153Y-229421272D01*
X140269145Y-229251512D01*
X140309952Y-229050000D01*
X140309952Y-228150000D01*
X140274530Y-227961747D01*
X140163272Y-227788847D01*
X139993512Y-227672855D01*
X139792000Y-227632048D01*
X138592000Y-227632048D01*
X138403747Y-227667470D01*
X138230847Y-227778728D01*
X138114855Y-227948488D01*
X138111511Y-227965000D01*
X137145842Y-227965000D01*
X137907842Y-227203000D01*
X138108858Y-227203000D01*
X138109470Y-227206253D01*
X138220728Y-227379153D01*
X138390488Y-227495145D01*
X138592000Y-227535952D01*
X139792000Y-227535952D01*
X139980253Y-227500530D01*
X140153153Y-227389272D01*
X140269145Y-227219512D01*
X140291341Y-227109905D01*
X140309470Y-227206253D01*
X140309470Y-227206253D01*
G37*
X140309470Y-227206253D02*
X140420728Y-227379153D01*
X140590488Y-227495145D01*
X140792000Y-227535952D01*
X141992000Y-227535952D01*
X142180253Y-227500530D01*
X142353153Y-227389272D01*
X142437039Y-227266500D01*
X142966672Y-227266500D01*
X145633672Y-229933500D01*
X142521762Y-229933500D01*
X142449272Y-229820847D01*
X142279512Y-229704855D01*
X142078000Y-229664048D01*
X140878000Y-229664048D01*
X140689747Y-229699470D01*
X140516847Y-229810728D01*
X140400855Y-229980488D01*
X140378659Y-230090095D01*
X140360530Y-229993747D01*
X140249272Y-229820847D01*
X140079512Y-229704855D01*
X139878000Y-229664048D01*
X138678000Y-229664048D01*
X138489747Y-229699470D01*
X138316847Y-229810728D01*
X138200855Y-229980488D01*
X138197511Y-229997000D01*
X135760433Y-229997000D01*
X136522433Y-229235000D01*
X138108858Y-229235000D01*
X138109470Y-229238253D01*
X138220728Y-229411153D01*
X138390488Y-229527145D01*
X138592000Y-229567952D01*
X139792000Y-229567952D01*
X139980253Y-229532530D01*
X140153153Y-229421272D01*
X140269145Y-229251512D01*
X140309952Y-229050000D01*
X140309952Y-228150000D01*
X140274530Y-227961747D01*
X140163272Y-227788847D01*
X139993512Y-227672855D01*
X139792000Y-227632048D01*
X138592000Y-227632048D01*
X138403747Y-227667470D01*
X138230847Y-227778728D01*
X138114855Y-227948488D01*
X138111511Y-227965000D01*
X137145842Y-227965000D01*
X137907842Y-227203000D01*
X138108858Y-227203000D01*
X138109470Y-227206253D01*
X138220728Y-227379153D01*
X138390488Y-227495145D01*
X138592000Y-227535952D01*
X139792000Y-227535952D01*
X139980253Y-227500530D01*
X140153153Y-227389272D01*
X140269145Y-227219512D01*
X140291341Y-227109905D01*
X140309470Y-227206253D01*
M02*
