G04 #@! TF.FileFunction,Soldermask,Top*
%FSLAX46Y46*%
G04 Gerber Fmt 4.6, Leading zero omitted, Abs format (unit mm)*
G04 Created by KiCad (PCBNEW 4.0.7) date 02/03/18 00:33:44*
%MOMM*%
%LPD*%
G01*
G04 APERTURE LIST*
%ADD10C,0.100000*%
%ADD11R,1.600000X1.300000*%
%ADD12R,2.127200X2.127200*%
%ADD13O,2.127200X2.127200*%
%ADD14C,3.400000*%
%ADD15R,0.900000X2.700000*%
%ADD16R,2.400000X2.900000*%
%ADD17C,1.300000*%
%ADD18C,1.598880*%
%ADD19R,1.598880X1.598880*%
%ADD20C,3.956000*%
%ADD21R,1.600000X1.150000*%
%ADD22R,1.150000X1.600000*%
%ADD23R,2.100000X2.100000*%
%ADD24O,2.100000X2.100000*%
%ADD25R,2.178000X2.686000*%
%ADD26R,1.900000X1.650000*%
%ADD27R,1.300000X1.600000*%
%ADD28R,2.400000X4.200000*%
%ADD29R,2.400000X1.900000*%
%ADD30R,1.960000X1.050000*%
%ADD31R,3.725000X2.800000*%
%ADD32R,1.300000X1.200000*%
%ADD33R,1.900000X0.700000*%
%ADD34R,0.700000X1.900000*%
%ADD35R,4.400000X4.400000*%
G04 APERTURE END LIST*
D10*
D11*
X146220000Y-3810000D03*
X148420000Y-3810000D03*
D12*
X157734000Y-120650000D03*
D13*
X160274000Y-120650000D03*
X157734000Y-123190000D03*
X160274000Y-123190000D03*
X157734000Y-125730000D03*
X160274000Y-125730000D03*
X157734000Y-128270000D03*
X160274000Y-128270000D03*
D14*
X81178400Y12649200D03*
X161391600Y12700000D03*
X81178400Y-208280000D03*
D15*
X155966000Y-253432000D03*
X156766000Y-253432000D03*
X157566000Y-253432000D03*
X158366000Y-253432000D03*
X159166000Y-253432000D03*
D16*
X153116000Y-253532000D03*
X153116000Y-259032000D03*
X162016000Y-253532000D03*
X162016000Y-259032000D03*
D17*
X155366000Y-256032000D03*
X159766000Y-256032000D03*
D11*
X139868000Y-241300000D03*
X137668000Y-241300000D03*
D18*
X138125200Y-201241660D03*
X136123680Y-202242420D03*
X138125200Y-203240640D03*
X136123680Y-204241400D03*
X138125200Y-205242160D03*
X136123680Y-206240380D03*
X138125200Y-207241140D03*
X133624320Y-202242420D03*
X133624320Y-204241400D03*
X133624320Y-206240380D03*
X131622800Y-201241660D03*
X131622800Y-203240640D03*
X131622800Y-205242160D03*
X131622800Y-207241140D03*
X136123680Y-198241920D03*
X136123680Y-196240400D03*
X136123680Y-194241420D03*
X136123680Y-192242440D03*
X136123680Y-190240920D03*
X136123680Y-188241940D03*
X138125200Y-189242700D03*
X138125200Y-191241680D03*
X138125200Y-193240660D03*
X138125200Y-195242180D03*
X138125200Y-197241160D03*
X133624320Y-188241940D03*
X131622800Y-189242700D03*
X133624320Y-190240920D03*
X131622800Y-191241680D03*
X133624320Y-192242440D03*
X131622800Y-193240660D03*
X133624320Y-194241420D03*
X131622800Y-195242180D03*
X133624320Y-196240400D03*
X131622800Y-197241160D03*
X133624320Y-198241920D03*
X88168480Y-101902260D03*
X90170000Y-100901500D03*
X88168480Y-99903280D03*
X90170000Y-98902520D03*
X88168480Y-97901760D03*
X90170000Y-96903540D03*
X88168480Y-95902780D03*
X92669360Y-100901500D03*
X92669360Y-98902520D03*
X92669360Y-96903540D03*
X94670880Y-101902260D03*
X94670880Y-99903280D03*
X94670880Y-97901760D03*
X94670880Y-95902780D03*
X90170000Y-104902000D03*
X90170000Y-106903520D03*
X90170000Y-108902500D03*
X90170000Y-110901480D03*
X90170000Y-112903000D03*
D19*
X90170000Y-114901980D03*
D18*
X88168480Y-113901220D03*
X88168480Y-111902240D03*
X88168480Y-109903260D03*
X88168480Y-107901740D03*
X88168480Y-105902760D03*
X92669360Y-114901980D03*
X94670880Y-113901220D03*
X92669360Y-112903000D03*
X94670880Y-111902240D03*
X92669360Y-110901480D03*
X94670880Y-109903260D03*
X92669360Y-108902500D03*
X94670880Y-107901740D03*
X92669360Y-106903520D03*
X94670880Y-105902760D03*
X92669360Y-104902000D03*
X92669360Y-94902020D03*
X94670880Y-93901260D03*
X92669360Y-92903040D03*
X94670880Y-91902280D03*
X92669360Y-90901520D03*
X94670880Y-89903300D03*
X92669360Y-88902540D03*
X94670880Y-87901780D03*
X92669360Y-86903560D03*
X94670880Y-85902800D03*
X92669360Y-84902040D03*
X94670880Y-83901280D03*
X92669360Y-82903060D03*
X94670880Y-81902300D03*
X90170000Y-94902020D03*
X88168480Y-93901260D03*
X90170000Y-92903040D03*
X88168480Y-91902280D03*
X90170000Y-90901520D03*
X88168480Y-89903300D03*
X90170000Y-88902540D03*
X88168480Y-87901780D03*
X90170000Y-86903560D03*
X88168480Y-85902800D03*
X90170000Y-84902040D03*
X88168480Y-83901280D03*
X90170000Y-82903060D03*
X88168480Y-81902300D03*
X92669360Y-80901540D03*
X94670880Y-79903320D03*
X92669360Y-78902560D03*
X94670880Y-77901800D03*
X92669360Y-76903580D03*
X94670880Y-75902820D03*
X92669360Y-74902060D03*
X94670880Y-73901300D03*
X92669360Y-72903080D03*
X94670880Y-71902320D03*
X92669360Y-70901560D03*
X94670880Y-69903340D03*
X92669360Y-68902580D03*
X94670880Y-67901820D03*
X92669360Y-66903600D03*
X94670880Y-65902840D03*
X92669360Y-64902080D03*
X90170000Y-80901540D03*
X88168480Y-79903320D03*
X90170000Y-78902560D03*
X88168480Y-77901800D03*
X90170000Y-76903580D03*
X88168480Y-75902820D03*
X90170000Y-74902060D03*
X88168480Y-73901300D03*
X90170000Y-72903080D03*
X88168480Y-71902320D03*
X90170000Y-70901560D03*
X88168480Y-69903340D03*
X90170000Y-68902580D03*
X88168480Y-67901820D03*
X90170000Y-66903600D03*
X88168480Y-65902840D03*
X90170000Y-64902080D03*
X94670880Y-63901320D03*
X92669360Y-62903100D03*
X94670880Y-61902340D03*
X92669360Y-60901580D03*
X94670880Y-59903360D03*
X92669360Y-58902600D03*
X94670880Y-57901840D03*
X92669360Y-56903620D03*
X94670880Y-55902860D03*
X92669360Y-54902100D03*
X94670880Y-53901340D03*
X92669360Y-52903120D03*
X94670880Y-51902360D03*
X92669360Y-50901600D03*
X94670880Y-49903380D03*
X92669360Y-48902620D03*
X94670880Y-47901860D03*
X92669360Y-46903640D03*
X94670880Y-45902880D03*
X92669360Y-44902120D03*
X94670880Y-43901360D03*
X92669360Y-42903140D03*
X94670880Y-41902380D03*
X92669360Y-40901620D03*
X94670880Y-39903400D03*
X92669360Y-38902640D03*
X94670880Y-37901880D03*
X92669360Y-36901120D03*
X94670880Y-35902900D03*
X92669360Y-34902140D03*
X94670880Y-33901380D03*
X92669360Y-32903160D03*
X94670880Y-31902400D03*
X88168480Y-63901320D03*
X90170000Y-62903100D03*
X88168480Y-61902340D03*
X90170000Y-60901580D03*
X88168480Y-59903360D03*
X90170000Y-58902600D03*
X88168480Y-57901840D03*
X90170000Y-56903620D03*
X88168480Y-55902860D03*
X90170000Y-54902100D03*
X88168480Y-53901340D03*
X90170000Y-52903120D03*
X88168480Y-51902360D03*
X90170000Y-50901600D03*
X88168480Y-49903380D03*
X90170000Y-48902620D03*
X88168480Y-47901860D03*
X90170000Y-46903640D03*
X88168480Y-45902880D03*
X90170000Y-44902120D03*
X88168480Y-43901360D03*
X90170000Y-42903140D03*
X88168480Y-41902380D03*
X90170000Y-40901620D03*
X88168480Y-39903400D03*
X90170000Y-38902640D03*
X88168480Y-37901880D03*
X90170000Y-36901120D03*
X88168480Y-35902900D03*
X90170000Y-34902140D03*
X88168480Y-33901380D03*
X90170000Y-32903160D03*
X88168480Y-31902400D03*
D20*
X151892000Y-72136000D03*
X151892000Y-67005200D03*
D14*
X97884000Y-257306000D03*
X81440000Y-122542000D03*
X126840000Y1318000D03*
D21*
X142160000Y-251690000D03*
X144060000Y-251690000D03*
D22*
X163576000Y-238252000D03*
X163576000Y-240152000D03*
D21*
X109474000Y-212344000D03*
X111374000Y-212344000D03*
X107310000Y-220726000D03*
X105410000Y-220726000D03*
X116962000Y-212344000D03*
X115062000Y-212344000D03*
X131958000Y-226822000D03*
X133858000Y-226822000D03*
X137546000Y-239268000D03*
X139446000Y-239268000D03*
X139200000Y-222382000D03*
X141100000Y-222382000D03*
X100380000Y-237998000D03*
X98480000Y-237998000D03*
D22*
X151384000Y-241168000D03*
X151384000Y-239268000D03*
X145288000Y-239268000D03*
X145288000Y-241168000D03*
X122890000Y-249503528D03*
X122890000Y-251403528D03*
X97944000Y-245568000D03*
X97944000Y-247468000D03*
X121390000Y-249520000D03*
X121390000Y-251420000D03*
X117890000Y-249550000D03*
X117890000Y-251450000D03*
D21*
X100380000Y-235420000D03*
X98480000Y-235420000D03*
D22*
X119380000Y-215834000D03*
X119380000Y-213934000D03*
D21*
X100330000Y-231394000D03*
X98430000Y-231394000D03*
D22*
X122428000Y-215768000D03*
X122428000Y-213868000D03*
X106149000Y-245568000D03*
X106149000Y-243668000D03*
D21*
X119882000Y-195052000D03*
X117982000Y-195052000D03*
D22*
X113233267Y-243661749D03*
X113233267Y-245561749D03*
D21*
X84958000Y-108204000D03*
X83058000Y-108204000D03*
X144592000Y-96520000D03*
X146492000Y-96520000D03*
D23*
X161798000Y-97028000D03*
D24*
X161798000Y-99568000D03*
X161798000Y-102108000D03*
D23*
X161798000Y-108458000D03*
D24*
X161798000Y-110998000D03*
X161798000Y-113538000D03*
D25*
X157988000Y-92202000D03*
X160528000Y-92202000D03*
X163068000Y-92202000D03*
X163068000Y-79502000D03*
X160528000Y-79502000D03*
X157988000Y-79502000D03*
D21*
X119832000Y-191052000D03*
X117932000Y-191052000D03*
X83148000Y-110662000D03*
X85048000Y-110662000D03*
D26*
X144044724Y-90868200D03*
X146544724Y-90868200D03*
D22*
X148336000Y-239268000D03*
X148336000Y-241168000D03*
X110164000Y-243668000D03*
X110164000Y-245568000D03*
D20*
X160782000Y-72136000D03*
X160782000Y-67005200D03*
X151892000Y-46736000D03*
X151892000Y-41605200D03*
X151892000Y-59182000D03*
X151892000Y-54051200D03*
X160782000Y-59182000D03*
X160782000Y-54051200D03*
X160782000Y-46736000D03*
X160782000Y-41605200D03*
D11*
X139954000Y-255270000D03*
X142154000Y-255270000D03*
X139614000Y-233426000D03*
X137414000Y-233426000D03*
X141478000Y-230632000D03*
X139278000Y-230632000D03*
X141392000Y-226568000D03*
X139192000Y-226568000D03*
X139954000Y-259588000D03*
X137754000Y-259588000D03*
X117400000Y-219700000D03*
X115200000Y-219700000D03*
X139192000Y-228600000D03*
X141392000Y-228600000D03*
X139204000Y-224282000D03*
X141404000Y-224282000D03*
X107442000Y-223012000D03*
X105242000Y-223012000D03*
X139740000Y-235410000D03*
X137540000Y-235410000D03*
X139700000Y-237236000D03*
X137500000Y-237236000D03*
D27*
X125984000Y-251628000D03*
X125984000Y-249428000D03*
D28*
X154178000Y-240538000D03*
D29*
X160478000Y-240538000D03*
X160478000Y-238238000D03*
X160478000Y-242838000D03*
D30*
X100564000Y-245568000D03*
X100564000Y-246518000D03*
X100564000Y-247468000D03*
X103264000Y-247468000D03*
X103264000Y-245568000D03*
D31*
X110744000Y-216154000D03*
X116269000Y-216154000D03*
D14*
X98632001Y-157020000D03*
D11*
X161460000Y-19050000D03*
X163660000Y-19050000D03*
X161460000Y0D03*
X163660000Y0D03*
X161460000Y-11430000D03*
X163660000Y-11430000D03*
X161460000Y-22860000D03*
X163660000Y-22860000D03*
X161460000Y-3810000D03*
X163660000Y-3810000D03*
X161460000Y-15240000D03*
X163660000Y-15240000D03*
X161460000Y-7620000D03*
X163660000Y-7620000D03*
X146220000Y-19050000D03*
X148420000Y-19050000D03*
X146220000Y0D03*
X148420000Y0D03*
X146220000Y-11430000D03*
X148420000Y-11430000D03*
X146220000Y-22860000D03*
X148420000Y-22860000D03*
X146220000Y-15240000D03*
X148420000Y-15240000D03*
X146220000Y-7620000D03*
X148420000Y-7620000D03*
X161460000Y-26670000D03*
X163660000Y-26670000D03*
X148420000Y-26670000D03*
X146220000Y-26670000D03*
X146120000Y-33400000D03*
X148320000Y-33400000D03*
D14*
X161391600Y-208280000D03*
D32*
X147558000Y-30922000D03*
X147558000Y-29022000D03*
X145558000Y-29972000D03*
D33*
X125342000Y-236914000D03*
X125342000Y-236414000D03*
X125342000Y-235914000D03*
X125342000Y-235414000D03*
X125342000Y-234914000D03*
X125342000Y-234414000D03*
X125342000Y-233914000D03*
X125342000Y-233414000D03*
X125342000Y-232914000D03*
X125342000Y-232414000D03*
X125342000Y-231914000D03*
X125342000Y-231414000D03*
X125342000Y-230914000D03*
X125342000Y-230414000D03*
X125342000Y-229914000D03*
X125342000Y-229414000D03*
D34*
X123392000Y-227464000D03*
X122892000Y-227464000D03*
X122392000Y-227464000D03*
X121892000Y-227464000D03*
X121392000Y-227464000D03*
X120892000Y-227464000D03*
X120392000Y-227464000D03*
X119892000Y-227464000D03*
X119392000Y-227464000D03*
X118892000Y-227464000D03*
X118392000Y-227464000D03*
X117892000Y-227464000D03*
X117392000Y-227464000D03*
X116892000Y-227464000D03*
X116392000Y-227464000D03*
X115892000Y-227464000D03*
D33*
X113942000Y-229414000D03*
X113942000Y-229914000D03*
X113942000Y-230414000D03*
X113942000Y-230914000D03*
X113942000Y-231414000D03*
X113942000Y-231914000D03*
X113942000Y-232414000D03*
X113942000Y-232914000D03*
X113942000Y-233414000D03*
X113942000Y-233914000D03*
X113942000Y-234414000D03*
X113942000Y-234914000D03*
X113942000Y-235414000D03*
X113942000Y-235914000D03*
X113942000Y-236414000D03*
X113942000Y-236914000D03*
D34*
X115892000Y-238864000D03*
X116392000Y-238864000D03*
X116892000Y-238864000D03*
X117392000Y-238864000D03*
X117892000Y-238864000D03*
X118392000Y-238864000D03*
X118892000Y-238864000D03*
X119392000Y-238864000D03*
X119892000Y-238864000D03*
X120392000Y-238864000D03*
X120892000Y-238864000D03*
X121392000Y-238864000D03*
X121892000Y-238864000D03*
X122392000Y-238864000D03*
X122892000Y-238864000D03*
X123392000Y-238864000D03*
D35*
X119642000Y-233164000D03*
M02*
