M48
;DRILL file {KiCad 4.0.7} date 02/03/18 00:33:46
;FORMAT={-:-/ absolute / inch / decimal}
FMAT,2
INCH,TZ
T1C0.016
T2C0.024
T3C0.032
T4C0.039
T5C0.040
T6C0.043
T7C0.100
T8C0.104
%
G90
G05
M72
T1
X4.5725Y-9.0419
X4.5725Y-9.0813
X4.5725Y-9.1206
X4.5725Y-9.16
X4.5725Y-9.1994
X4.5725Y-9.2387
X4.5725Y-9.2781
X4.5725Y-9.3175
X4.6119Y-9.0419
X4.6119Y-9.0813
X4.6119Y-9.1206
X4.6119Y-9.16
X4.6119Y-9.1994
X4.6119Y-9.2387
X4.6119Y-9.2781
X4.6119Y-9.3175
X4.6513Y-9.0419
X4.6513Y-9.0813
X4.6513Y-9.1206
X4.6513Y-9.16
X4.6513Y-9.1994
X4.6513Y-9.2387
X4.6513Y-9.2781
X4.6513Y-9.3175
X4.6906Y-9.0419
X4.6906Y-9.0813
X4.6906Y-9.1206
X4.6906Y-9.16
X4.6906Y-9.1994
X4.6906Y-9.2387
X4.6906Y-9.2781
X4.6906Y-9.3175
X4.73Y-9.0419
X4.73Y-9.0813
X4.73Y-9.1206
X4.73Y-9.16
X4.73Y-9.1994
X4.73Y-9.2387
X4.73Y-9.2781
X4.73Y-9.3175
X4.7694Y-9.0419
X4.7694Y-9.0813
X4.7694Y-9.1206
X4.7694Y-9.16
X4.7694Y-9.1994
X4.7694Y-9.2387
X4.7694Y-9.2781
X4.7694Y-9.3175
X4.8087Y-9.0419
X4.8087Y-9.0813
X4.8087Y-9.1206
X4.8087Y-9.16
X4.8087Y-9.1994
X4.8087Y-9.2387
X4.8087Y-9.2781
X4.8087Y-9.3175
X4.8481Y-9.0419
X4.8481Y-9.0813
X4.8481Y-9.1206
X4.8481Y-9.16
X4.8481Y-9.1994
X4.8481Y-9.2387
X4.8481Y-9.2781
X4.8481Y-9.3175
T2
X3.27Y-4.09
X3.53Y-8.92
X3.53Y-9.
X3.58Y-9.21
X3.67Y-4.78
X3.7Y-9.6
X3.72Y-8.7
X3.72Y-9.07
X3.752Y-9.27
X3.792Y-9.414
X3.8Y-7.6
X3.8Y-8.92
X3.8Y-9.
X3.89Y-4.2
X4.08Y-8.88
X4.1Y-4.2
X4.13Y-4.47
X4.2Y-7.6
X4.22Y-9.42
X4.48Y-7.78
X4.492Y-4.47
X4.6Y-3.7
X4.6Y-4.2
X4.7Y-5.
X4.82Y-8.59
X4.82Y-8.8
X4.85Y-1.6
X4.85Y-2.6
X4.89Y-4.2
X4.97Y-6.99
X4.97Y-7.41
X5.Y-1.6
X5.Y-2.9
X5.09Y-9.03
X5.1Y-3.9
X5.1Y-6.89
X5.12Y-9.41
X5.195Y-8.995
X5.2Y-1.4
X5.2Y-3.2
X5.3Y-3.2
X5.3Y-3.6
X5.3Y-3.8
X5.3Y-5.
X5.3Y-10.
X5.364Y-4.472
X5.4Y-4.6
X5.49Y-1.44
X5.5Y-1.33
X5.5Y-9.604
X5.55Y-9.71
X5.65Y-0.299
X5.65Y-0.75
X5.65Y-9.018
X5.652Y-8.838
X5.659Y0.
X5.676Y-9.316
X5.8Y-3.89
X5.88Y-3.97
X5.88Y-4.19
X5.94Y-1.14
X6.038Y-4.02
X6.064Y-7.828
X6.07Y-7.016
X6.07Y-8.92
X6.14Y-9.67
X6.226Y-3.752
X6.28Y-10.2
X6.4Y-9.7
X6.43Y-4.87
X6.443Y-0.069
X6.443Y-0.217
X6.443Y-0.531
X6.443Y-0.674
X6.47Y-1.59
T3
X3.4712Y-1.256
X3.4712Y-1.3347
X3.4712Y-1.4135
X3.4712Y-1.4922
X3.4712Y-1.571
X3.4712Y-1.6497
X3.4712Y-1.7284
X3.4712Y-1.8072
X3.4712Y-1.8859
X3.4712Y-1.9647
X3.4712Y-2.0434
X3.4712Y-2.1221
X3.4712Y-2.2009
X3.4712Y-2.2796
X3.4712Y-2.3584
X3.4712Y-2.4371
X3.4712Y-2.5158
X3.4712Y-2.5946
X3.4712Y-2.6733
X3.4712Y-2.7521
X3.4712Y-2.8308
X3.4712Y-2.9095
X3.4712Y-2.9883
X3.4712Y-3.067
X3.4712Y-3.1458
X3.4712Y-3.2245
X3.4712Y-3.3032
X3.4712Y-3.382
X3.4712Y-3.4607
X3.4712Y-3.5395
X3.4712Y-3.6182
X3.4712Y-3.6969
X3.4712Y-3.7757
X3.4712Y-3.8544
X3.4712Y-3.9332
X3.4712Y-4.0119
X3.4712Y-4.1694
X3.4712Y-4.2481
X3.4712Y-4.3269
X3.4712Y-4.4056
X3.4712Y-4.4843
X3.55Y-1.2954
X3.55Y-1.3741
X3.55Y-1.4528
X3.55Y-1.5316
X3.55Y-1.6103
X3.55Y-1.6891
X3.55Y-1.7678
X3.55Y-1.8466
X3.55Y-1.9253
X3.55Y-2.004
X3.55Y-2.0828
X3.55Y-2.1615
X3.55Y-2.2403
X3.55Y-2.319
X3.55Y-2.3977
X3.55Y-2.4765
X3.55Y-2.5552
X3.55Y-2.634
X3.55Y-2.7127
X3.55Y-2.7914
X3.55Y-2.8702
X3.55Y-2.9489
X3.55Y-3.0277
X3.55Y-3.1064
X3.55Y-3.1851
X3.55Y-3.2639
X3.55Y-3.3426
X3.55Y-3.4214
X3.55Y-3.5001
X3.55Y-3.5788
X3.55Y-3.6576
X3.55Y-3.7363
X3.55Y-3.8151
X3.55Y-3.8938
X3.55Y-3.9725
X3.55Y-4.13
X3.55Y-4.2088
X3.55Y-4.2875
X3.55Y-4.3662
X3.55Y-4.445
X3.55Y-4.5237
X3.6484Y-1.2954
X3.6484Y-1.3741
X3.6484Y-1.4528
X3.6484Y-1.5316
X3.6484Y-1.6103
X3.6484Y-1.6891
X3.6484Y-1.7678
X3.6484Y-1.8466
X3.6484Y-1.9253
X3.6484Y-2.004
X3.6484Y-2.0828
X3.6484Y-2.1615
X3.6484Y-2.2403
X3.6484Y-2.319
X3.6484Y-2.3977
X3.6484Y-2.4765
X3.6484Y-2.5552
X3.6484Y-2.634
X3.6484Y-2.7127
X3.6484Y-2.7914
X3.6484Y-2.8702
X3.6484Y-2.9489
X3.6484Y-3.0277
X3.6484Y-3.1064
X3.6484Y-3.1851
X3.6484Y-3.2639
X3.6484Y-3.3426
X3.6484Y-3.4214
X3.6484Y-3.5001
X3.6484Y-3.5788
X3.6484Y-3.6576
X3.6484Y-3.7363
X3.6484Y-3.8151
X3.6484Y-3.8938
X3.6484Y-3.9725
X3.6484Y-4.13
X3.6484Y-4.2088
X3.6484Y-4.2875
X3.6484Y-4.3662
X3.6484Y-4.445
X3.6484Y-4.5237
X3.7272Y-1.256
X3.7272Y-1.3347
X3.7272Y-1.4135
X3.7272Y-1.4922
X3.7272Y-1.571
X3.7272Y-1.6497
X3.7272Y-1.7284
X3.7272Y-1.8072
X3.7272Y-1.8859
X3.7272Y-1.9647
X3.7272Y-2.0434
X3.7272Y-2.1221
X3.7272Y-2.2009
X3.7272Y-2.2796
X3.7272Y-2.3584
X3.7272Y-2.4371
X3.7272Y-2.5158
X3.7272Y-2.5946
X3.7272Y-2.6733
X3.7272Y-2.7521
X3.7272Y-2.8308
X3.7272Y-2.9095
X3.7272Y-2.9883
X3.7272Y-3.067
X3.7272Y-3.1458
X3.7272Y-3.2245
X3.7272Y-3.3032
X3.7272Y-3.382
X3.7272Y-3.4607
X3.7272Y-3.5395
X3.7272Y-3.6182
X3.7272Y-3.6969
X3.7272Y-3.7757
X3.7272Y-3.8544
X3.7272Y-3.9332
X3.7272Y-4.0119
X3.7272Y-4.1694
X3.7272Y-4.2481
X3.7272Y-4.3269
X3.7272Y-4.4056
X3.7272Y-4.4843
X5.182Y-7.4505
X5.182Y-7.5292
X5.182Y-7.6079
X5.182Y-7.6867
X5.182Y-7.7654
X5.182Y-7.9229
X5.182Y-8.0016
X5.182Y-8.0804
X5.182Y-8.1591
X5.2608Y-7.4111
X5.2608Y-7.4898
X5.2608Y-7.5686
X5.2608Y-7.6473
X5.2608Y-7.726
X5.2608Y-7.8048
X5.2608Y-7.9623
X5.2608Y-8.041
X5.2608Y-8.1197
X5.3592Y-7.4111
X5.3592Y-7.4898
X5.3592Y-7.5686
X5.3592Y-7.6473
X5.3592Y-7.726
X5.3592Y-7.8048
X5.3592Y-7.9623
X5.3592Y-8.041
X5.3592Y-8.1197
X5.438Y-7.4505
X5.438Y-7.5292
X5.438Y-7.6079
X5.438Y-7.6867
X5.438Y-7.7654
X5.438Y-7.9229
X5.438Y-8.0016
X5.438Y-8.0804
X5.438Y-8.1591
T4
X6.37Y-3.82
X6.37Y-3.92
X6.37Y-4.02
X6.37Y-4.27
X6.37Y-4.37
X6.37Y-4.47
T5
X6.21Y-4.75
X6.21Y-4.85
X6.21Y-4.95
X6.21Y-5.05
X6.31Y-4.75
X6.31Y-4.85
X6.31Y-4.95
X6.31Y-5.05
T6
X6.22Y-3.13
X6.22Y-3.63
X6.32Y-3.13
X6.32Y-3.63
X6.42Y-3.13
X6.42Y-3.63
T7
X5.98Y-1.84
X5.98Y-2.33
X5.98Y-2.84
X6.33Y-1.84
X6.33Y-2.33
X6.33Y-2.84
T8
X5.98Y-1.638
X5.98Y-2.128
X5.98Y-2.638
X6.33Y-1.638
X6.33Y-2.128
X6.33Y-2.638
T0
M30
