G04 #@! TF.FileFunction,Legend,Top*
%FSLAX46Y46*%
G04 Gerber Fmt 4.6, Leading zero omitted, Abs format (unit mm)*
G04 Created by KiCad (PCBNEW 4.0.7) date 02/02/18 15:52:00*
%MOMM*%
%LPD*%
G01*
G04 APERTURE LIST*
%ADD10C,0.100000*%
%ADD11C,0.300000*%
%ADD12C,0.250000*%
%ADD13C,0.254000*%
%ADD14C,0.200000*%
%ADD15C,0.120000*%
%ADD16C,0.150000*%
%ADD17C,0.304800*%
%ADD18R,1.600000X1.300000*%
%ADD19R,1.900000X0.700000*%
%ADD20R,0.700000X1.900000*%
%ADD21R,4.400000X4.400000*%
%ADD22R,2.127200X2.127200*%
%ADD23O,2.127200X2.127200*%
%ADD24C,3.400000*%
%ADD25R,0.900000X2.700000*%
%ADD26R,2.400000X2.900000*%
%ADD27C,1.300000*%
%ADD28C,1.598880*%
%ADD29R,1.598880X1.598880*%
%ADD30C,3.956000*%
%ADD31R,1.600000X1.150000*%
%ADD32R,1.150000X1.600000*%
%ADD33R,2.100000X2.100000*%
%ADD34O,2.100000X2.100000*%
%ADD35R,2.178000X2.686000*%
%ADD36R,1.900000X1.650000*%
%ADD37R,1.300000X1.600000*%
%ADD38R,2.400000X4.200000*%
%ADD39R,2.400000X1.900000*%
%ADD40R,1.960000X1.050000*%
%ADD41R,3.725000X2.800000*%
%ADD42R,1.300000X1.200000*%
G04 APERTURE END LIST*
D10*
D11*
X115080402Y20689229D02*
X116080402Y20689229D01*
X115080402Y19189229D01*
X116080402Y19189229D01*
X116651830Y19974943D02*
X117151830Y19974943D01*
X117366116Y19189229D02*
X116651830Y19189229D01*
X116651830Y20689229D01*
X117366116Y20689229D01*
X117937544Y19617800D02*
X118651830Y19617800D01*
X117794687Y19189229D02*
X118294687Y20689229D01*
X118794687Y19189229D01*
X119794687Y19974943D02*
X120008973Y19903514D01*
X120080401Y19832086D01*
X120151830Y19689229D01*
X120151830Y19474943D01*
X120080401Y19332086D01*
X120008973Y19260657D01*
X119866115Y19189229D01*
X119294687Y19189229D01*
X119294687Y20689229D01*
X119794687Y20689229D01*
X119937544Y20617800D01*
X120008973Y20546371D01*
X120080401Y20403514D01*
X120080401Y20260657D01*
X120008973Y20117800D01*
X119937544Y20046371D01*
X119794687Y19974943D01*
X119294687Y19974943D01*
X120794687Y20689229D02*
X120794687Y19474943D01*
X120866115Y19332086D01*
X120937544Y19260657D01*
X121080401Y19189229D01*
X121366115Y19189229D01*
X121508973Y19260657D01*
X121580401Y19332086D01*
X121651830Y19474943D01*
X121651830Y20689229D01*
X122294687Y19260657D02*
X122508973Y19189229D01*
X122866116Y19189229D01*
X123008973Y19260657D01*
X123080402Y19332086D01*
X123151830Y19474943D01*
X123151830Y19617800D01*
X123080402Y19760657D01*
X123008973Y19832086D01*
X122866116Y19903514D01*
X122580402Y19974943D01*
X122437544Y20046371D01*
X122366116Y20117800D01*
X122294687Y20260657D01*
X122294687Y20403514D01*
X122366116Y20546371D01*
X122437544Y20617800D01*
X122580402Y20689229D01*
X122937544Y20689229D01*
X123151830Y20617800D01*
X124866115Y20546371D02*
X124937544Y20617800D01*
X125080401Y20689229D01*
X125437544Y20689229D01*
X125580401Y20617800D01*
X125651830Y20546371D01*
X125723258Y20403514D01*
X125723258Y20260657D01*
X125651830Y20046371D01*
X124794687Y19189229D01*
X125723258Y19189229D01*
X126651829Y20689229D02*
X126794686Y20689229D01*
X126937543Y20617800D01*
X127008972Y20546371D01*
X127080401Y20403514D01*
X127151829Y20117800D01*
X127151829Y19760657D01*
X127080401Y19474943D01*
X127008972Y19332086D01*
X126937543Y19260657D01*
X126794686Y19189229D01*
X126651829Y19189229D01*
X126508972Y19260657D01*
X126437543Y19332086D01*
X126366115Y19474943D01*
X126294686Y19760657D01*
X126294686Y20117800D01*
X126366115Y20403514D01*
X126437543Y20546371D01*
X126508972Y20617800D01*
X126651829Y20689229D01*
X128580400Y19189229D02*
X127723257Y19189229D01*
X128151829Y19189229D02*
X128151829Y20689229D01*
X128008972Y20474943D01*
X127866114Y20332086D01*
X127723257Y20260657D01*
X129437543Y20046371D02*
X129294685Y20117800D01*
X129223257Y20189229D01*
X129151828Y20332086D01*
X129151828Y20403514D01*
X129223257Y20546371D01*
X129294685Y20617800D01*
X129437543Y20689229D01*
X129723257Y20689229D01*
X129866114Y20617800D01*
X129937543Y20546371D01*
X130008971Y20403514D01*
X130008971Y20332086D01*
X129937543Y20189229D01*
X129866114Y20117800D01*
X129723257Y20046371D01*
X129437543Y20046371D01*
X129294685Y19974943D01*
X129223257Y19903514D01*
X129151828Y19760657D01*
X129151828Y19474943D01*
X129223257Y19332086D01*
X129294685Y19260657D01*
X129437543Y19189229D01*
X129723257Y19189229D01*
X129866114Y19260657D01*
X129937543Y19332086D01*
X130008971Y19474943D01*
X130008971Y19760657D01*
X129937543Y19903514D01*
X129866114Y19974943D01*
X129723257Y20046371D01*
X112794687Y17424943D02*
X113008973Y17353514D01*
X113080401Y17282086D01*
X113151830Y17139229D01*
X113151830Y16924943D01*
X113080401Y16782086D01*
X113008973Y16710657D01*
X112866115Y16639229D01*
X112294687Y16639229D01*
X112294687Y18139229D01*
X112794687Y18139229D01*
X112937544Y18067800D01*
X113008973Y17996371D01*
X113080401Y17853514D01*
X113080401Y17710657D01*
X113008973Y17567800D01*
X112937544Y17496371D01*
X112794687Y17424943D01*
X112294687Y17424943D01*
X114437544Y16639229D02*
X114437544Y17424943D01*
X114366115Y17567800D01*
X114223258Y17639229D01*
X113937544Y17639229D01*
X113794687Y17567800D01*
X114437544Y16710657D02*
X114294687Y16639229D01*
X113937544Y16639229D01*
X113794687Y16710657D01*
X113723258Y16853514D01*
X113723258Y16996371D01*
X113794687Y17139229D01*
X113937544Y17210657D01*
X114294687Y17210657D01*
X114437544Y17282086D01*
X115794687Y16710657D02*
X115651830Y16639229D01*
X115366116Y16639229D01*
X115223258Y16710657D01*
X115151830Y16782086D01*
X115080401Y16924943D01*
X115080401Y17353514D01*
X115151830Y17496371D01*
X115223258Y17567800D01*
X115366116Y17639229D01*
X115651830Y17639229D01*
X115794687Y17567800D01*
X116437544Y16639229D02*
X116437544Y18139229D01*
X116580401Y17210657D02*
X117008972Y16639229D01*
X117008972Y17639229D02*
X116437544Y17067800D01*
X117651830Y17639229D02*
X117651830Y16139229D01*
X117651830Y17567800D02*
X117794687Y17639229D01*
X118080401Y17639229D01*
X118223258Y17567800D01*
X118294687Y17496371D01*
X118366116Y17353514D01*
X118366116Y16924943D01*
X118294687Y16782086D01*
X118223258Y16710657D01*
X118080401Y16639229D01*
X117794687Y16639229D01*
X117651830Y16710657D01*
X119223259Y16639229D02*
X119080401Y16710657D01*
X119008973Y16853514D01*
X119008973Y18139229D01*
X120437544Y16639229D02*
X120437544Y17424943D01*
X120366115Y17567800D01*
X120223258Y17639229D01*
X119937544Y17639229D01*
X119794687Y17567800D01*
X120437544Y16710657D02*
X120294687Y16639229D01*
X119937544Y16639229D01*
X119794687Y16710657D01*
X119723258Y16853514D01*
X119723258Y16996371D01*
X119794687Y17139229D01*
X119937544Y17210657D01*
X120294687Y17210657D01*
X120437544Y17282086D01*
X121151830Y17639229D02*
X121151830Y16639229D01*
X121151830Y17496371D02*
X121223258Y17567800D01*
X121366116Y17639229D01*
X121580401Y17639229D01*
X121723258Y17567800D01*
X121794687Y17424943D01*
X121794687Y16639229D01*
X123080401Y16710657D02*
X122937544Y16639229D01*
X122651830Y16639229D01*
X122508973Y16710657D01*
X122437544Y16853514D01*
X122437544Y17424943D01*
X122508973Y17567800D01*
X122651830Y17639229D01*
X122937544Y17639229D01*
X123080401Y17567800D01*
X123151830Y17424943D01*
X123151830Y17282086D01*
X122437544Y17139229D01*
X125794687Y16639229D02*
X125294687Y17353514D01*
X124937544Y16639229D02*
X124937544Y18139229D01*
X125508972Y18139229D01*
X125651830Y18067800D01*
X125723258Y17996371D01*
X125794687Y17853514D01*
X125794687Y17639229D01*
X125723258Y17496371D01*
X125651830Y17424943D01*
X125508972Y17353514D01*
X124937544Y17353514D01*
X127008972Y16710657D02*
X126866115Y16639229D01*
X126580401Y16639229D01*
X126437544Y16710657D01*
X126366115Y16853514D01*
X126366115Y17424943D01*
X126437544Y17567800D01*
X126580401Y17639229D01*
X126866115Y17639229D01*
X127008972Y17567800D01*
X127080401Y17424943D01*
X127080401Y17282086D01*
X126366115Y17139229D01*
X127580401Y17639229D02*
X127937544Y16639229D01*
X128294686Y17639229D01*
X130794686Y16639229D02*
X129937543Y16639229D01*
X130366115Y16639229D02*
X130366115Y18139229D01*
X130223258Y17924943D01*
X130080400Y17782086D01*
X129937543Y17710657D01*
X131437543Y16782086D02*
X131508971Y16710657D01*
X131437543Y16639229D01*
X131366114Y16710657D01*
X131437543Y16782086D01*
X131437543Y16639229D01*
X132437543Y18139229D02*
X132580400Y18139229D01*
X132723257Y18067800D01*
X132794686Y17996371D01*
X132866115Y17853514D01*
X132937543Y17567800D01*
X132937543Y17210657D01*
X132866115Y16924943D01*
X132794686Y16782086D01*
X132723257Y16710657D01*
X132580400Y16639229D01*
X132437543Y16639229D01*
X132294686Y16710657D01*
X132223257Y16782086D01*
X132151829Y16924943D01*
X132080400Y17210657D01*
X132080400Y17567800D01*
X132151829Y17853514D01*
X132223257Y17996371D01*
X132294686Y18067800D01*
X132437543Y18139229D01*
D12*
X156360953Y-30171D02*
X156503810Y-77790D01*
X156551429Y-125410D01*
X156599048Y-220648D01*
X156599048Y-363505D01*
X156551429Y-458743D01*
X156503810Y-506362D01*
X156408572Y-553981D01*
X156027619Y-553981D01*
X156027619Y446019D01*
X156360953Y446019D01*
X156456191Y398400D01*
X156503810Y350781D01*
X156551429Y255543D01*
X156551429Y160305D01*
X156503810Y65067D01*
X156456191Y17448D01*
X156360953Y-30171D01*
X156027619Y-30171D01*
X156980000Y-268267D02*
X157456191Y-268267D01*
X156884762Y-553981D02*
X157218095Y446019D01*
X157551429Y-553981D01*
X157741905Y446019D02*
X158313334Y446019D01*
X158027619Y-553981D02*
X158027619Y446019D01*
X158503810Y446019D02*
X159075239Y446019D01*
X158789524Y-553981D02*
X158789524Y446019D01*
D11*
X87038571Y-189817142D02*
X85538571Y-189817142D01*
X85538571Y-189459999D01*
X85610000Y-189245714D01*
X85752857Y-189102856D01*
X85895714Y-189031428D01*
X86181429Y-188959999D01*
X86395714Y-188959999D01*
X86681429Y-189031428D01*
X86824286Y-189102856D01*
X86967143Y-189245714D01*
X87038571Y-189459999D01*
X87038571Y-189817142D01*
X86967143Y-188388571D02*
X87038571Y-188174285D01*
X87038571Y-187817142D01*
X86967143Y-187674285D01*
X86895714Y-187602856D01*
X86752857Y-187531428D01*
X86610000Y-187531428D01*
X86467143Y-187602856D01*
X86395714Y-187674285D01*
X86324286Y-187817142D01*
X86252857Y-188102856D01*
X86181429Y-188245714D01*
X86110000Y-188317142D01*
X85967143Y-188388571D01*
X85824286Y-188388571D01*
X85681429Y-188317142D01*
X85610000Y-188245714D01*
X85538571Y-188102856D01*
X85538571Y-187745714D01*
X85610000Y-187531428D01*
X87038571Y-186888571D02*
X85538571Y-186888571D01*
X85538571Y-186317143D01*
X85610000Y-186174285D01*
X85681429Y-186102857D01*
X85824286Y-186031428D01*
X86038571Y-186031428D01*
X86181429Y-186102857D01*
X86252857Y-186174285D01*
X86324286Y-186317143D01*
X86324286Y-186888571D01*
X114216571Y-66840856D02*
X112716571Y-66840856D01*
X112716571Y-66483713D01*
X112788000Y-66269428D01*
X112930857Y-66126570D01*
X113073714Y-66055142D01*
X113359429Y-65983713D01*
X113573714Y-65983713D01*
X113859429Y-66055142D01*
X114002286Y-66126570D01*
X114145143Y-66269428D01*
X114216571Y-66483713D01*
X114216571Y-66840856D01*
X114216571Y-65340856D02*
X113216571Y-65340856D01*
X113502286Y-65340856D02*
X113359429Y-65269428D01*
X113288000Y-65197999D01*
X113216571Y-65055142D01*
X113216571Y-64912285D01*
X114216571Y-64412285D02*
X113216571Y-64412285D01*
X112716571Y-64412285D02*
X112788000Y-64483714D01*
X112859429Y-64412285D01*
X112788000Y-64340857D01*
X112716571Y-64412285D01*
X112859429Y-64412285D01*
X113216571Y-63840856D02*
X114216571Y-63483713D01*
X113216571Y-63126571D01*
X114145143Y-61983714D02*
X114216571Y-62126571D01*
X114216571Y-62412285D01*
X114145143Y-62555142D01*
X114002286Y-62626571D01*
X113430857Y-62626571D01*
X113288000Y-62555142D01*
X113216571Y-62412285D01*
X113216571Y-62126571D01*
X113288000Y-61983714D01*
X113430857Y-61912285D01*
X113573714Y-61912285D01*
X113716571Y-62626571D01*
X114216571Y-61269428D02*
X113216571Y-61269428D01*
X113502286Y-61269428D02*
X113359429Y-61198000D01*
X113288000Y-61126571D01*
X113216571Y-60983714D01*
X113216571Y-60840857D01*
X114216571Y-59198000D02*
X112716571Y-59198000D01*
X113288000Y-59198000D02*
X113216571Y-59055143D01*
X113216571Y-58769429D01*
X113288000Y-58626572D01*
X113359429Y-58555143D01*
X113502286Y-58483714D01*
X113930857Y-58483714D01*
X114073714Y-58555143D01*
X114145143Y-58626572D01*
X114216571Y-58769429D01*
X114216571Y-59055143D01*
X114145143Y-59198000D01*
X114216571Y-57626571D02*
X114145143Y-57769429D01*
X114073714Y-57840857D01*
X113930857Y-57912286D01*
X113502286Y-57912286D01*
X113359429Y-57840857D01*
X113288000Y-57769429D01*
X113216571Y-57626571D01*
X113216571Y-57412286D01*
X113288000Y-57269429D01*
X113359429Y-57198000D01*
X113502286Y-57126571D01*
X113930857Y-57126571D01*
X114073714Y-57198000D01*
X114145143Y-57269429D01*
X114216571Y-57412286D01*
X114216571Y-57626571D01*
X114216571Y-55840857D02*
X113430857Y-55840857D01*
X113288000Y-55912286D01*
X113216571Y-56055143D01*
X113216571Y-56340857D01*
X113288000Y-56483714D01*
X114145143Y-55840857D02*
X114216571Y-55983714D01*
X114216571Y-56340857D01*
X114145143Y-56483714D01*
X114002286Y-56555143D01*
X113859429Y-56555143D01*
X113716571Y-56483714D01*
X113645143Y-56340857D01*
X113645143Y-55983714D01*
X113573714Y-55840857D01*
X114216571Y-55126571D02*
X113216571Y-55126571D01*
X113502286Y-55126571D02*
X113359429Y-55055143D01*
X113288000Y-54983714D01*
X113216571Y-54840857D01*
X113216571Y-54698000D01*
X114216571Y-53555143D02*
X112716571Y-53555143D01*
X114145143Y-53555143D02*
X114216571Y-53698000D01*
X114216571Y-53983714D01*
X114145143Y-54126572D01*
X114073714Y-54198000D01*
X113930857Y-54269429D01*
X113502286Y-54269429D01*
X113359429Y-54198000D01*
X113288000Y-54126572D01*
X113216571Y-53983714D01*
X113216571Y-53698000D01*
X113288000Y-53555143D01*
D12*
X155646667Y-10983981D02*
X155980000Y-11983981D01*
X156313334Y-10983981D01*
X156980001Y-11460171D02*
X157122858Y-11507790D01*
X157170477Y-11555410D01*
X157218096Y-11650648D01*
X157218096Y-11793505D01*
X157170477Y-11888743D01*
X157122858Y-11936362D01*
X157027620Y-11983981D01*
X156646667Y-11983981D01*
X156646667Y-10983981D01*
X156980001Y-10983981D01*
X157075239Y-11031600D01*
X157122858Y-11079219D01*
X157170477Y-11174457D01*
X157170477Y-11269695D01*
X157122858Y-11364933D01*
X157075239Y-11412552D01*
X156980001Y-11460171D01*
X156646667Y-11460171D01*
X157646667Y-10983981D02*
X157646667Y-11793505D01*
X157694286Y-11888743D01*
X157741905Y-11936362D01*
X157837143Y-11983981D01*
X158027620Y-11983981D01*
X158122858Y-11936362D01*
X158170477Y-11888743D01*
X158218096Y-11793505D01*
X158218096Y-10983981D01*
X158646667Y-11936362D02*
X158789524Y-11983981D01*
X159027620Y-11983981D01*
X159122858Y-11936362D01*
X159170477Y-11888743D01*
X159218096Y-11793505D01*
X159218096Y-11698267D01*
X159170477Y-11603029D01*
X159122858Y-11555410D01*
X159027620Y-11507790D01*
X158837143Y-11460171D01*
X158741905Y-11412552D01*
X158694286Y-11364933D01*
X158646667Y-11269695D01*
X158646667Y-11174457D01*
X158694286Y-11079219D01*
X158741905Y-11031600D01*
X158837143Y-10983981D01*
X159075239Y-10983981D01*
X159218096Y-11031600D01*
X156003810Y-22159981D02*
X156622858Y-22159981D01*
X156289524Y-22540933D01*
X156432382Y-22540933D01*
X156527620Y-22588552D01*
X156575239Y-22636171D01*
X156622858Y-22731410D01*
X156622858Y-22969505D01*
X156575239Y-23064743D01*
X156527620Y-23112362D01*
X156432382Y-23159981D01*
X156146667Y-23159981D01*
X156051429Y-23112362D01*
X156003810Y-23064743D01*
X157051429Y-23064743D02*
X157099048Y-23112362D01*
X157051429Y-23159981D01*
X157003810Y-23112362D01*
X157051429Y-23064743D01*
X157051429Y-23159981D01*
X157432381Y-22159981D02*
X158051429Y-22159981D01*
X157718095Y-22540933D01*
X157860953Y-22540933D01*
X157956191Y-22588552D01*
X158003810Y-22636171D01*
X158051429Y-22731410D01*
X158051429Y-22969505D01*
X158003810Y-23064743D01*
X157956191Y-23112362D01*
X157860953Y-23159981D01*
X157575238Y-23159981D01*
X157480000Y-23112362D01*
X157432381Y-23064743D01*
X158337143Y-22159981D02*
X158670476Y-23159981D01*
X159003810Y-22159981D01*
X156860953Y-7221600D02*
X156765715Y-7173981D01*
X156622858Y-7173981D01*
X156480000Y-7221600D01*
X156384762Y-7316838D01*
X156337143Y-7412076D01*
X156289524Y-7602552D01*
X156289524Y-7745410D01*
X156337143Y-7935886D01*
X156384762Y-8031124D01*
X156480000Y-8126362D01*
X156622858Y-8173981D01*
X156718096Y-8173981D01*
X156860953Y-8126362D01*
X156908572Y-8078743D01*
X156908572Y-7745410D01*
X156718096Y-7745410D01*
X157718096Y-8126362D02*
X157622858Y-8173981D01*
X157432381Y-8173981D01*
X157337143Y-8126362D01*
X157289524Y-8031124D01*
X157289524Y-7650171D01*
X157337143Y-7554933D01*
X157432381Y-7507314D01*
X157622858Y-7507314D01*
X157718096Y-7554933D01*
X157765715Y-7650171D01*
X157765715Y-7745410D01*
X157289524Y-7840648D01*
X158194286Y-7507314D02*
X158194286Y-8173981D01*
X158194286Y-7602552D02*
X158241905Y-7554933D01*
X158337143Y-7507314D01*
X158480001Y-7507314D01*
X158575239Y-7554933D01*
X158622858Y-7650171D01*
X158622858Y-8173981D01*
X157289524Y-18603981D02*
X156813333Y-18603981D01*
X156765714Y-19080171D01*
X156813333Y-19032552D01*
X156908571Y-18984933D01*
X157146667Y-18984933D01*
X157241905Y-19032552D01*
X157289524Y-19080171D01*
X157337143Y-19175410D01*
X157337143Y-19413505D01*
X157289524Y-19508743D01*
X157241905Y-19556362D01*
X157146667Y-19603981D01*
X156908571Y-19603981D01*
X156813333Y-19556362D01*
X156765714Y-19508743D01*
X157622857Y-18603981D02*
X157956190Y-19603981D01*
X158289524Y-18603981D01*
X156051429Y-15793981D02*
X156051429Y-14793981D01*
X156432382Y-14793981D01*
X156527620Y-14841600D01*
X156575239Y-14889219D01*
X156622858Y-14984457D01*
X156622858Y-15127314D01*
X156575239Y-15222552D01*
X156527620Y-15270171D01*
X156432382Y-15317790D01*
X156051429Y-15317790D01*
X157622858Y-15698743D02*
X157575239Y-15746362D01*
X157432382Y-15793981D01*
X157337144Y-15793981D01*
X157194286Y-15746362D01*
X157099048Y-15651124D01*
X157051429Y-15555886D01*
X157003810Y-15365410D01*
X157003810Y-15222552D01*
X157051429Y-15032076D01*
X157099048Y-14936838D01*
X157194286Y-14841600D01*
X157337144Y-14793981D01*
X157432382Y-14793981D01*
X157575239Y-14841600D01*
X157622858Y-14889219D01*
X158051429Y-15793981D02*
X158051429Y-14793981D01*
X158908572Y-15746362D02*
X158813334Y-15793981D01*
X158622857Y-15793981D01*
X158527619Y-15746362D01*
X158480000Y-15651124D01*
X158480000Y-15270171D01*
X158527619Y-15174933D01*
X158622857Y-15127314D01*
X158813334Y-15127314D01*
X158908572Y-15174933D01*
X158956191Y-15270171D01*
X158956191Y-15365410D01*
X158480000Y-15460648D01*
X156860953Y-4363981D02*
X156289524Y-4363981D01*
X156575238Y-4363981D02*
X156575238Y-3363981D01*
X156480000Y-3506838D01*
X156384762Y-3602076D01*
X156289524Y-3649695D01*
X157241905Y-3459219D02*
X157289524Y-3411600D01*
X157384762Y-3363981D01*
X157622858Y-3363981D01*
X157718096Y-3411600D01*
X157765715Y-3459219D01*
X157813334Y-3554457D01*
X157813334Y-3649695D01*
X157765715Y-3792552D01*
X157194286Y-4363981D01*
X157813334Y-4363981D01*
X158099048Y-3363981D02*
X158432381Y-4363981D01*
X158765715Y-3363981D01*
X156622858Y-27223981D02*
X156051429Y-27223981D01*
X156337143Y-27223981D02*
X156337143Y-26223981D01*
X156241905Y-26366838D01*
X156146667Y-26462076D01*
X156051429Y-26509695D01*
X157051429Y-27128743D02*
X157099048Y-27176362D01*
X157051429Y-27223981D01*
X157003810Y-27176362D01*
X157051429Y-27128743D01*
X157051429Y-27223981D01*
X158051429Y-27223981D02*
X157480000Y-27223981D01*
X157765714Y-27223981D02*
X157765714Y-26223981D01*
X157670476Y-26366838D01*
X157575238Y-26462076D01*
X157480000Y-26509695D01*
X158337143Y-26223981D02*
X158670476Y-27223981D01*
X159003810Y-26223981D01*
D11*
X155714000Y-47303142D02*
X155642571Y-47445999D01*
X155642571Y-47660285D01*
X155714000Y-47874570D01*
X155856857Y-48017428D01*
X155999714Y-48088856D01*
X156285429Y-48160285D01*
X156499714Y-48160285D01*
X156785429Y-48088856D01*
X156928286Y-48017428D01*
X157071143Y-47874570D01*
X157142571Y-47660285D01*
X157142571Y-47517428D01*
X157071143Y-47303142D01*
X156999714Y-47231713D01*
X156499714Y-47231713D01*
X156499714Y-47517428D01*
X157071143Y-46017428D02*
X157142571Y-46160285D01*
X157142571Y-46445999D01*
X157071143Y-46588856D01*
X156928286Y-46660285D01*
X156356857Y-46660285D01*
X156214000Y-46588856D01*
X156142571Y-46445999D01*
X156142571Y-46160285D01*
X156214000Y-46017428D01*
X156356857Y-45945999D01*
X156499714Y-45945999D01*
X156642571Y-46660285D01*
X156142571Y-45303142D02*
X157142571Y-45303142D01*
X156285429Y-45303142D02*
X156214000Y-45231714D01*
X156142571Y-45088856D01*
X156142571Y-44874571D01*
X156214000Y-44731714D01*
X156356857Y-44660285D01*
X157142571Y-44660285D01*
X157071143Y-43374571D02*
X157142571Y-43517428D01*
X157142571Y-43803142D01*
X157071143Y-43945999D01*
X156928286Y-44017428D01*
X156356857Y-44017428D01*
X156214000Y-43945999D01*
X156142571Y-43803142D01*
X156142571Y-43517428D01*
X156214000Y-43374571D01*
X156356857Y-43303142D01*
X156499714Y-43303142D01*
X156642571Y-44017428D01*
X157142571Y-42660285D02*
X156142571Y-42660285D01*
X156428286Y-42660285D02*
X156285429Y-42588857D01*
X156214000Y-42517428D01*
X156142571Y-42374571D01*
X156142571Y-42231714D01*
X157142571Y-41088857D02*
X156356857Y-41088857D01*
X156214000Y-41160286D01*
X156142571Y-41303143D01*
X156142571Y-41588857D01*
X156214000Y-41731714D01*
X157071143Y-41088857D02*
X157142571Y-41231714D01*
X157142571Y-41588857D01*
X157071143Y-41731714D01*
X156928286Y-41803143D01*
X156785429Y-41803143D01*
X156642571Y-41731714D01*
X156571143Y-41588857D01*
X156571143Y-41231714D01*
X156499714Y-41088857D01*
X157142571Y-40160285D02*
X157071143Y-40303143D01*
X156928286Y-40374571D01*
X155642571Y-40374571D01*
X156356857Y-60209428D02*
X156356857Y-59709428D01*
X157142571Y-59495142D02*
X157142571Y-60209428D01*
X155642571Y-60209428D01*
X155642571Y-59495142D01*
X155642571Y-59066571D02*
X155642571Y-58209428D01*
X157142571Y-58637999D02*
X155642571Y-58637999D01*
X157142571Y-57709428D02*
X155642571Y-57709428D01*
X156356857Y-57709428D02*
X156356857Y-56852285D01*
X157142571Y-56852285D02*
X155642571Y-56852285D01*
X157071143Y-55066571D02*
X157142571Y-54852285D01*
X157142571Y-54495142D01*
X157071143Y-54352285D01*
X156999714Y-54280856D01*
X156856857Y-54209428D01*
X156714000Y-54209428D01*
X156571143Y-54280856D01*
X156499714Y-54352285D01*
X156428286Y-54495142D01*
X156356857Y-54780856D01*
X156285429Y-54923714D01*
X156214000Y-54995142D01*
X156071143Y-55066571D01*
X155928286Y-55066571D01*
X155785429Y-54995142D01*
X155714000Y-54923714D01*
X155642571Y-54780856D01*
X155642571Y-54423714D01*
X155714000Y-54209428D01*
X155642571Y-53709428D02*
X157142571Y-53352285D01*
X156071143Y-53066571D01*
X157142571Y-52780857D01*
X155642571Y-52423714D01*
X157071143Y-72270571D02*
X157142571Y-72056285D01*
X157142571Y-71699142D01*
X157071143Y-71556285D01*
X156999714Y-71484856D01*
X156856857Y-71413428D01*
X156714000Y-71413428D01*
X156571143Y-71484856D01*
X156499714Y-71556285D01*
X156428286Y-71699142D01*
X156356857Y-71984856D01*
X156285429Y-72127714D01*
X156214000Y-72199142D01*
X156071143Y-72270571D01*
X155928286Y-72270571D01*
X155785429Y-72199142D01*
X155714000Y-72127714D01*
X155642571Y-71984856D01*
X155642571Y-71627714D01*
X155714000Y-71413428D01*
X157142571Y-70556285D02*
X157071143Y-70699143D01*
X156999714Y-70770571D01*
X156856857Y-70842000D01*
X156428286Y-70842000D01*
X156285429Y-70770571D01*
X156214000Y-70699143D01*
X156142571Y-70556285D01*
X156142571Y-70342000D01*
X156214000Y-70199143D01*
X156285429Y-70127714D01*
X156428286Y-70056285D01*
X156856857Y-70056285D01*
X156999714Y-70127714D01*
X157071143Y-70199143D01*
X157142571Y-70342000D01*
X157142571Y-70556285D01*
X156142571Y-69413428D02*
X157142571Y-69413428D01*
X156285429Y-69413428D02*
X156214000Y-69342000D01*
X156142571Y-69199142D01*
X156142571Y-68984857D01*
X156214000Y-68842000D01*
X156356857Y-68770571D01*
X157142571Y-68770571D01*
X157142571Y-67413428D02*
X156356857Y-67413428D01*
X156214000Y-67484857D01*
X156142571Y-67627714D01*
X156142571Y-67913428D01*
X156214000Y-68056285D01*
X157071143Y-67413428D02*
X157142571Y-67556285D01*
X157142571Y-67913428D01*
X157071143Y-68056285D01*
X156928286Y-68127714D01*
X156785429Y-68127714D01*
X156642571Y-68056285D01*
X156571143Y-67913428D01*
X156571143Y-67556285D01*
X156499714Y-67413428D01*
X157142571Y-66699142D02*
X156142571Y-66699142D01*
X156428286Y-66699142D02*
X156285429Y-66627714D01*
X156214000Y-66556285D01*
X156142571Y-66413428D01*
X156142571Y-66270571D01*
X152481624Y-82137553D02*
X151876862Y-82560886D01*
X152481624Y-82863267D02*
X151211624Y-82863267D01*
X151211624Y-82379458D01*
X151272100Y-82258505D01*
X151332576Y-82198029D01*
X151453529Y-82137553D01*
X151634957Y-82137553D01*
X151755910Y-82198029D01*
X151816386Y-82258505D01*
X151876862Y-82379458D01*
X151876862Y-82863267D01*
X152421148Y-81653743D02*
X152481624Y-81472315D01*
X152481624Y-81169934D01*
X152421148Y-81048981D01*
X152360671Y-80988505D01*
X152239719Y-80928029D01*
X152118767Y-80928029D01*
X151997814Y-80988505D01*
X151937338Y-81048981D01*
X151876862Y-81169934D01*
X151816386Y-81411838D01*
X151755910Y-81532791D01*
X151695433Y-81593267D01*
X151574481Y-81653743D01*
X151453529Y-81653743D01*
X151332576Y-81593267D01*
X151272100Y-81532791D01*
X151211624Y-81411838D01*
X151211624Y-81109458D01*
X151272100Y-80928029D01*
X151332576Y-80444219D02*
X151272100Y-80383743D01*
X151211624Y-80262791D01*
X151211624Y-79960410D01*
X151272100Y-79839457D01*
X151332576Y-79778981D01*
X151453529Y-79718505D01*
X151574481Y-79718505D01*
X151755910Y-79778981D01*
X152481624Y-80504695D01*
X152481624Y-79718505D01*
X151211624Y-79295171D02*
X151211624Y-78508981D01*
X151695433Y-78932314D01*
X151695433Y-78750886D01*
X151755910Y-78629933D01*
X151816386Y-78569457D01*
X151937338Y-78508981D01*
X152239719Y-78508981D01*
X152360671Y-78569457D01*
X152421148Y-78629933D01*
X152481624Y-78750886D01*
X152481624Y-79113743D01*
X152421148Y-79234695D01*
X152360671Y-79295171D01*
X151332576Y-78025171D02*
X151272100Y-77964695D01*
X151211624Y-77843743D01*
X151211624Y-77541362D01*
X151272100Y-77420409D01*
X151332576Y-77359933D01*
X151453529Y-77299457D01*
X151574481Y-77299457D01*
X151755910Y-77359933D01*
X152481624Y-78085647D01*
X152481624Y-77299457D01*
X154686624Y-81502552D02*
X153416624Y-81502552D01*
X153416624Y-81200171D01*
X153477100Y-81018743D01*
X153598052Y-80897790D01*
X153719005Y-80837314D01*
X153960910Y-80776838D01*
X154142338Y-80776838D01*
X154384243Y-80837314D01*
X154505195Y-80897790D01*
X154626148Y-81018743D01*
X154686624Y-81200171D01*
X154686624Y-81502552D01*
X153416624Y-80413981D02*
X154686624Y-79990647D01*
X153416624Y-79567314D01*
X154686624Y-78539219D02*
X154686624Y-79143981D01*
X153416624Y-79143981D01*
X152583224Y-96011999D02*
X151313224Y-96011999D01*
X151313224Y-95528190D01*
X151373700Y-95407237D01*
X151434176Y-95346761D01*
X151555129Y-95286285D01*
X151736557Y-95286285D01*
X151857510Y-95346761D01*
X151917986Y-95407237D01*
X151978462Y-95528190D01*
X151978462Y-96011999D01*
X152583224Y-94741999D02*
X151736557Y-94741999D01*
X151978462Y-94741999D02*
X151857510Y-94681523D01*
X151797033Y-94621047D01*
X151736557Y-94500094D01*
X151736557Y-94379142D01*
X152522748Y-93472000D02*
X152583224Y-93592952D01*
X152583224Y-93834857D01*
X152522748Y-93955809D01*
X152401795Y-94016285D01*
X151917986Y-94016285D01*
X151797033Y-93955809D01*
X151736557Y-93834857D01*
X151736557Y-93592952D01*
X151797033Y-93472000D01*
X151917986Y-93411523D01*
X152038938Y-93411523D01*
X152159890Y-94016285D01*
X152522748Y-92927714D02*
X152583224Y-92806762D01*
X152583224Y-92564857D01*
X152522748Y-92443905D01*
X152401795Y-92383429D01*
X152341319Y-92383429D01*
X152220367Y-92443905D01*
X152159890Y-92564857D01*
X152159890Y-92746286D01*
X152099414Y-92867238D01*
X151978462Y-92927714D01*
X151917986Y-92927714D01*
X151797033Y-92867238D01*
X151736557Y-92746286D01*
X151736557Y-92564857D01*
X151797033Y-92443905D01*
X152522748Y-91899619D02*
X152583224Y-91778667D01*
X152583224Y-91536762D01*
X152522748Y-91415810D01*
X152401795Y-91355334D01*
X152341319Y-91355334D01*
X152220367Y-91415810D01*
X152159890Y-91536762D01*
X152159890Y-91718191D01*
X152099414Y-91839143D01*
X151978462Y-91899619D01*
X151917986Y-91899619D01*
X151797033Y-91839143D01*
X151736557Y-91718191D01*
X151736557Y-91536762D01*
X151797033Y-91415810D01*
X151736557Y-90266762D02*
X152583224Y-90266762D01*
X151736557Y-90811048D02*
X152401795Y-90811048D01*
X152522748Y-90750572D01*
X152583224Y-90629619D01*
X152583224Y-90448191D01*
X152522748Y-90327239D01*
X152462271Y-90266762D01*
X152583224Y-89662000D02*
X151736557Y-89662000D01*
X151978462Y-89662000D02*
X151857510Y-89601524D01*
X151797033Y-89541048D01*
X151736557Y-89420095D01*
X151736557Y-89299143D01*
X152522748Y-88392001D02*
X152583224Y-88512953D01*
X152583224Y-88754858D01*
X152522748Y-88875810D01*
X152401795Y-88936286D01*
X151917986Y-88936286D01*
X151797033Y-88875810D01*
X151736557Y-88754858D01*
X151736557Y-88512953D01*
X151797033Y-88392001D01*
X151917986Y-88331524D01*
X152038938Y-88331524D01*
X152159890Y-88936286D01*
X154727748Y-95165333D02*
X154788224Y-94983905D01*
X154788224Y-94681524D01*
X154727748Y-94560571D01*
X154667271Y-94500095D01*
X154546319Y-94439619D01*
X154425367Y-94439619D01*
X154304414Y-94500095D01*
X154243938Y-94560571D01*
X154183462Y-94681524D01*
X154122986Y-94923428D01*
X154062510Y-95044381D01*
X154002033Y-95104857D01*
X153881081Y-95165333D01*
X153760129Y-95165333D01*
X153639176Y-95104857D01*
X153578700Y-95044381D01*
X153518224Y-94923428D01*
X153518224Y-94621048D01*
X153578700Y-94439619D01*
X154727748Y-93411524D02*
X154788224Y-93532476D01*
X154788224Y-93774381D01*
X154727748Y-93895333D01*
X154606795Y-93955809D01*
X154122986Y-93955809D01*
X154002033Y-93895333D01*
X153941557Y-93774381D01*
X153941557Y-93532476D01*
X154002033Y-93411524D01*
X154122986Y-93351047D01*
X154243938Y-93351047D01*
X154364890Y-93955809D01*
X153941557Y-92806762D02*
X154788224Y-92806762D01*
X154062510Y-92806762D02*
X154002033Y-92746286D01*
X153941557Y-92625333D01*
X153941557Y-92443905D01*
X154002033Y-92322953D01*
X154122986Y-92262476D01*
X154788224Y-92262476D01*
X154727748Y-91718190D02*
X154788224Y-91597238D01*
X154788224Y-91355333D01*
X154727748Y-91234381D01*
X154606795Y-91173905D01*
X154546319Y-91173905D01*
X154425367Y-91234381D01*
X154364890Y-91355333D01*
X154364890Y-91536762D01*
X154304414Y-91657714D01*
X154183462Y-91718190D01*
X154122986Y-91718190D01*
X154002033Y-91657714D01*
X153941557Y-91536762D01*
X153941557Y-91355333D01*
X154002033Y-91234381D01*
X154788224Y-90448190D02*
X154727748Y-90569143D01*
X154667271Y-90629619D01*
X154546319Y-90690095D01*
X154183462Y-90690095D01*
X154062510Y-90629619D01*
X154002033Y-90569143D01*
X153941557Y-90448190D01*
X153941557Y-90266762D01*
X154002033Y-90145810D01*
X154062510Y-90085333D01*
X154183462Y-90024857D01*
X154546319Y-90024857D01*
X154667271Y-90085333D01*
X154727748Y-90145810D01*
X154788224Y-90266762D01*
X154788224Y-90448190D01*
X154788224Y-89480571D02*
X153941557Y-89480571D01*
X154183462Y-89480571D02*
X154062510Y-89420095D01*
X154002033Y-89359619D01*
X153941557Y-89238666D01*
X153941557Y-89117714D01*
D13*
X157457019Y-105891389D02*
X156441019Y-105891389D01*
X156441019Y-105504342D01*
X156489400Y-105407580D01*
X156537781Y-105359199D01*
X156634543Y-105310818D01*
X156779686Y-105310818D01*
X156876448Y-105359199D01*
X156924829Y-105407580D01*
X156973210Y-105504342D01*
X156973210Y-105891389D01*
X157457019Y-104730246D02*
X157408638Y-104827008D01*
X157360257Y-104875389D01*
X157263495Y-104923770D01*
X156973210Y-104923770D01*
X156876448Y-104875389D01*
X156828067Y-104827008D01*
X156779686Y-104730246D01*
X156779686Y-104585104D01*
X156828067Y-104488342D01*
X156876448Y-104439961D01*
X156973210Y-104391580D01*
X157263495Y-104391580D01*
X157360257Y-104439961D01*
X157408638Y-104488342D01*
X157457019Y-104585104D01*
X157457019Y-104730246D01*
X156779686Y-104052913D02*
X157457019Y-103859389D01*
X156973210Y-103665866D01*
X157457019Y-103472342D01*
X156779686Y-103278818D01*
X157408638Y-102504723D02*
X157457019Y-102601485D01*
X157457019Y-102795008D01*
X157408638Y-102891770D01*
X157311876Y-102940151D01*
X156924829Y-102940151D01*
X156828067Y-102891770D01*
X156779686Y-102795008D01*
X156779686Y-102601485D01*
X156828067Y-102504723D01*
X156924829Y-102456342D01*
X157021590Y-102456342D01*
X157118352Y-102940151D01*
X157457019Y-102020913D02*
X156779686Y-102020913D01*
X156973210Y-102020913D02*
X156876448Y-101972532D01*
X156828067Y-101924151D01*
X156779686Y-101827389D01*
X156779686Y-101730628D01*
X157408638Y-101440342D02*
X157457019Y-101295199D01*
X157457019Y-101053295D01*
X157408638Y-100956533D01*
X157360257Y-100908152D01*
X157263495Y-100859771D01*
X157166733Y-100859771D01*
X157069971Y-100908152D01*
X157021590Y-100956533D01*
X156973210Y-101053295D01*
X156924829Y-101246818D01*
X156876448Y-101343580D01*
X156828067Y-101391961D01*
X156731305Y-101440342D01*
X156634543Y-101440342D01*
X156537781Y-101391961D01*
X156489400Y-101343580D01*
X156441019Y-101246818D01*
X156441019Y-101004914D01*
X156489400Y-100859771D01*
X157457019Y-100279199D02*
X157408638Y-100375961D01*
X157360257Y-100424342D01*
X157263495Y-100472723D01*
X156973210Y-100472723D01*
X156876448Y-100424342D01*
X156828067Y-100375961D01*
X156779686Y-100279199D01*
X156779686Y-100134057D01*
X156828067Y-100037295D01*
X156876448Y-99988914D01*
X156973210Y-99940533D01*
X157263495Y-99940533D01*
X157360257Y-99988914D01*
X157408638Y-100037295D01*
X157457019Y-100134057D01*
X157457019Y-100279199D01*
X156779686Y-99069676D02*
X157457019Y-99069676D01*
X156779686Y-99505104D02*
X157311876Y-99505104D01*
X157408638Y-99456723D01*
X157457019Y-99359961D01*
X157457019Y-99214819D01*
X157408638Y-99118057D01*
X157360257Y-99069676D01*
X157457019Y-98585866D02*
X156779686Y-98585866D01*
X156973210Y-98585866D02*
X156876448Y-98537485D01*
X156828067Y-98489104D01*
X156779686Y-98392342D01*
X156779686Y-98295581D01*
X157408638Y-97521486D02*
X157457019Y-97618248D01*
X157457019Y-97811771D01*
X157408638Y-97908533D01*
X157360257Y-97956914D01*
X157263495Y-98005295D01*
X156973210Y-98005295D01*
X156876448Y-97956914D01*
X156828067Y-97908533D01*
X156779686Y-97811771D01*
X156779686Y-97618248D01*
X156828067Y-97521486D01*
X157408638Y-96699010D02*
X157457019Y-96795772D01*
X157457019Y-96989295D01*
X157408638Y-97086057D01*
X157311876Y-97134438D01*
X156924829Y-97134438D01*
X156828067Y-97086057D01*
X156779686Y-96989295D01*
X156779686Y-96795772D01*
X156828067Y-96699010D01*
X156924829Y-96650629D01*
X157021590Y-96650629D01*
X157118352Y-97134438D01*
X159235019Y-102988533D02*
X158219019Y-102988533D01*
X158944733Y-102649867D01*
X158219019Y-102311200D01*
X159235019Y-102311200D01*
X159235019Y-101682247D02*
X159186638Y-101779009D01*
X159138257Y-101827390D01*
X159041495Y-101875771D01*
X158751210Y-101875771D01*
X158654448Y-101827390D01*
X158606067Y-101779009D01*
X158557686Y-101682247D01*
X158557686Y-101537105D01*
X158606067Y-101440343D01*
X158654448Y-101391962D01*
X158751210Y-101343581D01*
X159041495Y-101343581D01*
X159138257Y-101391962D01*
X159186638Y-101440343D01*
X159235019Y-101537105D01*
X159235019Y-101682247D01*
X159235019Y-100472724D02*
X158219019Y-100472724D01*
X159186638Y-100472724D02*
X159235019Y-100569486D01*
X159235019Y-100763009D01*
X159186638Y-100859771D01*
X159138257Y-100908152D01*
X159041495Y-100956533D01*
X158751210Y-100956533D01*
X158654448Y-100908152D01*
X158606067Y-100859771D01*
X158557686Y-100763009D01*
X158557686Y-100569486D01*
X158606067Y-100472724D01*
X159186638Y-99601867D02*
X159235019Y-99698629D01*
X159235019Y-99892152D01*
X159186638Y-99988914D01*
X159089876Y-100037295D01*
X158702829Y-100037295D01*
X158606067Y-99988914D01*
X158557686Y-99892152D01*
X158557686Y-99698629D01*
X158606067Y-99601867D01*
X158702829Y-99553486D01*
X158799590Y-99553486D01*
X158896352Y-100037295D01*
D11*
X156250500Y-115155133D02*
X156190024Y-115276085D01*
X156190024Y-115457514D01*
X156250500Y-115638942D01*
X156371452Y-115759895D01*
X156492405Y-115820371D01*
X156734310Y-115880847D01*
X156915738Y-115880847D01*
X157157643Y-115820371D01*
X157278595Y-115759895D01*
X157399548Y-115638942D01*
X157460024Y-115457514D01*
X157460024Y-115336562D01*
X157399548Y-115155133D01*
X157339071Y-115094657D01*
X156915738Y-115094657D01*
X156915738Y-115336562D01*
X157399548Y-114066562D02*
X157460024Y-114187514D01*
X157460024Y-114429419D01*
X157399548Y-114550371D01*
X157278595Y-114610847D01*
X156794786Y-114610847D01*
X156673833Y-114550371D01*
X156613357Y-114429419D01*
X156613357Y-114187514D01*
X156673833Y-114066562D01*
X156794786Y-114006085D01*
X156915738Y-114006085D01*
X157036690Y-114610847D01*
X156613357Y-113461800D02*
X157460024Y-113461800D01*
X156734310Y-113461800D02*
X156673833Y-113401324D01*
X156613357Y-113280371D01*
X156613357Y-113098943D01*
X156673833Y-112977991D01*
X156794786Y-112917514D01*
X157460024Y-112917514D01*
X157460024Y-112312752D02*
X156190024Y-112312752D01*
X156190024Y-111828943D01*
X156250500Y-111707990D01*
X156310976Y-111647514D01*
X156431929Y-111587038D01*
X156613357Y-111587038D01*
X156734310Y-111647514D01*
X156794786Y-111707990D01*
X156855262Y-111828943D01*
X156855262Y-112312752D01*
X157460024Y-110861323D02*
X157399548Y-110982276D01*
X157339071Y-111042752D01*
X157218119Y-111103228D01*
X156855262Y-111103228D01*
X156734310Y-111042752D01*
X156673833Y-110982276D01*
X156613357Y-110861323D01*
X156613357Y-110679895D01*
X156673833Y-110558943D01*
X156734310Y-110498466D01*
X156855262Y-110437990D01*
X157218119Y-110437990D01*
X157339071Y-110498466D01*
X157399548Y-110558943D01*
X157460024Y-110679895D01*
X157460024Y-110861323D01*
X156613357Y-110014656D02*
X157460024Y-109772752D01*
X156855262Y-109530847D01*
X157460024Y-109288942D01*
X156613357Y-109047037D01*
X157399548Y-108079419D02*
X157460024Y-108200371D01*
X157460024Y-108442276D01*
X157399548Y-108563228D01*
X157278595Y-108623704D01*
X156794786Y-108623704D01*
X156673833Y-108563228D01*
X156613357Y-108442276D01*
X156613357Y-108200371D01*
X156673833Y-108079419D01*
X156794786Y-108018942D01*
X156915738Y-108018942D01*
X157036690Y-108623704D01*
X157460024Y-107474657D02*
X156613357Y-107474657D01*
X156855262Y-107474657D02*
X156734310Y-107414181D01*
X156673833Y-107353705D01*
X156613357Y-107232752D01*
X156613357Y-107111800D01*
X159604548Y-114550371D02*
X159665024Y-114368943D01*
X159665024Y-114066562D01*
X159604548Y-113945609D01*
X159544071Y-113885133D01*
X159423119Y-113824657D01*
X159302167Y-113824657D01*
X159181214Y-113885133D01*
X159120738Y-113945609D01*
X159060262Y-114066562D01*
X158999786Y-114308466D01*
X158939310Y-114429419D01*
X158878833Y-114489895D01*
X158757881Y-114550371D01*
X158636929Y-114550371D01*
X158515976Y-114489895D01*
X158455500Y-114429419D01*
X158395024Y-114308466D01*
X158395024Y-114006086D01*
X158455500Y-113824657D01*
X159665024Y-113098942D02*
X159604548Y-113219895D01*
X159544071Y-113280371D01*
X159423119Y-113340847D01*
X159060262Y-113340847D01*
X158939310Y-113280371D01*
X158878833Y-113219895D01*
X158818357Y-113098942D01*
X158818357Y-112917514D01*
X158878833Y-112796562D01*
X158939310Y-112736085D01*
X159060262Y-112675609D01*
X159423119Y-112675609D01*
X159544071Y-112736085D01*
X159604548Y-112796562D01*
X159665024Y-112917514D01*
X159665024Y-113098942D01*
X158818357Y-111587037D02*
X159665024Y-111587037D01*
X158818357Y-112131323D02*
X159483595Y-112131323D01*
X159604548Y-112070847D01*
X159665024Y-111949894D01*
X159665024Y-111768466D01*
X159604548Y-111647514D01*
X159544071Y-111587037D01*
X159665024Y-110982275D02*
X158818357Y-110982275D01*
X159060262Y-110982275D02*
X158939310Y-110921799D01*
X158878833Y-110861323D01*
X158818357Y-110740370D01*
X158818357Y-110619418D01*
X159604548Y-109651799D02*
X159665024Y-109772752D01*
X159665024Y-110014656D01*
X159604548Y-110135609D01*
X159544071Y-110196085D01*
X159423119Y-110256561D01*
X159060262Y-110256561D01*
X158939310Y-110196085D01*
X158878833Y-110135609D01*
X158818357Y-110014656D01*
X158818357Y-109772752D01*
X158878833Y-109651799D01*
X159604548Y-108623705D02*
X159665024Y-108744657D01*
X159665024Y-108986562D01*
X159604548Y-109107514D01*
X159483595Y-109167990D01*
X158999786Y-109167990D01*
X158878833Y-109107514D01*
X158818357Y-108986562D01*
X158818357Y-108744657D01*
X158878833Y-108623705D01*
X158999786Y-108563228D01*
X159120738Y-108563228D01*
X159241690Y-109167990D01*
X154602571Y-129706000D02*
X153102571Y-129706000D01*
X153102571Y-129134572D01*
X153174000Y-128991714D01*
X153245429Y-128920286D01*
X153388286Y-128848857D01*
X153602571Y-128848857D01*
X153745429Y-128920286D01*
X153816857Y-128991714D01*
X153888286Y-129134572D01*
X153888286Y-129706000D01*
X153602571Y-128206000D02*
X154602571Y-128206000D01*
X153745429Y-128206000D02*
X153674000Y-128134572D01*
X153602571Y-127991714D01*
X153602571Y-127777429D01*
X153674000Y-127634572D01*
X153816857Y-127563143D01*
X154602571Y-127563143D01*
X154531143Y-126277429D02*
X154602571Y-126420286D01*
X154602571Y-126706000D01*
X154531143Y-126848857D01*
X154388286Y-126920286D01*
X153816857Y-126920286D01*
X153674000Y-126848857D01*
X153602571Y-126706000D01*
X153602571Y-126420286D01*
X153674000Y-126277429D01*
X153816857Y-126206000D01*
X153959714Y-126206000D01*
X154102571Y-126920286D01*
X153602571Y-124920286D02*
X154602571Y-124920286D01*
X153602571Y-125563143D02*
X154388286Y-125563143D01*
X154531143Y-125491715D01*
X154602571Y-125348857D01*
X154602571Y-125134572D01*
X154531143Y-124991715D01*
X154459714Y-124920286D01*
X154602571Y-124206000D02*
X153602571Y-124206000D01*
X153745429Y-124206000D02*
X153674000Y-124134572D01*
X153602571Y-123991714D01*
X153602571Y-123777429D01*
X153674000Y-123634572D01*
X153816857Y-123563143D01*
X154602571Y-123563143D01*
X153816857Y-123563143D02*
X153674000Y-123491714D01*
X153602571Y-123348857D01*
X153602571Y-123134572D01*
X153674000Y-122991714D01*
X153816857Y-122920286D01*
X154602571Y-122920286D01*
X154602571Y-121563143D02*
X153816857Y-121563143D01*
X153674000Y-121634572D01*
X153602571Y-121777429D01*
X153602571Y-122063143D01*
X153674000Y-122206000D01*
X154531143Y-121563143D02*
X154602571Y-121706000D01*
X154602571Y-122063143D01*
X154531143Y-122206000D01*
X154388286Y-122277429D01*
X154245429Y-122277429D01*
X154102571Y-122206000D01*
X154031143Y-122063143D01*
X154031143Y-121706000D01*
X153959714Y-121563143D01*
X153602571Y-121063143D02*
X153602571Y-120491714D01*
X153102571Y-120848857D02*
X154388286Y-120848857D01*
X154531143Y-120777429D01*
X154602571Y-120634571D01*
X154602571Y-120491714D01*
X154602571Y-119991714D02*
X153602571Y-119991714D01*
X153102571Y-119991714D02*
X153174000Y-120063143D01*
X153245429Y-119991714D01*
X153174000Y-119920286D01*
X153102571Y-119991714D01*
X153245429Y-119991714D01*
X154531143Y-118634571D02*
X154602571Y-118777428D01*
X154602571Y-119063142D01*
X154531143Y-119206000D01*
X154459714Y-119277428D01*
X154316857Y-119348857D01*
X153888286Y-119348857D01*
X153745429Y-119277428D01*
X153674000Y-119206000D01*
X153602571Y-119063142D01*
X153602571Y-118777428D01*
X153674000Y-118634571D01*
D14*
X116840000Y4318000D02*
X116840000Y-160020000D01*
D11*
X147947771Y-70984857D02*
X146447771Y-70984857D01*
X146447771Y-70627714D01*
X146519200Y-70413429D01*
X146662057Y-70270571D01*
X146804914Y-70199143D01*
X147090629Y-70127714D01*
X147304914Y-70127714D01*
X147590629Y-70199143D01*
X147733486Y-70270571D01*
X147876343Y-70413429D01*
X147947771Y-70627714D01*
X147947771Y-70984857D01*
X146447771Y-69699143D02*
X147947771Y-69199143D01*
X146447771Y-68699143D01*
X147947771Y-67484857D02*
X147947771Y-68199143D01*
X146447771Y-68199143D01*
X147855714Y-58852285D02*
X147927143Y-58923714D01*
X147998571Y-59138000D01*
X147998571Y-59280857D01*
X147927143Y-59495142D01*
X147784286Y-59638000D01*
X147641429Y-59709428D01*
X147355714Y-59780857D01*
X147141429Y-59780857D01*
X146855714Y-59709428D01*
X146712857Y-59638000D01*
X146570000Y-59495142D01*
X146498571Y-59280857D01*
X146498571Y-59138000D01*
X146570000Y-58923714D01*
X146641429Y-58852285D01*
X146498571Y-57923714D02*
X146498571Y-57638000D01*
X146570000Y-57495142D01*
X146712857Y-57352285D01*
X146998571Y-57280857D01*
X147498571Y-57280857D01*
X147784286Y-57352285D01*
X147927143Y-57495142D01*
X147998571Y-57638000D01*
X147998571Y-57923714D01*
X147927143Y-58066571D01*
X147784286Y-58209428D01*
X147498571Y-58280857D01*
X146998571Y-58280857D01*
X146712857Y-58209428D01*
X146570000Y-58066571D01*
X146498571Y-57923714D01*
X147998571Y-56637999D02*
X146498571Y-56637999D01*
X147570000Y-56137999D01*
X146498571Y-55637999D01*
X147998571Y-55637999D01*
X146641429Y-53852285D02*
X146570000Y-53780856D01*
X146498571Y-53637999D01*
X146498571Y-53280856D01*
X146570000Y-53137999D01*
X146641429Y-53066570D01*
X146784286Y-52995142D01*
X146927143Y-52995142D01*
X147141429Y-53066570D01*
X147998571Y-53923713D01*
X147998571Y-52995142D01*
X147906514Y-46406285D02*
X147977943Y-46477714D01*
X148049371Y-46692000D01*
X148049371Y-46834857D01*
X147977943Y-47049142D01*
X147835086Y-47192000D01*
X147692229Y-47263428D01*
X147406514Y-47334857D01*
X147192229Y-47334857D01*
X146906514Y-47263428D01*
X146763657Y-47192000D01*
X146620800Y-47049142D01*
X146549371Y-46834857D01*
X146549371Y-46692000D01*
X146620800Y-46477714D01*
X146692229Y-46406285D01*
X146549371Y-45477714D02*
X146549371Y-45192000D01*
X146620800Y-45049142D01*
X146763657Y-44906285D01*
X147049371Y-44834857D01*
X147549371Y-44834857D01*
X147835086Y-44906285D01*
X147977943Y-45049142D01*
X148049371Y-45192000D01*
X148049371Y-45477714D01*
X147977943Y-45620571D01*
X147835086Y-45763428D01*
X147549371Y-45834857D01*
X147049371Y-45834857D01*
X146763657Y-45763428D01*
X146620800Y-45620571D01*
X146549371Y-45477714D01*
X148049371Y-44191999D02*
X146549371Y-44191999D01*
X147620800Y-43691999D01*
X146549371Y-43191999D01*
X148049371Y-43191999D01*
X148049371Y-40549142D02*
X148049371Y-41406285D01*
X148049371Y-40977713D02*
X146549371Y-40977713D01*
X146763657Y-41120570D01*
X146906514Y-41263428D01*
X146977943Y-41406285D01*
D14*
X91440000Y-119888000D02*
X91440000Y-260096000D01*
D15*
X147820000Y-4490000D02*
X146820000Y-4490000D01*
X146820000Y-3130000D02*
X147820000Y-3130000D01*
X124817000Y-238339000D02*
X124817000Y-237389000D01*
X114467000Y-238339000D02*
X114467000Y-237289000D01*
X114467000Y-227989000D02*
X114467000Y-229039000D01*
X124817000Y-227989000D02*
X124817000Y-229039000D01*
X124817000Y-238339000D02*
X123767000Y-238339000D01*
X124817000Y-227989000D02*
X123767000Y-227989000D01*
X114467000Y-227989000D02*
X115517000Y-227989000D01*
X114467000Y-238339000D02*
X115517000Y-238339000D01*
X124817000Y-237389000D02*
X126092000Y-237389000D01*
D16*
X156464000Y-121920000D02*
X156464000Y-129540000D01*
X156464000Y-129540000D02*
X161544000Y-129540000D01*
X161544000Y-129540000D02*
X161544000Y-119380000D01*
X161544000Y-119380000D02*
X159004000Y-119380000D01*
X157734000Y-119100000D02*
X156184000Y-119100000D01*
X159004000Y-119380000D02*
X159004000Y-121920000D01*
X159004000Y-121920000D02*
X156464000Y-121920000D01*
X156184000Y-119100000D02*
X156184000Y-120650000D01*
D15*
X153716000Y-260482000D02*
X161416000Y-260482000D01*
X153716000Y-261482000D02*
X161416000Y-261482000D01*
X161416000Y-261482000D02*
X161416000Y-252282000D01*
X161416000Y-252282000D02*
X153716000Y-252282000D01*
X153716000Y-252282000D02*
X153716000Y-261482000D01*
X138268000Y-240620000D02*
X139268000Y-240620000D01*
X139268000Y-241980000D02*
X138268000Y-241980000D01*
D17*
X135773160Y-198841360D02*
X135773160Y-187142120D01*
X135773160Y-187142120D02*
X133974840Y-187142120D01*
X133974840Y-198841360D02*
X133974840Y-187142120D01*
X133974840Y-200642220D02*
X135773160Y-200642220D01*
X135773160Y-200642220D02*
X135773160Y-208292700D01*
X135773160Y-208292700D02*
X133974840Y-208292700D01*
X133974840Y-208292700D02*
X133974840Y-200642220D01*
X133974840Y-198841360D02*
X135773160Y-198841360D01*
X131173220Y-206842360D02*
X129674620Y-206842360D01*
X129674620Y-206842360D02*
X129674620Y-210240880D01*
X129674620Y-210240880D02*
X131173220Y-210240880D01*
X131173220Y-198541640D02*
X129674620Y-198541640D01*
X129674620Y-198541640D02*
X129674620Y-205341220D01*
X129674620Y-205341220D02*
X131173220Y-205341220D01*
X129674620Y-190141860D02*
X129674620Y-196941440D01*
X129674620Y-196941440D02*
X131173220Y-196941440D01*
X131173220Y-190141860D02*
X129674620Y-190141860D01*
X131173220Y-185242200D02*
X129674620Y-185242200D01*
X129674620Y-185242200D02*
X129674620Y-188640720D01*
X129674620Y-188640720D02*
X131173220Y-188640720D01*
X138574780Y-185242200D02*
X131173220Y-185242200D01*
X131173220Y-185242200D02*
X131173220Y-210240880D01*
X131173220Y-210240880D02*
X138574780Y-210240880D01*
X138574780Y-210240880D02*
X138574780Y-185242200D01*
X92318840Y-104302560D02*
X92318840Y-116001800D01*
X90520520Y-116001800D02*
X90520520Y-104302560D01*
X90520520Y-116001800D02*
X92318840Y-116001800D01*
X96619060Y-112102900D02*
X96619060Y-117901720D01*
X96619060Y-68501260D02*
X95120460Y-68501260D01*
X96619060Y-61701680D02*
X95120460Y-61701680D01*
X96619060Y-60101480D02*
X95120460Y-60101480D01*
X96619060Y-53301900D02*
X95120460Y-53301900D01*
X96619060Y-51701700D02*
X95120460Y-51701700D01*
X96619060Y-44902120D02*
X95120460Y-44902120D01*
X96619060Y-43301920D02*
X95120460Y-43301920D01*
X96619060Y-36502340D02*
X95120460Y-36502340D01*
X96619060Y-28902660D02*
X96619060Y-34902140D01*
X96619060Y-36502340D02*
X96619060Y-43301920D01*
X96619060Y-51701700D02*
X96619060Y-44902120D01*
X96619060Y-53301900D02*
X96619060Y-60101480D01*
X96619060Y-68501260D02*
X96619060Y-61701680D01*
X92318840Y-102501700D02*
X92318840Y-30901640D01*
X90520520Y-30901640D02*
X90520520Y-102501700D01*
X87718900Y-28902660D02*
X87718900Y-117901720D01*
X95120460Y-117901720D02*
X95120460Y-28902660D01*
X87718900Y-28902660D02*
X96619060Y-28902660D01*
X96619060Y-70101460D02*
X95120460Y-70101460D01*
X95120460Y-76903580D02*
X96619060Y-76903580D01*
X96619060Y-78501240D02*
X95120460Y-78501240D01*
X95120460Y-85300820D02*
X96619060Y-85300820D01*
X96619060Y-85300820D02*
X96619060Y-78501240D01*
X96616520Y-76901040D02*
X96616520Y-70101460D01*
X96619060Y-34902140D02*
X95120460Y-34902140D01*
X96619060Y-86903560D02*
X95120460Y-86903560D01*
X96619060Y-93700600D02*
X95120460Y-93700600D01*
X96619060Y-93700600D02*
X96619060Y-86901020D01*
X92318840Y-102501700D02*
X90520520Y-102501700D01*
X90520520Y-30899100D02*
X92318840Y-30899100D01*
X92318840Y-104302560D02*
X90520520Y-104302560D01*
X95120460Y-102102920D02*
X96619060Y-102102920D01*
X96619060Y-102100380D02*
X96619060Y-95300800D01*
X96619060Y-95300800D02*
X95120460Y-95300800D01*
X96619060Y-110500160D02*
X96619060Y-103700580D01*
X96619060Y-103703120D02*
X95120460Y-103703120D01*
X95120460Y-110502700D02*
X96619060Y-110502700D01*
X95120460Y-117901720D02*
X96619060Y-117901720D01*
X96619060Y-112102900D02*
X95120460Y-112102900D01*
X87718900Y-117901720D02*
X95120460Y-117901720D01*
D16*
X155082000Y-63932000D02*
X148672000Y-63932000D01*
X155082000Y-63932000D02*
X155092000Y-75342000D01*
D10*
X154015820Y-64508900D02*
X149765820Y-64508900D01*
X149265820Y-65008900D02*
X149265820Y-73300717D01*
X149271555Y-73314736D02*
X150684942Y-74752919D01*
X150699206Y-74758900D02*
X153082434Y-74758900D01*
X153096698Y-74752919D02*
X154510085Y-73314736D01*
X154515820Y-73300717D02*
X154515820Y-65008900D01*
X149271555Y-73314736D02*
G75*
G02X149265820Y-73300717I14265J14019D01*
G01*
X150699207Y-74758900D02*
G75*
G02X150684942Y-74752919I-1J20000D01*
G01*
X153096699Y-74752919D02*
G75*
G02X153082434Y-74758900I-14265J14019D01*
G01*
X154015820Y-64508900D02*
G75*
G02X154515820Y-65008900I0J-500000D01*
G01*
X150942410Y-74158900D02*
X152839230Y-74158900D01*
X149865820Y-65108900D02*
X149865820Y-73063423D01*
X152839230Y-74158900D02*
X153915820Y-73063423D01*
X153915820Y-65108900D02*
X153915820Y-67962679D01*
X153915820Y-73055240D02*
X153915820Y-65128900D01*
X150942410Y-74158900D02*
X149865820Y-73063423D01*
X149865820Y-65108900D02*
X153915820Y-65108900D01*
X151024433Y-72633273D02*
G75*
G02X150890820Y-72133900I866387J499373D01*
G01*
X152890820Y-72133900D02*
G75*
G02X152756845Y-72633900I-1000000J0D01*
G01*
X152890820Y-67006900D02*
G75*
G02X150890820Y-67006900I-1000000J0D01*
G01*
X152757207Y-66507527D02*
G75*
G02X152890820Y-67006900I-866387J-499373D01*
G01*
X150890820Y-67006900D02*
G75*
G02X151024795Y-66506900I1000000J0D01*
G01*
X150890820Y-72133900D02*
G75*
G02X152890820Y-72133900I1000000J0D01*
G01*
X152756846Y-72633900D02*
G75*
G02X151024795Y-72633900I-866026J500000D01*
G01*
X151024794Y-66506900D02*
G75*
G02X152756845Y-66506900I866026J-500000D01*
G01*
X149265820Y-65008900D02*
G75*
G02X149765820Y-64508900I500000J0D01*
G01*
X154015820Y-64508900D02*
G75*
G02X154515820Y-65008900I0J-500000D01*
G01*
X154015820Y-64508900D02*
G75*
G02X154515820Y-65008900I0J-500000D01*
G01*
X154515821Y-73300717D02*
G75*
G02X154510085Y-73314736I-20001J0D01*
G01*
X153096699Y-74752919D02*
G75*
G02X153082434Y-74758900I-14265J14019D01*
G01*
X150699207Y-74758900D02*
G75*
G02X150684942Y-74752919I-1J20000D01*
G01*
X149271555Y-73314736D02*
G75*
G02X149265820Y-73300717I14265J14019D01*
G01*
X152890820Y-67006900D02*
G75*
G02X150890820Y-67006900I-1000000J0D01*
G01*
X152757207Y-66507527D02*
G75*
G02X152890820Y-67006900I-866387J-499373D01*
G01*
X150890820Y-67006900D02*
G75*
G02X151024795Y-66506900I1000000J0D01*
G01*
X150890820Y-72133900D02*
G75*
G02X152890820Y-72133900I1000000J0D01*
G01*
X152756846Y-72633900D02*
G75*
G02X151024795Y-72633900I-866026J500000D01*
G01*
X151024794Y-66506900D02*
G75*
G02X152756845Y-66506900I866026J-500000D01*
G01*
X149265820Y-65008900D02*
G75*
G02X149765820Y-64508900I500000J0D01*
G01*
X154015820Y-64508900D02*
G75*
G02X154515820Y-65008900I0J-500000D01*
G01*
X154015820Y-64508900D02*
G75*
G02X154515820Y-65008900I0J-500000D01*
G01*
X154515821Y-73300717D02*
G75*
G02X154510085Y-73314736I-20001J0D01*
G01*
X153096699Y-74752919D02*
G75*
G02X153082434Y-74758900I-14265J14019D01*
G01*
X150699207Y-74758900D02*
G75*
G02X150684942Y-74752919I-1J20000D01*
G01*
X149271555Y-73314736D02*
G75*
G02X149265820Y-73300717I14265J14019D01*
G01*
X154015820Y-64508900D02*
X149765820Y-64508900D01*
X149265820Y-65008900D02*
X149265820Y-73300717D01*
X149271555Y-73314736D02*
X150684942Y-74752919D01*
X150699206Y-74758900D02*
X153082434Y-74758900D01*
X153096698Y-74752919D02*
X154510085Y-73314736D01*
X154515820Y-73300717D02*
X154515820Y-65008900D01*
X149271555Y-73314736D02*
G75*
G02X149265820Y-73300717I14265J14019D01*
G01*
X150699207Y-74758900D02*
G75*
G02X150684942Y-74752919I-1J20000D01*
G01*
X153096699Y-74752919D02*
G75*
G02X153082434Y-74758900I-14265J14019D01*
G01*
X154015820Y-64508900D02*
G75*
G02X154515820Y-65008900I0J-500000D01*
G01*
X150942410Y-74158900D02*
X152839230Y-74158900D01*
X149865820Y-65108900D02*
X149865820Y-73063423D01*
X152839230Y-74158900D02*
X153915820Y-73063423D01*
X153915820Y-65108900D02*
X153915820Y-67962679D01*
X153915820Y-73055240D02*
X153915820Y-65128900D01*
X150942410Y-74158900D02*
X149865820Y-73063423D01*
X149865820Y-65108900D02*
X153915820Y-65108900D01*
X151024433Y-72633273D02*
G75*
G02X150890820Y-72133900I866387J499373D01*
G01*
X152890820Y-72133900D02*
G75*
G02X152756845Y-72633900I-1000000J0D01*
G01*
D16*
X155082000Y-63932000D02*
X155092000Y-75342000D01*
X148672000Y-63932000D02*
X148682000Y-75342000D01*
X148672000Y-63932000D02*
X148682000Y-75342000D01*
X155092000Y-75342000D02*
X148682000Y-75342000D01*
D15*
X142760000Y-251090000D02*
X143460000Y-251090000D01*
X143460000Y-252290000D02*
X142760000Y-252290000D01*
X164176000Y-238852000D02*
X164176000Y-239552000D01*
X162976000Y-239552000D02*
X162976000Y-238852000D01*
X110074000Y-211744000D02*
X110774000Y-211744000D01*
X110774000Y-212944000D02*
X110074000Y-212944000D01*
X106710000Y-221326000D02*
X106010000Y-221326000D01*
X106010000Y-220126000D02*
X106710000Y-220126000D01*
X116362000Y-212944000D02*
X115662000Y-212944000D01*
X115662000Y-211744000D02*
X116362000Y-211744000D01*
X132558000Y-226222000D02*
X133258000Y-226222000D01*
X133258000Y-227422000D02*
X132558000Y-227422000D01*
X138146000Y-238668000D02*
X138846000Y-238668000D01*
X138846000Y-239868000D02*
X138146000Y-239868000D01*
X139800000Y-221782000D02*
X140500000Y-221782000D01*
X140500000Y-222982000D02*
X139800000Y-222982000D01*
X99780000Y-238598000D02*
X99080000Y-238598000D01*
X99080000Y-237398000D02*
X99780000Y-237398000D01*
X150784000Y-240568000D02*
X150784000Y-239868000D01*
X151984000Y-239868000D02*
X151984000Y-240568000D01*
X145888000Y-239868000D02*
X145888000Y-240568000D01*
X144688000Y-240568000D02*
X144688000Y-239868000D01*
X123490000Y-250103528D02*
X123490000Y-250803528D01*
X122290000Y-250803528D02*
X122290000Y-250103528D01*
X98544000Y-246168000D02*
X98544000Y-246868000D01*
X97344000Y-246868000D02*
X97344000Y-246168000D01*
X121990000Y-250120000D02*
X121990000Y-250820000D01*
X120790000Y-250820000D02*
X120790000Y-250120000D01*
X118490000Y-250150000D02*
X118490000Y-250850000D01*
X117290000Y-250850000D02*
X117290000Y-250150000D01*
X99780000Y-236020000D02*
X99080000Y-236020000D01*
X99080000Y-234820000D02*
X99780000Y-234820000D01*
X118780000Y-215234000D02*
X118780000Y-214534000D01*
X119980000Y-214534000D02*
X119980000Y-215234000D01*
X99730000Y-231994000D02*
X99030000Y-231994000D01*
X99030000Y-230794000D02*
X99730000Y-230794000D01*
X121828000Y-215168000D02*
X121828000Y-214468000D01*
X123028000Y-214468000D02*
X123028000Y-215168000D01*
X105549000Y-244968000D02*
X105549000Y-244268000D01*
X106749000Y-244268000D02*
X106749000Y-244968000D01*
X119282000Y-195652000D02*
X118582000Y-195652000D01*
X118582000Y-194452000D02*
X119282000Y-194452000D01*
X113833267Y-244261749D02*
X113833267Y-244961749D01*
X112633267Y-244961749D02*
X112633267Y-244261749D01*
X84358000Y-108804000D02*
X83658000Y-108804000D01*
X83658000Y-107604000D02*
X84358000Y-107604000D01*
X145192000Y-95920000D02*
X145892000Y-95920000D01*
X145892000Y-97120000D02*
X145192000Y-97120000D01*
X160468000Y-103438000D02*
X163128000Y-103438000D01*
X160468000Y-98298000D02*
X160468000Y-103438000D01*
X163128000Y-98298000D02*
X163128000Y-103438000D01*
X160468000Y-98298000D02*
X163128000Y-98298000D01*
X160468000Y-97028000D02*
X160468000Y-95698000D01*
X160468000Y-95698000D02*
X161798000Y-95698000D01*
X160468000Y-114868000D02*
X163128000Y-114868000D01*
X160468000Y-109728000D02*
X160468000Y-114868000D01*
X163128000Y-109728000D02*
X163128000Y-114868000D01*
X160468000Y-109728000D02*
X163128000Y-109728000D01*
X160468000Y-108458000D02*
X160468000Y-107128000D01*
X160468000Y-107128000D02*
X161798000Y-107128000D01*
D16*
X165603000Y-89727000D02*
X163028000Y-89727000D01*
X155453000Y-89677000D02*
X158028000Y-89677000D01*
X163028000Y-87902000D02*
X158028000Y-87902000D01*
X163028000Y-89702000D02*
X163028000Y-87902000D01*
X158028000Y-89702000D02*
X158028000Y-87902000D01*
X155448000Y-94732000D02*
X155448000Y-95132000D01*
X155448000Y-92232000D02*
X155448000Y-94732000D01*
X155448000Y-89732000D02*
X155448000Y-89692000D01*
X155448000Y-92232000D02*
X155448000Y-89732000D01*
X155448000Y-89732000D02*
X155448000Y-89692000D01*
X155448000Y-92232000D02*
X155448000Y-89732000D01*
X165618000Y-94722986D02*
X165618000Y-95122986D01*
X165618000Y-92222986D02*
X165618000Y-94722986D01*
X165618000Y-92222986D02*
X165618000Y-89722986D01*
X160628000Y-95132986D02*
X160548000Y-95132986D01*
X165628000Y-95142986D02*
X160628000Y-95132986D01*
X160528000Y-95132000D02*
X155528000Y-95122000D01*
X155528000Y-95122000D02*
X155448000Y-95122000D01*
X155453000Y-81977000D02*
X158028000Y-81977000D01*
X165603000Y-82027000D02*
X163028000Y-82027000D01*
X158028000Y-83802000D02*
X163028000Y-83802000D01*
X158028000Y-82002000D02*
X158028000Y-83802000D01*
X163028000Y-82002000D02*
X163028000Y-83802000D01*
X165608000Y-76972000D02*
X165608000Y-76572000D01*
X165608000Y-79472000D02*
X165608000Y-76972000D01*
X165608000Y-81972000D02*
X165608000Y-82012000D01*
X165608000Y-79472000D02*
X165608000Y-81972000D01*
X165608000Y-81972000D02*
X165608000Y-82012000D01*
X165608000Y-79472000D02*
X165608000Y-81972000D01*
X155438000Y-76981014D02*
X155438000Y-76581014D01*
X155438000Y-79481014D02*
X155438000Y-76981014D01*
X155438000Y-79481014D02*
X155438000Y-81981014D01*
X160428000Y-76571014D02*
X160508000Y-76571014D01*
X155428000Y-76561014D02*
X160428000Y-76571014D01*
X160528000Y-76572000D02*
X165528000Y-76582000D01*
X165528000Y-76582000D02*
X165608000Y-76582000D01*
D15*
X119232000Y-191652000D02*
X118532000Y-191652000D01*
X118532000Y-190452000D02*
X119232000Y-190452000D01*
X83748000Y-110062000D02*
X84448000Y-110062000D01*
X84448000Y-111262000D02*
X83748000Y-111262000D01*
X145794724Y-90018200D02*
X144794724Y-90018200D01*
X144794724Y-91718200D02*
X145794724Y-91718200D01*
X148936000Y-239868000D02*
X148936000Y-240568000D01*
X147736000Y-240568000D02*
X147736000Y-239868000D01*
X110764000Y-244268000D02*
X110764000Y-244968000D01*
X109564000Y-244968000D02*
X109564000Y-244268000D01*
D16*
X163972000Y-63932000D02*
X157562000Y-63932000D01*
X163972000Y-63932000D02*
X163982000Y-75342000D01*
D10*
X162905820Y-64508900D02*
X158655820Y-64508900D01*
X158155820Y-65008900D02*
X158155820Y-73300717D01*
X158161555Y-73314736D02*
X159574942Y-74752919D01*
X159589206Y-74758900D02*
X161972434Y-74758900D01*
X161986698Y-74752919D02*
X163400085Y-73314736D01*
X163405820Y-73300717D02*
X163405820Y-65008900D01*
X158161555Y-73314736D02*
G75*
G02X158155820Y-73300717I14265J14019D01*
G01*
X159589207Y-74758900D02*
G75*
G02X159574942Y-74752919I-1J20000D01*
G01*
X161986699Y-74752919D02*
G75*
G02X161972434Y-74758900I-14265J14019D01*
G01*
X162905820Y-64508900D02*
G75*
G02X163405820Y-65008900I0J-500000D01*
G01*
X159832410Y-74158900D02*
X161729230Y-74158900D01*
X158755820Y-65108900D02*
X158755820Y-73063423D01*
X161729230Y-74158900D02*
X162805820Y-73063423D01*
X162805820Y-65108900D02*
X162805820Y-67962679D01*
X162805820Y-73055240D02*
X162805820Y-65128900D01*
X159832410Y-74158900D02*
X158755820Y-73063423D01*
X158755820Y-65108900D02*
X162805820Y-65108900D01*
X159914433Y-72633273D02*
G75*
G02X159780820Y-72133900I866387J499373D01*
G01*
X161780820Y-72133900D02*
G75*
G02X161646845Y-72633900I-1000000J0D01*
G01*
X161780820Y-67006900D02*
G75*
G02X159780820Y-67006900I-1000000J0D01*
G01*
X161647207Y-66507527D02*
G75*
G02X161780820Y-67006900I-866387J-499373D01*
G01*
X159780820Y-67006900D02*
G75*
G02X159914795Y-66506900I1000000J0D01*
G01*
X159780820Y-72133900D02*
G75*
G02X161780820Y-72133900I1000000J0D01*
G01*
X161646846Y-72633900D02*
G75*
G02X159914795Y-72633900I-866026J500000D01*
G01*
X159914794Y-66506900D02*
G75*
G02X161646845Y-66506900I866026J-500000D01*
G01*
X158155820Y-65008900D02*
G75*
G02X158655820Y-64508900I500000J0D01*
G01*
X162905820Y-64508900D02*
G75*
G02X163405820Y-65008900I0J-500000D01*
G01*
X162905820Y-64508900D02*
G75*
G02X163405820Y-65008900I0J-500000D01*
G01*
X163405821Y-73300717D02*
G75*
G02X163400085Y-73314736I-20001J0D01*
G01*
X161986699Y-74752919D02*
G75*
G02X161972434Y-74758900I-14265J14019D01*
G01*
X159589207Y-74758900D02*
G75*
G02X159574942Y-74752919I-1J20000D01*
G01*
X158161555Y-73314736D02*
G75*
G02X158155820Y-73300717I14265J14019D01*
G01*
X161780820Y-67006900D02*
G75*
G02X159780820Y-67006900I-1000000J0D01*
G01*
X161647207Y-66507527D02*
G75*
G02X161780820Y-67006900I-866387J-499373D01*
G01*
X159780820Y-67006900D02*
G75*
G02X159914795Y-66506900I1000000J0D01*
G01*
X159780820Y-72133900D02*
G75*
G02X161780820Y-72133900I1000000J0D01*
G01*
X161646846Y-72633900D02*
G75*
G02X159914795Y-72633900I-866026J500000D01*
G01*
X159914794Y-66506900D02*
G75*
G02X161646845Y-66506900I866026J-500000D01*
G01*
X158155820Y-65008900D02*
G75*
G02X158655820Y-64508900I500000J0D01*
G01*
X162905820Y-64508900D02*
G75*
G02X163405820Y-65008900I0J-500000D01*
G01*
X162905820Y-64508900D02*
G75*
G02X163405820Y-65008900I0J-500000D01*
G01*
X163405821Y-73300717D02*
G75*
G02X163400085Y-73314736I-20001J0D01*
G01*
X161986699Y-74752919D02*
G75*
G02X161972434Y-74758900I-14265J14019D01*
G01*
X159589207Y-74758900D02*
G75*
G02X159574942Y-74752919I-1J20000D01*
G01*
X158161555Y-73314736D02*
G75*
G02X158155820Y-73300717I14265J14019D01*
G01*
X162905820Y-64508900D02*
X158655820Y-64508900D01*
X158155820Y-65008900D02*
X158155820Y-73300717D01*
X158161555Y-73314736D02*
X159574942Y-74752919D01*
X159589206Y-74758900D02*
X161972434Y-74758900D01*
X161986698Y-74752919D02*
X163400085Y-73314736D01*
X163405820Y-73300717D02*
X163405820Y-65008900D01*
X158161555Y-73314736D02*
G75*
G02X158155820Y-73300717I14265J14019D01*
G01*
X159589207Y-74758900D02*
G75*
G02X159574942Y-74752919I-1J20000D01*
G01*
X161986699Y-74752919D02*
G75*
G02X161972434Y-74758900I-14265J14019D01*
G01*
X162905820Y-64508900D02*
G75*
G02X163405820Y-65008900I0J-500000D01*
G01*
X159832410Y-74158900D02*
X161729230Y-74158900D01*
X158755820Y-65108900D02*
X158755820Y-73063423D01*
X161729230Y-74158900D02*
X162805820Y-73063423D01*
X162805820Y-65108900D02*
X162805820Y-67962679D01*
X162805820Y-73055240D02*
X162805820Y-65128900D01*
X159832410Y-74158900D02*
X158755820Y-73063423D01*
X158755820Y-65108900D02*
X162805820Y-65108900D01*
X159914433Y-72633273D02*
G75*
G02X159780820Y-72133900I866387J499373D01*
G01*
X161780820Y-72133900D02*
G75*
G02X161646845Y-72633900I-1000000J0D01*
G01*
D16*
X163972000Y-63932000D02*
X163982000Y-75342000D01*
X157562000Y-63932000D02*
X157572000Y-75342000D01*
X157562000Y-63932000D02*
X157572000Y-75342000D01*
X163982000Y-75342000D02*
X157572000Y-75342000D01*
X155082000Y-38532000D02*
X148672000Y-38532000D01*
X155082000Y-38532000D02*
X155092000Y-49942000D01*
D10*
X154015820Y-39108900D02*
X149765820Y-39108900D01*
X149265820Y-39608900D02*
X149265820Y-47900717D01*
X149271555Y-47914736D02*
X150684942Y-49352919D01*
X150699206Y-49358900D02*
X153082434Y-49358900D01*
X153096698Y-49352919D02*
X154510085Y-47914736D01*
X154515820Y-47900717D02*
X154515820Y-39608900D01*
X149271555Y-47914736D02*
G75*
G02X149265820Y-47900717I14265J14019D01*
G01*
X150699207Y-49358900D02*
G75*
G02X150684942Y-49352919I-1J20000D01*
G01*
X153096699Y-49352919D02*
G75*
G02X153082434Y-49358900I-14265J14019D01*
G01*
X154015820Y-39108900D02*
G75*
G02X154515820Y-39608900I0J-500000D01*
G01*
X150942410Y-48758900D02*
X152839230Y-48758900D01*
X149865820Y-39708900D02*
X149865820Y-47663423D01*
X152839230Y-48758900D02*
X153915820Y-47663423D01*
X153915820Y-39708900D02*
X153915820Y-42562679D01*
X153915820Y-47655240D02*
X153915820Y-39728900D01*
X150942410Y-48758900D02*
X149865820Y-47663423D01*
X149865820Y-39708900D02*
X153915820Y-39708900D01*
X151024433Y-47233273D02*
G75*
G02X150890820Y-46733900I866387J499373D01*
G01*
X152890820Y-46733900D02*
G75*
G02X152756845Y-47233900I-1000000J0D01*
G01*
X152890820Y-41606900D02*
G75*
G02X150890820Y-41606900I-1000000J0D01*
G01*
X152757207Y-41107527D02*
G75*
G02X152890820Y-41606900I-866387J-499373D01*
G01*
X150890820Y-41606900D02*
G75*
G02X151024795Y-41106900I1000000J0D01*
G01*
X150890820Y-46733900D02*
G75*
G02X152890820Y-46733900I1000000J0D01*
G01*
X152756846Y-47233900D02*
G75*
G02X151024795Y-47233900I-866026J500000D01*
G01*
X151024794Y-41106900D02*
G75*
G02X152756845Y-41106900I866026J-500000D01*
G01*
X149265820Y-39608900D02*
G75*
G02X149765820Y-39108900I500000J0D01*
G01*
X154015820Y-39108900D02*
G75*
G02X154515820Y-39608900I0J-500000D01*
G01*
X154015820Y-39108900D02*
G75*
G02X154515820Y-39608900I0J-500000D01*
G01*
X154515821Y-47900717D02*
G75*
G02X154510085Y-47914736I-20001J0D01*
G01*
X153096699Y-49352919D02*
G75*
G02X153082434Y-49358900I-14265J14019D01*
G01*
X150699207Y-49358900D02*
G75*
G02X150684942Y-49352919I-1J20000D01*
G01*
X149271555Y-47914736D02*
G75*
G02X149265820Y-47900717I14265J14019D01*
G01*
X152890820Y-41606900D02*
G75*
G02X150890820Y-41606900I-1000000J0D01*
G01*
X152757207Y-41107527D02*
G75*
G02X152890820Y-41606900I-866387J-499373D01*
G01*
X150890820Y-41606900D02*
G75*
G02X151024795Y-41106900I1000000J0D01*
G01*
X150890820Y-46733900D02*
G75*
G02X152890820Y-46733900I1000000J0D01*
G01*
X152756846Y-47233900D02*
G75*
G02X151024795Y-47233900I-866026J500000D01*
G01*
X151024794Y-41106900D02*
G75*
G02X152756845Y-41106900I866026J-500000D01*
G01*
X149265820Y-39608900D02*
G75*
G02X149765820Y-39108900I500000J0D01*
G01*
X154015820Y-39108900D02*
G75*
G02X154515820Y-39608900I0J-500000D01*
G01*
X154015820Y-39108900D02*
G75*
G02X154515820Y-39608900I0J-500000D01*
G01*
X154515821Y-47900717D02*
G75*
G02X154510085Y-47914736I-20001J0D01*
G01*
X153096699Y-49352919D02*
G75*
G02X153082434Y-49358900I-14265J14019D01*
G01*
X150699207Y-49358900D02*
G75*
G02X150684942Y-49352919I-1J20000D01*
G01*
X149271555Y-47914736D02*
G75*
G02X149265820Y-47900717I14265J14019D01*
G01*
X154015820Y-39108900D02*
X149765820Y-39108900D01*
X149265820Y-39608900D02*
X149265820Y-47900717D01*
X149271555Y-47914736D02*
X150684942Y-49352919D01*
X150699206Y-49358900D02*
X153082434Y-49358900D01*
X153096698Y-49352919D02*
X154510085Y-47914736D01*
X154515820Y-47900717D02*
X154515820Y-39608900D01*
X149271555Y-47914736D02*
G75*
G02X149265820Y-47900717I14265J14019D01*
G01*
X150699207Y-49358900D02*
G75*
G02X150684942Y-49352919I-1J20000D01*
G01*
X153096699Y-49352919D02*
G75*
G02X153082434Y-49358900I-14265J14019D01*
G01*
X154015820Y-39108900D02*
G75*
G02X154515820Y-39608900I0J-500000D01*
G01*
X150942410Y-48758900D02*
X152839230Y-48758900D01*
X149865820Y-39708900D02*
X149865820Y-47663423D01*
X152839230Y-48758900D02*
X153915820Y-47663423D01*
X153915820Y-39708900D02*
X153915820Y-42562679D01*
X153915820Y-47655240D02*
X153915820Y-39728900D01*
X150942410Y-48758900D02*
X149865820Y-47663423D01*
X149865820Y-39708900D02*
X153915820Y-39708900D01*
X151024433Y-47233273D02*
G75*
G02X150890820Y-46733900I866387J499373D01*
G01*
X152890820Y-46733900D02*
G75*
G02X152756845Y-47233900I-1000000J0D01*
G01*
D16*
X155082000Y-38532000D02*
X155092000Y-49942000D01*
X148672000Y-38532000D02*
X148682000Y-49942000D01*
X148672000Y-38532000D02*
X148682000Y-49942000D01*
X155092000Y-49942000D02*
X148682000Y-49942000D01*
X155082000Y-50978000D02*
X148672000Y-50978000D01*
X155082000Y-50978000D02*
X155092000Y-62388000D01*
D10*
X154015820Y-51554900D02*
X149765820Y-51554900D01*
X149265820Y-52054900D02*
X149265820Y-60346717D01*
X149271555Y-60360736D02*
X150684942Y-61798919D01*
X150699206Y-61804900D02*
X153082434Y-61804900D01*
X153096698Y-61798919D02*
X154510085Y-60360736D01*
X154515820Y-60346717D02*
X154515820Y-52054900D01*
X149271555Y-60360736D02*
G75*
G02X149265820Y-60346717I14265J14019D01*
G01*
X150699207Y-61804900D02*
G75*
G02X150684942Y-61798919I-1J20000D01*
G01*
X153096699Y-61798919D02*
G75*
G02X153082434Y-61804900I-14265J14019D01*
G01*
X154015820Y-51554900D02*
G75*
G02X154515820Y-52054900I0J-500000D01*
G01*
X150942410Y-61204900D02*
X152839230Y-61204900D01*
X149865820Y-52154900D02*
X149865820Y-60109423D01*
X152839230Y-61204900D02*
X153915820Y-60109423D01*
X153915820Y-52154900D02*
X153915820Y-55008679D01*
X153915820Y-60101240D02*
X153915820Y-52174900D01*
X150942410Y-61204900D02*
X149865820Y-60109423D01*
X149865820Y-52154900D02*
X153915820Y-52154900D01*
X151024433Y-59679273D02*
G75*
G02X150890820Y-59179900I866387J499373D01*
G01*
X152890820Y-59179900D02*
G75*
G02X152756845Y-59679900I-1000000J0D01*
G01*
X152890820Y-54052900D02*
G75*
G02X150890820Y-54052900I-1000000J0D01*
G01*
X152757207Y-53553527D02*
G75*
G02X152890820Y-54052900I-866387J-499373D01*
G01*
X150890820Y-54052900D02*
G75*
G02X151024795Y-53552900I1000000J0D01*
G01*
X150890820Y-59179900D02*
G75*
G02X152890820Y-59179900I1000000J0D01*
G01*
X152756846Y-59679900D02*
G75*
G02X151024795Y-59679900I-866026J500000D01*
G01*
X151024794Y-53552900D02*
G75*
G02X152756845Y-53552900I866026J-500000D01*
G01*
X149265820Y-52054900D02*
G75*
G02X149765820Y-51554900I500000J0D01*
G01*
X154015820Y-51554900D02*
G75*
G02X154515820Y-52054900I0J-500000D01*
G01*
X154015820Y-51554900D02*
G75*
G02X154515820Y-52054900I0J-500000D01*
G01*
X154515821Y-60346717D02*
G75*
G02X154510085Y-60360736I-20001J0D01*
G01*
X153096699Y-61798919D02*
G75*
G02X153082434Y-61804900I-14265J14019D01*
G01*
X150699207Y-61804900D02*
G75*
G02X150684942Y-61798919I-1J20000D01*
G01*
X149271555Y-60360736D02*
G75*
G02X149265820Y-60346717I14265J14019D01*
G01*
X152890820Y-54052900D02*
G75*
G02X150890820Y-54052900I-1000000J0D01*
G01*
X152757207Y-53553527D02*
G75*
G02X152890820Y-54052900I-866387J-499373D01*
G01*
X150890820Y-54052900D02*
G75*
G02X151024795Y-53552900I1000000J0D01*
G01*
X150890820Y-59179900D02*
G75*
G02X152890820Y-59179900I1000000J0D01*
G01*
X152756846Y-59679900D02*
G75*
G02X151024795Y-59679900I-866026J500000D01*
G01*
X151024794Y-53552900D02*
G75*
G02X152756845Y-53552900I866026J-500000D01*
G01*
X149265820Y-52054900D02*
G75*
G02X149765820Y-51554900I500000J0D01*
G01*
X154015820Y-51554900D02*
G75*
G02X154515820Y-52054900I0J-500000D01*
G01*
X154015820Y-51554900D02*
G75*
G02X154515820Y-52054900I0J-500000D01*
G01*
X154515821Y-60346717D02*
G75*
G02X154510085Y-60360736I-20001J0D01*
G01*
X153096699Y-61798919D02*
G75*
G02X153082434Y-61804900I-14265J14019D01*
G01*
X150699207Y-61804900D02*
G75*
G02X150684942Y-61798919I-1J20000D01*
G01*
X149271555Y-60360736D02*
G75*
G02X149265820Y-60346717I14265J14019D01*
G01*
X154015820Y-51554900D02*
X149765820Y-51554900D01*
X149265820Y-52054900D02*
X149265820Y-60346717D01*
X149271555Y-60360736D02*
X150684942Y-61798919D01*
X150699206Y-61804900D02*
X153082434Y-61804900D01*
X153096698Y-61798919D02*
X154510085Y-60360736D01*
X154515820Y-60346717D02*
X154515820Y-52054900D01*
X149271555Y-60360736D02*
G75*
G02X149265820Y-60346717I14265J14019D01*
G01*
X150699207Y-61804900D02*
G75*
G02X150684942Y-61798919I-1J20000D01*
G01*
X153096699Y-61798919D02*
G75*
G02X153082434Y-61804900I-14265J14019D01*
G01*
X154015820Y-51554900D02*
G75*
G02X154515820Y-52054900I0J-500000D01*
G01*
X150942410Y-61204900D02*
X152839230Y-61204900D01*
X149865820Y-52154900D02*
X149865820Y-60109423D01*
X152839230Y-61204900D02*
X153915820Y-60109423D01*
X153915820Y-52154900D02*
X153915820Y-55008679D01*
X153915820Y-60101240D02*
X153915820Y-52174900D01*
X150942410Y-61204900D02*
X149865820Y-60109423D01*
X149865820Y-52154900D02*
X153915820Y-52154900D01*
X151024433Y-59679273D02*
G75*
G02X150890820Y-59179900I866387J499373D01*
G01*
X152890820Y-59179900D02*
G75*
G02X152756845Y-59679900I-1000000J0D01*
G01*
D16*
X155082000Y-50978000D02*
X155092000Y-62388000D01*
X148672000Y-50978000D02*
X148682000Y-62388000D01*
X148672000Y-50978000D02*
X148682000Y-62388000D01*
X155092000Y-62388000D02*
X148682000Y-62388000D01*
X163972000Y-50978000D02*
X157562000Y-50978000D01*
X163972000Y-50978000D02*
X163982000Y-62388000D01*
D10*
X162905820Y-51554900D02*
X158655820Y-51554900D01*
X158155820Y-52054900D02*
X158155820Y-60346717D01*
X158161555Y-60360736D02*
X159574942Y-61798919D01*
X159589206Y-61804900D02*
X161972434Y-61804900D01*
X161986698Y-61798919D02*
X163400085Y-60360736D01*
X163405820Y-60346717D02*
X163405820Y-52054900D01*
X158161555Y-60360736D02*
G75*
G02X158155820Y-60346717I14265J14019D01*
G01*
X159589207Y-61804900D02*
G75*
G02X159574942Y-61798919I-1J20000D01*
G01*
X161986699Y-61798919D02*
G75*
G02X161972434Y-61804900I-14265J14019D01*
G01*
X162905820Y-51554900D02*
G75*
G02X163405820Y-52054900I0J-500000D01*
G01*
X159832410Y-61204900D02*
X161729230Y-61204900D01*
X158755820Y-52154900D02*
X158755820Y-60109423D01*
X161729230Y-61204900D02*
X162805820Y-60109423D01*
X162805820Y-52154900D02*
X162805820Y-55008679D01*
X162805820Y-60101240D02*
X162805820Y-52174900D01*
X159832410Y-61204900D02*
X158755820Y-60109423D01*
X158755820Y-52154900D02*
X162805820Y-52154900D01*
X159914433Y-59679273D02*
G75*
G02X159780820Y-59179900I866387J499373D01*
G01*
X161780820Y-59179900D02*
G75*
G02X161646845Y-59679900I-1000000J0D01*
G01*
X161780820Y-54052900D02*
G75*
G02X159780820Y-54052900I-1000000J0D01*
G01*
X161647207Y-53553527D02*
G75*
G02X161780820Y-54052900I-866387J-499373D01*
G01*
X159780820Y-54052900D02*
G75*
G02X159914795Y-53552900I1000000J0D01*
G01*
X159780820Y-59179900D02*
G75*
G02X161780820Y-59179900I1000000J0D01*
G01*
X161646846Y-59679900D02*
G75*
G02X159914795Y-59679900I-866026J500000D01*
G01*
X159914794Y-53552900D02*
G75*
G02X161646845Y-53552900I866026J-500000D01*
G01*
X158155820Y-52054900D02*
G75*
G02X158655820Y-51554900I500000J0D01*
G01*
X162905820Y-51554900D02*
G75*
G02X163405820Y-52054900I0J-500000D01*
G01*
X162905820Y-51554900D02*
G75*
G02X163405820Y-52054900I0J-500000D01*
G01*
X163405821Y-60346717D02*
G75*
G02X163400085Y-60360736I-20001J0D01*
G01*
X161986699Y-61798919D02*
G75*
G02X161972434Y-61804900I-14265J14019D01*
G01*
X159589207Y-61804900D02*
G75*
G02X159574942Y-61798919I-1J20000D01*
G01*
X158161555Y-60360736D02*
G75*
G02X158155820Y-60346717I14265J14019D01*
G01*
X161780820Y-54052900D02*
G75*
G02X159780820Y-54052900I-1000000J0D01*
G01*
X161647207Y-53553527D02*
G75*
G02X161780820Y-54052900I-866387J-499373D01*
G01*
X159780820Y-54052900D02*
G75*
G02X159914795Y-53552900I1000000J0D01*
G01*
X159780820Y-59179900D02*
G75*
G02X161780820Y-59179900I1000000J0D01*
G01*
X161646846Y-59679900D02*
G75*
G02X159914795Y-59679900I-866026J500000D01*
G01*
X159914794Y-53552900D02*
G75*
G02X161646845Y-53552900I866026J-500000D01*
G01*
X158155820Y-52054900D02*
G75*
G02X158655820Y-51554900I500000J0D01*
G01*
X162905820Y-51554900D02*
G75*
G02X163405820Y-52054900I0J-500000D01*
G01*
X162905820Y-51554900D02*
G75*
G02X163405820Y-52054900I0J-500000D01*
G01*
X163405821Y-60346717D02*
G75*
G02X163400085Y-60360736I-20001J0D01*
G01*
X161986699Y-61798919D02*
G75*
G02X161972434Y-61804900I-14265J14019D01*
G01*
X159589207Y-61804900D02*
G75*
G02X159574942Y-61798919I-1J20000D01*
G01*
X158161555Y-60360736D02*
G75*
G02X158155820Y-60346717I14265J14019D01*
G01*
X162905820Y-51554900D02*
X158655820Y-51554900D01*
X158155820Y-52054900D02*
X158155820Y-60346717D01*
X158161555Y-60360736D02*
X159574942Y-61798919D01*
X159589206Y-61804900D02*
X161972434Y-61804900D01*
X161986698Y-61798919D02*
X163400085Y-60360736D01*
X163405820Y-60346717D02*
X163405820Y-52054900D01*
X158161555Y-60360736D02*
G75*
G02X158155820Y-60346717I14265J14019D01*
G01*
X159589207Y-61804900D02*
G75*
G02X159574942Y-61798919I-1J20000D01*
G01*
X161986699Y-61798919D02*
G75*
G02X161972434Y-61804900I-14265J14019D01*
G01*
X162905820Y-51554900D02*
G75*
G02X163405820Y-52054900I0J-500000D01*
G01*
X159832410Y-61204900D02*
X161729230Y-61204900D01*
X158755820Y-52154900D02*
X158755820Y-60109423D01*
X161729230Y-61204900D02*
X162805820Y-60109423D01*
X162805820Y-52154900D02*
X162805820Y-55008679D01*
X162805820Y-60101240D02*
X162805820Y-52174900D01*
X159832410Y-61204900D02*
X158755820Y-60109423D01*
X158755820Y-52154900D02*
X162805820Y-52154900D01*
X159914433Y-59679273D02*
G75*
G02X159780820Y-59179900I866387J499373D01*
G01*
X161780820Y-59179900D02*
G75*
G02X161646845Y-59679900I-1000000J0D01*
G01*
D16*
X163972000Y-50978000D02*
X163982000Y-62388000D01*
X157562000Y-50978000D02*
X157572000Y-62388000D01*
X157562000Y-50978000D02*
X157572000Y-62388000D01*
X163982000Y-62388000D02*
X157572000Y-62388000D01*
X163972000Y-38532000D02*
X157562000Y-38532000D01*
X163972000Y-38532000D02*
X163982000Y-49942000D01*
D10*
X162905820Y-39108900D02*
X158655820Y-39108900D01*
X158155820Y-39608900D02*
X158155820Y-47900717D01*
X158161555Y-47914736D02*
X159574942Y-49352919D01*
X159589206Y-49358900D02*
X161972434Y-49358900D01*
X161986698Y-49352919D02*
X163400085Y-47914736D01*
X163405820Y-47900717D02*
X163405820Y-39608900D01*
X158161555Y-47914736D02*
G75*
G02X158155820Y-47900717I14265J14019D01*
G01*
X159589207Y-49358900D02*
G75*
G02X159574942Y-49352919I-1J20000D01*
G01*
X161986699Y-49352919D02*
G75*
G02X161972434Y-49358900I-14265J14019D01*
G01*
X162905820Y-39108900D02*
G75*
G02X163405820Y-39608900I0J-500000D01*
G01*
X159832410Y-48758900D02*
X161729230Y-48758900D01*
X158755820Y-39708900D02*
X158755820Y-47663423D01*
X161729230Y-48758900D02*
X162805820Y-47663423D01*
X162805820Y-39708900D02*
X162805820Y-42562679D01*
X162805820Y-47655240D02*
X162805820Y-39728900D01*
X159832410Y-48758900D02*
X158755820Y-47663423D01*
X158755820Y-39708900D02*
X162805820Y-39708900D01*
X159914433Y-47233273D02*
G75*
G02X159780820Y-46733900I866387J499373D01*
G01*
X161780820Y-46733900D02*
G75*
G02X161646845Y-47233900I-1000000J0D01*
G01*
X161780820Y-41606900D02*
G75*
G02X159780820Y-41606900I-1000000J0D01*
G01*
X161647207Y-41107527D02*
G75*
G02X161780820Y-41606900I-866387J-499373D01*
G01*
X159780820Y-41606900D02*
G75*
G02X159914795Y-41106900I1000000J0D01*
G01*
X159780820Y-46733900D02*
G75*
G02X161780820Y-46733900I1000000J0D01*
G01*
X161646846Y-47233900D02*
G75*
G02X159914795Y-47233900I-866026J500000D01*
G01*
X159914794Y-41106900D02*
G75*
G02X161646845Y-41106900I866026J-500000D01*
G01*
X158155820Y-39608900D02*
G75*
G02X158655820Y-39108900I500000J0D01*
G01*
X162905820Y-39108900D02*
G75*
G02X163405820Y-39608900I0J-500000D01*
G01*
X162905820Y-39108900D02*
G75*
G02X163405820Y-39608900I0J-500000D01*
G01*
X163405821Y-47900717D02*
G75*
G02X163400085Y-47914736I-20001J0D01*
G01*
X161986699Y-49352919D02*
G75*
G02X161972434Y-49358900I-14265J14019D01*
G01*
X159589207Y-49358900D02*
G75*
G02X159574942Y-49352919I-1J20000D01*
G01*
X158161555Y-47914736D02*
G75*
G02X158155820Y-47900717I14265J14019D01*
G01*
X161780820Y-41606900D02*
G75*
G02X159780820Y-41606900I-1000000J0D01*
G01*
X161647207Y-41107527D02*
G75*
G02X161780820Y-41606900I-866387J-499373D01*
G01*
X159780820Y-41606900D02*
G75*
G02X159914795Y-41106900I1000000J0D01*
G01*
X159780820Y-46733900D02*
G75*
G02X161780820Y-46733900I1000000J0D01*
G01*
X161646846Y-47233900D02*
G75*
G02X159914795Y-47233900I-866026J500000D01*
G01*
X159914794Y-41106900D02*
G75*
G02X161646845Y-41106900I866026J-500000D01*
G01*
X158155820Y-39608900D02*
G75*
G02X158655820Y-39108900I500000J0D01*
G01*
X162905820Y-39108900D02*
G75*
G02X163405820Y-39608900I0J-500000D01*
G01*
X162905820Y-39108900D02*
G75*
G02X163405820Y-39608900I0J-500000D01*
G01*
X163405821Y-47900717D02*
G75*
G02X163400085Y-47914736I-20001J0D01*
G01*
X161986699Y-49352919D02*
G75*
G02X161972434Y-49358900I-14265J14019D01*
G01*
X159589207Y-49358900D02*
G75*
G02X159574942Y-49352919I-1J20000D01*
G01*
X158161555Y-47914736D02*
G75*
G02X158155820Y-47900717I14265J14019D01*
G01*
X162905820Y-39108900D02*
X158655820Y-39108900D01*
X158155820Y-39608900D02*
X158155820Y-47900717D01*
X158161555Y-47914736D02*
X159574942Y-49352919D01*
X159589206Y-49358900D02*
X161972434Y-49358900D01*
X161986698Y-49352919D02*
X163400085Y-47914736D01*
X163405820Y-47900717D02*
X163405820Y-39608900D01*
X158161555Y-47914736D02*
G75*
G02X158155820Y-47900717I14265J14019D01*
G01*
X159589207Y-49358900D02*
G75*
G02X159574942Y-49352919I-1J20000D01*
G01*
X161986699Y-49352919D02*
G75*
G02X161972434Y-49358900I-14265J14019D01*
G01*
X162905820Y-39108900D02*
G75*
G02X163405820Y-39608900I0J-500000D01*
G01*
X159832410Y-48758900D02*
X161729230Y-48758900D01*
X158755820Y-39708900D02*
X158755820Y-47663423D01*
X161729230Y-48758900D02*
X162805820Y-47663423D01*
X162805820Y-39708900D02*
X162805820Y-42562679D01*
X162805820Y-47655240D02*
X162805820Y-39728900D01*
X159832410Y-48758900D02*
X158755820Y-47663423D01*
X158755820Y-39708900D02*
X162805820Y-39708900D01*
X159914433Y-47233273D02*
G75*
G02X159780820Y-46733900I866387J499373D01*
G01*
X161780820Y-46733900D02*
G75*
G02X161646845Y-47233900I-1000000J0D01*
G01*
D16*
X163972000Y-38532000D02*
X163982000Y-49942000D01*
X157562000Y-38532000D02*
X157572000Y-49942000D01*
X157562000Y-38532000D02*
X157572000Y-49942000D01*
X163982000Y-49942000D02*
X157572000Y-49942000D01*
D15*
X141554000Y-255950000D02*
X140554000Y-255950000D01*
X140554000Y-254590000D02*
X141554000Y-254590000D01*
X138014000Y-232746000D02*
X139014000Y-232746000D01*
X139014000Y-234106000D02*
X138014000Y-234106000D01*
X139878000Y-229952000D02*
X140878000Y-229952000D01*
X140878000Y-231312000D02*
X139878000Y-231312000D01*
X139792000Y-225888000D02*
X140792000Y-225888000D01*
X140792000Y-227248000D02*
X139792000Y-227248000D01*
X138354000Y-258908000D02*
X139354000Y-258908000D01*
X139354000Y-260268000D02*
X138354000Y-260268000D01*
X115800000Y-219020000D02*
X116800000Y-219020000D01*
X116800000Y-220380000D02*
X115800000Y-220380000D01*
X140792000Y-229280000D02*
X139792000Y-229280000D01*
X139792000Y-227920000D02*
X140792000Y-227920000D01*
X140804000Y-224962000D02*
X139804000Y-224962000D01*
X139804000Y-223602000D02*
X140804000Y-223602000D01*
X105842000Y-222332000D02*
X106842000Y-222332000D01*
X106842000Y-223692000D02*
X105842000Y-223692000D01*
X138140000Y-234730000D02*
X139140000Y-234730000D01*
X139140000Y-236090000D02*
X138140000Y-236090000D01*
X138100000Y-236556000D02*
X139100000Y-236556000D01*
X139100000Y-237916000D02*
X138100000Y-237916000D01*
X126664000Y-250028000D02*
X126664000Y-251028000D01*
X125304000Y-251028000D02*
X125304000Y-250028000D01*
X155418000Y-237128000D02*
X155418000Y-238388000D01*
X155418000Y-243948000D02*
X155418000Y-242688000D01*
X159178000Y-237128000D02*
X155418000Y-237128000D01*
X161428000Y-243948000D02*
X155418000Y-243948000D01*
X101014000Y-248128000D02*
X102814000Y-248128000D01*
X102814000Y-244908000D02*
X100364000Y-244908000D01*
X116206500Y-214354000D02*
X108881500Y-214354000D01*
X108881500Y-214354000D02*
X108881500Y-217954000D01*
X108881500Y-217954000D02*
X116206500Y-217954000D01*
X160760000Y-18500000D02*
X160760000Y-19600000D01*
X160760000Y-19600000D02*
X163360000Y-19600000D01*
X160760000Y-18500000D02*
X163360000Y-18500000D01*
X160760000Y550000D02*
X160760000Y-550000D01*
X160760000Y-550000D02*
X163360000Y-550000D01*
X160760000Y550000D02*
X163360000Y550000D01*
X160760000Y-10880000D02*
X160760000Y-11980000D01*
X160760000Y-11980000D02*
X163360000Y-11980000D01*
X160760000Y-10880000D02*
X163360000Y-10880000D01*
X160760000Y-22310000D02*
X160760000Y-23410000D01*
X160760000Y-23410000D02*
X163360000Y-23410000D01*
X160760000Y-22310000D02*
X163360000Y-22310000D01*
X160760000Y-3260000D02*
X160760000Y-4360000D01*
X160760000Y-4360000D02*
X163360000Y-4360000D01*
X160760000Y-3260000D02*
X163360000Y-3260000D01*
X160760000Y-14690000D02*
X160760000Y-15790000D01*
X160760000Y-15790000D02*
X163360000Y-15790000D01*
X160760000Y-14690000D02*
X163360000Y-14690000D01*
X160760000Y-7070000D02*
X160760000Y-8170000D01*
X160760000Y-8170000D02*
X163360000Y-8170000D01*
X160760000Y-7070000D02*
X163360000Y-7070000D01*
X147820000Y-19730000D02*
X146820000Y-19730000D01*
X146820000Y-18370000D02*
X147820000Y-18370000D01*
X147820000Y-680000D02*
X146820000Y-680000D01*
X146820000Y680000D02*
X147820000Y680000D01*
X147820000Y-12110000D02*
X146820000Y-12110000D01*
X146820000Y-10750000D02*
X147820000Y-10750000D01*
X147820000Y-23540000D02*
X146820000Y-23540000D01*
X146820000Y-22180000D02*
X147820000Y-22180000D01*
X147820000Y-15920000D02*
X146820000Y-15920000D01*
X146820000Y-14560000D02*
X147820000Y-14560000D01*
X147820000Y-8300000D02*
X146820000Y-8300000D01*
X146820000Y-6940000D02*
X147820000Y-6940000D01*
X160760000Y-26120000D02*
X160760000Y-27220000D01*
X160760000Y-27220000D02*
X163360000Y-27220000D01*
X160760000Y-26120000D02*
X163360000Y-26120000D01*
X146820000Y-25990000D02*
X147820000Y-25990000D01*
X147820000Y-27350000D02*
X146820000Y-27350000D01*
X147720000Y-34080000D02*
X146720000Y-34080000D01*
X146720000Y-32720000D02*
X147720000Y-32720000D01*
X145798000Y-28392000D02*
X145798000Y-29322000D01*
X145798000Y-31552000D02*
X145798000Y-30622000D01*
X145798000Y-31552000D02*
X147958000Y-31552000D01*
X145798000Y-28392000D02*
X147258000Y-28392000D01*
D16*
X146677143Y-2812381D02*
X146343809Y-2336190D01*
X146105714Y-2812381D02*
X146105714Y-1812381D01*
X146486667Y-1812381D01*
X146581905Y-1860000D01*
X146629524Y-1907619D01*
X146677143Y-2002857D01*
X146677143Y-2145714D01*
X146629524Y-2240952D01*
X146581905Y-2288571D01*
X146486667Y-2336190D01*
X146105714Y-2336190D01*
X147629524Y-2812381D02*
X147058095Y-2812381D01*
X147343809Y-2812381D02*
X147343809Y-1812381D01*
X147248571Y-1955238D01*
X147153333Y-2050476D01*
X147058095Y-2098095D01*
X148200952Y-2240952D02*
X148105714Y-2193333D01*
X148058095Y-2145714D01*
X148010476Y-2050476D01*
X148010476Y-2002857D01*
X148058095Y-1907619D01*
X148105714Y-1860000D01*
X148200952Y-1812381D01*
X148391429Y-1812381D01*
X148486667Y-1860000D01*
X148534286Y-1907619D01*
X148581905Y-2002857D01*
X148581905Y-2050476D01*
X148534286Y-2145714D01*
X148486667Y-2193333D01*
X148391429Y-2240952D01*
X148200952Y-2240952D01*
X148105714Y-2288571D01*
X148058095Y-2336190D01*
X148010476Y-2431429D01*
X148010476Y-2621905D01*
X148058095Y-2717143D01*
X148105714Y-2764762D01*
X148200952Y-2812381D01*
X148391429Y-2812381D01*
X148486667Y-2764762D01*
X148534286Y-2717143D01*
X148581905Y-2621905D01*
X148581905Y-2431429D01*
X148534286Y-2336190D01*
X148486667Y-2288571D01*
X148391429Y-2240952D01*
X118880095Y-240066381D02*
X118880095Y-240875905D01*
X118927714Y-240971143D01*
X118975333Y-241018762D01*
X119070571Y-241066381D01*
X119261048Y-241066381D01*
X119356286Y-241018762D01*
X119403905Y-240971143D01*
X119451524Y-240875905D01*
X119451524Y-240066381D01*
X119880095Y-240161619D02*
X119927714Y-240114000D01*
X120022952Y-240066381D01*
X120261048Y-240066381D01*
X120356286Y-240114000D01*
X120403905Y-240161619D01*
X120451524Y-240256857D01*
X120451524Y-240352095D01*
X120403905Y-240494952D01*
X119832476Y-241066381D01*
X120451524Y-241066381D01*
X158670667Y-117562381D02*
X158670667Y-118276667D01*
X158623047Y-118419524D01*
X158527809Y-118514762D01*
X158384952Y-118562381D01*
X158289714Y-118562381D01*
X159575429Y-117895714D02*
X159575429Y-118562381D01*
X159337333Y-117514762D02*
X159099238Y-118229048D01*
X159718286Y-118229048D01*
X79845067Y16196819D02*
X79511733Y16673010D01*
X79273638Y16196819D02*
X79273638Y17196819D01*
X79654591Y17196819D01*
X79749829Y17149200D01*
X79797448Y17101581D01*
X79845067Y17006343D01*
X79845067Y16863486D01*
X79797448Y16768248D01*
X79749829Y16720629D01*
X79654591Y16673010D01*
X79273638Y16673010D01*
X80273638Y16720629D02*
X80606972Y16720629D01*
X80749829Y16196819D02*
X80273638Y16196819D01*
X80273638Y17196819D01*
X80749829Y17196819D01*
X81511734Y16720629D02*
X81178400Y16720629D01*
X81178400Y16196819D02*
X81178400Y17196819D01*
X81654591Y17196819D01*
X82178400Y17196819D02*
X82178400Y16958724D01*
X81940305Y17053962D02*
X82178400Y16958724D01*
X82416496Y17053962D01*
X82035543Y16768248D02*
X82178400Y16958724D01*
X82321258Y16768248D01*
X82940305Y17196819D02*
X82940305Y16958724D01*
X82702210Y17053962D02*
X82940305Y16958724D01*
X83178401Y17053962D01*
X82797448Y16768248D02*
X82940305Y16958724D01*
X83083163Y16768248D01*
X160058267Y16247619D02*
X159724933Y16723810D01*
X159486838Y16247619D02*
X159486838Y17247619D01*
X159867791Y17247619D01*
X159963029Y17200000D01*
X160010648Y17152381D01*
X160058267Y17057143D01*
X160058267Y16914286D01*
X160010648Y16819048D01*
X159963029Y16771429D01*
X159867791Y16723810D01*
X159486838Y16723810D01*
X160486838Y16771429D02*
X160820172Y16771429D01*
X160963029Y16247619D02*
X160486838Y16247619D01*
X160486838Y17247619D01*
X160963029Y17247619D01*
X161724934Y16771429D02*
X161391600Y16771429D01*
X161391600Y16247619D02*
X161391600Y17247619D01*
X161867791Y17247619D01*
X162391600Y17247619D02*
X162391600Y17009524D01*
X162153505Y17104762D02*
X162391600Y17009524D01*
X162629696Y17104762D01*
X162248743Y16819048D02*
X162391600Y17009524D01*
X162534458Y16819048D01*
X163153505Y17247619D02*
X163153505Y17009524D01*
X162915410Y17104762D02*
X163153505Y17009524D01*
X163391601Y17104762D01*
X163010648Y16819048D02*
X163153505Y17009524D01*
X163296363Y16819048D01*
X79845067Y-204732381D02*
X79511733Y-204256190D01*
X79273638Y-204732381D02*
X79273638Y-203732381D01*
X79654591Y-203732381D01*
X79749829Y-203780000D01*
X79797448Y-203827619D01*
X79845067Y-203922857D01*
X79845067Y-204065714D01*
X79797448Y-204160952D01*
X79749829Y-204208571D01*
X79654591Y-204256190D01*
X79273638Y-204256190D01*
X80273638Y-204208571D02*
X80606972Y-204208571D01*
X80749829Y-204732381D02*
X80273638Y-204732381D01*
X80273638Y-203732381D01*
X80749829Y-203732381D01*
X81511734Y-204208571D02*
X81178400Y-204208571D01*
X81178400Y-204732381D02*
X81178400Y-203732381D01*
X81654591Y-203732381D01*
X82178400Y-203732381D02*
X82178400Y-203970476D01*
X81940305Y-203875238D02*
X82178400Y-203970476D01*
X82416496Y-203875238D01*
X82035543Y-204160952D02*
X82178400Y-203970476D01*
X82321258Y-204160952D01*
X82940305Y-203732381D02*
X82940305Y-203970476D01*
X82702210Y-203875238D02*
X82940305Y-203970476D01*
X83178401Y-203875238D01*
X82797448Y-204160952D02*
X82940305Y-203970476D01*
X83083163Y-204160952D01*
X157654667Y-250404381D02*
X157654667Y-251118667D01*
X157607047Y-251261524D01*
X157511809Y-251356762D01*
X157368952Y-251404381D01*
X157273714Y-251404381D01*
X158654667Y-251404381D02*
X158083238Y-251404381D01*
X158368952Y-251404381D02*
X158368952Y-250404381D01*
X158273714Y-250547238D01*
X158178476Y-250642476D01*
X158083238Y-250690095D01*
X138041143Y-243530381D02*
X137707809Y-243054190D01*
X137469714Y-243530381D02*
X137469714Y-242530381D01*
X137850667Y-242530381D01*
X137945905Y-242578000D01*
X137993524Y-242625619D01*
X138041143Y-242720857D01*
X138041143Y-242863714D01*
X137993524Y-242958952D01*
X137945905Y-243006571D01*
X137850667Y-243054190D01*
X137469714Y-243054190D01*
X138993524Y-243530381D02*
X138422095Y-243530381D01*
X138707809Y-243530381D02*
X138707809Y-242530381D01*
X138612571Y-242673238D01*
X138517333Y-242768476D01*
X138422095Y-242816095D01*
X139326857Y-242530381D02*
X139945905Y-242530381D01*
X139612571Y-242911333D01*
X139755429Y-242911333D01*
X139850667Y-242958952D01*
X139898286Y-243006571D01*
X139945905Y-243101810D01*
X139945905Y-243339905D01*
X139898286Y-243435143D01*
X139850667Y-243482762D01*
X139755429Y-243530381D01*
X139469714Y-243530381D01*
X139374476Y-243482762D01*
X139326857Y-243435143D01*
D17*
X141417766Y-199592111D02*
X141490337Y-199664682D01*
X141562909Y-199882396D01*
X141562909Y-200027539D01*
X141490337Y-200245254D01*
X141345194Y-200390396D01*
X141200051Y-200462968D01*
X140909766Y-200535539D01*
X140692051Y-200535539D01*
X140401766Y-200462968D01*
X140256623Y-200390396D01*
X140111480Y-200245254D01*
X140038909Y-200027539D01*
X140038909Y-199882396D01*
X140111480Y-199664682D01*
X140184051Y-199592111D01*
X140038909Y-198648682D02*
X140038909Y-198358396D01*
X140111480Y-198213254D01*
X140256623Y-198068111D01*
X140546909Y-197995539D01*
X141054909Y-197995539D01*
X141345194Y-198068111D01*
X141490337Y-198213254D01*
X141562909Y-198358396D01*
X141562909Y-198648682D01*
X141490337Y-198793825D01*
X141345194Y-198938968D01*
X141054909Y-199011539D01*
X140546909Y-199011539D01*
X140256623Y-198938968D01*
X140111480Y-198793825D01*
X140038909Y-198648682D01*
X141562909Y-197342397D02*
X140038909Y-197342397D01*
X141562909Y-196471540D01*
X140038909Y-196471540D01*
X141562909Y-194947540D02*
X141562909Y-195818397D01*
X141562909Y-195382969D02*
X140038909Y-195382969D01*
X140256623Y-195528112D01*
X140401766Y-195673254D01*
X140474337Y-195818397D01*
X128563189Y-207357255D02*
X127039189Y-207357255D01*
X127039189Y-206776683D01*
X127111760Y-206631541D01*
X127184331Y-206558969D01*
X127329474Y-206486398D01*
X127547189Y-206486398D01*
X127692331Y-206558969D01*
X127764903Y-206631541D01*
X127837474Y-206776683D01*
X127837474Y-207357255D01*
X128490617Y-205252683D02*
X128563189Y-205397826D01*
X128563189Y-205688112D01*
X128490617Y-205833255D01*
X128345474Y-205905826D01*
X127764903Y-205905826D01*
X127619760Y-205833255D01*
X127547189Y-205688112D01*
X127547189Y-205397826D01*
X127619760Y-205252683D01*
X127764903Y-205180112D01*
X127910046Y-205180112D01*
X128055189Y-205905826D01*
X128563189Y-204526969D02*
X127547189Y-204526969D01*
X127837474Y-204526969D02*
X127692331Y-204454397D01*
X127619760Y-204381826D01*
X127547189Y-204236683D01*
X127547189Y-204091540D01*
X128563189Y-203583540D02*
X127547189Y-203583540D01*
X127039189Y-203583540D02*
X127111760Y-203656111D01*
X127184331Y-203583540D01*
X127111760Y-203510968D01*
X127039189Y-203583540D01*
X127184331Y-203583540D01*
X127547189Y-202857826D02*
X129071189Y-202857826D01*
X127619760Y-202857826D02*
X127547189Y-202712683D01*
X127547189Y-202422397D01*
X127619760Y-202277254D01*
X127692331Y-202204683D01*
X127837474Y-202132112D01*
X128272903Y-202132112D01*
X128418046Y-202204683D01*
X128490617Y-202277254D01*
X128563189Y-202422397D01*
X128563189Y-202712683D01*
X128490617Y-202857826D01*
X128563189Y-201478969D02*
X127039189Y-201478969D01*
X128563189Y-200825826D02*
X127764903Y-200825826D01*
X127619760Y-200898397D01*
X127547189Y-201043540D01*
X127547189Y-201261255D01*
X127619760Y-201406397D01*
X127692331Y-201478969D01*
X128490617Y-199519540D02*
X128563189Y-199664683D01*
X128563189Y-199954969D01*
X128490617Y-200100112D01*
X128345474Y-200172683D01*
X127764903Y-200172683D01*
X127619760Y-200100112D01*
X127547189Y-199954969D01*
X127547189Y-199664683D01*
X127619760Y-199519540D01*
X127764903Y-199446969D01*
X127910046Y-199446969D01*
X128055189Y-200172683D01*
X128563189Y-198793826D02*
X127547189Y-198793826D01*
X127837474Y-198793826D02*
X127692331Y-198721254D01*
X127619760Y-198648683D01*
X127547189Y-198503540D01*
X127547189Y-198358397D01*
X128563189Y-197197254D02*
X127764903Y-197197254D01*
X127619760Y-197269825D01*
X127547189Y-197414968D01*
X127547189Y-197705254D01*
X127619760Y-197850397D01*
X128490617Y-197197254D02*
X128563189Y-197342397D01*
X128563189Y-197705254D01*
X128490617Y-197850397D01*
X128345474Y-197922968D01*
X128200331Y-197922968D01*
X128055189Y-197850397D01*
X127982617Y-197705254D01*
X127982617Y-197342397D01*
X127910046Y-197197254D01*
X128563189Y-196253826D02*
X128490617Y-196398968D01*
X128345474Y-196471540D01*
X127039189Y-196471540D01*
X128563189Y-194512111D02*
X127039189Y-194512111D01*
X127619760Y-194512111D02*
X127547189Y-194366968D01*
X127547189Y-194076682D01*
X127619760Y-193931539D01*
X127692331Y-193858968D01*
X127837474Y-193786397D01*
X128272903Y-193786397D01*
X128418046Y-193858968D01*
X128490617Y-193931539D01*
X128563189Y-194076682D01*
X128563189Y-194366968D01*
X128490617Y-194512111D01*
X128563189Y-193133254D02*
X127547189Y-193133254D01*
X127837474Y-193133254D02*
X127692331Y-193060682D01*
X127619760Y-192988111D01*
X127547189Y-192842968D01*
X127547189Y-192697825D01*
X128563189Y-192189825D02*
X127547189Y-192189825D01*
X127039189Y-192189825D02*
X127111760Y-192262396D01*
X127184331Y-192189825D01*
X127111760Y-192117253D01*
X127039189Y-192189825D01*
X127184331Y-192189825D01*
X128563189Y-190810968D02*
X127039189Y-190810968D01*
X128490617Y-190810968D02*
X128563189Y-190956111D01*
X128563189Y-191246397D01*
X128490617Y-191391539D01*
X128418046Y-191464111D01*
X128272903Y-191536682D01*
X127837474Y-191536682D01*
X127692331Y-191464111D01*
X127619760Y-191391539D01*
X127547189Y-191246397D01*
X127547189Y-190956111D01*
X127619760Y-190810968D01*
X127547189Y-189432111D02*
X128780903Y-189432111D01*
X128926046Y-189504682D01*
X128998617Y-189577254D01*
X129071189Y-189722397D01*
X129071189Y-189940111D01*
X128998617Y-190085254D01*
X128490617Y-189432111D02*
X128563189Y-189577254D01*
X128563189Y-189867540D01*
X128490617Y-190012682D01*
X128418046Y-190085254D01*
X128272903Y-190157825D01*
X127837474Y-190157825D01*
X127692331Y-190085254D01*
X127619760Y-190012682D01*
X127547189Y-189867540D01*
X127547189Y-189577254D01*
X127619760Y-189432111D01*
X128490617Y-188125825D02*
X128563189Y-188270968D01*
X128563189Y-188561254D01*
X128490617Y-188706397D01*
X128345474Y-188778968D01*
X127764903Y-188778968D01*
X127619760Y-188706397D01*
X127547189Y-188561254D01*
X127547189Y-188270968D01*
X127619760Y-188125825D01*
X127764903Y-188053254D01*
X127910046Y-188053254D01*
X128055189Y-188778968D01*
X85964486Y-107252951D02*
X86037057Y-107325522D01*
X86109629Y-107543236D01*
X86109629Y-107688379D01*
X86037057Y-107906094D01*
X85891914Y-108051236D01*
X85746771Y-108123808D01*
X85456486Y-108196379D01*
X85238771Y-108196379D01*
X84948486Y-108123808D01*
X84803343Y-108051236D01*
X84658200Y-107906094D01*
X84585629Y-107688379D01*
X84585629Y-107543236D01*
X84658200Y-107325522D01*
X84730771Y-107252951D01*
X84585629Y-106309522D02*
X84585629Y-106019236D01*
X84658200Y-105874094D01*
X84803343Y-105728951D01*
X85093629Y-105656379D01*
X85601629Y-105656379D01*
X85891914Y-105728951D01*
X86037057Y-105874094D01*
X86109629Y-106019236D01*
X86109629Y-106309522D01*
X86037057Y-106454665D01*
X85891914Y-106599808D01*
X85601629Y-106672379D01*
X85093629Y-106672379D01*
X84803343Y-106599808D01*
X84658200Y-106454665D01*
X84585629Y-106309522D01*
X86109629Y-105003237D02*
X84585629Y-105003237D01*
X86109629Y-104132380D01*
X84585629Y-104132380D01*
X84730771Y-103479237D02*
X84658200Y-103406666D01*
X84585629Y-103261523D01*
X84585629Y-102898666D01*
X84658200Y-102753523D01*
X84730771Y-102680952D01*
X84875914Y-102608380D01*
X85021057Y-102608380D01*
X85238771Y-102680952D01*
X86109629Y-103551809D01*
X86109629Y-102608380D01*
X85474629Y-78188457D02*
X83950629Y-78188457D01*
X83950629Y-77607885D01*
X84023200Y-77462743D01*
X84095771Y-77390171D01*
X84240914Y-77317600D01*
X84458629Y-77317600D01*
X84603771Y-77390171D01*
X84676343Y-77462743D01*
X84748914Y-77607885D01*
X84748914Y-78188457D01*
X85474629Y-76446743D02*
X85402057Y-76591885D01*
X85329486Y-76664457D01*
X85184343Y-76737028D01*
X84748914Y-76737028D01*
X84603771Y-76664457D01*
X84531200Y-76591885D01*
X84458629Y-76446743D01*
X84458629Y-76229028D01*
X84531200Y-76083885D01*
X84603771Y-76011314D01*
X84748914Y-75938743D01*
X85184343Y-75938743D01*
X85329486Y-76011314D01*
X85402057Y-76083885D01*
X85474629Y-76229028D01*
X85474629Y-76446743D01*
X84458629Y-75430743D02*
X85474629Y-75140457D01*
X84748914Y-74850171D01*
X85474629Y-74559886D01*
X84458629Y-74269600D01*
X85402057Y-73108457D02*
X85474629Y-73253600D01*
X85474629Y-73543886D01*
X85402057Y-73689029D01*
X85256914Y-73761600D01*
X84676343Y-73761600D01*
X84531200Y-73689029D01*
X84458629Y-73543886D01*
X84458629Y-73253600D01*
X84531200Y-73108457D01*
X84676343Y-73035886D01*
X84821486Y-73035886D01*
X84966629Y-73761600D01*
X85474629Y-72382743D02*
X84458629Y-72382743D01*
X84748914Y-72382743D02*
X84603771Y-72310171D01*
X84531200Y-72237600D01*
X84458629Y-72092457D01*
X84458629Y-71947314D01*
X85474629Y-69625028D02*
X83950629Y-69625028D01*
X85402057Y-69625028D02*
X85474629Y-69770171D01*
X85474629Y-70060457D01*
X85402057Y-70205599D01*
X85329486Y-70278171D01*
X85184343Y-70350742D01*
X84748914Y-70350742D01*
X84603771Y-70278171D01*
X84531200Y-70205599D01*
X84458629Y-70060457D01*
X84458629Y-69770171D01*
X84531200Y-69625028D01*
X85474629Y-68899314D02*
X84458629Y-68899314D01*
X83950629Y-68899314D02*
X84023200Y-68971885D01*
X84095771Y-68899314D01*
X84023200Y-68826742D01*
X83950629Y-68899314D01*
X84095771Y-68899314D01*
X85402057Y-68246171D02*
X85474629Y-68101028D01*
X85474629Y-67810743D01*
X85402057Y-67665600D01*
X85256914Y-67593028D01*
X85184343Y-67593028D01*
X85039200Y-67665600D01*
X84966629Y-67810743D01*
X84966629Y-68028457D01*
X84894057Y-68173600D01*
X84748914Y-68246171D01*
X84676343Y-68246171D01*
X84531200Y-68173600D01*
X84458629Y-68028457D01*
X84458629Y-67810743D01*
X84531200Y-67665600D01*
X84458629Y-67157600D02*
X84458629Y-66577029D01*
X83950629Y-66939886D02*
X85256914Y-66939886D01*
X85402057Y-66867314D01*
X85474629Y-66722172D01*
X85474629Y-66577029D01*
X85474629Y-66069029D02*
X84458629Y-66069029D01*
X84748914Y-66069029D02*
X84603771Y-65996457D01*
X84531200Y-65923886D01*
X84458629Y-65778743D01*
X84458629Y-65633600D01*
X85474629Y-65125600D02*
X84458629Y-65125600D01*
X83950629Y-65125600D02*
X84023200Y-65198171D01*
X84095771Y-65125600D01*
X84023200Y-65053028D01*
X83950629Y-65125600D01*
X84095771Y-65125600D01*
X85474629Y-64399886D02*
X83950629Y-64399886D01*
X84531200Y-64399886D02*
X84458629Y-64254743D01*
X84458629Y-63964457D01*
X84531200Y-63819314D01*
X84603771Y-63746743D01*
X84748914Y-63674172D01*
X85184343Y-63674172D01*
X85329486Y-63746743D01*
X85402057Y-63819314D01*
X85474629Y-63964457D01*
X85474629Y-64254743D01*
X85402057Y-64399886D01*
X84458629Y-62367886D02*
X85474629Y-62367886D01*
X84458629Y-63021029D02*
X85256914Y-63021029D01*
X85402057Y-62948457D01*
X85474629Y-62803315D01*
X85474629Y-62585600D01*
X85402057Y-62440457D01*
X85329486Y-62367886D01*
X84458629Y-61859886D02*
X84458629Y-61279315D01*
X83950629Y-61642172D02*
X85256914Y-61642172D01*
X85402057Y-61569600D01*
X85474629Y-61424458D01*
X85474629Y-61279315D01*
X85474629Y-60553601D02*
X85402057Y-60698743D01*
X85329486Y-60771315D01*
X85184343Y-60843886D01*
X84748914Y-60843886D01*
X84603771Y-60771315D01*
X84531200Y-60698743D01*
X84458629Y-60553601D01*
X84458629Y-60335886D01*
X84531200Y-60190743D01*
X84603771Y-60118172D01*
X84748914Y-60045601D01*
X85184343Y-60045601D01*
X85329486Y-60118172D01*
X85402057Y-60190743D01*
X85474629Y-60335886D01*
X85474629Y-60553601D01*
X85474629Y-59392458D02*
X84458629Y-59392458D01*
X84748914Y-59392458D02*
X84603771Y-59319886D01*
X84531200Y-59247315D01*
X84458629Y-59102172D01*
X84458629Y-58957029D01*
D16*
X151153905Y-70048381D02*
X151153905Y-69048381D01*
X151534858Y-69048381D01*
X151630096Y-69096000D01*
X151677715Y-69143619D01*
X151725334Y-69238857D01*
X151725334Y-69381714D01*
X151677715Y-69476952D01*
X151630096Y-69524571D01*
X151534858Y-69572190D01*
X151153905Y-69572190D01*
X152106286Y-69143619D02*
X152153905Y-69096000D01*
X152249143Y-69048381D01*
X152487239Y-69048381D01*
X152582477Y-69096000D01*
X152630096Y-69143619D01*
X152677715Y-69238857D01*
X152677715Y-69334095D01*
X152630096Y-69476952D01*
X152058667Y-70048381D01*
X152677715Y-70048381D01*
X102336381Y-258639333D02*
X101860190Y-258972667D01*
X102336381Y-259210762D02*
X101336381Y-259210762D01*
X101336381Y-258829809D01*
X101384000Y-258734571D01*
X101431619Y-258686952D01*
X101526857Y-258639333D01*
X101669714Y-258639333D01*
X101764952Y-258686952D01*
X101812571Y-258734571D01*
X101860190Y-258829809D01*
X101860190Y-259210762D01*
X101812571Y-258210762D02*
X101812571Y-257877428D01*
X102336381Y-257734571D02*
X102336381Y-258210762D01*
X101336381Y-258210762D01*
X101336381Y-257734571D01*
X101812571Y-256972666D02*
X101812571Y-257306000D01*
X102336381Y-257306000D02*
X101336381Y-257306000D01*
X101336381Y-256829809D01*
X101336381Y-256306000D02*
X101574476Y-256306000D01*
X101479238Y-256544095D02*
X101574476Y-256306000D01*
X101479238Y-256067904D01*
X101764952Y-256448857D02*
X101574476Y-256306000D01*
X101764952Y-256163142D01*
X101336381Y-255544095D02*
X101574476Y-255544095D01*
X101479238Y-255782190D02*
X101574476Y-255544095D01*
X101479238Y-255305999D01*
X101764952Y-255686952D02*
X101574476Y-255544095D01*
X101764952Y-255401237D01*
X85892381Y-123875333D02*
X85416190Y-124208667D01*
X85892381Y-124446762D02*
X84892381Y-124446762D01*
X84892381Y-124065809D01*
X84940000Y-123970571D01*
X84987619Y-123922952D01*
X85082857Y-123875333D01*
X85225714Y-123875333D01*
X85320952Y-123922952D01*
X85368571Y-123970571D01*
X85416190Y-124065809D01*
X85416190Y-124446762D01*
X85368571Y-123446762D02*
X85368571Y-123113428D01*
X85892381Y-122970571D02*
X85892381Y-123446762D01*
X84892381Y-123446762D01*
X84892381Y-122970571D01*
X85368571Y-122208666D02*
X85368571Y-122542000D01*
X85892381Y-122542000D02*
X84892381Y-122542000D01*
X84892381Y-122065809D01*
X84892381Y-121542000D02*
X85130476Y-121542000D01*
X85035238Y-121780095D02*
X85130476Y-121542000D01*
X85035238Y-121303904D01*
X85320952Y-121684857D02*
X85130476Y-121542000D01*
X85320952Y-121399142D01*
X84892381Y-120780095D02*
X85130476Y-120780095D01*
X85035238Y-121018190D02*
X85130476Y-120780095D01*
X85035238Y-120541999D01*
X85320952Y-120922952D02*
X85130476Y-120780095D01*
X85320952Y-120637237D01*
X131292381Y-15333D02*
X130816190Y-348667D01*
X131292381Y-586762D02*
X130292381Y-586762D01*
X130292381Y-205809D01*
X130340000Y-110571D01*
X130387619Y-62952D01*
X130482857Y-15333D01*
X130625714Y-15333D01*
X130720952Y-62952D01*
X130768571Y-110571D01*
X130816190Y-205809D01*
X130816190Y-586762D01*
X130768571Y413238D02*
X130768571Y746572D01*
X131292381Y889429D02*
X131292381Y413238D01*
X130292381Y413238D01*
X130292381Y889429D01*
X130768571Y1651334D02*
X130768571Y1318000D01*
X131292381Y1318000D02*
X130292381Y1318000D01*
X130292381Y1794191D01*
X130292381Y2318000D02*
X130530476Y2318000D01*
X130435238Y2079905D02*
X130530476Y2318000D01*
X130435238Y2556096D01*
X130720952Y2175143D02*
X130530476Y2318000D01*
X130720952Y2460858D01*
X130292381Y3079905D02*
X130530476Y3079905D01*
X130435238Y2841810D02*
X130530476Y3079905D01*
X130435238Y3318001D01*
X130720952Y2937048D02*
X130530476Y3079905D01*
X130720952Y3222763D01*
X142943334Y-250797143D02*
X142895715Y-250844762D01*
X142752858Y-250892381D01*
X142657620Y-250892381D01*
X142514762Y-250844762D01*
X142419524Y-250749524D01*
X142371905Y-250654286D01*
X142324286Y-250463810D01*
X142324286Y-250320952D01*
X142371905Y-250130476D01*
X142419524Y-250035238D01*
X142514762Y-249940000D01*
X142657620Y-249892381D01*
X142752858Y-249892381D01*
X142895715Y-249940000D01*
X142943334Y-249987619D01*
X143324286Y-249987619D02*
X143371905Y-249940000D01*
X143467143Y-249892381D01*
X143705239Y-249892381D01*
X143800477Y-249940000D01*
X143848096Y-249987619D01*
X143895715Y-250082857D01*
X143895715Y-250178095D01*
X143848096Y-250320952D01*
X143276667Y-250892381D01*
X143895715Y-250892381D01*
X163409334Y-242165143D02*
X163361715Y-242212762D01*
X163218858Y-242260381D01*
X163123620Y-242260381D01*
X162980762Y-242212762D01*
X162885524Y-242117524D01*
X162837905Y-242022286D01*
X162790286Y-241831810D01*
X162790286Y-241688952D01*
X162837905Y-241498476D01*
X162885524Y-241403238D01*
X162980762Y-241308000D01*
X163123620Y-241260381D01*
X163218858Y-241260381D01*
X163361715Y-241308000D01*
X163409334Y-241355619D01*
X164266477Y-241593714D02*
X164266477Y-242260381D01*
X164028381Y-241212762D02*
X163790286Y-241927048D01*
X164409334Y-241927048D01*
X110257334Y-211451143D02*
X110209715Y-211498762D01*
X110066858Y-211546381D01*
X109971620Y-211546381D01*
X109828762Y-211498762D01*
X109733524Y-211403524D01*
X109685905Y-211308286D01*
X109638286Y-211117810D01*
X109638286Y-210974952D01*
X109685905Y-210784476D01*
X109733524Y-210689238D01*
X109828762Y-210594000D01*
X109971620Y-210546381D01*
X110066858Y-210546381D01*
X110209715Y-210594000D01*
X110257334Y-210641619D01*
X111162096Y-210546381D02*
X110685905Y-210546381D01*
X110638286Y-211022571D01*
X110685905Y-210974952D01*
X110781143Y-210927333D01*
X111019239Y-210927333D01*
X111114477Y-210974952D01*
X111162096Y-211022571D01*
X111209715Y-211117810D01*
X111209715Y-211355905D01*
X111162096Y-211451143D01*
X111114477Y-211498762D01*
X111019239Y-211546381D01*
X110781143Y-211546381D01*
X110685905Y-211498762D01*
X110638286Y-211451143D01*
X106193334Y-222353143D02*
X106145715Y-222400762D01*
X106002858Y-222448381D01*
X105907620Y-222448381D01*
X105764762Y-222400762D01*
X105669524Y-222305524D01*
X105621905Y-222210286D01*
X105574286Y-222019810D01*
X105574286Y-221876952D01*
X105621905Y-221686476D01*
X105669524Y-221591238D01*
X105764762Y-221496000D01*
X105907620Y-221448381D01*
X106002858Y-221448381D01*
X106145715Y-221496000D01*
X106193334Y-221543619D01*
X107050477Y-221448381D02*
X106860000Y-221448381D01*
X106764762Y-221496000D01*
X106717143Y-221543619D01*
X106621905Y-221686476D01*
X106574286Y-221876952D01*
X106574286Y-222257905D01*
X106621905Y-222353143D01*
X106669524Y-222400762D01*
X106764762Y-222448381D01*
X106955239Y-222448381D01*
X107050477Y-222400762D01*
X107098096Y-222353143D01*
X107145715Y-222257905D01*
X107145715Y-222019810D01*
X107098096Y-221924571D01*
X107050477Y-221876952D01*
X106955239Y-221829333D01*
X106764762Y-221829333D01*
X106669524Y-221876952D01*
X106621905Y-221924571D01*
X106574286Y-222019810D01*
X115911334Y-211431143D02*
X115863715Y-211478762D01*
X115720858Y-211526381D01*
X115625620Y-211526381D01*
X115482762Y-211478762D01*
X115387524Y-211383524D01*
X115339905Y-211288286D01*
X115292286Y-211097810D01*
X115292286Y-210954952D01*
X115339905Y-210764476D01*
X115387524Y-210669238D01*
X115482762Y-210574000D01*
X115625620Y-210526381D01*
X115720858Y-210526381D01*
X115863715Y-210574000D01*
X115911334Y-210621619D01*
X116244667Y-210526381D02*
X116911334Y-210526381D01*
X116482762Y-211526381D01*
X132741334Y-225929143D02*
X132693715Y-225976762D01*
X132550858Y-226024381D01*
X132455620Y-226024381D01*
X132312762Y-225976762D01*
X132217524Y-225881524D01*
X132169905Y-225786286D01*
X132122286Y-225595810D01*
X132122286Y-225452952D01*
X132169905Y-225262476D01*
X132217524Y-225167238D01*
X132312762Y-225072000D01*
X132455620Y-225024381D01*
X132550858Y-225024381D01*
X132693715Y-225072000D01*
X132741334Y-225119619D01*
X133312762Y-225452952D02*
X133217524Y-225405333D01*
X133169905Y-225357714D01*
X133122286Y-225262476D01*
X133122286Y-225214857D01*
X133169905Y-225119619D01*
X133217524Y-225072000D01*
X133312762Y-225024381D01*
X133503239Y-225024381D01*
X133598477Y-225072000D01*
X133646096Y-225119619D01*
X133693715Y-225214857D01*
X133693715Y-225262476D01*
X133646096Y-225357714D01*
X133598477Y-225405333D01*
X133503239Y-225452952D01*
X133312762Y-225452952D01*
X133217524Y-225500571D01*
X133169905Y-225548190D01*
X133122286Y-225643429D01*
X133122286Y-225833905D01*
X133169905Y-225929143D01*
X133217524Y-225976762D01*
X133312762Y-226024381D01*
X133503239Y-226024381D01*
X133598477Y-225976762D01*
X133646096Y-225929143D01*
X133693715Y-225833905D01*
X133693715Y-225643429D01*
X133646096Y-225548190D01*
X133598477Y-225500571D01*
X133503239Y-225452952D01*
X141581143Y-239688666D02*
X141628762Y-239736285D01*
X141676381Y-239879142D01*
X141676381Y-239974380D01*
X141628762Y-240117238D01*
X141533524Y-240212476D01*
X141438286Y-240260095D01*
X141247810Y-240307714D01*
X141104952Y-240307714D01*
X140914476Y-240260095D01*
X140819238Y-240212476D01*
X140724000Y-240117238D01*
X140676381Y-239974380D01*
X140676381Y-239879142D01*
X140724000Y-239736285D01*
X140771619Y-239688666D01*
X141676381Y-239212476D02*
X141676381Y-239022000D01*
X141628762Y-238926761D01*
X141581143Y-238879142D01*
X141438286Y-238783904D01*
X141247810Y-238736285D01*
X140866857Y-238736285D01*
X140771619Y-238783904D01*
X140724000Y-238831523D01*
X140676381Y-238926761D01*
X140676381Y-239117238D01*
X140724000Y-239212476D01*
X140771619Y-239260095D01*
X140866857Y-239307714D01*
X141104952Y-239307714D01*
X141200190Y-239260095D01*
X141247810Y-239212476D01*
X141295429Y-239117238D01*
X141295429Y-238926761D01*
X141247810Y-238831523D01*
X141200190Y-238783904D01*
X141104952Y-238736285D01*
X139507143Y-221489143D02*
X139459524Y-221536762D01*
X139316667Y-221584381D01*
X139221429Y-221584381D01*
X139078571Y-221536762D01*
X138983333Y-221441524D01*
X138935714Y-221346286D01*
X138888095Y-221155810D01*
X138888095Y-221012952D01*
X138935714Y-220822476D01*
X138983333Y-220727238D01*
X139078571Y-220632000D01*
X139221429Y-220584381D01*
X139316667Y-220584381D01*
X139459524Y-220632000D01*
X139507143Y-220679619D01*
X140459524Y-221584381D02*
X139888095Y-221584381D01*
X140173809Y-221584381D02*
X140173809Y-220584381D01*
X140078571Y-220727238D01*
X139983333Y-220822476D01*
X139888095Y-220870095D01*
X141078571Y-220584381D02*
X141173810Y-220584381D01*
X141269048Y-220632000D01*
X141316667Y-220679619D01*
X141364286Y-220774857D01*
X141411905Y-220965333D01*
X141411905Y-221203429D01*
X141364286Y-221393905D01*
X141316667Y-221489143D01*
X141269048Y-221536762D01*
X141173810Y-221584381D01*
X141078571Y-221584381D01*
X140983333Y-221536762D01*
X140935714Y-221489143D01*
X140888095Y-221393905D01*
X140840476Y-221203429D01*
X140840476Y-220965333D01*
X140888095Y-220774857D01*
X140935714Y-220679619D01*
X140983333Y-220632000D01*
X141078571Y-220584381D01*
X98671143Y-239879143D02*
X98623524Y-239926762D01*
X98480667Y-239974381D01*
X98385429Y-239974381D01*
X98242571Y-239926762D01*
X98147333Y-239831524D01*
X98099714Y-239736286D01*
X98052095Y-239545810D01*
X98052095Y-239402952D01*
X98099714Y-239212476D01*
X98147333Y-239117238D01*
X98242571Y-239022000D01*
X98385429Y-238974381D01*
X98480667Y-238974381D01*
X98623524Y-239022000D01*
X98671143Y-239069619D01*
X99623524Y-239974381D02*
X99052095Y-239974381D01*
X99337809Y-239974381D02*
X99337809Y-238974381D01*
X99242571Y-239117238D01*
X99147333Y-239212476D01*
X99052095Y-239260095D01*
X100575905Y-239974381D02*
X100004476Y-239974381D01*
X100290190Y-239974381D02*
X100290190Y-238974381D01*
X100194952Y-239117238D01*
X100099714Y-239212476D01*
X100004476Y-239260095D01*
X150741143Y-243435143D02*
X150693524Y-243482762D01*
X150550667Y-243530381D01*
X150455429Y-243530381D01*
X150312571Y-243482762D01*
X150217333Y-243387524D01*
X150169714Y-243292286D01*
X150122095Y-243101810D01*
X150122095Y-242958952D01*
X150169714Y-242768476D01*
X150217333Y-242673238D01*
X150312571Y-242578000D01*
X150455429Y-242530381D01*
X150550667Y-242530381D01*
X150693524Y-242578000D01*
X150741143Y-242625619D01*
X151693524Y-243530381D02*
X151122095Y-243530381D01*
X151407809Y-243530381D02*
X151407809Y-242530381D01*
X151312571Y-242673238D01*
X151217333Y-242768476D01*
X151122095Y-242816095D01*
X152074476Y-242625619D02*
X152122095Y-242578000D01*
X152217333Y-242530381D01*
X152455429Y-242530381D01*
X152550667Y-242578000D01*
X152598286Y-242625619D01*
X152645905Y-242720857D01*
X152645905Y-242816095D01*
X152598286Y-242958952D01*
X152026857Y-243530381D01*
X152645905Y-243530381D01*
X144645143Y-243435143D02*
X144597524Y-243482762D01*
X144454667Y-243530381D01*
X144359429Y-243530381D01*
X144216571Y-243482762D01*
X144121333Y-243387524D01*
X144073714Y-243292286D01*
X144026095Y-243101810D01*
X144026095Y-242958952D01*
X144073714Y-242768476D01*
X144121333Y-242673238D01*
X144216571Y-242578000D01*
X144359429Y-242530381D01*
X144454667Y-242530381D01*
X144597524Y-242578000D01*
X144645143Y-242625619D01*
X145597524Y-243530381D02*
X145026095Y-243530381D01*
X145311809Y-243530381D02*
X145311809Y-242530381D01*
X145216571Y-242673238D01*
X145121333Y-242768476D01*
X145026095Y-242816095D01*
X145930857Y-242530381D02*
X146549905Y-242530381D01*
X146216571Y-242911333D01*
X146359429Y-242911333D01*
X146454667Y-242958952D01*
X146502286Y-243006571D01*
X146549905Y-243101810D01*
X146549905Y-243339905D01*
X146502286Y-243435143D01*
X146454667Y-243482762D01*
X146359429Y-243530381D01*
X146073714Y-243530381D01*
X145978476Y-243482762D01*
X145930857Y-243435143D01*
X124497143Y-251096385D02*
X124544762Y-251144004D01*
X124592381Y-251286861D01*
X124592381Y-251382099D01*
X124544762Y-251524957D01*
X124449524Y-251620195D01*
X124354286Y-251667814D01*
X124163810Y-251715433D01*
X124020952Y-251715433D01*
X123830476Y-251667814D01*
X123735238Y-251620195D01*
X123640000Y-251524957D01*
X123592381Y-251382099D01*
X123592381Y-251286861D01*
X123640000Y-251144004D01*
X123687619Y-251096385D01*
X124592381Y-250144004D02*
X124592381Y-250715433D01*
X124592381Y-250429719D02*
X123592381Y-250429719D01*
X123735238Y-250524957D01*
X123830476Y-250620195D01*
X123878095Y-250715433D01*
X123925714Y-249286861D02*
X124592381Y-249286861D01*
X123544762Y-249524957D02*
X124259048Y-249763052D01*
X124259048Y-249144004D01*
X96877143Y-247160857D02*
X96924762Y-247208476D01*
X96972381Y-247351333D01*
X96972381Y-247446571D01*
X96924762Y-247589429D01*
X96829524Y-247684667D01*
X96734286Y-247732286D01*
X96543810Y-247779905D01*
X96400952Y-247779905D01*
X96210476Y-247732286D01*
X96115238Y-247684667D01*
X96020000Y-247589429D01*
X95972381Y-247446571D01*
X95972381Y-247351333D01*
X96020000Y-247208476D01*
X96067619Y-247160857D01*
X96972381Y-246208476D02*
X96972381Y-246779905D01*
X96972381Y-246494191D02*
X95972381Y-246494191D01*
X96115238Y-246589429D01*
X96210476Y-246684667D01*
X96258095Y-246779905D01*
X95972381Y-245303714D02*
X95972381Y-245779905D01*
X96448571Y-245827524D01*
X96400952Y-245779905D01*
X96353333Y-245684667D01*
X96353333Y-245446571D01*
X96400952Y-245351333D01*
X96448571Y-245303714D01*
X96543810Y-245256095D01*
X96781905Y-245256095D01*
X96877143Y-245303714D01*
X96924762Y-245351333D01*
X96972381Y-245446571D01*
X96972381Y-245684667D01*
X96924762Y-245779905D01*
X96877143Y-245827524D01*
X122997143Y-251112857D02*
X123044762Y-251160476D01*
X123092381Y-251303333D01*
X123092381Y-251398571D01*
X123044762Y-251541429D01*
X122949524Y-251636667D01*
X122854286Y-251684286D01*
X122663810Y-251731905D01*
X122520952Y-251731905D01*
X122330476Y-251684286D01*
X122235238Y-251636667D01*
X122140000Y-251541429D01*
X122092381Y-251398571D01*
X122092381Y-251303333D01*
X122140000Y-251160476D01*
X122187619Y-251112857D01*
X123092381Y-250160476D02*
X123092381Y-250731905D01*
X123092381Y-250446191D02*
X122092381Y-250446191D01*
X122235238Y-250541429D01*
X122330476Y-250636667D01*
X122378095Y-250731905D01*
X122092381Y-249303333D02*
X122092381Y-249493810D01*
X122140000Y-249589048D01*
X122187619Y-249636667D01*
X122330476Y-249731905D01*
X122520952Y-249779524D01*
X122901905Y-249779524D01*
X122997143Y-249731905D01*
X123044762Y-249684286D01*
X123092381Y-249589048D01*
X123092381Y-249398571D01*
X123044762Y-249303333D01*
X122997143Y-249255714D01*
X122901905Y-249208095D01*
X122663810Y-249208095D01*
X122568571Y-249255714D01*
X122520952Y-249303333D01*
X122473333Y-249398571D01*
X122473333Y-249589048D01*
X122520952Y-249684286D01*
X122568571Y-249731905D01*
X122663810Y-249779524D01*
X119517143Y-251142857D02*
X119564762Y-251190476D01*
X119612381Y-251333333D01*
X119612381Y-251428571D01*
X119564762Y-251571429D01*
X119469524Y-251666667D01*
X119374286Y-251714286D01*
X119183810Y-251761905D01*
X119040952Y-251761905D01*
X118850476Y-251714286D01*
X118755238Y-251666667D01*
X118660000Y-251571429D01*
X118612381Y-251428571D01*
X118612381Y-251333333D01*
X118660000Y-251190476D01*
X118707619Y-251142857D01*
X119612381Y-250190476D02*
X119612381Y-250761905D01*
X119612381Y-250476191D02*
X118612381Y-250476191D01*
X118755238Y-250571429D01*
X118850476Y-250666667D01*
X118898095Y-250761905D01*
X118612381Y-249857143D02*
X118612381Y-249190476D01*
X119612381Y-249619048D01*
X98787143Y-234507143D02*
X98739524Y-234554762D01*
X98596667Y-234602381D01*
X98501429Y-234602381D01*
X98358571Y-234554762D01*
X98263333Y-234459524D01*
X98215714Y-234364286D01*
X98168095Y-234173810D01*
X98168095Y-234030952D01*
X98215714Y-233840476D01*
X98263333Y-233745238D01*
X98358571Y-233650000D01*
X98501429Y-233602381D01*
X98596667Y-233602381D01*
X98739524Y-233650000D01*
X98787143Y-233697619D01*
X99739524Y-234602381D02*
X99168095Y-234602381D01*
X99453809Y-234602381D02*
X99453809Y-233602381D01*
X99358571Y-233745238D01*
X99263333Y-233840476D01*
X99168095Y-233888095D01*
X100310952Y-234030952D02*
X100215714Y-233983333D01*
X100168095Y-233935714D01*
X100120476Y-233840476D01*
X100120476Y-233792857D01*
X100168095Y-233697619D01*
X100215714Y-233650000D01*
X100310952Y-233602381D01*
X100501429Y-233602381D01*
X100596667Y-233650000D01*
X100644286Y-233697619D01*
X100691905Y-233792857D01*
X100691905Y-233840476D01*
X100644286Y-233935714D01*
X100596667Y-233983333D01*
X100501429Y-234030952D01*
X100310952Y-234030952D01*
X100215714Y-234078571D01*
X100168095Y-234126190D01*
X100120476Y-234221429D01*
X100120476Y-234411905D01*
X100168095Y-234507143D01*
X100215714Y-234554762D01*
X100310952Y-234602381D01*
X100501429Y-234602381D01*
X100596667Y-234554762D01*
X100644286Y-234507143D01*
X100691905Y-234411905D01*
X100691905Y-234221429D01*
X100644286Y-234126190D01*
X100596667Y-234078571D01*
X100501429Y-234030952D01*
X118737143Y-212701143D02*
X118689524Y-212748762D01*
X118546667Y-212796381D01*
X118451429Y-212796381D01*
X118308571Y-212748762D01*
X118213333Y-212653524D01*
X118165714Y-212558286D01*
X118118095Y-212367810D01*
X118118095Y-212224952D01*
X118165714Y-212034476D01*
X118213333Y-211939238D01*
X118308571Y-211844000D01*
X118451429Y-211796381D01*
X118546667Y-211796381D01*
X118689524Y-211844000D01*
X118737143Y-211891619D01*
X119689524Y-212796381D02*
X119118095Y-212796381D01*
X119403809Y-212796381D02*
X119403809Y-211796381D01*
X119308571Y-211939238D01*
X119213333Y-212034476D01*
X119118095Y-212082095D01*
X120165714Y-212796381D02*
X120356190Y-212796381D01*
X120451429Y-212748762D01*
X120499048Y-212701143D01*
X120594286Y-212558286D01*
X120641905Y-212367810D01*
X120641905Y-211986857D01*
X120594286Y-211891619D01*
X120546667Y-211844000D01*
X120451429Y-211796381D01*
X120260952Y-211796381D01*
X120165714Y-211844000D01*
X120118095Y-211891619D01*
X120070476Y-211986857D01*
X120070476Y-212224952D01*
X120118095Y-212320190D01*
X120165714Y-212367810D01*
X120260952Y-212415429D01*
X120451429Y-212415429D01*
X120546667Y-212367810D01*
X120594286Y-212320190D01*
X120641905Y-212224952D01*
X98737143Y-233001143D02*
X98689524Y-233048762D01*
X98546667Y-233096381D01*
X98451429Y-233096381D01*
X98308571Y-233048762D01*
X98213333Y-232953524D01*
X98165714Y-232858286D01*
X98118095Y-232667810D01*
X98118095Y-232524952D01*
X98165714Y-232334476D01*
X98213333Y-232239238D01*
X98308571Y-232144000D01*
X98451429Y-232096381D01*
X98546667Y-232096381D01*
X98689524Y-232144000D01*
X98737143Y-232191619D01*
X99118095Y-232191619D02*
X99165714Y-232144000D01*
X99260952Y-232096381D01*
X99499048Y-232096381D01*
X99594286Y-232144000D01*
X99641905Y-232191619D01*
X99689524Y-232286857D01*
X99689524Y-232382095D01*
X99641905Y-232524952D01*
X99070476Y-233096381D01*
X99689524Y-233096381D01*
X100308571Y-232096381D02*
X100403810Y-232096381D01*
X100499048Y-232144000D01*
X100546667Y-232191619D01*
X100594286Y-232286857D01*
X100641905Y-232477333D01*
X100641905Y-232715429D01*
X100594286Y-232905905D01*
X100546667Y-233001143D01*
X100499048Y-233048762D01*
X100403810Y-233096381D01*
X100308571Y-233096381D01*
X100213333Y-233048762D01*
X100165714Y-233001143D01*
X100118095Y-232905905D01*
X100070476Y-232715429D01*
X100070476Y-232477333D01*
X100118095Y-232286857D01*
X100165714Y-232191619D01*
X100213333Y-232144000D01*
X100308571Y-232096381D01*
X121785143Y-212701143D02*
X121737524Y-212748762D01*
X121594667Y-212796381D01*
X121499429Y-212796381D01*
X121356571Y-212748762D01*
X121261333Y-212653524D01*
X121213714Y-212558286D01*
X121166095Y-212367810D01*
X121166095Y-212224952D01*
X121213714Y-212034476D01*
X121261333Y-211939238D01*
X121356571Y-211844000D01*
X121499429Y-211796381D01*
X121594667Y-211796381D01*
X121737524Y-211844000D01*
X121785143Y-211891619D01*
X122166095Y-211891619D02*
X122213714Y-211844000D01*
X122308952Y-211796381D01*
X122547048Y-211796381D01*
X122642286Y-211844000D01*
X122689905Y-211891619D01*
X122737524Y-211986857D01*
X122737524Y-212082095D01*
X122689905Y-212224952D01*
X122118476Y-212796381D01*
X122737524Y-212796381D01*
X123689905Y-212796381D02*
X123118476Y-212796381D01*
X123404190Y-212796381D02*
X123404190Y-211796381D01*
X123308952Y-211939238D01*
X123213714Y-212034476D01*
X123118476Y-212082095D01*
X105256143Y-245260857D02*
X105303762Y-245308476D01*
X105351381Y-245451333D01*
X105351381Y-245546571D01*
X105303762Y-245689429D01*
X105208524Y-245784667D01*
X105113286Y-245832286D01*
X104922810Y-245879905D01*
X104779952Y-245879905D01*
X104589476Y-245832286D01*
X104494238Y-245784667D01*
X104399000Y-245689429D01*
X104351381Y-245546571D01*
X104351381Y-245451333D01*
X104399000Y-245308476D01*
X104446619Y-245260857D01*
X104446619Y-244879905D02*
X104399000Y-244832286D01*
X104351381Y-244737048D01*
X104351381Y-244498952D01*
X104399000Y-244403714D01*
X104446619Y-244356095D01*
X104541857Y-244308476D01*
X104637095Y-244308476D01*
X104779952Y-244356095D01*
X105351381Y-244927524D01*
X105351381Y-244308476D01*
X104446619Y-243927524D02*
X104399000Y-243879905D01*
X104351381Y-243784667D01*
X104351381Y-243546571D01*
X104399000Y-243451333D01*
X104446619Y-243403714D01*
X104541857Y-243356095D01*
X104637095Y-243356095D01*
X104779952Y-243403714D01*
X105351381Y-243975143D01*
X105351381Y-243356095D01*
X118289143Y-196659143D02*
X118241524Y-196706762D01*
X118098667Y-196754381D01*
X118003429Y-196754381D01*
X117860571Y-196706762D01*
X117765333Y-196611524D01*
X117717714Y-196516286D01*
X117670095Y-196325810D01*
X117670095Y-196182952D01*
X117717714Y-195992476D01*
X117765333Y-195897238D01*
X117860571Y-195802000D01*
X118003429Y-195754381D01*
X118098667Y-195754381D01*
X118241524Y-195802000D01*
X118289143Y-195849619D01*
X118670095Y-195849619D02*
X118717714Y-195802000D01*
X118812952Y-195754381D01*
X119051048Y-195754381D01*
X119146286Y-195802000D01*
X119193905Y-195849619D01*
X119241524Y-195944857D01*
X119241524Y-196040095D01*
X119193905Y-196182952D01*
X118622476Y-196754381D01*
X119241524Y-196754381D01*
X119574857Y-195754381D02*
X120193905Y-195754381D01*
X119860571Y-196135333D01*
X120003429Y-196135333D01*
X120098667Y-196182952D01*
X120146286Y-196230571D01*
X120193905Y-196325810D01*
X120193905Y-196563905D01*
X120146286Y-196659143D01*
X120098667Y-196706762D01*
X120003429Y-196754381D01*
X119717714Y-196754381D01*
X119622476Y-196706762D01*
X119574857Y-196659143D01*
X114840410Y-245254606D02*
X114888029Y-245302225D01*
X114935648Y-245445082D01*
X114935648Y-245540320D01*
X114888029Y-245683178D01*
X114792791Y-245778416D01*
X114697553Y-245826035D01*
X114507077Y-245873654D01*
X114364219Y-245873654D01*
X114173743Y-245826035D01*
X114078505Y-245778416D01*
X113983267Y-245683178D01*
X113935648Y-245540320D01*
X113935648Y-245445082D01*
X113983267Y-245302225D01*
X114030886Y-245254606D01*
X114030886Y-244873654D02*
X113983267Y-244826035D01*
X113935648Y-244730797D01*
X113935648Y-244492701D01*
X113983267Y-244397463D01*
X114030886Y-244349844D01*
X114126124Y-244302225D01*
X114221362Y-244302225D01*
X114364219Y-244349844D01*
X114935648Y-244921273D01*
X114935648Y-244302225D01*
X114268981Y-243445082D02*
X114935648Y-243445082D01*
X113888029Y-243683178D02*
X114602315Y-243921273D01*
X114602315Y-243302225D01*
X83365143Y-109811143D02*
X83317524Y-109858762D01*
X83174667Y-109906381D01*
X83079429Y-109906381D01*
X82936571Y-109858762D01*
X82841333Y-109763524D01*
X82793714Y-109668286D01*
X82746095Y-109477810D01*
X82746095Y-109334952D01*
X82793714Y-109144476D01*
X82841333Y-109049238D01*
X82936571Y-108954000D01*
X83079429Y-108906381D01*
X83174667Y-108906381D01*
X83317524Y-108954000D01*
X83365143Y-109001619D01*
X83746095Y-109001619D02*
X83793714Y-108954000D01*
X83888952Y-108906381D01*
X84127048Y-108906381D01*
X84222286Y-108954000D01*
X84269905Y-109001619D01*
X84317524Y-109096857D01*
X84317524Y-109192095D01*
X84269905Y-109334952D01*
X83698476Y-109906381D01*
X84317524Y-109906381D01*
X85222286Y-108906381D02*
X84746095Y-108906381D01*
X84698476Y-109382571D01*
X84746095Y-109334952D01*
X84841333Y-109287333D01*
X85079429Y-109287333D01*
X85174667Y-109334952D01*
X85222286Y-109382571D01*
X85269905Y-109477810D01*
X85269905Y-109715905D01*
X85222286Y-109811143D01*
X85174667Y-109858762D01*
X85079429Y-109906381D01*
X84841333Y-109906381D01*
X84746095Y-109858762D01*
X84698476Y-109811143D01*
X144899143Y-95627143D02*
X144851524Y-95674762D01*
X144708667Y-95722381D01*
X144613429Y-95722381D01*
X144470571Y-95674762D01*
X144375333Y-95579524D01*
X144327714Y-95484286D01*
X144280095Y-95293810D01*
X144280095Y-95150952D01*
X144327714Y-94960476D01*
X144375333Y-94865238D01*
X144470571Y-94770000D01*
X144613429Y-94722381D01*
X144708667Y-94722381D01*
X144851524Y-94770000D01*
X144899143Y-94817619D01*
X145280095Y-94817619D02*
X145327714Y-94770000D01*
X145422952Y-94722381D01*
X145661048Y-94722381D01*
X145756286Y-94770000D01*
X145803905Y-94817619D01*
X145851524Y-94912857D01*
X145851524Y-95008095D01*
X145803905Y-95150952D01*
X145232476Y-95722381D01*
X145851524Y-95722381D01*
X146708667Y-94722381D02*
X146518190Y-94722381D01*
X146422952Y-94770000D01*
X146375333Y-94817619D01*
X146280095Y-94960476D01*
X146232476Y-95150952D01*
X146232476Y-95531905D01*
X146280095Y-95627143D01*
X146327714Y-95674762D01*
X146422952Y-95722381D01*
X146613429Y-95722381D01*
X146708667Y-95674762D01*
X146756286Y-95627143D01*
X146803905Y-95531905D01*
X146803905Y-95293810D01*
X146756286Y-95198571D01*
X146708667Y-95150952D01*
X146613429Y-95103333D01*
X146422952Y-95103333D01*
X146327714Y-95150952D01*
X146280095Y-95198571D01*
X146232476Y-95293810D01*
X161464667Y-94150381D02*
X161464667Y-94864667D01*
X161417047Y-95007524D01*
X161321809Y-95102762D01*
X161178952Y-95150381D01*
X161083714Y-95150381D01*
X161893238Y-94245619D02*
X161940857Y-94198000D01*
X162036095Y-94150381D01*
X162274191Y-94150381D01*
X162369429Y-94198000D01*
X162417048Y-94245619D01*
X162464667Y-94340857D01*
X162464667Y-94436095D01*
X162417048Y-94578952D01*
X161845619Y-95150381D01*
X162464667Y-95150381D01*
X161464667Y-105580381D02*
X161464667Y-106294667D01*
X161417047Y-106437524D01*
X161321809Y-106532762D01*
X161178952Y-106580381D01*
X161083714Y-106580381D01*
X161845619Y-105580381D02*
X162464667Y-105580381D01*
X162131333Y-105961333D01*
X162274191Y-105961333D01*
X162369429Y-106008952D01*
X162417048Y-106056571D01*
X162464667Y-106151810D01*
X162464667Y-106389905D01*
X162417048Y-106485143D01*
X162369429Y-106532762D01*
X162274191Y-106580381D01*
X161988476Y-106580381D01*
X161893238Y-106532762D01*
X161845619Y-106485143D01*
X160219667Y-89104381D02*
X160219667Y-89818667D01*
X160172047Y-89961524D01*
X160076809Y-90056762D01*
X159933952Y-90104381D01*
X159838714Y-90104381D01*
X161172048Y-89104381D02*
X160695857Y-89104381D01*
X160648238Y-89580571D01*
X160695857Y-89532952D01*
X160791095Y-89485333D01*
X161029191Y-89485333D01*
X161124429Y-89532952D01*
X161172048Y-89580571D01*
X161219667Y-89675810D01*
X161219667Y-89913905D01*
X161172048Y-90009143D01*
X161124429Y-90056762D01*
X161029191Y-90104381D01*
X160791095Y-90104381D01*
X160695857Y-90056762D01*
X160648238Y-90009143D01*
X160169667Y-81504381D02*
X160169667Y-82218667D01*
X160122047Y-82361524D01*
X160026809Y-82456762D01*
X159883952Y-82504381D01*
X159788714Y-82504381D01*
X161074429Y-81504381D02*
X160883952Y-81504381D01*
X160788714Y-81552000D01*
X160741095Y-81599619D01*
X160645857Y-81742476D01*
X160598238Y-81932952D01*
X160598238Y-82313905D01*
X160645857Y-82409143D01*
X160693476Y-82456762D01*
X160788714Y-82504381D01*
X160979191Y-82504381D01*
X161074429Y-82456762D01*
X161122048Y-82409143D01*
X161169667Y-82313905D01*
X161169667Y-82075810D01*
X161122048Y-81980571D01*
X161074429Y-81932952D01*
X160979191Y-81885333D01*
X160788714Y-81885333D01*
X160693476Y-81932952D01*
X160645857Y-81980571D01*
X160598238Y-82075810D01*
X118715334Y-192754381D02*
X118239143Y-192754381D01*
X118239143Y-191754381D01*
X119572477Y-192754381D02*
X119001048Y-192754381D01*
X119286762Y-192754381D02*
X119286762Y-191754381D01*
X119191524Y-191897238D01*
X119096286Y-191992476D01*
X119001048Y-192040095D01*
X83931334Y-109864381D02*
X83455143Y-109864381D01*
X83455143Y-108864381D01*
X84217048Y-108959619D02*
X84264667Y-108912000D01*
X84359905Y-108864381D01*
X84598001Y-108864381D01*
X84693239Y-108912000D01*
X84740858Y-108959619D01*
X84788477Y-109054857D01*
X84788477Y-109150095D01*
X84740858Y-109292952D01*
X84169429Y-109864381D01*
X84788477Y-109864381D01*
X145128058Y-89570581D02*
X144651867Y-89570581D01*
X144651867Y-88570581D01*
X145366153Y-88570581D02*
X145985201Y-88570581D01*
X145651867Y-88951533D01*
X145794725Y-88951533D01*
X145889963Y-88999152D01*
X145937582Y-89046771D01*
X145985201Y-89142010D01*
X145985201Y-89380105D01*
X145937582Y-89475343D01*
X145889963Y-89522962D01*
X145794725Y-89570581D01*
X145509010Y-89570581D01*
X145413772Y-89522962D01*
X145366153Y-89475343D01*
X148169334Y-243530381D02*
X147693143Y-243530381D01*
X147693143Y-242530381D01*
X148931239Y-242863714D02*
X148931239Y-243530381D01*
X148693143Y-242482762D02*
X148455048Y-243197048D01*
X149074096Y-243197048D01*
X111866381Y-244784666D02*
X111866381Y-245260857D01*
X110866381Y-245260857D01*
X110866381Y-243975142D02*
X110866381Y-244451333D01*
X111342571Y-244498952D01*
X111294952Y-244451333D01*
X111247333Y-244356095D01*
X111247333Y-244117999D01*
X111294952Y-244022761D01*
X111342571Y-243975142D01*
X111437810Y-243927523D01*
X111675905Y-243927523D01*
X111771143Y-243975142D01*
X111818762Y-244022761D01*
X111866381Y-244117999D01*
X111866381Y-244356095D01*
X111818762Y-244451333D01*
X111771143Y-244498952D01*
X160043905Y-70048381D02*
X160043905Y-69048381D01*
X160424858Y-69048381D01*
X160520096Y-69096000D01*
X160567715Y-69143619D01*
X160615334Y-69238857D01*
X160615334Y-69381714D01*
X160567715Y-69476952D01*
X160520096Y-69524571D01*
X160424858Y-69572190D01*
X160043905Y-69572190D01*
X161567715Y-70048381D02*
X160996286Y-70048381D01*
X161282000Y-70048381D02*
X161282000Y-69048381D01*
X161186762Y-69191238D01*
X161091524Y-69286476D01*
X160996286Y-69334095D01*
X151103105Y-44699181D02*
X151103105Y-43699181D01*
X151484058Y-43699181D01*
X151579296Y-43746800D01*
X151626915Y-43794419D01*
X151674534Y-43889657D01*
X151674534Y-44032514D01*
X151626915Y-44127752D01*
X151579296Y-44175371D01*
X151484058Y-44222990D01*
X151103105Y-44222990D01*
X152007867Y-43699181D02*
X152626915Y-43699181D01*
X152293581Y-44080133D01*
X152436439Y-44080133D01*
X152531677Y-44127752D01*
X152579296Y-44175371D01*
X152626915Y-44270610D01*
X152626915Y-44508705D01*
X152579296Y-44603943D01*
X152531677Y-44651562D01*
X152436439Y-44699181D01*
X152150724Y-44699181D01*
X152055486Y-44651562D01*
X152007867Y-44603943D01*
X151153905Y-57145181D02*
X151153905Y-56145181D01*
X151534858Y-56145181D01*
X151630096Y-56192800D01*
X151677715Y-56240419D01*
X151725334Y-56335657D01*
X151725334Y-56478514D01*
X151677715Y-56573752D01*
X151630096Y-56621371D01*
X151534858Y-56668990D01*
X151153905Y-56668990D01*
X152582477Y-56478514D02*
X152582477Y-57145181D01*
X152344381Y-56097562D02*
X152106286Y-56811848D01*
X152725334Y-56811848D01*
X160145505Y-57145181D02*
X160145505Y-56145181D01*
X160526458Y-56145181D01*
X160621696Y-56192800D01*
X160669315Y-56240419D01*
X160716934Y-56335657D01*
X160716934Y-56478514D01*
X160669315Y-56573752D01*
X160621696Y-56621371D01*
X160526458Y-56668990D01*
X160145505Y-56668990D01*
X161621696Y-56145181D02*
X161145505Y-56145181D01*
X161097886Y-56621371D01*
X161145505Y-56573752D01*
X161240743Y-56526133D01*
X161478839Y-56526133D01*
X161574077Y-56573752D01*
X161621696Y-56621371D01*
X161669315Y-56716610D01*
X161669315Y-56954705D01*
X161621696Y-57049943D01*
X161574077Y-57097562D01*
X161478839Y-57145181D01*
X161240743Y-57145181D01*
X161145505Y-57097562D01*
X161097886Y-57049943D01*
X160196305Y-44699181D02*
X160196305Y-43699181D01*
X160577258Y-43699181D01*
X160672496Y-43746800D01*
X160720115Y-43794419D01*
X160767734Y-43889657D01*
X160767734Y-44032514D01*
X160720115Y-44127752D01*
X160672496Y-44175371D01*
X160577258Y-44222990D01*
X160196305Y-44222990D01*
X161624877Y-43699181D02*
X161434400Y-43699181D01*
X161339162Y-43746800D01*
X161291543Y-43794419D01*
X161196305Y-43937276D01*
X161148686Y-44127752D01*
X161148686Y-44508705D01*
X161196305Y-44603943D01*
X161243924Y-44651562D01*
X161339162Y-44699181D01*
X161529639Y-44699181D01*
X161624877Y-44651562D01*
X161672496Y-44603943D01*
X161720115Y-44508705D01*
X161720115Y-44270610D01*
X161672496Y-44175371D01*
X161624877Y-44127752D01*
X161529639Y-44080133D01*
X161339162Y-44080133D01*
X161243924Y-44127752D01*
X161196305Y-44175371D01*
X161148686Y-44270610D01*
X140887334Y-254272381D02*
X140554000Y-253796190D01*
X140315905Y-254272381D02*
X140315905Y-253272381D01*
X140696858Y-253272381D01*
X140792096Y-253320000D01*
X140839715Y-253367619D01*
X140887334Y-253462857D01*
X140887334Y-253605714D01*
X140839715Y-253700952D01*
X140792096Y-253748571D01*
X140696858Y-253796190D01*
X140315905Y-253796190D01*
X141839715Y-254272381D02*
X141268286Y-254272381D01*
X141554000Y-254272381D02*
X141554000Y-253272381D01*
X141458762Y-253415238D01*
X141363524Y-253510476D01*
X141268286Y-253558095D01*
X138517334Y-232608381D02*
X138184000Y-232132190D01*
X137945905Y-232608381D02*
X137945905Y-231608381D01*
X138326858Y-231608381D01*
X138422096Y-231656000D01*
X138469715Y-231703619D01*
X138517334Y-231798857D01*
X138517334Y-231941714D01*
X138469715Y-232036952D01*
X138422096Y-232084571D01*
X138326858Y-232132190D01*
X137945905Y-232132190D01*
X138850667Y-231608381D02*
X139469715Y-231608381D01*
X139136381Y-231989333D01*
X139279239Y-231989333D01*
X139374477Y-232036952D01*
X139422096Y-232084571D01*
X139469715Y-232179810D01*
X139469715Y-232417905D01*
X139422096Y-232513143D01*
X139374477Y-232560762D01*
X139279239Y-232608381D01*
X138993524Y-232608381D01*
X138898286Y-232560762D01*
X138850667Y-232513143D01*
X140295334Y-230068381D02*
X139962000Y-229592190D01*
X139723905Y-230068381D02*
X139723905Y-229068381D01*
X140104858Y-229068381D01*
X140200096Y-229116000D01*
X140247715Y-229163619D01*
X140295334Y-229258857D01*
X140295334Y-229401714D01*
X140247715Y-229496952D01*
X140200096Y-229544571D01*
X140104858Y-229592190D01*
X139723905Y-229592190D01*
X141152477Y-229401714D02*
X141152477Y-230068381D01*
X140914381Y-229020762D02*
X140676286Y-229735048D01*
X141295334Y-229735048D01*
X140041334Y-226004381D02*
X139708000Y-225528190D01*
X139469905Y-226004381D02*
X139469905Y-225004381D01*
X139850858Y-225004381D01*
X139946096Y-225052000D01*
X139993715Y-225099619D01*
X140041334Y-225194857D01*
X140041334Y-225337714D01*
X139993715Y-225432952D01*
X139946096Y-225480571D01*
X139850858Y-225528190D01*
X139469905Y-225528190D01*
X140946096Y-225004381D02*
X140469905Y-225004381D01*
X140422286Y-225480571D01*
X140469905Y-225432952D01*
X140565143Y-225385333D01*
X140803239Y-225385333D01*
X140898477Y-225432952D01*
X140946096Y-225480571D01*
X140993715Y-225575810D01*
X140993715Y-225813905D01*
X140946096Y-225909143D01*
X140898477Y-225956762D01*
X140803239Y-226004381D01*
X140565143Y-226004381D01*
X140469905Y-225956762D01*
X140422286Y-225909143D01*
X138687334Y-261490381D02*
X138354000Y-261014190D01*
X138115905Y-261490381D02*
X138115905Y-260490381D01*
X138496858Y-260490381D01*
X138592096Y-260538000D01*
X138639715Y-260585619D01*
X138687334Y-260680857D01*
X138687334Y-260823714D01*
X138639715Y-260918952D01*
X138592096Y-260966571D01*
X138496858Y-261014190D01*
X138115905Y-261014190D01*
X139544477Y-260490381D02*
X139354000Y-260490381D01*
X139258762Y-260538000D01*
X139211143Y-260585619D01*
X139115905Y-260728476D01*
X139068286Y-260918952D01*
X139068286Y-261299905D01*
X139115905Y-261395143D01*
X139163524Y-261442762D01*
X139258762Y-261490381D01*
X139449239Y-261490381D01*
X139544477Y-261442762D01*
X139592096Y-261395143D01*
X139639715Y-261299905D01*
X139639715Y-261061810D01*
X139592096Y-260966571D01*
X139544477Y-260918952D01*
X139449239Y-260871333D01*
X139258762Y-260871333D01*
X139163524Y-260918952D01*
X139115905Y-260966571D01*
X139068286Y-261061810D01*
X115911334Y-218892381D02*
X115578000Y-218416190D01*
X115339905Y-218892381D02*
X115339905Y-217892381D01*
X115720858Y-217892381D01*
X115816096Y-217940000D01*
X115863715Y-217987619D01*
X115911334Y-218082857D01*
X115911334Y-218225714D01*
X115863715Y-218320952D01*
X115816096Y-218368571D01*
X115720858Y-218416190D01*
X115339905Y-218416190D01*
X116244667Y-217892381D02*
X116911334Y-217892381D01*
X116482762Y-218892381D01*
X140041334Y-228036381D02*
X139708000Y-227560190D01*
X139469905Y-228036381D02*
X139469905Y-227036381D01*
X139850858Y-227036381D01*
X139946096Y-227084000D01*
X139993715Y-227131619D01*
X140041334Y-227226857D01*
X140041334Y-227369714D01*
X139993715Y-227464952D01*
X139946096Y-227512571D01*
X139850858Y-227560190D01*
X139469905Y-227560190D01*
X140612762Y-227464952D02*
X140517524Y-227417333D01*
X140469905Y-227369714D01*
X140422286Y-227274476D01*
X140422286Y-227226857D01*
X140469905Y-227131619D01*
X140517524Y-227084000D01*
X140612762Y-227036381D01*
X140803239Y-227036381D01*
X140898477Y-227084000D01*
X140946096Y-227131619D01*
X140993715Y-227226857D01*
X140993715Y-227274476D01*
X140946096Y-227369714D01*
X140898477Y-227417333D01*
X140803239Y-227464952D01*
X140612762Y-227464952D01*
X140517524Y-227512571D01*
X140469905Y-227560190D01*
X140422286Y-227655429D01*
X140422286Y-227845905D01*
X140469905Y-227941143D01*
X140517524Y-227988762D01*
X140612762Y-228036381D01*
X140803239Y-228036381D01*
X140898477Y-227988762D01*
X140946096Y-227941143D01*
X140993715Y-227845905D01*
X140993715Y-227655429D01*
X140946096Y-227560190D01*
X140898477Y-227512571D01*
X140803239Y-227464952D01*
X140137334Y-223718381D02*
X139804000Y-223242190D01*
X139565905Y-223718381D02*
X139565905Y-222718381D01*
X139946858Y-222718381D01*
X140042096Y-222766000D01*
X140089715Y-222813619D01*
X140137334Y-222908857D01*
X140137334Y-223051714D01*
X140089715Y-223146952D01*
X140042096Y-223194571D01*
X139946858Y-223242190D01*
X139565905Y-223242190D01*
X140613524Y-223718381D02*
X140804000Y-223718381D01*
X140899239Y-223670762D01*
X140946858Y-223623143D01*
X141042096Y-223480286D01*
X141089715Y-223289810D01*
X141089715Y-222908857D01*
X141042096Y-222813619D01*
X140994477Y-222766000D01*
X140899239Y-222718381D01*
X140708762Y-222718381D01*
X140613524Y-222766000D01*
X140565905Y-222813619D01*
X140518286Y-222908857D01*
X140518286Y-223146952D01*
X140565905Y-223242190D01*
X140613524Y-223289810D01*
X140708762Y-223337429D01*
X140899239Y-223337429D01*
X140994477Y-223289810D01*
X141042096Y-223242190D01*
X141089715Y-223146952D01*
X105783143Y-224988381D02*
X105449809Y-224512190D01*
X105211714Y-224988381D02*
X105211714Y-223988381D01*
X105592667Y-223988381D01*
X105687905Y-224036000D01*
X105735524Y-224083619D01*
X105783143Y-224178857D01*
X105783143Y-224321714D01*
X105735524Y-224416952D01*
X105687905Y-224464571D01*
X105592667Y-224512190D01*
X105211714Y-224512190D01*
X106735524Y-224988381D02*
X106164095Y-224988381D01*
X106449809Y-224988381D02*
X106449809Y-223988381D01*
X106354571Y-224131238D01*
X106259333Y-224226476D01*
X106164095Y-224274095D01*
X107354571Y-223988381D02*
X107449810Y-223988381D01*
X107545048Y-224036000D01*
X107592667Y-224083619D01*
X107640286Y-224178857D01*
X107687905Y-224369333D01*
X107687905Y-224607429D01*
X107640286Y-224797905D01*
X107592667Y-224893143D01*
X107545048Y-224940762D01*
X107449810Y-224988381D01*
X107354571Y-224988381D01*
X107259333Y-224940762D01*
X107211714Y-224893143D01*
X107164095Y-224797905D01*
X107116476Y-224607429D01*
X107116476Y-224369333D01*
X107164095Y-224178857D01*
X107211714Y-224083619D01*
X107259333Y-224036000D01*
X107354571Y-223988381D01*
X141597143Y-235910381D02*
X141263809Y-235434190D01*
X141025714Y-235910381D02*
X141025714Y-234910381D01*
X141406667Y-234910381D01*
X141501905Y-234958000D01*
X141549524Y-235005619D01*
X141597143Y-235100857D01*
X141597143Y-235243714D01*
X141549524Y-235338952D01*
X141501905Y-235386571D01*
X141406667Y-235434190D01*
X141025714Y-235434190D01*
X142549524Y-235910381D02*
X141978095Y-235910381D01*
X142263809Y-235910381D02*
X142263809Y-234910381D01*
X142168571Y-235053238D01*
X142073333Y-235148476D01*
X141978095Y-235196095D01*
X143501905Y-235910381D02*
X142930476Y-235910381D01*
X143216190Y-235910381D02*
X143216190Y-234910381D01*
X143120952Y-235053238D01*
X143025714Y-235148476D01*
X142930476Y-235196095D01*
X141597143Y-237688381D02*
X141263809Y-237212190D01*
X141025714Y-237688381D02*
X141025714Y-236688381D01*
X141406667Y-236688381D01*
X141501905Y-236736000D01*
X141549524Y-236783619D01*
X141597143Y-236878857D01*
X141597143Y-237021714D01*
X141549524Y-237116952D01*
X141501905Y-237164571D01*
X141406667Y-237212190D01*
X141025714Y-237212190D01*
X142549524Y-237688381D02*
X141978095Y-237688381D01*
X142263809Y-237688381D02*
X142263809Y-236688381D01*
X142168571Y-236831238D01*
X142073333Y-236926476D01*
X141978095Y-236974095D01*
X142930476Y-236783619D02*
X142978095Y-236736000D01*
X143073333Y-236688381D01*
X143311429Y-236688381D01*
X143406667Y-236736000D01*
X143454286Y-236783619D01*
X143501905Y-236878857D01*
X143501905Y-236974095D01*
X143454286Y-237116952D01*
X142882857Y-237688381D01*
X143501905Y-237688381D01*
X127960381Y-251086857D02*
X127484190Y-251420191D01*
X127960381Y-251658286D02*
X126960381Y-251658286D01*
X126960381Y-251277333D01*
X127008000Y-251182095D01*
X127055619Y-251134476D01*
X127150857Y-251086857D01*
X127293714Y-251086857D01*
X127388952Y-251134476D01*
X127436571Y-251182095D01*
X127484190Y-251277333D01*
X127484190Y-251658286D01*
X127960381Y-250134476D02*
X127960381Y-250705905D01*
X127960381Y-250420191D02*
X126960381Y-250420191D01*
X127103238Y-250515429D01*
X127198476Y-250610667D01*
X127246095Y-250705905D01*
X127293714Y-249277333D02*
X127960381Y-249277333D01*
X126912762Y-249515429D02*
X127627048Y-249753524D01*
X127627048Y-249134476D01*
X156566095Y-244490381D02*
X156566095Y-245299905D01*
X156613714Y-245395143D01*
X156661333Y-245442762D01*
X156756571Y-245490381D01*
X156947048Y-245490381D01*
X157042286Y-245442762D01*
X157089905Y-245395143D01*
X157137524Y-245299905D01*
X157137524Y-244490381D01*
X158137524Y-245490381D02*
X157566095Y-245490381D01*
X157851809Y-245490381D02*
X157851809Y-244490381D01*
X157756571Y-244633238D01*
X157661333Y-244728476D01*
X157566095Y-244776095D01*
X101152095Y-243070381D02*
X101152095Y-243879905D01*
X101199714Y-243975143D01*
X101247333Y-244022762D01*
X101342571Y-244070381D01*
X101533048Y-244070381D01*
X101628286Y-244022762D01*
X101675905Y-243975143D01*
X101723524Y-243879905D01*
X101723524Y-243070381D01*
X102104476Y-243070381D02*
X102723524Y-243070381D01*
X102390190Y-243451333D01*
X102533048Y-243451333D01*
X102628286Y-243498952D01*
X102675905Y-243546571D01*
X102723524Y-243641810D01*
X102723524Y-243879905D01*
X102675905Y-243975143D01*
X102628286Y-244022762D01*
X102533048Y-244070381D01*
X102247333Y-244070381D01*
X102152095Y-244022762D01*
X102104476Y-243975143D01*
X113061809Y-216130190D02*
X113061809Y-216606381D01*
X112728476Y-215606381D02*
X113061809Y-216130190D01*
X113395143Y-215606381D01*
X114252286Y-216606381D02*
X113680857Y-216606381D01*
X113966571Y-216606381D02*
X113966571Y-215606381D01*
X113871333Y-215749238D01*
X113776095Y-215844476D01*
X113680857Y-215892095D01*
X103084382Y-158353333D02*
X102608191Y-158686667D01*
X103084382Y-158924762D02*
X102084382Y-158924762D01*
X102084382Y-158543809D01*
X102132001Y-158448571D01*
X102179620Y-158400952D01*
X102274858Y-158353333D01*
X102417715Y-158353333D01*
X102512953Y-158400952D01*
X102560572Y-158448571D01*
X102608191Y-158543809D01*
X102608191Y-158924762D01*
X102560572Y-157924762D02*
X102560572Y-157591428D01*
X103084382Y-157448571D02*
X103084382Y-157924762D01*
X102084382Y-157924762D01*
X102084382Y-157448571D01*
X102560572Y-156686666D02*
X102560572Y-157020000D01*
X103084382Y-157020000D02*
X102084382Y-157020000D01*
X102084382Y-156543809D01*
X102084382Y-156020000D02*
X102322477Y-156020000D01*
X102227239Y-156258095D02*
X102322477Y-156020000D01*
X102227239Y-155781904D01*
X102512953Y-156162857D02*
X102322477Y-156020000D01*
X102512953Y-155877142D01*
X102084382Y-155258095D02*
X102322477Y-155258095D01*
X102227239Y-155496190D02*
X102322477Y-155258095D01*
X102227239Y-155019999D01*
X102512953Y-155400952D02*
X102322477Y-155258095D01*
X102512953Y-155115237D01*
X161821905Y-18052381D02*
X161821905Y-17052381D01*
X162060000Y-17052381D01*
X162202858Y-17100000D01*
X162298096Y-17195238D01*
X162345715Y-17290476D01*
X162393334Y-17480952D01*
X162393334Y-17623810D01*
X162345715Y-17814286D01*
X162298096Y-17909524D01*
X162202858Y-18004762D01*
X162060000Y-18052381D01*
X161821905Y-18052381D01*
X163345715Y-18052381D02*
X162774286Y-18052381D01*
X163060000Y-18052381D02*
X163060000Y-17052381D01*
X162964762Y-17195238D01*
X162869524Y-17290476D01*
X162774286Y-17338095D01*
X161879546Y722932D02*
X161879546Y1722932D01*
X162117641Y1722932D01*
X162260499Y1675313D01*
X162355737Y1580075D01*
X162403356Y1484837D01*
X162450975Y1294361D01*
X162450975Y1151503D01*
X162403356Y961027D01*
X162355737Y865789D01*
X162260499Y770551D01*
X162117641Y722932D01*
X161879546Y722932D01*
X162831927Y1627694D02*
X162879546Y1675313D01*
X162974784Y1722932D01*
X163212880Y1722932D01*
X163308118Y1675313D01*
X163355737Y1627694D01*
X163403356Y1532456D01*
X163403356Y1437218D01*
X163355737Y1294361D01*
X162784308Y722932D01*
X163403356Y722932D01*
X161821905Y-10432381D02*
X161821905Y-9432381D01*
X162060000Y-9432381D01*
X162202858Y-9480000D01*
X162298096Y-9575238D01*
X162345715Y-9670476D01*
X162393334Y-9860952D01*
X162393334Y-10003810D01*
X162345715Y-10194286D01*
X162298096Y-10289524D01*
X162202858Y-10384762D01*
X162060000Y-10432381D01*
X161821905Y-10432381D01*
X162726667Y-9432381D02*
X163345715Y-9432381D01*
X163012381Y-9813333D01*
X163155239Y-9813333D01*
X163250477Y-9860952D01*
X163298096Y-9908571D01*
X163345715Y-10003810D01*
X163345715Y-10241905D01*
X163298096Y-10337143D01*
X163250477Y-10384762D01*
X163155239Y-10432381D01*
X162869524Y-10432381D01*
X162774286Y-10384762D01*
X162726667Y-10337143D01*
X161821905Y-21991581D02*
X161821905Y-20991581D01*
X162060000Y-20991581D01*
X162202858Y-21039200D01*
X162298096Y-21134438D01*
X162345715Y-21229676D01*
X162393334Y-21420152D01*
X162393334Y-21563010D01*
X162345715Y-21753486D01*
X162298096Y-21848724D01*
X162202858Y-21943962D01*
X162060000Y-21991581D01*
X161821905Y-21991581D01*
X163250477Y-21324914D02*
X163250477Y-21991581D01*
X163012381Y-20943962D02*
X162774286Y-21658248D01*
X163393334Y-21658248D01*
X161879546Y-3087068D02*
X161879546Y-2087068D01*
X162117641Y-2087068D01*
X162260499Y-2134687D01*
X162355737Y-2229925D01*
X162403356Y-2325163D01*
X162450975Y-2515639D01*
X162450975Y-2658497D01*
X162403356Y-2848973D01*
X162355737Y-2944211D01*
X162260499Y-3039449D01*
X162117641Y-3087068D01*
X161879546Y-3087068D01*
X163355737Y-2087068D02*
X162879546Y-2087068D01*
X162831927Y-2563258D01*
X162879546Y-2515639D01*
X162974784Y-2468020D01*
X163212880Y-2468020D01*
X163308118Y-2515639D01*
X163355737Y-2563258D01*
X163403356Y-2658497D01*
X163403356Y-2896592D01*
X163355737Y-2991830D01*
X163308118Y-3039449D01*
X163212880Y-3087068D01*
X162974784Y-3087068D01*
X162879546Y-3039449D01*
X162831927Y-2991830D01*
X161821905Y-14242381D02*
X161821905Y-13242381D01*
X162060000Y-13242381D01*
X162202858Y-13290000D01*
X162298096Y-13385238D01*
X162345715Y-13480476D01*
X162393334Y-13670952D01*
X162393334Y-13813810D01*
X162345715Y-14004286D01*
X162298096Y-14099524D01*
X162202858Y-14194762D01*
X162060000Y-14242381D01*
X161821905Y-14242381D01*
X163250477Y-13242381D02*
X163060000Y-13242381D01*
X162964762Y-13290000D01*
X162917143Y-13337619D01*
X162821905Y-13480476D01*
X162774286Y-13670952D01*
X162774286Y-14051905D01*
X162821905Y-14147143D01*
X162869524Y-14194762D01*
X162964762Y-14242381D01*
X163155239Y-14242381D01*
X163250477Y-14194762D01*
X163298096Y-14147143D01*
X163345715Y-14051905D01*
X163345715Y-13813810D01*
X163298096Y-13718571D01*
X163250477Y-13670952D01*
X163155239Y-13623333D01*
X162964762Y-13623333D01*
X162869524Y-13670952D01*
X162821905Y-13718571D01*
X162774286Y-13813810D01*
X161821905Y-6622381D02*
X161821905Y-5622381D01*
X162060000Y-5622381D01*
X162202858Y-5670000D01*
X162298096Y-5765238D01*
X162345715Y-5860476D01*
X162393334Y-6050952D01*
X162393334Y-6193810D01*
X162345715Y-6384286D01*
X162298096Y-6479524D01*
X162202858Y-6574762D01*
X162060000Y-6622381D01*
X161821905Y-6622381D01*
X162726667Y-5622381D02*
X163393334Y-5622381D01*
X162964762Y-6622381D01*
X147153334Y-18052381D02*
X146820000Y-17576190D01*
X146581905Y-18052381D02*
X146581905Y-17052381D01*
X146962858Y-17052381D01*
X147058096Y-17100000D01*
X147105715Y-17147619D01*
X147153334Y-17242857D01*
X147153334Y-17385714D01*
X147105715Y-17480952D01*
X147058096Y-17528571D01*
X146962858Y-17576190D01*
X146581905Y-17576190D01*
X147534286Y-17147619D02*
X147581905Y-17100000D01*
X147677143Y-17052381D01*
X147915239Y-17052381D01*
X148010477Y-17100000D01*
X148058096Y-17147619D01*
X148105715Y-17242857D01*
X148105715Y-17338095D01*
X148058096Y-17480952D01*
X147486667Y-18052381D01*
X148105715Y-18052381D01*
X146677143Y997619D02*
X146343809Y1473810D01*
X146105714Y997619D02*
X146105714Y1997619D01*
X146486667Y1997619D01*
X146581905Y1950000D01*
X146629524Y1902381D01*
X146677143Y1807143D01*
X146677143Y1664286D01*
X146629524Y1569048D01*
X146581905Y1521429D01*
X146486667Y1473810D01*
X146105714Y1473810D01*
X147629524Y997619D02*
X147058095Y997619D01*
X147343809Y997619D02*
X147343809Y1997619D01*
X147248571Y1854762D01*
X147153333Y1759524D01*
X147058095Y1711905D01*
X148534286Y1997619D02*
X148058095Y1997619D01*
X148010476Y1521429D01*
X148058095Y1569048D01*
X148153333Y1616667D01*
X148391429Y1616667D01*
X148486667Y1569048D01*
X148534286Y1521429D01*
X148581905Y1426190D01*
X148581905Y1188095D01*
X148534286Y1092857D01*
X148486667Y1045238D01*
X148391429Y997619D01*
X148153333Y997619D01*
X148058095Y1045238D01*
X148010476Y1092857D01*
X146677143Y-10432381D02*
X146343809Y-9956190D01*
X146105714Y-10432381D02*
X146105714Y-9432381D01*
X146486667Y-9432381D01*
X146581905Y-9480000D01*
X146629524Y-9527619D01*
X146677143Y-9622857D01*
X146677143Y-9765714D01*
X146629524Y-9860952D01*
X146581905Y-9908571D01*
X146486667Y-9956190D01*
X146105714Y-9956190D01*
X147629524Y-10432381D02*
X147058095Y-10432381D01*
X147343809Y-10432381D02*
X147343809Y-9432381D01*
X147248571Y-9575238D01*
X147153333Y-9670476D01*
X147058095Y-9718095D01*
X148486667Y-9432381D02*
X148296190Y-9432381D01*
X148200952Y-9480000D01*
X148153333Y-9527619D01*
X148058095Y-9670476D01*
X148010476Y-9860952D01*
X148010476Y-10241905D01*
X148058095Y-10337143D01*
X148105714Y-10384762D01*
X148200952Y-10432381D01*
X148391429Y-10432381D01*
X148486667Y-10384762D01*
X148534286Y-10337143D01*
X148581905Y-10241905D01*
X148581905Y-10003810D01*
X148534286Y-9908571D01*
X148486667Y-9860952D01*
X148391429Y-9813333D01*
X148200952Y-9813333D01*
X148105714Y-9860952D01*
X148058095Y-9908571D01*
X148010476Y-10003810D01*
X146677143Y-21862381D02*
X146343809Y-21386190D01*
X146105714Y-21862381D02*
X146105714Y-20862381D01*
X146486667Y-20862381D01*
X146581905Y-20910000D01*
X146629524Y-20957619D01*
X146677143Y-21052857D01*
X146677143Y-21195714D01*
X146629524Y-21290952D01*
X146581905Y-21338571D01*
X146486667Y-21386190D01*
X146105714Y-21386190D01*
X147629524Y-21862381D02*
X147058095Y-21862381D01*
X147343809Y-21862381D02*
X147343809Y-20862381D01*
X147248571Y-21005238D01*
X147153333Y-21100476D01*
X147058095Y-21148095D01*
X147962857Y-20862381D02*
X148629524Y-20862381D01*
X148200952Y-21862381D01*
X146677143Y-14242381D02*
X146343809Y-13766190D01*
X146105714Y-14242381D02*
X146105714Y-13242381D01*
X146486667Y-13242381D01*
X146581905Y-13290000D01*
X146629524Y-13337619D01*
X146677143Y-13432857D01*
X146677143Y-13575714D01*
X146629524Y-13670952D01*
X146581905Y-13718571D01*
X146486667Y-13766190D01*
X146105714Y-13766190D01*
X147629524Y-14242381D02*
X147058095Y-14242381D01*
X147343809Y-14242381D02*
X147343809Y-13242381D01*
X147248571Y-13385238D01*
X147153333Y-13480476D01*
X147058095Y-13528095D01*
X148105714Y-14242381D02*
X148296190Y-14242381D01*
X148391429Y-14194762D01*
X148439048Y-14147143D01*
X148534286Y-14004286D01*
X148581905Y-13813810D01*
X148581905Y-13432857D01*
X148534286Y-13337619D01*
X148486667Y-13290000D01*
X148391429Y-13242381D01*
X148200952Y-13242381D01*
X148105714Y-13290000D01*
X148058095Y-13337619D01*
X148010476Y-13432857D01*
X148010476Y-13670952D01*
X148058095Y-13766190D01*
X148105714Y-13813810D01*
X148200952Y-13861429D01*
X148391429Y-13861429D01*
X148486667Y-13813810D01*
X148534286Y-13766190D01*
X148581905Y-13670952D01*
X146677143Y-6622381D02*
X146343809Y-6146190D01*
X146105714Y-6622381D02*
X146105714Y-5622381D01*
X146486667Y-5622381D01*
X146581905Y-5670000D01*
X146629524Y-5717619D01*
X146677143Y-5812857D01*
X146677143Y-5955714D01*
X146629524Y-6050952D01*
X146581905Y-6098571D01*
X146486667Y-6146190D01*
X146105714Y-6146190D01*
X147058095Y-5717619D02*
X147105714Y-5670000D01*
X147200952Y-5622381D01*
X147439048Y-5622381D01*
X147534286Y-5670000D01*
X147581905Y-5717619D01*
X147629524Y-5812857D01*
X147629524Y-5908095D01*
X147581905Y-6050952D01*
X147010476Y-6622381D01*
X147629524Y-6622381D01*
X148248571Y-5622381D02*
X148343810Y-5622381D01*
X148439048Y-5670000D01*
X148486667Y-5717619D01*
X148534286Y-5812857D01*
X148581905Y-6003333D01*
X148581905Y-6241429D01*
X148534286Y-6431905D01*
X148486667Y-6527143D01*
X148439048Y-6574762D01*
X148343810Y-6622381D01*
X148248571Y-6622381D01*
X148153333Y-6574762D01*
X148105714Y-6527143D01*
X148058095Y-6431905D01*
X148010476Y-6241429D01*
X148010476Y-6003333D01*
X148058095Y-5812857D01*
X148105714Y-5717619D01*
X148153333Y-5670000D01*
X148248571Y-5622381D01*
X161821905Y-25672381D02*
X161821905Y-24672381D01*
X162060000Y-24672381D01*
X162202858Y-24720000D01*
X162298096Y-24815238D01*
X162345715Y-24910476D01*
X162393334Y-25100952D01*
X162393334Y-25243810D01*
X162345715Y-25434286D01*
X162298096Y-25529524D01*
X162202858Y-25624762D01*
X162060000Y-25672381D01*
X161821905Y-25672381D01*
X162964762Y-25100952D02*
X162869524Y-25053333D01*
X162821905Y-25005714D01*
X162774286Y-24910476D01*
X162774286Y-24862857D01*
X162821905Y-24767619D01*
X162869524Y-24720000D01*
X162964762Y-24672381D01*
X163155239Y-24672381D01*
X163250477Y-24720000D01*
X163298096Y-24767619D01*
X163345715Y-24862857D01*
X163345715Y-24910476D01*
X163298096Y-25005714D01*
X163250477Y-25053333D01*
X163155239Y-25100952D01*
X162964762Y-25100952D01*
X162869524Y-25148571D01*
X162821905Y-25196190D01*
X162774286Y-25291429D01*
X162774286Y-25481905D01*
X162821905Y-25577143D01*
X162869524Y-25624762D01*
X162964762Y-25672381D01*
X163155239Y-25672381D01*
X163250477Y-25624762D01*
X163298096Y-25577143D01*
X163345715Y-25481905D01*
X163345715Y-25291429D01*
X163298096Y-25196190D01*
X163250477Y-25148571D01*
X163155239Y-25100952D01*
X146677143Y-28572381D02*
X146343809Y-28096190D01*
X146105714Y-28572381D02*
X146105714Y-27572381D01*
X146486667Y-27572381D01*
X146581905Y-27620000D01*
X146629524Y-27667619D01*
X146677143Y-27762857D01*
X146677143Y-27905714D01*
X146629524Y-28000952D01*
X146581905Y-28048571D01*
X146486667Y-28096190D01*
X146105714Y-28096190D01*
X147058095Y-27667619D02*
X147105714Y-27620000D01*
X147200952Y-27572381D01*
X147439048Y-27572381D01*
X147534286Y-27620000D01*
X147581905Y-27667619D01*
X147629524Y-27762857D01*
X147629524Y-27858095D01*
X147581905Y-28000952D01*
X147010476Y-28572381D01*
X147629524Y-28572381D01*
X148581905Y-28572381D02*
X148010476Y-28572381D01*
X148296190Y-28572381D02*
X148296190Y-27572381D01*
X148200952Y-27715238D01*
X148105714Y-27810476D01*
X148010476Y-27858095D01*
X146577143Y-32402381D02*
X146243809Y-31926190D01*
X146005714Y-32402381D02*
X146005714Y-31402381D01*
X146386667Y-31402381D01*
X146481905Y-31450000D01*
X146529524Y-31497619D01*
X146577143Y-31592857D01*
X146577143Y-31735714D01*
X146529524Y-31830952D01*
X146481905Y-31878571D01*
X146386667Y-31926190D01*
X146005714Y-31926190D01*
X146958095Y-31497619D02*
X147005714Y-31450000D01*
X147100952Y-31402381D01*
X147339048Y-31402381D01*
X147434286Y-31450000D01*
X147481905Y-31497619D01*
X147529524Y-31592857D01*
X147529524Y-31688095D01*
X147481905Y-31830952D01*
X146910476Y-32402381D01*
X147529524Y-32402381D01*
X147910476Y-31497619D02*
X147958095Y-31450000D01*
X148053333Y-31402381D01*
X148291429Y-31402381D01*
X148386667Y-31450000D01*
X148434286Y-31497619D01*
X148481905Y-31592857D01*
X148481905Y-31688095D01*
X148434286Y-31830952D01*
X147862857Y-32402381D01*
X148481905Y-32402381D01*
X160058267Y-204732381D02*
X159724933Y-204256190D01*
X159486838Y-204732381D02*
X159486838Y-203732381D01*
X159867791Y-203732381D01*
X159963029Y-203780000D01*
X160010648Y-203827619D01*
X160058267Y-203922857D01*
X160058267Y-204065714D01*
X160010648Y-204160952D01*
X159963029Y-204208571D01*
X159867791Y-204256190D01*
X159486838Y-204256190D01*
X160486838Y-204208571D02*
X160820172Y-204208571D01*
X160963029Y-204732381D02*
X160486838Y-204732381D01*
X160486838Y-203732381D01*
X160963029Y-203732381D01*
X161724934Y-204208571D02*
X161391600Y-204208571D01*
X161391600Y-204732381D02*
X161391600Y-203732381D01*
X161867791Y-203732381D01*
X162391600Y-203732381D02*
X162391600Y-203970476D01*
X162153505Y-203875238D02*
X162391600Y-203970476D01*
X162629696Y-203875238D01*
X162248743Y-204160952D02*
X162391600Y-203970476D01*
X162534458Y-204160952D01*
X163153505Y-203732381D02*
X163153505Y-203970476D01*
X162915410Y-203875238D02*
X163153505Y-203970476D01*
X163391601Y-203875238D01*
X163010648Y-204160952D02*
X163153505Y-203970476D01*
X163296363Y-204160952D01*
X146462762Y-33019619D02*
X146367524Y-32972000D01*
X146272286Y-32876762D01*
X146129429Y-32733905D01*
X146034190Y-32686286D01*
X145938952Y-32686286D01*
X145986571Y-32924381D02*
X145891333Y-32876762D01*
X145796095Y-32781524D01*
X145748476Y-32591048D01*
X145748476Y-32257714D01*
X145796095Y-32067238D01*
X145891333Y-31972000D01*
X145986571Y-31924381D01*
X146177048Y-31924381D01*
X146272286Y-31972000D01*
X146367524Y-32067238D01*
X146415143Y-32257714D01*
X146415143Y-32591048D01*
X146367524Y-32781524D01*
X146272286Y-32876762D01*
X146177048Y-32924381D01*
X145986571Y-32924381D01*
X147367524Y-32924381D02*
X146796095Y-32924381D01*
X147081809Y-32924381D02*
X147081809Y-31924381D01*
X146986571Y-32067238D01*
X146891333Y-32162476D01*
X146796095Y-32210095D01*
%LPC*%
D18*
X146220000Y-3810000D03*
X148420000Y-3810000D03*
D19*
X125342000Y-236914000D03*
X125342000Y-236414000D03*
X125342000Y-235914000D03*
X125342000Y-235414000D03*
X125342000Y-234914000D03*
X125342000Y-234414000D03*
X125342000Y-233914000D03*
X125342000Y-233414000D03*
X125342000Y-232914000D03*
X125342000Y-232414000D03*
X125342000Y-231914000D03*
X125342000Y-231414000D03*
X125342000Y-230914000D03*
X125342000Y-230414000D03*
X125342000Y-229914000D03*
X125342000Y-229414000D03*
D20*
X123392000Y-227464000D03*
X122892000Y-227464000D03*
X122392000Y-227464000D03*
X121892000Y-227464000D03*
X121392000Y-227464000D03*
X120892000Y-227464000D03*
X120392000Y-227464000D03*
X119892000Y-227464000D03*
X119392000Y-227464000D03*
X118892000Y-227464000D03*
X118392000Y-227464000D03*
X117892000Y-227464000D03*
X117392000Y-227464000D03*
X116892000Y-227464000D03*
X116392000Y-227464000D03*
X115892000Y-227464000D03*
D19*
X113942000Y-229414000D03*
X113942000Y-229914000D03*
X113942000Y-230414000D03*
X113942000Y-230914000D03*
X113942000Y-231414000D03*
X113942000Y-231914000D03*
X113942000Y-232414000D03*
X113942000Y-232914000D03*
X113942000Y-233414000D03*
X113942000Y-233914000D03*
X113942000Y-234414000D03*
X113942000Y-234914000D03*
X113942000Y-235414000D03*
X113942000Y-235914000D03*
X113942000Y-236414000D03*
X113942000Y-236914000D03*
D20*
X115892000Y-238864000D03*
X116392000Y-238864000D03*
X116892000Y-238864000D03*
X117392000Y-238864000D03*
X117892000Y-238864000D03*
X118392000Y-238864000D03*
X118892000Y-238864000D03*
X119392000Y-238864000D03*
X119892000Y-238864000D03*
X120392000Y-238864000D03*
X120892000Y-238864000D03*
X121392000Y-238864000D03*
X121892000Y-238864000D03*
X122392000Y-238864000D03*
X122892000Y-238864000D03*
X123392000Y-238864000D03*
D21*
X119642000Y-233164000D03*
D22*
X157734000Y-120650000D03*
D23*
X160274000Y-120650000D03*
X157734000Y-123190000D03*
X160274000Y-123190000D03*
X157734000Y-125730000D03*
X160274000Y-125730000D03*
X157734000Y-128270000D03*
X160274000Y-128270000D03*
D24*
X81178400Y12649200D03*
X161391600Y12700000D03*
X81178400Y-208280000D03*
D25*
X155966000Y-253432000D03*
X156766000Y-253432000D03*
X157566000Y-253432000D03*
X158366000Y-253432000D03*
X159166000Y-253432000D03*
D26*
X153116000Y-253532000D03*
X153116000Y-259032000D03*
X162016000Y-253532000D03*
X162016000Y-259032000D03*
D27*
X155366000Y-256032000D03*
X159766000Y-256032000D03*
D18*
X139868000Y-241300000D03*
X137668000Y-241300000D03*
D28*
X138125200Y-201241660D03*
X136123680Y-202242420D03*
X138125200Y-203240640D03*
X136123680Y-204241400D03*
X138125200Y-205242160D03*
X136123680Y-206240380D03*
X138125200Y-207241140D03*
X133624320Y-202242420D03*
X133624320Y-204241400D03*
X133624320Y-206240380D03*
X131622800Y-201241660D03*
X131622800Y-203240640D03*
X131622800Y-205242160D03*
X131622800Y-207241140D03*
X136123680Y-198241920D03*
X136123680Y-196240400D03*
X136123680Y-194241420D03*
X136123680Y-192242440D03*
X136123680Y-190240920D03*
X136123680Y-188241940D03*
X138125200Y-189242700D03*
X138125200Y-191241680D03*
X138125200Y-193240660D03*
X138125200Y-195242180D03*
X138125200Y-197241160D03*
X133624320Y-188241940D03*
X131622800Y-189242700D03*
X133624320Y-190240920D03*
X131622800Y-191241680D03*
X133624320Y-192242440D03*
X131622800Y-193240660D03*
X133624320Y-194241420D03*
X131622800Y-195242180D03*
X133624320Y-196240400D03*
X131622800Y-197241160D03*
X133624320Y-198241920D03*
X88168480Y-101902260D03*
X90170000Y-100901500D03*
X88168480Y-99903280D03*
X90170000Y-98902520D03*
X88168480Y-97901760D03*
X90170000Y-96903540D03*
X88168480Y-95902780D03*
X92669360Y-100901500D03*
X92669360Y-98902520D03*
X92669360Y-96903540D03*
X94670880Y-101902260D03*
X94670880Y-99903280D03*
X94670880Y-97901760D03*
X94670880Y-95902780D03*
X90170000Y-104902000D03*
X90170000Y-106903520D03*
X90170000Y-108902500D03*
X90170000Y-110901480D03*
X90170000Y-112903000D03*
D29*
X90170000Y-114901980D03*
D28*
X88168480Y-113901220D03*
X88168480Y-111902240D03*
X88168480Y-109903260D03*
X88168480Y-107901740D03*
X88168480Y-105902760D03*
X92669360Y-114901980D03*
X94670880Y-113901220D03*
X92669360Y-112903000D03*
X94670880Y-111902240D03*
X92669360Y-110901480D03*
X94670880Y-109903260D03*
X92669360Y-108902500D03*
X94670880Y-107901740D03*
X92669360Y-106903520D03*
X94670880Y-105902760D03*
X92669360Y-104902000D03*
X92669360Y-94902020D03*
X94670880Y-93901260D03*
X92669360Y-92903040D03*
X94670880Y-91902280D03*
X92669360Y-90901520D03*
X94670880Y-89903300D03*
X92669360Y-88902540D03*
X94670880Y-87901780D03*
X92669360Y-86903560D03*
X94670880Y-85902800D03*
X92669360Y-84902040D03*
X94670880Y-83901280D03*
X92669360Y-82903060D03*
X94670880Y-81902300D03*
X90170000Y-94902020D03*
X88168480Y-93901260D03*
X90170000Y-92903040D03*
X88168480Y-91902280D03*
X90170000Y-90901520D03*
X88168480Y-89903300D03*
X90170000Y-88902540D03*
X88168480Y-87901780D03*
X90170000Y-86903560D03*
X88168480Y-85902800D03*
X90170000Y-84902040D03*
X88168480Y-83901280D03*
X90170000Y-82903060D03*
X88168480Y-81902300D03*
X92669360Y-80901540D03*
X94670880Y-79903320D03*
X92669360Y-78902560D03*
X94670880Y-77901800D03*
X92669360Y-76903580D03*
X94670880Y-75902820D03*
X92669360Y-74902060D03*
X94670880Y-73901300D03*
X92669360Y-72903080D03*
X94670880Y-71902320D03*
X92669360Y-70901560D03*
X94670880Y-69903340D03*
X92669360Y-68902580D03*
X94670880Y-67901820D03*
X92669360Y-66903600D03*
X94670880Y-65902840D03*
X92669360Y-64902080D03*
X90170000Y-80901540D03*
X88168480Y-79903320D03*
X90170000Y-78902560D03*
X88168480Y-77901800D03*
X90170000Y-76903580D03*
X88168480Y-75902820D03*
X90170000Y-74902060D03*
X88168480Y-73901300D03*
X90170000Y-72903080D03*
X88168480Y-71902320D03*
X90170000Y-70901560D03*
X88168480Y-69903340D03*
X90170000Y-68902580D03*
X88168480Y-67901820D03*
X90170000Y-66903600D03*
X88168480Y-65902840D03*
X90170000Y-64902080D03*
X94670880Y-63901320D03*
X92669360Y-62903100D03*
X94670880Y-61902340D03*
X92669360Y-60901580D03*
X94670880Y-59903360D03*
X92669360Y-58902600D03*
X94670880Y-57901840D03*
X92669360Y-56903620D03*
X94670880Y-55902860D03*
X92669360Y-54902100D03*
X94670880Y-53901340D03*
X92669360Y-52903120D03*
X94670880Y-51902360D03*
X92669360Y-50901600D03*
X94670880Y-49903380D03*
X92669360Y-48902620D03*
X94670880Y-47901860D03*
X92669360Y-46903640D03*
X94670880Y-45902880D03*
X92669360Y-44902120D03*
X94670880Y-43901360D03*
X92669360Y-42903140D03*
X94670880Y-41902380D03*
X92669360Y-40901620D03*
X94670880Y-39903400D03*
X92669360Y-38902640D03*
X94670880Y-37901880D03*
X92669360Y-36901120D03*
X94670880Y-35902900D03*
X92669360Y-34902140D03*
X94670880Y-33901380D03*
X92669360Y-32903160D03*
X94670880Y-31902400D03*
X88168480Y-63901320D03*
X90170000Y-62903100D03*
X88168480Y-61902340D03*
X90170000Y-60901580D03*
X88168480Y-59903360D03*
X90170000Y-58902600D03*
X88168480Y-57901840D03*
X90170000Y-56903620D03*
X88168480Y-55902860D03*
X90170000Y-54902100D03*
X88168480Y-53901340D03*
X90170000Y-52903120D03*
X88168480Y-51902360D03*
X90170000Y-50901600D03*
X88168480Y-49903380D03*
X90170000Y-48902620D03*
X88168480Y-47901860D03*
X90170000Y-46903640D03*
X88168480Y-45902880D03*
X90170000Y-44902120D03*
X88168480Y-43901360D03*
X90170000Y-42903140D03*
X88168480Y-41902380D03*
X90170000Y-40901620D03*
X88168480Y-39903400D03*
X90170000Y-38902640D03*
X88168480Y-37901880D03*
X90170000Y-36901120D03*
X88168480Y-35902900D03*
X90170000Y-34902140D03*
X88168480Y-33901380D03*
X90170000Y-32903160D03*
X88168480Y-31902400D03*
D30*
X151892000Y-72136000D03*
X151892000Y-67005200D03*
D24*
X97884000Y-257306000D03*
X81440000Y-122542000D03*
X126840000Y1318000D03*
D31*
X142160000Y-251690000D03*
X144060000Y-251690000D03*
D32*
X163576000Y-238252000D03*
X163576000Y-240152000D03*
D31*
X109474000Y-212344000D03*
X111374000Y-212344000D03*
X107310000Y-220726000D03*
X105410000Y-220726000D03*
X116962000Y-212344000D03*
X115062000Y-212344000D03*
X131958000Y-226822000D03*
X133858000Y-226822000D03*
X137546000Y-239268000D03*
X139446000Y-239268000D03*
X139200000Y-222382000D03*
X141100000Y-222382000D03*
X100380000Y-237998000D03*
X98480000Y-237998000D03*
D32*
X151384000Y-241168000D03*
X151384000Y-239268000D03*
X145288000Y-239268000D03*
X145288000Y-241168000D03*
X122890000Y-249503528D03*
X122890000Y-251403528D03*
X97944000Y-245568000D03*
X97944000Y-247468000D03*
X121390000Y-249520000D03*
X121390000Y-251420000D03*
X117890000Y-249550000D03*
X117890000Y-251450000D03*
D31*
X100380000Y-235420000D03*
X98480000Y-235420000D03*
D32*
X119380000Y-215834000D03*
X119380000Y-213934000D03*
D31*
X100330000Y-231394000D03*
X98430000Y-231394000D03*
D32*
X122428000Y-215768000D03*
X122428000Y-213868000D03*
X106149000Y-245568000D03*
X106149000Y-243668000D03*
D31*
X119882000Y-195052000D03*
X117982000Y-195052000D03*
D32*
X113233267Y-243661749D03*
X113233267Y-245561749D03*
D31*
X84958000Y-108204000D03*
X83058000Y-108204000D03*
X144592000Y-96520000D03*
X146492000Y-96520000D03*
D33*
X161798000Y-97028000D03*
D34*
X161798000Y-99568000D03*
X161798000Y-102108000D03*
D33*
X161798000Y-108458000D03*
D34*
X161798000Y-110998000D03*
X161798000Y-113538000D03*
D35*
X157988000Y-92202000D03*
X160528000Y-92202000D03*
X163068000Y-92202000D03*
X163068000Y-79502000D03*
X160528000Y-79502000D03*
X157988000Y-79502000D03*
D31*
X119832000Y-191052000D03*
X117932000Y-191052000D03*
X83148000Y-110662000D03*
X85048000Y-110662000D03*
D36*
X144044724Y-90868200D03*
X146544724Y-90868200D03*
D32*
X148336000Y-239268000D03*
X148336000Y-241168000D03*
X110164000Y-243668000D03*
X110164000Y-245568000D03*
D30*
X160782000Y-72136000D03*
X160782000Y-67005200D03*
X151892000Y-46736000D03*
X151892000Y-41605200D03*
X151892000Y-59182000D03*
X151892000Y-54051200D03*
X160782000Y-59182000D03*
X160782000Y-54051200D03*
X160782000Y-46736000D03*
X160782000Y-41605200D03*
D18*
X139954000Y-255270000D03*
X142154000Y-255270000D03*
X139614000Y-233426000D03*
X137414000Y-233426000D03*
X141478000Y-230632000D03*
X139278000Y-230632000D03*
X141392000Y-226568000D03*
X139192000Y-226568000D03*
X139954000Y-259588000D03*
X137754000Y-259588000D03*
X117400000Y-219700000D03*
X115200000Y-219700000D03*
X139192000Y-228600000D03*
X141392000Y-228600000D03*
X139204000Y-224282000D03*
X141404000Y-224282000D03*
X107442000Y-223012000D03*
X105242000Y-223012000D03*
X139740000Y-235410000D03*
X137540000Y-235410000D03*
X139700000Y-237236000D03*
X137500000Y-237236000D03*
D37*
X125984000Y-251628000D03*
X125984000Y-249428000D03*
D38*
X154178000Y-240538000D03*
D39*
X160478000Y-240538000D03*
X160478000Y-238238000D03*
X160478000Y-242838000D03*
D40*
X100564000Y-245568000D03*
X100564000Y-246518000D03*
X100564000Y-247468000D03*
X103264000Y-247468000D03*
X103264000Y-245568000D03*
D41*
X110744000Y-216154000D03*
X116269000Y-216154000D03*
D24*
X98632001Y-157020000D03*
D18*
X161460000Y-19050000D03*
X163660000Y-19050000D03*
X161460000Y0D03*
X163660000Y0D03*
X161460000Y-11430000D03*
X163660000Y-11430000D03*
X161460000Y-22860000D03*
X163660000Y-22860000D03*
X161460000Y-3810000D03*
X163660000Y-3810000D03*
X161460000Y-15240000D03*
X163660000Y-15240000D03*
X161460000Y-7620000D03*
X163660000Y-7620000D03*
X146220000Y-19050000D03*
X148420000Y-19050000D03*
X146220000Y0D03*
X148420000Y0D03*
X146220000Y-11430000D03*
X148420000Y-11430000D03*
X146220000Y-22860000D03*
X148420000Y-22860000D03*
X146220000Y-15240000D03*
X148420000Y-15240000D03*
X146220000Y-7620000D03*
X148420000Y-7620000D03*
X161460000Y-26670000D03*
X163660000Y-26670000D03*
X148420000Y-26670000D03*
X146220000Y-26670000D03*
X146120000Y-33400000D03*
X148320000Y-33400000D03*
D24*
X161391600Y-208280000D03*
D42*
X147558000Y-30922000D03*
X147558000Y-29022000D03*
X145558000Y-29972000D03*
M02*
