G04 #@! TF.FileFunction,Legend,Bot*
%FSLAX46Y46*%
G04 Gerber Fmt 4.6, Leading zero omitted, Abs format (unit mm)*
G04 Created by KiCad (PCBNEW 4.0.7) date 02/03/18 00:33:44*
%MOMM*%
%LPD*%
G01*
G04 APERTURE LIST*
%ADD10C,0.100000*%
%ADD11R,2.127200X2.127200*%
%ADD12O,2.127200X2.127200*%
%ADD13C,3.400000*%
%ADD14C,1.300000*%
%ADD15C,1.598880*%
%ADD16R,1.598880X1.598880*%
%ADD17C,3.956000*%
%ADD18R,2.100000X2.100000*%
%ADD19O,2.100000X2.100000*%
%ADD20R,2.178000X2.686000*%
G04 APERTURE END LIST*
D10*
%LPC*%
D11*
X157734000Y-120650000D03*
D12*
X160274000Y-120650000D03*
X157734000Y-123190000D03*
X160274000Y-123190000D03*
X157734000Y-125730000D03*
X160274000Y-125730000D03*
X157734000Y-128270000D03*
X160274000Y-128270000D03*
D13*
X81178400Y12649200D03*
X161391600Y12700000D03*
X81178400Y-208280000D03*
D14*
X155366000Y-256032000D03*
X159766000Y-256032000D03*
D15*
X138125200Y-201241660D03*
X136123680Y-202242420D03*
X138125200Y-203240640D03*
X136123680Y-204241400D03*
X138125200Y-205242160D03*
X136123680Y-206240380D03*
X138125200Y-207241140D03*
X133624320Y-202242420D03*
X133624320Y-204241400D03*
X133624320Y-206240380D03*
X131622800Y-201241660D03*
X131622800Y-203240640D03*
X131622800Y-205242160D03*
X131622800Y-207241140D03*
X136123680Y-198241920D03*
X136123680Y-196240400D03*
X136123680Y-194241420D03*
X136123680Y-192242440D03*
X136123680Y-190240920D03*
X136123680Y-188241940D03*
X138125200Y-189242700D03*
X138125200Y-191241680D03*
X138125200Y-193240660D03*
X138125200Y-195242180D03*
X138125200Y-197241160D03*
X133624320Y-188241940D03*
X131622800Y-189242700D03*
X133624320Y-190240920D03*
X131622800Y-191241680D03*
X133624320Y-192242440D03*
X131622800Y-193240660D03*
X133624320Y-194241420D03*
X131622800Y-195242180D03*
X133624320Y-196240400D03*
X131622800Y-197241160D03*
X133624320Y-198241920D03*
X88168480Y-101902260D03*
X90170000Y-100901500D03*
X88168480Y-99903280D03*
X90170000Y-98902520D03*
X88168480Y-97901760D03*
X90170000Y-96903540D03*
X88168480Y-95902780D03*
X92669360Y-100901500D03*
X92669360Y-98902520D03*
X92669360Y-96903540D03*
X94670880Y-101902260D03*
X94670880Y-99903280D03*
X94670880Y-97901760D03*
X94670880Y-95902780D03*
X90170000Y-104902000D03*
X90170000Y-106903520D03*
X90170000Y-108902500D03*
X90170000Y-110901480D03*
X90170000Y-112903000D03*
D16*
X90170000Y-114901980D03*
D15*
X88168480Y-113901220D03*
X88168480Y-111902240D03*
X88168480Y-109903260D03*
X88168480Y-107901740D03*
X88168480Y-105902760D03*
X92669360Y-114901980D03*
X94670880Y-113901220D03*
X92669360Y-112903000D03*
X94670880Y-111902240D03*
X92669360Y-110901480D03*
X94670880Y-109903260D03*
X92669360Y-108902500D03*
X94670880Y-107901740D03*
X92669360Y-106903520D03*
X94670880Y-105902760D03*
X92669360Y-104902000D03*
X92669360Y-94902020D03*
X94670880Y-93901260D03*
X92669360Y-92903040D03*
X94670880Y-91902280D03*
X92669360Y-90901520D03*
X94670880Y-89903300D03*
X92669360Y-88902540D03*
X94670880Y-87901780D03*
X92669360Y-86903560D03*
X94670880Y-85902800D03*
X92669360Y-84902040D03*
X94670880Y-83901280D03*
X92669360Y-82903060D03*
X94670880Y-81902300D03*
X90170000Y-94902020D03*
X88168480Y-93901260D03*
X90170000Y-92903040D03*
X88168480Y-91902280D03*
X90170000Y-90901520D03*
X88168480Y-89903300D03*
X90170000Y-88902540D03*
X88168480Y-87901780D03*
X90170000Y-86903560D03*
X88168480Y-85902800D03*
X90170000Y-84902040D03*
X88168480Y-83901280D03*
X90170000Y-82903060D03*
X88168480Y-81902300D03*
X92669360Y-80901540D03*
X94670880Y-79903320D03*
X92669360Y-78902560D03*
X94670880Y-77901800D03*
X92669360Y-76903580D03*
X94670880Y-75902820D03*
X92669360Y-74902060D03*
X94670880Y-73901300D03*
X92669360Y-72903080D03*
X94670880Y-71902320D03*
X92669360Y-70901560D03*
X94670880Y-69903340D03*
X92669360Y-68902580D03*
X94670880Y-67901820D03*
X92669360Y-66903600D03*
X94670880Y-65902840D03*
X92669360Y-64902080D03*
X90170000Y-80901540D03*
X88168480Y-79903320D03*
X90170000Y-78902560D03*
X88168480Y-77901800D03*
X90170000Y-76903580D03*
X88168480Y-75902820D03*
X90170000Y-74902060D03*
X88168480Y-73901300D03*
X90170000Y-72903080D03*
X88168480Y-71902320D03*
X90170000Y-70901560D03*
X88168480Y-69903340D03*
X90170000Y-68902580D03*
X88168480Y-67901820D03*
X90170000Y-66903600D03*
X88168480Y-65902840D03*
X90170000Y-64902080D03*
X94670880Y-63901320D03*
X92669360Y-62903100D03*
X94670880Y-61902340D03*
X92669360Y-60901580D03*
X94670880Y-59903360D03*
X92669360Y-58902600D03*
X94670880Y-57901840D03*
X92669360Y-56903620D03*
X94670880Y-55902860D03*
X92669360Y-54902100D03*
X94670880Y-53901340D03*
X92669360Y-52903120D03*
X94670880Y-51902360D03*
X92669360Y-50901600D03*
X94670880Y-49903380D03*
X92669360Y-48902620D03*
X94670880Y-47901860D03*
X92669360Y-46903640D03*
X94670880Y-45902880D03*
X92669360Y-44902120D03*
X94670880Y-43901360D03*
X92669360Y-42903140D03*
X94670880Y-41902380D03*
X92669360Y-40901620D03*
X94670880Y-39903400D03*
X92669360Y-38902640D03*
X94670880Y-37901880D03*
X92669360Y-36901120D03*
X94670880Y-35902900D03*
X92669360Y-34902140D03*
X94670880Y-33901380D03*
X92669360Y-32903160D03*
X94670880Y-31902400D03*
X88168480Y-63901320D03*
X90170000Y-62903100D03*
X88168480Y-61902340D03*
X90170000Y-60901580D03*
X88168480Y-59903360D03*
X90170000Y-58902600D03*
X88168480Y-57901840D03*
X90170000Y-56903620D03*
X88168480Y-55902860D03*
X90170000Y-54902100D03*
X88168480Y-53901340D03*
X90170000Y-52903120D03*
X88168480Y-51902360D03*
X90170000Y-50901600D03*
X88168480Y-49903380D03*
X90170000Y-48902620D03*
X88168480Y-47901860D03*
X90170000Y-46903640D03*
X88168480Y-45902880D03*
X90170000Y-44902120D03*
X88168480Y-43901360D03*
X90170000Y-42903140D03*
X88168480Y-41902380D03*
X90170000Y-40901620D03*
X88168480Y-39903400D03*
X90170000Y-38902640D03*
X88168480Y-37901880D03*
X90170000Y-36901120D03*
X88168480Y-35902900D03*
X90170000Y-34902140D03*
X88168480Y-33901380D03*
X90170000Y-32903160D03*
X88168480Y-31902400D03*
D17*
X151892000Y-72136000D03*
X151892000Y-67005200D03*
D13*
X97884000Y-257306000D03*
X81440000Y-122542000D03*
X126840000Y1318000D03*
D18*
X161798000Y-97028000D03*
D19*
X161798000Y-99568000D03*
X161798000Y-102108000D03*
D18*
X161798000Y-108458000D03*
D19*
X161798000Y-110998000D03*
X161798000Y-113538000D03*
D20*
X157988000Y-92202000D03*
X160528000Y-92202000D03*
X163068000Y-92202000D03*
X163068000Y-79502000D03*
X160528000Y-79502000D03*
X157988000Y-79502000D03*
D17*
X160782000Y-72136000D03*
X160782000Y-67005200D03*
X151892000Y-46736000D03*
X151892000Y-41605200D03*
X151892000Y-59182000D03*
X151892000Y-54051200D03*
X160782000Y-59182000D03*
X160782000Y-54051200D03*
X160782000Y-46736000D03*
X160782000Y-41605200D03*
D13*
X98632001Y-157020000D03*
X161391600Y-208280000D03*
M02*
