G04 #@! TF.FileFunction,Soldermask,Bot*
%FSLAX46Y46*%
G04 Gerber Fmt 4.6, Leading zero omitted, Abs format (unit mm)*
G04 Created by KiCad (PCBNEW 4.0.7) date 01/29/18 02:46:11*
%MOMM*%
%LPD*%
G01*
G04 APERTURE LIST*
%ADD10C,0.100000*%
%ADD11C,2.900000*%
%ADD12C,3.400000*%
%ADD13C,3.092400*%
%ADD14R,1.924000X1.924000*%
%ADD15C,1.924000*%
%ADD16C,7.004000*%
%ADD17C,3.956000*%
%ADD18C,2.584400*%
%ADD19C,3.600000*%
%ADD20R,1.000000X1.950000*%
G04 APERTURE END LIST*
D10*
D11*
X64109600Y-76479400D03*
X58409600Y-76479400D03*
X64109600Y-82179400D03*
X58409600Y-82179400D03*
D12*
X53239600Y-76154400D03*
X69279600Y-76154400D03*
D11*
X104861600Y-76530200D03*
X99161600Y-76530200D03*
X104861600Y-82230200D03*
X99161600Y-82230200D03*
D12*
X93991600Y-76205200D03*
X110031600Y-76205200D03*
D13*
X86440651Y-137952737D03*
X55960651Y-125252737D03*
D14*
X54436651Y-114076737D03*
D15*
X54436651Y-119156737D03*
X78820651Y-138968737D03*
X76280651Y-138968737D03*
X73740651Y-138968737D03*
X71200651Y-138968737D03*
X68660651Y-138968737D03*
X66120651Y-138968737D03*
D14*
X63580651Y-138968737D03*
D15*
X54436651Y-116616737D03*
X56976651Y-119156737D03*
X56976651Y-116616737D03*
X59516651Y-119156737D03*
X59516651Y-116616737D03*
X62056651Y-119156737D03*
X62056651Y-116616737D03*
X64596651Y-119156737D03*
X64596651Y-116616737D03*
X67136651Y-119156737D03*
X67136651Y-116616737D03*
X69676651Y-119156737D03*
X69676651Y-116616737D03*
X72216651Y-119156737D03*
X72216651Y-116616737D03*
X74756651Y-119156737D03*
X74756651Y-116616737D03*
X77296651Y-119156737D03*
X77296651Y-116616737D03*
X79836651Y-119156737D03*
X79836651Y-116616737D03*
X82376651Y-119156737D03*
X82376651Y-116616737D03*
X84916651Y-119156737D03*
X84916651Y-116616737D03*
D14*
X56976651Y-114076737D03*
X59516651Y-114076737D03*
X62056651Y-114076737D03*
X64596651Y-114076737D03*
X67136651Y-114076737D03*
X69676651Y-114076737D03*
X72216651Y-114076737D03*
X74756651Y-114076737D03*
X77296651Y-114076737D03*
X79836651Y-114076737D03*
X82376651Y-114076737D03*
X84916651Y-114076737D03*
D11*
X78753800Y-76525000D03*
X84453800Y-76525000D03*
X78753800Y-82225000D03*
X84453800Y-82225000D03*
D12*
X89623800Y-76200000D03*
X73583800Y-76200000D03*
D16*
X66802000Y-94996000D03*
X59639200Y-94996000D03*
D17*
X78105000Y-60934600D03*
X83235800Y-60934600D03*
X93599000Y-60909200D03*
X98729800Y-60909200D03*
D11*
X145603200Y-76530200D03*
X139903200Y-76530200D03*
X145603200Y-82230200D03*
X139903200Y-82230200D03*
D12*
X134733200Y-76205200D03*
X150773200Y-76205200D03*
D18*
X205966942Y-90674262D03*
X205966942Y-116074262D03*
D14*
X202156942Y-117344262D03*
D15*
X202156942Y-114804262D03*
X202156942Y-112264262D03*
D18*
X152626942Y-90674262D03*
D17*
X146761200Y-60655200D03*
X151892000Y-60655200D03*
D19*
X53038000Y-147114000D03*
D11*
X160349000Y-76510000D03*
X166049000Y-76510000D03*
X160349000Y-82210000D03*
X166049000Y-82210000D03*
D12*
X171219000Y-76185000D03*
X155179000Y-76185000D03*
D17*
X63754000Y-60934600D03*
X68884800Y-60934600D03*
X164007800Y-60401200D03*
X169138600Y-60401200D03*
X180543200Y-60172600D03*
X185674000Y-60172600D03*
X110363000Y-60909200D03*
X115493800Y-60909200D03*
X196545200Y-60121800D03*
X201676000Y-60121800D03*
D16*
X66802000Y-104394000D03*
X59639200Y-104394000D03*
D20*
X60786651Y-131856737D03*
X63326651Y-131856737D03*
X64596651Y-131856737D03*
X65866651Y-131856737D03*
X67136651Y-131856737D03*
X68406651Y-131856737D03*
X69676651Y-131856737D03*
X69676651Y-126468737D03*
X68406651Y-126468737D03*
X67136651Y-126468737D03*
X65866651Y-126468737D03*
X64596651Y-126468737D03*
X63326651Y-126468737D03*
X62056651Y-126468737D03*
X60786651Y-126468737D03*
X62056651Y-131856737D03*
X74248651Y-131856737D03*
X76788651Y-131856737D03*
X78058651Y-131856737D03*
X79328651Y-131856737D03*
X80598651Y-131856737D03*
X81868651Y-131856737D03*
X83138651Y-131856737D03*
X83138651Y-126468737D03*
X81868651Y-126468737D03*
X80598651Y-126468737D03*
X79328651Y-126468737D03*
X78058651Y-126468737D03*
X76788651Y-126468737D03*
X75518651Y-126468737D03*
X74248651Y-126468737D03*
X75518651Y-131856737D03*
D18*
X152628600Y-90678000D03*
X152628600Y-116078000D03*
D14*
X156438600Y-117348000D03*
D15*
X156438600Y-114808000D03*
X156438600Y-112268000D03*
D18*
X205968600Y-90678000D03*
X206044800Y-147015200D03*
X206044800Y-121615200D03*
D14*
X202234800Y-120345200D03*
D15*
X202234800Y-122885200D03*
X202234800Y-125425200D03*
D18*
X152704800Y-147015200D03*
X92430600Y-90674262D03*
X92430600Y-116074262D03*
D14*
X96240600Y-117344262D03*
D15*
X96240600Y-114804262D03*
X96240600Y-112264262D03*
D18*
X145770600Y-90674262D03*
X145770600Y-146939000D03*
X145770600Y-121539000D03*
D14*
X141960600Y-120269000D03*
D15*
X141960600Y-122809000D03*
X141960600Y-125349000D03*
D18*
X92430600Y-146939000D03*
X145757641Y-90677775D03*
X145757641Y-116077775D03*
D14*
X141947641Y-117347775D03*
D15*
X141947641Y-114807775D03*
X141947641Y-112267775D03*
D18*
X92417641Y-90677775D03*
X92416157Y-146941065D03*
X92416157Y-121541065D03*
D14*
X96226157Y-120271065D03*
D15*
X96226157Y-122811065D03*
X96226157Y-125351065D03*
D18*
X145756157Y-146941065D03*
X152704800Y-147015200D03*
X152704800Y-121615200D03*
D14*
X156514800Y-120345200D03*
D15*
X156514800Y-122885200D03*
X156514800Y-125425200D03*
D18*
X206044800Y-147015200D03*
D11*
X186446400Y-76504800D03*
X180746400Y-76504800D03*
X186446400Y-82204800D03*
X180746400Y-82204800D03*
D12*
X175576400Y-76179800D03*
X191616400Y-76179800D03*
D11*
X119471200Y-76530200D03*
X125171200Y-76530200D03*
X119471200Y-82230200D03*
X125171200Y-82230200D03*
D12*
X130341200Y-76205200D03*
X114301200Y-76205200D03*
D11*
X201106800Y-76479400D03*
X206806800Y-76479400D03*
X201106800Y-82179400D03*
X206806800Y-82179400D03*
D12*
X211976800Y-76154400D03*
X195936800Y-76154400D03*
D19*
X53038000Y-54841400D03*
X211350600Y-54841400D03*
X211350600Y-147114000D03*
M02*
