G04 #@! TF.FileFunction,Copper,L1,Top,Signal*
%FSLAX46Y46*%
G04 Gerber Fmt 4.6, Leading zero omitted, Abs format (unit mm)*
G04 Created by KiCad (PCBNEW 4.0.7) date 01/25/18 14:49:12*
%MOMM*%
%LPD*%
G01*
G04 APERTURE LIST*
%ADD10C,0.100000*%
%ADD11C,2.692400*%
%ADD12R,1.524000X1.524000*%
%ADD13C,1.524000*%
%ADD14C,2.500000*%
%ADD15C,3.556000*%
%ADD16C,6.604000*%
%ADD17C,1.727200*%
%ADD18C,0.600000*%
%ADD19C,1.727200*%
%ADD20C,0.381000*%
%ADD21C,0.254000*%
%ADD22C,2.362200*%
G04 APERTURE END LIST*
D10*
D11*
X77093990Y-114586324D03*
X64393990Y-145066324D03*
D12*
X53217990Y-146590324D03*
D13*
X58297990Y-146590324D03*
X78109990Y-122206324D03*
X78109990Y-124746324D03*
X78109990Y-127286324D03*
X78109990Y-129826324D03*
X78109990Y-132366324D03*
X78109990Y-134906324D03*
D12*
X78109990Y-137446324D03*
D13*
X55757990Y-146590324D03*
X58297990Y-144050324D03*
X55757990Y-144050324D03*
X58297990Y-141510324D03*
X55757990Y-141510324D03*
X58297990Y-138970324D03*
X55757990Y-138970324D03*
X58297990Y-136430324D03*
X55757990Y-136430324D03*
X58297990Y-133890324D03*
X55757990Y-133890324D03*
X58297990Y-131350324D03*
X55757990Y-131350324D03*
X58297990Y-128810324D03*
X55757990Y-128810324D03*
X58297990Y-126270324D03*
X55757990Y-126270324D03*
X58297990Y-123730324D03*
X55757990Y-123730324D03*
X58297990Y-121190324D03*
X55757990Y-121190324D03*
X58297990Y-118650324D03*
X55757990Y-118650324D03*
X58297990Y-116110324D03*
X55757990Y-116110324D03*
D12*
X53217990Y-144050324D03*
X53217990Y-141510324D03*
X53217990Y-138970324D03*
X53217990Y-136430324D03*
X53217990Y-133890324D03*
X53217990Y-131350324D03*
X53217990Y-128810324D03*
X53217990Y-126270324D03*
X53217990Y-123730324D03*
X53217990Y-121190324D03*
X53217990Y-118650324D03*
X53217990Y-116110324D03*
X195324342Y-117090262D03*
D13*
X195324342Y-114550262D03*
X195324342Y-112010262D03*
D14*
X98440000Y-76525000D03*
X104140000Y-76525000D03*
X98440000Y-82225000D03*
X104140000Y-82225000D03*
D15*
X152654000Y-60452000D03*
X147523200Y-60452000D03*
X63119000Y-60452000D03*
X68249800Y-60452000D03*
X169799000Y-60452000D03*
X164668200Y-60452000D03*
X77978000Y-60452000D03*
X83108800Y-60452000D03*
X186309000Y-60452000D03*
X181178200Y-60452000D03*
X93345000Y-60452000D03*
X98475800Y-60452000D03*
X202438000Y-60452000D03*
X197307200Y-60452000D03*
X110236000Y-60452000D03*
X115366800Y-60452000D03*
D16*
X66802000Y-94996000D03*
X59639200Y-94996000D03*
X66802000Y-104394000D03*
X59639200Y-104394000D03*
D12*
X149606000Y-117094000D03*
D13*
X149606000Y-114554000D03*
X149606000Y-112014000D03*
D12*
X195402200Y-120091200D03*
D13*
X195402200Y-122631200D03*
X195402200Y-125171200D03*
D12*
X89408000Y-117090262D03*
D13*
X89408000Y-114550262D03*
X89408000Y-112010262D03*
D12*
X135128000Y-120015000D03*
D13*
X135128000Y-122555000D03*
X135128000Y-125095000D03*
D12*
X135115041Y-117093775D03*
D13*
X135115041Y-114553775D03*
X135115041Y-112013775D03*
D12*
X89393557Y-120017065D03*
D13*
X89393557Y-122557065D03*
X89393557Y-125097065D03*
D12*
X149682200Y-120091200D03*
D13*
X149682200Y-122631200D03*
X149682200Y-125171200D03*
D14*
X83743800Y-76454000D03*
X78043800Y-76454000D03*
X83743800Y-82154000D03*
X78043800Y-82154000D03*
X124547800Y-76499600D03*
X118847800Y-76499600D03*
X124547800Y-82199600D03*
X118847800Y-82199600D03*
X165531800Y-76555600D03*
X159831800Y-76555600D03*
X165531800Y-82255600D03*
X159831800Y-82255600D03*
X206918800Y-76276200D03*
X201218800Y-76276200D03*
X206918800Y-81976200D03*
X201218800Y-81976200D03*
X180482000Y-76454000D03*
X186182000Y-76454000D03*
X180482000Y-82154000D03*
X186182000Y-82154000D03*
X139244000Y-76525000D03*
X144944000Y-76525000D03*
X139244000Y-82225000D03*
X144944000Y-82225000D03*
X57658000Y-76454000D03*
X63358000Y-76454000D03*
X57658000Y-82154000D03*
X63358000Y-82154000D03*
D17*
X200629648Y-72390000D03*
X120396000Y-57150000D03*
D18*
X74650600Y-137718800D03*
X74650600Y-136448800D03*
X96418400Y-139420600D03*
X94157800Y-139446000D03*
X74650600Y-135153400D03*
X68859400Y-130530600D03*
X72644000Y-146177000D03*
X65532000Y-142367000D03*
X63754000Y-126746000D03*
X74650600Y-138963400D03*
X74549000Y-124206000D03*
X74295000Y-121666000D03*
D19*
X130556000Y-52832000D02*
X75869800Y-52832000D01*
X75869800Y-52832000D02*
X68249800Y-60452000D01*
X141732000Y-64008000D02*
X130556000Y-52832000D01*
X200152000Y-64008000D02*
X141732000Y-64008000D01*
X207010000Y-70866000D02*
X200152000Y-64008000D01*
X207010000Y-73867431D02*
X207010000Y-70866000D01*
X206918800Y-76276200D02*
X206918800Y-73958631D01*
X206918800Y-73958631D02*
X207010000Y-73867431D01*
X129641610Y-54711610D02*
X83718390Y-54711610D01*
X83718390Y-54711610D02*
X77978000Y-60452000D01*
X159831800Y-76555600D02*
X149163810Y-65887610D01*
X149163810Y-65887610D02*
X140817610Y-65887610D01*
X140817610Y-65887610D02*
X129641610Y-54711610D01*
X169697400Y-72390000D02*
X200629648Y-72390000D01*
X165531800Y-76555600D02*
X169697400Y-72390000D01*
X118847800Y-76499600D02*
X118847800Y-58649800D01*
X118847800Y-58649800D02*
X117602000Y-57404000D01*
X117602000Y-57404000D02*
X96393000Y-57404000D01*
X96393000Y-57404000D02*
X93345000Y-60452000D01*
X124547800Y-61301800D02*
X120396000Y-57150000D01*
X124547800Y-76499600D02*
X124547800Y-61301800D01*
X98954611Y-71733389D02*
X110236000Y-60452000D01*
X78043800Y-76454000D02*
X82764411Y-71733389D01*
X82764411Y-71733389D02*
X98954611Y-71733389D01*
X83743800Y-76454000D02*
X86584801Y-73612999D01*
X86584801Y-73612999D02*
X102205801Y-73612999D01*
X102205801Y-73612999D02*
X113588801Y-62229999D01*
X113588801Y-62229999D02*
X115366800Y-60452000D01*
D20*
X73990200Y-137954936D02*
X73990200Y-139254494D01*
X73990200Y-139254494D02*
X76950316Y-142214610D01*
X76950316Y-142214610D02*
X178358790Y-142214610D01*
X178358790Y-142214610D02*
X194640201Y-125933199D01*
X194640201Y-125933199D02*
X195402200Y-125171200D01*
X74650600Y-137718800D02*
X74226336Y-137718800D01*
X74226336Y-137718800D02*
X73990200Y-137954936D01*
X94818200Y-139827000D02*
X94818200Y-117420462D01*
X94818200Y-117420462D02*
X89408000Y-112010262D01*
X93497410Y-141147790D02*
X94818200Y-139827000D01*
X77673190Y-141147790D02*
X93497410Y-141147790D01*
X75293501Y-138768101D02*
X77673190Y-141147790D01*
X74650600Y-136448800D02*
X75293501Y-137091701D01*
X75293501Y-137091701D02*
X75293501Y-138768101D01*
X96418400Y-139420600D02*
X120802400Y-139420600D01*
X120802400Y-139420600D02*
X135128000Y-125095000D01*
X93116400Y-140487400D02*
X94157800Y-139446000D01*
X76504800Y-139225046D02*
X77767154Y-140487400D01*
X77767154Y-140487400D02*
X93116400Y-140487400D01*
X75826911Y-138539511D02*
X76504800Y-139217400D01*
X76504800Y-139217400D02*
X76504800Y-139225046D01*
X74650600Y-135153400D02*
X75826911Y-136329711D01*
X75826911Y-136329711D02*
X75826911Y-138539511D01*
X72644000Y-146177000D02*
X69296001Y-142067001D01*
X69296001Y-142067001D02*
X69296001Y-130967201D01*
X69296001Y-130967201D02*
X68859400Y-130530600D01*
D21*
X63881000Y-141478000D02*
X64770000Y-142367000D01*
X64770000Y-142367000D02*
X65532000Y-142367000D01*
X63881000Y-136933334D02*
X63881000Y-141478000D01*
X58297990Y-131350324D02*
X63881000Y-136933334D01*
X62902314Y-126746000D02*
X63754000Y-126746000D01*
X58297990Y-131350324D02*
X62902314Y-126746000D01*
D20*
X152755600Y-131013200D02*
X152755600Y-115163600D01*
X152755600Y-115163600D02*
X149606000Y-112014000D01*
X142087600Y-141681200D02*
X152755600Y-131013200D01*
X77368400Y-141681200D02*
X142087600Y-141681200D01*
X74650600Y-138963400D02*
X77368400Y-141681200D01*
X74549000Y-124206000D02*
X75057000Y-124206000D01*
X76454000Y-122809000D02*
X76454000Y-121412000D01*
X75057000Y-124206000D02*
X76454000Y-122809000D01*
X76454000Y-121412000D02*
X77597000Y-120269000D01*
X77597000Y-120269000D02*
X78232000Y-120269000D01*
X77851000Y-120269000D02*
X78232000Y-120269000D01*
X78232000Y-120269000D02*
X78994000Y-120269000D01*
X83822065Y-125097065D02*
X89393557Y-125097065D01*
X78994000Y-120269000D02*
X83822065Y-125097065D01*
X142712950Y-123281950D02*
X144602200Y-125171200D01*
X144602200Y-125171200D02*
X149682200Y-125171200D01*
X142712950Y-116078000D02*
X142712950Y-123281950D01*
X85471000Y-110490000D02*
X137124950Y-110490000D01*
X137124950Y-110490000D02*
X142712950Y-116078000D01*
X74295000Y-121666000D02*
X85471000Y-110490000D01*
D22*
X85598000Y-94996000D02*
X90678000Y-94996000D01*
X66802000Y-94996000D02*
X85598000Y-94996000D01*
X85598000Y-94996000D02*
X85669000Y-94996000D01*
X85669000Y-94996000D02*
X98440000Y-82225000D01*
X90678000Y-94996000D02*
X122428000Y-94996000D01*
X90678000Y-94996000D02*
X83820000Y-94996000D01*
X122428000Y-94996000D02*
X167640000Y-94996000D01*
X122428000Y-94996000D02*
X126473000Y-94996000D01*
X126473000Y-94996000D02*
X139244000Y-82225000D01*
X167640000Y-94996000D02*
X180482000Y-82154000D01*
X66802000Y-94996000D02*
X66802000Y-91298000D01*
X66802000Y-91298000D02*
X57658000Y-82154000D01*
M02*
