M48
;DRILL file {KiCad 4.0.7} date 01/29/18 02:46:14
;FORMAT={-:-/ absolute / inch / decimal}
FMAT,2
INCH,TZ
T1C0.086
T2C0.118
T3C0.126
%
G90
G05
M72
T1
X2.2032Y-4.9312
X3.4032Y-5.4312
X3.6384Y-4.7851
X3.6384Y-5.7851
X3.6385Y-3.57
X3.639Y-3.5699
X3.639Y-4.5699
X3.639Y-5.785
X5.7384Y-5.7851
X5.7385Y-3.57
X5.7385Y-4.57
X5.739Y-3.5699
X5.739Y-4.785
X5.739Y-5.785
X6.0089Y-3.5699
X6.009Y-3.57
X6.009Y-4.57
X6.012Y-4.788
X6.012Y-5.788
X6.012Y-5.788
X8.1089Y-3.5699
X8.1089Y-4.5699
X8.109Y-3.57
X8.112Y-4.788
X8.112Y-5.788
X8.112Y-5.788
T2
X2.096Y-2.9982
X2.7275Y-2.9982
X2.897Y-3.
X3.5285Y-3.
X3.7005Y-3.0002
X4.332Y-3.0002
X4.5Y-3.0002
X5.1315Y-3.0002
X5.3045Y-3.0002
X5.936Y-3.0002
X6.1094Y-2.9994
X6.7409Y-2.9994
X6.9125Y-2.9992
X7.544Y-2.9992
X7.714Y-2.9982
X8.3455Y-2.9982
T3
X2.0881Y-2.1591
X2.0881Y-5.7919
X8.3209Y-2.1591
X8.3209Y-5.7919
T0
M30
