M48
;DRILL file {KiCad 4.0.7} date 01/25/18 14:49:20
;FORMAT={-:-/ absolute / inch / decimal}
FMAT,2
INCH,TZ
T1C0.015
T2C0.040
T3C0.050
T4C0.071
T5C0.100
T6C0.104
T7C0.172
%
G90
G05
M72
T1
X2.51Y-4.99
X2.58Y-5.605
X2.711Y-5.139
X2.86Y-5.755
X2.925Y-4.79
X2.935Y-4.89
X2.939Y-5.321
X2.939Y-5.372
X2.939Y-5.422
X2.939Y-5.471
X3.707Y-5.49
X3.796Y-5.489
T2
X2.0952Y-4.5713
X2.0952Y-4.6713
X2.0952Y-4.7713
X2.0952Y-4.8713
X2.0952Y-4.9713
X2.0952Y-5.0713
X2.0952Y-5.1713
X2.0952Y-5.2713
X2.0952Y-5.3713
X2.0952Y-5.4713
X2.0952Y-5.5713
X2.0952Y-5.6713
X2.0952Y-5.7713
X2.1952Y-4.5713
X2.1952Y-4.6713
X2.1952Y-4.7713
X2.1952Y-4.8713
X2.1952Y-4.9713
X2.1952Y-5.0713
X2.1952Y-5.1713
X2.1952Y-5.2713
X2.1952Y-5.3713
X2.1952Y-5.4713
X2.1952Y-5.5713
X2.1952Y-5.6713
X2.1952Y-5.7713
X2.2952Y-4.5713
X2.2952Y-4.6713
X2.2952Y-4.7713
X2.2952Y-4.8713
X2.2952Y-4.9713
X2.2952Y-5.0713
X2.2952Y-5.1713
X2.2952Y-5.2713
X2.2952Y-5.3713
X2.2952Y-5.4713
X2.2952Y-5.5713
X2.2952Y-5.6713
X2.2952Y-5.7713
X3.0752Y-4.8113
X3.0752Y-4.9113
X3.0752Y-5.0113
X3.0752Y-5.1113
X3.0752Y-5.2113
X3.0752Y-5.3113
X3.0752Y-5.4113
X3.5194Y-4.7251
X3.5194Y-4.8251
X3.5194Y-4.9251
X3.52Y-4.4099
X3.52Y-4.5099
X3.52Y-4.6099
X5.3195Y-4.41
X5.3195Y-4.51
X5.3195Y-4.61
X5.32Y-4.725
X5.32Y-4.825
X5.32Y-4.925
X5.89Y-4.41
X5.89Y-4.51
X5.89Y-4.61
X5.893Y-4.728
X5.893Y-4.828
X5.893Y-4.928
X7.6899Y-4.4099
X7.6899Y-4.5099
X7.6899Y-4.6099
X7.693Y-4.728
X7.693Y-4.828
X7.693Y-4.928
T3
X4.74Y-2.25
X7.8988Y-2.85
T4
X2.27Y-3.01
X2.27Y-3.2344
X2.4944Y-3.01
X2.4944Y-3.2344
X3.0726Y-3.01
X3.0726Y-3.2344
X3.297Y-3.01
X3.297Y-3.2344
X3.8756Y-3.0128
X3.8756Y-3.2372
X4.1Y-3.0128
X4.1Y-3.2372
X4.679Y-3.0118
X4.679Y-3.2362
X4.9035Y-3.0118
X4.9035Y-3.2362
X5.482Y-3.0128
X5.482Y-3.2372
X5.7065Y-3.0128
X5.7065Y-3.2372
X6.2926Y-3.014
X6.2926Y-3.2384
X6.517Y-3.014
X6.517Y-3.2384
X7.1056Y-3.01
X7.1056Y-3.2344
X7.33Y-3.01
X7.33Y-3.2344
X7.922Y-3.003
X7.922Y-3.2274
X8.1464Y-3.003
X8.1464Y-3.2274
T5
X2.485Y-2.38
X3.07Y-2.38
X3.675Y-2.38
X4.34Y-2.38
X6.01Y-2.38
X6.685Y-2.38
X7.335Y-2.38
X7.97Y-2.38
T6
X2.687Y-2.38
X3.272Y-2.38
X3.877Y-2.38
X4.542Y-2.38
X5.808Y-2.38
X6.483Y-2.38
X7.133Y-2.38
X7.768Y-2.38
T7
X2.348Y-3.74
X2.348Y-4.11
X2.63Y-3.74
X2.63Y-4.11
T0
M30
