G04 #@! TF.FileFunction,Legend,Top*
%FSLAX46Y46*%
G04 Gerber Fmt 4.6, Leading zero omitted, Abs format (unit mm)*
G04 Created by KiCad (PCBNEW 4.0.7) date 01/29/18 02:46:11*
%MOMM*%
%LPD*%
G01*
G04 APERTURE LIST*
%ADD10C,0.100000*%
%ADD11C,0.300000*%
%ADD12C,0.150000*%
%ADD13C,2.900000*%
%ADD14C,3.400000*%
%ADD15C,3.092400*%
%ADD16R,1.924000X1.924000*%
%ADD17C,1.924000*%
%ADD18C,7.004000*%
%ADD19C,3.956000*%
%ADD20C,2.584400*%
%ADD21C,3.600000*%
G04 APERTURE END LIST*
D10*
D11*
X93480286Y-55566571D02*
X93766000Y-55566571D01*
X93908858Y-55638000D01*
X94051715Y-55780857D01*
X94123143Y-56066571D01*
X94123143Y-56566571D01*
X94051715Y-56852286D01*
X93908858Y-56995143D01*
X93766000Y-57066571D01*
X93480286Y-57066571D01*
X93337429Y-56995143D01*
X93194572Y-56852286D01*
X93123143Y-56566571D01*
X93123143Y-56066571D01*
X93194572Y-55780857D01*
X93337429Y-55638000D01*
X93480286Y-55566571D01*
X94766001Y-55566571D02*
X94766001Y-56780857D01*
X94837429Y-56923714D01*
X94908858Y-56995143D01*
X95051715Y-57066571D01*
X95337429Y-57066571D01*
X95480287Y-56995143D01*
X95551715Y-56923714D01*
X95623144Y-56780857D01*
X95623144Y-55566571D01*
X96123144Y-55566571D02*
X96980287Y-55566571D01*
X96551716Y-57066571D02*
X96551716Y-55566571D01*
X97123144Y-57209429D02*
X98266001Y-57209429D01*
X98551715Y-55709429D02*
X98623144Y-55638000D01*
X98766001Y-55566571D01*
X99123144Y-55566571D01*
X99266001Y-55638000D01*
X99337430Y-55709429D01*
X99408858Y-55852286D01*
X99408858Y-55995143D01*
X99337430Y-56209429D01*
X98480287Y-57066571D01*
X99408858Y-57066571D01*
X196832886Y-55287171D02*
X197118600Y-55287171D01*
X197261458Y-55358600D01*
X197404315Y-55501457D01*
X197475743Y-55787171D01*
X197475743Y-56287171D01*
X197404315Y-56572886D01*
X197261458Y-56715743D01*
X197118600Y-56787171D01*
X196832886Y-56787171D01*
X196690029Y-56715743D01*
X196547172Y-56572886D01*
X196475743Y-56287171D01*
X196475743Y-55787171D01*
X196547172Y-55501457D01*
X196690029Y-55358600D01*
X196832886Y-55287171D01*
X198118601Y-55287171D02*
X198118601Y-56501457D01*
X198190029Y-56644314D01*
X198261458Y-56715743D01*
X198404315Y-56787171D01*
X198690029Y-56787171D01*
X198832887Y-56715743D01*
X198904315Y-56644314D01*
X198975744Y-56501457D01*
X198975744Y-55287171D01*
X199475744Y-55287171D02*
X200332887Y-55287171D01*
X199904316Y-56787171D02*
X199904316Y-55287171D01*
X200475744Y-56930029D02*
X201618601Y-56930029D01*
X201832887Y-55287171D02*
X202832887Y-55287171D01*
X202190030Y-56787171D01*
X180780086Y-55312571D02*
X181065800Y-55312571D01*
X181208658Y-55384000D01*
X181351515Y-55526857D01*
X181422943Y-55812571D01*
X181422943Y-56312571D01*
X181351515Y-56598286D01*
X181208658Y-56741143D01*
X181065800Y-56812571D01*
X180780086Y-56812571D01*
X180637229Y-56741143D01*
X180494372Y-56598286D01*
X180422943Y-56312571D01*
X180422943Y-55812571D01*
X180494372Y-55526857D01*
X180637229Y-55384000D01*
X180780086Y-55312571D01*
X182065801Y-55312571D02*
X182065801Y-56526857D01*
X182137229Y-56669714D01*
X182208658Y-56741143D01*
X182351515Y-56812571D01*
X182637229Y-56812571D01*
X182780087Y-56741143D01*
X182851515Y-56669714D01*
X182922944Y-56526857D01*
X182922944Y-55312571D01*
X183422944Y-55312571D02*
X184280087Y-55312571D01*
X183851516Y-56812571D02*
X183851516Y-55312571D01*
X184422944Y-56955429D02*
X185565801Y-56955429D01*
X186565801Y-55312571D02*
X186280087Y-55312571D01*
X186137230Y-55384000D01*
X186065801Y-55455429D01*
X185922944Y-55669714D01*
X185851515Y-55955429D01*
X185851515Y-56526857D01*
X185922944Y-56669714D01*
X185994372Y-56741143D01*
X186137230Y-56812571D01*
X186422944Y-56812571D01*
X186565801Y-56741143D01*
X186637230Y-56669714D01*
X186708658Y-56526857D01*
X186708658Y-56169714D01*
X186637230Y-56026857D01*
X186565801Y-55955429D01*
X186422944Y-55884000D01*
X186137230Y-55884000D01*
X185994372Y-55955429D01*
X185922944Y-56026857D01*
X185851515Y-56169714D01*
X164244686Y-55312571D02*
X164530400Y-55312571D01*
X164673258Y-55384000D01*
X164816115Y-55526857D01*
X164887543Y-55812571D01*
X164887543Y-56312571D01*
X164816115Y-56598286D01*
X164673258Y-56741143D01*
X164530400Y-56812571D01*
X164244686Y-56812571D01*
X164101829Y-56741143D01*
X163958972Y-56598286D01*
X163887543Y-56312571D01*
X163887543Y-55812571D01*
X163958972Y-55526857D01*
X164101829Y-55384000D01*
X164244686Y-55312571D01*
X165530401Y-55312571D02*
X165530401Y-56526857D01*
X165601829Y-56669714D01*
X165673258Y-56741143D01*
X165816115Y-56812571D01*
X166101829Y-56812571D01*
X166244687Y-56741143D01*
X166316115Y-56669714D01*
X166387544Y-56526857D01*
X166387544Y-55312571D01*
X166887544Y-55312571D02*
X167744687Y-55312571D01*
X167316116Y-56812571D02*
X167316116Y-55312571D01*
X167887544Y-56955429D02*
X169030401Y-56955429D01*
X170101830Y-55312571D02*
X169387544Y-55312571D01*
X169316115Y-56026857D01*
X169387544Y-55955429D01*
X169530401Y-55884000D01*
X169887544Y-55884000D01*
X170030401Y-55955429D01*
X170101830Y-56026857D01*
X170173258Y-56169714D01*
X170173258Y-56526857D01*
X170101830Y-56669714D01*
X170030401Y-56741143D01*
X169887544Y-56812571D01*
X169530401Y-56812571D01*
X169387544Y-56741143D01*
X169316115Y-56669714D01*
X147074286Y-55566571D02*
X147360000Y-55566571D01*
X147502858Y-55638000D01*
X147645715Y-55780857D01*
X147717143Y-56066571D01*
X147717143Y-56566571D01*
X147645715Y-56852286D01*
X147502858Y-56995143D01*
X147360000Y-57066571D01*
X147074286Y-57066571D01*
X146931429Y-56995143D01*
X146788572Y-56852286D01*
X146717143Y-56566571D01*
X146717143Y-56066571D01*
X146788572Y-55780857D01*
X146931429Y-55638000D01*
X147074286Y-55566571D01*
X148360001Y-55566571D02*
X148360001Y-56780857D01*
X148431429Y-56923714D01*
X148502858Y-56995143D01*
X148645715Y-57066571D01*
X148931429Y-57066571D01*
X149074287Y-56995143D01*
X149145715Y-56923714D01*
X149217144Y-56780857D01*
X149217144Y-55566571D01*
X149717144Y-55566571D02*
X150574287Y-55566571D01*
X150145716Y-57066571D02*
X150145716Y-55566571D01*
X150717144Y-57209429D02*
X151860001Y-57209429D01*
X152860001Y-56066571D02*
X152860001Y-57066571D01*
X152502858Y-55495143D02*
X152145715Y-56566571D01*
X153074287Y-56566571D01*
X110244286Y-55566571D02*
X110530000Y-55566571D01*
X110672858Y-55638000D01*
X110815715Y-55780857D01*
X110887143Y-56066571D01*
X110887143Y-56566571D01*
X110815715Y-56852286D01*
X110672858Y-56995143D01*
X110530000Y-57066571D01*
X110244286Y-57066571D01*
X110101429Y-56995143D01*
X109958572Y-56852286D01*
X109887143Y-56566571D01*
X109887143Y-56066571D01*
X109958572Y-55780857D01*
X110101429Y-55638000D01*
X110244286Y-55566571D01*
X111530001Y-55566571D02*
X111530001Y-56780857D01*
X111601429Y-56923714D01*
X111672858Y-56995143D01*
X111815715Y-57066571D01*
X112101429Y-57066571D01*
X112244287Y-56995143D01*
X112315715Y-56923714D01*
X112387144Y-56780857D01*
X112387144Y-55566571D01*
X112887144Y-55566571D02*
X113744287Y-55566571D01*
X113315716Y-57066571D02*
X113315716Y-55566571D01*
X113887144Y-57209429D02*
X115030001Y-57209429D01*
X115244287Y-55566571D02*
X116172858Y-55566571D01*
X115672858Y-56138000D01*
X115887144Y-56138000D01*
X116030001Y-56209429D01*
X116101430Y-56280857D01*
X116172858Y-56423714D01*
X116172858Y-56780857D01*
X116101430Y-56923714D01*
X116030001Y-56995143D01*
X115887144Y-57066571D01*
X115458572Y-57066571D01*
X115315715Y-56995143D01*
X115244287Y-56923714D01*
X77986286Y-55566571D02*
X78272000Y-55566571D01*
X78414858Y-55638000D01*
X78557715Y-55780857D01*
X78629143Y-56066571D01*
X78629143Y-56566571D01*
X78557715Y-56852286D01*
X78414858Y-56995143D01*
X78272000Y-57066571D01*
X77986286Y-57066571D01*
X77843429Y-56995143D01*
X77700572Y-56852286D01*
X77629143Y-56566571D01*
X77629143Y-56066571D01*
X77700572Y-55780857D01*
X77843429Y-55638000D01*
X77986286Y-55566571D01*
X79272001Y-55566571D02*
X79272001Y-56780857D01*
X79343429Y-56923714D01*
X79414858Y-56995143D01*
X79557715Y-57066571D01*
X79843429Y-57066571D01*
X79986287Y-56995143D01*
X80057715Y-56923714D01*
X80129144Y-56780857D01*
X80129144Y-55566571D01*
X80629144Y-55566571D02*
X81486287Y-55566571D01*
X81057716Y-57066571D02*
X81057716Y-55566571D01*
X81629144Y-57209429D02*
X82772001Y-57209429D01*
X83914858Y-57066571D02*
X83057715Y-57066571D01*
X83486287Y-57066571D02*
X83486287Y-55566571D01*
X83343430Y-55780857D01*
X83200572Y-55923714D01*
X83057715Y-55995143D01*
X63076486Y-55566571D02*
X63362200Y-55566571D01*
X63505058Y-55638000D01*
X63647915Y-55780857D01*
X63719343Y-56066571D01*
X63719343Y-56566571D01*
X63647915Y-56852286D01*
X63505058Y-56995143D01*
X63362200Y-57066571D01*
X63076486Y-57066571D01*
X62933629Y-56995143D01*
X62790772Y-56852286D01*
X62719343Y-56566571D01*
X62719343Y-56066571D01*
X62790772Y-55780857D01*
X62933629Y-55638000D01*
X63076486Y-55566571D01*
X64362201Y-55566571D02*
X64362201Y-56780857D01*
X64433629Y-56923714D01*
X64505058Y-56995143D01*
X64647915Y-57066571D01*
X64933629Y-57066571D01*
X65076487Y-56995143D01*
X65147915Y-56923714D01*
X65219344Y-56780857D01*
X65219344Y-55566571D01*
X65719344Y-55566571D02*
X66576487Y-55566571D01*
X66147916Y-57066571D02*
X66147916Y-55566571D01*
X66719344Y-57209429D02*
X67862201Y-57209429D01*
X68505058Y-55566571D02*
X68647915Y-55566571D01*
X68790772Y-55638000D01*
X68862201Y-55709429D01*
X68933630Y-55852286D01*
X69005058Y-56138000D01*
X69005058Y-56495143D01*
X68933630Y-56780857D01*
X68862201Y-56923714D01*
X68790772Y-56995143D01*
X68647915Y-57066571D01*
X68505058Y-57066571D01*
X68362201Y-56995143D01*
X68290772Y-56923714D01*
X68219344Y-56780857D01*
X68147915Y-56495143D01*
X68147915Y-56138000D01*
X68219344Y-55852286D01*
X68290772Y-55709429D01*
X68362201Y-55638000D01*
X68505058Y-55566571D01*
X181761001Y-67591714D02*
X181689572Y-67663143D01*
X181475286Y-67734571D01*
X181332429Y-67734571D01*
X181118144Y-67663143D01*
X180975286Y-67520286D01*
X180903858Y-67377429D01*
X180832429Y-67091714D01*
X180832429Y-66877429D01*
X180903858Y-66591714D01*
X180975286Y-66448857D01*
X181118144Y-66306000D01*
X181332429Y-66234571D01*
X181475286Y-66234571D01*
X181689572Y-66306000D01*
X181761001Y-66377429D01*
X182403858Y-67734571D02*
X182403858Y-66234571D01*
X183046715Y-67734571D02*
X183046715Y-66948857D01*
X182975286Y-66806000D01*
X182832429Y-66734571D01*
X182618144Y-66734571D01*
X182475286Y-66806000D01*
X182403858Y-66877429D01*
X183403858Y-67877429D02*
X184546715Y-67877429D01*
X184761001Y-66234571D02*
X185761001Y-66234571D01*
X185118144Y-67734571D01*
X140867001Y-67718714D02*
X140795572Y-67790143D01*
X140581286Y-67861571D01*
X140438429Y-67861571D01*
X140224144Y-67790143D01*
X140081286Y-67647286D01*
X140009858Y-67504429D01*
X139938429Y-67218714D01*
X139938429Y-67004429D01*
X140009858Y-66718714D01*
X140081286Y-66575857D01*
X140224144Y-66433000D01*
X140438429Y-66361571D01*
X140581286Y-66361571D01*
X140795572Y-66433000D01*
X140867001Y-66504429D01*
X141509858Y-67861571D02*
X141509858Y-66361571D01*
X142152715Y-67861571D02*
X142152715Y-67075857D01*
X142081286Y-66933000D01*
X141938429Y-66861571D01*
X141724144Y-66861571D01*
X141581286Y-66933000D01*
X141509858Y-67004429D01*
X142509858Y-68004429D02*
X143652715Y-68004429D01*
X144652715Y-66361571D02*
X144367001Y-66361571D01*
X144224144Y-66433000D01*
X144152715Y-66504429D01*
X144009858Y-66718714D01*
X143938429Y-67004429D01*
X143938429Y-67575857D01*
X144009858Y-67718714D01*
X144081286Y-67790143D01*
X144224144Y-67861571D01*
X144509858Y-67861571D01*
X144652715Y-67790143D01*
X144724144Y-67718714D01*
X144795572Y-67575857D01*
X144795572Y-67218714D01*
X144724144Y-67075857D01*
X144652715Y-67004429D01*
X144509858Y-66933000D01*
X144224144Y-66933000D01*
X144081286Y-67004429D01*
X144009858Y-67075857D01*
X143938429Y-67218714D01*
X99846001Y-67845714D02*
X99774572Y-67917143D01*
X99560286Y-67988571D01*
X99417429Y-67988571D01*
X99203144Y-67917143D01*
X99060286Y-67774286D01*
X98988858Y-67631429D01*
X98917429Y-67345714D01*
X98917429Y-67131429D01*
X98988858Y-66845714D01*
X99060286Y-66702857D01*
X99203144Y-66560000D01*
X99417429Y-66488571D01*
X99560286Y-66488571D01*
X99774572Y-66560000D01*
X99846001Y-66631429D01*
X100488858Y-67988571D02*
X100488858Y-66488571D01*
X101131715Y-67988571D02*
X101131715Y-67202857D01*
X101060286Y-67060000D01*
X100917429Y-66988571D01*
X100703144Y-66988571D01*
X100560286Y-67060000D01*
X100488858Y-67131429D01*
X101488858Y-68131429D02*
X102631715Y-68131429D01*
X103703144Y-66488571D02*
X102988858Y-66488571D01*
X102917429Y-67202857D01*
X102988858Y-67131429D01*
X103131715Y-67060000D01*
X103488858Y-67060000D01*
X103631715Y-67131429D01*
X103703144Y-67202857D01*
X103774572Y-67345714D01*
X103774572Y-67702857D01*
X103703144Y-67845714D01*
X103631715Y-67917143D01*
X103488858Y-67988571D01*
X103131715Y-67988571D01*
X102988858Y-67917143D01*
X102917429Y-67845714D01*
X58952001Y-67718714D02*
X58880572Y-67790143D01*
X58666286Y-67861571D01*
X58523429Y-67861571D01*
X58309144Y-67790143D01*
X58166286Y-67647286D01*
X58094858Y-67504429D01*
X58023429Y-67218714D01*
X58023429Y-67004429D01*
X58094858Y-66718714D01*
X58166286Y-66575857D01*
X58309144Y-66433000D01*
X58523429Y-66361571D01*
X58666286Y-66361571D01*
X58880572Y-66433000D01*
X58952001Y-66504429D01*
X59594858Y-67861571D02*
X59594858Y-66361571D01*
X60237715Y-67861571D02*
X60237715Y-67075857D01*
X60166286Y-66933000D01*
X60023429Y-66861571D01*
X59809144Y-66861571D01*
X59666286Y-66933000D01*
X59594858Y-67004429D01*
X60594858Y-68004429D02*
X61737715Y-68004429D01*
X62737715Y-66861571D02*
X62737715Y-67861571D01*
X62380572Y-66290143D02*
X62023429Y-67361571D01*
X62952001Y-67361571D01*
X72156429Y-95015857D02*
X72370715Y-95087286D01*
X72442143Y-95158714D01*
X72513572Y-95301571D01*
X72513572Y-95515857D01*
X72442143Y-95658714D01*
X72370715Y-95730143D01*
X72227857Y-95801571D01*
X71656429Y-95801571D01*
X71656429Y-94301571D01*
X72156429Y-94301571D01*
X72299286Y-94373000D01*
X72370715Y-94444429D01*
X72442143Y-94587286D01*
X72442143Y-94730143D01*
X72370715Y-94873000D01*
X72299286Y-94944429D01*
X72156429Y-95015857D01*
X71656429Y-95015857D01*
X73085000Y-95373000D02*
X73799286Y-95373000D01*
X72942143Y-95801571D02*
X73442143Y-94301571D01*
X73942143Y-95801571D01*
X74227857Y-94301571D02*
X75085000Y-94301571D01*
X74656429Y-95801571D02*
X74656429Y-94301571D01*
X75370714Y-94301571D02*
X76227857Y-94301571D01*
X75799286Y-95801571D02*
X75799286Y-94301571D01*
X76370714Y-95944429D02*
X77513571Y-95944429D01*
X77870714Y-95801571D02*
X77870714Y-94301571D01*
X78585000Y-95801571D02*
X78585000Y-94301571D01*
X79442143Y-95801571D01*
X79442143Y-94301571D01*
X79799286Y-95944429D02*
X80942143Y-95944429D01*
X81585000Y-94301571D02*
X81727857Y-94301571D01*
X81870714Y-94373000D01*
X81942143Y-94444429D01*
X82013572Y-94587286D01*
X82085000Y-94873000D01*
X82085000Y-95230143D01*
X82013572Y-95515857D01*
X81942143Y-95658714D01*
X81870714Y-95730143D01*
X81727857Y-95801571D01*
X81585000Y-95801571D01*
X81442143Y-95730143D01*
X81370714Y-95658714D01*
X81299286Y-95515857D01*
X81227857Y-95230143D01*
X81227857Y-94873000D01*
X81299286Y-94587286D01*
X81370714Y-94444429D01*
X81442143Y-94373000D01*
X81585000Y-94301571D01*
X72156429Y-104159857D02*
X72370715Y-104231286D01*
X72442143Y-104302714D01*
X72513572Y-104445571D01*
X72513572Y-104659857D01*
X72442143Y-104802714D01*
X72370715Y-104874143D01*
X72227857Y-104945571D01*
X71656429Y-104945571D01*
X71656429Y-103445571D01*
X72156429Y-103445571D01*
X72299286Y-103517000D01*
X72370715Y-103588429D01*
X72442143Y-103731286D01*
X72442143Y-103874143D01*
X72370715Y-104017000D01*
X72299286Y-104088429D01*
X72156429Y-104159857D01*
X71656429Y-104159857D01*
X73085000Y-104517000D02*
X73799286Y-104517000D01*
X72942143Y-104945571D02*
X73442143Y-103445571D01*
X73942143Y-104945571D01*
X74227857Y-103445571D02*
X75085000Y-103445571D01*
X74656429Y-104945571D02*
X74656429Y-103445571D01*
X75370714Y-103445571D02*
X76227857Y-103445571D01*
X75799286Y-104945571D02*
X75799286Y-103445571D01*
X76370714Y-105088429D02*
X77513571Y-105088429D01*
X77870714Y-104945571D02*
X77870714Y-103445571D01*
X78585000Y-104945571D02*
X78585000Y-103445571D01*
X79442143Y-104945571D01*
X79442143Y-103445571D01*
X79799286Y-105088429D02*
X80942143Y-105088429D01*
X82085000Y-104945571D02*
X81227857Y-104945571D01*
X81656429Y-104945571D02*
X81656429Y-103445571D01*
X81513572Y-103659857D01*
X81370714Y-103802714D01*
X81227857Y-103874143D01*
X125713315Y-61995857D02*
X125927601Y-62067286D01*
X125999029Y-62138714D01*
X126070458Y-62281571D01*
X126070458Y-62495857D01*
X125999029Y-62638714D01*
X125927601Y-62710143D01*
X125784743Y-62781571D01*
X125213315Y-62781571D01*
X125213315Y-61281571D01*
X125713315Y-61281571D01*
X125856172Y-61353000D01*
X125927601Y-61424429D01*
X125999029Y-61567286D01*
X125999029Y-61710143D01*
X125927601Y-61853000D01*
X125856172Y-61924429D01*
X125713315Y-61995857D01*
X125213315Y-61995857D01*
X126927601Y-62781571D02*
X126784743Y-62710143D01*
X126713315Y-62638714D01*
X126641886Y-62495857D01*
X126641886Y-62067286D01*
X126713315Y-61924429D01*
X126784743Y-61853000D01*
X126927601Y-61781571D01*
X127141886Y-61781571D01*
X127284743Y-61853000D01*
X127356172Y-61924429D01*
X127427601Y-62067286D01*
X127427601Y-62495857D01*
X127356172Y-62638714D01*
X127284743Y-62710143D01*
X127141886Y-62781571D01*
X126927601Y-62781571D01*
X128713315Y-62781571D02*
X128713315Y-61995857D01*
X128641886Y-61853000D01*
X128499029Y-61781571D01*
X128213315Y-61781571D01*
X128070458Y-61853000D01*
X128713315Y-62710143D02*
X128570458Y-62781571D01*
X128213315Y-62781571D01*
X128070458Y-62710143D01*
X127999029Y-62567286D01*
X127999029Y-62424429D01*
X128070458Y-62281571D01*
X128213315Y-62210143D01*
X128570458Y-62210143D01*
X128713315Y-62138714D01*
X129427601Y-62781571D02*
X129427601Y-61781571D01*
X129427601Y-62067286D02*
X129499029Y-61924429D01*
X129570458Y-61853000D01*
X129713315Y-61781571D01*
X129856172Y-61781571D01*
X130999029Y-62781571D02*
X130999029Y-61281571D01*
X130999029Y-62710143D02*
X130856172Y-62781571D01*
X130570458Y-62781571D01*
X130427600Y-62710143D01*
X130356172Y-62638714D01*
X130284743Y-62495857D01*
X130284743Y-62067286D01*
X130356172Y-61924429D01*
X130427600Y-61853000D01*
X130570458Y-61781571D01*
X130856172Y-61781571D01*
X130999029Y-61853000D01*
X132856172Y-62781571D02*
X132856172Y-61281571D01*
X133213315Y-61281571D01*
X133427600Y-61353000D01*
X133570458Y-61495857D01*
X133641886Y-61638714D01*
X133713315Y-61924429D01*
X133713315Y-62138714D01*
X133641886Y-62424429D01*
X133570458Y-62567286D01*
X133427600Y-62710143D01*
X133213315Y-62781571D01*
X132856172Y-62781571D01*
X134356172Y-62781571D02*
X134356172Y-61781571D01*
X134356172Y-62067286D02*
X134427600Y-61924429D01*
X134499029Y-61853000D01*
X134641886Y-61781571D01*
X134784743Y-61781571D01*
X135284743Y-62781571D02*
X135284743Y-61781571D01*
X135284743Y-61281571D02*
X135213314Y-61353000D01*
X135284743Y-61424429D01*
X135356171Y-61353000D01*
X135284743Y-61281571D01*
X135284743Y-61424429D01*
X135856172Y-61781571D02*
X136213315Y-62781571D01*
X136570457Y-61781571D01*
X137713314Y-62710143D02*
X137570457Y-62781571D01*
X137284743Y-62781571D01*
X137141886Y-62710143D01*
X137070457Y-62567286D01*
X137070457Y-61995857D01*
X137141886Y-61853000D01*
X137284743Y-61781571D01*
X137570457Y-61781571D01*
X137713314Y-61853000D01*
X137784743Y-61995857D01*
X137784743Y-62138714D01*
X137070457Y-62281571D01*
X138427600Y-62781571D02*
X138427600Y-61781571D01*
X138427600Y-62067286D02*
X138499028Y-61924429D01*
X138570457Y-61853000D01*
X138713314Y-61781571D01*
X138856171Y-61781571D01*
X124605402Y-58614571D02*
X125605402Y-58614571D01*
X124605402Y-60114571D01*
X125605402Y-60114571D01*
X126176830Y-59328857D02*
X126676830Y-59328857D01*
X126891116Y-60114571D02*
X126176830Y-60114571D01*
X126176830Y-58614571D01*
X126891116Y-58614571D01*
X127462544Y-59686000D02*
X128176830Y-59686000D01*
X127319687Y-60114571D02*
X127819687Y-58614571D01*
X128319687Y-60114571D01*
X129319687Y-59328857D02*
X129533973Y-59400286D01*
X129605401Y-59471714D01*
X129676830Y-59614571D01*
X129676830Y-59828857D01*
X129605401Y-59971714D01*
X129533973Y-60043143D01*
X129391115Y-60114571D01*
X128819687Y-60114571D01*
X128819687Y-58614571D01*
X129319687Y-58614571D01*
X129462544Y-58686000D01*
X129533973Y-58757429D01*
X129605401Y-58900286D01*
X129605401Y-59043143D01*
X129533973Y-59186000D01*
X129462544Y-59257429D01*
X129319687Y-59328857D01*
X128819687Y-59328857D01*
X130319687Y-58614571D02*
X130319687Y-59828857D01*
X130391115Y-59971714D01*
X130462544Y-60043143D01*
X130605401Y-60114571D01*
X130891115Y-60114571D01*
X131033973Y-60043143D01*
X131105401Y-59971714D01*
X131176830Y-59828857D01*
X131176830Y-58614571D01*
X131819687Y-60043143D02*
X132033973Y-60114571D01*
X132391116Y-60114571D01*
X132533973Y-60043143D01*
X132605402Y-59971714D01*
X132676830Y-59828857D01*
X132676830Y-59686000D01*
X132605402Y-59543143D01*
X132533973Y-59471714D01*
X132391116Y-59400286D01*
X132105402Y-59328857D01*
X131962544Y-59257429D01*
X131891116Y-59186000D01*
X131819687Y-59043143D01*
X131819687Y-58900286D01*
X131891116Y-58757429D01*
X131962544Y-58686000D01*
X132105402Y-58614571D01*
X132462544Y-58614571D01*
X132676830Y-58686000D01*
X134391115Y-58757429D02*
X134462544Y-58686000D01*
X134605401Y-58614571D01*
X134962544Y-58614571D01*
X135105401Y-58686000D01*
X135176830Y-58757429D01*
X135248258Y-58900286D01*
X135248258Y-59043143D01*
X135176830Y-59257429D01*
X134319687Y-60114571D01*
X135248258Y-60114571D01*
X136176829Y-58614571D02*
X136319686Y-58614571D01*
X136462543Y-58686000D01*
X136533972Y-58757429D01*
X136605401Y-58900286D01*
X136676829Y-59186000D01*
X136676829Y-59543143D01*
X136605401Y-59828857D01*
X136533972Y-59971714D01*
X136462543Y-60043143D01*
X136319686Y-60114571D01*
X136176829Y-60114571D01*
X136033972Y-60043143D01*
X135962543Y-59971714D01*
X135891115Y-59828857D01*
X135819686Y-59543143D01*
X135819686Y-59186000D01*
X135891115Y-58900286D01*
X135962543Y-58757429D01*
X136033972Y-58686000D01*
X136176829Y-58614571D01*
X138105400Y-60114571D02*
X137248257Y-60114571D01*
X137676829Y-60114571D02*
X137676829Y-58614571D01*
X137533972Y-58828857D01*
X137391114Y-58971714D01*
X137248257Y-59043143D01*
X138962543Y-59257429D02*
X138819685Y-59186000D01*
X138748257Y-59114571D01*
X138676828Y-58971714D01*
X138676828Y-58900286D01*
X138748257Y-58757429D01*
X138819685Y-58686000D01*
X138962543Y-58614571D01*
X139248257Y-58614571D01*
X139391114Y-58686000D01*
X139462543Y-58757429D01*
X139533971Y-58900286D01*
X139533971Y-58971714D01*
X139462543Y-59114571D01*
X139391114Y-59186000D01*
X139248257Y-59257429D01*
X138962543Y-59257429D01*
X138819685Y-59328857D01*
X138748257Y-59400286D01*
X138676828Y-59543143D01*
X138676828Y-59828857D01*
X138748257Y-59971714D01*
X138819685Y-60043143D01*
X138962543Y-60114571D01*
X139248257Y-60114571D01*
X139391114Y-60043143D01*
X139462543Y-59971714D01*
X139533971Y-59828857D01*
X139533971Y-59543143D01*
X139462543Y-59400286D01*
X139391114Y-59328857D01*
X139248257Y-59257429D01*
D12*
X88980651Y-140492737D02*
X88980651Y-112552737D01*
X52912651Y-140492737D02*
X88980651Y-140492737D01*
X52912651Y-112552737D02*
X88980651Y-112552737D01*
X52912651Y-140492737D02*
X52912651Y-112552737D01*
X71553800Y-68760000D02*
X91663800Y-68760000D01*
X71553800Y-78230000D02*
X75063800Y-78230000D01*
X71553800Y-68760000D02*
X71553800Y-78230000D01*
X75063800Y-86040000D02*
X75063800Y-78230000D01*
X75063800Y-86040000D02*
X88143800Y-86040000D01*
X88143800Y-86040000D02*
X88143800Y-78230000D01*
X88143800Y-78230000D02*
X91663800Y-78230000D01*
X91663800Y-68760000D02*
X91663800Y-78230000D01*
X59156600Y-99060000D02*
X71094600Y-99060000D01*
X55346600Y-93726000D02*
X55346600Y-96266000D01*
X71094600Y-90932000D02*
X59156600Y-90932000D01*
X55346600Y-96266000D02*
X59156600Y-99060000D01*
X59156600Y-90932000D02*
X55346600Y-93726000D01*
X71094600Y-90932000D02*
X71094600Y-99060000D01*
D10*
X85732100Y-63058420D02*
X85732100Y-58808420D01*
X85232100Y-58308420D02*
X76940283Y-58308420D01*
X76926264Y-58314155D02*
X75488081Y-59727542D01*
X75482100Y-59741806D02*
X75482100Y-62125034D01*
X75488081Y-62139298D02*
X76926264Y-63552685D01*
X76940283Y-63558420D02*
X85232100Y-63558420D01*
X76926264Y-58314155D02*
G75*
G02X76940283Y-58308420I14019J-14265D01*
G01*
X75482100Y-59741807D02*
G75*
G02X75488081Y-59727542I20000J1D01*
G01*
X75488081Y-62139299D02*
G75*
G02X75482100Y-62125034I14019J14265D01*
G01*
X85732100Y-63058420D02*
G75*
G02X85232100Y-63558420I-500000J0D01*
G01*
X76082100Y-59985010D02*
X76082100Y-61881830D01*
X85132100Y-58908420D02*
X77177577Y-58908420D01*
X76082100Y-61881830D02*
X77177577Y-62958420D01*
X85132100Y-62958420D02*
X82278321Y-62958420D01*
X77185760Y-62958420D02*
X85112100Y-62958420D01*
X76082100Y-59985010D02*
X77177577Y-58908420D01*
X85132100Y-58908420D02*
X85132100Y-62958420D01*
X77607727Y-60067033D02*
G75*
G02X78107100Y-59933420I499373J-866387D01*
G01*
X78107100Y-61933420D02*
G75*
G02X77607100Y-61799445I0J1000000D01*
G01*
X83234100Y-61933420D02*
G75*
G02X83234100Y-59933420I0J1000000D01*
G01*
X83733473Y-61799807D02*
G75*
G02X83234100Y-61933420I-499373J866387D01*
G01*
X83234100Y-59933420D02*
G75*
G02X83734100Y-60067395I0J-1000000D01*
G01*
X78107100Y-59933420D02*
G75*
G02X78107100Y-61933420I0J-1000000D01*
G01*
X77607100Y-61799446D02*
G75*
G02X77607100Y-60067395I500000J866026D01*
G01*
X83734100Y-60067394D02*
G75*
G02X83734100Y-61799445I-500000J-866026D01*
G01*
X85232100Y-58308420D02*
G75*
G02X85732100Y-58808420I0J-500000D01*
G01*
X85732100Y-63058420D02*
G75*
G02X85232100Y-63558420I-500000J0D01*
G01*
X85732100Y-63058420D02*
G75*
G02X85232100Y-63558420I-500000J0D01*
G01*
X76940283Y-63558421D02*
G75*
G02X76926264Y-63552685I0J20001D01*
G01*
X75488081Y-62139299D02*
G75*
G02X75482100Y-62125034I14019J14265D01*
G01*
X75482100Y-59741807D02*
G75*
G02X75488081Y-59727542I20000J1D01*
G01*
X76926264Y-58314155D02*
G75*
G02X76940283Y-58308420I14019J-14265D01*
G01*
X83234100Y-61933420D02*
G75*
G02X83234100Y-59933420I0J1000000D01*
G01*
X83733473Y-61799807D02*
G75*
G02X83234100Y-61933420I-499373J866387D01*
G01*
X83234100Y-59933420D02*
G75*
G02X83734100Y-60067395I0J-1000000D01*
G01*
X78107100Y-59933420D02*
G75*
G02X78107100Y-61933420I0J-1000000D01*
G01*
X77607100Y-61799446D02*
G75*
G02X77607100Y-60067395I500000J866026D01*
G01*
X83734100Y-60067394D02*
G75*
G02X83734100Y-61799445I-500000J-866026D01*
G01*
X85232100Y-58308420D02*
G75*
G02X85732100Y-58808420I0J-500000D01*
G01*
X85732100Y-63058420D02*
G75*
G02X85232100Y-63558420I-500000J0D01*
G01*
X85732100Y-63058420D02*
G75*
G02X85232100Y-63558420I-500000J0D01*
G01*
X76940283Y-63558421D02*
G75*
G02X76926264Y-63552685I0J20001D01*
G01*
X75488081Y-62139299D02*
G75*
G02X75482100Y-62125034I14019J14265D01*
G01*
X75482100Y-59741807D02*
G75*
G02X75488081Y-59727542I20000J1D01*
G01*
X76926264Y-58314155D02*
G75*
G02X76940283Y-58308420I14019J-14265D01*
G01*
X85732100Y-63058420D02*
X85732100Y-58808420D01*
X85232100Y-58308420D02*
X76940283Y-58308420D01*
X76926264Y-58314155D02*
X75488081Y-59727542D01*
X75482100Y-59741806D02*
X75482100Y-62125034D01*
X75488081Y-62139298D02*
X76926264Y-63552685D01*
X76940283Y-63558420D02*
X85232100Y-63558420D01*
X76926264Y-58314155D02*
G75*
G02X76940283Y-58308420I14019J-14265D01*
G01*
X75482100Y-59741807D02*
G75*
G02X75488081Y-59727542I20000J1D01*
G01*
X75488081Y-62139299D02*
G75*
G02X75482100Y-62125034I14019J14265D01*
G01*
X85732100Y-63058420D02*
G75*
G02X85232100Y-63558420I-500000J0D01*
G01*
X76082100Y-59985010D02*
X76082100Y-61881830D01*
X85132100Y-58908420D02*
X77177577Y-58908420D01*
X76082100Y-61881830D02*
X77177577Y-62958420D01*
X85132100Y-62958420D02*
X82278321Y-62958420D01*
X77185760Y-62958420D02*
X85112100Y-62958420D01*
X76082100Y-59985010D02*
X77177577Y-58908420D01*
X85132100Y-58908420D02*
X85132100Y-62958420D01*
X77607727Y-60067033D02*
G75*
G02X78107100Y-59933420I499373J-866387D01*
G01*
X78107100Y-61933420D02*
G75*
G02X77607100Y-61799445I0J1000000D01*
G01*
X101226100Y-63033020D02*
X101226100Y-58783020D01*
X100726100Y-58283020D02*
X92434283Y-58283020D01*
X92420264Y-58288755D02*
X90982081Y-59702142D01*
X90976100Y-59716406D02*
X90976100Y-62099634D01*
X90982081Y-62113898D02*
X92420264Y-63527285D01*
X92434283Y-63533020D02*
X100726100Y-63533020D01*
X92420264Y-58288755D02*
G75*
G02X92434283Y-58283020I14019J-14265D01*
G01*
X90976100Y-59716407D02*
G75*
G02X90982081Y-59702142I20000J1D01*
G01*
X90982081Y-62113899D02*
G75*
G02X90976100Y-62099634I14019J14265D01*
G01*
X101226100Y-63033020D02*
G75*
G02X100726100Y-63533020I-500000J0D01*
G01*
X91576100Y-59959610D02*
X91576100Y-61856430D01*
X100626100Y-58883020D02*
X92671577Y-58883020D01*
X91576100Y-61856430D02*
X92671577Y-62933020D01*
X100626100Y-62933020D02*
X97772321Y-62933020D01*
X92679760Y-62933020D02*
X100606100Y-62933020D01*
X91576100Y-59959610D02*
X92671577Y-58883020D01*
X100626100Y-58883020D02*
X100626100Y-62933020D01*
X93101727Y-60041633D02*
G75*
G02X93601100Y-59908020I499373J-866387D01*
G01*
X93601100Y-61908020D02*
G75*
G02X93101100Y-61774045I0J1000000D01*
G01*
X98728100Y-61908020D02*
G75*
G02X98728100Y-59908020I0J1000000D01*
G01*
X99227473Y-61774407D02*
G75*
G02X98728100Y-61908020I-499373J866387D01*
G01*
X98728100Y-59908020D02*
G75*
G02X99228100Y-60041995I0J-1000000D01*
G01*
X93601100Y-59908020D02*
G75*
G02X93601100Y-61908020I0J-1000000D01*
G01*
X93101100Y-61774046D02*
G75*
G02X93101100Y-60041995I500000J866026D01*
G01*
X99228100Y-60041994D02*
G75*
G02X99228100Y-61774045I-500000J-866026D01*
G01*
X100726100Y-58283020D02*
G75*
G02X101226100Y-58783020I0J-500000D01*
G01*
X101226100Y-63033020D02*
G75*
G02X100726100Y-63533020I-500000J0D01*
G01*
X101226100Y-63033020D02*
G75*
G02X100726100Y-63533020I-500000J0D01*
G01*
X92434283Y-63533021D02*
G75*
G02X92420264Y-63527285I0J20001D01*
G01*
X90982081Y-62113899D02*
G75*
G02X90976100Y-62099634I14019J14265D01*
G01*
X90976100Y-59716407D02*
G75*
G02X90982081Y-59702142I20000J1D01*
G01*
X92420264Y-58288755D02*
G75*
G02X92434283Y-58283020I14019J-14265D01*
G01*
X98728100Y-61908020D02*
G75*
G02X98728100Y-59908020I0J1000000D01*
G01*
X99227473Y-61774407D02*
G75*
G02X98728100Y-61908020I-499373J866387D01*
G01*
X98728100Y-59908020D02*
G75*
G02X99228100Y-60041995I0J-1000000D01*
G01*
X93601100Y-59908020D02*
G75*
G02X93601100Y-61908020I0J-1000000D01*
G01*
X93101100Y-61774046D02*
G75*
G02X93101100Y-60041995I500000J866026D01*
G01*
X99228100Y-60041994D02*
G75*
G02X99228100Y-61774045I-500000J-866026D01*
G01*
X100726100Y-58283020D02*
G75*
G02X101226100Y-58783020I0J-500000D01*
G01*
X101226100Y-63033020D02*
G75*
G02X100726100Y-63533020I-500000J0D01*
G01*
X101226100Y-63033020D02*
G75*
G02X100726100Y-63533020I-500000J0D01*
G01*
X92434283Y-63533021D02*
G75*
G02X92420264Y-63527285I0J20001D01*
G01*
X90982081Y-62113899D02*
G75*
G02X90976100Y-62099634I14019J14265D01*
G01*
X90976100Y-59716407D02*
G75*
G02X90982081Y-59702142I20000J1D01*
G01*
X92420264Y-58288755D02*
G75*
G02X92434283Y-58283020I14019J-14265D01*
G01*
X101226100Y-63033020D02*
X101226100Y-58783020D01*
X100726100Y-58283020D02*
X92434283Y-58283020D01*
X92420264Y-58288755D02*
X90982081Y-59702142D01*
X90976100Y-59716406D02*
X90976100Y-62099634D01*
X90982081Y-62113898D02*
X92420264Y-63527285D01*
X92434283Y-63533020D02*
X100726100Y-63533020D01*
X92420264Y-58288755D02*
G75*
G02X92434283Y-58283020I14019J-14265D01*
G01*
X90976100Y-59716407D02*
G75*
G02X90982081Y-59702142I20000J1D01*
G01*
X90982081Y-62113899D02*
G75*
G02X90976100Y-62099634I14019J14265D01*
G01*
X101226100Y-63033020D02*
G75*
G02X100726100Y-63533020I-500000J0D01*
G01*
X91576100Y-59959610D02*
X91576100Y-61856430D01*
X100626100Y-58883020D02*
X92671577Y-58883020D01*
X91576100Y-61856430D02*
X92671577Y-62933020D01*
X100626100Y-62933020D02*
X97772321Y-62933020D01*
X92679760Y-62933020D02*
X100606100Y-62933020D01*
X91576100Y-59959610D02*
X92671577Y-58883020D01*
X100626100Y-58883020D02*
X100626100Y-62933020D01*
X93101727Y-60041633D02*
G75*
G02X93601100Y-59908020I499373J-866387D01*
G01*
X93601100Y-61908020D02*
G75*
G02X93101100Y-61774045I0J1000000D01*
G01*
D12*
X208506942Y-118614262D02*
X208506942Y-88134262D01*
X208506942Y-118614262D02*
X150086942Y-118614262D01*
X208506942Y-88134262D02*
X150086942Y-88134262D01*
X150086942Y-118614262D02*
X150086942Y-88134262D01*
D10*
X154388300Y-62779020D02*
X154388300Y-58529020D01*
X153888300Y-58029020D02*
X145596483Y-58029020D01*
X145582464Y-58034755D02*
X144144281Y-59448142D01*
X144138300Y-59462406D02*
X144138300Y-61845634D01*
X144144281Y-61859898D02*
X145582464Y-63273285D01*
X145596483Y-63279020D02*
X153888300Y-63279020D01*
X145582464Y-58034755D02*
G75*
G02X145596483Y-58029020I14019J-14265D01*
G01*
X144138300Y-59462407D02*
G75*
G02X144144281Y-59448142I20000J1D01*
G01*
X144144281Y-61859899D02*
G75*
G02X144138300Y-61845634I14019J14265D01*
G01*
X154388300Y-62779020D02*
G75*
G02X153888300Y-63279020I-500000J0D01*
G01*
X144738300Y-59705610D02*
X144738300Y-61602430D01*
X153788300Y-58629020D02*
X145833777Y-58629020D01*
X144738300Y-61602430D02*
X145833777Y-62679020D01*
X153788300Y-62679020D02*
X150934521Y-62679020D01*
X145841960Y-62679020D02*
X153768300Y-62679020D01*
X144738300Y-59705610D02*
X145833777Y-58629020D01*
X153788300Y-58629020D02*
X153788300Y-62679020D01*
X146263927Y-59787633D02*
G75*
G02X146763300Y-59654020I499373J-866387D01*
G01*
X146763300Y-61654020D02*
G75*
G02X146263300Y-61520045I0J1000000D01*
G01*
X151890300Y-61654020D02*
G75*
G02X151890300Y-59654020I0J1000000D01*
G01*
X152389673Y-61520407D02*
G75*
G02X151890300Y-61654020I-499373J866387D01*
G01*
X151890300Y-59654020D02*
G75*
G02X152390300Y-59787995I0J-1000000D01*
G01*
X146763300Y-59654020D02*
G75*
G02X146763300Y-61654020I0J-1000000D01*
G01*
X146263300Y-61520046D02*
G75*
G02X146263300Y-59787995I500000J866026D01*
G01*
X152390300Y-59787994D02*
G75*
G02X152390300Y-61520045I-500000J-866026D01*
G01*
X153888300Y-58029020D02*
G75*
G02X154388300Y-58529020I0J-500000D01*
G01*
X154388300Y-62779020D02*
G75*
G02X153888300Y-63279020I-500000J0D01*
G01*
X154388300Y-62779020D02*
G75*
G02X153888300Y-63279020I-500000J0D01*
G01*
X145596483Y-63279021D02*
G75*
G02X145582464Y-63273285I0J20001D01*
G01*
X144144281Y-61859899D02*
G75*
G02X144138300Y-61845634I14019J14265D01*
G01*
X144138300Y-59462407D02*
G75*
G02X144144281Y-59448142I20000J1D01*
G01*
X145582464Y-58034755D02*
G75*
G02X145596483Y-58029020I14019J-14265D01*
G01*
X151890300Y-61654020D02*
G75*
G02X151890300Y-59654020I0J1000000D01*
G01*
X152389673Y-61520407D02*
G75*
G02X151890300Y-61654020I-499373J866387D01*
G01*
X151890300Y-59654020D02*
G75*
G02X152390300Y-59787995I0J-1000000D01*
G01*
X146763300Y-59654020D02*
G75*
G02X146763300Y-61654020I0J-1000000D01*
G01*
X146263300Y-61520046D02*
G75*
G02X146263300Y-59787995I500000J866026D01*
G01*
X152390300Y-59787994D02*
G75*
G02X152390300Y-61520045I-500000J-866026D01*
G01*
X153888300Y-58029020D02*
G75*
G02X154388300Y-58529020I0J-500000D01*
G01*
X154388300Y-62779020D02*
G75*
G02X153888300Y-63279020I-500000J0D01*
G01*
X154388300Y-62779020D02*
G75*
G02X153888300Y-63279020I-500000J0D01*
G01*
X145596483Y-63279021D02*
G75*
G02X145582464Y-63273285I0J20001D01*
G01*
X144144281Y-61859899D02*
G75*
G02X144138300Y-61845634I14019J14265D01*
G01*
X144138300Y-59462407D02*
G75*
G02X144144281Y-59448142I20000J1D01*
G01*
X145582464Y-58034755D02*
G75*
G02X145596483Y-58029020I14019J-14265D01*
G01*
X154388300Y-62779020D02*
X154388300Y-58529020D01*
X153888300Y-58029020D02*
X145596483Y-58029020D01*
X145582464Y-58034755D02*
X144144281Y-59448142D01*
X144138300Y-59462406D02*
X144138300Y-61845634D01*
X144144281Y-61859898D02*
X145582464Y-63273285D01*
X145596483Y-63279020D02*
X153888300Y-63279020D01*
X145582464Y-58034755D02*
G75*
G02X145596483Y-58029020I14019J-14265D01*
G01*
X144138300Y-59462407D02*
G75*
G02X144144281Y-59448142I20000J1D01*
G01*
X144144281Y-61859899D02*
G75*
G02X144138300Y-61845634I14019J14265D01*
G01*
X154388300Y-62779020D02*
G75*
G02X153888300Y-63279020I-500000J0D01*
G01*
X144738300Y-59705610D02*
X144738300Y-61602430D01*
X153788300Y-58629020D02*
X145833777Y-58629020D01*
X144738300Y-61602430D02*
X145833777Y-62679020D01*
X153788300Y-62679020D02*
X150934521Y-62679020D01*
X145841960Y-62679020D02*
X153768300Y-62679020D01*
X144738300Y-59705610D02*
X145833777Y-58629020D01*
X153788300Y-58629020D02*
X153788300Y-62679020D01*
X146263927Y-59787633D02*
G75*
G02X146763300Y-59654020I499373J-866387D01*
G01*
X146763300Y-61654020D02*
G75*
G02X146263300Y-61520045I0J1000000D01*
G01*
D12*
X153149000Y-68745000D02*
X173259000Y-68745000D01*
X153149000Y-78215000D02*
X156659000Y-78215000D01*
X153149000Y-68745000D02*
X153149000Y-78215000D01*
X156659000Y-86025000D02*
X156659000Y-78215000D01*
X156659000Y-86025000D02*
X169739000Y-86025000D01*
X169739000Y-86025000D02*
X169739000Y-78215000D01*
X169739000Y-78215000D02*
X173259000Y-78215000D01*
X173259000Y-68745000D02*
X173259000Y-78215000D01*
D10*
X71381100Y-63058420D02*
X71381100Y-58808420D01*
X70881100Y-58308420D02*
X62589283Y-58308420D01*
X62575264Y-58314155D02*
X61137081Y-59727542D01*
X61131100Y-59741806D02*
X61131100Y-62125034D01*
X61137081Y-62139298D02*
X62575264Y-63552685D01*
X62589283Y-63558420D02*
X70881100Y-63558420D01*
X62575264Y-58314155D02*
G75*
G02X62589283Y-58308420I14019J-14265D01*
G01*
X61131100Y-59741807D02*
G75*
G02X61137081Y-59727542I20000J1D01*
G01*
X61137081Y-62139299D02*
G75*
G02X61131100Y-62125034I14019J14265D01*
G01*
X71381100Y-63058420D02*
G75*
G02X70881100Y-63558420I-500000J0D01*
G01*
X61731100Y-59985010D02*
X61731100Y-61881830D01*
X70781100Y-58908420D02*
X62826577Y-58908420D01*
X61731100Y-61881830D02*
X62826577Y-62958420D01*
X70781100Y-62958420D02*
X67927321Y-62958420D01*
X62834760Y-62958420D02*
X70761100Y-62958420D01*
X61731100Y-59985010D02*
X62826577Y-58908420D01*
X70781100Y-58908420D02*
X70781100Y-62958420D01*
X63256727Y-60067033D02*
G75*
G02X63756100Y-59933420I499373J-866387D01*
G01*
X63756100Y-61933420D02*
G75*
G02X63256100Y-61799445I0J1000000D01*
G01*
X68883100Y-61933420D02*
G75*
G02X68883100Y-59933420I0J1000000D01*
G01*
X69382473Y-61799807D02*
G75*
G02X68883100Y-61933420I-499373J866387D01*
G01*
X68883100Y-59933420D02*
G75*
G02X69383100Y-60067395I0J-1000000D01*
G01*
X63756100Y-59933420D02*
G75*
G02X63756100Y-61933420I0J-1000000D01*
G01*
X63256100Y-61799446D02*
G75*
G02X63256100Y-60067395I500000J866026D01*
G01*
X69383100Y-60067394D02*
G75*
G02X69383100Y-61799445I-500000J-866026D01*
G01*
X70881100Y-58308420D02*
G75*
G02X71381100Y-58808420I0J-500000D01*
G01*
X71381100Y-63058420D02*
G75*
G02X70881100Y-63558420I-500000J0D01*
G01*
X71381100Y-63058420D02*
G75*
G02X70881100Y-63558420I-500000J0D01*
G01*
X62589283Y-63558421D02*
G75*
G02X62575264Y-63552685I0J20001D01*
G01*
X61137081Y-62139299D02*
G75*
G02X61131100Y-62125034I14019J14265D01*
G01*
X61131100Y-59741807D02*
G75*
G02X61137081Y-59727542I20000J1D01*
G01*
X62575264Y-58314155D02*
G75*
G02X62589283Y-58308420I14019J-14265D01*
G01*
X68883100Y-61933420D02*
G75*
G02X68883100Y-59933420I0J1000000D01*
G01*
X69382473Y-61799807D02*
G75*
G02X68883100Y-61933420I-499373J866387D01*
G01*
X68883100Y-59933420D02*
G75*
G02X69383100Y-60067395I0J-1000000D01*
G01*
X63756100Y-59933420D02*
G75*
G02X63756100Y-61933420I0J-1000000D01*
G01*
X63256100Y-61799446D02*
G75*
G02X63256100Y-60067395I500000J866026D01*
G01*
X69383100Y-60067394D02*
G75*
G02X69383100Y-61799445I-500000J-866026D01*
G01*
X70881100Y-58308420D02*
G75*
G02X71381100Y-58808420I0J-500000D01*
G01*
X71381100Y-63058420D02*
G75*
G02X70881100Y-63558420I-500000J0D01*
G01*
X71381100Y-63058420D02*
G75*
G02X70881100Y-63558420I-500000J0D01*
G01*
X62589283Y-63558421D02*
G75*
G02X62575264Y-63552685I0J20001D01*
G01*
X61137081Y-62139299D02*
G75*
G02X61131100Y-62125034I14019J14265D01*
G01*
X61131100Y-59741807D02*
G75*
G02X61137081Y-59727542I20000J1D01*
G01*
X62575264Y-58314155D02*
G75*
G02X62589283Y-58308420I14019J-14265D01*
G01*
X71381100Y-63058420D02*
X71381100Y-58808420D01*
X70881100Y-58308420D02*
X62589283Y-58308420D01*
X62575264Y-58314155D02*
X61137081Y-59727542D01*
X61131100Y-59741806D02*
X61131100Y-62125034D01*
X61137081Y-62139298D02*
X62575264Y-63552685D01*
X62589283Y-63558420D02*
X70881100Y-63558420D01*
X62575264Y-58314155D02*
G75*
G02X62589283Y-58308420I14019J-14265D01*
G01*
X61131100Y-59741807D02*
G75*
G02X61137081Y-59727542I20000J1D01*
G01*
X61137081Y-62139299D02*
G75*
G02X61131100Y-62125034I14019J14265D01*
G01*
X71381100Y-63058420D02*
G75*
G02X70881100Y-63558420I-500000J0D01*
G01*
X61731100Y-59985010D02*
X61731100Y-61881830D01*
X70781100Y-58908420D02*
X62826577Y-58908420D01*
X61731100Y-61881830D02*
X62826577Y-62958420D01*
X70781100Y-62958420D02*
X67927321Y-62958420D01*
X62834760Y-62958420D02*
X70761100Y-62958420D01*
X61731100Y-59985010D02*
X62826577Y-58908420D01*
X70781100Y-58908420D02*
X70781100Y-62958420D01*
X63256727Y-60067033D02*
G75*
G02X63756100Y-59933420I499373J-866387D01*
G01*
X63756100Y-61933420D02*
G75*
G02X63256100Y-61799445I0J1000000D01*
G01*
X171634900Y-62525020D02*
X171634900Y-58275020D01*
X171134900Y-57775020D02*
X162843083Y-57775020D01*
X162829064Y-57780755D02*
X161390881Y-59194142D01*
X161384900Y-59208406D02*
X161384900Y-61591634D01*
X161390881Y-61605898D02*
X162829064Y-63019285D01*
X162843083Y-63025020D02*
X171134900Y-63025020D01*
X162829064Y-57780755D02*
G75*
G02X162843083Y-57775020I14019J-14265D01*
G01*
X161384900Y-59208407D02*
G75*
G02X161390881Y-59194142I20000J1D01*
G01*
X161390881Y-61605899D02*
G75*
G02X161384900Y-61591634I14019J14265D01*
G01*
X171634900Y-62525020D02*
G75*
G02X171134900Y-63025020I-500000J0D01*
G01*
X161984900Y-59451610D02*
X161984900Y-61348430D01*
X171034900Y-58375020D02*
X163080377Y-58375020D01*
X161984900Y-61348430D02*
X163080377Y-62425020D01*
X171034900Y-62425020D02*
X168181121Y-62425020D01*
X163088560Y-62425020D02*
X171014900Y-62425020D01*
X161984900Y-59451610D02*
X163080377Y-58375020D01*
X171034900Y-58375020D02*
X171034900Y-62425020D01*
X163510527Y-59533633D02*
G75*
G02X164009900Y-59400020I499373J-866387D01*
G01*
X164009900Y-61400020D02*
G75*
G02X163509900Y-61266045I0J1000000D01*
G01*
X169136900Y-61400020D02*
G75*
G02X169136900Y-59400020I0J1000000D01*
G01*
X169636273Y-61266407D02*
G75*
G02X169136900Y-61400020I-499373J866387D01*
G01*
X169136900Y-59400020D02*
G75*
G02X169636900Y-59533995I0J-1000000D01*
G01*
X164009900Y-59400020D02*
G75*
G02X164009900Y-61400020I0J-1000000D01*
G01*
X163509900Y-61266046D02*
G75*
G02X163509900Y-59533995I500000J866026D01*
G01*
X169636900Y-59533994D02*
G75*
G02X169636900Y-61266045I-500000J-866026D01*
G01*
X171134900Y-57775020D02*
G75*
G02X171634900Y-58275020I0J-500000D01*
G01*
X171634900Y-62525020D02*
G75*
G02X171134900Y-63025020I-500000J0D01*
G01*
X171634900Y-62525020D02*
G75*
G02X171134900Y-63025020I-500000J0D01*
G01*
X162843083Y-63025021D02*
G75*
G02X162829064Y-63019285I0J20001D01*
G01*
X161390881Y-61605899D02*
G75*
G02X161384900Y-61591634I14019J14265D01*
G01*
X161384900Y-59208407D02*
G75*
G02X161390881Y-59194142I20000J1D01*
G01*
X162829064Y-57780755D02*
G75*
G02X162843083Y-57775020I14019J-14265D01*
G01*
X169136900Y-61400020D02*
G75*
G02X169136900Y-59400020I0J1000000D01*
G01*
X169636273Y-61266407D02*
G75*
G02X169136900Y-61400020I-499373J866387D01*
G01*
X169136900Y-59400020D02*
G75*
G02X169636900Y-59533995I0J-1000000D01*
G01*
X164009900Y-59400020D02*
G75*
G02X164009900Y-61400020I0J-1000000D01*
G01*
X163509900Y-61266046D02*
G75*
G02X163509900Y-59533995I500000J866026D01*
G01*
X169636900Y-59533994D02*
G75*
G02X169636900Y-61266045I-500000J-866026D01*
G01*
X171134900Y-57775020D02*
G75*
G02X171634900Y-58275020I0J-500000D01*
G01*
X171634900Y-62525020D02*
G75*
G02X171134900Y-63025020I-500000J0D01*
G01*
X171634900Y-62525020D02*
G75*
G02X171134900Y-63025020I-500000J0D01*
G01*
X162843083Y-63025021D02*
G75*
G02X162829064Y-63019285I0J20001D01*
G01*
X161390881Y-61605899D02*
G75*
G02X161384900Y-61591634I14019J14265D01*
G01*
X161384900Y-59208407D02*
G75*
G02X161390881Y-59194142I20000J1D01*
G01*
X162829064Y-57780755D02*
G75*
G02X162843083Y-57775020I14019J-14265D01*
G01*
X171634900Y-62525020D02*
X171634900Y-58275020D01*
X171134900Y-57775020D02*
X162843083Y-57775020D01*
X162829064Y-57780755D02*
X161390881Y-59194142D01*
X161384900Y-59208406D02*
X161384900Y-61591634D01*
X161390881Y-61605898D02*
X162829064Y-63019285D01*
X162843083Y-63025020D02*
X171134900Y-63025020D01*
X162829064Y-57780755D02*
G75*
G02X162843083Y-57775020I14019J-14265D01*
G01*
X161384900Y-59208407D02*
G75*
G02X161390881Y-59194142I20000J1D01*
G01*
X161390881Y-61605899D02*
G75*
G02X161384900Y-61591634I14019J14265D01*
G01*
X171634900Y-62525020D02*
G75*
G02X171134900Y-63025020I-500000J0D01*
G01*
X161984900Y-59451610D02*
X161984900Y-61348430D01*
X171034900Y-58375020D02*
X163080377Y-58375020D01*
X161984900Y-61348430D02*
X163080377Y-62425020D01*
X171034900Y-62425020D02*
X168181121Y-62425020D01*
X163088560Y-62425020D02*
X171014900Y-62425020D01*
X161984900Y-59451610D02*
X163080377Y-58375020D01*
X171034900Y-58375020D02*
X171034900Y-62425020D01*
X163510527Y-59533633D02*
G75*
G02X164009900Y-59400020I499373J-866387D01*
G01*
X164009900Y-61400020D02*
G75*
G02X163509900Y-61266045I0J1000000D01*
G01*
X188170300Y-62296420D02*
X188170300Y-58046420D01*
X187670300Y-57546420D02*
X179378483Y-57546420D01*
X179364464Y-57552155D02*
X177926281Y-58965542D01*
X177920300Y-58979806D02*
X177920300Y-61363034D01*
X177926281Y-61377298D02*
X179364464Y-62790685D01*
X179378483Y-62796420D02*
X187670300Y-62796420D01*
X179364464Y-57552155D02*
G75*
G02X179378483Y-57546420I14019J-14265D01*
G01*
X177920300Y-58979807D02*
G75*
G02X177926281Y-58965542I20000J1D01*
G01*
X177926281Y-61377299D02*
G75*
G02X177920300Y-61363034I14019J14265D01*
G01*
X188170300Y-62296420D02*
G75*
G02X187670300Y-62796420I-500000J0D01*
G01*
X178520300Y-59223010D02*
X178520300Y-61119830D01*
X187570300Y-58146420D02*
X179615777Y-58146420D01*
X178520300Y-61119830D02*
X179615777Y-62196420D01*
X187570300Y-62196420D02*
X184716521Y-62196420D01*
X179623960Y-62196420D02*
X187550300Y-62196420D01*
X178520300Y-59223010D02*
X179615777Y-58146420D01*
X187570300Y-58146420D02*
X187570300Y-62196420D01*
X180045927Y-59305033D02*
G75*
G02X180545300Y-59171420I499373J-866387D01*
G01*
X180545300Y-61171420D02*
G75*
G02X180045300Y-61037445I0J1000000D01*
G01*
X185672300Y-61171420D02*
G75*
G02X185672300Y-59171420I0J1000000D01*
G01*
X186171673Y-61037807D02*
G75*
G02X185672300Y-61171420I-499373J866387D01*
G01*
X185672300Y-59171420D02*
G75*
G02X186172300Y-59305395I0J-1000000D01*
G01*
X180545300Y-59171420D02*
G75*
G02X180545300Y-61171420I0J-1000000D01*
G01*
X180045300Y-61037446D02*
G75*
G02X180045300Y-59305395I500000J866026D01*
G01*
X186172300Y-59305394D02*
G75*
G02X186172300Y-61037445I-500000J-866026D01*
G01*
X187670300Y-57546420D02*
G75*
G02X188170300Y-58046420I0J-500000D01*
G01*
X188170300Y-62296420D02*
G75*
G02X187670300Y-62796420I-500000J0D01*
G01*
X188170300Y-62296420D02*
G75*
G02X187670300Y-62796420I-500000J0D01*
G01*
X179378483Y-62796421D02*
G75*
G02X179364464Y-62790685I0J20001D01*
G01*
X177926281Y-61377299D02*
G75*
G02X177920300Y-61363034I14019J14265D01*
G01*
X177920300Y-58979807D02*
G75*
G02X177926281Y-58965542I20000J1D01*
G01*
X179364464Y-57552155D02*
G75*
G02X179378483Y-57546420I14019J-14265D01*
G01*
X185672300Y-61171420D02*
G75*
G02X185672300Y-59171420I0J1000000D01*
G01*
X186171673Y-61037807D02*
G75*
G02X185672300Y-61171420I-499373J866387D01*
G01*
X185672300Y-59171420D02*
G75*
G02X186172300Y-59305395I0J-1000000D01*
G01*
X180545300Y-59171420D02*
G75*
G02X180545300Y-61171420I0J-1000000D01*
G01*
X180045300Y-61037446D02*
G75*
G02X180045300Y-59305395I500000J866026D01*
G01*
X186172300Y-59305394D02*
G75*
G02X186172300Y-61037445I-500000J-866026D01*
G01*
X187670300Y-57546420D02*
G75*
G02X188170300Y-58046420I0J-500000D01*
G01*
X188170300Y-62296420D02*
G75*
G02X187670300Y-62796420I-500000J0D01*
G01*
X188170300Y-62296420D02*
G75*
G02X187670300Y-62796420I-500000J0D01*
G01*
X179378483Y-62796421D02*
G75*
G02X179364464Y-62790685I0J20001D01*
G01*
X177926281Y-61377299D02*
G75*
G02X177920300Y-61363034I14019J14265D01*
G01*
X177920300Y-58979807D02*
G75*
G02X177926281Y-58965542I20000J1D01*
G01*
X179364464Y-57552155D02*
G75*
G02X179378483Y-57546420I14019J-14265D01*
G01*
X188170300Y-62296420D02*
X188170300Y-58046420D01*
X187670300Y-57546420D02*
X179378483Y-57546420D01*
X179364464Y-57552155D02*
X177926281Y-58965542D01*
X177920300Y-58979806D02*
X177920300Y-61363034D01*
X177926281Y-61377298D02*
X179364464Y-62790685D01*
X179378483Y-62796420D02*
X187670300Y-62796420D01*
X179364464Y-57552155D02*
G75*
G02X179378483Y-57546420I14019J-14265D01*
G01*
X177920300Y-58979807D02*
G75*
G02X177926281Y-58965542I20000J1D01*
G01*
X177926281Y-61377299D02*
G75*
G02X177920300Y-61363034I14019J14265D01*
G01*
X188170300Y-62296420D02*
G75*
G02X187670300Y-62796420I-500000J0D01*
G01*
X178520300Y-59223010D02*
X178520300Y-61119830D01*
X187570300Y-58146420D02*
X179615777Y-58146420D01*
X178520300Y-61119830D02*
X179615777Y-62196420D01*
X187570300Y-62196420D02*
X184716521Y-62196420D01*
X179623960Y-62196420D02*
X187550300Y-62196420D01*
X178520300Y-59223010D02*
X179615777Y-58146420D01*
X187570300Y-58146420D02*
X187570300Y-62196420D01*
X180045927Y-59305033D02*
G75*
G02X180545300Y-59171420I499373J-866387D01*
G01*
X180545300Y-61171420D02*
G75*
G02X180045300Y-61037445I0J1000000D01*
G01*
X117990100Y-63033020D02*
X117990100Y-58783020D01*
X117490100Y-58283020D02*
X109198283Y-58283020D01*
X109184264Y-58288755D02*
X107746081Y-59702142D01*
X107740100Y-59716406D02*
X107740100Y-62099634D01*
X107746081Y-62113898D02*
X109184264Y-63527285D01*
X109198283Y-63533020D02*
X117490100Y-63533020D01*
X109184264Y-58288755D02*
G75*
G02X109198283Y-58283020I14019J-14265D01*
G01*
X107740100Y-59716407D02*
G75*
G02X107746081Y-59702142I20000J1D01*
G01*
X107746081Y-62113899D02*
G75*
G02X107740100Y-62099634I14019J14265D01*
G01*
X117990100Y-63033020D02*
G75*
G02X117490100Y-63533020I-500000J0D01*
G01*
X108340100Y-59959610D02*
X108340100Y-61856430D01*
X117390100Y-58883020D02*
X109435577Y-58883020D01*
X108340100Y-61856430D02*
X109435577Y-62933020D01*
X117390100Y-62933020D02*
X114536321Y-62933020D01*
X109443760Y-62933020D02*
X117370100Y-62933020D01*
X108340100Y-59959610D02*
X109435577Y-58883020D01*
X117390100Y-58883020D02*
X117390100Y-62933020D01*
X109865727Y-60041633D02*
G75*
G02X110365100Y-59908020I499373J-866387D01*
G01*
X110365100Y-61908020D02*
G75*
G02X109865100Y-61774045I0J1000000D01*
G01*
X115492100Y-61908020D02*
G75*
G02X115492100Y-59908020I0J1000000D01*
G01*
X115991473Y-61774407D02*
G75*
G02X115492100Y-61908020I-499373J866387D01*
G01*
X115492100Y-59908020D02*
G75*
G02X115992100Y-60041995I0J-1000000D01*
G01*
X110365100Y-59908020D02*
G75*
G02X110365100Y-61908020I0J-1000000D01*
G01*
X109865100Y-61774046D02*
G75*
G02X109865100Y-60041995I500000J866026D01*
G01*
X115992100Y-60041994D02*
G75*
G02X115992100Y-61774045I-500000J-866026D01*
G01*
X117490100Y-58283020D02*
G75*
G02X117990100Y-58783020I0J-500000D01*
G01*
X117990100Y-63033020D02*
G75*
G02X117490100Y-63533020I-500000J0D01*
G01*
X117990100Y-63033020D02*
G75*
G02X117490100Y-63533020I-500000J0D01*
G01*
X109198283Y-63533021D02*
G75*
G02X109184264Y-63527285I0J20001D01*
G01*
X107746081Y-62113899D02*
G75*
G02X107740100Y-62099634I14019J14265D01*
G01*
X107740100Y-59716407D02*
G75*
G02X107746081Y-59702142I20000J1D01*
G01*
X109184264Y-58288755D02*
G75*
G02X109198283Y-58283020I14019J-14265D01*
G01*
X115492100Y-61908020D02*
G75*
G02X115492100Y-59908020I0J1000000D01*
G01*
X115991473Y-61774407D02*
G75*
G02X115492100Y-61908020I-499373J866387D01*
G01*
X115492100Y-59908020D02*
G75*
G02X115992100Y-60041995I0J-1000000D01*
G01*
X110365100Y-59908020D02*
G75*
G02X110365100Y-61908020I0J-1000000D01*
G01*
X109865100Y-61774046D02*
G75*
G02X109865100Y-60041995I500000J866026D01*
G01*
X115992100Y-60041994D02*
G75*
G02X115992100Y-61774045I-500000J-866026D01*
G01*
X117490100Y-58283020D02*
G75*
G02X117990100Y-58783020I0J-500000D01*
G01*
X117990100Y-63033020D02*
G75*
G02X117490100Y-63533020I-500000J0D01*
G01*
X117990100Y-63033020D02*
G75*
G02X117490100Y-63533020I-500000J0D01*
G01*
X109198283Y-63533021D02*
G75*
G02X109184264Y-63527285I0J20001D01*
G01*
X107746081Y-62113899D02*
G75*
G02X107740100Y-62099634I14019J14265D01*
G01*
X107740100Y-59716407D02*
G75*
G02X107746081Y-59702142I20000J1D01*
G01*
X109184264Y-58288755D02*
G75*
G02X109198283Y-58283020I14019J-14265D01*
G01*
X117990100Y-63033020D02*
X117990100Y-58783020D01*
X117490100Y-58283020D02*
X109198283Y-58283020D01*
X109184264Y-58288755D02*
X107746081Y-59702142D01*
X107740100Y-59716406D02*
X107740100Y-62099634D01*
X107746081Y-62113898D02*
X109184264Y-63527285D01*
X109198283Y-63533020D02*
X117490100Y-63533020D01*
X109184264Y-58288755D02*
G75*
G02X109198283Y-58283020I14019J-14265D01*
G01*
X107740100Y-59716407D02*
G75*
G02X107746081Y-59702142I20000J1D01*
G01*
X107746081Y-62113899D02*
G75*
G02X107740100Y-62099634I14019J14265D01*
G01*
X117990100Y-63033020D02*
G75*
G02X117490100Y-63533020I-500000J0D01*
G01*
X108340100Y-59959610D02*
X108340100Y-61856430D01*
X117390100Y-58883020D02*
X109435577Y-58883020D01*
X108340100Y-61856430D02*
X109435577Y-62933020D01*
X117390100Y-62933020D02*
X114536321Y-62933020D01*
X109443760Y-62933020D02*
X117370100Y-62933020D01*
X108340100Y-59959610D02*
X109435577Y-58883020D01*
X117390100Y-58883020D02*
X117390100Y-62933020D01*
X109865727Y-60041633D02*
G75*
G02X110365100Y-59908020I499373J-866387D01*
G01*
X110365100Y-61908020D02*
G75*
G02X109865100Y-61774045I0J1000000D01*
G01*
X204172300Y-62245620D02*
X204172300Y-57995620D01*
X203672300Y-57495620D02*
X195380483Y-57495620D01*
X195366464Y-57501355D02*
X193928281Y-58914742D01*
X193922300Y-58929006D02*
X193922300Y-61312234D01*
X193928281Y-61326498D02*
X195366464Y-62739885D01*
X195380483Y-62745620D02*
X203672300Y-62745620D01*
X195366464Y-57501355D02*
G75*
G02X195380483Y-57495620I14019J-14265D01*
G01*
X193922300Y-58929007D02*
G75*
G02X193928281Y-58914742I20000J1D01*
G01*
X193928281Y-61326499D02*
G75*
G02X193922300Y-61312234I14019J14265D01*
G01*
X204172300Y-62245620D02*
G75*
G02X203672300Y-62745620I-500000J0D01*
G01*
X194522300Y-59172210D02*
X194522300Y-61069030D01*
X203572300Y-58095620D02*
X195617777Y-58095620D01*
X194522300Y-61069030D02*
X195617777Y-62145620D01*
X203572300Y-62145620D02*
X200718521Y-62145620D01*
X195625960Y-62145620D02*
X203552300Y-62145620D01*
X194522300Y-59172210D02*
X195617777Y-58095620D01*
X203572300Y-58095620D02*
X203572300Y-62145620D01*
X196047927Y-59254233D02*
G75*
G02X196547300Y-59120620I499373J-866387D01*
G01*
X196547300Y-61120620D02*
G75*
G02X196047300Y-60986645I0J1000000D01*
G01*
X201674300Y-61120620D02*
G75*
G02X201674300Y-59120620I0J1000000D01*
G01*
X202173673Y-60987007D02*
G75*
G02X201674300Y-61120620I-499373J866387D01*
G01*
X201674300Y-59120620D02*
G75*
G02X202174300Y-59254595I0J-1000000D01*
G01*
X196547300Y-59120620D02*
G75*
G02X196547300Y-61120620I0J-1000000D01*
G01*
X196047300Y-60986646D02*
G75*
G02X196047300Y-59254595I500000J866026D01*
G01*
X202174300Y-59254594D02*
G75*
G02X202174300Y-60986645I-500000J-866026D01*
G01*
X203672300Y-57495620D02*
G75*
G02X204172300Y-57995620I0J-500000D01*
G01*
X204172300Y-62245620D02*
G75*
G02X203672300Y-62745620I-500000J0D01*
G01*
X204172300Y-62245620D02*
G75*
G02X203672300Y-62745620I-500000J0D01*
G01*
X195380483Y-62745621D02*
G75*
G02X195366464Y-62739885I0J20001D01*
G01*
X193928281Y-61326499D02*
G75*
G02X193922300Y-61312234I14019J14265D01*
G01*
X193922300Y-58929007D02*
G75*
G02X193928281Y-58914742I20000J1D01*
G01*
X195366464Y-57501355D02*
G75*
G02X195380483Y-57495620I14019J-14265D01*
G01*
X201674300Y-61120620D02*
G75*
G02X201674300Y-59120620I0J1000000D01*
G01*
X202173673Y-60987007D02*
G75*
G02X201674300Y-61120620I-499373J866387D01*
G01*
X201674300Y-59120620D02*
G75*
G02X202174300Y-59254595I0J-1000000D01*
G01*
X196547300Y-59120620D02*
G75*
G02X196547300Y-61120620I0J-1000000D01*
G01*
X196047300Y-60986646D02*
G75*
G02X196047300Y-59254595I500000J866026D01*
G01*
X202174300Y-59254594D02*
G75*
G02X202174300Y-60986645I-500000J-866026D01*
G01*
X203672300Y-57495620D02*
G75*
G02X204172300Y-57995620I0J-500000D01*
G01*
X204172300Y-62245620D02*
G75*
G02X203672300Y-62745620I-500000J0D01*
G01*
X204172300Y-62245620D02*
G75*
G02X203672300Y-62745620I-500000J0D01*
G01*
X195380483Y-62745621D02*
G75*
G02X195366464Y-62739885I0J20001D01*
G01*
X193928281Y-61326499D02*
G75*
G02X193922300Y-61312234I14019J14265D01*
G01*
X193922300Y-58929007D02*
G75*
G02X193928281Y-58914742I20000J1D01*
G01*
X195366464Y-57501355D02*
G75*
G02X195380483Y-57495620I14019J-14265D01*
G01*
X204172300Y-62245620D02*
X204172300Y-57995620D01*
X203672300Y-57495620D02*
X195380483Y-57495620D01*
X195366464Y-57501355D02*
X193928281Y-58914742D01*
X193922300Y-58929006D02*
X193922300Y-61312234D01*
X193928281Y-61326498D02*
X195366464Y-62739885D01*
X195380483Y-62745620D02*
X203672300Y-62745620D01*
X195366464Y-57501355D02*
G75*
G02X195380483Y-57495620I14019J-14265D01*
G01*
X193922300Y-58929007D02*
G75*
G02X193928281Y-58914742I20000J1D01*
G01*
X193928281Y-61326499D02*
G75*
G02X193922300Y-61312234I14019J14265D01*
G01*
X204172300Y-62245620D02*
G75*
G02X203672300Y-62745620I-500000J0D01*
G01*
X194522300Y-59172210D02*
X194522300Y-61069030D01*
X203572300Y-58095620D02*
X195617777Y-58095620D01*
X194522300Y-61069030D02*
X195617777Y-62145620D01*
X203572300Y-62145620D02*
X200718521Y-62145620D01*
X195625960Y-62145620D02*
X203552300Y-62145620D01*
X194522300Y-59172210D02*
X195617777Y-58095620D01*
X203572300Y-58095620D02*
X203572300Y-62145620D01*
X196047927Y-59254233D02*
G75*
G02X196547300Y-59120620I499373J-866387D01*
G01*
X196547300Y-61120620D02*
G75*
G02X196047300Y-60986645I0J1000000D01*
G01*
D12*
X59156600Y-108458000D02*
X71094600Y-108458000D01*
X55346600Y-103124000D02*
X55346600Y-105664000D01*
X71094600Y-100330000D02*
X59156600Y-100330000D01*
X55346600Y-105664000D02*
X59156600Y-108458000D01*
X59156600Y-100330000D02*
X55346600Y-103124000D01*
X71094600Y-100330000D02*
X71094600Y-108458000D01*
X148297641Y-118617775D02*
X148297641Y-88137775D01*
X148297641Y-118617775D02*
X89877641Y-118617775D01*
X148297641Y-88137775D02*
X89877641Y-88137775D01*
X89877641Y-118617775D02*
X89877641Y-88137775D01*
X89876157Y-119001065D02*
X89876157Y-149481065D01*
X89876157Y-119001065D02*
X148296157Y-119001065D01*
X89876157Y-149481065D02*
X148296157Y-149481065D01*
X148296157Y-119001065D02*
X148296157Y-149481065D01*
X150164800Y-119075200D02*
X150164800Y-149555200D01*
X150164800Y-119075200D02*
X208584800Y-119075200D01*
X150164800Y-149555200D02*
X208584800Y-149555200D01*
X208584800Y-119075200D02*
X208584800Y-149555200D01*
X112271200Y-68765200D02*
X132381200Y-68765200D01*
X112271200Y-78235200D02*
X115781200Y-78235200D01*
X112271200Y-68765200D02*
X112271200Y-78235200D01*
X115781200Y-86045200D02*
X115781200Y-78235200D01*
X115781200Y-86045200D02*
X128861200Y-86045200D01*
X128861200Y-86045200D02*
X128861200Y-78235200D01*
X128861200Y-78235200D02*
X132381200Y-78235200D01*
X132381200Y-68765200D02*
X132381200Y-78235200D01*
X193906800Y-68714400D02*
X214016800Y-68714400D01*
X193906800Y-78184400D02*
X197416800Y-78184400D01*
X193906800Y-68714400D02*
X193906800Y-78184400D01*
X197416800Y-85994400D02*
X197416800Y-78184400D01*
X197416800Y-85994400D02*
X210496800Y-85994400D01*
X210496800Y-85994400D02*
X210496800Y-78184400D01*
X210496800Y-78184400D02*
X214016800Y-78184400D01*
X214016800Y-68714400D02*
X214016800Y-78184400D01*
X87322356Y-116103652D02*
X88131880Y-116103652D01*
X88227118Y-116056033D01*
X88274737Y-116008414D01*
X88322356Y-115913176D01*
X88322356Y-115722699D01*
X88274737Y-115627461D01*
X88227118Y-115579842D01*
X88131880Y-115532223D01*
X87322356Y-115532223D01*
X88322356Y-114532223D02*
X88322356Y-115103652D01*
X88322356Y-114817938D02*
X87322356Y-114817938D01*
X87465213Y-114913176D01*
X87560451Y-115008414D01*
X87608070Y-115103652D01*
X80309705Y-69373381D02*
X80309705Y-70182905D01*
X80357324Y-70278143D01*
X80404943Y-70325762D01*
X80500181Y-70373381D01*
X80690658Y-70373381D01*
X80785896Y-70325762D01*
X80833515Y-70278143D01*
X80881134Y-70182905D01*
X80881134Y-69373381D01*
X81881134Y-70373381D02*
X81309705Y-70373381D01*
X81595419Y-70373381D02*
X81595419Y-69373381D01*
X81500181Y-69516238D01*
X81404943Y-69611476D01*
X81309705Y-69659095D01*
X82833515Y-70373381D02*
X82262086Y-70373381D01*
X82547800Y-70373381D02*
X82547800Y-69373381D01*
X82452562Y-69516238D01*
X82357324Y-69611476D01*
X82262086Y-69659095D01*
X52093905Y-95448381D02*
X52093905Y-94448381D01*
X52474858Y-94448381D01*
X52570096Y-94496000D01*
X52617715Y-94543619D01*
X52665334Y-94638857D01*
X52665334Y-94781714D01*
X52617715Y-94876952D01*
X52570096Y-94924571D01*
X52474858Y-94972190D01*
X52093905Y-94972190D01*
X53141524Y-95448381D02*
X53332000Y-95448381D01*
X53427239Y-95400762D01*
X53474858Y-95353143D01*
X53570096Y-95210286D01*
X53617715Y-95019810D01*
X53617715Y-94638857D01*
X53570096Y-94543619D01*
X53522477Y-94496000D01*
X53427239Y-94448381D01*
X53236762Y-94448381D01*
X53141524Y-94496000D01*
X53093905Y-94543619D01*
X53046286Y-94638857D01*
X53046286Y-94876952D01*
X53093905Y-94972190D01*
X53141524Y-95019810D01*
X53236762Y-95067429D01*
X53427239Y-95067429D01*
X53522477Y-95019810D01*
X53570096Y-94972190D01*
X53617715Y-94876952D01*
X51165333Y-92924381D02*
X51832000Y-93924381D01*
X51832000Y-92924381D02*
X51165333Y-93924381D01*
X52070095Y-92924381D02*
X52641524Y-92924381D01*
X52355809Y-93924381D02*
X52355809Y-92924381D01*
X53403429Y-92924381D02*
X53212952Y-92924381D01*
X53117714Y-92972000D01*
X53070095Y-93019619D01*
X52974857Y-93162476D01*
X52927238Y-93352952D01*
X52927238Y-93733905D01*
X52974857Y-93829143D01*
X53022476Y-93876762D01*
X53117714Y-93924381D01*
X53308191Y-93924381D01*
X53403429Y-93876762D01*
X53451048Y-93829143D01*
X53498667Y-93733905D01*
X53498667Y-93495810D01*
X53451048Y-93400571D01*
X53403429Y-93352952D01*
X53308191Y-93305333D01*
X53117714Y-93305333D01*
X53022476Y-93352952D01*
X52974857Y-93400571D01*
X52927238Y-93495810D01*
X54117714Y-92924381D02*
X54212953Y-92924381D01*
X54308191Y-92972000D01*
X54355810Y-93019619D01*
X54403429Y-93114857D01*
X54451048Y-93305333D01*
X54451048Y-93543429D01*
X54403429Y-93733905D01*
X54355810Y-93829143D01*
X54308191Y-93876762D01*
X54212953Y-93924381D01*
X54117714Y-93924381D01*
X54022476Y-93876762D01*
X53974857Y-93829143D01*
X53927238Y-93733905D01*
X53879619Y-93543429D01*
X53879619Y-93305333D01*
X53927238Y-93114857D01*
X53974857Y-93019619D01*
X54022476Y-92972000D01*
X54117714Y-92924381D01*
X75255381Y-61672695D02*
X74255381Y-61672695D01*
X74255381Y-61291742D01*
X74303000Y-61196504D01*
X74350619Y-61148885D01*
X74445857Y-61101266D01*
X74588714Y-61101266D01*
X74683952Y-61148885D01*
X74731571Y-61196504D01*
X74779190Y-61291742D01*
X74779190Y-61672695D01*
X74255381Y-60767933D02*
X74255381Y-60148885D01*
X74636333Y-60482219D01*
X74636333Y-60339361D01*
X74683952Y-60244123D01*
X74731571Y-60196504D01*
X74826810Y-60148885D01*
X75064905Y-60148885D01*
X75160143Y-60196504D01*
X75207762Y-60244123D01*
X75255381Y-60339361D01*
X75255381Y-60625076D01*
X75207762Y-60720314D01*
X75160143Y-60767933D01*
X90495381Y-61647295D02*
X89495381Y-61647295D01*
X89495381Y-61266342D01*
X89543000Y-61171104D01*
X89590619Y-61123485D01*
X89685857Y-61075866D01*
X89828714Y-61075866D01*
X89923952Y-61123485D01*
X89971571Y-61171104D01*
X90019190Y-61266342D01*
X90019190Y-61647295D01*
X89495381Y-60171104D02*
X89495381Y-60647295D01*
X89971571Y-60694914D01*
X89923952Y-60647295D01*
X89876333Y-60552057D01*
X89876333Y-60313961D01*
X89923952Y-60218723D01*
X89971571Y-60171104D01*
X90066810Y-60123485D01*
X90304905Y-60123485D01*
X90400143Y-60171104D01*
X90447762Y-60218723D01*
X90495381Y-60313961D01*
X90495381Y-60552057D01*
X90447762Y-60647295D01*
X90400143Y-60694914D01*
X175751124Y-104068571D02*
X175893981Y-104116190D01*
X175941600Y-104163810D01*
X175989219Y-104259048D01*
X175989219Y-104401905D01*
X175941600Y-104497143D01*
X175893981Y-104544762D01*
X175798743Y-104592381D01*
X175417790Y-104592381D01*
X175417790Y-103592381D01*
X175751124Y-103592381D01*
X175846362Y-103640000D01*
X175893981Y-103687619D01*
X175941600Y-103782857D01*
X175941600Y-103878095D01*
X175893981Y-103973333D01*
X175846362Y-104020952D01*
X175751124Y-104068571D01*
X175417790Y-104068571D01*
X176560647Y-104592381D02*
X176465409Y-104544762D01*
X176417790Y-104497143D01*
X176370171Y-104401905D01*
X176370171Y-104116190D01*
X176417790Y-104020952D01*
X176465409Y-103973333D01*
X176560647Y-103925714D01*
X176703505Y-103925714D01*
X176798743Y-103973333D01*
X176846362Y-104020952D01*
X176893981Y-104116190D01*
X176893981Y-104401905D01*
X176846362Y-104497143D01*
X176798743Y-104544762D01*
X176703505Y-104592381D01*
X176560647Y-104592381D01*
X177751124Y-104592381D02*
X177751124Y-104068571D01*
X177703505Y-103973333D01*
X177608267Y-103925714D01*
X177417790Y-103925714D01*
X177322552Y-103973333D01*
X177751124Y-104544762D02*
X177655886Y-104592381D01*
X177417790Y-104592381D01*
X177322552Y-104544762D01*
X177274933Y-104449524D01*
X177274933Y-104354286D01*
X177322552Y-104259048D01*
X177417790Y-104211429D01*
X177655886Y-104211429D01*
X177751124Y-104163810D01*
X178227314Y-104592381D02*
X178227314Y-103925714D01*
X178227314Y-104116190D02*
X178274933Y-104020952D01*
X178322552Y-103973333D01*
X178417790Y-103925714D01*
X178513029Y-103925714D01*
X179274934Y-104592381D02*
X179274934Y-103592381D01*
X179274934Y-104544762D02*
X179179696Y-104592381D01*
X178989219Y-104592381D01*
X178893981Y-104544762D01*
X178846362Y-104497143D01*
X178798743Y-104401905D01*
X178798743Y-104116190D01*
X178846362Y-104020952D01*
X178893981Y-103973333D01*
X178989219Y-103925714D01*
X179179696Y-103925714D01*
X179274934Y-103973333D01*
X180513029Y-104592381D02*
X180513029Y-103592381D01*
X180751124Y-103592381D01*
X180893982Y-103640000D01*
X180989220Y-103735238D01*
X181036839Y-103830476D01*
X181084458Y-104020952D01*
X181084458Y-104163810D01*
X181036839Y-104354286D01*
X180989220Y-104449524D01*
X180893982Y-104544762D01*
X180751124Y-104592381D01*
X180513029Y-104592381D01*
X181513029Y-104592381D02*
X181513029Y-103925714D01*
X181513029Y-104116190D02*
X181560648Y-104020952D01*
X181608267Y-103973333D01*
X181703505Y-103925714D01*
X181798744Y-103925714D01*
X182132077Y-104592381D02*
X182132077Y-103925714D01*
X182132077Y-103592381D02*
X182084458Y-103640000D01*
X182132077Y-103687619D01*
X182179696Y-103640000D01*
X182132077Y-103592381D01*
X182132077Y-103687619D01*
X182513029Y-103925714D02*
X182751124Y-104592381D01*
X182989220Y-103925714D01*
X183751125Y-104544762D02*
X183655887Y-104592381D01*
X183465410Y-104592381D01*
X183370172Y-104544762D01*
X183322553Y-104449524D01*
X183322553Y-104068571D01*
X183370172Y-103973333D01*
X183465410Y-103925714D01*
X183655887Y-103925714D01*
X183751125Y-103973333D01*
X183798744Y-104068571D01*
X183798744Y-104163810D01*
X183322553Y-104259048D01*
X185417792Y-103592381D02*
X185227315Y-103592381D01*
X185132077Y-103640000D01*
X185084458Y-103687619D01*
X184989220Y-103830476D01*
X184941601Y-104020952D01*
X184941601Y-104401905D01*
X184989220Y-104497143D01*
X185036839Y-104544762D01*
X185132077Y-104592381D01*
X185322554Y-104592381D01*
X185417792Y-104544762D01*
X185465411Y-104497143D01*
X185513030Y-104401905D01*
X185513030Y-104163810D01*
X185465411Y-104068571D01*
X185417792Y-104020952D01*
X185322554Y-103973333D01*
X185132077Y-103973333D01*
X185036839Y-104020952D01*
X184989220Y-104068571D01*
X184941601Y-104163810D01*
X143962381Y-61393295D02*
X142962381Y-61393295D01*
X142962381Y-61012342D01*
X143010000Y-60917104D01*
X143057619Y-60869485D01*
X143152857Y-60821866D01*
X143295714Y-60821866D01*
X143390952Y-60869485D01*
X143438571Y-60917104D01*
X143486190Y-61012342D01*
X143486190Y-61393295D01*
X143057619Y-60440914D02*
X143010000Y-60393295D01*
X142962381Y-60298057D01*
X142962381Y-60059961D01*
X143010000Y-59964723D01*
X143057619Y-59917104D01*
X143152857Y-59869485D01*
X143248095Y-59869485D01*
X143390952Y-59917104D01*
X143962381Y-60488533D01*
X143962381Y-59869485D01*
X51590676Y-151226781D02*
X51590676Y-150226781D01*
X51924010Y-150941067D01*
X52257343Y-150226781D01*
X52257343Y-151226781D01*
X52638295Y-150226781D02*
X53257343Y-150226781D01*
X52924009Y-150607733D01*
X53066867Y-150607733D01*
X53162105Y-150655352D01*
X53209724Y-150702971D01*
X53257343Y-150798210D01*
X53257343Y-151036305D01*
X53209724Y-151131543D01*
X53162105Y-151179162D01*
X53066867Y-151226781D01*
X52781152Y-151226781D01*
X52685914Y-151179162D01*
X52638295Y-151131543D01*
X162381095Y-69358381D02*
X162381095Y-70167905D01*
X162428714Y-70263143D01*
X162476333Y-70310762D01*
X162571571Y-70358381D01*
X162762048Y-70358381D01*
X162857286Y-70310762D01*
X162904905Y-70263143D01*
X162952524Y-70167905D01*
X162952524Y-69358381D01*
X163476333Y-70358381D02*
X163666809Y-70358381D01*
X163762048Y-70310762D01*
X163809667Y-70263143D01*
X163904905Y-70120286D01*
X163952524Y-69929810D01*
X163952524Y-69548857D01*
X163904905Y-69453619D01*
X163857286Y-69406000D01*
X163762048Y-69358381D01*
X163571571Y-69358381D01*
X163476333Y-69406000D01*
X163428714Y-69453619D01*
X163381095Y-69548857D01*
X163381095Y-69786952D01*
X163428714Y-69882190D01*
X163476333Y-69929810D01*
X163571571Y-69977429D01*
X163762048Y-69977429D01*
X163857286Y-69929810D01*
X163904905Y-69882190D01*
X163952524Y-69786952D01*
X60904381Y-61672695D02*
X59904381Y-61672695D01*
X59904381Y-61291742D01*
X59952000Y-61196504D01*
X59999619Y-61148885D01*
X60094857Y-61101266D01*
X60237714Y-61101266D01*
X60332952Y-61148885D01*
X60380571Y-61196504D01*
X60428190Y-61291742D01*
X60428190Y-61672695D01*
X60904381Y-60148885D02*
X60904381Y-60720314D01*
X60904381Y-60434600D02*
X59904381Y-60434600D01*
X60047238Y-60529838D01*
X60142476Y-60625076D01*
X60190095Y-60720314D01*
X161158181Y-61139295D02*
X160158181Y-61139295D01*
X160158181Y-60758342D01*
X160205800Y-60663104D01*
X160253419Y-60615485D01*
X160348657Y-60567866D01*
X160491514Y-60567866D01*
X160586752Y-60615485D01*
X160634371Y-60663104D01*
X160681990Y-60758342D01*
X160681990Y-61139295D01*
X160491514Y-59710723D02*
X161158181Y-59710723D01*
X160110562Y-59948819D02*
X160824848Y-60186914D01*
X160824848Y-59567866D01*
X177439581Y-60910695D02*
X176439581Y-60910695D01*
X176439581Y-60529742D01*
X176487200Y-60434504D01*
X176534819Y-60386885D01*
X176630057Y-60339266D01*
X176772914Y-60339266D01*
X176868152Y-60386885D01*
X176915771Y-60434504D01*
X176963390Y-60529742D01*
X176963390Y-60910695D01*
X176439581Y-59482123D02*
X176439581Y-59672600D01*
X176487200Y-59767838D01*
X176534819Y-59815457D01*
X176677676Y-59910695D01*
X176868152Y-59958314D01*
X177249105Y-59958314D01*
X177344343Y-59910695D01*
X177391962Y-59863076D01*
X177439581Y-59767838D01*
X177439581Y-59577361D01*
X177391962Y-59482123D01*
X177344343Y-59434504D01*
X177249105Y-59386885D01*
X177011010Y-59386885D01*
X176915771Y-59434504D01*
X176868152Y-59482123D01*
X176820533Y-59577361D01*
X176820533Y-59767838D01*
X176868152Y-59863076D01*
X176915771Y-59910695D01*
X177011010Y-59958314D01*
X107259381Y-61647295D02*
X106259381Y-61647295D01*
X106259381Y-61266342D01*
X106307000Y-61171104D01*
X106354619Y-61123485D01*
X106449857Y-61075866D01*
X106592714Y-61075866D01*
X106687952Y-61123485D01*
X106735571Y-61171104D01*
X106783190Y-61266342D01*
X106783190Y-61647295D01*
X106259381Y-60742533D02*
X106259381Y-60075866D01*
X107259381Y-60504438D01*
X193441581Y-60859895D02*
X192441581Y-60859895D01*
X192441581Y-60478942D01*
X192489200Y-60383704D01*
X192536819Y-60336085D01*
X192632057Y-60288466D01*
X192774914Y-60288466D01*
X192870152Y-60336085D01*
X192917771Y-60383704D01*
X192965390Y-60478942D01*
X192965390Y-60859895D01*
X192870152Y-59717038D02*
X192822533Y-59812276D01*
X192774914Y-59859895D01*
X192679676Y-59907514D01*
X192632057Y-59907514D01*
X192536819Y-59859895D01*
X192489200Y-59812276D01*
X192441581Y-59717038D01*
X192441581Y-59526561D01*
X192489200Y-59431323D01*
X192536819Y-59383704D01*
X192632057Y-59336085D01*
X192679676Y-59336085D01*
X192774914Y-59383704D01*
X192822533Y-59431323D01*
X192870152Y-59526561D01*
X192870152Y-59717038D01*
X192917771Y-59812276D01*
X192965390Y-59859895D01*
X193060629Y-59907514D01*
X193251105Y-59907514D01*
X193346343Y-59859895D01*
X193393962Y-59812276D01*
X193441581Y-59717038D01*
X193441581Y-59526561D01*
X193393962Y-59431323D01*
X193346343Y-59383704D01*
X193251105Y-59336085D01*
X193060629Y-59336085D01*
X192965390Y-59383704D01*
X192917771Y-59431323D01*
X192870152Y-59526561D01*
X51617714Y-104846381D02*
X51617714Y-103846381D01*
X51998667Y-103846381D01*
X52093905Y-103894000D01*
X52141524Y-103941619D01*
X52189143Y-104036857D01*
X52189143Y-104179714D01*
X52141524Y-104274952D01*
X52093905Y-104322571D01*
X51998667Y-104370190D01*
X51617714Y-104370190D01*
X53141524Y-104846381D02*
X52570095Y-104846381D01*
X52855809Y-104846381D02*
X52855809Y-103846381D01*
X52760571Y-103989238D01*
X52665333Y-104084476D01*
X52570095Y-104132095D01*
X53760571Y-103846381D02*
X53855810Y-103846381D01*
X53951048Y-103894000D01*
X53998667Y-103941619D01*
X54046286Y-104036857D01*
X54093905Y-104227333D01*
X54093905Y-104465429D01*
X54046286Y-104655905D01*
X53998667Y-104751143D01*
X53951048Y-104798762D01*
X53855810Y-104846381D01*
X53760571Y-104846381D01*
X53665333Y-104798762D01*
X53617714Y-104751143D01*
X53570095Y-104655905D01*
X53522476Y-104465429D01*
X53522476Y-104227333D01*
X53570095Y-104036857D01*
X53617714Y-103941619D01*
X53665333Y-103894000D01*
X53760571Y-103846381D01*
X51292333Y-101941381D02*
X51959000Y-102941381D01*
X51959000Y-101941381D02*
X51292333Y-102941381D01*
X52197095Y-101941381D02*
X52768524Y-101941381D01*
X52482809Y-102941381D02*
X52482809Y-101941381D01*
X53530429Y-101941381D02*
X53339952Y-101941381D01*
X53244714Y-101989000D01*
X53197095Y-102036619D01*
X53101857Y-102179476D01*
X53054238Y-102369952D01*
X53054238Y-102750905D01*
X53101857Y-102846143D01*
X53149476Y-102893762D01*
X53244714Y-102941381D01*
X53435191Y-102941381D01*
X53530429Y-102893762D01*
X53578048Y-102846143D01*
X53625667Y-102750905D01*
X53625667Y-102512810D01*
X53578048Y-102417571D01*
X53530429Y-102369952D01*
X53435191Y-102322333D01*
X53244714Y-102322333D01*
X53149476Y-102369952D01*
X53101857Y-102417571D01*
X53054238Y-102512810D01*
X54244714Y-101941381D02*
X54339953Y-101941381D01*
X54435191Y-101989000D01*
X54482810Y-102036619D01*
X54530429Y-102131857D01*
X54578048Y-102322333D01*
X54578048Y-102560429D01*
X54530429Y-102750905D01*
X54482810Y-102846143D01*
X54435191Y-102893762D01*
X54339953Y-102941381D01*
X54244714Y-102941381D01*
X54149476Y-102893762D01*
X54101857Y-102846143D01*
X54054238Y-102750905D01*
X54006619Y-102560429D01*
X54006619Y-102322333D01*
X54054238Y-102131857D01*
X54101857Y-102036619D01*
X54149476Y-101989000D01*
X54244714Y-101941381D01*
X113775124Y-103560571D02*
X113917981Y-103608190D01*
X113965600Y-103655810D01*
X114013219Y-103751048D01*
X114013219Y-103893905D01*
X113965600Y-103989143D01*
X113917981Y-104036762D01*
X113822743Y-104084381D01*
X113441790Y-104084381D01*
X113441790Y-103084381D01*
X113775124Y-103084381D01*
X113870362Y-103132000D01*
X113917981Y-103179619D01*
X113965600Y-103274857D01*
X113965600Y-103370095D01*
X113917981Y-103465333D01*
X113870362Y-103512952D01*
X113775124Y-103560571D01*
X113441790Y-103560571D01*
X114584647Y-104084381D02*
X114489409Y-104036762D01*
X114441790Y-103989143D01*
X114394171Y-103893905D01*
X114394171Y-103608190D01*
X114441790Y-103512952D01*
X114489409Y-103465333D01*
X114584647Y-103417714D01*
X114727505Y-103417714D01*
X114822743Y-103465333D01*
X114870362Y-103512952D01*
X114917981Y-103608190D01*
X114917981Y-103893905D01*
X114870362Y-103989143D01*
X114822743Y-104036762D01*
X114727505Y-104084381D01*
X114584647Y-104084381D01*
X115775124Y-104084381D02*
X115775124Y-103560571D01*
X115727505Y-103465333D01*
X115632267Y-103417714D01*
X115441790Y-103417714D01*
X115346552Y-103465333D01*
X115775124Y-104036762D02*
X115679886Y-104084381D01*
X115441790Y-104084381D01*
X115346552Y-104036762D01*
X115298933Y-103941524D01*
X115298933Y-103846286D01*
X115346552Y-103751048D01*
X115441790Y-103703429D01*
X115679886Y-103703429D01*
X115775124Y-103655810D01*
X116251314Y-104084381D02*
X116251314Y-103417714D01*
X116251314Y-103608190D02*
X116298933Y-103512952D01*
X116346552Y-103465333D01*
X116441790Y-103417714D01*
X116537029Y-103417714D01*
X117298934Y-104084381D02*
X117298934Y-103084381D01*
X117298934Y-104036762D02*
X117203696Y-104084381D01*
X117013219Y-104084381D01*
X116917981Y-104036762D01*
X116870362Y-103989143D01*
X116822743Y-103893905D01*
X116822743Y-103608190D01*
X116870362Y-103512952D01*
X116917981Y-103465333D01*
X117013219Y-103417714D01*
X117203696Y-103417714D01*
X117298934Y-103465333D01*
X118537029Y-104084381D02*
X118537029Y-103084381D01*
X118775124Y-103084381D01*
X118917982Y-103132000D01*
X119013220Y-103227238D01*
X119060839Y-103322476D01*
X119108458Y-103512952D01*
X119108458Y-103655810D01*
X119060839Y-103846286D01*
X119013220Y-103941524D01*
X118917982Y-104036762D01*
X118775124Y-104084381D01*
X118537029Y-104084381D01*
X119537029Y-104084381D02*
X119537029Y-103417714D01*
X119537029Y-103608190D02*
X119584648Y-103512952D01*
X119632267Y-103465333D01*
X119727505Y-103417714D01*
X119822744Y-103417714D01*
X120156077Y-104084381D02*
X120156077Y-103417714D01*
X120156077Y-103084381D02*
X120108458Y-103132000D01*
X120156077Y-103179619D01*
X120203696Y-103132000D01*
X120156077Y-103084381D01*
X120156077Y-103179619D01*
X120537029Y-103417714D02*
X120775124Y-104084381D01*
X121013220Y-103417714D01*
X121775125Y-104036762D02*
X121679887Y-104084381D01*
X121489410Y-104084381D01*
X121394172Y-104036762D01*
X121346553Y-103941524D01*
X121346553Y-103560571D01*
X121394172Y-103465333D01*
X121489410Y-103417714D01*
X121679887Y-103417714D01*
X121775125Y-103465333D01*
X121822744Y-103560571D01*
X121822744Y-103655810D01*
X121346553Y-103751048D01*
X123441792Y-103417714D02*
X123441792Y-104084381D01*
X123203696Y-103036762D02*
X122965601Y-103751048D01*
X123584649Y-103751048D01*
X113648124Y-134167571D02*
X113790981Y-134215190D01*
X113838600Y-134262810D01*
X113886219Y-134358048D01*
X113886219Y-134500905D01*
X113838600Y-134596143D01*
X113790981Y-134643762D01*
X113695743Y-134691381D01*
X113314790Y-134691381D01*
X113314790Y-133691381D01*
X113648124Y-133691381D01*
X113743362Y-133739000D01*
X113790981Y-133786619D01*
X113838600Y-133881857D01*
X113838600Y-133977095D01*
X113790981Y-134072333D01*
X113743362Y-134119952D01*
X113648124Y-134167571D01*
X113314790Y-134167571D01*
X114457647Y-134691381D02*
X114362409Y-134643762D01*
X114314790Y-134596143D01*
X114267171Y-134500905D01*
X114267171Y-134215190D01*
X114314790Y-134119952D01*
X114362409Y-134072333D01*
X114457647Y-134024714D01*
X114600505Y-134024714D01*
X114695743Y-134072333D01*
X114743362Y-134119952D01*
X114790981Y-134215190D01*
X114790981Y-134500905D01*
X114743362Y-134596143D01*
X114695743Y-134643762D01*
X114600505Y-134691381D01*
X114457647Y-134691381D01*
X115648124Y-134691381D02*
X115648124Y-134167571D01*
X115600505Y-134072333D01*
X115505267Y-134024714D01*
X115314790Y-134024714D01*
X115219552Y-134072333D01*
X115648124Y-134643762D02*
X115552886Y-134691381D01*
X115314790Y-134691381D01*
X115219552Y-134643762D01*
X115171933Y-134548524D01*
X115171933Y-134453286D01*
X115219552Y-134358048D01*
X115314790Y-134310429D01*
X115552886Y-134310429D01*
X115648124Y-134262810D01*
X116124314Y-134691381D02*
X116124314Y-134024714D01*
X116124314Y-134215190D02*
X116171933Y-134119952D01*
X116219552Y-134072333D01*
X116314790Y-134024714D01*
X116410029Y-134024714D01*
X117171934Y-134691381D02*
X117171934Y-133691381D01*
X117171934Y-134643762D02*
X117076696Y-134691381D01*
X116886219Y-134691381D01*
X116790981Y-134643762D01*
X116743362Y-134596143D01*
X116695743Y-134500905D01*
X116695743Y-134215190D01*
X116743362Y-134119952D01*
X116790981Y-134072333D01*
X116886219Y-134024714D01*
X117076696Y-134024714D01*
X117171934Y-134072333D01*
X118410029Y-134691381D02*
X118410029Y-133691381D01*
X118648124Y-133691381D01*
X118790982Y-133739000D01*
X118886220Y-133834238D01*
X118933839Y-133929476D01*
X118981458Y-134119952D01*
X118981458Y-134262810D01*
X118933839Y-134453286D01*
X118886220Y-134548524D01*
X118790982Y-134643762D01*
X118648124Y-134691381D01*
X118410029Y-134691381D01*
X119410029Y-134691381D02*
X119410029Y-134024714D01*
X119410029Y-134215190D02*
X119457648Y-134119952D01*
X119505267Y-134072333D01*
X119600505Y-134024714D01*
X119695744Y-134024714D01*
X120029077Y-134691381D02*
X120029077Y-134024714D01*
X120029077Y-133691381D02*
X119981458Y-133739000D01*
X120029077Y-133786619D01*
X120076696Y-133739000D01*
X120029077Y-133691381D01*
X120029077Y-133786619D01*
X120410029Y-134024714D02*
X120648124Y-134691381D01*
X120886220Y-134024714D01*
X121648125Y-134643762D02*
X121552887Y-134691381D01*
X121362410Y-134691381D01*
X121267172Y-134643762D01*
X121219553Y-134548524D01*
X121219553Y-134167571D01*
X121267172Y-134072333D01*
X121362410Y-134024714D01*
X121552887Y-134024714D01*
X121648125Y-134072333D01*
X121695744Y-134167571D01*
X121695744Y-134262810D01*
X121219553Y-134358048D01*
X123362411Y-133691381D02*
X122886220Y-133691381D01*
X122838601Y-134167571D01*
X122886220Y-134119952D01*
X122981458Y-134072333D01*
X123219554Y-134072333D01*
X123314792Y-134119952D01*
X123362411Y-134167571D01*
X123410030Y-134262810D01*
X123410030Y-134500905D01*
X123362411Y-134596143D01*
X123314792Y-134643762D01*
X123219554Y-134691381D01*
X122981458Y-134691381D01*
X122886220Y-134643762D01*
X122838601Y-134596143D01*
X175624124Y-134294571D02*
X175766981Y-134342190D01*
X175814600Y-134389810D01*
X175862219Y-134485048D01*
X175862219Y-134627905D01*
X175814600Y-134723143D01*
X175766981Y-134770762D01*
X175671743Y-134818381D01*
X175290790Y-134818381D01*
X175290790Y-133818381D01*
X175624124Y-133818381D01*
X175719362Y-133866000D01*
X175766981Y-133913619D01*
X175814600Y-134008857D01*
X175814600Y-134104095D01*
X175766981Y-134199333D01*
X175719362Y-134246952D01*
X175624124Y-134294571D01*
X175290790Y-134294571D01*
X176433647Y-134818381D02*
X176338409Y-134770762D01*
X176290790Y-134723143D01*
X176243171Y-134627905D01*
X176243171Y-134342190D01*
X176290790Y-134246952D01*
X176338409Y-134199333D01*
X176433647Y-134151714D01*
X176576505Y-134151714D01*
X176671743Y-134199333D01*
X176719362Y-134246952D01*
X176766981Y-134342190D01*
X176766981Y-134627905D01*
X176719362Y-134723143D01*
X176671743Y-134770762D01*
X176576505Y-134818381D01*
X176433647Y-134818381D01*
X177624124Y-134818381D02*
X177624124Y-134294571D01*
X177576505Y-134199333D01*
X177481267Y-134151714D01*
X177290790Y-134151714D01*
X177195552Y-134199333D01*
X177624124Y-134770762D02*
X177528886Y-134818381D01*
X177290790Y-134818381D01*
X177195552Y-134770762D01*
X177147933Y-134675524D01*
X177147933Y-134580286D01*
X177195552Y-134485048D01*
X177290790Y-134437429D01*
X177528886Y-134437429D01*
X177624124Y-134389810D01*
X178100314Y-134818381D02*
X178100314Y-134151714D01*
X178100314Y-134342190D02*
X178147933Y-134246952D01*
X178195552Y-134199333D01*
X178290790Y-134151714D01*
X178386029Y-134151714D01*
X179147934Y-134818381D02*
X179147934Y-133818381D01*
X179147934Y-134770762D02*
X179052696Y-134818381D01*
X178862219Y-134818381D01*
X178766981Y-134770762D01*
X178719362Y-134723143D01*
X178671743Y-134627905D01*
X178671743Y-134342190D01*
X178719362Y-134246952D01*
X178766981Y-134199333D01*
X178862219Y-134151714D01*
X179052696Y-134151714D01*
X179147934Y-134199333D01*
X180386029Y-134818381D02*
X180386029Y-133818381D01*
X180624124Y-133818381D01*
X180766982Y-133866000D01*
X180862220Y-133961238D01*
X180909839Y-134056476D01*
X180957458Y-134246952D01*
X180957458Y-134389810D01*
X180909839Y-134580286D01*
X180862220Y-134675524D01*
X180766982Y-134770762D01*
X180624124Y-134818381D01*
X180386029Y-134818381D01*
X181386029Y-134818381D02*
X181386029Y-134151714D01*
X181386029Y-134342190D02*
X181433648Y-134246952D01*
X181481267Y-134199333D01*
X181576505Y-134151714D01*
X181671744Y-134151714D01*
X182005077Y-134818381D02*
X182005077Y-134151714D01*
X182005077Y-133818381D02*
X181957458Y-133866000D01*
X182005077Y-133913619D01*
X182052696Y-133866000D01*
X182005077Y-133818381D01*
X182005077Y-133913619D01*
X182386029Y-134151714D02*
X182624124Y-134818381D01*
X182862220Y-134151714D01*
X183624125Y-134770762D02*
X183528887Y-134818381D01*
X183338410Y-134818381D01*
X183243172Y-134770762D01*
X183195553Y-134675524D01*
X183195553Y-134294571D01*
X183243172Y-134199333D01*
X183338410Y-134151714D01*
X183528887Y-134151714D01*
X183624125Y-134199333D01*
X183671744Y-134294571D01*
X183671744Y-134389810D01*
X183195553Y-134485048D01*
X184766982Y-133818381D02*
X185433649Y-133818381D01*
X185005077Y-134818381D01*
X121027105Y-69378581D02*
X121027105Y-70188105D01*
X121074724Y-70283343D01*
X121122343Y-70330962D01*
X121217581Y-70378581D01*
X121408058Y-70378581D01*
X121503296Y-70330962D01*
X121550915Y-70283343D01*
X121598534Y-70188105D01*
X121598534Y-69378581D01*
X122598534Y-70378581D02*
X122027105Y-70378581D01*
X122312819Y-70378581D02*
X122312819Y-69378581D01*
X122217581Y-69521438D01*
X122122343Y-69616676D01*
X122027105Y-69664295D01*
X123217581Y-69378581D02*
X123312820Y-69378581D01*
X123408058Y-69426200D01*
X123455677Y-69473819D01*
X123503296Y-69569057D01*
X123550915Y-69759533D01*
X123550915Y-69997629D01*
X123503296Y-70188105D01*
X123455677Y-70283343D01*
X123408058Y-70330962D01*
X123312820Y-70378581D01*
X123217581Y-70378581D01*
X123122343Y-70330962D01*
X123074724Y-70283343D01*
X123027105Y-70188105D01*
X122979486Y-69997629D01*
X122979486Y-69759533D01*
X123027105Y-69569057D01*
X123074724Y-69473819D01*
X123122343Y-69426200D01*
X123217581Y-69378581D01*
X203138895Y-69327781D02*
X203138895Y-70137305D01*
X203186514Y-70232543D01*
X203234133Y-70280162D01*
X203329371Y-70327781D01*
X203519848Y-70327781D01*
X203615086Y-70280162D01*
X203662705Y-70232543D01*
X203710324Y-70137305D01*
X203710324Y-69327781D01*
X204329371Y-69756352D02*
X204234133Y-69708733D01*
X204186514Y-69661114D01*
X204138895Y-69565876D01*
X204138895Y-69518257D01*
X204186514Y-69423019D01*
X204234133Y-69375400D01*
X204329371Y-69327781D01*
X204519848Y-69327781D01*
X204615086Y-69375400D01*
X204662705Y-69423019D01*
X204710324Y-69518257D01*
X204710324Y-69565876D01*
X204662705Y-69661114D01*
X204615086Y-69708733D01*
X204519848Y-69756352D01*
X204329371Y-69756352D01*
X204234133Y-69803971D01*
X204186514Y-69851590D01*
X204138895Y-69946829D01*
X204138895Y-70137305D01*
X204186514Y-70232543D01*
X204234133Y-70280162D01*
X204329371Y-70327781D01*
X204519848Y-70327781D01*
X204615086Y-70280162D01*
X204662705Y-70232543D01*
X204710324Y-70137305D01*
X204710324Y-69946829D01*
X204662705Y-69851590D01*
X204615086Y-69803971D01*
X204519848Y-69756352D01*
X51768476Y-58110381D02*
X51768476Y-57110381D01*
X52101810Y-57824667D01*
X52435143Y-57110381D01*
X52435143Y-58110381D01*
X52816095Y-57110381D02*
X53435143Y-57110381D01*
X53101809Y-57491333D01*
X53244667Y-57491333D01*
X53339905Y-57538952D01*
X53387524Y-57586571D01*
X53435143Y-57681810D01*
X53435143Y-57919905D01*
X53387524Y-58015143D01*
X53339905Y-58062762D01*
X53244667Y-58110381D01*
X52958952Y-58110381D01*
X52863714Y-58062762D01*
X52816095Y-58015143D01*
X210772476Y-57348381D02*
X210772476Y-56348381D01*
X211105810Y-57062667D01*
X211439143Y-56348381D01*
X211439143Y-57348381D01*
X211820095Y-56348381D02*
X212439143Y-56348381D01*
X212105809Y-56729333D01*
X212248667Y-56729333D01*
X212343905Y-56776952D01*
X212391524Y-56824571D01*
X212439143Y-56919810D01*
X212439143Y-57157905D01*
X212391524Y-57253143D01*
X212343905Y-57300762D01*
X212248667Y-57348381D01*
X211962952Y-57348381D01*
X211867714Y-57300762D01*
X211820095Y-57253143D01*
X210772476Y-144216381D02*
X210772476Y-143216381D01*
X211105810Y-143930667D01*
X211439143Y-143216381D01*
X211439143Y-144216381D01*
X211820095Y-143216381D02*
X212439143Y-143216381D01*
X212105809Y-143597333D01*
X212248667Y-143597333D01*
X212343905Y-143644952D01*
X212391524Y-143692571D01*
X212439143Y-143787810D01*
X212439143Y-144025905D01*
X212391524Y-144121143D01*
X212343905Y-144168762D01*
X212248667Y-144216381D01*
X211962952Y-144216381D01*
X211867714Y-144168762D01*
X211820095Y-144121143D01*
%LPC*%
D13*
X64109600Y-76479400D03*
X58409600Y-76479400D03*
X64109600Y-82179400D03*
X58409600Y-82179400D03*
D14*
X53239600Y-76154400D03*
X69279600Y-76154400D03*
D13*
X104861600Y-76530200D03*
X99161600Y-76530200D03*
X104861600Y-82230200D03*
X99161600Y-82230200D03*
D14*
X93991600Y-76205200D03*
X110031600Y-76205200D03*
D15*
X86440651Y-137952737D03*
X55960651Y-125252737D03*
D16*
X54436651Y-114076737D03*
D17*
X54436651Y-119156737D03*
X78820651Y-138968737D03*
X76280651Y-138968737D03*
X73740651Y-138968737D03*
X71200651Y-138968737D03*
X68660651Y-138968737D03*
X66120651Y-138968737D03*
D16*
X63580651Y-138968737D03*
D17*
X54436651Y-116616737D03*
X56976651Y-119156737D03*
X56976651Y-116616737D03*
X59516651Y-119156737D03*
X59516651Y-116616737D03*
X62056651Y-119156737D03*
X62056651Y-116616737D03*
X64596651Y-119156737D03*
X64596651Y-116616737D03*
X67136651Y-119156737D03*
X67136651Y-116616737D03*
X69676651Y-119156737D03*
X69676651Y-116616737D03*
X72216651Y-119156737D03*
X72216651Y-116616737D03*
X74756651Y-119156737D03*
X74756651Y-116616737D03*
X77296651Y-119156737D03*
X77296651Y-116616737D03*
X79836651Y-119156737D03*
X79836651Y-116616737D03*
X82376651Y-119156737D03*
X82376651Y-116616737D03*
X84916651Y-119156737D03*
X84916651Y-116616737D03*
D16*
X56976651Y-114076737D03*
X59516651Y-114076737D03*
X62056651Y-114076737D03*
X64596651Y-114076737D03*
X67136651Y-114076737D03*
X69676651Y-114076737D03*
X72216651Y-114076737D03*
X74756651Y-114076737D03*
X77296651Y-114076737D03*
X79836651Y-114076737D03*
X82376651Y-114076737D03*
X84916651Y-114076737D03*
D13*
X78753800Y-76525000D03*
X84453800Y-76525000D03*
X78753800Y-82225000D03*
X84453800Y-82225000D03*
D14*
X89623800Y-76200000D03*
X73583800Y-76200000D03*
D18*
X66802000Y-94996000D03*
X59639200Y-94996000D03*
D19*
X78105000Y-60934600D03*
X83235800Y-60934600D03*
X93599000Y-60909200D03*
X98729800Y-60909200D03*
D13*
X145603200Y-76530200D03*
X139903200Y-76530200D03*
X145603200Y-82230200D03*
X139903200Y-82230200D03*
D14*
X134733200Y-76205200D03*
X150773200Y-76205200D03*
D20*
X205966942Y-90674262D03*
X205966942Y-116074262D03*
D16*
X202156942Y-117344262D03*
D17*
X202156942Y-114804262D03*
X202156942Y-112264262D03*
D20*
X152626942Y-90674262D03*
D19*
X146761200Y-60655200D03*
X151892000Y-60655200D03*
D21*
X53038000Y-147114000D03*
D13*
X160349000Y-76510000D03*
X166049000Y-76510000D03*
X160349000Y-82210000D03*
X166049000Y-82210000D03*
D14*
X171219000Y-76185000D03*
X155179000Y-76185000D03*
D19*
X63754000Y-60934600D03*
X68884800Y-60934600D03*
X164007800Y-60401200D03*
X169138600Y-60401200D03*
X180543200Y-60172600D03*
X185674000Y-60172600D03*
X110363000Y-60909200D03*
X115493800Y-60909200D03*
X196545200Y-60121800D03*
X201676000Y-60121800D03*
D18*
X66802000Y-104394000D03*
X59639200Y-104394000D03*
D20*
X152628600Y-90678000D03*
X152628600Y-116078000D03*
D16*
X156438600Y-117348000D03*
D17*
X156438600Y-114808000D03*
X156438600Y-112268000D03*
D20*
X205968600Y-90678000D03*
X206044800Y-147015200D03*
X206044800Y-121615200D03*
D16*
X202234800Y-120345200D03*
D17*
X202234800Y-122885200D03*
X202234800Y-125425200D03*
D20*
X152704800Y-147015200D03*
X92430600Y-90674262D03*
X92430600Y-116074262D03*
D16*
X96240600Y-117344262D03*
D17*
X96240600Y-114804262D03*
X96240600Y-112264262D03*
D20*
X145770600Y-90674262D03*
X145770600Y-146939000D03*
X145770600Y-121539000D03*
D16*
X141960600Y-120269000D03*
D17*
X141960600Y-122809000D03*
X141960600Y-125349000D03*
D20*
X92430600Y-146939000D03*
X145757641Y-90677775D03*
X145757641Y-116077775D03*
D16*
X141947641Y-117347775D03*
D17*
X141947641Y-114807775D03*
X141947641Y-112267775D03*
D20*
X92417641Y-90677775D03*
X92416157Y-146941065D03*
X92416157Y-121541065D03*
D16*
X96226157Y-120271065D03*
D17*
X96226157Y-122811065D03*
X96226157Y-125351065D03*
D20*
X145756157Y-146941065D03*
X152704800Y-147015200D03*
X152704800Y-121615200D03*
D16*
X156514800Y-120345200D03*
D17*
X156514800Y-122885200D03*
X156514800Y-125425200D03*
D20*
X206044800Y-147015200D03*
D13*
X186446400Y-76504800D03*
X180746400Y-76504800D03*
X186446400Y-82204800D03*
X180746400Y-82204800D03*
D14*
X175576400Y-76179800D03*
X191616400Y-76179800D03*
D13*
X119471200Y-76530200D03*
X125171200Y-76530200D03*
X119471200Y-82230200D03*
X125171200Y-82230200D03*
D14*
X130341200Y-76205200D03*
X114301200Y-76205200D03*
D13*
X201106800Y-76479400D03*
X206806800Y-76479400D03*
X201106800Y-82179400D03*
X206806800Y-82179400D03*
D14*
X211976800Y-76154400D03*
X195936800Y-76154400D03*
D21*
X53038000Y-54841400D03*
X211350600Y-54841400D03*
X211350600Y-147114000D03*
M02*
