G04 #@! TF.FileFunction,Legend,Bot*
%FSLAX46Y46*%
G04 Gerber Fmt 4.6, Leading zero omitted, Abs format (unit mm)*
G04 Created by KiCad (PCBNEW 4.0.7) date 01/29/18 08:59:29*
%MOMM*%
%LPD*%
G01*
G04 APERTURE LIST*
%ADD10C,0.100000*%
%ADD11C,0.300000*%
%ADD12C,0.127000*%
%ADD13C,0.150000*%
%ADD14C,2.900000*%
%ADD15C,3.400000*%
%ADD16C,3.092400*%
%ADD17R,1.924000X1.924000*%
%ADD18C,1.924000*%
%ADD19C,7.004000*%
%ADD20C,3.956000*%
%ADD21C,2.584400*%
%ADD22C,3.600000*%
%ADD23R,1.000000X1.950000*%
G04 APERTURE END LIST*
D10*
D11*
X82373599Y-67820314D02*
X82445028Y-67891743D01*
X82659314Y-67963171D01*
X82802171Y-67963171D01*
X83016456Y-67891743D01*
X83159314Y-67748886D01*
X83230742Y-67606029D01*
X83302171Y-67320314D01*
X83302171Y-67106029D01*
X83230742Y-66820314D01*
X83159314Y-66677457D01*
X83016456Y-66534600D01*
X82802171Y-66463171D01*
X82659314Y-66463171D01*
X82445028Y-66534600D01*
X82373599Y-66606029D01*
X81730742Y-67963171D02*
X81730742Y-66463171D01*
X81087885Y-67963171D02*
X81087885Y-67177457D01*
X81159314Y-67034600D01*
X81302171Y-66963171D01*
X81516456Y-66963171D01*
X81659314Y-67034600D01*
X81730742Y-67106029D01*
X80730742Y-68106029D02*
X79587885Y-68106029D01*
X79373599Y-66463171D02*
X78445028Y-66463171D01*
X78945028Y-67034600D01*
X78730742Y-67034600D01*
X78587885Y-67106029D01*
X78516456Y-67177457D01*
X78445028Y-67320314D01*
X78445028Y-67677457D01*
X78516456Y-67820314D01*
X78587885Y-67891743D01*
X78730742Y-67963171D01*
X79159314Y-67963171D01*
X79302171Y-67891743D01*
X79373599Y-67820314D01*
X123419999Y-67845714D02*
X123491428Y-67917143D01*
X123705714Y-67988571D01*
X123848571Y-67988571D01*
X124062856Y-67917143D01*
X124205714Y-67774286D01*
X124277142Y-67631429D01*
X124348571Y-67345714D01*
X124348571Y-67131429D01*
X124277142Y-66845714D01*
X124205714Y-66702857D01*
X124062856Y-66560000D01*
X123848571Y-66488571D01*
X123705714Y-66488571D01*
X123491428Y-66560000D01*
X123419999Y-66631429D01*
X122777142Y-67988571D02*
X122777142Y-66488571D01*
X122134285Y-67988571D02*
X122134285Y-67202857D01*
X122205714Y-67060000D01*
X122348571Y-66988571D01*
X122562856Y-66988571D01*
X122705714Y-67060000D01*
X122777142Y-67131429D01*
X121777142Y-68131429D02*
X120634285Y-68131429D01*
X120348571Y-66631429D02*
X120277142Y-66560000D01*
X120134285Y-66488571D01*
X119777142Y-66488571D01*
X119634285Y-66560000D01*
X119562856Y-66631429D01*
X119491428Y-66774286D01*
X119491428Y-66917143D01*
X119562856Y-67131429D01*
X120419999Y-67988571D01*
X119491428Y-67988571D01*
X164313999Y-67591714D02*
X164385428Y-67663143D01*
X164599714Y-67734571D01*
X164742571Y-67734571D01*
X164956856Y-67663143D01*
X165099714Y-67520286D01*
X165171142Y-67377429D01*
X165242571Y-67091714D01*
X165242571Y-66877429D01*
X165171142Y-66591714D01*
X165099714Y-66448857D01*
X164956856Y-66306000D01*
X164742571Y-66234571D01*
X164599714Y-66234571D01*
X164385428Y-66306000D01*
X164313999Y-66377429D01*
X163671142Y-67734571D02*
X163671142Y-66234571D01*
X163028285Y-67734571D02*
X163028285Y-66948857D01*
X163099714Y-66806000D01*
X163242571Y-66734571D01*
X163456856Y-66734571D01*
X163599714Y-66806000D01*
X163671142Y-66877429D01*
X162671142Y-67877429D02*
X161528285Y-67877429D01*
X160385428Y-67734571D02*
X161242571Y-67734571D01*
X160813999Y-67734571D02*
X160813999Y-66234571D01*
X160956856Y-66448857D01*
X161099714Y-66591714D01*
X161242571Y-66663143D01*
X205715999Y-67591714D02*
X205787428Y-67663143D01*
X206001714Y-67734571D01*
X206144571Y-67734571D01*
X206358856Y-67663143D01*
X206501714Y-67520286D01*
X206573142Y-67377429D01*
X206644571Y-67091714D01*
X206644571Y-66877429D01*
X206573142Y-66591714D01*
X206501714Y-66448857D01*
X206358856Y-66306000D01*
X206144571Y-66234571D01*
X206001714Y-66234571D01*
X205787428Y-66306000D01*
X205715999Y-66377429D01*
X205073142Y-67734571D02*
X205073142Y-66234571D01*
X204430285Y-67734571D02*
X204430285Y-66948857D01*
X204501714Y-66806000D01*
X204644571Y-66734571D01*
X204858856Y-66734571D01*
X205001714Y-66806000D01*
X205073142Y-66877429D01*
X204073142Y-67877429D02*
X202930285Y-67877429D01*
X202287428Y-66234571D02*
X202144571Y-66234571D01*
X202001714Y-66306000D01*
X201930285Y-66377429D01*
X201858856Y-66520286D01*
X201787428Y-66806000D01*
X201787428Y-67163143D01*
X201858856Y-67448857D01*
X201930285Y-67591714D01*
X202001714Y-67663143D01*
X202144571Y-67734571D01*
X202287428Y-67734571D01*
X202430285Y-67663143D01*
X202501714Y-67591714D01*
X202573142Y-67448857D01*
X202644571Y-67163143D01*
X202644571Y-66806000D01*
X202573142Y-66520286D01*
X202501714Y-66377429D01*
X202430285Y-66306000D01*
X202287428Y-66234571D01*
D12*
X81719546Y-134815081D02*
X81695356Y-134839271D01*
X81671165Y-134911843D01*
X81671165Y-134960224D01*
X81695356Y-135032795D01*
X81743737Y-135081176D01*
X81792118Y-135105367D01*
X81888880Y-135129557D01*
X81961451Y-135129557D01*
X82058213Y-135105367D01*
X82106594Y-135081176D01*
X82154975Y-135032795D01*
X82179165Y-134960224D01*
X82179165Y-134911843D01*
X82154975Y-134839271D01*
X82130785Y-134815081D01*
X81671165Y-134597367D02*
X82179165Y-134597367D01*
X81671165Y-134379652D02*
X81937261Y-134379652D01*
X81985642Y-134403843D01*
X82009832Y-134452224D01*
X82009832Y-134524795D01*
X81985642Y-134573176D01*
X81961451Y-134597367D01*
X81719546Y-134137748D02*
X81695356Y-134113557D01*
X81671165Y-134137748D01*
X81695356Y-134161938D01*
X81719546Y-134137748D01*
X81671165Y-134137748D01*
X81671165Y-133629747D02*
X81671165Y-133920033D01*
X81671165Y-133774890D02*
X82179165Y-133774890D01*
X82106594Y-133823271D01*
X82058213Y-133871652D01*
X82034023Y-133920033D01*
X81671165Y-133145937D02*
X81671165Y-133436223D01*
X81671165Y-133291080D02*
X82179165Y-133291080D01*
X82106594Y-133339461D01*
X82058213Y-133387842D01*
X82034023Y-133436223D01*
X80322546Y-134815081D02*
X80298356Y-134839271D01*
X80274165Y-134911843D01*
X80274165Y-134960224D01*
X80298356Y-135032795D01*
X80346737Y-135081176D01*
X80395118Y-135105367D01*
X80491880Y-135129557D01*
X80564451Y-135129557D01*
X80661213Y-135105367D01*
X80709594Y-135081176D01*
X80757975Y-135032795D01*
X80782165Y-134960224D01*
X80782165Y-134911843D01*
X80757975Y-134839271D01*
X80733785Y-134815081D01*
X80274165Y-134597367D02*
X80782165Y-134597367D01*
X80274165Y-134379652D02*
X80540261Y-134379652D01*
X80588642Y-134403843D01*
X80612832Y-134452224D01*
X80612832Y-134524795D01*
X80588642Y-134573176D01*
X80564451Y-134597367D01*
X80322546Y-134137748D02*
X80298356Y-134113557D01*
X80274165Y-134137748D01*
X80298356Y-134161938D01*
X80322546Y-134137748D01*
X80274165Y-134137748D01*
X80274165Y-133629747D02*
X80274165Y-133920033D01*
X80274165Y-133774890D02*
X80782165Y-133774890D01*
X80709594Y-133823271D01*
X80661213Y-133871652D01*
X80637023Y-133920033D01*
X80782165Y-133315271D02*
X80782165Y-133266890D01*
X80757975Y-133218509D01*
X80733785Y-133194318D01*
X80685404Y-133170128D01*
X80588642Y-133145937D01*
X80467689Y-133145937D01*
X80370927Y-133170128D01*
X80322546Y-133194318D01*
X80298356Y-133218509D01*
X80274165Y-133266890D01*
X80274165Y-133315271D01*
X80298356Y-133363652D01*
X80322546Y-133387842D01*
X80370927Y-133412033D01*
X80467689Y-133436223D01*
X80588642Y-133436223D01*
X80685404Y-133412033D01*
X80733785Y-133387842D01*
X80757975Y-133363652D01*
X80782165Y-133315271D01*
X79052546Y-134319176D02*
X79028356Y-134343366D01*
X79004165Y-134415938D01*
X79004165Y-134464319D01*
X79028356Y-134536890D01*
X79076737Y-134585271D01*
X79125118Y-134609462D01*
X79221880Y-134633652D01*
X79294451Y-134633652D01*
X79391213Y-134609462D01*
X79439594Y-134585271D01*
X79487975Y-134536890D01*
X79512165Y-134464319D01*
X79512165Y-134415938D01*
X79487975Y-134343366D01*
X79463785Y-134319176D01*
X79004165Y-134101462D02*
X79512165Y-134101462D01*
X79004165Y-133883747D02*
X79270261Y-133883747D01*
X79318642Y-133907938D01*
X79342832Y-133956319D01*
X79342832Y-134028890D01*
X79318642Y-134077271D01*
X79294451Y-134101462D01*
X79052546Y-133641843D02*
X79028356Y-133617652D01*
X79004165Y-133641843D01*
X79028356Y-133666033D01*
X79052546Y-133641843D01*
X79004165Y-133641843D01*
X79004165Y-133375747D02*
X79004165Y-133278985D01*
X79028356Y-133230604D01*
X79052546Y-133206414D01*
X79125118Y-133158033D01*
X79221880Y-133133842D01*
X79415404Y-133133842D01*
X79463785Y-133158033D01*
X79487975Y-133182223D01*
X79512165Y-133230604D01*
X79512165Y-133327366D01*
X79487975Y-133375747D01*
X79463785Y-133399938D01*
X79415404Y-133424128D01*
X79294451Y-133424128D01*
X79246070Y-133399938D01*
X79221880Y-133375747D01*
X79197689Y-133327366D01*
X79197689Y-133230604D01*
X79221880Y-133182223D01*
X79246070Y-133158033D01*
X79294451Y-133133842D01*
X77909546Y-134319176D02*
X77885356Y-134343366D01*
X77861165Y-134415938D01*
X77861165Y-134464319D01*
X77885356Y-134536890D01*
X77933737Y-134585271D01*
X77982118Y-134609462D01*
X78078880Y-134633652D01*
X78151451Y-134633652D01*
X78248213Y-134609462D01*
X78296594Y-134585271D01*
X78344975Y-134536890D01*
X78369165Y-134464319D01*
X78369165Y-134415938D01*
X78344975Y-134343366D01*
X78320785Y-134319176D01*
X77861165Y-134101462D02*
X78369165Y-134101462D01*
X77861165Y-133883747D02*
X78127261Y-133883747D01*
X78175642Y-133907938D01*
X78199832Y-133956319D01*
X78199832Y-134028890D01*
X78175642Y-134077271D01*
X78151451Y-134101462D01*
X77909546Y-133641843D02*
X77885356Y-133617652D01*
X77861165Y-133641843D01*
X77885356Y-133666033D01*
X77909546Y-133641843D01*
X77861165Y-133641843D01*
X78151451Y-133327366D02*
X78175642Y-133375747D01*
X78199832Y-133399938D01*
X78248213Y-133424128D01*
X78272404Y-133424128D01*
X78320785Y-133399938D01*
X78344975Y-133375747D01*
X78369165Y-133327366D01*
X78369165Y-133230604D01*
X78344975Y-133182223D01*
X78320785Y-133158033D01*
X78272404Y-133133842D01*
X78248213Y-133133842D01*
X78199832Y-133158033D01*
X78175642Y-133182223D01*
X78151451Y-133230604D01*
X78151451Y-133327366D01*
X78127261Y-133375747D01*
X78103070Y-133399938D01*
X78054689Y-133424128D01*
X77957927Y-133424128D01*
X77909546Y-133399938D01*
X77885356Y-133375747D01*
X77861165Y-133327366D01*
X77861165Y-133230604D01*
X77885356Y-133182223D01*
X77909546Y-133158033D01*
X77957927Y-133133842D01*
X78054689Y-133133842D01*
X78103070Y-133158033D01*
X78127261Y-133182223D01*
X78151451Y-133230604D01*
X76639546Y-134319176D02*
X76615356Y-134343366D01*
X76591165Y-134415938D01*
X76591165Y-134464319D01*
X76615356Y-134536890D01*
X76663737Y-134585271D01*
X76712118Y-134609462D01*
X76808880Y-134633652D01*
X76881451Y-134633652D01*
X76978213Y-134609462D01*
X77026594Y-134585271D01*
X77074975Y-134536890D01*
X77099165Y-134464319D01*
X77099165Y-134415938D01*
X77074975Y-134343366D01*
X77050785Y-134319176D01*
X76591165Y-134101462D02*
X77099165Y-134101462D01*
X76591165Y-133883747D02*
X76857261Y-133883747D01*
X76905642Y-133907938D01*
X76929832Y-133956319D01*
X76929832Y-134028890D01*
X76905642Y-134077271D01*
X76881451Y-134101462D01*
X76639546Y-133641843D02*
X76615356Y-133617652D01*
X76591165Y-133641843D01*
X76615356Y-133666033D01*
X76639546Y-133641843D01*
X76591165Y-133641843D01*
X77099165Y-133448319D02*
X77099165Y-133109652D01*
X76591165Y-133327366D01*
X75369546Y-134319176D02*
X75345356Y-134343366D01*
X75321165Y-134415938D01*
X75321165Y-134464319D01*
X75345356Y-134536890D01*
X75393737Y-134585271D01*
X75442118Y-134609462D01*
X75538880Y-134633652D01*
X75611451Y-134633652D01*
X75708213Y-134609462D01*
X75756594Y-134585271D01*
X75804975Y-134536890D01*
X75829165Y-134464319D01*
X75829165Y-134415938D01*
X75804975Y-134343366D01*
X75780785Y-134319176D01*
X75321165Y-134101462D02*
X75829165Y-134101462D01*
X75321165Y-133883747D02*
X75587261Y-133883747D01*
X75635642Y-133907938D01*
X75659832Y-133956319D01*
X75659832Y-134028890D01*
X75635642Y-134077271D01*
X75611451Y-134101462D01*
X75369546Y-133641843D02*
X75345356Y-133617652D01*
X75321165Y-133641843D01*
X75345356Y-133666033D01*
X75369546Y-133641843D01*
X75321165Y-133641843D01*
X75829165Y-133182223D02*
X75829165Y-133278985D01*
X75804975Y-133327366D01*
X75780785Y-133351557D01*
X75708213Y-133399938D01*
X75611451Y-133424128D01*
X75417927Y-133424128D01*
X75369546Y-133399938D01*
X75345356Y-133375747D01*
X75321165Y-133327366D01*
X75321165Y-133230604D01*
X75345356Y-133182223D01*
X75369546Y-133158033D01*
X75417927Y-133133842D01*
X75538880Y-133133842D01*
X75587261Y-133158033D01*
X75611451Y-133182223D01*
X75635642Y-133230604D01*
X75635642Y-133327366D01*
X75611451Y-133375747D01*
X75587261Y-133399938D01*
X75538880Y-133424128D01*
X68130546Y-134319176D02*
X68106356Y-134343366D01*
X68082165Y-134415938D01*
X68082165Y-134464319D01*
X68106356Y-134536890D01*
X68154737Y-134585271D01*
X68203118Y-134609462D01*
X68299880Y-134633652D01*
X68372451Y-134633652D01*
X68469213Y-134609462D01*
X68517594Y-134585271D01*
X68565975Y-134536890D01*
X68590165Y-134464319D01*
X68590165Y-134415938D01*
X68565975Y-134343366D01*
X68541785Y-134319176D01*
X68082165Y-134101462D02*
X68590165Y-134101462D01*
X68082165Y-133883747D02*
X68348261Y-133883747D01*
X68396642Y-133907938D01*
X68420832Y-133956319D01*
X68420832Y-134028890D01*
X68396642Y-134077271D01*
X68372451Y-134101462D01*
X68130546Y-133641843D02*
X68106356Y-133617652D01*
X68082165Y-133641843D01*
X68106356Y-133666033D01*
X68130546Y-133641843D01*
X68082165Y-133641843D01*
X68590165Y-133158033D02*
X68590165Y-133399938D01*
X68348261Y-133424128D01*
X68372451Y-133399938D01*
X68396642Y-133351557D01*
X68396642Y-133230604D01*
X68372451Y-133182223D01*
X68348261Y-133158033D01*
X68299880Y-133133842D01*
X68178927Y-133133842D01*
X68130546Y-133158033D01*
X68106356Y-133182223D01*
X68082165Y-133230604D01*
X68082165Y-133351557D01*
X68106356Y-133399938D01*
X68130546Y-133424128D01*
X66860546Y-134319176D02*
X66836356Y-134343366D01*
X66812165Y-134415938D01*
X66812165Y-134464319D01*
X66836356Y-134536890D01*
X66884737Y-134585271D01*
X66933118Y-134609462D01*
X67029880Y-134633652D01*
X67102451Y-134633652D01*
X67199213Y-134609462D01*
X67247594Y-134585271D01*
X67295975Y-134536890D01*
X67320165Y-134464319D01*
X67320165Y-134415938D01*
X67295975Y-134343366D01*
X67271785Y-134319176D01*
X66812165Y-134101462D02*
X67320165Y-134101462D01*
X66812165Y-133883747D02*
X67078261Y-133883747D01*
X67126642Y-133907938D01*
X67150832Y-133956319D01*
X67150832Y-134028890D01*
X67126642Y-134077271D01*
X67102451Y-134101462D01*
X66860546Y-133641843D02*
X66836356Y-133617652D01*
X66812165Y-133641843D01*
X66836356Y-133666033D01*
X66860546Y-133641843D01*
X66812165Y-133641843D01*
X67150832Y-133182223D02*
X66812165Y-133182223D01*
X67344356Y-133303176D02*
X66981499Y-133424128D01*
X66981499Y-133109652D01*
X65717546Y-134319176D02*
X65693356Y-134343366D01*
X65669165Y-134415938D01*
X65669165Y-134464319D01*
X65693356Y-134536890D01*
X65741737Y-134585271D01*
X65790118Y-134609462D01*
X65886880Y-134633652D01*
X65959451Y-134633652D01*
X66056213Y-134609462D01*
X66104594Y-134585271D01*
X66152975Y-134536890D01*
X66177165Y-134464319D01*
X66177165Y-134415938D01*
X66152975Y-134343366D01*
X66128785Y-134319176D01*
X65669165Y-134101462D02*
X66177165Y-134101462D01*
X65669165Y-133883747D02*
X65935261Y-133883747D01*
X65983642Y-133907938D01*
X66007832Y-133956319D01*
X66007832Y-134028890D01*
X65983642Y-134077271D01*
X65959451Y-134101462D01*
X65717546Y-133641843D02*
X65693356Y-133617652D01*
X65669165Y-133641843D01*
X65693356Y-133666033D01*
X65717546Y-133641843D01*
X65669165Y-133641843D01*
X66177165Y-133448319D02*
X66177165Y-133133842D01*
X65983642Y-133303176D01*
X65983642Y-133230604D01*
X65959451Y-133182223D01*
X65935261Y-133158033D01*
X65886880Y-133133842D01*
X65765927Y-133133842D01*
X65717546Y-133158033D01*
X65693356Y-133182223D01*
X65669165Y-133230604D01*
X65669165Y-133375747D01*
X65693356Y-133424128D01*
X65717546Y-133448319D01*
X64447546Y-134319176D02*
X64423356Y-134343366D01*
X64399165Y-134415938D01*
X64399165Y-134464319D01*
X64423356Y-134536890D01*
X64471737Y-134585271D01*
X64520118Y-134609462D01*
X64616880Y-134633652D01*
X64689451Y-134633652D01*
X64786213Y-134609462D01*
X64834594Y-134585271D01*
X64882975Y-134536890D01*
X64907165Y-134464319D01*
X64907165Y-134415938D01*
X64882975Y-134343366D01*
X64858785Y-134319176D01*
X64399165Y-134101462D02*
X64907165Y-134101462D01*
X64399165Y-133883747D02*
X64665261Y-133883747D01*
X64713642Y-133907938D01*
X64737832Y-133956319D01*
X64737832Y-134028890D01*
X64713642Y-134077271D01*
X64689451Y-134101462D01*
X64447546Y-133641843D02*
X64423356Y-133617652D01*
X64399165Y-133641843D01*
X64423356Y-133666033D01*
X64447546Y-133641843D01*
X64399165Y-133641843D01*
X64858785Y-133424128D02*
X64882975Y-133399938D01*
X64907165Y-133351557D01*
X64907165Y-133230604D01*
X64882975Y-133182223D01*
X64858785Y-133158033D01*
X64810404Y-133133842D01*
X64762023Y-133133842D01*
X64689451Y-133158033D01*
X64399165Y-133448319D01*
X64399165Y-133133842D01*
X63177546Y-134319176D02*
X63153356Y-134343366D01*
X63129165Y-134415938D01*
X63129165Y-134464319D01*
X63153356Y-134536890D01*
X63201737Y-134585271D01*
X63250118Y-134609462D01*
X63346880Y-134633652D01*
X63419451Y-134633652D01*
X63516213Y-134609462D01*
X63564594Y-134585271D01*
X63612975Y-134536890D01*
X63637165Y-134464319D01*
X63637165Y-134415938D01*
X63612975Y-134343366D01*
X63588785Y-134319176D01*
X63129165Y-134101462D02*
X63637165Y-134101462D01*
X63129165Y-133883747D02*
X63395261Y-133883747D01*
X63443642Y-133907938D01*
X63467832Y-133956319D01*
X63467832Y-134028890D01*
X63443642Y-134077271D01*
X63419451Y-134101462D01*
X63177546Y-133641843D02*
X63153356Y-133617652D01*
X63129165Y-133641843D01*
X63153356Y-133666033D01*
X63177546Y-133641843D01*
X63129165Y-133641843D01*
X63129165Y-133133842D02*
X63129165Y-133424128D01*
X63129165Y-133278985D02*
X63637165Y-133278985D01*
X63564594Y-133327366D01*
X63516213Y-133375747D01*
X63492023Y-133424128D01*
X61907546Y-134319176D02*
X61883356Y-134343366D01*
X61859165Y-134415938D01*
X61859165Y-134464319D01*
X61883356Y-134536890D01*
X61931737Y-134585271D01*
X61980118Y-134609462D01*
X62076880Y-134633652D01*
X62149451Y-134633652D01*
X62246213Y-134609462D01*
X62294594Y-134585271D01*
X62342975Y-134536890D01*
X62367165Y-134464319D01*
X62367165Y-134415938D01*
X62342975Y-134343366D01*
X62318785Y-134319176D01*
X61859165Y-134101462D02*
X62367165Y-134101462D01*
X61859165Y-133883747D02*
X62125261Y-133883747D01*
X62173642Y-133907938D01*
X62197832Y-133956319D01*
X62197832Y-134028890D01*
X62173642Y-134077271D01*
X62149451Y-134101462D01*
X61907546Y-133641843D02*
X61883356Y-133617652D01*
X61859165Y-133641843D01*
X61883356Y-133666033D01*
X61907546Y-133641843D01*
X61859165Y-133641843D01*
X62367165Y-133303176D02*
X62367165Y-133254795D01*
X62342975Y-133206414D01*
X62318785Y-133182223D01*
X62270404Y-133158033D01*
X62173642Y-133133842D01*
X62052689Y-133133842D01*
X61955927Y-133158033D01*
X61907546Y-133182223D01*
X61883356Y-133206414D01*
X61859165Y-133254795D01*
X61859165Y-133303176D01*
X61883356Y-133351557D01*
X61907546Y-133375747D01*
X61955927Y-133399938D01*
X62052689Y-133424128D01*
X62173642Y-133424128D01*
X62270404Y-133399938D01*
X62318785Y-133375747D01*
X62342975Y-133351557D01*
X62367165Y-133303176D01*
D13*
X71309600Y-68714400D02*
X51199600Y-68714400D01*
X71309600Y-78184400D02*
X67799600Y-78184400D01*
X71309600Y-68714400D02*
X71309600Y-78184400D01*
X67799600Y-85994400D02*
X67799600Y-78184400D01*
X67799600Y-85994400D02*
X54719600Y-85994400D01*
X54719600Y-85994400D02*
X54719600Y-78184400D01*
X54719600Y-78184400D02*
X51199600Y-78184400D01*
X51199600Y-68714400D02*
X51199600Y-78184400D01*
X112061600Y-68765200D02*
X91951600Y-68765200D01*
X112061600Y-78235200D02*
X108551600Y-78235200D01*
X112061600Y-68765200D02*
X112061600Y-78235200D01*
X108551600Y-86045200D02*
X108551600Y-78235200D01*
X108551600Y-86045200D02*
X95471600Y-86045200D01*
X95471600Y-86045200D02*
X95471600Y-78235200D01*
X95471600Y-78235200D02*
X91951600Y-78235200D01*
X91951600Y-68765200D02*
X91951600Y-78235200D01*
X152803200Y-68765200D02*
X132693200Y-68765200D01*
X152803200Y-78235200D02*
X149293200Y-78235200D01*
X152803200Y-68765200D02*
X152803200Y-78235200D01*
X149293200Y-86045200D02*
X149293200Y-78235200D01*
X149293200Y-86045200D02*
X136213200Y-86045200D01*
X136213200Y-86045200D02*
X136213200Y-78235200D01*
X136213200Y-78235200D02*
X132693200Y-78235200D01*
X132693200Y-68765200D02*
X132693200Y-78235200D01*
X59643651Y-129924737D02*
X60405651Y-129924737D01*
X60405651Y-129924737D02*
X60405651Y-128400737D01*
X60405651Y-128400737D02*
X59643651Y-128400737D01*
X70819651Y-130940737D02*
X70819651Y-127384737D01*
X70819651Y-127384737D02*
X59643651Y-127384737D01*
X59643651Y-127384737D02*
X59643651Y-130940737D01*
X59643651Y-130940737D02*
X70819651Y-130940737D01*
X73105651Y-129924737D02*
X73867651Y-129924737D01*
X73867651Y-129924737D02*
X73867651Y-128400737D01*
X73867651Y-128400737D02*
X73105651Y-128400737D01*
X84281651Y-130940737D02*
X84281651Y-127384737D01*
X84281651Y-127384737D02*
X73105651Y-127384737D01*
X73105651Y-127384737D02*
X73105651Y-130940737D01*
X73105651Y-130940737D02*
X84281651Y-130940737D01*
X150088600Y-118618000D02*
X150088600Y-88138000D01*
X150088600Y-118618000D02*
X208508600Y-118618000D01*
X150088600Y-88138000D02*
X208508600Y-88138000D01*
X208508600Y-118618000D02*
X208508600Y-88138000D01*
X208584800Y-119075200D02*
X208584800Y-149555200D01*
X208584800Y-119075200D02*
X150164800Y-119075200D01*
X208584800Y-149555200D02*
X150164800Y-149555200D01*
X150164800Y-119075200D02*
X150164800Y-149555200D01*
X89890600Y-118614262D02*
X89890600Y-88134262D01*
X89890600Y-118614262D02*
X148310600Y-118614262D01*
X89890600Y-88134262D02*
X148310600Y-88134262D01*
X148310600Y-118614262D02*
X148310600Y-88134262D01*
X148310600Y-118999000D02*
X148310600Y-149479000D01*
X148310600Y-118999000D02*
X89890600Y-118999000D01*
X148310600Y-149479000D02*
X89890600Y-149479000D01*
X89890600Y-118999000D02*
X89890600Y-149479000D01*
X193646400Y-68739800D02*
X173536400Y-68739800D01*
X193646400Y-78209800D02*
X190136400Y-78209800D01*
X193646400Y-68739800D02*
X193646400Y-78209800D01*
X190136400Y-86019800D02*
X190136400Y-78209800D01*
X190136400Y-86019800D02*
X177056400Y-86019800D01*
X177056400Y-86019800D02*
X177056400Y-78209800D01*
X177056400Y-78209800D02*
X173536400Y-78209800D01*
X173536400Y-68739800D02*
X173536400Y-78209800D01*
X62553695Y-69327781D02*
X62553695Y-70137305D01*
X62506076Y-70232543D01*
X62458457Y-70280162D01*
X62363219Y-70327781D01*
X62172742Y-70327781D01*
X62077504Y-70280162D01*
X62029885Y-70232543D01*
X61982266Y-70137305D01*
X61982266Y-69327781D01*
X60982266Y-70327781D02*
X61553695Y-70327781D01*
X61267981Y-70327781D02*
X61267981Y-69327781D01*
X61363219Y-69470638D01*
X61458457Y-69565876D01*
X61553695Y-69613495D01*
X60125123Y-69327781D02*
X60315600Y-69327781D01*
X60410838Y-69375400D01*
X60458457Y-69423019D01*
X60553695Y-69565876D01*
X60601314Y-69756352D01*
X60601314Y-70137305D01*
X60553695Y-70232543D01*
X60506076Y-70280162D01*
X60410838Y-70327781D01*
X60220361Y-70327781D01*
X60125123Y-70280162D01*
X60077504Y-70232543D01*
X60029885Y-70137305D01*
X60029885Y-69899210D01*
X60077504Y-69803971D01*
X60125123Y-69756352D01*
X60220361Y-69708733D01*
X60410838Y-69708733D01*
X60506076Y-69756352D01*
X60553695Y-69803971D01*
X60601314Y-69899210D01*
X103305695Y-69378581D02*
X103305695Y-70188105D01*
X103258076Y-70283343D01*
X103210457Y-70330962D01*
X103115219Y-70378581D01*
X102924742Y-70378581D01*
X102829504Y-70330962D01*
X102781885Y-70283343D01*
X102734266Y-70188105D01*
X102734266Y-69378581D01*
X101734266Y-70378581D02*
X102305695Y-70378581D01*
X102019981Y-70378581D02*
X102019981Y-69378581D01*
X102115219Y-69521438D01*
X102210457Y-69616676D01*
X102305695Y-69664295D01*
X101400933Y-69378581D02*
X100734266Y-69378581D01*
X101162838Y-70378581D01*
X144047295Y-69378581D02*
X144047295Y-70188105D01*
X143999676Y-70283343D01*
X143952057Y-70330962D01*
X143856819Y-70378581D01*
X143666342Y-70378581D01*
X143571104Y-70330962D01*
X143523485Y-70283343D01*
X143475866Y-70188105D01*
X143475866Y-69378581D01*
X142475866Y-70378581D02*
X143047295Y-70378581D01*
X142761581Y-70378581D02*
X142761581Y-69378581D01*
X142856819Y-69521438D01*
X142952057Y-69616676D01*
X143047295Y-69664295D01*
X141904438Y-69807152D02*
X141999676Y-69759533D01*
X142047295Y-69711914D01*
X142094914Y-69616676D01*
X142094914Y-69569057D01*
X142047295Y-69473819D01*
X141999676Y-69426200D01*
X141904438Y-69378581D01*
X141713961Y-69378581D01*
X141618723Y-69426200D01*
X141571104Y-69473819D01*
X141523485Y-69569057D01*
X141523485Y-69616676D01*
X141571104Y-69711914D01*
X141618723Y-69759533D01*
X141713961Y-69807152D01*
X141904438Y-69807152D01*
X141999676Y-69854771D01*
X142047295Y-69902390D01*
X142094914Y-69997629D01*
X142094914Y-70188105D01*
X142047295Y-70283343D01*
X141999676Y-70330962D01*
X141904438Y-70378581D01*
X141713961Y-70378581D01*
X141618723Y-70330962D01*
X141571104Y-70283343D01*
X141523485Y-70188105D01*
X141523485Y-69997629D01*
X141571104Y-69902390D01*
X141618723Y-69854771D01*
X141713961Y-69807152D01*
X65993556Y-129377118D02*
X65993556Y-130186642D01*
X65945937Y-130281880D01*
X65898318Y-130329499D01*
X65803080Y-130377118D01*
X65612603Y-130377118D01*
X65517365Y-130329499D01*
X65469746Y-130281880D01*
X65422127Y-130186642D01*
X65422127Y-129377118D01*
X64993556Y-129472356D02*
X64945937Y-129424737D01*
X64850699Y-129377118D01*
X64612603Y-129377118D01*
X64517365Y-129424737D01*
X64469746Y-129472356D01*
X64422127Y-129567594D01*
X64422127Y-129662832D01*
X64469746Y-129805689D01*
X65041175Y-130377118D01*
X64422127Y-130377118D01*
X79455556Y-129377118D02*
X79455556Y-130186642D01*
X79407937Y-130281880D01*
X79360318Y-130329499D01*
X79265080Y-130377118D01*
X79074603Y-130377118D01*
X78979365Y-130329499D01*
X78931746Y-130281880D01*
X78884127Y-130186642D01*
X78884127Y-129377118D01*
X78503175Y-129377118D02*
X77884127Y-129377118D01*
X78217461Y-129758070D01*
X78074603Y-129758070D01*
X77979365Y-129805689D01*
X77931746Y-129853308D01*
X77884127Y-129948547D01*
X77884127Y-130186642D01*
X77931746Y-130281880D01*
X77979365Y-130329499D01*
X78074603Y-130377118D01*
X78360318Y-130377118D01*
X78455556Y-130329499D01*
X78503175Y-130281880D01*
X183748035Y-103560796D02*
X183605178Y-103608415D01*
X183557559Y-103656035D01*
X183509940Y-103751273D01*
X183509940Y-103894130D01*
X183557559Y-103989368D01*
X183605178Y-104036987D01*
X183700416Y-104084606D01*
X184081369Y-104084606D01*
X184081369Y-103084606D01*
X183748035Y-103084606D01*
X183652797Y-103132225D01*
X183605178Y-103179844D01*
X183557559Y-103275082D01*
X183557559Y-103370320D01*
X183605178Y-103465558D01*
X183652797Y-103513177D01*
X183748035Y-103560796D01*
X184081369Y-103560796D01*
X182938512Y-104084606D02*
X183033750Y-104036987D01*
X183081369Y-103989368D01*
X183128988Y-103894130D01*
X183128988Y-103608415D01*
X183081369Y-103513177D01*
X183033750Y-103465558D01*
X182938512Y-103417939D01*
X182795654Y-103417939D01*
X182700416Y-103465558D01*
X182652797Y-103513177D01*
X182605178Y-103608415D01*
X182605178Y-103894130D01*
X182652797Y-103989368D01*
X182700416Y-104036987D01*
X182795654Y-104084606D01*
X182938512Y-104084606D01*
X181748035Y-104084606D02*
X181748035Y-103560796D01*
X181795654Y-103465558D01*
X181890892Y-103417939D01*
X182081369Y-103417939D01*
X182176607Y-103465558D01*
X181748035Y-104036987D02*
X181843273Y-104084606D01*
X182081369Y-104084606D01*
X182176607Y-104036987D01*
X182224226Y-103941749D01*
X182224226Y-103846511D01*
X182176607Y-103751273D01*
X182081369Y-103703654D01*
X181843273Y-103703654D01*
X181748035Y-103656035D01*
X181271845Y-104084606D02*
X181271845Y-103417939D01*
X181271845Y-103608415D02*
X181224226Y-103513177D01*
X181176607Y-103465558D01*
X181081369Y-103417939D01*
X180986130Y-103417939D01*
X180224225Y-104084606D02*
X180224225Y-103084606D01*
X180224225Y-104036987D02*
X180319463Y-104084606D01*
X180509940Y-104084606D01*
X180605178Y-104036987D01*
X180652797Y-103989368D01*
X180700416Y-103894130D01*
X180700416Y-103608415D01*
X180652797Y-103513177D01*
X180605178Y-103465558D01*
X180509940Y-103417939D01*
X180319463Y-103417939D01*
X180224225Y-103465558D01*
X178986130Y-104084606D02*
X178986130Y-103084606D01*
X178748035Y-103084606D01*
X178605177Y-103132225D01*
X178509939Y-103227463D01*
X178462320Y-103322701D01*
X178414701Y-103513177D01*
X178414701Y-103656035D01*
X178462320Y-103846511D01*
X178509939Y-103941749D01*
X178605177Y-104036987D01*
X178748035Y-104084606D01*
X178986130Y-104084606D01*
X177986130Y-104084606D02*
X177986130Y-103417939D01*
X177986130Y-103608415D02*
X177938511Y-103513177D01*
X177890892Y-103465558D01*
X177795654Y-103417939D01*
X177700415Y-103417939D01*
X177367082Y-104084606D02*
X177367082Y-103417939D01*
X177367082Y-103084606D02*
X177414701Y-103132225D01*
X177367082Y-103179844D01*
X177319463Y-103132225D01*
X177367082Y-103084606D01*
X177367082Y-103179844D01*
X176986130Y-103417939D02*
X176748035Y-104084606D01*
X176509939Y-103417939D01*
X175748034Y-104036987D02*
X175843272Y-104084606D01*
X176033749Y-104084606D01*
X176128987Y-104036987D01*
X176176606Y-103941749D01*
X176176606Y-103560796D01*
X176128987Y-103465558D01*
X176033749Y-103417939D01*
X175843272Y-103417939D01*
X175748034Y-103465558D01*
X175700415Y-103560796D01*
X175700415Y-103656035D01*
X176176606Y-103751273D01*
X174319463Y-103084606D02*
X174224224Y-103084606D01*
X174128986Y-103132225D01*
X174081367Y-103179844D01*
X174033748Y-103275082D01*
X173986129Y-103465558D01*
X173986129Y-103703654D01*
X174033748Y-103894130D01*
X174081367Y-103989368D01*
X174128986Y-104036987D01*
X174224224Y-104084606D01*
X174319463Y-104084606D01*
X174414701Y-104036987D01*
X174462320Y-103989368D01*
X174509939Y-103894130D01*
X174557558Y-103703654D01*
X174557558Y-103465558D01*
X174509939Y-103275082D01*
X174462320Y-103179844D01*
X174414701Y-103132225D01*
X174319463Y-103084606D01*
X183698719Y-134241706D02*
X183555862Y-134289325D01*
X183508243Y-134336945D01*
X183460624Y-134432183D01*
X183460624Y-134575040D01*
X183508243Y-134670278D01*
X183555862Y-134717897D01*
X183651100Y-134765516D01*
X184032053Y-134765516D01*
X184032053Y-133765516D01*
X183698719Y-133765516D01*
X183603481Y-133813135D01*
X183555862Y-133860754D01*
X183508243Y-133955992D01*
X183508243Y-134051230D01*
X183555862Y-134146468D01*
X183603481Y-134194087D01*
X183698719Y-134241706D01*
X184032053Y-134241706D01*
X182889196Y-134765516D02*
X182984434Y-134717897D01*
X183032053Y-134670278D01*
X183079672Y-134575040D01*
X183079672Y-134289325D01*
X183032053Y-134194087D01*
X182984434Y-134146468D01*
X182889196Y-134098849D01*
X182746338Y-134098849D01*
X182651100Y-134146468D01*
X182603481Y-134194087D01*
X182555862Y-134289325D01*
X182555862Y-134575040D01*
X182603481Y-134670278D01*
X182651100Y-134717897D01*
X182746338Y-134765516D01*
X182889196Y-134765516D01*
X181698719Y-134765516D02*
X181698719Y-134241706D01*
X181746338Y-134146468D01*
X181841576Y-134098849D01*
X182032053Y-134098849D01*
X182127291Y-134146468D01*
X181698719Y-134717897D02*
X181793957Y-134765516D01*
X182032053Y-134765516D01*
X182127291Y-134717897D01*
X182174910Y-134622659D01*
X182174910Y-134527421D01*
X182127291Y-134432183D01*
X182032053Y-134384564D01*
X181793957Y-134384564D01*
X181698719Y-134336945D01*
X181222529Y-134765516D02*
X181222529Y-134098849D01*
X181222529Y-134289325D02*
X181174910Y-134194087D01*
X181127291Y-134146468D01*
X181032053Y-134098849D01*
X180936814Y-134098849D01*
X180174909Y-134765516D02*
X180174909Y-133765516D01*
X180174909Y-134717897D02*
X180270147Y-134765516D01*
X180460624Y-134765516D01*
X180555862Y-134717897D01*
X180603481Y-134670278D01*
X180651100Y-134575040D01*
X180651100Y-134289325D01*
X180603481Y-134194087D01*
X180555862Y-134146468D01*
X180460624Y-134098849D01*
X180270147Y-134098849D01*
X180174909Y-134146468D01*
X178936814Y-134765516D02*
X178936814Y-133765516D01*
X178698719Y-133765516D01*
X178555861Y-133813135D01*
X178460623Y-133908373D01*
X178413004Y-134003611D01*
X178365385Y-134194087D01*
X178365385Y-134336945D01*
X178413004Y-134527421D01*
X178460623Y-134622659D01*
X178555861Y-134717897D01*
X178698719Y-134765516D01*
X178936814Y-134765516D01*
X177936814Y-134765516D02*
X177936814Y-134098849D01*
X177936814Y-134289325D02*
X177889195Y-134194087D01*
X177841576Y-134146468D01*
X177746338Y-134098849D01*
X177651099Y-134098849D01*
X177317766Y-134765516D02*
X177317766Y-134098849D01*
X177317766Y-133765516D02*
X177365385Y-133813135D01*
X177317766Y-133860754D01*
X177270147Y-133813135D01*
X177317766Y-133765516D01*
X177317766Y-133860754D01*
X176936814Y-134098849D02*
X176698719Y-134765516D01*
X176460623Y-134098849D01*
X175698718Y-134717897D02*
X175793956Y-134765516D01*
X175984433Y-134765516D01*
X176079671Y-134717897D01*
X176127290Y-134622659D01*
X176127290Y-134241706D01*
X176079671Y-134146468D01*
X175984433Y-134098849D01*
X175793956Y-134098849D01*
X175698718Y-134146468D01*
X175651099Y-134241706D01*
X175651099Y-134336945D01*
X176127290Y-134432183D01*
X173936813Y-134765516D02*
X174508242Y-134765516D01*
X174222528Y-134765516D02*
X174222528Y-133765516D01*
X174317766Y-133908373D01*
X174413004Y-134003611D01*
X174508242Y-134051230D01*
X125062734Y-104068571D02*
X124919877Y-104116190D01*
X124872258Y-104163810D01*
X124824639Y-104259048D01*
X124824639Y-104401905D01*
X124872258Y-104497143D01*
X124919877Y-104544762D01*
X125015115Y-104592381D01*
X125396068Y-104592381D01*
X125396068Y-103592381D01*
X125062734Y-103592381D01*
X124967496Y-103640000D01*
X124919877Y-103687619D01*
X124872258Y-103782857D01*
X124872258Y-103878095D01*
X124919877Y-103973333D01*
X124967496Y-104020952D01*
X125062734Y-104068571D01*
X125396068Y-104068571D01*
X124253211Y-104592381D02*
X124348449Y-104544762D01*
X124396068Y-104497143D01*
X124443687Y-104401905D01*
X124443687Y-104116190D01*
X124396068Y-104020952D01*
X124348449Y-103973333D01*
X124253211Y-103925714D01*
X124110353Y-103925714D01*
X124015115Y-103973333D01*
X123967496Y-104020952D01*
X123919877Y-104116190D01*
X123919877Y-104401905D01*
X123967496Y-104497143D01*
X124015115Y-104544762D01*
X124110353Y-104592381D01*
X124253211Y-104592381D01*
X123062734Y-104592381D02*
X123062734Y-104068571D01*
X123110353Y-103973333D01*
X123205591Y-103925714D01*
X123396068Y-103925714D01*
X123491306Y-103973333D01*
X123062734Y-104544762D02*
X123157972Y-104592381D01*
X123396068Y-104592381D01*
X123491306Y-104544762D01*
X123538925Y-104449524D01*
X123538925Y-104354286D01*
X123491306Y-104259048D01*
X123396068Y-104211429D01*
X123157972Y-104211429D01*
X123062734Y-104163810D01*
X122586544Y-104592381D02*
X122586544Y-103925714D01*
X122586544Y-104116190D02*
X122538925Y-104020952D01*
X122491306Y-103973333D01*
X122396068Y-103925714D01*
X122300829Y-103925714D01*
X121538924Y-104592381D02*
X121538924Y-103592381D01*
X121538924Y-104544762D02*
X121634162Y-104592381D01*
X121824639Y-104592381D01*
X121919877Y-104544762D01*
X121967496Y-104497143D01*
X122015115Y-104401905D01*
X122015115Y-104116190D01*
X121967496Y-104020952D01*
X121919877Y-103973333D01*
X121824639Y-103925714D01*
X121634162Y-103925714D01*
X121538924Y-103973333D01*
X120300829Y-104592381D02*
X120300829Y-103592381D01*
X120062734Y-103592381D01*
X119919876Y-103640000D01*
X119824638Y-103735238D01*
X119777019Y-103830476D01*
X119729400Y-104020952D01*
X119729400Y-104163810D01*
X119777019Y-104354286D01*
X119824638Y-104449524D01*
X119919876Y-104544762D01*
X120062734Y-104592381D01*
X120300829Y-104592381D01*
X119300829Y-104592381D02*
X119300829Y-103925714D01*
X119300829Y-104116190D02*
X119253210Y-104020952D01*
X119205591Y-103973333D01*
X119110353Y-103925714D01*
X119015114Y-103925714D01*
X118681781Y-104592381D02*
X118681781Y-103925714D01*
X118681781Y-103592381D02*
X118729400Y-103640000D01*
X118681781Y-103687619D01*
X118634162Y-103640000D01*
X118681781Y-103592381D01*
X118681781Y-103687619D01*
X118300829Y-103925714D02*
X118062734Y-104592381D01*
X117824638Y-103925714D01*
X117062733Y-104544762D02*
X117157971Y-104592381D01*
X117348448Y-104592381D01*
X117443686Y-104544762D01*
X117491305Y-104449524D01*
X117491305Y-104068571D01*
X117443686Y-103973333D01*
X117348448Y-103925714D01*
X117157971Y-103925714D01*
X117062733Y-103973333D01*
X117015114Y-104068571D01*
X117015114Y-104163810D01*
X117491305Y-104259048D01*
X115872257Y-103687619D02*
X115824638Y-103640000D01*
X115729400Y-103592381D01*
X115491304Y-103592381D01*
X115396066Y-103640000D01*
X115348447Y-103687619D01*
X115300828Y-103782857D01*
X115300828Y-103878095D01*
X115348447Y-104020952D01*
X115919876Y-104592381D01*
X115300828Y-104592381D01*
X124476876Y-134091371D02*
X124334019Y-134138990D01*
X124286400Y-134186610D01*
X124238781Y-134281848D01*
X124238781Y-134424705D01*
X124286400Y-134519943D01*
X124334019Y-134567562D01*
X124429257Y-134615181D01*
X124810210Y-134615181D01*
X124810210Y-133615181D01*
X124476876Y-133615181D01*
X124381638Y-133662800D01*
X124334019Y-133710419D01*
X124286400Y-133805657D01*
X124286400Y-133900895D01*
X124334019Y-133996133D01*
X124381638Y-134043752D01*
X124476876Y-134091371D01*
X124810210Y-134091371D01*
X123667353Y-134615181D02*
X123762591Y-134567562D01*
X123810210Y-134519943D01*
X123857829Y-134424705D01*
X123857829Y-134138990D01*
X123810210Y-134043752D01*
X123762591Y-133996133D01*
X123667353Y-133948514D01*
X123524495Y-133948514D01*
X123429257Y-133996133D01*
X123381638Y-134043752D01*
X123334019Y-134138990D01*
X123334019Y-134424705D01*
X123381638Y-134519943D01*
X123429257Y-134567562D01*
X123524495Y-134615181D01*
X123667353Y-134615181D01*
X122476876Y-134615181D02*
X122476876Y-134091371D01*
X122524495Y-133996133D01*
X122619733Y-133948514D01*
X122810210Y-133948514D01*
X122905448Y-133996133D01*
X122476876Y-134567562D02*
X122572114Y-134615181D01*
X122810210Y-134615181D01*
X122905448Y-134567562D01*
X122953067Y-134472324D01*
X122953067Y-134377086D01*
X122905448Y-134281848D01*
X122810210Y-134234229D01*
X122572114Y-134234229D01*
X122476876Y-134186610D01*
X122000686Y-134615181D02*
X122000686Y-133948514D01*
X122000686Y-134138990D02*
X121953067Y-134043752D01*
X121905448Y-133996133D01*
X121810210Y-133948514D01*
X121714971Y-133948514D01*
X120953066Y-134615181D02*
X120953066Y-133615181D01*
X120953066Y-134567562D02*
X121048304Y-134615181D01*
X121238781Y-134615181D01*
X121334019Y-134567562D01*
X121381638Y-134519943D01*
X121429257Y-134424705D01*
X121429257Y-134138990D01*
X121381638Y-134043752D01*
X121334019Y-133996133D01*
X121238781Y-133948514D01*
X121048304Y-133948514D01*
X120953066Y-133996133D01*
X119714971Y-134615181D02*
X119714971Y-133615181D01*
X119476876Y-133615181D01*
X119334018Y-133662800D01*
X119238780Y-133758038D01*
X119191161Y-133853276D01*
X119143542Y-134043752D01*
X119143542Y-134186610D01*
X119191161Y-134377086D01*
X119238780Y-134472324D01*
X119334018Y-134567562D01*
X119476876Y-134615181D01*
X119714971Y-134615181D01*
X118714971Y-134615181D02*
X118714971Y-133948514D01*
X118714971Y-134138990D02*
X118667352Y-134043752D01*
X118619733Y-133996133D01*
X118524495Y-133948514D01*
X118429256Y-133948514D01*
X118095923Y-134615181D02*
X118095923Y-133948514D01*
X118095923Y-133615181D02*
X118143542Y-133662800D01*
X118095923Y-133710419D01*
X118048304Y-133662800D01*
X118095923Y-133615181D01*
X118095923Y-133710419D01*
X117714971Y-133948514D02*
X117476876Y-134615181D01*
X117238780Y-133948514D01*
X116476875Y-134567562D02*
X116572113Y-134615181D01*
X116762590Y-134615181D01*
X116857828Y-134567562D01*
X116905447Y-134472324D01*
X116905447Y-134091371D01*
X116857828Y-133996133D01*
X116762590Y-133948514D01*
X116572113Y-133948514D01*
X116476875Y-133996133D01*
X116429256Y-134091371D01*
X116429256Y-134186610D01*
X116905447Y-134281848D01*
X115334018Y-133615181D02*
X114714970Y-133615181D01*
X115048304Y-133996133D01*
X114905446Y-133996133D01*
X114810208Y-134043752D01*
X114762589Y-134091371D01*
X114714970Y-134186610D01*
X114714970Y-134424705D01*
X114762589Y-134519943D01*
X114810208Y-134567562D01*
X114905446Y-134615181D01*
X115191161Y-134615181D01*
X115286399Y-134567562D01*
X115334018Y-134519943D01*
X184890495Y-69353181D02*
X184890495Y-70162705D01*
X184842876Y-70257943D01*
X184795257Y-70305562D01*
X184700019Y-70353181D01*
X184509542Y-70353181D01*
X184414304Y-70305562D01*
X184366685Y-70257943D01*
X184319066Y-70162705D01*
X184319066Y-69353181D01*
X183319066Y-70353181D02*
X183890495Y-70353181D01*
X183604781Y-70353181D02*
X183604781Y-69353181D01*
X183700019Y-69496038D01*
X183795257Y-69591276D01*
X183890495Y-69638895D01*
X182842876Y-70353181D02*
X182652400Y-70353181D01*
X182557161Y-70305562D01*
X182509542Y-70257943D01*
X182414304Y-70115086D01*
X182366685Y-69924610D01*
X182366685Y-69543657D01*
X182414304Y-69448419D01*
X182461923Y-69400800D01*
X182557161Y-69353181D01*
X182747638Y-69353181D01*
X182842876Y-69400800D01*
X182890495Y-69448419D01*
X182938114Y-69543657D01*
X182938114Y-69781752D01*
X182890495Y-69876990D01*
X182842876Y-69924610D01*
X182747638Y-69972229D01*
X182557161Y-69972229D01*
X182461923Y-69924610D01*
X182414304Y-69876990D01*
X182366685Y-69781752D01*
%LPC*%
D14*
X64109600Y-76479400D03*
X58409600Y-76479400D03*
X64109600Y-82179400D03*
X58409600Y-82179400D03*
D15*
X53239600Y-76154400D03*
X69279600Y-76154400D03*
D14*
X104861600Y-76530200D03*
X99161600Y-76530200D03*
X104861600Y-82230200D03*
X99161600Y-82230200D03*
D15*
X93991600Y-76205200D03*
X110031600Y-76205200D03*
D16*
X86440651Y-137952737D03*
X55960651Y-125252737D03*
D17*
X54436651Y-114076737D03*
D18*
X54436651Y-119156737D03*
X78820651Y-138968737D03*
X76280651Y-138968737D03*
X73740651Y-138968737D03*
X71200651Y-138968737D03*
X68660651Y-138968737D03*
X66120651Y-138968737D03*
D17*
X63580651Y-138968737D03*
D18*
X54436651Y-116616737D03*
X56976651Y-119156737D03*
X56976651Y-116616737D03*
X59516651Y-119156737D03*
X59516651Y-116616737D03*
X62056651Y-119156737D03*
X62056651Y-116616737D03*
X64596651Y-119156737D03*
X64596651Y-116616737D03*
X67136651Y-119156737D03*
X67136651Y-116616737D03*
X69676651Y-119156737D03*
X69676651Y-116616737D03*
X72216651Y-119156737D03*
X72216651Y-116616737D03*
X74756651Y-119156737D03*
X74756651Y-116616737D03*
X77296651Y-119156737D03*
X77296651Y-116616737D03*
X79836651Y-119156737D03*
X79836651Y-116616737D03*
X82376651Y-119156737D03*
X82376651Y-116616737D03*
X84916651Y-119156737D03*
X84916651Y-116616737D03*
D17*
X56976651Y-114076737D03*
X59516651Y-114076737D03*
X62056651Y-114076737D03*
X64596651Y-114076737D03*
X67136651Y-114076737D03*
X69676651Y-114076737D03*
X72216651Y-114076737D03*
X74756651Y-114076737D03*
X77296651Y-114076737D03*
X79836651Y-114076737D03*
X82376651Y-114076737D03*
X84916651Y-114076737D03*
D14*
X78753800Y-76525000D03*
X84453800Y-76525000D03*
X78753800Y-82225000D03*
X84453800Y-82225000D03*
D15*
X89623800Y-76200000D03*
X73583800Y-76200000D03*
D19*
X66802000Y-94996000D03*
X59639200Y-94996000D03*
D20*
X78105000Y-60934600D03*
X83235800Y-60934600D03*
X93599000Y-60909200D03*
X98729800Y-60909200D03*
D14*
X145603200Y-76530200D03*
X139903200Y-76530200D03*
X145603200Y-82230200D03*
X139903200Y-82230200D03*
D15*
X134733200Y-76205200D03*
X150773200Y-76205200D03*
D21*
X205966942Y-90674262D03*
X205966942Y-116074262D03*
D17*
X202156942Y-117344262D03*
D18*
X202156942Y-114804262D03*
X202156942Y-112264262D03*
D21*
X152626942Y-90674262D03*
D20*
X146761200Y-60655200D03*
X151892000Y-60655200D03*
D22*
X53038000Y-147114000D03*
D14*
X160349000Y-76510000D03*
X166049000Y-76510000D03*
X160349000Y-82210000D03*
X166049000Y-82210000D03*
D15*
X171219000Y-76185000D03*
X155179000Y-76185000D03*
D20*
X63754000Y-60934600D03*
X68884800Y-60934600D03*
X164007800Y-60655200D03*
X169138600Y-60655200D03*
X180492400Y-60655200D03*
X185623200Y-60655200D03*
X110363000Y-60909200D03*
X115493800Y-60909200D03*
X196519800Y-60655200D03*
X201650600Y-60655200D03*
D19*
X66802000Y-104394000D03*
X59639200Y-104394000D03*
D23*
X60786651Y-131856737D03*
X63326651Y-131856737D03*
X64596651Y-131856737D03*
X65866651Y-131856737D03*
X67136651Y-131856737D03*
X68406651Y-131856737D03*
X69676651Y-131856737D03*
X69676651Y-126468737D03*
X68406651Y-126468737D03*
X67136651Y-126468737D03*
X65866651Y-126468737D03*
X64596651Y-126468737D03*
X63326651Y-126468737D03*
X62056651Y-126468737D03*
X60786651Y-126468737D03*
X62056651Y-131856737D03*
X74248651Y-131856737D03*
X76788651Y-131856737D03*
X78058651Y-131856737D03*
X79328651Y-131856737D03*
X80598651Y-131856737D03*
X81868651Y-131856737D03*
X83138651Y-131856737D03*
X83138651Y-126468737D03*
X81868651Y-126468737D03*
X80598651Y-126468737D03*
X79328651Y-126468737D03*
X78058651Y-126468737D03*
X76788651Y-126468737D03*
X75518651Y-126468737D03*
X74248651Y-126468737D03*
X75518651Y-131856737D03*
D21*
X152628600Y-90678000D03*
X152628600Y-116078000D03*
D17*
X156438600Y-117348000D03*
D18*
X156438600Y-114808000D03*
X156438600Y-112268000D03*
D21*
X205968600Y-90678000D03*
X206044800Y-147015200D03*
X206044800Y-121615200D03*
D17*
X202234800Y-120345200D03*
D18*
X202234800Y-122885200D03*
X202234800Y-125425200D03*
D21*
X152704800Y-147015200D03*
X92430600Y-90674262D03*
X92430600Y-116074262D03*
D17*
X96240600Y-117344262D03*
D18*
X96240600Y-114804262D03*
X96240600Y-112264262D03*
D21*
X145770600Y-90674262D03*
X145770600Y-146939000D03*
X145770600Y-121539000D03*
D17*
X141960600Y-120269000D03*
D18*
X141960600Y-122809000D03*
X141960600Y-125349000D03*
D21*
X92430600Y-146939000D03*
X145757641Y-90677775D03*
X145757641Y-116077775D03*
D17*
X141947641Y-117347775D03*
D18*
X141947641Y-114807775D03*
X141947641Y-112267775D03*
D21*
X92417641Y-90677775D03*
X92416157Y-146941065D03*
X92416157Y-121541065D03*
D17*
X96226157Y-120271065D03*
D18*
X96226157Y-122811065D03*
X96226157Y-125351065D03*
D21*
X145756157Y-146941065D03*
X152704800Y-147015200D03*
X152704800Y-121615200D03*
D17*
X156514800Y-120345200D03*
D18*
X156514800Y-122885200D03*
X156514800Y-125425200D03*
D21*
X206044800Y-147015200D03*
D14*
X186446400Y-76504800D03*
X180746400Y-76504800D03*
X186446400Y-82204800D03*
X180746400Y-82204800D03*
D15*
X175576400Y-76179800D03*
X191616400Y-76179800D03*
D14*
X119471200Y-76530200D03*
X125171200Y-76530200D03*
X119471200Y-82230200D03*
X125171200Y-82230200D03*
D15*
X130341200Y-76205200D03*
X114301200Y-76205200D03*
D14*
X201106800Y-76479400D03*
X206806800Y-76479400D03*
X201106800Y-82179400D03*
X206806800Y-82179400D03*
D15*
X211976800Y-76154400D03*
X195936800Y-76154400D03*
D22*
X53038000Y-54841400D03*
X211350600Y-54841400D03*
X211350600Y-147114000D03*
M02*
