G04 #@! TF.FileFunction,Copper,L2,Bot,Signal*
%FSLAX46Y46*%
G04 Gerber Fmt 4.6, Leading zero omitted, Abs format (unit mm)*
G04 Created by KiCad (PCBNEW 4.0.7) date 01/26/18 13:11:14*
%MOMM*%
%LPD*%
G01*
G04 APERTURE LIST*
%ADD10C,0.100000*%
%ADD11C,2.692400*%
%ADD12R,1.524000X1.524000*%
%ADD13C,1.524000*%
%ADD14C,2.500000*%
%ADD15C,3.556000*%
%ADD16C,6.604000*%
%ADD17R,1.550000X0.600000*%
%ADD18C,1.727200*%
%ADD19C,0.600000*%
%ADD20C,1.727200*%
%ADD21C,0.381000*%
%ADD22C,0.152400*%
%ADD23C,0.254000*%
%ADD24C,2.362200*%
%ADD25C,0.508000*%
G04 APERTURE END LIST*
D10*
D11*
X77093990Y-114586324D03*
X64393990Y-145066324D03*
D12*
X53217990Y-146590324D03*
D13*
X58297990Y-146590324D03*
X78109990Y-122206324D03*
X78109990Y-124746324D03*
X78109990Y-127286324D03*
X78109990Y-129826324D03*
X78109990Y-132366324D03*
X78109990Y-134906324D03*
D12*
X78109990Y-137446324D03*
D13*
X55757990Y-146590324D03*
X58297990Y-144050324D03*
X55757990Y-144050324D03*
X58297990Y-141510324D03*
X55757990Y-141510324D03*
X58297990Y-138970324D03*
X55757990Y-138970324D03*
X58297990Y-136430324D03*
X55757990Y-136430324D03*
X58297990Y-133890324D03*
X55757990Y-133890324D03*
X58297990Y-131350324D03*
X55757990Y-131350324D03*
X58297990Y-128810324D03*
X55757990Y-128810324D03*
X58297990Y-126270324D03*
X55757990Y-126270324D03*
X58297990Y-123730324D03*
X55757990Y-123730324D03*
X58297990Y-121190324D03*
X55757990Y-121190324D03*
X58297990Y-118650324D03*
X55757990Y-118650324D03*
X58297990Y-116110324D03*
X55757990Y-116110324D03*
D12*
X53217990Y-144050324D03*
X53217990Y-141510324D03*
X53217990Y-138970324D03*
X53217990Y-136430324D03*
X53217990Y-133890324D03*
X53217990Y-131350324D03*
X53217990Y-128810324D03*
X53217990Y-126270324D03*
X53217990Y-123730324D03*
X53217990Y-121190324D03*
X53217990Y-118650324D03*
X53217990Y-116110324D03*
X195324342Y-117090262D03*
D13*
X195324342Y-114550262D03*
X195324342Y-112010262D03*
D14*
X98440000Y-76525000D03*
X104140000Y-76525000D03*
X98440000Y-82225000D03*
X104140000Y-82225000D03*
D15*
X152654000Y-60452000D03*
X147523200Y-60452000D03*
X63119000Y-60452000D03*
X68249800Y-60452000D03*
X169799000Y-60452000D03*
X164668200Y-60452000D03*
X77978000Y-60452000D03*
X83108800Y-60452000D03*
X186309000Y-60452000D03*
X181178200Y-60452000D03*
X93345000Y-60452000D03*
X98475800Y-60452000D03*
X202438000Y-60452000D03*
X197307200Y-60452000D03*
X110236000Y-60452000D03*
X115366800Y-60452000D03*
D16*
X66802000Y-94996000D03*
X59639200Y-94996000D03*
X66802000Y-104394000D03*
X59639200Y-104394000D03*
D17*
X70997990Y-140240324D03*
X70997990Y-137700324D03*
X70997990Y-136430324D03*
X70997990Y-135160324D03*
X70997990Y-133890324D03*
X70997990Y-132620324D03*
X70997990Y-131350324D03*
X65609990Y-131350324D03*
X65609990Y-132620324D03*
X65609990Y-133890324D03*
X65609990Y-135160324D03*
X65609990Y-136430324D03*
X65609990Y-137700324D03*
X65609990Y-138970324D03*
X65609990Y-140240324D03*
X70997990Y-138970324D03*
X70997990Y-126778324D03*
X70997990Y-124238324D03*
X70997990Y-122968324D03*
X70997990Y-121698324D03*
X70997990Y-120428324D03*
X70997990Y-119158324D03*
X70997990Y-117888324D03*
X65609990Y-117888324D03*
X65609990Y-119158324D03*
X65609990Y-120428324D03*
X65609990Y-121698324D03*
X65609990Y-122968324D03*
X65609990Y-124238324D03*
X65609990Y-125508324D03*
X65609990Y-126778324D03*
X70997990Y-125508324D03*
D12*
X149606000Y-117094000D03*
D13*
X149606000Y-114554000D03*
X149606000Y-112014000D03*
D12*
X195402200Y-120091200D03*
D13*
X195402200Y-122631200D03*
X195402200Y-125171200D03*
D12*
X89408000Y-117090262D03*
D13*
X89408000Y-114550262D03*
X89408000Y-112010262D03*
D12*
X135128000Y-120015000D03*
D13*
X135128000Y-122555000D03*
X135128000Y-125095000D03*
D12*
X135115041Y-117093775D03*
D13*
X135115041Y-114553775D03*
X135115041Y-112013775D03*
D12*
X89393557Y-120017065D03*
D13*
X89393557Y-122557065D03*
X89393557Y-125097065D03*
D12*
X149682200Y-120091200D03*
D13*
X149682200Y-122631200D03*
X149682200Y-125171200D03*
D14*
X83743800Y-76454000D03*
X78043800Y-76454000D03*
X83743800Y-82154000D03*
X78043800Y-82154000D03*
X124547800Y-76499600D03*
X118847800Y-76499600D03*
X124547800Y-82199600D03*
X118847800Y-82199600D03*
X165531800Y-76555600D03*
X159831800Y-76555600D03*
X165531800Y-82255600D03*
X159831800Y-82255600D03*
X206918800Y-76276200D03*
X201218800Y-76276200D03*
X206918800Y-81976200D03*
X201218800Y-81976200D03*
X180482000Y-76454000D03*
X186182000Y-76454000D03*
X180482000Y-82154000D03*
X186182000Y-82154000D03*
X139244000Y-76525000D03*
X144944000Y-76525000D03*
X139244000Y-82225000D03*
X144944000Y-82225000D03*
X57658000Y-76454000D03*
X63358000Y-76454000D03*
X57658000Y-82154000D03*
X63358000Y-82154000D03*
D18*
X200629648Y-72390000D03*
X120396000Y-57150000D03*
D19*
X74650600Y-137718800D03*
X74650600Y-136448800D03*
X96418400Y-139420600D03*
X94157800Y-139446000D03*
X74650600Y-135153400D03*
X68859400Y-130530600D03*
X72644000Y-146177000D03*
X65532000Y-142367000D03*
X63754000Y-126746000D03*
X74650600Y-138963400D03*
X74549000Y-124206000D03*
X74295000Y-121666000D03*
D20*
X71526390Y-65379610D02*
X147726390Y-65379610D01*
X147726390Y-65379610D02*
X152654000Y-60452000D01*
X63358000Y-76454000D02*
X64607999Y-75204001D01*
X64607999Y-75204001D02*
X64607999Y-72298001D01*
X64607999Y-72298001D02*
X71526390Y-65379610D01*
X57658000Y-76454000D02*
X70612000Y-63500000D01*
X70612000Y-63500000D02*
X144475200Y-63500000D01*
X144475200Y-63500000D02*
X147523200Y-60452000D01*
X63119000Y-60452000D02*
X69342000Y-54229000D01*
X204080169Y-52832000D02*
X70739000Y-52832000D01*
X70739000Y-52832000D02*
X69342000Y-54229000D01*
X203845234Y-71882000D02*
X203845234Y-71832582D01*
X209905610Y-65772207D02*
X209905610Y-58657441D01*
X203845234Y-71832582D02*
X209905610Y-65772207D01*
X209905610Y-58657441D02*
X204080169Y-52832000D01*
X201218800Y-76276200D02*
X201218800Y-74508434D01*
X201218800Y-74508434D02*
X203845234Y-71882000D01*
X104140000Y-76525000D02*
X111526170Y-69138830D01*
X111526170Y-69138830D02*
X161112170Y-69138830D01*
X161112170Y-69138830D02*
X168021001Y-62229999D01*
X168021001Y-62229999D02*
X169799000Y-60452000D01*
X98440000Y-76525000D02*
X98440000Y-74757234D01*
X98440000Y-74757234D02*
X105938014Y-67259220D01*
X105938014Y-67259220D02*
X157860980Y-67259220D01*
X157860980Y-67259220D02*
X164668200Y-60452000D01*
X200629648Y-72390000D02*
X202438000Y-70581648D01*
X202438000Y-70581648D02*
X203169648Y-69850000D01*
X208026000Y-59436000D02*
X208026000Y-64993648D01*
X208026000Y-64993648D02*
X202438000Y-70581648D01*
X203301610Y-54711610D02*
X208026000Y-59436000D01*
X88849190Y-54711610D02*
X203301610Y-54711610D01*
X88849190Y-54711610D02*
X83108800Y-60452000D01*
X186309000Y-60452000D02*
X184531001Y-62229999D01*
X184531001Y-62229999D02*
X184404001Y-62229999D01*
X184404001Y-62229999D02*
X173735950Y-72898050D01*
X173735950Y-72898050D02*
X148570950Y-72898050D01*
X148570950Y-72898050D02*
X144944000Y-76525000D01*
X144944000Y-76525000D02*
X144944000Y-76163000D01*
X139244000Y-76525000D02*
X144750560Y-71018440D01*
X144750560Y-71018440D02*
X170611760Y-71018440D01*
X170611760Y-71018440D02*
X181178200Y-60452000D01*
X120396000Y-57150000D02*
X101777800Y-57150000D01*
X101777800Y-57150000D02*
X98475800Y-60452000D01*
X186182000Y-76454000D02*
X202184000Y-60452000D01*
X202184000Y-60452000D02*
X202438000Y-60452000D01*
X186182000Y-73660000D02*
X183276000Y-73660000D01*
X183276000Y-73660000D02*
X180482000Y-76454000D01*
X197307200Y-62534800D02*
X186182000Y-73660000D01*
X197307200Y-60452000D02*
X197307200Y-62534800D01*
D21*
X70997990Y-137700324D02*
X74632124Y-137700324D01*
X74632124Y-137700324D02*
X74650600Y-137718800D01*
D22*
X71304724Y-137700324D02*
X70997990Y-137700324D01*
D23*
X70997990Y-137700324D02*
X71472990Y-137700324D01*
D21*
X70997990Y-136430324D02*
X74632124Y-136430324D01*
X74632124Y-136430324D02*
X74650600Y-136448800D01*
X71646476Y-136430324D02*
X70997990Y-136430324D01*
D23*
X70522990Y-136430324D02*
X70997990Y-136430324D01*
D21*
X94607464Y-139420600D02*
X96418400Y-139420600D01*
X94157800Y-139446000D02*
X94582064Y-139446000D01*
X94582064Y-139446000D02*
X94607464Y-139420600D01*
X70997990Y-135160324D02*
X74643676Y-135160324D01*
X74643676Y-135160324D02*
X74650600Y-135153400D01*
D22*
X71472990Y-135160324D02*
X70997990Y-135160324D01*
X70752676Y-135160324D02*
X70997990Y-135160324D01*
D23*
X71576588Y-135160324D02*
X70997990Y-135160324D01*
X70997990Y-133890324D02*
X71472990Y-133890324D01*
D21*
X70997990Y-131350324D02*
X70071676Y-131350324D01*
X70997990Y-117888324D02*
X70522990Y-117888324D01*
X70522990Y-117888324D02*
X68859400Y-119551914D01*
X68859400Y-119551914D02*
X68859400Y-130530600D01*
X68859400Y-130530600D02*
X69679124Y-131350324D01*
X69679124Y-131350324D02*
X70997990Y-131350324D01*
D22*
X71374000Y-128143000D02*
X71374000Y-128016000D01*
X70997990Y-128519010D02*
X71374000Y-128143000D01*
X70997990Y-131350324D02*
X70997990Y-128519010D01*
D21*
X68021200Y-143002000D02*
X68097400Y-142925800D01*
X68097400Y-142925800D02*
X72085200Y-142925800D01*
X72085200Y-142925800D02*
X73914000Y-141097000D01*
X73914000Y-141097000D02*
X76809600Y-141097000D01*
X76809600Y-141097000D02*
X78109990Y-139796610D01*
X78109990Y-139796610D02*
X78109990Y-137446324D01*
D23*
X68021200Y-143002000D02*
X67691000Y-143002000D01*
X63659324Y-131350324D02*
X62357000Y-130048000D01*
X65609990Y-131350324D02*
X63659324Y-131350324D01*
X65532000Y-142367000D02*
X65532000Y-140318314D01*
X65532000Y-140318314D02*
X65609990Y-140240324D01*
X65609990Y-126778324D02*
X63786324Y-126778324D01*
X63786324Y-126778324D02*
X63754000Y-126746000D01*
X66084990Y-140240324D02*
X65609990Y-140240324D01*
D21*
X70997990Y-138970324D02*
X74643676Y-138970324D01*
X74643676Y-138970324D02*
X74650600Y-138963400D01*
D22*
X71472990Y-138970324D02*
X70997990Y-138970324D01*
D23*
X70965666Y-138938000D02*
X70997990Y-138970324D01*
X70941638Y-138913972D02*
X70997990Y-138970324D01*
X70461724Y-138970324D02*
X70997990Y-138970324D01*
D21*
X72153990Y-124238324D02*
X72186314Y-124206000D01*
X72186314Y-124206000D02*
X74549000Y-124206000D01*
X70997990Y-124238324D02*
X72153990Y-124238324D01*
D22*
X70522990Y-124238324D02*
X70997990Y-124238324D01*
D23*
X71472990Y-124238324D02*
X70997990Y-124238324D01*
D21*
X75920590Y-119286055D02*
X85250055Y-109956590D01*
X85250055Y-109956590D02*
X193270670Y-109956590D01*
X193270670Y-109956590D02*
X194562343Y-111248263D01*
X194562343Y-111248263D02*
X195324342Y-112010262D01*
X70997990Y-122968324D02*
X74897676Y-122968324D01*
X74897676Y-122968324D02*
X75920590Y-121945410D01*
X75920590Y-121945410D02*
X75920590Y-119286055D01*
D22*
X71030314Y-122936000D02*
X70997990Y-122968324D01*
D23*
X71472990Y-122968324D02*
X70997990Y-122968324D01*
D21*
X70997990Y-121698324D02*
X74262676Y-121698324D01*
X74262676Y-121698324D02*
X74295000Y-121666000D01*
D23*
X70903314Y-121793000D02*
X70997990Y-121698324D01*
D24*
X78486000Y-87559000D02*
X78486000Y-92710000D01*
X78486000Y-92710000D02*
X70103999Y-101092001D01*
X83820000Y-82225000D02*
X78486000Y-87559000D01*
X206920000Y-81971000D02*
X206920000Y-90260000D01*
X196087999Y-101092001D02*
X192058037Y-101092001D01*
X206920000Y-90260000D02*
X196087999Y-101092001D01*
X192058037Y-101092001D02*
X145542000Y-101092001D01*
X70103999Y-101092001D02*
X104648000Y-101092001D01*
X104648000Y-101092001D02*
X145542000Y-101092001D01*
X124572000Y-82225000D02*
X105704999Y-101092001D01*
X105704999Y-101092001D02*
X104648000Y-101092001D01*
X165518000Y-82225000D02*
X146650999Y-101092001D01*
X146650999Y-101092001D02*
X145542000Y-101092001D01*
X66802000Y-104394000D02*
X70103999Y-101092001D01*
D23*
X65134990Y-138970324D02*
X59059989Y-145045325D01*
X59059989Y-145045325D02*
X59059989Y-145828325D01*
X59059989Y-145828325D02*
X58297990Y-146590324D01*
X65609990Y-138970324D02*
X65134990Y-138970324D01*
X64647990Y-137700324D02*
X59059989Y-143288325D01*
X59059989Y-143288325D02*
X58297990Y-144050324D01*
X65609990Y-137700324D02*
X64647990Y-137700324D01*
X63377990Y-136430324D02*
X58297990Y-141510324D01*
X65609990Y-136430324D02*
X63377990Y-136430324D01*
X65609990Y-135160324D02*
X62107990Y-135160324D01*
X62107990Y-135160324D02*
X58297990Y-138970324D01*
X60837990Y-133890324D02*
X58297990Y-136430324D01*
X65609990Y-133890324D02*
X60837990Y-133890324D01*
X65609990Y-132620324D02*
X59567990Y-132620324D01*
X59567990Y-132620324D02*
X58297990Y-133890324D01*
X61599990Y-125508324D02*
X58297990Y-128810324D01*
X65609990Y-125508324D02*
X61599990Y-125508324D01*
X60329990Y-124238324D02*
X58297990Y-126270324D01*
X65609990Y-124238324D02*
X60329990Y-124238324D01*
X65609990Y-122968324D02*
X59059989Y-122968325D01*
X59059989Y-122968325D02*
X58297990Y-123730324D01*
X65609990Y-121698324D02*
X58805990Y-121698324D01*
X58805990Y-121698324D02*
X58297990Y-121190324D01*
X65609990Y-120428324D02*
X60075990Y-120428324D01*
X60075990Y-120428324D02*
X58297990Y-118650324D01*
X65609990Y-119158324D02*
X61345990Y-119158324D01*
X61345990Y-119158324D02*
X58297990Y-116110324D01*
D21*
X70997990Y-125508324D02*
X74770676Y-125508324D01*
X74770676Y-125508324D02*
X76454000Y-123825000D01*
X76454000Y-119507000D02*
X85471000Y-110490000D01*
X76454000Y-123825000D02*
X76454000Y-119507000D01*
X85471000Y-110490000D02*
X133591266Y-110490000D01*
X133591266Y-110490000D02*
X135115041Y-112013775D01*
D22*
X63358000Y-82154000D02*
X63358000Y-91277200D01*
X63358000Y-91277200D02*
X59639200Y-94996000D01*
D21*
X70997990Y-126778324D02*
X72669401Y-126778324D01*
X72669401Y-126778324D02*
X77038200Y-131147123D01*
X73983276Y-140240324D02*
X73787000Y-140240324D01*
X73787000Y-140240324D02*
X70997990Y-140240324D01*
X76098400Y-139801600D02*
X75659676Y-140240324D01*
X75659676Y-140240324D02*
X73787000Y-140240324D01*
X77038200Y-131147123D02*
X80803499Y-131147123D01*
X77038200Y-131147123D02*
X76098400Y-132086923D01*
X76098400Y-132086923D02*
X76098400Y-139801600D01*
X80803499Y-131147123D02*
X89393557Y-122557065D01*
D25*
G36*
X213528365Y-108967700D02*
X189947420Y-109004090D01*
X85250055Y-109004090D01*
X84885549Y-109076595D01*
X84751102Y-109166430D01*
X50842235Y-109218758D01*
X50842751Y-105198833D01*
X62737297Y-105198833D01*
X63354700Y-106693063D01*
X64496923Y-107837282D01*
X65990074Y-108457293D01*
X67606833Y-108458703D01*
X69101063Y-107841300D01*
X70245282Y-106699077D01*
X70865293Y-105205926D01*
X70866703Y-103589167D01*
X70717029Y-103226929D01*
X70908857Y-103035101D01*
X196087999Y-103035101D01*
X196831591Y-102887191D01*
X197461978Y-102465980D01*
X208293979Y-91633979D01*
X208715190Y-91003592D01*
X208863100Y-90260000D01*
X208863100Y-82540364D01*
X208930450Y-82378167D01*
X208931148Y-81577744D01*
X208625485Y-80837983D01*
X208059994Y-80271504D01*
X207320767Y-79964550D01*
X206520344Y-79963852D01*
X205780583Y-80269515D01*
X205214104Y-80835006D01*
X204907150Y-81574233D01*
X204906452Y-82374656D01*
X204976900Y-82545153D01*
X204976900Y-89455142D01*
X195283141Y-99148901D01*
X151342057Y-99148901D01*
X159703491Y-90787467D01*
X197279821Y-90787467D01*
X197561511Y-91469210D01*
X197561705Y-91469404D01*
X197563169Y-91472948D01*
X198084309Y-91994998D01*
X198765559Y-92277878D01*
X199503205Y-92278521D01*
X200184948Y-91996831D01*
X200706998Y-91475691D01*
X200989878Y-90794441D01*
X200990521Y-90056795D01*
X200708831Y-89375052D01*
X200708637Y-89374858D01*
X200707173Y-89371314D01*
X200186033Y-88849264D01*
X199504783Y-88566384D01*
X198767137Y-88565741D01*
X198085394Y-88847431D01*
X197563344Y-89368571D01*
X197280464Y-90049821D01*
X197279821Y-90787467D01*
X159703491Y-90787467D01*
X166429148Y-84061810D01*
X166670017Y-83962285D01*
X167236496Y-83396794D01*
X167543450Y-82657567D01*
X167543541Y-82552456D01*
X178469652Y-82552456D01*
X178775315Y-83292217D01*
X179340806Y-83858696D01*
X180080033Y-84165650D01*
X180880456Y-84166348D01*
X181620217Y-83860685D01*
X182186696Y-83295194D01*
X182493650Y-82555967D01*
X182494348Y-81755544D01*
X182188685Y-81015783D01*
X181623194Y-80449304D01*
X180883967Y-80142350D01*
X180083544Y-80141652D01*
X179343783Y-80447315D01*
X178777304Y-81012806D01*
X178470350Y-81752033D01*
X178469652Y-82552456D01*
X167543541Y-82552456D01*
X167544148Y-81857144D01*
X167238485Y-81117383D01*
X166672994Y-80550904D01*
X165933767Y-80243950D01*
X165133344Y-80243252D01*
X164393583Y-80548915D01*
X163827104Y-81114406D01*
X163789091Y-81205951D01*
X145846141Y-99148901D01*
X110396057Y-99148901D01*
X118753978Y-90790980D01*
X137070520Y-90790980D01*
X137352210Y-91472723D01*
X137873350Y-91994773D01*
X138554600Y-92277653D01*
X139292246Y-92278296D01*
X139300758Y-92274779D01*
X139305205Y-92274783D01*
X139986948Y-91993093D01*
X140508998Y-91471953D01*
X140791878Y-90790703D01*
X140791880Y-90787467D01*
X143939821Y-90787467D01*
X144221511Y-91469210D01*
X144221705Y-91469404D01*
X144223169Y-91472948D01*
X144744309Y-91994998D01*
X145425559Y-92277878D01*
X146163205Y-92278521D01*
X146844948Y-91996831D01*
X147366998Y-91475691D01*
X147649878Y-90794441D01*
X147650521Y-90056795D01*
X147368831Y-89375052D01*
X147368637Y-89374858D01*
X147367173Y-89371314D01*
X146846033Y-88849264D01*
X146164783Y-88566384D01*
X145427137Y-88565741D01*
X144745394Y-88847431D01*
X144223344Y-89368571D01*
X143940464Y-90049821D01*
X143939821Y-90787467D01*
X140791880Y-90787467D01*
X140792521Y-90053057D01*
X140510831Y-89371314D01*
X139989691Y-88849264D01*
X139308441Y-88566384D01*
X138570795Y-88565741D01*
X138562283Y-88569258D01*
X138557836Y-88569254D01*
X137876093Y-88850944D01*
X137354043Y-89372084D01*
X137071163Y-90053334D01*
X137070520Y-90790980D01*
X118753978Y-90790980D01*
X125605336Y-83939622D01*
X125686017Y-83906285D01*
X126252496Y-83340794D01*
X126550360Y-82623456D01*
X137231652Y-82623456D01*
X137537315Y-83363217D01*
X138102806Y-83929696D01*
X138842033Y-84236650D01*
X139642456Y-84237348D01*
X140382217Y-83931685D01*
X140948696Y-83366194D01*
X141255650Y-82626967D01*
X141256348Y-81826544D01*
X140950685Y-81086783D01*
X140385194Y-80520304D01*
X139645967Y-80213350D01*
X138845544Y-80212652D01*
X138105783Y-80518315D01*
X137539304Y-81083806D01*
X137232350Y-81823033D01*
X137231652Y-82623456D01*
X126550360Y-82623456D01*
X126559450Y-82601567D01*
X126560148Y-81801144D01*
X126254485Y-81061383D01*
X125688994Y-80494904D01*
X124949767Y-80187950D01*
X124149344Y-80187252D01*
X123409583Y-80492915D01*
X122843104Y-81058406D01*
X122738343Y-81310699D01*
X104900141Y-99148901D01*
X74795057Y-99148901D01*
X79859979Y-94083980D01*
X80281190Y-93453592D01*
X80429100Y-92710000D01*
X80429100Y-90790980D01*
X83730520Y-90790980D01*
X84012210Y-91472723D01*
X84533350Y-91994773D01*
X85214600Y-92277653D01*
X85952246Y-92278296D01*
X85960758Y-92274779D01*
X85965205Y-92274783D01*
X86646948Y-91993093D01*
X87168998Y-91471953D01*
X87451878Y-90790703D01*
X87452521Y-90053057D01*
X87170831Y-89371314D01*
X86649691Y-88849264D01*
X85968441Y-88566384D01*
X85230795Y-88565741D01*
X85222283Y-88569258D01*
X85217836Y-88569254D01*
X84536093Y-88850944D01*
X84014043Y-89372084D01*
X83731163Y-90053334D01*
X83730520Y-90790980D01*
X80429100Y-90790980D01*
X80429100Y-88363858D01*
X85193979Y-83598979D01*
X85293732Y-83449688D01*
X85448496Y-83295194D01*
X85533096Y-83091454D01*
X85615190Y-82968592D01*
X85643766Y-82824932D01*
X85727426Y-82623456D01*
X96427652Y-82623456D01*
X96733315Y-83363217D01*
X97298806Y-83929696D01*
X98038033Y-84236650D01*
X98838456Y-84237348D01*
X99578217Y-83931685D01*
X100144696Y-83366194D01*
X100451650Y-82626967D01*
X100452348Y-81826544D01*
X100146685Y-81086783D01*
X99581194Y-80520304D01*
X98841967Y-80213350D01*
X98041544Y-80212652D01*
X97301783Y-80518315D01*
X96735304Y-81083806D01*
X96428350Y-81823033D01*
X96427652Y-82623456D01*
X85727426Y-82623456D01*
X85755450Y-82555967D01*
X85755706Y-82262171D01*
X85763100Y-82225000D01*
X85755771Y-82188153D01*
X85756148Y-81755544D01*
X85450485Y-81015783D01*
X84884994Y-80449304D01*
X84145767Y-80142350D01*
X83345344Y-80141652D01*
X82605583Y-80447315D01*
X82039104Y-81012806D01*
X81865038Y-81432004D01*
X77112021Y-86185021D01*
X76690810Y-86815408D01*
X76542900Y-87559000D01*
X76542900Y-91905141D01*
X68730020Y-99718022D01*
X67969633Y-100478409D01*
X67613926Y-100330707D01*
X65997167Y-100329297D01*
X64502937Y-100946700D01*
X63358718Y-102088923D01*
X62738707Y-103582074D01*
X62737297Y-105198833D01*
X50842751Y-105198833D01*
X50843957Y-95800833D01*
X62737297Y-95800833D01*
X63354700Y-97295063D01*
X64496923Y-98439282D01*
X65990074Y-99059293D01*
X67606833Y-99060703D01*
X69101063Y-98443300D01*
X70245282Y-97301077D01*
X70865293Y-95807926D01*
X70866703Y-94191167D01*
X70249300Y-92696937D01*
X69107077Y-91552718D01*
X67613926Y-90932707D01*
X65997167Y-90931297D01*
X64502937Y-91548700D01*
X63358718Y-92690923D01*
X62738707Y-94184074D01*
X62737297Y-95800833D01*
X50843957Y-95800833D01*
X50845658Y-82552456D01*
X55645652Y-82552456D01*
X55951315Y-83292217D01*
X56516806Y-83858696D01*
X57256033Y-84165650D01*
X58056456Y-84166348D01*
X58796217Y-83860685D01*
X59362696Y-83295194D01*
X59669650Y-82555967D01*
X59670348Y-81755544D01*
X59364685Y-81015783D01*
X58799194Y-80449304D01*
X58059967Y-80142350D01*
X57259544Y-80141652D01*
X56519783Y-80447315D01*
X55953304Y-81012806D01*
X55646350Y-81752033D01*
X55645652Y-82552456D01*
X50845658Y-82552456D01*
X50846066Y-79375000D01*
X213520716Y-79375000D01*
X213528365Y-108967700D01*
X213528365Y-108967700D01*
G37*
X213528365Y-108967700D02*
X189947420Y-109004090D01*
X85250055Y-109004090D01*
X84885549Y-109076595D01*
X84751102Y-109166430D01*
X50842235Y-109218758D01*
X50842751Y-105198833D01*
X62737297Y-105198833D01*
X63354700Y-106693063D01*
X64496923Y-107837282D01*
X65990074Y-108457293D01*
X67606833Y-108458703D01*
X69101063Y-107841300D01*
X70245282Y-106699077D01*
X70865293Y-105205926D01*
X70866703Y-103589167D01*
X70717029Y-103226929D01*
X70908857Y-103035101D01*
X196087999Y-103035101D01*
X196831591Y-102887191D01*
X197461978Y-102465980D01*
X208293979Y-91633979D01*
X208715190Y-91003592D01*
X208863100Y-90260000D01*
X208863100Y-82540364D01*
X208930450Y-82378167D01*
X208931148Y-81577744D01*
X208625485Y-80837983D01*
X208059994Y-80271504D01*
X207320767Y-79964550D01*
X206520344Y-79963852D01*
X205780583Y-80269515D01*
X205214104Y-80835006D01*
X204907150Y-81574233D01*
X204906452Y-82374656D01*
X204976900Y-82545153D01*
X204976900Y-89455142D01*
X195283141Y-99148901D01*
X151342057Y-99148901D01*
X159703491Y-90787467D01*
X197279821Y-90787467D01*
X197561511Y-91469210D01*
X197561705Y-91469404D01*
X197563169Y-91472948D01*
X198084309Y-91994998D01*
X198765559Y-92277878D01*
X199503205Y-92278521D01*
X200184948Y-91996831D01*
X200706998Y-91475691D01*
X200989878Y-90794441D01*
X200990521Y-90056795D01*
X200708831Y-89375052D01*
X200708637Y-89374858D01*
X200707173Y-89371314D01*
X200186033Y-88849264D01*
X199504783Y-88566384D01*
X198767137Y-88565741D01*
X198085394Y-88847431D01*
X197563344Y-89368571D01*
X197280464Y-90049821D01*
X197279821Y-90787467D01*
X159703491Y-90787467D01*
X166429148Y-84061810D01*
X166670017Y-83962285D01*
X167236496Y-83396794D01*
X167543450Y-82657567D01*
X167543541Y-82552456D01*
X178469652Y-82552456D01*
X178775315Y-83292217D01*
X179340806Y-83858696D01*
X180080033Y-84165650D01*
X180880456Y-84166348D01*
X181620217Y-83860685D01*
X182186696Y-83295194D01*
X182493650Y-82555967D01*
X182494348Y-81755544D01*
X182188685Y-81015783D01*
X181623194Y-80449304D01*
X180883967Y-80142350D01*
X180083544Y-80141652D01*
X179343783Y-80447315D01*
X178777304Y-81012806D01*
X178470350Y-81752033D01*
X178469652Y-82552456D01*
X167543541Y-82552456D01*
X167544148Y-81857144D01*
X167238485Y-81117383D01*
X166672994Y-80550904D01*
X165933767Y-80243950D01*
X165133344Y-80243252D01*
X164393583Y-80548915D01*
X163827104Y-81114406D01*
X163789091Y-81205951D01*
X145846141Y-99148901D01*
X110396057Y-99148901D01*
X118753978Y-90790980D01*
X137070520Y-90790980D01*
X137352210Y-91472723D01*
X137873350Y-91994773D01*
X138554600Y-92277653D01*
X139292246Y-92278296D01*
X139300758Y-92274779D01*
X139305205Y-92274783D01*
X139986948Y-91993093D01*
X140508998Y-91471953D01*
X140791878Y-90790703D01*
X140791880Y-90787467D01*
X143939821Y-90787467D01*
X144221511Y-91469210D01*
X144221705Y-91469404D01*
X144223169Y-91472948D01*
X144744309Y-91994998D01*
X145425559Y-92277878D01*
X146163205Y-92278521D01*
X146844948Y-91996831D01*
X147366998Y-91475691D01*
X147649878Y-90794441D01*
X147650521Y-90056795D01*
X147368831Y-89375052D01*
X147368637Y-89374858D01*
X147367173Y-89371314D01*
X146846033Y-88849264D01*
X146164783Y-88566384D01*
X145427137Y-88565741D01*
X144745394Y-88847431D01*
X144223344Y-89368571D01*
X143940464Y-90049821D01*
X143939821Y-90787467D01*
X140791880Y-90787467D01*
X140792521Y-90053057D01*
X140510831Y-89371314D01*
X139989691Y-88849264D01*
X139308441Y-88566384D01*
X138570795Y-88565741D01*
X138562283Y-88569258D01*
X138557836Y-88569254D01*
X137876093Y-88850944D01*
X137354043Y-89372084D01*
X137071163Y-90053334D01*
X137070520Y-90790980D01*
X118753978Y-90790980D01*
X125605336Y-83939622D01*
X125686017Y-83906285D01*
X126252496Y-83340794D01*
X126550360Y-82623456D01*
X137231652Y-82623456D01*
X137537315Y-83363217D01*
X138102806Y-83929696D01*
X138842033Y-84236650D01*
X139642456Y-84237348D01*
X140382217Y-83931685D01*
X140948696Y-83366194D01*
X141255650Y-82626967D01*
X141256348Y-81826544D01*
X140950685Y-81086783D01*
X140385194Y-80520304D01*
X139645967Y-80213350D01*
X138845544Y-80212652D01*
X138105783Y-80518315D01*
X137539304Y-81083806D01*
X137232350Y-81823033D01*
X137231652Y-82623456D01*
X126550360Y-82623456D01*
X126559450Y-82601567D01*
X126560148Y-81801144D01*
X126254485Y-81061383D01*
X125688994Y-80494904D01*
X124949767Y-80187950D01*
X124149344Y-80187252D01*
X123409583Y-80492915D01*
X122843104Y-81058406D01*
X122738343Y-81310699D01*
X104900141Y-99148901D01*
X74795057Y-99148901D01*
X79859979Y-94083980D01*
X80281190Y-93453592D01*
X80429100Y-92710000D01*
X80429100Y-90790980D01*
X83730520Y-90790980D01*
X84012210Y-91472723D01*
X84533350Y-91994773D01*
X85214600Y-92277653D01*
X85952246Y-92278296D01*
X85960758Y-92274779D01*
X85965205Y-92274783D01*
X86646948Y-91993093D01*
X87168998Y-91471953D01*
X87451878Y-90790703D01*
X87452521Y-90053057D01*
X87170831Y-89371314D01*
X86649691Y-88849264D01*
X85968441Y-88566384D01*
X85230795Y-88565741D01*
X85222283Y-88569258D01*
X85217836Y-88569254D01*
X84536093Y-88850944D01*
X84014043Y-89372084D01*
X83731163Y-90053334D01*
X83730520Y-90790980D01*
X80429100Y-90790980D01*
X80429100Y-88363858D01*
X85193979Y-83598979D01*
X85293732Y-83449688D01*
X85448496Y-83295194D01*
X85533096Y-83091454D01*
X85615190Y-82968592D01*
X85643766Y-82824932D01*
X85727426Y-82623456D01*
X96427652Y-82623456D01*
X96733315Y-83363217D01*
X97298806Y-83929696D01*
X98038033Y-84236650D01*
X98838456Y-84237348D01*
X99578217Y-83931685D01*
X100144696Y-83366194D01*
X100451650Y-82626967D01*
X100452348Y-81826544D01*
X100146685Y-81086783D01*
X99581194Y-80520304D01*
X98841967Y-80213350D01*
X98041544Y-80212652D01*
X97301783Y-80518315D01*
X96735304Y-81083806D01*
X96428350Y-81823033D01*
X96427652Y-82623456D01*
X85727426Y-82623456D01*
X85755450Y-82555967D01*
X85755706Y-82262171D01*
X85763100Y-82225000D01*
X85755771Y-82188153D01*
X85756148Y-81755544D01*
X85450485Y-81015783D01*
X84884994Y-80449304D01*
X84145767Y-80142350D01*
X83345344Y-80141652D01*
X82605583Y-80447315D01*
X82039104Y-81012806D01*
X81865038Y-81432004D01*
X77112021Y-86185021D01*
X76690810Y-86815408D01*
X76542900Y-87559000D01*
X76542900Y-91905141D01*
X68730020Y-99718022D01*
X67969633Y-100478409D01*
X67613926Y-100330707D01*
X65997167Y-100329297D01*
X64502937Y-100946700D01*
X63358718Y-102088923D01*
X62738707Y-103582074D01*
X62737297Y-105198833D01*
X50842751Y-105198833D01*
X50843957Y-95800833D01*
X62737297Y-95800833D01*
X63354700Y-97295063D01*
X64496923Y-98439282D01*
X65990074Y-99059293D01*
X67606833Y-99060703D01*
X69101063Y-98443300D01*
X70245282Y-97301077D01*
X70865293Y-95807926D01*
X70866703Y-94191167D01*
X70249300Y-92696937D01*
X69107077Y-91552718D01*
X67613926Y-90932707D01*
X65997167Y-90931297D01*
X64502937Y-91548700D01*
X63358718Y-92690923D01*
X62738707Y-94184074D01*
X62737297Y-95800833D01*
X50843957Y-95800833D01*
X50845658Y-82552456D01*
X55645652Y-82552456D01*
X55951315Y-83292217D01*
X56516806Y-83858696D01*
X57256033Y-84165650D01*
X58056456Y-84166348D01*
X58796217Y-83860685D01*
X59362696Y-83295194D01*
X59669650Y-82555967D01*
X59670348Y-81755544D01*
X59364685Y-81015783D01*
X58799194Y-80449304D01*
X58059967Y-80142350D01*
X57259544Y-80141652D01*
X56519783Y-80447315D01*
X55953304Y-81012806D01*
X55646350Y-81752033D01*
X55645652Y-82552456D01*
X50845658Y-82552456D01*
X50846066Y-79375000D01*
X213520716Y-79375000D01*
X213528365Y-108967700D01*
G36*
X68326000Y-118738276D02*
X68185881Y-118878395D01*
X67979405Y-119187408D01*
X67906900Y-119551914D01*
X67906900Y-130055168D01*
X67797585Y-130318428D01*
X67797216Y-130740918D01*
X67958555Y-131131389D01*
X68257040Y-131430395D01*
X68326000Y-131459030D01*
X68326000Y-149277000D01*
X50837093Y-149277000D01*
X50841311Y-116412136D01*
X54233726Y-116412136D01*
X54465252Y-116972473D01*
X54872727Y-117380660D01*
X54466759Y-117785920D01*
X54234255Y-118345852D01*
X54233726Y-118952136D01*
X54465252Y-119512473D01*
X54872727Y-119920660D01*
X54466759Y-120325920D01*
X54234255Y-120885852D01*
X54233726Y-121492136D01*
X54465252Y-122052473D01*
X54872727Y-122460660D01*
X54466759Y-122865920D01*
X54234255Y-123425852D01*
X54233726Y-124032136D01*
X54465252Y-124592473D01*
X54872727Y-125000660D01*
X54466759Y-125405920D01*
X54234255Y-125965852D01*
X54233726Y-126572136D01*
X54465252Y-127132473D01*
X54872727Y-127540660D01*
X54466759Y-127945920D01*
X54234255Y-128505852D01*
X54233726Y-129112136D01*
X54465252Y-129672473D01*
X54872727Y-130080660D01*
X54466759Y-130485920D01*
X54234255Y-131045852D01*
X54233726Y-131652136D01*
X54465252Y-132212473D01*
X54872727Y-132620660D01*
X54466759Y-133025920D01*
X54234255Y-133585852D01*
X54233726Y-134192136D01*
X54465252Y-134752473D01*
X54872727Y-135160660D01*
X54466759Y-135565920D01*
X54234255Y-136125852D01*
X54233726Y-136732136D01*
X54465252Y-137292473D01*
X54872727Y-137700660D01*
X54466759Y-138105920D01*
X54234255Y-138665852D01*
X54233726Y-139272136D01*
X54465252Y-139832473D01*
X54872727Y-140240660D01*
X54466759Y-140645920D01*
X54234255Y-141205852D01*
X54233726Y-141812136D01*
X54465252Y-142372473D01*
X54872727Y-142780660D01*
X54466759Y-143185920D01*
X54234255Y-143745852D01*
X54233726Y-144352136D01*
X54465252Y-144912473D01*
X54872727Y-145320660D01*
X54466759Y-145725920D01*
X54234255Y-146285852D01*
X54233726Y-146892136D01*
X54465252Y-147452473D01*
X54893586Y-147881555D01*
X55453518Y-148114059D01*
X56059802Y-148114588D01*
X56620139Y-147883062D01*
X57028326Y-147475587D01*
X57433586Y-147881555D01*
X57993518Y-148114059D01*
X58599802Y-148114588D01*
X59160139Y-147883062D01*
X59589221Y-147454728D01*
X59821725Y-146894796D01*
X59822254Y-146288512D01*
X59814190Y-146268995D01*
X59881318Y-146168531D01*
X59948989Y-145828325D01*
X59948989Y-145413561D01*
X64279517Y-141083033D01*
X64532721Y-141256041D01*
X64643000Y-141278373D01*
X64643000Y-141753864D01*
X64632205Y-141764640D01*
X64470185Y-142154828D01*
X64469816Y-142577318D01*
X64627245Y-142958327D01*
X63976483Y-142957759D01*
X63201351Y-143278037D01*
X62607787Y-143870565D01*
X62286157Y-144645137D01*
X62285425Y-145483831D01*
X62605703Y-146258963D01*
X63198231Y-146852527D01*
X63972803Y-147174157D01*
X64811497Y-147174889D01*
X65586629Y-146854611D01*
X66180193Y-146262083D01*
X66501823Y-145487511D01*
X66502555Y-144648817D01*
X66182277Y-143873685D01*
X65738549Y-143429181D01*
X65742318Y-143429184D01*
X66132789Y-143267845D01*
X66431795Y-142969360D01*
X66593815Y-142579172D01*
X66594184Y-142156682D01*
X66432845Y-141766211D01*
X66421000Y-141754345D01*
X66421000Y-141310476D01*
X66667370Y-141264119D01*
X66926719Y-141097232D01*
X67100707Y-140842593D01*
X67161918Y-140540324D01*
X67161918Y-139940324D01*
X67108785Y-139657944D01*
X67076583Y-139607900D01*
X67100707Y-139572593D01*
X67161918Y-139270324D01*
X67161918Y-138670324D01*
X67108785Y-138387944D01*
X67076583Y-138337900D01*
X67100707Y-138302593D01*
X67161918Y-138000324D01*
X67161918Y-137400324D01*
X67108785Y-137117944D01*
X67076583Y-137067900D01*
X67100707Y-137032593D01*
X67161918Y-136730324D01*
X67161918Y-136130324D01*
X67108785Y-135847944D01*
X67076583Y-135797900D01*
X67100707Y-135762593D01*
X67161918Y-135460324D01*
X67161918Y-134860324D01*
X67108785Y-134577944D01*
X67076583Y-134527900D01*
X67100707Y-134492593D01*
X67161918Y-134190324D01*
X67161918Y-133590324D01*
X67108785Y-133307944D01*
X67076583Y-133257900D01*
X67100707Y-133222593D01*
X67161918Y-132920324D01*
X67161918Y-132320324D01*
X67108785Y-132037944D01*
X66941898Y-131778595D01*
X66687259Y-131604607D01*
X66384990Y-131543396D01*
X64834990Y-131543396D01*
X64552610Y-131596529D01*
X64343133Y-131731324D01*
X59789948Y-131731324D01*
X59821725Y-131654796D01*
X59822254Y-131048512D01*
X59590728Y-130488175D01*
X59183253Y-130079988D01*
X59589221Y-129674728D01*
X59821725Y-129114796D01*
X59822224Y-128543326D01*
X61968226Y-126397324D01*
X62748866Y-126397324D01*
X62692185Y-126533828D01*
X62691816Y-126956318D01*
X62853155Y-127346789D01*
X63151640Y-127645795D01*
X63541828Y-127807815D01*
X63964318Y-127808184D01*
X64305226Y-127667324D01*
X64347265Y-127667324D01*
X64532721Y-127794041D01*
X64834990Y-127855252D01*
X66384990Y-127855252D01*
X66667370Y-127802119D01*
X66926719Y-127635232D01*
X67100707Y-127380593D01*
X67161918Y-127078324D01*
X67161918Y-126478324D01*
X67108785Y-126195944D01*
X67076583Y-126145900D01*
X67100707Y-126110593D01*
X67161918Y-125808324D01*
X67161918Y-125208324D01*
X67108785Y-124925944D01*
X67076583Y-124875900D01*
X67100707Y-124840593D01*
X67161918Y-124538324D01*
X67161918Y-123938324D01*
X67108785Y-123655944D01*
X67076583Y-123605900D01*
X67100707Y-123570593D01*
X67161918Y-123268324D01*
X67161918Y-122668324D01*
X67108785Y-122385944D01*
X67076583Y-122335900D01*
X67100707Y-122300593D01*
X67161918Y-121998324D01*
X67161918Y-121398324D01*
X67108785Y-121115944D01*
X67076583Y-121065900D01*
X67100707Y-121030593D01*
X67161918Y-120728324D01*
X67161918Y-120128324D01*
X67108785Y-119845944D01*
X67076583Y-119795900D01*
X67100707Y-119760593D01*
X67161918Y-119458324D01*
X67161918Y-118858324D01*
X67108785Y-118575944D01*
X66941898Y-118316595D01*
X66687259Y-118142607D01*
X66384990Y-118081396D01*
X64834990Y-118081396D01*
X64552610Y-118134529D01*
X64343133Y-118269324D01*
X61714226Y-118269324D01*
X59821758Y-116376856D01*
X59822254Y-115808512D01*
X59590728Y-115248175D01*
X59162394Y-114819093D01*
X58602462Y-114586589D01*
X57996178Y-114586060D01*
X57435841Y-114817586D01*
X57027654Y-115225061D01*
X56622394Y-114819093D01*
X56062462Y-114586589D01*
X55456178Y-114586060D01*
X54895841Y-114817586D01*
X54466759Y-115245920D01*
X54234255Y-115805852D01*
X54233726Y-116412136D01*
X50841311Y-116412136D01*
X50841876Y-112014000D01*
X68326000Y-112014000D01*
X68326000Y-118738276D01*
X68326000Y-118738276D01*
G37*
X68326000Y-118738276D02*
X68185881Y-118878395D01*
X67979405Y-119187408D01*
X67906900Y-119551914D01*
X67906900Y-130055168D01*
X67797585Y-130318428D01*
X67797216Y-130740918D01*
X67958555Y-131131389D01*
X68257040Y-131430395D01*
X68326000Y-131459030D01*
X68326000Y-149277000D01*
X50837093Y-149277000D01*
X50841311Y-116412136D01*
X54233726Y-116412136D01*
X54465252Y-116972473D01*
X54872727Y-117380660D01*
X54466759Y-117785920D01*
X54234255Y-118345852D01*
X54233726Y-118952136D01*
X54465252Y-119512473D01*
X54872727Y-119920660D01*
X54466759Y-120325920D01*
X54234255Y-120885852D01*
X54233726Y-121492136D01*
X54465252Y-122052473D01*
X54872727Y-122460660D01*
X54466759Y-122865920D01*
X54234255Y-123425852D01*
X54233726Y-124032136D01*
X54465252Y-124592473D01*
X54872727Y-125000660D01*
X54466759Y-125405920D01*
X54234255Y-125965852D01*
X54233726Y-126572136D01*
X54465252Y-127132473D01*
X54872727Y-127540660D01*
X54466759Y-127945920D01*
X54234255Y-128505852D01*
X54233726Y-129112136D01*
X54465252Y-129672473D01*
X54872727Y-130080660D01*
X54466759Y-130485920D01*
X54234255Y-131045852D01*
X54233726Y-131652136D01*
X54465252Y-132212473D01*
X54872727Y-132620660D01*
X54466759Y-133025920D01*
X54234255Y-133585852D01*
X54233726Y-134192136D01*
X54465252Y-134752473D01*
X54872727Y-135160660D01*
X54466759Y-135565920D01*
X54234255Y-136125852D01*
X54233726Y-136732136D01*
X54465252Y-137292473D01*
X54872727Y-137700660D01*
X54466759Y-138105920D01*
X54234255Y-138665852D01*
X54233726Y-139272136D01*
X54465252Y-139832473D01*
X54872727Y-140240660D01*
X54466759Y-140645920D01*
X54234255Y-141205852D01*
X54233726Y-141812136D01*
X54465252Y-142372473D01*
X54872727Y-142780660D01*
X54466759Y-143185920D01*
X54234255Y-143745852D01*
X54233726Y-144352136D01*
X54465252Y-144912473D01*
X54872727Y-145320660D01*
X54466759Y-145725920D01*
X54234255Y-146285852D01*
X54233726Y-146892136D01*
X54465252Y-147452473D01*
X54893586Y-147881555D01*
X55453518Y-148114059D01*
X56059802Y-148114588D01*
X56620139Y-147883062D01*
X57028326Y-147475587D01*
X57433586Y-147881555D01*
X57993518Y-148114059D01*
X58599802Y-148114588D01*
X59160139Y-147883062D01*
X59589221Y-147454728D01*
X59821725Y-146894796D01*
X59822254Y-146288512D01*
X59814190Y-146268995D01*
X59881318Y-146168531D01*
X59948989Y-145828325D01*
X59948989Y-145413561D01*
X64279517Y-141083033D01*
X64532721Y-141256041D01*
X64643000Y-141278373D01*
X64643000Y-141753864D01*
X64632205Y-141764640D01*
X64470185Y-142154828D01*
X64469816Y-142577318D01*
X64627245Y-142958327D01*
X63976483Y-142957759D01*
X63201351Y-143278037D01*
X62607787Y-143870565D01*
X62286157Y-144645137D01*
X62285425Y-145483831D01*
X62605703Y-146258963D01*
X63198231Y-146852527D01*
X63972803Y-147174157D01*
X64811497Y-147174889D01*
X65586629Y-146854611D01*
X66180193Y-146262083D01*
X66501823Y-145487511D01*
X66502555Y-144648817D01*
X66182277Y-143873685D01*
X65738549Y-143429181D01*
X65742318Y-143429184D01*
X66132789Y-143267845D01*
X66431795Y-142969360D01*
X66593815Y-142579172D01*
X66594184Y-142156682D01*
X66432845Y-141766211D01*
X66421000Y-141754345D01*
X66421000Y-141310476D01*
X66667370Y-141264119D01*
X66926719Y-141097232D01*
X67100707Y-140842593D01*
X67161918Y-140540324D01*
X67161918Y-139940324D01*
X67108785Y-139657944D01*
X67076583Y-139607900D01*
X67100707Y-139572593D01*
X67161918Y-139270324D01*
X67161918Y-138670324D01*
X67108785Y-138387944D01*
X67076583Y-138337900D01*
X67100707Y-138302593D01*
X67161918Y-138000324D01*
X67161918Y-137400324D01*
X67108785Y-137117944D01*
X67076583Y-137067900D01*
X67100707Y-137032593D01*
X67161918Y-136730324D01*
X67161918Y-136130324D01*
X67108785Y-135847944D01*
X67076583Y-135797900D01*
X67100707Y-135762593D01*
X67161918Y-135460324D01*
X67161918Y-134860324D01*
X67108785Y-134577944D01*
X67076583Y-134527900D01*
X67100707Y-134492593D01*
X67161918Y-134190324D01*
X67161918Y-133590324D01*
X67108785Y-133307944D01*
X67076583Y-133257900D01*
X67100707Y-133222593D01*
X67161918Y-132920324D01*
X67161918Y-132320324D01*
X67108785Y-132037944D01*
X66941898Y-131778595D01*
X66687259Y-131604607D01*
X66384990Y-131543396D01*
X64834990Y-131543396D01*
X64552610Y-131596529D01*
X64343133Y-131731324D01*
X59789948Y-131731324D01*
X59821725Y-131654796D01*
X59822254Y-131048512D01*
X59590728Y-130488175D01*
X59183253Y-130079988D01*
X59589221Y-129674728D01*
X59821725Y-129114796D01*
X59822224Y-128543326D01*
X61968226Y-126397324D01*
X62748866Y-126397324D01*
X62692185Y-126533828D01*
X62691816Y-126956318D01*
X62853155Y-127346789D01*
X63151640Y-127645795D01*
X63541828Y-127807815D01*
X63964318Y-127808184D01*
X64305226Y-127667324D01*
X64347265Y-127667324D01*
X64532721Y-127794041D01*
X64834990Y-127855252D01*
X66384990Y-127855252D01*
X66667370Y-127802119D01*
X66926719Y-127635232D01*
X67100707Y-127380593D01*
X67161918Y-127078324D01*
X67161918Y-126478324D01*
X67108785Y-126195944D01*
X67076583Y-126145900D01*
X67100707Y-126110593D01*
X67161918Y-125808324D01*
X67161918Y-125208324D01*
X67108785Y-124925944D01*
X67076583Y-124875900D01*
X67100707Y-124840593D01*
X67161918Y-124538324D01*
X67161918Y-123938324D01*
X67108785Y-123655944D01*
X67076583Y-123605900D01*
X67100707Y-123570593D01*
X67161918Y-123268324D01*
X67161918Y-122668324D01*
X67108785Y-122385944D01*
X67076583Y-122335900D01*
X67100707Y-122300593D01*
X67161918Y-121998324D01*
X67161918Y-121398324D01*
X67108785Y-121115944D01*
X67076583Y-121065900D01*
X67100707Y-121030593D01*
X67161918Y-120728324D01*
X67161918Y-120128324D01*
X67108785Y-119845944D01*
X67076583Y-119795900D01*
X67100707Y-119760593D01*
X67161918Y-119458324D01*
X67161918Y-118858324D01*
X67108785Y-118575944D01*
X66941898Y-118316595D01*
X66687259Y-118142607D01*
X66384990Y-118081396D01*
X64834990Y-118081396D01*
X64552610Y-118134529D01*
X64343133Y-118269324D01*
X61714226Y-118269324D01*
X59821758Y-116376856D01*
X59822254Y-115808512D01*
X59590728Y-115248175D01*
X59162394Y-114819093D01*
X58602462Y-114586589D01*
X57996178Y-114586060D01*
X57435841Y-114817586D01*
X57027654Y-115225061D01*
X56622394Y-114819093D01*
X56062462Y-114586589D01*
X55456178Y-114586060D01*
X54895841Y-114817586D01*
X54466759Y-115245920D01*
X54234255Y-115805852D01*
X54233726Y-116412136D01*
X50841311Y-116412136D01*
X50841876Y-112014000D01*
X68326000Y-112014000D01*
X68326000Y-118738276D01*
G36*
X213537854Y-145681981D02*
X212921712Y-145064762D01*
X212053892Y-144704411D01*
X211114230Y-144703591D01*
X210245783Y-145062427D01*
X209580762Y-145726288D01*
X209220411Y-146594108D01*
X209219591Y-147533770D01*
X209578427Y-148402217D01*
X210228095Y-149053020D01*
X70204916Y-149275397D01*
X70198934Y-147054270D01*
X83729036Y-147054270D01*
X84010726Y-147736013D01*
X84531866Y-148258063D01*
X85213116Y-148540943D01*
X85950762Y-148541586D01*
X85955780Y-148539513D01*
X85965205Y-148539521D01*
X86646948Y-148257831D01*
X87168998Y-147736691D01*
X87451878Y-147055441D01*
X87451879Y-147054270D01*
X137069036Y-147054270D01*
X137350726Y-147736013D01*
X137871866Y-148258063D01*
X138553116Y-148540943D01*
X139290762Y-148541586D01*
X139295780Y-148539513D01*
X139305205Y-148539521D01*
X139986948Y-148257831D01*
X140508998Y-147736691D01*
X140761580Y-147128405D01*
X144017679Y-147128405D01*
X144299369Y-147810148D01*
X144820509Y-148332198D01*
X145501759Y-148615078D01*
X146239405Y-148615721D01*
X146921148Y-148334031D01*
X147443198Y-147812891D01*
X147726078Y-147131641D01*
X147726080Y-147128405D01*
X197357679Y-147128405D01*
X197639369Y-147810148D01*
X198160509Y-148332198D01*
X198841759Y-148615078D01*
X199579405Y-148615721D01*
X200261148Y-148334031D01*
X200783198Y-147812891D01*
X201066078Y-147131641D01*
X201066721Y-146393995D01*
X200785031Y-145712252D01*
X200263891Y-145190202D01*
X199582641Y-144907322D01*
X198844995Y-144906679D01*
X198163252Y-145188369D01*
X197641202Y-145709509D01*
X197358322Y-146390759D01*
X197357679Y-147128405D01*
X147726080Y-147128405D01*
X147726721Y-146393995D01*
X147445031Y-145712252D01*
X146923891Y-145190202D01*
X146242641Y-144907322D01*
X145504995Y-144906679D01*
X144823252Y-145188369D01*
X144301202Y-145709509D01*
X144018322Y-146390759D01*
X144017679Y-147128405D01*
X140761580Y-147128405D01*
X140791878Y-147055441D01*
X140792521Y-146317795D01*
X140510831Y-145636052D01*
X139989691Y-145114002D01*
X139308441Y-144831122D01*
X138570795Y-144830479D01*
X138565777Y-144832552D01*
X138556352Y-144832544D01*
X137874609Y-145114234D01*
X137352559Y-145635374D01*
X137069679Y-146316624D01*
X137069036Y-147054270D01*
X87451879Y-147054270D01*
X87452521Y-146317795D01*
X87170831Y-145636052D01*
X86649691Y-145114002D01*
X85968441Y-144831122D01*
X85230795Y-144830479D01*
X85225777Y-144832552D01*
X85216352Y-144832544D01*
X84534609Y-145114234D01*
X84012559Y-145635374D01*
X83729679Y-146316624D01*
X83729036Y-147054270D01*
X70198934Y-147054270D01*
X70190378Y-143878300D01*
X72085200Y-143878300D01*
X72449706Y-143805795D01*
X72758719Y-143599319D01*
X74308538Y-142049500D01*
X76809600Y-142049500D01*
X77174106Y-141976995D01*
X77483119Y-141770519D01*
X78783509Y-140470129D01*
X78989985Y-140161116D01*
X79062490Y-139796610D01*
X79062490Y-139656318D01*
X93095616Y-139656318D01*
X93256955Y-140046789D01*
X93555440Y-140345795D01*
X93945628Y-140507815D01*
X94368118Y-140508184D01*
X94681391Y-140378743D01*
X94709758Y-140373100D01*
X95942968Y-140373100D01*
X96206228Y-140482415D01*
X96628718Y-140482784D01*
X97019189Y-140321445D01*
X97318195Y-140022960D01*
X97480215Y-139632772D01*
X97480584Y-139210282D01*
X97319245Y-138819811D01*
X97020760Y-138520805D01*
X96630572Y-138358785D01*
X96208082Y-138358416D01*
X95942626Y-138468100D01*
X94607464Y-138468100D01*
X94583528Y-138472861D01*
X94369972Y-138384185D01*
X93947482Y-138383816D01*
X93557011Y-138545155D01*
X93258005Y-138843640D01*
X93095985Y-139233828D01*
X93095616Y-139656318D01*
X79062490Y-139656318D01*
X79062490Y-138949407D01*
X79154370Y-138932119D01*
X79413719Y-138765232D01*
X79587707Y-138510593D01*
X79648918Y-138208324D01*
X79648918Y-136684324D01*
X79595785Y-136401944D01*
X79428898Y-136142595D01*
X79191319Y-135980264D01*
X79401221Y-135770728D01*
X79633725Y-135210796D01*
X79634254Y-134604512D01*
X79402728Y-134044175D01*
X78995253Y-133635988D01*
X79401221Y-133230728D01*
X79633725Y-132670796D01*
X79634223Y-132099623D01*
X80803499Y-132099623D01*
X81168005Y-132027118D01*
X81477018Y-131820642D01*
X87877916Y-125419745D01*
X88100819Y-125959214D01*
X88529153Y-126388296D01*
X89089085Y-126620800D01*
X89695369Y-126621329D01*
X90255706Y-126389803D01*
X90684788Y-125961469D01*
X90917292Y-125401537D01*
X90917821Y-124795253D01*
X90686295Y-124234916D01*
X90278820Y-123826729D01*
X90684788Y-123421469D01*
X90917292Y-122861537D01*
X90917296Y-122856812D01*
X133603736Y-122856812D01*
X133835262Y-123417149D01*
X134242737Y-123825336D01*
X133836769Y-124230596D01*
X133604265Y-124790528D01*
X133603736Y-125396812D01*
X133835262Y-125957149D01*
X134263596Y-126386231D01*
X134823528Y-126618735D01*
X135429812Y-126619264D01*
X135990149Y-126387738D01*
X136419231Y-125959404D01*
X136651735Y-125399472D01*
X136652264Y-124793188D01*
X136420738Y-124232851D01*
X136013263Y-123824664D01*
X136419231Y-123419404D01*
X136651735Y-122859472D01*
X136652264Y-122253188D01*
X136420738Y-121692851D01*
X136380163Y-121652205D01*
X137083479Y-121652205D01*
X137365169Y-122333948D01*
X137886309Y-122855998D01*
X138567559Y-123138878D01*
X139305205Y-123139521D01*
X139986948Y-122857831D01*
X140508998Y-122336691D01*
X140761580Y-121728405D01*
X144017679Y-121728405D01*
X144299369Y-122410148D01*
X144820509Y-122932198D01*
X145501759Y-123215078D01*
X146239405Y-123215721D01*
X146921148Y-122934031D01*
X146922168Y-122933012D01*
X148157936Y-122933012D01*
X148389462Y-123493349D01*
X148796937Y-123901536D01*
X148390969Y-124306796D01*
X148158465Y-124866728D01*
X148157936Y-125473012D01*
X148389462Y-126033349D01*
X148817796Y-126462431D01*
X149377728Y-126694935D01*
X149984012Y-126695464D01*
X150544349Y-126463938D01*
X150973431Y-126035604D01*
X151205935Y-125475672D01*
X151206464Y-124869388D01*
X150974938Y-124309051D01*
X150567463Y-123900864D01*
X150973431Y-123495604D01*
X151205935Y-122935672D01*
X151205937Y-122933012D01*
X193877936Y-122933012D01*
X194109462Y-123493349D01*
X194516937Y-123901536D01*
X194110969Y-124306796D01*
X193878465Y-124866728D01*
X193877936Y-125473012D01*
X194109462Y-126033349D01*
X194537796Y-126462431D01*
X195097728Y-126694935D01*
X195704012Y-126695464D01*
X196264349Y-126463938D01*
X196693431Y-126035604D01*
X196925935Y-125475672D01*
X196926464Y-124869388D01*
X196694938Y-124309051D01*
X196287463Y-123900864D01*
X196693431Y-123495604D01*
X196925935Y-122935672D01*
X196926464Y-122329388D01*
X196694938Y-121769051D01*
X196654363Y-121728405D01*
X197357679Y-121728405D01*
X197639369Y-122410148D01*
X198160509Y-122932198D01*
X198841759Y-123215078D01*
X199579405Y-123215721D01*
X200261148Y-122934031D01*
X200783198Y-122412891D01*
X201066078Y-121731641D01*
X201066721Y-120993995D01*
X200785031Y-120312252D01*
X200263891Y-119790202D01*
X199582641Y-119507322D01*
X198844995Y-119506679D01*
X198163252Y-119788369D01*
X197641202Y-120309509D01*
X197358322Y-120990759D01*
X197357679Y-121728405D01*
X196654363Y-121728405D01*
X196266604Y-121339969D01*
X195706672Y-121107465D01*
X195100388Y-121106936D01*
X194540051Y-121338462D01*
X194110969Y-121766796D01*
X193878465Y-122326728D01*
X193877936Y-122933012D01*
X151205937Y-122933012D01*
X151206464Y-122329388D01*
X150974938Y-121769051D01*
X150546604Y-121339969D01*
X149986672Y-121107465D01*
X149380388Y-121106936D01*
X148820051Y-121338462D01*
X148390969Y-121766796D01*
X148158465Y-122326728D01*
X148157936Y-122933012D01*
X146922168Y-122933012D01*
X147443198Y-122412891D01*
X147726078Y-121731641D01*
X147726721Y-120993995D01*
X147445031Y-120312252D01*
X146923891Y-119790202D01*
X146242641Y-119507322D01*
X145504995Y-119506679D01*
X144823252Y-119788369D01*
X144301202Y-120309509D01*
X144018322Y-120990759D01*
X144017679Y-121728405D01*
X140761580Y-121728405D01*
X140791878Y-121655441D01*
X140792521Y-120917795D01*
X140510831Y-120236052D01*
X139989691Y-119714002D01*
X139308441Y-119431122D01*
X138570795Y-119430479D01*
X137889052Y-119712169D01*
X137367002Y-120233309D01*
X137084122Y-120914559D01*
X137083479Y-121652205D01*
X136380163Y-121652205D01*
X135992404Y-121263769D01*
X135432472Y-121031265D01*
X134826188Y-121030736D01*
X134265851Y-121262262D01*
X133836769Y-121690596D01*
X133604265Y-122250528D01*
X133603736Y-122856812D01*
X90917296Y-122856812D01*
X90917821Y-122255253D01*
X90686295Y-121694916D01*
X90257961Y-121265834D01*
X89698029Y-121033330D01*
X89091745Y-121032801D01*
X88531408Y-121264327D01*
X88102326Y-121692661D01*
X87869822Y-122252593D01*
X87869402Y-122734181D01*
X80408961Y-130194623D01*
X79607222Y-130194623D01*
X79633725Y-130130796D01*
X79634254Y-129524512D01*
X79402728Y-128964175D01*
X78995253Y-128555988D01*
X79401221Y-128150728D01*
X79633725Y-127590796D01*
X79634254Y-126984512D01*
X79402728Y-126424175D01*
X78995253Y-126015988D01*
X79401221Y-125610728D01*
X79633725Y-125050796D01*
X79634254Y-124444512D01*
X79402728Y-123884175D01*
X78995253Y-123475988D01*
X79401221Y-123070728D01*
X79633725Y-122510796D01*
X79634254Y-121904512D01*
X79530857Y-121654270D01*
X83729036Y-121654270D01*
X84010726Y-122336013D01*
X84531866Y-122858063D01*
X85213116Y-123140943D01*
X85950762Y-123141586D01*
X86632505Y-122859896D01*
X87154555Y-122338756D01*
X87437435Y-121657506D01*
X87438078Y-120919860D01*
X87156388Y-120238117D01*
X86635248Y-119716067D01*
X85953998Y-119433187D01*
X85216352Y-119432544D01*
X84534609Y-119714234D01*
X84012559Y-120235374D01*
X83729679Y-120916624D01*
X83729036Y-121654270D01*
X79530857Y-121654270D01*
X79402728Y-121344175D01*
X78974394Y-120915093D01*
X78414462Y-120682589D01*
X77808178Y-120682060D01*
X77406500Y-120848030D01*
X77406500Y-119901538D01*
X81120571Y-116187467D01*
X83743479Y-116187467D01*
X84025169Y-116869210D01*
X84546309Y-117391260D01*
X85227559Y-117674140D01*
X85965205Y-117674783D01*
X86646948Y-117393093D01*
X87168998Y-116871953D01*
X87451762Y-116190980D01*
X137070520Y-116190980D01*
X137352210Y-116872723D01*
X137873350Y-117394773D01*
X138554600Y-117677653D01*
X139292246Y-117678296D01*
X139973989Y-117396606D01*
X140496039Y-116875466D01*
X140778919Y-116194216D01*
X140778921Y-116191205D01*
X143941479Y-116191205D01*
X144223169Y-116872948D01*
X144744309Y-117394998D01*
X145425559Y-117677878D01*
X146163205Y-117678521D01*
X146844948Y-117396831D01*
X147366998Y-116875691D01*
X147649878Y-116194441D01*
X147649884Y-116187467D01*
X197279821Y-116187467D01*
X197561511Y-116869210D01*
X198082651Y-117391260D01*
X198763901Y-117674140D01*
X199501547Y-117674783D01*
X200183290Y-117393093D01*
X200705340Y-116871953D01*
X200988220Y-116190703D01*
X200988863Y-115453057D01*
X200707173Y-114771314D01*
X200186033Y-114249264D01*
X199504783Y-113966384D01*
X198767137Y-113965741D01*
X198085394Y-114247431D01*
X197563344Y-114768571D01*
X197280464Y-115449821D01*
X197279821Y-116187467D01*
X147649884Y-116187467D01*
X147650521Y-115456795D01*
X147368831Y-114775052D01*
X146847691Y-114253002D01*
X146166441Y-113970122D01*
X145428795Y-113969479D01*
X144747052Y-114251169D01*
X144225002Y-114772309D01*
X143942122Y-115453559D01*
X143941479Y-116191205D01*
X140778921Y-116191205D01*
X140779562Y-115456570D01*
X140497872Y-114774827D01*
X139976732Y-114252777D01*
X139295482Y-113969897D01*
X138557836Y-113969254D01*
X137876093Y-114250944D01*
X137354043Y-114772084D01*
X137071163Y-115453334D01*
X137070520Y-116190980D01*
X87451762Y-116190980D01*
X87451878Y-116190703D01*
X87452521Y-115453057D01*
X87170831Y-114771314D01*
X86649691Y-114249264D01*
X85968441Y-113966384D01*
X85230795Y-113965741D01*
X84549052Y-114247431D01*
X84027002Y-114768571D01*
X83744122Y-115449821D01*
X83743479Y-116187467D01*
X81120571Y-116187467D01*
X85270405Y-112037633D01*
X87883979Y-112033028D01*
X87883736Y-112312074D01*
X88115262Y-112872411D01*
X88522737Y-113280598D01*
X88116769Y-113685858D01*
X87884265Y-114245790D01*
X87883736Y-114852074D01*
X88115262Y-115412411D01*
X88543596Y-115841493D01*
X89103528Y-116073997D01*
X89709812Y-116074526D01*
X90270149Y-115843000D01*
X90699231Y-115414666D01*
X90931735Y-114854734D01*
X90932264Y-114248450D01*
X90700738Y-113688113D01*
X90293263Y-113279926D01*
X90699231Y-112874666D01*
X90931735Y-112314734D01*
X90931985Y-112027658D01*
X133591094Y-111952502D01*
X133590777Y-112315587D01*
X133822303Y-112875924D01*
X134229778Y-113284111D01*
X133823810Y-113689371D01*
X133591306Y-114249303D01*
X133590777Y-114855587D01*
X133822303Y-115415924D01*
X134250637Y-115845006D01*
X134810569Y-116077510D01*
X135416853Y-116078039D01*
X135977190Y-115846513D01*
X136406272Y-115418179D01*
X136638776Y-114858247D01*
X136639305Y-114251963D01*
X136407779Y-113691626D01*
X136000304Y-113283439D01*
X136406272Y-112878179D01*
X136638776Y-112318247D01*
X136639100Y-111947132D01*
X148082075Y-111926971D01*
X148081736Y-112315812D01*
X148313262Y-112876149D01*
X148720737Y-113284336D01*
X148314769Y-113689596D01*
X148082265Y-114249528D01*
X148081736Y-114855812D01*
X148313262Y-115416149D01*
X148741596Y-115845231D01*
X149301528Y-116077735D01*
X149907812Y-116078264D01*
X150468149Y-115846738D01*
X150897231Y-115418404D01*
X151129735Y-114858472D01*
X151130264Y-114252188D01*
X150898738Y-113691851D01*
X150491263Y-113283664D01*
X150897231Y-112878404D01*
X151129735Y-112318472D01*
X151130081Y-111921601D01*
X193800485Y-111846424D01*
X193800078Y-112312074D01*
X194031604Y-112872411D01*
X194439079Y-113280598D01*
X194033111Y-113685858D01*
X193800607Y-114245790D01*
X193800078Y-114852074D01*
X194031604Y-115412411D01*
X194459938Y-115841493D01*
X195019870Y-116073997D01*
X195626154Y-116074526D01*
X196186491Y-115843000D01*
X196615573Y-115414666D01*
X196848077Y-114854734D01*
X196848606Y-114248450D01*
X196617080Y-113688113D01*
X196209605Y-113279926D01*
X196615573Y-112874666D01*
X196848077Y-112314734D01*
X196848490Y-111841054D01*
X213529100Y-111811667D01*
X213537854Y-145681981D01*
X213537854Y-145681981D01*
G37*
X213537854Y-145681981D02*
X212921712Y-145064762D01*
X212053892Y-144704411D01*
X211114230Y-144703591D01*
X210245783Y-145062427D01*
X209580762Y-145726288D01*
X209220411Y-146594108D01*
X209219591Y-147533770D01*
X209578427Y-148402217D01*
X210228095Y-149053020D01*
X70204916Y-149275397D01*
X70198934Y-147054270D01*
X83729036Y-147054270D01*
X84010726Y-147736013D01*
X84531866Y-148258063D01*
X85213116Y-148540943D01*
X85950762Y-148541586D01*
X85955780Y-148539513D01*
X85965205Y-148539521D01*
X86646948Y-148257831D01*
X87168998Y-147736691D01*
X87451878Y-147055441D01*
X87451879Y-147054270D01*
X137069036Y-147054270D01*
X137350726Y-147736013D01*
X137871866Y-148258063D01*
X138553116Y-148540943D01*
X139290762Y-148541586D01*
X139295780Y-148539513D01*
X139305205Y-148539521D01*
X139986948Y-148257831D01*
X140508998Y-147736691D01*
X140761580Y-147128405D01*
X144017679Y-147128405D01*
X144299369Y-147810148D01*
X144820509Y-148332198D01*
X145501759Y-148615078D01*
X146239405Y-148615721D01*
X146921148Y-148334031D01*
X147443198Y-147812891D01*
X147726078Y-147131641D01*
X147726080Y-147128405D01*
X197357679Y-147128405D01*
X197639369Y-147810148D01*
X198160509Y-148332198D01*
X198841759Y-148615078D01*
X199579405Y-148615721D01*
X200261148Y-148334031D01*
X200783198Y-147812891D01*
X201066078Y-147131641D01*
X201066721Y-146393995D01*
X200785031Y-145712252D01*
X200263891Y-145190202D01*
X199582641Y-144907322D01*
X198844995Y-144906679D01*
X198163252Y-145188369D01*
X197641202Y-145709509D01*
X197358322Y-146390759D01*
X197357679Y-147128405D01*
X147726080Y-147128405D01*
X147726721Y-146393995D01*
X147445031Y-145712252D01*
X146923891Y-145190202D01*
X146242641Y-144907322D01*
X145504995Y-144906679D01*
X144823252Y-145188369D01*
X144301202Y-145709509D01*
X144018322Y-146390759D01*
X144017679Y-147128405D01*
X140761580Y-147128405D01*
X140791878Y-147055441D01*
X140792521Y-146317795D01*
X140510831Y-145636052D01*
X139989691Y-145114002D01*
X139308441Y-144831122D01*
X138570795Y-144830479D01*
X138565777Y-144832552D01*
X138556352Y-144832544D01*
X137874609Y-145114234D01*
X137352559Y-145635374D01*
X137069679Y-146316624D01*
X137069036Y-147054270D01*
X87451879Y-147054270D01*
X87452521Y-146317795D01*
X87170831Y-145636052D01*
X86649691Y-145114002D01*
X85968441Y-144831122D01*
X85230795Y-144830479D01*
X85225777Y-144832552D01*
X85216352Y-144832544D01*
X84534609Y-145114234D01*
X84012559Y-145635374D01*
X83729679Y-146316624D01*
X83729036Y-147054270D01*
X70198934Y-147054270D01*
X70190378Y-143878300D01*
X72085200Y-143878300D01*
X72449706Y-143805795D01*
X72758719Y-143599319D01*
X74308538Y-142049500D01*
X76809600Y-142049500D01*
X77174106Y-141976995D01*
X77483119Y-141770519D01*
X78783509Y-140470129D01*
X78989985Y-140161116D01*
X79062490Y-139796610D01*
X79062490Y-139656318D01*
X93095616Y-139656318D01*
X93256955Y-140046789D01*
X93555440Y-140345795D01*
X93945628Y-140507815D01*
X94368118Y-140508184D01*
X94681391Y-140378743D01*
X94709758Y-140373100D01*
X95942968Y-140373100D01*
X96206228Y-140482415D01*
X96628718Y-140482784D01*
X97019189Y-140321445D01*
X97318195Y-140022960D01*
X97480215Y-139632772D01*
X97480584Y-139210282D01*
X97319245Y-138819811D01*
X97020760Y-138520805D01*
X96630572Y-138358785D01*
X96208082Y-138358416D01*
X95942626Y-138468100D01*
X94607464Y-138468100D01*
X94583528Y-138472861D01*
X94369972Y-138384185D01*
X93947482Y-138383816D01*
X93557011Y-138545155D01*
X93258005Y-138843640D01*
X93095985Y-139233828D01*
X93095616Y-139656318D01*
X79062490Y-139656318D01*
X79062490Y-138949407D01*
X79154370Y-138932119D01*
X79413719Y-138765232D01*
X79587707Y-138510593D01*
X79648918Y-138208324D01*
X79648918Y-136684324D01*
X79595785Y-136401944D01*
X79428898Y-136142595D01*
X79191319Y-135980264D01*
X79401221Y-135770728D01*
X79633725Y-135210796D01*
X79634254Y-134604512D01*
X79402728Y-134044175D01*
X78995253Y-133635988D01*
X79401221Y-133230728D01*
X79633725Y-132670796D01*
X79634223Y-132099623D01*
X80803499Y-132099623D01*
X81168005Y-132027118D01*
X81477018Y-131820642D01*
X87877916Y-125419745D01*
X88100819Y-125959214D01*
X88529153Y-126388296D01*
X89089085Y-126620800D01*
X89695369Y-126621329D01*
X90255706Y-126389803D01*
X90684788Y-125961469D01*
X90917292Y-125401537D01*
X90917821Y-124795253D01*
X90686295Y-124234916D01*
X90278820Y-123826729D01*
X90684788Y-123421469D01*
X90917292Y-122861537D01*
X90917296Y-122856812D01*
X133603736Y-122856812D01*
X133835262Y-123417149D01*
X134242737Y-123825336D01*
X133836769Y-124230596D01*
X133604265Y-124790528D01*
X133603736Y-125396812D01*
X133835262Y-125957149D01*
X134263596Y-126386231D01*
X134823528Y-126618735D01*
X135429812Y-126619264D01*
X135990149Y-126387738D01*
X136419231Y-125959404D01*
X136651735Y-125399472D01*
X136652264Y-124793188D01*
X136420738Y-124232851D01*
X136013263Y-123824664D01*
X136419231Y-123419404D01*
X136651735Y-122859472D01*
X136652264Y-122253188D01*
X136420738Y-121692851D01*
X136380163Y-121652205D01*
X137083479Y-121652205D01*
X137365169Y-122333948D01*
X137886309Y-122855998D01*
X138567559Y-123138878D01*
X139305205Y-123139521D01*
X139986948Y-122857831D01*
X140508998Y-122336691D01*
X140761580Y-121728405D01*
X144017679Y-121728405D01*
X144299369Y-122410148D01*
X144820509Y-122932198D01*
X145501759Y-123215078D01*
X146239405Y-123215721D01*
X146921148Y-122934031D01*
X146922168Y-122933012D01*
X148157936Y-122933012D01*
X148389462Y-123493349D01*
X148796937Y-123901536D01*
X148390969Y-124306796D01*
X148158465Y-124866728D01*
X148157936Y-125473012D01*
X148389462Y-126033349D01*
X148817796Y-126462431D01*
X149377728Y-126694935D01*
X149984012Y-126695464D01*
X150544349Y-126463938D01*
X150973431Y-126035604D01*
X151205935Y-125475672D01*
X151206464Y-124869388D01*
X150974938Y-124309051D01*
X150567463Y-123900864D01*
X150973431Y-123495604D01*
X151205935Y-122935672D01*
X151205937Y-122933012D01*
X193877936Y-122933012D01*
X194109462Y-123493349D01*
X194516937Y-123901536D01*
X194110969Y-124306796D01*
X193878465Y-124866728D01*
X193877936Y-125473012D01*
X194109462Y-126033349D01*
X194537796Y-126462431D01*
X195097728Y-126694935D01*
X195704012Y-126695464D01*
X196264349Y-126463938D01*
X196693431Y-126035604D01*
X196925935Y-125475672D01*
X196926464Y-124869388D01*
X196694938Y-124309051D01*
X196287463Y-123900864D01*
X196693431Y-123495604D01*
X196925935Y-122935672D01*
X196926464Y-122329388D01*
X196694938Y-121769051D01*
X196654363Y-121728405D01*
X197357679Y-121728405D01*
X197639369Y-122410148D01*
X198160509Y-122932198D01*
X198841759Y-123215078D01*
X199579405Y-123215721D01*
X200261148Y-122934031D01*
X200783198Y-122412891D01*
X201066078Y-121731641D01*
X201066721Y-120993995D01*
X200785031Y-120312252D01*
X200263891Y-119790202D01*
X199582641Y-119507322D01*
X198844995Y-119506679D01*
X198163252Y-119788369D01*
X197641202Y-120309509D01*
X197358322Y-120990759D01*
X197357679Y-121728405D01*
X196654363Y-121728405D01*
X196266604Y-121339969D01*
X195706672Y-121107465D01*
X195100388Y-121106936D01*
X194540051Y-121338462D01*
X194110969Y-121766796D01*
X193878465Y-122326728D01*
X193877936Y-122933012D01*
X151205937Y-122933012D01*
X151206464Y-122329388D01*
X150974938Y-121769051D01*
X150546604Y-121339969D01*
X149986672Y-121107465D01*
X149380388Y-121106936D01*
X148820051Y-121338462D01*
X148390969Y-121766796D01*
X148158465Y-122326728D01*
X148157936Y-122933012D01*
X146922168Y-122933012D01*
X147443198Y-122412891D01*
X147726078Y-121731641D01*
X147726721Y-120993995D01*
X147445031Y-120312252D01*
X146923891Y-119790202D01*
X146242641Y-119507322D01*
X145504995Y-119506679D01*
X144823252Y-119788369D01*
X144301202Y-120309509D01*
X144018322Y-120990759D01*
X144017679Y-121728405D01*
X140761580Y-121728405D01*
X140791878Y-121655441D01*
X140792521Y-120917795D01*
X140510831Y-120236052D01*
X139989691Y-119714002D01*
X139308441Y-119431122D01*
X138570795Y-119430479D01*
X137889052Y-119712169D01*
X137367002Y-120233309D01*
X137084122Y-120914559D01*
X137083479Y-121652205D01*
X136380163Y-121652205D01*
X135992404Y-121263769D01*
X135432472Y-121031265D01*
X134826188Y-121030736D01*
X134265851Y-121262262D01*
X133836769Y-121690596D01*
X133604265Y-122250528D01*
X133603736Y-122856812D01*
X90917296Y-122856812D01*
X90917821Y-122255253D01*
X90686295Y-121694916D01*
X90257961Y-121265834D01*
X89698029Y-121033330D01*
X89091745Y-121032801D01*
X88531408Y-121264327D01*
X88102326Y-121692661D01*
X87869822Y-122252593D01*
X87869402Y-122734181D01*
X80408961Y-130194623D01*
X79607222Y-130194623D01*
X79633725Y-130130796D01*
X79634254Y-129524512D01*
X79402728Y-128964175D01*
X78995253Y-128555988D01*
X79401221Y-128150728D01*
X79633725Y-127590796D01*
X79634254Y-126984512D01*
X79402728Y-126424175D01*
X78995253Y-126015988D01*
X79401221Y-125610728D01*
X79633725Y-125050796D01*
X79634254Y-124444512D01*
X79402728Y-123884175D01*
X78995253Y-123475988D01*
X79401221Y-123070728D01*
X79633725Y-122510796D01*
X79634254Y-121904512D01*
X79530857Y-121654270D01*
X83729036Y-121654270D01*
X84010726Y-122336013D01*
X84531866Y-122858063D01*
X85213116Y-123140943D01*
X85950762Y-123141586D01*
X86632505Y-122859896D01*
X87154555Y-122338756D01*
X87437435Y-121657506D01*
X87438078Y-120919860D01*
X87156388Y-120238117D01*
X86635248Y-119716067D01*
X85953998Y-119433187D01*
X85216352Y-119432544D01*
X84534609Y-119714234D01*
X84012559Y-120235374D01*
X83729679Y-120916624D01*
X83729036Y-121654270D01*
X79530857Y-121654270D01*
X79402728Y-121344175D01*
X78974394Y-120915093D01*
X78414462Y-120682589D01*
X77808178Y-120682060D01*
X77406500Y-120848030D01*
X77406500Y-119901538D01*
X81120571Y-116187467D01*
X83743479Y-116187467D01*
X84025169Y-116869210D01*
X84546309Y-117391260D01*
X85227559Y-117674140D01*
X85965205Y-117674783D01*
X86646948Y-117393093D01*
X87168998Y-116871953D01*
X87451762Y-116190980D01*
X137070520Y-116190980D01*
X137352210Y-116872723D01*
X137873350Y-117394773D01*
X138554600Y-117677653D01*
X139292246Y-117678296D01*
X139973989Y-117396606D01*
X140496039Y-116875466D01*
X140778919Y-116194216D01*
X140778921Y-116191205D01*
X143941479Y-116191205D01*
X144223169Y-116872948D01*
X144744309Y-117394998D01*
X145425559Y-117677878D01*
X146163205Y-117678521D01*
X146844948Y-117396831D01*
X147366998Y-116875691D01*
X147649878Y-116194441D01*
X147649884Y-116187467D01*
X197279821Y-116187467D01*
X197561511Y-116869210D01*
X198082651Y-117391260D01*
X198763901Y-117674140D01*
X199501547Y-117674783D01*
X200183290Y-117393093D01*
X200705340Y-116871953D01*
X200988220Y-116190703D01*
X200988863Y-115453057D01*
X200707173Y-114771314D01*
X200186033Y-114249264D01*
X199504783Y-113966384D01*
X198767137Y-113965741D01*
X198085394Y-114247431D01*
X197563344Y-114768571D01*
X197280464Y-115449821D01*
X197279821Y-116187467D01*
X147649884Y-116187467D01*
X147650521Y-115456795D01*
X147368831Y-114775052D01*
X146847691Y-114253002D01*
X146166441Y-113970122D01*
X145428795Y-113969479D01*
X144747052Y-114251169D01*
X144225002Y-114772309D01*
X143942122Y-115453559D01*
X143941479Y-116191205D01*
X140778921Y-116191205D01*
X140779562Y-115456570D01*
X140497872Y-114774827D01*
X139976732Y-114252777D01*
X139295482Y-113969897D01*
X138557836Y-113969254D01*
X137876093Y-114250944D01*
X137354043Y-114772084D01*
X137071163Y-115453334D01*
X137070520Y-116190980D01*
X87451762Y-116190980D01*
X87451878Y-116190703D01*
X87452521Y-115453057D01*
X87170831Y-114771314D01*
X86649691Y-114249264D01*
X85968441Y-113966384D01*
X85230795Y-113965741D01*
X84549052Y-114247431D01*
X84027002Y-114768571D01*
X83744122Y-115449821D01*
X83743479Y-116187467D01*
X81120571Y-116187467D01*
X85270405Y-112037633D01*
X87883979Y-112033028D01*
X87883736Y-112312074D01*
X88115262Y-112872411D01*
X88522737Y-113280598D01*
X88116769Y-113685858D01*
X87884265Y-114245790D01*
X87883736Y-114852074D01*
X88115262Y-115412411D01*
X88543596Y-115841493D01*
X89103528Y-116073997D01*
X89709812Y-116074526D01*
X90270149Y-115843000D01*
X90699231Y-115414666D01*
X90931735Y-114854734D01*
X90932264Y-114248450D01*
X90700738Y-113688113D01*
X90293263Y-113279926D01*
X90699231Y-112874666D01*
X90931735Y-112314734D01*
X90931985Y-112027658D01*
X133591094Y-111952502D01*
X133590777Y-112315587D01*
X133822303Y-112875924D01*
X134229778Y-113284111D01*
X133823810Y-113689371D01*
X133591306Y-114249303D01*
X133590777Y-114855587D01*
X133822303Y-115415924D01*
X134250637Y-115845006D01*
X134810569Y-116077510D01*
X135416853Y-116078039D01*
X135977190Y-115846513D01*
X136406272Y-115418179D01*
X136638776Y-114858247D01*
X136639305Y-114251963D01*
X136407779Y-113691626D01*
X136000304Y-113283439D01*
X136406272Y-112878179D01*
X136638776Y-112318247D01*
X136639100Y-111947132D01*
X148082075Y-111926971D01*
X148081736Y-112315812D01*
X148313262Y-112876149D01*
X148720737Y-113284336D01*
X148314769Y-113689596D01*
X148082265Y-114249528D01*
X148081736Y-114855812D01*
X148313262Y-115416149D01*
X148741596Y-115845231D01*
X149301528Y-116077735D01*
X149907812Y-116078264D01*
X150468149Y-115846738D01*
X150897231Y-115418404D01*
X151129735Y-114858472D01*
X151130264Y-114252188D01*
X150898738Y-113691851D01*
X150491263Y-113283664D01*
X150897231Y-112878404D01*
X151129735Y-112318472D01*
X151130081Y-111921601D01*
X193800485Y-111846424D01*
X193800078Y-112312074D01*
X194031604Y-112872411D01*
X194439079Y-113280598D01*
X194033111Y-113685858D01*
X193800607Y-114245790D01*
X193800078Y-114852074D01*
X194031604Y-115412411D01*
X194459938Y-115841493D01*
X195019870Y-116073997D01*
X195626154Y-116074526D01*
X196186491Y-115843000D01*
X196615573Y-115414666D01*
X196848077Y-114854734D01*
X196848606Y-114248450D01*
X196617080Y-113688113D01*
X196209605Y-113279926D01*
X196615573Y-112874666D01*
X196848077Y-112314734D01*
X196848490Y-111841054D01*
X213529100Y-111811667D01*
X213537854Y-145681981D01*
G36*
X75691162Y-131147123D02*
X75424881Y-131413404D01*
X75218405Y-131722417D01*
X75145900Y-132086923D01*
X75145900Y-134209150D01*
X74862772Y-134091585D01*
X74440282Y-134091216D01*
X74158069Y-134207824D01*
X72546374Y-134207824D01*
X72549918Y-134190324D01*
X72549918Y-133590324D01*
X72496785Y-133307944D01*
X72464583Y-133257900D01*
X72488707Y-133222593D01*
X72549918Y-132920324D01*
X72549918Y-132320324D01*
X72496785Y-132037944D01*
X72329898Y-131778595D01*
X72075259Y-131604607D01*
X71772990Y-131543396D01*
X70222990Y-131543396D01*
X70157186Y-131555778D01*
X70147177Y-127839900D01*
X70222990Y-127855252D01*
X71772990Y-127855252D01*
X72055370Y-127802119D01*
X72166165Y-127730824D01*
X72274863Y-127730824D01*
X75691162Y-131147123D01*
X75691162Y-131147123D01*
G37*
X75691162Y-131147123D02*
X75424881Y-131413404D01*
X75218405Y-131722417D01*
X75145900Y-132086923D01*
X75145900Y-134209150D01*
X74862772Y-134091585D01*
X74440282Y-134091216D01*
X74158069Y-134207824D01*
X72546374Y-134207824D01*
X72549918Y-134190324D01*
X72549918Y-133590324D01*
X72496785Y-133307944D01*
X72464583Y-133257900D01*
X72488707Y-133222593D01*
X72549918Y-132920324D01*
X72549918Y-132320324D01*
X72496785Y-132037944D01*
X72329898Y-131778595D01*
X72075259Y-131604607D01*
X71772990Y-131543396D01*
X70222990Y-131543396D01*
X70157186Y-131555778D01*
X70147177Y-127839900D01*
X70222990Y-127855252D01*
X71772990Y-127855252D01*
X72055370Y-127802119D01*
X72166165Y-127730824D01*
X72274863Y-127730824D01*
X75691162Y-131147123D01*
G36*
X79202129Y-114657478D02*
X79202555Y-114168817D01*
X78882277Y-113393685D01*
X78289749Y-112800121D01*
X77515177Y-112478491D01*
X76676483Y-112477759D01*
X75901351Y-112798037D01*
X75307787Y-113390565D01*
X74986157Y-114165137D01*
X74985425Y-115003831D01*
X75305703Y-115778963D01*
X75898231Y-116372527D01*
X76672803Y-116694157D01*
X77165020Y-116694587D01*
X75247071Y-118612536D01*
X75040595Y-118921549D01*
X74968090Y-119286055D01*
X74968090Y-120837058D01*
X74897360Y-120766205D01*
X74507172Y-120604185D01*
X74084682Y-120603816D01*
X73740996Y-120745824D01*
X72546374Y-120745824D01*
X72549918Y-120728324D01*
X72549918Y-120128324D01*
X72496785Y-119845944D01*
X72464583Y-119795900D01*
X72488707Y-119760593D01*
X72549918Y-119458324D01*
X72549918Y-118858324D01*
X72496785Y-118575944D01*
X72329898Y-118316595D01*
X72075259Y-118142607D01*
X71772990Y-118081396D01*
X70222990Y-118081396D01*
X70120943Y-118100597D01*
X70104684Y-112064352D01*
X81815888Y-112043719D01*
X79202129Y-114657478D01*
X79202129Y-114657478D01*
G37*
X79202129Y-114657478D02*
X79202555Y-114168817D01*
X78882277Y-113393685D01*
X78289749Y-112800121D01*
X77515177Y-112478491D01*
X76676483Y-112477759D01*
X75901351Y-112798037D01*
X75307787Y-113390565D01*
X74986157Y-114165137D01*
X74985425Y-115003831D01*
X75305703Y-115778963D01*
X75898231Y-116372527D01*
X76672803Y-116694157D01*
X77165020Y-116694587D01*
X75247071Y-118612536D01*
X75040595Y-118921549D01*
X74968090Y-119286055D01*
X74968090Y-120837058D01*
X74897360Y-120766205D01*
X74507172Y-120604185D01*
X74084682Y-120603816D01*
X73740996Y-120745824D01*
X72546374Y-120745824D01*
X72549918Y-120728324D01*
X72549918Y-120128324D01*
X72496785Y-119845944D01*
X72464583Y-119795900D01*
X72488707Y-119760593D01*
X72549918Y-119458324D01*
X72549918Y-118858324D01*
X72496785Y-118575944D01*
X72329898Y-118316595D01*
X72075259Y-118142607D01*
X71772990Y-118081396D01*
X70222990Y-118081396D01*
X70120943Y-118100597D01*
X70104684Y-112064352D01*
X81815888Y-112043719D01*
X79202129Y-114657478D01*
M02*
