G04 #@! TF.FileFunction,Other,User*
%FSLAX46Y46*%
G04 Gerber Fmt 4.6, Leading zero omitted, Abs format (unit mm)*
G04 Created by KiCad (PCBNEW 4.0.7) date 01/29/18 08:59:29*
%MOMM*%
%LPD*%
G01*
G04 APERTURE LIST*
%ADD10C,0.100000*%
%ADD11C,0.300000*%
G04 APERTURE END LIST*
D10*
D11*
X126122873Y-46242371D02*
X125265730Y-46242371D01*
X125694302Y-46242371D02*
X125694302Y-44742371D01*
X125551445Y-44956657D01*
X125408587Y-45099514D01*
X125265730Y-45170943D01*
X127408587Y-44742371D02*
X127122873Y-44742371D01*
X126980016Y-44813800D01*
X126908587Y-44885229D01*
X126765730Y-45099514D01*
X126694301Y-45385229D01*
X126694301Y-45956657D01*
X126765730Y-46099514D01*
X126837158Y-46170943D01*
X126980016Y-46242371D01*
X127265730Y-46242371D01*
X127408587Y-46170943D01*
X127480016Y-46099514D01*
X127551444Y-45956657D01*
X127551444Y-45599514D01*
X127480016Y-45456657D01*
X127408587Y-45385229D01*
X127265730Y-45313800D01*
X126980016Y-45313800D01*
X126837158Y-45385229D01*
X126765730Y-45456657D01*
X126694301Y-45599514D01*
X128837158Y-45242371D02*
X128837158Y-46242371D01*
X128480015Y-44670943D02*
X128122872Y-45742371D01*
X129051444Y-45742371D01*
X129622872Y-46099514D02*
X129694300Y-46170943D01*
X129622872Y-46242371D01*
X129551443Y-46170943D01*
X129622872Y-46099514D01*
X129622872Y-46242371D01*
X130194301Y-44742371D02*
X131122872Y-44742371D01*
X130622872Y-45313800D01*
X130837158Y-45313800D01*
X130980015Y-45385229D01*
X131051444Y-45456657D01*
X131122872Y-45599514D01*
X131122872Y-45956657D01*
X131051444Y-46099514D01*
X130980015Y-46170943D01*
X130837158Y-46242371D01*
X130408586Y-46242371D01*
X130265729Y-46170943D01*
X130194301Y-46099514D01*
X132551443Y-46242371D02*
X131694300Y-46242371D01*
X132122872Y-46242371D02*
X132122872Y-44742371D01*
X131980015Y-44956657D01*
X131837157Y-45099514D01*
X131694300Y-45170943D01*
X133051443Y-44742371D02*
X133980014Y-44742371D01*
X133480014Y-45313800D01*
X133694300Y-45313800D01*
X133837157Y-45385229D01*
X133908586Y-45456657D01*
X133980014Y-45599514D01*
X133980014Y-45956657D01*
X133908586Y-46099514D01*
X133837157Y-46170943D01*
X133694300Y-46242371D01*
X133265728Y-46242371D01*
X133122871Y-46170943D01*
X133051443Y-46099514D01*
X135765728Y-46242371D02*
X135765728Y-45242371D01*
X135765728Y-45385229D02*
X135837156Y-45313800D01*
X135980014Y-45242371D01*
X136194299Y-45242371D01*
X136337156Y-45313800D01*
X136408585Y-45456657D01*
X136408585Y-46242371D01*
X136408585Y-45456657D02*
X136480014Y-45313800D01*
X136622871Y-45242371D01*
X136837156Y-45242371D01*
X136980014Y-45313800D01*
X137051442Y-45456657D01*
X137051442Y-46242371D01*
X137765728Y-46242371D02*
X137765728Y-45242371D01*
X137765728Y-45385229D02*
X137837156Y-45313800D01*
X137980014Y-45242371D01*
X138194299Y-45242371D01*
X138337156Y-45313800D01*
X138408585Y-45456657D01*
X138408585Y-46242371D01*
X138408585Y-45456657D02*
X138480014Y-45313800D01*
X138622871Y-45242371D01*
X138837156Y-45242371D01*
X138980014Y-45313800D01*
X139051442Y-45456657D01*
X139051442Y-46242371D01*
X50038000Y-46913800D02*
X214350600Y-46913800D01*
X50038000Y-51841400D02*
X50038000Y-44213800D01*
X214350600Y-51841400D02*
X214350600Y-44213800D01*
X214350600Y-46913800D02*
X213224096Y-47500221D01*
X214350600Y-46913800D02*
X213224096Y-46327379D01*
X50038000Y-46913800D02*
X51164504Y-47500221D01*
X50038000Y-46913800D02*
X51164504Y-46327379D01*
X218895010Y-94905101D02*
X218895084Y-95190816D01*
X218966549Y-95333654D01*
X219037996Y-95405064D01*
X219252318Y-95547866D01*
X219538051Y-95619220D01*
X220109479Y-95619073D01*
X220252318Y-95547608D01*
X220323728Y-95476160D01*
X220395120Y-95333285D01*
X220395047Y-95047571D01*
X220323581Y-94904731D01*
X220252133Y-94833322D01*
X220109258Y-94761930D01*
X219752115Y-94762022D01*
X219609276Y-94833488D01*
X219537867Y-94904934D01*
X219466475Y-95047811D01*
X219466549Y-95333525D01*
X219538014Y-95476363D01*
X219609461Y-95547774D01*
X219752336Y-95619165D01*
X219752558Y-96476308D02*
X219823950Y-96333432D01*
X219895361Y-96261985D01*
X220038199Y-96190519D01*
X220109627Y-96190501D01*
X220252503Y-96261893D01*
X220323950Y-96333302D01*
X220395416Y-96476142D01*
X220395490Y-96761856D01*
X220324098Y-96904731D01*
X220252687Y-96976179D01*
X220109849Y-97047644D01*
X220038421Y-97047662D01*
X219895545Y-96976271D01*
X219824098Y-96904861D01*
X219752632Y-96762022D01*
X219752558Y-96476308D01*
X219681093Y-96333468D01*
X219609646Y-96262059D01*
X219466770Y-96190667D01*
X219181056Y-96190741D01*
X219038218Y-96262207D01*
X218966807Y-96333653D01*
X218895416Y-96476530D01*
X218895490Y-96762244D01*
X218966955Y-96905082D01*
X219038402Y-96976493D01*
X219181278Y-97047884D01*
X219466992Y-97047810D01*
X219609830Y-96976345D01*
X219681241Y-96904897D01*
X219752632Y-96762022D01*
X219038587Y-97690778D02*
X218967176Y-97762224D01*
X218895730Y-97690814D01*
X218967139Y-97619367D01*
X219038587Y-97690778D01*
X218895730Y-97690814D01*
X220253038Y-98333321D02*
X220324485Y-98404731D01*
X220395951Y-98547570D01*
X220396044Y-98904713D01*
X220324652Y-99047588D01*
X220253241Y-99119036D01*
X220110402Y-99190501D01*
X219967545Y-99190538D01*
X219753241Y-99119165D01*
X218895877Y-98262243D01*
X218896117Y-99190814D01*
X220396247Y-99690427D02*
X220396505Y-100690427D01*
X218896339Y-100047957D01*
X220396616Y-101118998D02*
X220396856Y-102047569D01*
X219825298Y-101547716D01*
X219825353Y-101762002D01*
X219753961Y-101904878D01*
X219682551Y-101976325D01*
X219539713Y-102047790D01*
X219182570Y-102047883D01*
X219039694Y-101976491D01*
X218968247Y-101905081D01*
X218896782Y-101762242D01*
X218896671Y-101333670D01*
X218968062Y-101190795D01*
X219039473Y-101119348D01*
X218897317Y-103833670D02*
X219897317Y-103833412D01*
X219754459Y-103833449D02*
X219825907Y-103904858D01*
X219897373Y-104047698D01*
X219897428Y-104261983D01*
X219826036Y-104404858D01*
X219683198Y-104476324D01*
X218897484Y-104476527D01*
X219683198Y-104476324D02*
X219826073Y-104547716D01*
X219897539Y-104690555D01*
X219897594Y-104904840D01*
X219826202Y-105047716D01*
X219683364Y-105119181D01*
X218897650Y-105119384D01*
X218897834Y-105833670D02*
X219897834Y-105833412D01*
X219754976Y-105833449D02*
X219826424Y-105904858D01*
X219897890Y-106047698D01*
X219897945Y-106261983D01*
X219826553Y-106404858D01*
X219683715Y-106476324D01*
X218898001Y-106476527D01*
X219683715Y-106476324D02*
X219826590Y-106547716D01*
X219898056Y-106690555D01*
X219898111Y-106904840D01*
X219826719Y-107047716D01*
X219683881Y-107119181D01*
X218898167Y-107119384D01*
X218212450Y-51840402D02*
X218237850Y-150113002D01*
X214350600Y-51841400D02*
X220912450Y-51839704D01*
X214376000Y-150114000D02*
X220937850Y-150112304D01*
X218237850Y-150113002D02*
X217651138Y-148986650D01*
X218237850Y-150113002D02*
X218823980Y-148986347D01*
X218212450Y-51840402D02*
X217626320Y-52967057D01*
X218212450Y-51840402D02*
X218799162Y-52966754D01*
M02*
