M48
;DRILL file {KiCad 4.0.7} date 01/29/18 08:59:32
;FORMAT={-:-/ absolute / inch / decimal}
FMAT,2
INCH,TZ
T1C0.015
T2C0.040
T3C0.050
T4C0.071
T5C0.100
T6C0.104
T7C0.172
%
G90
G05
M72
T1
X2.3094Y-4.976
X2.378Y-5.353
X2.493Y-5.298
X2.589Y-5.116
X2.593Y-5.299
X2.9244Y-4.906
X2.982Y-5.26
X3.065Y-5.287
X3.109Y-5.1323
X3.119Y-5.406
X3.721Y-5.248
X3.725Y-5.294
X3.824Y-5.247
X3.825Y-5.294
X5.299Y-5.708
X5.417Y-5.59
T2
X2.1432Y-4.4912
X2.1432Y-4.5912
X2.1432Y-4.6912
X2.2432Y-4.4912
X2.2432Y-4.5912
X2.2432Y-4.6912
X2.3432Y-4.4912
X2.3432Y-4.5912
X2.3432Y-4.6912
X2.4432Y-4.4912
X2.4432Y-4.5912
X2.4432Y-4.6912
X2.5032Y-5.4712
X2.5432Y-4.4912
X2.5432Y-4.5912
X2.5432Y-4.6912
X2.6032Y-5.4712
X2.6432Y-4.4912
X2.6432Y-4.5912
X2.6432Y-4.6912
X2.7032Y-5.4712
X2.7432Y-4.4912
X2.7432Y-4.5912
X2.7432Y-4.6912
X2.8032Y-5.4712
X2.8432Y-4.4912
X2.8432Y-4.5912
X2.8432Y-4.6912
X2.9032Y-5.4712
X2.9432Y-4.4912
X2.9432Y-4.5912
X2.9432Y-4.6912
X3.0032Y-5.4712
X3.0432Y-4.4912
X3.0432Y-4.5912
X3.0432Y-4.6912
X3.1032Y-5.4712
X3.1432Y-4.4912
X3.1432Y-4.5912
X3.1432Y-4.6912
X3.2432Y-4.4912
X3.2432Y-4.5912
X3.2432Y-4.6912
X3.3432Y-4.4912
X3.3432Y-4.5912
X3.3432Y-4.6912
X3.7884Y-4.7351
X3.7884Y-4.8351
X3.7884Y-4.9351
X3.789Y-4.4199
X3.789Y-4.5199
X3.789Y-4.6199
X5.5885Y-4.42
X5.5885Y-4.52
X5.5885Y-4.62
X5.589Y-4.735
X5.589Y-4.835
X5.589Y-4.935
X6.159Y-4.42
X6.159Y-4.52
X6.159Y-4.62
X6.162Y-4.738
X6.162Y-4.838
X6.162Y-4.938
X7.9589Y-4.4199
X7.9589Y-4.5199
X7.9589Y-4.6199
X7.962Y-4.738
X7.962Y-4.838
X7.962Y-4.938
T3
X4.056Y-2.522
X8.0548Y-2.7692
T4
X2.2996Y-3.011
X2.2996Y-3.2354
X2.524Y-3.011
X2.524Y-3.2354
X3.1005Y-3.0128
X3.1005Y-3.2372
X3.325Y-3.0128
X3.325Y-3.2372
X3.904Y-3.013
X3.904Y-3.2374
X4.1284Y-3.013
X4.1284Y-3.2374
X4.7036Y-3.013
X4.7036Y-3.2374
X4.928Y-3.013
X4.928Y-3.2374
X5.508Y-3.013
X5.508Y-3.2374
X5.7324Y-3.013
X5.7324Y-3.2374
X6.313Y-3.0122
X6.313Y-3.2366
X6.5374Y-3.0122
X6.5374Y-3.2366
X7.116Y-3.012
X7.116Y-3.2364
X7.3404Y-3.012
X7.3404Y-3.2364
X7.9176Y-3.011
X7.9176Y-3.2354
X8.142Y-3.011
X8.142Y-3.2354
T5
X2.51Y-2.399
X3.075Y-2.399
X3.685Y-2.398
X4.345Y-2.398
X5.778Y-2.388
X6.457Y-2.388
X7.106Y-2.388
X7.737Y-2.388
T6
X2.712Y-2.399
X3.277Y-2.399
X3.887Y-2.398
X4.547Y-2.398
X5.98Y-2.388
X6.659Y-2.388
X7.308Y-2.388
X7.939Y-2.388
T7
X2.348Y-3.74
X2.348Y-4.11
X2.63Y-3.74
X2.63Y-4.11
T0
M30
