G04 #@! TF.FileFunction,Other,User*
%FSLAX46Y46*%
G04 Gerber Fmt 4.6, Leading zero omitted, Abs format (unit mm)*
G04 Created by KiCad (PCBNEW 4.0.7) date 01/25/18 14:49:12*
%MOMM*%
%LPD*%
G01*
G04 APERTURE LIST*
%ADD10C,0.100000*%
%ADD11C,0.300000*%
G04 APERTURE END LIST*
D10*
D11*
X218895010Y-94905101D02*
X218895084Y-95190816D01*
X218966549Y-95333654D01*
X219037996Y-95405064D01*
X219252318Y-95547866D01*
X219538051Y-95619220D01*
X220109479Y-95619073D01*
X220252318Y-95547608D01*
X220323728Y-95476160D01*
X220395120Y-95333285D01*
X220395047Y-95047571D01*
X220323581Y-94904731D01*
X220252133Y-94833322D01*
X220109258Y-94761930D01*
X219752115Y-94762022D01*
X219609276Y-94833488D01*
X219537867Y-94904934D01*
X219466475Y-95047811D01*
X219466549Y-95333525D01*
X219538014Y-95476363D01*
X219609461Y-95547774D01*
X219752336Y-95619165D01*
X219752558Y-96476308D02*
X219823950Y-96333432D01*
X219895361Y-96261985D01*
X220038199Y-96190519D01*
X220109627Y-96190501D01*
X220252503Y-96261893D01*
X220323950Y-96333302D01*
X220395416Y-96476142D01*
X220395490Y-96761856D01*
X220324098Y-96904731D01*
X220252687Y-96976179D01*
X220109849Y-97047644D01*
X220038421Y-97047662D01*
X219895545Y-96976271D01*
X219824098Y-96904861D01*
X219752632Y-96762022D01*
X219752558Y-96476308D01*
X219681093Y-96333468D01*
X219609646Y-96262059D01*
X219466770Y-96190667D01*
X219181056Y-96190741D01*
X219038218Y-96262207D01*
X218966807Y-96333653D01*
X218895416Y-96476530D01*
X218895490Y-96762244D01*
X218966955Y-96905082D01*
X219038402Y-96976493D01*
X219181278Y-97047884D01*
X219466992Y-97047810D01*
X219609830Y-96976345D01*
X219681241Y-96904897D01*
X219752632Y-96762022D01*
X219038587Y-97690778D02*
X218967176Y-97762224D01*
X218895730Y-97690814D01*
X218967139Y-97619367D01*
X219038587Y-97690778D01*
X218895730Y-97690814D01*
X220253038Y-98333321D02*
X220324485Y-98404731D01*
X220395951Y-98547570D01*
X220396044Y-98904713D01*
X220324652Y-99047588D01*
X220253241Y-99119036D01*
X220110402Y-99190501D01*
X219967545Y-99190538D01*
X219753241Y-99119165D01*
X218895877Y-98262243D01*
X218896117Y-99190814D01*
X220396247Y-99690427D02*
X220396505Y-100690427D01*
X218896339Y-100047957D01*
X220396616Y-101118998D02*
X220396856Y-102047569D01*
X219825298Y-101547716D01*
X219825353Y-101762002D01*
X219753961Y-101904878D01*
X219682551Y-101976325D01*
X219539713Y-102047790D01*
X219182570Y-102047883D01*
X219039694Y-101976491D01*
X218968247Y-101905081D01*
X218896782Y-101762242D01*
X218896671Y-101333670D01*
X218968062Y-101190795D01*
X219039473Y-101119348D01*
X218897317Y-103833670D02*
X219897317Y-103833412D01*
X219754459Y-103833449D02*
X219825907Y-103904858D01*
X219897373Y-104047698D01*
X219897428Y-104261983D01*
X219826036Y-104404858D01*
X219683198Y-104476324D01*
X218897484Y-104476527D01*
X219683198Y-104476324D02*
X219826073Y-104547716D01*
X219897539Y-104690555D01*
X219897594Y-104904840D01*
X219826202Y-105047716D01*
X219683364Y-105119181D01*
X218897650Y-105119384D01*
X218897834Y-105833670D02*
X219897834Y-105833412D01*
X219754976Y-105833449D02*
X219826424Y-105904858D01*
X219897890Y-106047698D01*
X219897945Y-106261983D01*
X219826553Y-106404858D01*
X219683715Y-106476324D01*
X218898001Y-106476527D01*
X219683715Y-106476324D02*
X219826590Y-106547716D01*
X219898056Y-106690555D01*
X219898111Y-106904840D01*
X219826719Y-107047716D01*
X219683881Y-107119181D01*
X218898167Y-107119384D01*
X218212450Y-51840402D02*
X218237850Y-150113002D01*
X214350600Y-51841400D02*
X220912450Y-51839704D01*
X214376000Y-150114000D02*
X220937850Y-150112304D01*
X218237850Y-150113002D02*
X217651138Y-148986650D01*
X218237850Y-150113002D02*
X218823980Y-148986347D01*
X218212450Y-51840402D02*
X217626320Y-52967057D01*
X218212450Y-51840402D02*
X218799162Y-52966754D01*
M02*
