M48
;DRILL file {KiCad 4.0.7} date 01/26/18 13:11:19
;FORMAT={-:-/ absolute / inch / decimal}
FMAT,2
INCH,TZ
T1C0.086
T2C0.118
T3C0.126
%
G90
G05
M72
T1
X2.5352Y-5.7113
X3.0352Y-4.5113
X3.3694Y-4.7751
X3.3694Y-5.7751
X3.3695Y-3.56
X3.37Y-3.5599
X3.37Y-4.5599
X3.37Y-5.775
X5.4694Y-5.7751
X5.4695Y-3.56
X5.4695Y-4.56
X5.47Y-3.5599
X5.47Y-4.775
X5.47Y-5.775
X5.7399Y-3.5599
X5.74Y-3.56
X5.74Y-4.56
X5.743Y-4.778
X5.743Y-5.778
X5.743Y-5.778
X7.8399Y-3.5599
X7.8399Y-4.5599
X7.84Y-3.56
X7.843Y-4.778
X7.843Y-5.778
X7.843Y-5.778
T2
X2.0665Y-2.9972
X2.698Y-2.9972
X2.869Y-2.9972
X3.5005Y-2.9972
X3.672Y-3.
X4.3035Y-3.
X4.4755Y-2.999
X5.107Y-2.999
X5.2785Y-3.
X5.91Y-3.
X6.089Y-3.0012
X6.7205Y-3.0012
X6.902Y-2.9972
X7.5335Y-2.9972
X7.7185Y-2.9902
X8.35Y-2.9902
T3
X2.068Y-2.139
X8.33Y-2.13
X8.33Y-5.79
T0
M30
