G04 #@! TF.FileFunction,Copper,L1,Top,Signal*
%FSLAX46Y46*%
G04 Gerber Fmt 4.6, Leading zero omitted, Abs format (unit mm)*
G04 Created by KiCad (PCBNEW 4.0.7) date 01/29/18 08:59:29*
%MOMM*%
%LPD*%
G01*
G04 APERTURE LIST*
%ADD10C,0.100000*%
%ADD11C,2.500000*%
%ADD12C,2.692400*%
%ADD13R,1.524000X1.524000*%
%ADD14C,1.524000*%
%ADD15C,6.604000*%
%ADD16C,3.556000*%
%ADD17C,1.727200*%
%ADD18C,0.600000*%
%ADD19C,1.727200*%
%ADD20C,0.254000*%
%ADD21C,2.362200*%
G04 APERTURE END LIST*
D10*
D11*
X64109600Y-76479400D03*
X58409600Y-76479400D03*
X64109600Y-82179400D03*
X58409600Y-82179400D03*
X104861600Y-76530200D03*
X99161600Y-76530200D03*
X104861600Y-82230200D03*
X99161600Y-82230200D03*
D12*
X86440651Y-137952737D03*
X55960651Y-125252737D03*
D13*
X54436651Y-114076737D03*
D14*
X54436651Y-119156737D03*
X78820651Y-138968737D03*
X76280651Y-138968737D03*
X73740651Y-138968737D03*
X71200651Y-138968737D03*
X68660651Y-138968737D03*
X66120651Y-138968737D03*
D13*
X63580651Y-138968737D03*
D14*
X54436651Y-116616737D03*
X56976651Y-119156737D03*
X56976651Y-116616737D03*
X59516651Y-119156737D03*
X59516651Y-116616737D03*
X62056651Y-119156737D03*
X62056651Y-116616737D03*
X64596651Y-119156737D03*
X64596651Y-116616737D03*
X67136651Y-119156737D03*
X67136651Y-116616737D03*
X69676651Y-119156737D03*
X69676651Y-116616737D03*
X72216651Y-119156737D03*
X72216651Y-116616737D03*
X74756651Y-119156737D03*
X74756651Y-116616737D03*
X77296651Y-119156737D03*
X77296651Y-116616737D03*
X79836651Y-119156737D03*
X79836651Y-116616737D03*
X82376651Y-119156737D03*
X82376651Y-116616737D03*
X84916651Y-119156737D03*
X84916651Y-116616737D03*
D13*
X56976651Y-114076737D03*
X59516651Y-114076737D03*
X62056651Y-114076737D03*
X64596651Y-114076737D03*
X67136651Y-114076737D03*
X69676651Y-114076737D03*
X72216651Y-114076737D03*
X74756651Y-114076737D03*
X77296651Y-114076737D03*
X79836651Y-114076737D03*
X82376651Y-114076737D03*
X84916651Y-114076737D03*
D11*
X78753800Y-76525000D03*
X84453800Y-76525000D03*
X78753800Y-82225000D03*
X84453800Y-82225000D03*
D15*
X66802000Y-94996000D03*
X59639200Y-94996000D03*
D16*
X78105000Y-60934600D03*
X83235800Y-60934600D03*
X93599000Y-60909200D03*
X98729800Y-60909200D03*
D11*
X145603200Y-76530200D03*
X139903200Y-76530200D03*
X145603200Y-82230200D03*
X139903200Y-82230200D03*
D13*
X202156942Y-117344262D03*
D14*
X202156942Y-114804262D03*
X202156942Y-112264262D03*
D16*
X146761200Y-60655200D03*
X151892000Y-60655200D03*
D11*
X160349000Y-76510000D03*
X166049000Y-76510000D03*
X160349000Y-82210000D03*
X166049000Y-82210000D03*
D16*
X63754000Y-60934600D03*
X68884800Y-60934600D03*
X164007800Y-60655200D03*
X169138600Y-60655200D03*
X180492400Y-60655200D03*
X185623200Y-60655200D03*
X110363000Y-60909200D03*
X115493800Y-60909200D03*
X196519800Y-60655200D03*
X201650600Y-60655200D03*
D15*
X66802000Y-104394000D03*
X59639200Y-104394000D03*
D13*
X156438600Y-117348000D03*
D14*
X156438600Y-114808000D03*
X156438600Y-112268000D03*
D13*
X202234800Y-120345200D03*
D14*
X202234800Y-122885200D03*
X202234800Y-125425200D03*
D13*
X96240600Y-117344262D03*
D14*
X96240600Y-114804262D03*
X96240600Y-112264262D03*
D13*
X141960600Y-120269000D03*
D14*
X141960600Y-122809000D03*
X141960600Y-125349000D03*
D13*
X141947641Y-117347775D03*
D14*
X141947641Y-114807775D03*
X141947641Y-112267775D03*
D13*
X96226157Y-120271065D03*
D14*
X96226157Y-122811065D03*
X96226157Y-125351065D03*
D13*
X156514800Y-120345200D03*
D14*
X156514800Y-122885200D03*
X156514800Y-125425200D03*
D11*
X186446400Y-76504800D03*
X180746400Y-76504800D03*
X186446400Y-82204800D03*
X180746400Y-82204800D03*
X119471200Y-76530200D03*
X125171200Y-76530200D03*
X119471200Y-82230200D03*
X125171200Y-82230200D03*
X201106800Y-76479400D03*
X206806800Y-76479400D03*
X201106800Y-82179400D03*
X206806800Y-82179400D03*
D17*
X204591026Y-70337006D03*
X103022400Y-64058800D03*
D18*
X63322200Y-134569200D03*
X65760600Y-129946400D03*
X65862200Y-134594600D03*
X58659975Y-126390747D03*
X74280975Y-124612747D03*
X60401200Y-135966200D03*
X134594600Y-144983200D03*
X137591800Y-141986000D03*
X77851000Y-134289800D03*
X78968600Y-130361047D03*
X94513400Y-133299200D03*
X97129600Y-133273800D03*
X79222600Y-137312400D03*
X75742800Y-133604000D03*
X94615000Y-134467600D03*
X97155000Y-134467600D03*
D19*
X212826600Y-60189082D02*
X208737200Y-56099682D01*
X63754000Y-60934600D02*
X71247611Y-53440989D01*
X71247611Y-53440989D02*
X206078507Y-53440989D01*
X206078507Y-53440989D02*
X208737200Y-56099682D01*
X212826600Y-69173052D02*
X212826600Y-60189082D01*
X212928200Y-70916800D02*
X212928200Y-69274652D01*
X212928200Y-69274652D02*
X212826600Y-69173052D01*
X206806800Y-76479400D02*
X208056799Y-75229401D01*
X208056799Y-75229401D02*
X208615599Y-75229401D01*
X208615599Y-75229401D02*
X212928200Y-70916800D01*
X201106800Y-76479400D02*
X205369584Y-72216616D01*
X210946992Y-69951612D02*
X210946992Y-60967641D01*
X205369584Y-72216616D02*
X208885184Y-72216616D01*
X208885184Y-72216616D02*
X211048590Y-70053210D01*
X211048590Y-70053210D02*
X210946992Y-69951612D01*
X210946992Y-60967641D02*
X205299950Y-55320599D01*
X205299950Y-55320599D02*
X74498801Y-55320599D01*
X74498801Y-55320599D02*
X70662799Y-59156601D01*
X70662799Y-59156601D02*
X68884800Y-60934600D01*
X143814800Y-63601600D02*
X146761200Y-60655200D01*
X58409600Y-76479400D02*
X68721990Y-66167010D01*
X68721990Y-66167010D02*
X121090622Y-66167010D01*
X121090622Y-66167010D02*
X123656032Y-63601600D01*
X123656032Y-63601600D02*
X143814800Y-63601600D01*
X147065990Y-65481210D02*
X151892000Y-60655200D01*
X72542380Y-68046620D02*
X121869180Y-68046620D01*
X121869180Y-68046620D02*
X124434590Y-65481210D01*
X124434590Y-65481210D02*
X147065990Y-65481210D01*
X64109600Y-76479400D02*
X72542380Y-68046620D01*
X204521391Y-57200209D02*
X81839391Y-57200209D01*
X81839391Y-57200209D02*
X78105000Y-60934600D01*
X209067382Y-61746200D02*
X204521391Y-57200209D01*
X208106626Y-70337006D02*
X209067382Y-69376250D01*
X209067382Y-69376250D02*
X209067382Y-61746200D01*
X204591026Y-70337006D02*
X208106626Y-70337006D01*
X99161600Y-76530200D02*
X105765570Y-69926230D01*
X105765570Y-69926230D02*
X122647739Y-69926230D01*
X149749569Y-65455800D02*
X159207200Y-65455800D01*
X122647739Y-69926230D02*
X125213149Y-67360820D01*
X125213149Y-67360820D02*
X147844549Y-67360820D01*
X147844549Y-67360820D02*
X149749569Y-65455800D01*
X159207200Y-65455800D02*
X164007800Y-60655200D01*
X104861600Y-76530200D02*
X109585960Y-71805840D01*
X109585960Y-71805840D02*
X123426298Y-71805840D01*
X148623108Y-69240430D02*
X150528128Y-67335410D01*
X123426298Y-71805840D02*
X125991708Y-69240430D01*
X125991708Y-69240430D02*
X148623108Y-69240430D01*
X150528128Y-67335410D02*
X162458390Y-67335410D01*
X162458390Y-67335410D02*
X169138600Y-60655200D01*
X139903200Y-76530200D02*
X145313360Y-71120040D01*
X171932580Y-69215020D02*
X180492400Y-60655200D01*
X145313360Y-71120040D02*
X149401666Y-71120040D01*
X149401666Y-71120040D02*
X151306686Y-69215020D01*
X151306686Y-69215020D02*
X171932580Y-69215020D01*
X145603200Y-76530200D02*
X145603200Y-73852800D01*
X146456350Y-72999650D02*
X150180224Y-72999650D01*
X145603200Y-73852800D02*
X146456350Y-72999650D01*
X150180224Y-72999650D02*
X152085244Y-71094630D01*
X152085244Y-71094630D02*
X175183770Y-71094630D01*
X175183770Y-71094630D02*
X185623200Y-60655200D01*
X103022400Y-64058800D02*
X112344200Y-64058800D01*
X112344200Y-64058800D02*
X115493800Y-60909200D01*
X180746400Y-76504800D02*
X196519800Y-60731400D01*
X196519800Y-60731400D02*
X196519800Y-60655200D01*
X196545200Y-60706000D02*
X196545200Y-60121800D01*
X197002400Y-60136800D02*
X197002400Y-60121800D01*
X186446400Y-76504800D02*
X201650600Y-61300600D01*
X201650600Y-61300600D02*
X201650600Y-60655200D01*
X201676000Y-61275200D02*
X201676000Y-60121800D01*
D20*
X182742170Y-143840200D02*
X64262000Y-143840200D01*
X61493400Y-141198600D02*
X64135000Y-143840200D01*
X64135000Y-143840200D02*
X64262000Y-143840200D01*
X61493400Y-136398000D02*
X61493400Y-141198600D01*
X63322200Y-134569200D02*
X61493400Y-136398000D01*
X202234800Y-125425200D02*
X201157170Y-125425200D01*
X201157170Y-125425200D02*
X182742170Y-143840200D01*
X67208400Y-128498600D02*
X65760600Y-129946400D01*
X84912200Y-128498600D02*
X67208400Y-128498600D01*
X87731600Y-125679200D02*
X84912200Y-128498600D01*
X87731600Y-116992400D02*
X87731600Y-125679200D01*
X92459738Y-112264262D02*
X87731600Y-116992400D01*
X96240600Y-112264262D02*
X92459738Y-112264262D01*
X141960600Y-125349000D02*
X124815600Y-142494000D01*
X124815600Y-142494000D02*
X85572600Y-142494000D01*
X85572600Y-142494000D02*
X79222600Y-136144000D01*
X79222600Y-136144000D02*
X66987336Y-136144000D01*
X66987336Y-136144000D02*
X65862200Y-135018864D01*
X65862200Y-135018864D02*
X65862200Y-134594600D01*
X59548975Y-124739747D02*
X58659975Y-125628747D01*
X58659975Y-125628747D02*
X58659975Y-126390747D01*
X64093641Y-124739747D02*
X59548975Y-124739747D01*
X69676651Y-119156737D02*
X64093641Y-124739747D01*
X74280975Y-123761061D02*
X74280975Y-124612747D01*
X69676651Y-119156737D02*
X74280975Y-123761061D01*
X60401200Y-141706600D02*
X60401200Y-135966200D01*
X63677800Y-144983200D02*
X60401200Y-141706600D01*
X134594600Y-144983200D02*
X63677800Y-144983200D01*
X141681200Y-137896600D02*
X137591800Y-141986000D01*
X148844000Y-130759200D02*
X141706600Y-137896600D01*
X141706600Y-137896600D02*
X141681200Y-137896600D01*
X148844000Y-129387600D02*
X148844000Y-130759200D01*
X148844000Y-114884200D02*
X148844000Y-129387600D01*
X151460200Y-112268000D02*
X148844000Y-114884200D01*
X156438600Y-112268000D02*
X151460200Y-112268000D01*
X78639902Y-134289800D02*
X77851000Y-134289800D01*
X86309200Y-141808200D02*
X78790800Y-134289800D01*
X78790800Y-134289800D02*
X78639902Y-134289800D01*
X86385400Y-141808200D02*
X86309200Y-141808200D01*
X87350600Y-141808200D02*
X86385400Y-141808200D01*
X94970600Y-141808200D02*
X87350600Y-141808200D01*
X96215200Y-134721600D02*
X96215200Y-140563600D01*
X96215200Y-140563600D02*
X94970600Y-141808200D01*
X96215200Y-126439652D02*
X96215200Y-134721600D01*
X96226157Y-125351065D02*
X96226157Y-126428695D01*
X96226157Y-126428695D02*
X96215200Y-126439652D01*
X83947000Y-130022600D02*
X79307047Y-130022600D01*
X79307047Y-130022600D02*
X78968600Y-130361047D01*
X87223600Y-133299200D02*
X83947000Y-130022600D01*
X94513400Y-133299200D02*
X87223600Y-133299200D01*
X118135400Y-133273800D02*
X97129600Y-133273800D01*
X141274800Y-110134400D02*
X118135400Y-133273800D01*
X201104710Y-110134400D02*
X141274800Y-110134400D01*
X202156942Y-112264262D02*
X202156942Y-111186632D01*
X202156942Y-111186632D02*
X201104710Y-110134400D01*
X87350600Y-143154400D02*
X86360000Y-143154400D01*
X86360000Y-143154400D02*
X86080600Y-143154400D01*
X85064600Y-143154400D02*
X86360000Y-143154400D01*
X79222600Y-137312400D02*
X85064600Y-143154400D01*
X138785600Y-143154400D02*
X87350600Y-143154400D01*
X156514800Y-125425200D02*
X138785600Y-143154400D01*
D21*
X93853000Y-104394000D02*
X97053400Y-104394000D01*
X97053400Y-104394000D02*
X118186200Y-104394000D01*
X104861600Y-82230200D02*
X104861600Y-96585800D01*
X104861600Y-96585800D02*
X97053400Y-104394000D01*
X81788000Y-104394000D02*
X93853000Y-104394000D01*
X69992799Y-83429399D02*
X90957400Y-104394000D01*
X90957400Y-104394000D02*
X93853000Y-104394000D01*
X64109600Y-82179400D02*
X65359599Y-83429399D01*
X65359599Y-83429399D02*
X69992799Y-83429399D01*
X84465566Y-104303132D02*
X84465566Y-104394000D01*
X145603200Y-82230200D02*
X145603200Y-83997966D01*
X145603200Y-83997966D02*
X125207166Y-104394000D01*
X125207166Y-104394000D02*
X118186200Y-104394000D01*
X118186200Y-104394000D02*
X162941000Y-104394000D01*
X162941000Y-104394000D02*
X164257200Y-104394000D01*
X186446400Y-83972566D02*
X166024966Y-104394000D01*
X186446400Y-82204800D02*
X186446400Y-83972566D01*
X166024966Y-104394000D02*
X162941000Y-104394000D01*
X66802000Y-104394000D02*
X81788000Y-104394000D01*
X84465566Y-104394000D02*
X81788000Y-104394000D01*
X123439400Y-104394000D02*
X118186200Y-104394000D01*
D20*
X75920600Y-133604000D02*
X75742800Y-133604000D01*
X76174600Y-133604000D02*
X75920600Y-133604000D01*
X78811616Y-133604000D02*
X76174600Y-133604000D01*
X94615000Y-134467600D02*
X79675216Y-134467600D01*
X79675216Y-134467600D02*
X78811616Y-133604000D01*
X118568586Y-134569200D02*
X97256600Y-134569200D01*
X97256600Y-134569200D02*
X97155000Y-134467600D01*
X141947641Y-112267775D02*
X140870011Y-112267775D01*
X140870011Y-112267775D02*
X118568586Y-134569200D01*
M02*
