G04 #@! TF.FileFunction,Copper,L2,Bot,Signal*
%FSLAX46Y46*%
G04 Gerber Fmt 4.6, Leading zero omitted, Abs format (unit mm)*
G04 Created by KiCad (PCBNEW 4.0.6) date 06/24/17 11:57:50*
%MOMM*%
%LPD*%
G01*
G04 APERTURE LIST*
%ADD10C,0.100000*%
%ADD11R,1.750000X1.750000*%
%ADD12C,1.750000*%
%ADD13C,1.778000*%
G04 APERTURE END LIST*
D10*
D11*
X173990000Y-83660000D03*
D12*
X173990000Y-81160000D03*
X173990000Y-78660000D03*
X173990000Y-76160000D03*
X173990000Y-73660000D03*
X173990000Y-71160000D03*
X173990000Y-68660000D03*
D11*
X165100000Y-83700000D03*
D12*
X165100000Y-81200000D03*
X165100000Y-78700000D03*
X165100000Y-76200000D03*
X165100000Y-73700000D03*
X165100000Y-71200000D03*
X165100000Y-68700000D03*
D11*
X156210000Y-83700000D03*
D12*
X156210000Y-81200000D03*
X156210000Y-78700000D03*
X156210000Y-76200000D03*
X156210000Y-73700000D03*
X156210000Y-71200000D03*
X156210000Y-68700000D03*
D11*
X147320000Y-83620000D03*
D12*
X147320000Y-81120000D03*
X147320000Y-78620000D03*
X147320000Y-76120000D03*
X147320000Y-73620000D03*
X147320000Y-71120000D03*
X147320000Y-68620000D03*
D13*
X173990000Y-83660000D02*
X147360000Y-83660000D01*
X147360000Y-83660000D02*
X147320000Y-83620000D01*
X147320000Y-81120000D02*
X173950000Y-81120000D01*
X173950000Y-81120000D02*
X173990000Y-81160000D01*
X173990000Y-78660000D02*
X147360000Y-78660000D01*
X147360000Y-78660000D02*
X147320000Y-78620000D01*
X147320000Y-76120000D02*
X173950000Y-76120000D01*
X173950000Y-76120000D02*
X173990000Y-76160000D01*
X173990000Y-73660000D02*
X147360000Y-73660000D01*
X147360000Y-73660000D02*
X147320000Y-73620000D01*
X147320000Y-71120000D02*
X173950000Y-71120000D01*
X173950000Y-71120000D02*
X173990000Y-71160000D01*
X173990000Y-68660000D02*
X147360000Y-68660000D01*
X147360000Y-68660000D02*
X147320000Y-68620000D01*
M02*
