G04 #@! TF.FileFunction,Soldermask,Bot*
%FSLAX46Y46*%
G04 Gerber Fmt 4.6, Leading zero omitted, Abs format (unit mm)*
G04 Created by KiCad (PCBNEW 4.0.7) date 01/05/18 11:34:56*
%MOMM*%
%LPD*%
G01*
G04 APERTURE LIST*
%ADD10C,0.100000*%
%ADD11C,3.448000*%
%ADD12R,1.200000X1.150000*%
%ADD13R,1.050000X4.000000*%
%ADD14R,1.050000X5.000000*%
%ADD15O,1.050000X1.050000*%
%ADD16R,2.178000X2.686000*%
%ADD17R,2.127200X2.127200*%
%ADD18O,2.127200X2.127200*%
%ADD19C,1.299160*%
%ADD20C,7.004000*%
%ADD21R,0.900000X1.300000*%
%ADD22R,1.000000X2.350000*%
%ADD23R,1.900000X1.000000*%
%ADD24R,2.599640X2.800300*%
%ADD25R,2.100000X2.100000*%
%ADD26O,2.100000X2.100000*%
G04 APERTURE END LIST*
D10*
D11*
X177292000Y-117398800D03*
X177292000Y-72745600D03*
D12*
X135940000Y-87466000D03*
X134440000Y-87466000D03*
X135940000Y-85866000D03*
X134440000Y-85866000D03*
X132830000Y-101346000D03*
X131330000Y-101346000D03*
X132940000Y-87466000D03*
X131440000Y-87466000D03*
X126440000Y-87466000D03*
X127940000Y-87466000D03*
X123440000Y-87466000D03*
X124940000Y-87466000D03*
X141950000Y-110400000D03*
X140450000Y-110400000D03*
X143600000Y-110400000D03*
X145100000Y-110400000D03*
D13*
X141000000Y-125500000D03*
D14*
X142000000Y-126000000D03*
X143000000Y-126000000D03*
X144000000Y-126000000D03*
X145000000Y-126000000D03*
X146000000Y-126000000D03*
X147000000Y-126000000D03*
X148000000Y-126000000D03*
X149000000Y-126000000D03*
X150000000Y-126000000D03*
X151000000Y-126000000D03*
X156000000Y-126000000D03*
X157000000Y-126000000D03*
X158000000Y-126000000D03*
X159000000Y-126000000D03*
X160000000Y-126000000D03*
X154000000Y-126000000D03*
X155000000Y-126000000D03*
D15*
X144000000Y-128300000D03*
X145000000Y-128300000D03*
X146000000Y-128300000D03*
X147000000Y-128300000D03*
X148000000Y-128300000D03*
X149000000Y-128300000D03*
X150000000Y-128300000D03*
X156000000Y-128300000D03*
X157000000Y-128300000D03*
X143000000Y-128300000D03*
X155000000Y-128300000D03*
X158000000Y-128300000D03*
X151000000Y-128300000D03*
X154000000Y-128300000D03*
X159000000Y-128300000D03*
X160000000Y-128300000D03*
X142000000Y-128300000D03*
D16*
X134140000Y-80600000D03*
X131600000Y-80600000D03*
X129060000Y-80600000D03*
X164600000Y-80500000D03*
X162060000Y-80500000D03*
X159520000Y-80500000D03*
D17*
X174562000Y-107080000D03*
D18*
X172022000Y-107080000D03*
X174562000Y-104540000D03*
X172022000Y-104540000D03*
X174562000Y-102000000D03*
X172022000Y-102000000D03*
X174562000Y-99460000D03*
X172022000Y-99460000D03*
D19*
X150700000Y-76000000D03*
X146300720Y-76000000D03*
D20*
X173900000Y-86300000D03*
X173900000Y-79137200D03*
D21*
X157370000Y-96008000D03*
X155870000Y-96008000D03*
X157370000Y-108008000D03*
X155870000Y-108008000D03*
X157370000Y-98508000D03*
X155870000Y-98508000D03*
X157370000Y-110508000D03*
X155870000Y-110508000D03*
X157370000Y-101008000D03*
X155870000Y-101008000D03*
X157370000Y-113008000D03*
X155870000Y-113008000D03*
X157370000Y-103508000D03*
X155870000Y-103508000D03*
D22*
X135370000Y-99066000D03*
X134100000Y-99066000D03*
X132830000Y-99066000D03*
X131560000Y-99066000D03*
X130290000Y-99066000D03*
X129020000Y-99066000D03*
X127750000Y-99066000D03*
X126480000Y-99066000D03*
X125210000Y-99066000D03*
X123940000Y-99066000D03*
X123940000Y-89666000D03*
X125210000Y-89666000D03*
X126480000Y-89666000D03*
X127750000Y-89666000D03*
X129020000Y-89666000D03*
X130290000Y-89666000D03*
X131560000Y-89666000D03*
X132830000Y-89666000D03*
X134100000Y-89666000D03*
X135370000Y-89666000D03*
D23*
X160320000Y-104953000D03*
X160320000Y-103683000D03*
X160320000Y-102413000D03*
X160320000Y-101143000D03*
X160320000Y-99873000D03*
X160320000Y-98603000D03*
X160320000Y-97333000D03*
X160320000Y-96063000D03*
X166920000Y-96063000D03*
X166920000Y-97333000D03*
X166920000Y-98603000D03*
X166920000Y-99873000D03*
X166920000Y-101143000D03*
X166920000Y-102413000D03*
X166920000Y-103683000D03*
X166920000Y-104953000D03*
X160320000Y-116953000D03*
X160320000Y-115683000D03*
X160320000Y-114413000D03*
X160320000Y-113143000D03*
X160320000Y-111873000D03*
X160320000Y-110603000D03*
X160320000Y-109333000D03*
X160320000Y-108063000D03*
X166920000Y-108063000D03*
X166920000Y-109333000D03*
X166920000Y-110603000D03*
X166920000Y-111873000D03*
X166920000Y-113143000D03*
X166920000Y-114413000D03*
X166920000Y-115683000D03*
X166920000Y-116953000D03*
D24*
X139600400Y-114000000D03*
X145899600Y-114000000D03*
D11*
X122682000Y-72745600D03*
D25*
X170027600Y-116687600D03*
D26*
X172567600Y-116687600D03*
D21*
X157366400Y-115519200D03*
X155866400Y-115519200D03*
M02*
