G04 #@! TF.FileFunction,Legend,Top*
%FSLAX46Y46*%
G04 Gerber Fmt 4.6, Leading zero omitted, Abs format (unit mm)*
G04 Created by KiCad (PCBNEW 4.0.7) date 01/05/18 11:34:56*
%MOMM*%
%LPD*%
G01*
G04 APERTURE LIST*
%ADD10C,0.100000*%
%ADD11C,0.150000*%
%ADD12C,0.120000*%
%ADD13C,0.152400*%
%ADD14C,3.448000*%
%ADD15R,0.650000X1.400000*%
%ADD16R,1.400000X0.650000*%
%ADD17R,1.200000X1.150000*%
%ADD18R,1.150000X1.200000*%
%ADD19R,1.400000X1.650000*%
%ADD20R,1.650000X1.400000*%
%ADD21C,1.050000*%
%ADD22R,1.050000X5.000000*%
%ADD23R,1.050000X4.000000*%
%ADD24R,1.197560X1.197560*%
%ADD25R,1.650000X2.400000*%
%ADD26R,2.400000X1.650000*%
%ADD27R,1.200000X1.300000*%
%ADD28R,2.178000X2.686000*%
%ADD29R,2.127200X2.127200*%
%ADD30O,2.127200X2.127200*%
%ADD31R,0.900380X2.701240*%
%ADD32R,2.398980X2.899360*%
%ADD33C,1.299160*%
%ADD34C,7.004000*%
%ADD35R,1.300000X1.200000*%
%ADD36R,1.300000X0.900000*%
%ADD37R,0.900000X1.300000*%
%ADD38R,1.460000X1.050000*%
%ADD39R,1.050000X1.460000*%
%ADD40R,2.400000X4.200000*%
%ADD41R,2.400000X1.900000*%
%ADD42R,2.100000X2.100000*%
%ADD43O,2.100000X2.100000*%
G04 APERTURE END LIST*
D10*
D11*
X179578000Y-117398800D02*
G75*
G03X179578000Y-117398800I-2286000J0D01*
G01*
X179578000Y-72745600D02*
G75*
G03X179578000Y-72745600I-2286000J0D01*
G01*
X143825000Y-106425000D02*
X144825000Y-106425000D01*
X143825000Y-96075000D02*
X144900000Y-96075000D01*
X154175000Y-96075000D02*
X153100000Y-96075000D01*
X154175000Y-106425000D02*
X153100000Y-106425000D01*
X143825000Y-106425000D02*
X143825000Y-105350000D01*
X154175000Y-106425000D02*
X154175000Y-105350000D01*
X154175000Y-96075000D02*
X154175000Y-97150000D01*
X143825000Y-96075000D02*
X143825000Y-97150000D01*
X144825000Y-106425000D02*
X144825000Y-107450000D01*
X151150000Y-108150000D02*
X151850000Y-108150000D01*
X151850000Y-109350000D02*
X151150000Y-109350000D01*
X150900000Y-93150000D02*
X151600000Y-93150000D01*
X151600000Y-94350000D02*
X150900000Y-94350000D01*
X142100000Y-105900000D02*
X142100000Y-106600000D01*
X140900000Y-106600000D02*
X140900000Y-105900000D01*
X155900000Y-102600000D02*
X155900000Y-101900000D01*
X157100000Y-101900000D02*
X157100000Y-102600000D01*
X157064000Y-98444000D02*
X157064000Y-99144000D01*
X155864000Y-99144000D02*
X155864000Y-98444000D01*
X147600000Y-94350000D02*
X146900000Y-94350000D01*
X146900000Y-93150000D02*
X147600000Y-93150000D01*
X140900000Y-101350000D02*
X140900000Y-100650000D01*
X142100000Y-100650000D02*
X142100000Y-101350000D01*
X129650000Y-102000000D02*
X128650000Y-102000000D01*
X128650000Y-103700000D02*
X129650000Y-103700000D01*
X129650000Y-98972000D02*
X128650000Y-98972000D01*
X128650000Y-100672000D02*
X129650000Y-100672000D01*
X128800000Y-104250000D02*
X129500000Y-104250000D01*
X129500000Y-105450000D02*
X128800000Y-105450000D01*
X128800000Y-97190000D02*
X129500000Y-97190000D01*
X129500000Y-98390000D02*
X128800000Y-98390000D01*
X130050000Y-114500000D02*
X130750000Y-114500000D01*
X130750000Y-115700000D02*
X130050000Y-115700000D01*
X122800000Y-110100000D02*
X122800000Y-111100000D01*
X124500000Y-111100000D02*
X124500000Y-110100000D01*
X134883600Y-110078000D02*
X134883600Y-109378000D01*
X136083600Y-109378000D02*
X136083600Y-110078000D01*
X142100000Y-98000000D02*
X142100000Y-97000000D01*
X140400000Y-97000000D02*
X140400000Y-98000000D01*
X161600000Y-85850000D02*
X162300000Y-85850000D01*
X162300000Y-87050000D02*
X161600000Y-87050000D01*
X161600000Y-84100000D02*
X162300000Y-84100000D01*
X162300000Y-85300000D02*
X161600000Y-85300000D01*
X140772000Y-113556800D02*
X140072000Y-113556800D01*
X140072000Y-112356800D02*
X140772000Y-112356800D01*
D12*
X151600000Y-123500000D02*
X151600000Y-120300000D01*
X151600000Y-120300000D02*
X153400000Y-120300000D01*
X153400000Y-120300000D02*
X153400000Y-123500000D01*
X140300000Y-123500000D02*
X151600000Y-123500000D01*
X151600000Y-123500000D02*
X151600000Y-129300000D01*
X151600000Y-129300000D02*
X140300000Y-129300000D01*
X140300000Y-129300000D02*
X140300000Y-123500000D01*
X160700000Y-123500000D02*
X153400000Y-123500000D01*
X153400000Y-129300000D02*
X160700000Y-129300000D01*
X153400000Y-123500000D02*
X153400000Y-129300000D01*
X160700000Y-123500000D02*
X160700000Y-129300000D01*
D11*
X158150000Y-102550000D02*
X160050000Y-102550000D01*
X158150000Y-101450000D02*
X160050000Y-101450000D01*
X159050000Y-102000000D02*
X159500000Y-102000000D01*
X159000000Y-101750000D02*
X159000000Y-102250000D01*
X159000000Y-102000000D02*
X159250000Y-101750000D01*
X159250000Y-101750000D02*
X159250000Y-102250000D01*
X159250000Y-102250000D02*
X159000000Y-102000000D01*
X158150700Y-101050000D02*
X160050700Y-101050000D01*
X158150700Y-99950000D02*
X160050700Y-99950000D01*
X159050700Y-100500000D02*
X159500700Y-100500000D01*
X159000700Y-100250000D02*
X159000700Y-100750000D01*
X159000700Y-100500000D02*
X159250700Y-100250000D01*
X159250700Y-100250000D02*
X159250700Y-100750000D01*
X159250700Y-100750000D02*
X159000700Y-100500000D01*
X170437000Y-97250000D02*
X170437000Y-94750000D01*
X172187000Y-96650000D02*
X172187000Y-95350000D01*
X172587000Y-95350000D02*
X172587000Y-96650000D01*
X172387000Y-96650000D02*
X172387000Y-95350000D01*
X174187000Y-96650000D02*
X172187000Y-96650000D01*
X172187000Y-95350000D02*
X174187000Y-95350000D01*
X176812000Y-98125000D02*
X179312000Y-98125000D01*
X177412000Y-99875000D02*
X178712000Y-99875000D01*
X178712000Y-100275000D02*
X177412000Y-100275000D01*
X177412000Y-100075000D02*
X178712000Y-100075000D01*
X177412000Y-101875000D02*
X177412000Y-99875000D01*
X178712000Y-99875000D02*
X178712000Y-101875000D01*
X176812000Y-104125000D02*
X179312000Y-104125000D01*
X177412000Y-105875000D02*
X178712000Y-105875000D01*
X178712000Y-106275000D02*
X177412000Y-106275000D01*
X177412000Y-106075000D02*
X178712000Y-106075000D01*
X177412000Y-107875000D02*
X177412000Y-105875000D01*
X178712000Y-105875000D02*
X178712000Y-107875000D01*
X176062000Y-114750000D02*
X173562000Y-114750000D01*
X175462000Y-113000000D02*
X174162000Y-113000000D01*
X174162000Y-112600000D02*
X175462000Y-112600000D01*
X175462000Y-112800000D02*
X174162000Y-112800000D01*
X175462000Y-111000000D02*
X175462000Y-113000000D01*
X174162000Y-113000000D02*
X174162000Y-111000000D01*
X173062000Y-114750000D02*
X170562000Y-114750000D01*
X172462000Y-113000000D02*
X171162000Y-113000000D01*
X171162000Y-112600000D02*
X172462000Y-112600000D01*
X172462000Y-112800000D02*
X171162000Y-112800000D01*
X172462000Y-111000000D02*
X172462000Y-113000000D01*
X171162000Y-113000000D02*
X171162000Y-111000000D01*
X167312000Y-104125000D02*
X169812000Y-104125000D01*
X167912000Y-105875000D02*
X169212000Y-105875000D01*
X169212000Y-106275000D02*
X167912000Y-106275000D01*
X167912000Y-106075000D02*
X169212000Y-106075000D01*
X167912000Y-107875000D02*
X167912000Y-105875000D01*
X169212000Y-105875000D02*
X169212000Y-107875000D01*
X167312000Y-98125000D02*
X169812000Y-98125000D01*
X167912000Y-99875000D02*
X169212000Y-99875000D01*
X169212000Y-100275000D02*
X167912000Y-100275000D01*
X167912000Y-100075000D02*
X169212000Y-100075000D01*
X167912000Y-101875000D02*
X167912000Y-99875000D01*
X169212000Y-99875000D02*
X169212000Y-101875000D01*
D12*
X149830000Y-112240000D02*
X148900000Y-112240000D01*
X146670000Y-112240000D02*
X147600000Y-112240000D01*
X146670000Y-112240000D02*
X146670000Y-114400000D01*
X149830000Y-112240000D02*
X149830000Y-113700000D01*
D11*
X135410000Y-83240000D02*
X135410000Y-82124000D01*
X127790000Y-83240000D02*
X127790000Y-82124000D01*
D13*
X126520000Y-83240000D02*
X126520000Y-70100000D01*
X135410000Y-83240000D02*
X136680000Y-83240000D01*
D11*
X129058100Y-71237400D02*
X128458100Y-70237400D01*
X129058100Y-71237400D02*
X129658100Y-70237400D01*
D13*
X126520000Y-83240000D02*
X127790000Y-83240000D01*
X126520000Y-70100000D02*
X136680000Y-70100000D01*
X136680000Y-83240000D02*
X136680000Y-70100000D01*
D11*
X165870000Y-83140000D02*
X165870000Y-82024000D01*
X158250000Y-83140000D02*
X158250000Y-82024000D01*
D13*
X156980000Y-83140000D02*
X156980000Y-70000000D01*
X165870000Y-83140000D02*
X167140000Y-83140000D01*
D11*
X159518100Y-71137400D02*
X158918100Y-70137400D01*
X159518100Y-71137400D02*
X160118100Y-70137400D01*
D13*
X156980000Y-83140000D02*
X158250000Y-83140000D01*
X156980000Y-70000000D02*
X167140000Y-70000000D01*
X167140000Y-83140000D02*
X167140000Y-70000000D01*
D11*
X175832000Y-105810000D02*
X175832000Y-98190000D01*
X175832000Y-98190000D02*
X170752000Y-98190000D01*
X170752000Y-98190000D02*
X170752000Y-108350000D01*
X170752000Y-108350000D02*
X173292000Y-108350000D01*
X174562000Y-108630000D02*
X176112000Y-108630000D01*
X173292000Y-108350000D02*
X173292000Y-105810000D01*
X173292000Y-105810000D02*
X175832000Y-105810000D01*
X176112000Y-108630000D02*
X176112000Y-107080000D01*
X152351000Y-71549920D02*
X144649720Y-71549920D01*
X152351000Y-70549160D02*
X144649720Y-70549160D01*
X144649720Y-70549160D02*
X144649720Y-79749040D01*
X144649720Y-79749040D02*
X152351000Y-79749040D01*
X152351000Y-79749040D02*
X152351000Y-70549160D01*
X125650000Y-102250000D02*
X124650000Y-102250000D01*
X124650000Y-103950000D02*
X125650000Y-103950000D01*
X125650000Y-99750000D02*
X124650000Y-99750000D01*
X124650000Y-101450000D02*
X125650000Y-101450000D01*
X126150000Y-115700000D02*
X127150000Y-115700000D01*
X127150000Y-114000000D02*
X126150000Y-114000000D01*
X165550000Y-89700000D02*
X165550000Y-88700000D01*
X163850000Y-88700000D02*
X163850000Y-89700000D01*
X169836000Y-78654600D02*
X169836000Y-90592600D01*
X175170000Y-74844600D02*
X172630000Y-74844600D01*
X177964000Y-90592600D02*
X177964000Y-78654600D01*
X172630000Y-74844600D02*
X169836000Y-78654600D01*
X177964000Y-78654600D02*
X175170000Y-74844600D01*
X177964000Y-90592600D02*
X169836000Y-90592600D01*
D12*
X132890000Y-100020000D02*
X132890000Y-100950000D01*
X132890000Y-103180000D02*
X132890000Y-102250000D01*
X132890000Y-103180000D02*
X135050000Y-103180000D01*
X132890000Y-100020000D02*
X134350000Y-100020000D01*
D11*
X157291400Y-105812400D02*
X157291400Y-106812400D01*
X155941400Y-106812400D02*
X155941400Y-105812400D01*
X133415400Y-104351200D02*
X133415400Y-105351200D01*
X132065400Y-105351200D02*
X132065400Y-104351200D01*
X146725000Y-110000000D02*
X146725000Y-109000000D01*
X148075000Y-109000000D02*
X148075000Y-110000000D01*
X159750000Y-104425000D02*
X158750000Y-104425000D01*
X158750000Y-103075000D02*
X159750000Y-103075000D01*
X148425000Y-110000000D02*
X148425000Y-109000000D01*
X149775000Y-109000000D02*
X149775000Y-110000000D01*
X159750000Y-99425000D02*
X158750000Y-99425000D01*
X158750000Y-98075000D02*
X159750000Y-98075000D01*
X145019400Y-110278800D02*
X145019400Y-109278800D01*
X146369400Y-109278800D02*
X146369400Y-110278800D01*
X155000000Y-109425000D02*
X154000000Y-109425000D01*
X154000000Y-108075000D02*
X155000000Y-108075000D01*
X136747000Y-113456800D02*
X136747000Y-112456800D01*
X138097000Y-112456800D02*
X138097000Y-113456800D01*
X142747000Y-116206800D02*
X142747000Y-115206800D01*
X144097000Y-115206800D02*
X144097000Y-116206800D01*
X144497000Y-116206800D02*
X144497000Y-115206800D01*
X145847000Y-115206800D02*
X145847000Y-116206800D01*
X138097000Y-115206800D02*
X138097000Y-116206800D01*
X136747000Y-116206800D02*
X136747000Y-115206800D01*
D12*
X139522000Y-117316800D02*
X141322000Y-117316800D01*
X141322000Y-114096800D02*
X138872000Y-114096800D01*
X160090000Y-88400000D02*
X160090000Y-90200000D01*
X163310000Y-90200000D02*
X163310000Y-87750000D01*
X131310000Y-113010000D02*
X131310000Y-111750000D01*
X131310000Y-106190000D02*
X131310000Y-107450000D01*
X127550000Y-113010000D02*
X131310000Y-113010000D01*
X125300000Y-106190000D02*
X131310000Y-106190000D01*
D11*
X124968000Y-72745600D02*
G75*
G03X124968000Y-72745600I-2286000J0D01*
G01*
D12*
X173897600Y-118017600D02*
X173897600Y-115357600D01*
X171297600Y-118017600D02*
X173897600Y-118017600D01*
X171297600Y-115357600D02*
X173897600Y-115357600D01*
X171297600Y-118017600D02*
X171297600Y-115357600D01*
X170027600Y-118017600D02*
X168697600Y-118017600D01*
X168697600Y-118017600D02*
X168697600Y-116687600D01*
D11*
X172656667Y-119578381D02*
X172323333Y-119102190D01*
X172085238Y-119578381D02*
X172085238Y-118578381D01*
X172466191Y-118578381D01*
X172561429Y-118626000D01*
X172609048Y-118673619D01*
X172656667Y-118768857D01*
X172656667Y-118911714D01*
X172609048Y-119006952D01*
X172561429Y-119054571D01*
X172466191Y-119102190D01*
X172085238Y-119102190D01*
X173085238Y-119054571D02*
X173418572Y-119054571D01*
X173561429Y-119578381D02*
X173085238Y-119578381D01*
X173085238Y-118578381D01*
X173561429Y-118578381D01*
X174323334Y-119054571D02*
X173990000Y-119054571D01*
X173990000Y-119578381D02*
X173990000Y-118578381D01*
X174466191Y-118578381D01*
X174990000Y-118578381D02*
X174990000Y-118816476D01*
X174751905Y-118721238D02*
X174990000Y-118816476D01*
X175228096Y-118721238D01*
X174847143Y-119006952D02*
X174990000Y-118816476D01*
X175132858Y-119006952D01*
X175751905Y-118578381D02*
X175751905Y-118816476D01*
X175513810Y-118721238D02*
X175751905Y-118816476D01*
X175990001Y-118721238D01*
X175609048Y-119006952D02*
X175751905Y-118816476D01*
X175894763Y-119006952D01*
X175958667Y-78023981D02*
X175625333Y-77547790D01*
X175387238Y-78023981D02*
X175387238Y-77023981D01*
X175768191Y-77023981D01*
X175863429Y-77071600D01*
X175911048Y-77119219D01*
X175958667Y-77214457D01*
X175958667Y-77357314D01*
X175911048Y-77452552D01*
X175863429Y-77500171D01*
X175768191Y-77547790D01*
X175387238Y-77547790D01*
X176387238Y-77500171D02*
X176720572Y-77500171D01*
X176863429Y-78023981D02*
X176387238Y-78023981D01*
X176387238Y-77023981D01*
X176863429Y-77023981D01*
X177625334Y-77500171D02*
X177292000Y-77500171D01*
X177292000Y-78023981D02*
X177292000Y-77023981D01*
X177768191Y-77023981D01*
X178292000Y-77023981D02*
X178292000Y-77262076D01*
X178053905Y-77166838D02*
X178292000Y-77262076D01*
X178530096Y-77166838D01*
X178149143Y-77452552D02*
X178292000Y-77262076D01*
X178434858Y-77452552D01*
X179053905Y-77023981D02*
X179053905Y-77262076D01*
X178815810Y-77166838D02*
X179053905Y-77262076D01*
X179292001Y-77166838D01*
X178911048Y-77452552D02*
X179053905Y-77262076D01*
X179196763Y-77452552D01*
X153543095Y-94702381D02*
X153543095Y-95511905D01*
X153590714Y-95607143D01*
X153638333Y-95654762D01*
X153733571Y-95702381D01*
X153924048Y-95702381D01*
X154019286Y-95654762D01*
X154066905Y-95607143D01*
X154114524Y-95511905D01*
X154114524Y-94702381D01*
X155114524Y-95702381D02*
X154543095Y-95702381D01*
X154828809Y-95702381D02*
X154828809Y-94702381D01*
X154733571Y-94845238D01*
X154638333Y-94940476D01*
X154543095Y-94988095D01*
X151333334Y-107207143D02*
X151285715Y-107254762D01*
X151142858Y-107302381D01*
X151047620Y-107302381D01*
X150904762Y-107254762D01*
X150809524Y-107159524D01*
X150761905Y-107064286D01*
X150714286Y-106873810D01*
X150714286Y-106730952D01*
X150761905Y-106540476D01*
X150809524Y-106445238D01*
X150904762Y-106350000D01*
X151047620Y-106302381D01*
X151142858Y-106302381D01*
X151285715Y-106350000D01*
X151333334Y-106397619D01*
X152285715Y-107302381D02*
X151714286Y-107302381D01*
X152000000Y-107302381D02*
X152000000Y-106302381D01*
X151904762Y-106445238D01*
X151809524Y-106540476D01*
X151714286Y-106588095D01*
X151083334Y-92559143D02*
X151035715Y-92606762D01*
X150892858Y-92654381D01*
X150797620Y-92654381D01*
X150654762Y-92606762D01*
X150559524Y-92511524D01*
X150511905Y-92416286D01*
X150464286Y-92225810D01*
X150464286Y-92082952D01*
X150511905Y-91892476D01*
X150559524Y-91797238D01*
X150654762Y-91702000D01*
X150797620Y-91654381D01*
X150892858Y-91654381D01*
X151035715Y-91702000D01*
X151083334Y-91749619D01*
X151464286Y-91749619D02*
X151511905Y-91702000D01*
X151607143Y-91654381D01*
X151845239Y-91654381D01*
X151940477Y-91702000D01*
X151988096Y-91749619D01*
X152035715Y-91844857D01*
X152035715Y-91940095D01*
X151988096Y-92082952D01*
X151416667Y-92654381D01*
X152035715Y-92654381D01*
X143757143Y-106416666D02*
X143804762Y-106464285D01*
X143852381Y-106607142D01*
X143852381Y-106702380D01*
X143804762Y-106845238D01*
X143709524Y-106940476D01*
X143614286Y-106988095D01*
X143423810Y-107035714D01*
X143280952Y-107035714D01*
X143090476Y-106988095D01*
X142995238Y-106940476D01*
X142900000Y-106845238D01*
X142852381Y-106702380D01*
X142852381Y-106607142D01*
X142900000Y-106464285D01*
X142947619Y-106416666D01*
X142852381Y-106083333D02*
X142852381Y-105464285D01*
X143233333Y-105797619D01*
X143233333Y-105654761D01*
X143280952Y-105559523D01*
X143328571Y-105511904D01*
X143423810Y-105464285D01*
X143661905Y-105464285D01*
X143757143Y-105511904D01*
X143804762Y-105559523D01*
X143852381Y-105654761D01*
X143852381Y-105940476D01*
X143804762Y-106035714D01*
X143757143Y-106083333D01*
X156424334Y-104751143D02*
X156376715Y-104798762D01*
X156233858Y-104846381D01*
X156138620Y-104846381D01*
X155995762Y-104798762D01*
X155900524Y-104703524D01*
X155852905Y-104608286D01*
X155805286Y-104417810D01*
X155805286Y-104274952D01*
X155852905Y-104084476D01*
X155900524Y-103989238D01*
X155995762Y-103894000D01*
X156138620Y-103846381D01*
X156233858Y-103846381D01*
X156376715Y-103894000D01*
X156424334Y-103941619D01*
X157281477Y-104179714D02*
X157281477Y-104846381D01*
X157043381Y-103798762D02*
X156805286Y-104513048D01*
X157424334Y-104513048D01*
X156297334Y-97131143D02*
X156249715Y-97178762D01*
X156106858Y-97226381D01*
X156011620Y-97226381D01*
X155868762Y-97178762D01*
X155773524Y-97083524D01*
X155725905Y-96988286D01*
X155678286Y-96797810D01*
X155678286Y-96654952D01*
X155725905Y-96464476D01*
X155773524Y-96369238D01*
X155868762Y-96274000D01*
X156011620Y-96226381D01*
X156106858Y-96226381D01*
X156249715Y-96274000D01*
X156297334Y-96321619D01*
X157202096Y-96226381D02*
X156725905Y-96226381D01*
X156678286Y-96702571D01*
X156725905Y-96654952D01*
X156821143Y-96607333D01*
X157059239Y-96607333D01*
X157154477Y-96654952D01*
X157202096Y-96702571D01*
X157249715Y-96797810D01*
X157249715Y-97035905D01*
X157202096Y-97131143D01*
X157154477Y-97178762D01*
X157059239Y-97226381D01*
X156821143Y-97226381D01*
X156725905Y-97178762D01*
X156678286Y-97131143D01*
X147083334Y-92559143D02*
X147035715Y-92606762D01*
X146892858Y-92654381D01*
X146797620Y-92654381D01*
X146654762Y-92606762D01*
X146559524Y-92511524D01*
X146511905Y-92416286D01*
X146464286Y-92225810D01*
X146464286Y-92082952D01*
X146511905Y-91892476D01*
X146559524Y-91797238D01*
X146654762Y-91702000D01*
X146797620Y-91654381D01*
X146892858Y-91654381D01*
X147035715Y-91702000D01*
X147083334Y-91749619D01*
X147940477Y-91654381D02*
X147750000Y-91654381D01*
X147654762Y-91702000D01*
X147607143Y-91749619D01*
X147511905Y-91892476D01*
X147464286Y-92082952D01*
X147464286Y-92463905D01*
X147511905Y-92559143D01*
X147559524Y-92606762D01*
X147654762Y-92654381D01*
X147845239Y-92654381D01*
X147940477Y-92606762D01*
X147988096Y-92559143D01*
X148035715Y-92463905D01*
X148035715Y-92225810D01*
X147988096Y-92130571D01*
X147940477Y-92082952D01*
X147845239Y-92035333D01*
X147654762Y-92035333D01*
X147559524Y-92082952D01*
X147511905Y-92130571D01*
X147464286Y-92225810D01*
X139957143Y-101166666D02*
X140004762Y-101214285D01*
X140052381Y-101357142D01*
X140052381Y-101452380D01*
X140004762Y-101595238D01*
X139909524Y-101690476D01*
X139814286Y-101738095D01*
X139623810Y-101785714D01*
X139480952Y-101785714D01*
X139290476Y-101738095D01*
X139195238Y-101690476D01*
X139100000Y-101595238D01*
X139052381Y-101452380D01*
X139052381Y-101357142D01*
X139100000Y-101214285D01*
X139147619Y-101166666D01*
X139052381Y-100833333D02*
X139052381Y-100166666D01*
X140052381Y-100595238D01*
X128507143Y-101107143D02*
X128459524Y-101154762D01*
X128316667Y-101202381D01*
X128221429Y-101202381D01*
X128078571Y-101154762D01*
X127983333Y-101059524D01*
X127935714Y-100964286D01*
X127888095Y-100773810D01*
X127888095Y-100630952D01*
X127935714Y-100440476D01*
X127983333Y-100345238D01*
X128078571Y-100250000D01*
X128221429Y-100202381D01*
X128316667Y-100202381D01*
X128459524Y-100250000D01*
X128507143Y-100297619D01*
X129459524Y-101202381D02*
X128888095Y-101202381D01*
X129173809Y-101202381D02*
X129173809Y-100202381D01*
X129078571Y-100345238D01*
X128983333Y-100440476D01*
X128888095Y-100488095D01*
X130078571Y-100202381D02*
X130173810Y-100202381D01*
X130269048Y-100250000D01*
X130316667Y-100297619D01*
X130364286Y-100392857D01*
X130411905Y-100583333D01*
X130411905Y-100821429D01*
X130364286Y-101011905D01*
X130316667Y-101107143D01*
X130269048Y-101154762D01*
X130173810Y-101202381D01*
X130078571Y-101202381D01*
X129983333Y-101154762D01*
X129935714Y-101107143D01*
X129888095Y-101011905D01*
X129840476Y-100821429D01*
X129840476Y-100583333D01*
X129888095Y-100392857D01*
X129935714Y-100297619D01*
X129983333Y-100250000D01*
X130078571Y-100202381D01*
X131802143Y-100448857D02*
X131849762Y-100496476D01*
X131897381Y-100639333D01*
X131897381Y-100734571D01*
X131849762Y-100877429D01*
X131754524Y-100972667D01*
X131659286Y-101020286D01*
X131468810Y-101067905D01*
X131325952Y-101067905D01*
X131135476Y-101020286D01*
X131040238Y-100972667D01*
X130945000Y-100877429D01*
X130897381Y-100734571D01*
X130897381Y-100639333D01*
X130945000Y-100496476D01*
X130992619Y-100448857D01*
X131897381Y-99496476D02*
X131897381Y-100067905D01*
X131897381Y-99782191D02*
X130897381Y-99782191D01*
X131040238Y-99877429D01*
X131135476Y-99972667D01*
X131183095Y-100067905D01*
X131897381Y-98544095D02*
X131897381Y-99115524D01*
X131897381Y-98829810D02*
X130897381Y-98829810D01*
X131040238Y-98925048D01*
X131135476Y-99020286D01*
X131183095Y-99115524D01*
X128507143Y-103307143D02*
X128459524Y-103354762D01*
X128316667Y-103402381D01*
X128221429Y-103402381D01*
X128078571Y-103354762D01*
X127983333Y-103259524D01*
X127935714Y-103164286D01*
X127888095Y-102973810D01*
X127888095Y-102830952D01*
X127935714Y-102640476D01*
X127983333Y-102545238D01*
X128078571Y-102450000D01*
X128221429Y-102402381D01*
X128316667Y-102402381D01*
X128459524Y-102450000D01*
X128507143Y-102497619D01*
X129459524Y-103402381D02*
X128888095Y-103402381D01*
X129173809Y-103402381D02*
X129173809Y-102402381D01*
X129078571Y-102545238D01*
X128983333Y-102640476D01*
X128888095Y-102688095D01*
X129840476Y-102497619D02*
X129888095Y-102450000D01*
X129983333Y-102402381D01*
X130221429Y-102402381D01*
X130316667Y-102450000D01*
X130364286Y-102497619D01*
X130411905Y-102592857D01*
X130411905Y-102688095D01*
X130364286Y-102830952D01*
X129792857Y-103402381D01*
X130411905Y-103402381D01*
X128507143Y-96829143D02*
X128459524Y-96876762D01*
X128316667Y-96924381D01*
X128221429Y-96924381D01*
X128078571Y-96876762D01*
X127983333Y-96781524D01*
X127935714Y-96686286D01*
X127888095Y-96495810D01*
X127888095Y-96352952D01*
X127935714Y-96162476D01*
X127983333Y-96067238D01*
X128078571Y-95972000D01*
X128221429Y-95924381D01*
X128316667Y-95924381D01*
X128459524Y-95972000D01*
X128507143Y-96019619D01*
X129459524Y-96924381D02*
X128888095Y-96924381D01*
X129173809Y-96924381D02*
X129173809Y-95924381D01*
X129078571Y-96067238D01*
X128983333Y-96162476D01*
X128888095Y-96210095D01*
X129792857Y-95924381D02*
X130411905Y-95924381D01*
X130078571Y-96305333D01*
X130221429Y-96305333D01*
X130316667Y-96352952D01*
X130364286Y-96400571D01*
X130411905Y-96495810D01*
X130411905Y-96733905D01*
X130364286Y-96829143D01*
X130316667Y-96876762D01*
X130221429Y-96924381D01*
X129935714Y-96924381D01*
X129840476Y-96876762D01*
X129792857Y-96829143D01*
X129786143Y-116943143D02*
X129738524Y-116990762D01*
X129595667Y-117038381D01*
X129500429Y-117038381D01*
X129357571Y-116990762D01*
X129262333Y-116895524D01*
X129214714Y-116800286D01*
X129167095Y-116609810D01*
X129167095Y-116466952D01*
X129214714Y-116276476D01*
X129262333Y-116181238D01*
X129357571Y-116086000D01*
X129500429Y-116038381D01*
X129595667Y-116038381D01*
X129738524Y-116086000D01*
X129786143Y-116133619D01*
X130738524Y-117038381D02*
X130167095Y-117038381D01*
X130452809Y-117038381D02*
X130452809Y-116038381D01*
X130357571Y-116181238D01*
X130262333Y-116276476D01*
X130167095Y-116324095D01*
X131071857Y-116038381D02*
X131738524Y-116038381D01*
X131309952Y-117038381D01*
X122277143Y-111259857D02*
X122324762Y-111307476D01*
X122372381Y-111450333D01*
X122372381Y-111545571D01*
X122324762Y-111688429D01*
X122229524Y-111783667D01*
X122134286Y-111831286D01*
X121943810Y-111878905D01*
X121800952Y-111878905D01*
X121610476Y-111831286D01*
X121515238Y-111783667D01*
X121420000Y-111688429D01*
X121372381Y-111545571D01*
X121372381Y-111450333D01*
X121420000Y-111307476D01*
X121467619Y-111259857D01*
X122372381Y-110307476D02*
X122372381Y-110878905D01*
X122372381Y-110593191D02*
X121372381Y-110593191D01*
X121515238Y-110688429D01*
X121610476Y-110783667D01*
X121658095Y-110878905D01*
X121800952Y-109736048D02*
X121753333Y-109831286D01*
X121705714Y-109878905D01*
X121610476Y-109926524D01*
X121562857Y-109926524D01*
X121467619Y-109878905D01*
X121420000Y-109831286D01*
X121372381Y-109736048D01*
X121372381Y-109545571D01*
X121420000Y-109450333D01*
X121467619Y-109402714D01*
X121562857Y-109355095D01*
X121610476Y-109355095D01*
X121705714Y-109402714D01*
X121753333Y-109450333D01*
X121800952Y-109545571D01*
X121800952Y-109736048D01*
X121848571Y-109831286D01*
X121896190Y-109878905D01*
X121991429Y-109926524D01*
X122181905Y-109926524D01*
X122277143Y-109878905D01*
X122324762Y-109831286D01*
X122372381Y-109736048D01*
X122372381Y-109545571D01*
X122324762Y-109450333D01*
X122277143Y-109402714D01*
X122181905Y-109355095D01*
X121991429Y-109355095D01*
X121896190Y-109402714D01*
X121848571Y-109450333D01*
X121800952Y-109545571D01*
X137390143Y-110370857D02*
X137437762Y-110418476D01*
X137485381Y-110561333D01*
X137485381Y-110656571D01*
X137437762Y-110799429D01*
X137342524Y-110894667D01*
X137247286Y-110942286D01*
X137056810Y-110989905D01*
X136913952Y-110989905D01*
X136723476Y-110942286D01*
X136628238Y-110894667D01*
X136533000Y-110799429D01*
X136485381Y-110656571D01*
X136485381Y-110561333D01*
X136533000Y-110418476D01*
X136580619Y-110370857D01*
X137485381Y-109418476D02*
X137485381Y-109989905D01*
X137485381Y-109704191D02*
X136485381Y-109704191D01*
X136628238Y-109799429D01*
X136723476Y-109894667D01*
X136771095Y-109989905D01*
X137485381Y-108942286D02*
X137485381Y-108751810D01*
X137437762Y-108656571D01*
X137390143Y-108608952D01*
X137247286Y-108513714D01*
X137056810Y-108466095D01*
X136675857Y-108466095D01*
X136580619Y-108513714D01*
X136533000Y-108561333D01*
X136485381Y-108656571D01*
X136485381Y-108847048D01*
X136533000Y-108942286D01*
X136580619Y-108989905D01*
X136675857Y-109037524D01*
X136913952Y-109037524D01*
X137009190Y-108989905D01*
X137056810Y-108942286D01*
X137104429Y-108847048D01*
X137104429Y-108656571D01*
X137056810Y-108561333D01*
X137009190Y-108513714D01*
X136913952Y-108466095D01*
X143707143Y-98142857D02*
X143754762Y-98190476D01*
X143802381Y-98333333D01*
X143802381Y-98428571D01*
X143754762Y-98571429D01*
X143659524Y-98666667D01*
X143564286Y-98714286D01*
X143373810Y-98761905D01*
X143230952Y-98761905D01*
X143040476Y-98714286D01*
X142945238Y-98666667D01*
X142850000Y-98571429D01*
X142802381Y-98428571D01*
X142802381Y-98333333D01*
X142850000Y-98190476D01*
X142897619Y-98142857D01*
X142897619Y-97761905D02*
X142850000Y-97714286D01*
X142802381Y-97619048D01*
X142802381Y-97380952D01*
X142850000Y-97285714D01*
X142897619Y-97238095D01*
X142992857Y-97190476D01*
X143088095Y-97190476D01*
X143230952Y-97238095D01*
X143802381Y-97809524D01*
X143802381Y-97190476D01*
X143802381Y-96238095D02*
X143802381Y-96809524D01*
X143802381Y-96523810D02*
X142802381Y-96523810D01*
X142945238Y-96619048D01*
X143040476Y-96714286D01*
X143088095Y-96809524D01*
X164203143Y-86844143D02*
X164155524Y-86891762D01*
X164012667Y-86939381D01*
X163917429Y-86939381D01*
X163774571Y-86891762D01*
X163679333Y-86796524D01*
X163631714Y-86701286D01*
X163584095Y-86510810D01*
X163584095Y-86367952D01*
X163631714Y-86177476D01*
X163679333Y-86082238D01*
X163774571Y-85987000D01*
X163917429Y-85939381D01*
X164012667Y-85939381D01*
X164155524Y-85987000D01*
X164203143Y-86034619D01*
X164584095Y-86034619D02*
X164631714Y-85987000D01*
X164726952Y-85939381D01*
X164965048Y-85939381D01*
X165060286Y-85987000D01*
X165107905Y-86034619D01*
X165155524Y-86129857D01*
X165155524Y-86225095D01*
X165107905Y-86367952D01*
X164536476Y-86939381D01*
X165155524Y-86939381D01*
X165536476Y-86034619D02*
X165584095Y-85987000D01*
X165679333Y-85939381D01*
X165917429Y-85939381D01*
X166012667Y-85987000D01*
X166060286Y-86034619D01*
X166107905Y-86129857D01*
X166107905Y-86225095D01*
X166060286Y-86367952D01*
X165488857Y-86939381D01*
X166107905Y-86939381D01*
X164203143Y-85193143D02*
X164155524Y-85240762D01*
X164012667Y-85288381D01*
X163917429Y-85288381D01*
X163774571Y-85240762D01*
X163679333Y-85145524D01*
X163631714Y-85050286D01*
X163584095Y-84859810D01*
X163584095Y-84716952D01*
X163631714Y-84526476D01*
X163679333Y-84431238D01*
X163774571Y-84336000D01*
X163917429Y-84288381D01*
X164012667Y-84288381D01*
X164155524Y-84336000D01*
X164203143Y-84383619D01*
X164584095Y-84383619D02*
X164631714Y-84336000D01*
X164726952Y-84288381D01*
X164965048Y-84288381D01*
X165060286Y-84336000D01*
X165107905Y-84383619D01*
X165155524Y-84478857D01*
X165155524Y-84574095D01*
X165107905Y-84716952D01*
X164536476Y-85288381D01*
X165155524Y-85288381D01*
X165488857Y-84288381D02*
X166107905Y-84288381D01*
X165774571Y-84669333D01*
X165917429Y-84669333D01*
X166012667Y-84716952D01*
X166060286Y-84764571D01*
X166107905Y-84859810D01*
X166107905Y-85097905D01*
X166060286Y-85193143D01*
X166012667Y-85240762D01*
X165917429Y-85288381D01*
X165631714Y-85288381D01*
X165536476Y-85240762D01*
X165488857Y-85193143D01*
X139692143Y-112117143D02*
X139644524Y-112164762D01*
X139501667Y-112212381D01*
X139406429Y-112212381D01*
X139263571Y-112164762D01*
X139168333Y-112069524D01*
X139120714Y-111974286D01*
X139073095Y-111783810D01*
X139073095Y-111640952D01*
X139120714Y-111450476D01*
X139168333Y-111355238D01*
X139263571Y-111260000D01*
X139406429Y-111212381D01*
X139501667Y-111212381D01*
X139644524Y-111260000D01*
X139692143Y-111307619D01*
X140073095Y-111307619D02*
X140120714Y-111260000D01*
X140215952Y-111212381D01*
X140454048Y-111212381D01*
X140549286Y-111260000D01*
X140596905Y-111307619D01*
X140644524Y-111402857D01*
X140644524Y-111498095D01*
X140596905Y-111640952D01*
X140025476Y-112212381D01*
X140644524Y-112212381D01*
X141501667Y-111545714D02*
X141501667Y-112212381D01*
X141263571Y-111164762D02*
X141025476Y-111879048D01*
X141644524Y-111879048D01*
X144835715Y-122547143D02*
X144788096Y-122594762D01*
X144645239Y-122642381D01*
X144550001Y-122642381D01*
X144407143Y-122594762D01*
X144311905Y-122499524D01*
X144264286Y-122404286D01*
X144216667Y-122213810D01*
X144216667Y-122070952D01*
X144264286Y-121880476D01*
X144311905Y-121785238D01*
X144407143Y-121690000D01*
X144550001Y-121642381D01*
X144645239Y-121642381D01*
X144788096Y-121690000D01*
X144835715Y-121737619D01*
X145454762Y-121642381D02*
X145645239Y-121642381D01*
X145740477Y-121690000D01*
X145835715Y-121785238D01*
X145883334Y-121975714D01*
X145883334Y-122309048D01*
X145835715Y-122499524D01*
X145740477Y-122594762D01*
X145645239Y-122642381D01*
X145454762Y-122642381D01*
X145359524Y-122594762D01*
X145264286Y-122499524D01*
X145216667Y-122309048D01*
X145216667Y-121975714D01*
X145264286Y-121785238D01*
X145359524Y-121690000D01*
X145454762Y-121642381D01*
X146311905Y-122642381D02*
X146311905Y-121642381D01*
X146883334Y-122642381D01*
X146883334Y-121642381D01*
X147883334Y-122642381D02*
X147311905Y-122642381D01*
X147597619Y-122642381D02*
X147597619Y-121642381D01*
X147502381Y-121785238D01*
X147407143Y-121880476D01*
X147311905Y-121928095D01*
X160932905Y-102560381D02*
X160932905Y-101560381D01*
X161171000Y-101560381D01*
X161313858Y-101608000D01*
X161409096Y-101703238D01*
X161456715Y-101798476D01*
X161504334Y-101988952D01*
X161504334Y-102131810D01*
X161456715Y-102322286D01*
X161409096Y-102417524D01*
X161313858Y-102512762D01*
X161171000Y-102560381D01*
X160932905Y-102560381D01*
X162456715Y-102560381D02*
X161885286Y-102560381D01*
X162171000Y-102560381D02*
X162171000Y-101560381D01*
X162075762Y-101703238D01*
X161980524Y-101798476D01*
X161885286Y-101846095D01*
X160932905Y-101036381D02*
X160932905Y-100036381D01*
X161171000Y-100036381D01*
X161313858Y-100084000D01*
X161409096Y-100179238D01*
X161456715Y-100274476D01*
X161504334Y-100464952D01*
X161504334Y-100607810D01*
X161456715Y-100798286D01*
X161409096Y-100893524D01*
X161313858Y-100988762D01*
X161171000Y-101036381D01*
X160932905Y-101036381D01*
X161885286Y-100131619D02*
X161932905Y-100084000D01*
X162028143Y-100036381D01*
X162266239Y-100036381D01*
X162361477Y-100084000D01*
X162409096Y-100131619D01*
X162456715Y-100226857D01*
X162456715Y-100322095D01*
X162409096Y-100464952D01*
X161837667Y-101036381D01*
X162456715Y-101036381D01*
X172596524Y-94849905D02*
X172596524Y-94049905D01*
X172787000Y-94049905D01*
X172901286Y-94088000D01*
X172977477Y-94164190D01*
X173015572Y-94240381D01*
X173053667Y-94392762D01*
X173053667Y-94507048D01*
X173015572Y-94659429D01*
X172977477Y-94735619D01*
X172901286Y-94811810D01*
X172787000Y-94849905D01*
X172596524Y-94849905D01*
X173320334Y-94049905D02*
X173815572Y-94049905D01*
X173548905Y-94354667D01*
X173663191Y-94354667D01*
X173739381Y-94392762D01*
X173777477Y-94430857D01*
X173815572Y-94507048D01*
X173815572Y-94697524D01*
X173777477Y-94773714D01*
X173739381Y-94811810D01*
X173663191Y-94849905D01*
X173434619Y-94849905D01*
X173358429Y-94811810D01*
X173320334Y-94773714D01*
X176891905Y-101465476D02*
X176091905Y-101465476D01*
X176091905Y-101275000D01*
X176130000Y-101160714D01*
X176206190Y-101084523D01*
X176282381Y-101046428D01*
X176434762Y-101008333D01*
X176549048Y-101008333D01*
X176701429Y-101046428D01*
X176777619Y-101084523D01*
X176853810Y-101160714D01*
X176891905Y-101275000D01*
X176891905Y-101465476D01*
X176358571Y-100322619D02*
X176891905Y-100322619D01*
X176053810Y-100513095D02*
X176625238Y-100703571D01*
X176625238Y-100208333D01*
X177145905Y-107465476D02*
X176345905Y-107465476D01*
X176345905Y-107275000D01*
X176384000Y-107160714D01*
X176460190Y-107084523D01*
X176536381Y-107046428D01*
X176688762Y-107008333D01*
X176803048Y-107008333D01*
X176955429Y-107046428D01*
X177031619Y-107084523D01*
X177107810Y-107160714D01*
X177145905Y-107275000D01*
X177145905Y-107465476D01*
X176345905Y-106284523D02*
X176345905Y-106665476D01*
X176726857Y-106703571D01*
X176688762Y-106665476D01*
X176650667Y-106589285D01*
X176650667Y-106398809D01*
X176688762Y-106322619D01*
X176726857Y-106284523D01*
X176803048Y-106246428D01*
X176993524Y-106246428D01*
X177069714Y-106284523D01*
X177107810Y-106322619D01*
X177145905Y-106398809D01*
X177145905Y-106589285D01*
X177107810Y-106665476D01*
X177069714Y-106703571D01*
X176637905Y-112477476D02*
X175837905Y-112477476D01*
X175837905Y-112287000D01*
X175876000Y-112172714D01*
X175952190Y-112096523D01*
X176028381Y-112058428D01*
X176180762Y-112020333D01*
X176295048Y-112020333D01*
X176447429Y-112058428D01*
X176523619Y-112096523D01*
X176599810Y-112172714D01*
X176637905Y-112287000D01*
X176637905Y-112477476D01*
X175837905Y-111334619D02*
X175837905Y-111487000D01*
X175876000Y-111563190D01*
X175914095Y-111601285D01*
X176028381Y-111677476D01*
X176180762Y-111715571D01*
X176485524Y-111715571D01*
X176561714Y-111677476D01*
X176599810Y-111639381D01*
X176637905Y-111563190D01*
X176637905Y-111410809D01*
X176599810Y-111334619D01*
X176561714Y-111296523D01*
X176485524Y-111258428D01*
X176295048Y-111258428D01*
X176218857Y-111296523D01*
X176180762Y-111334619D01*
X176142667Y-111410809D01*
X176142667Y-111563190D01*
X176180762Y-111639381D01*
X176218857Y-111677476D01*
X176295048Y-111715571D01*
X170668905Y-112477476D02*
X169868905Y-112477476D01*
X169868905Y-112287000D01*
X169907000Y-112172714D01*
X169983190Y-112096523D01*
X170059381Y-112058428D01*
X170211762Y-112020333D01*
X170326048Y-112020333D01*
X170478429Y-112058428D01*
X170554619Y-112096523D01*
X170630810Y-112172714D01*
X170668905Y-112287000D01*
X170668905Y-112477476D01*
X169868905Y-111753666D02*
X169868905Y-111220333D01*
X170668905Y-111563190D01*
X167620905Y-107397476D02*
X166820905Y-107397476D01*
X166820905Y-107207000D01*
X166859000Y-107092714D01*
X166935190Y-107016523D01*
X167011381Y-106978428D01*
X167163762Y-106940333D01*
X167278048Y-106940333D01*
X167430429Y-106978428D01*
X167506619Y-107016523D01*
X167582810Y-107092714D01*
X167620905Y-107207000D01*
X167620905Y-107397476D01*
X167163762Y-106483190D02*
X167125667Y-106559381D01*
X167087571Y-106597476D01*
X167011381Y-106635571D01*
X166973286Y-106635571D01*
X166897095Y-106597476D01*
X166859000Y-106559381D01*
X166820905Y-106483190D01*
X166820905Y-106330809D01*
X166859000Y-106254619D01*
X166897095Y-106216523D01*
X166973286Y-106178428D01*
X167011381Y-106178428D01*
X167087571Y-106216523D01*
X167125667Y-106254619D01*
X167163762Y-106330809D01*
X167163762Y-106483190D01*
X167201857Y-106559381D01*
X167239952Y-106597476D01*
X167316143Y-106635571D01*
X167468524Y-106635571D01*
X167544714Y-106597476D01*
X167582810Y-106559381D01*
X167620905Y-106483190D01*
X167620905Y-106330809D01*
X167582810Y-106254619D01*
X167544714Y-106216523D01*
X167468524Y-106178428D01*
X167316143Y-106178428D01*
X167239952Y-106216523D01*
X167201857Y-106254619D01*
X167163762Y-106330809D01*
X167493905Y-101428476D02*
X166693905Y-101428476D01*
X166693905Y-101238000D01*
X166732000Y-101123714D01*
X166808190Y-101047523D01*
X166884381Y-101009428D01*
X167036762Y-100971333D01*
X167151048Y-100971333D01*
X167303429Y-101009428D01*
X167379619Y-101047523D01*
X167455810Y-101123714D01*
X167493905Y-101238000D01*
X167493905Y-101428476D01*
X167493905Y-100590381D02*
X167493905Y-100438000D01*
X167455810Y-100361809D01*
X167417714Y-100323714D01*
X167303429Y-100247523D01*
X167151048Y-100209428D01*
X166846286Y-100209428D01*
X166770095Y-100247523D01*
X166732000Y-100285619D01*
X166693905Y-100361809D01*
X166693905Y-100514190D01*
X166732000Y-100590381D01*
X166770095Y-100628476D01*
X166846286Y-100666571D01*
X167036762Y-100666571D01*
X167112952Y-100628476D01*
X167151048Y-100590381D01*
X167189143Y-100514190D01*
X167189143Y-100361809D01*
X167151048Y-100285619D01*
X167112952Y-100247523D01*
X167036762Y-100209428D01*
X145678571Y-113333333D02*
X145678571Y-113666667D01*
X146202381Y-113666667D02*
X145202381Y-113666667D01*
X145202381Y-113190476D01*
X146202381Y-112285714D02*
X146202381Y-112857143D01*
X146202381Y-112571429D02*
X145202381Y-112571429D01*
X145345238Y-112666667D01*
X145440476Y-112761905D01*
X145488095Y-112857143D01*
X131111667Y-82510381D02*
X131111667Y-83224667D01*
X131064047Y-83367524D01*
X130968809Y-83462762D01*
X130825952Y-83510381D01*
X130730714Y-83510381D01*
X132111667Y-83510381D02*
X131540238Y-83510381D01*
X131825952Y-83510381D02*
X131825952Y-82510381D01*
X131730714Y-82653238D01*
X131635476Y-82748476D01*
X131540238Y-82796095D01*
X161726667Y-77412381D02*
X161726667Y-78126667D01*
X161679047Y-78269524D01*
X161583809Y-78364762D01*
X161440952Y-78412381D01*
X161345714Y-78412381D01*
X162155238Y-77507619D02*
X162202857Y-77460000D01*
X162298095Y-77412381D01*
X162536191Y-77412381D01*
X162631429Y-77460000D01*
X162679048Y-77507619D01*
X162726667Y-77602857D01*
X162726667Y-77698095D01*
X162679048Y-77840952D01*
X162107619Y-78412381D01*
X162726667Y-78412381D01*
X172894667Y-96988381D02*
X172894667Y-97702667D01*
X172847047Y-97845524D01*
X172751809Y-97940762D01*
X172608952Y-97988381D01*
X172513714Y-97988381D01*
X173275619Y-96988381D02*
X173894667Y-96988381D01*
X173561333Y-97369333D01*
X173704191Y-97369333D01*
X173799429Y-97416952D01*
X173847048Y-97464571D01*
X173894667Y-97559810D01*
X173894667Y-97797905D01*
X173847048Y-97893143D01*
X173799429Y-97940762D01*
X173704191Y-97988381D01*
X173418476Y-97988381D01*
X173323238Y-97940762D01*
X173275619Y-97893143D01*
X145843667Y-80478381D02*
X145843667Y-81192667D01*
X145796047Y-81335524D01*
X145700809Y-81430762D01*
X145557952Y-81478381D01*
X145462714Y-81478381D01*
X146748429Y-80811714D02*
X146748429Y-81478381D01*
X146510333Y-80430762D02*
X146272238Y-81145048D01*
X146891286Y-81145048D01*
X122388334Y-103576381D02*
X121912143Y-103576381D01*
X121912143Y-102576381D01*
X123245477Y-103576381D02*
X122674048Y-103576381D01*
X122959762Y-103576381D02*
X122959762Y-102576381D01*
X122864524Y-102719238D01*
X122769286Y-102814476D01*
X122674048Y-102862095D01*
X122388334Y-101163381D02*
X121912143Y-101163381D01*
X121912143Y-100163381D01*
X122674048Y-100258619D02*
X122721667Y-100211000D01*
X122816905Y-100163381D01*
X123055001Y-100163381D01*
X123150239Y-100211000D01*
X123197858Y-100258619D01*
X123245477Y-100353857D01*
X123245477Y-100449095D01*
X123197858Y-100591952D01*
X122626429Y-101163381D01*
X123245477Y-101163381D01*
X126452334Y-117038381D02*
X125976143Y-117038381D01*
X125976143Y-116038381D01*
X126690429Y-116038381D02*
X127309477Y-116038381D01*
X126976143Y-116419333D01*
X127119001Y-116419333D01*
X127214239Y-116466952D01*
X127261858Y-116514571D01*
X127309477Y-116609810D01*
X127309477Y-116847905D01*
X127261858Y-116943143D01*
X127214239Y-116990762D01*
X127119001Y-117038381D01*
X126833286Y-117038381D01*
X126738048Y-116990762D01*
X126690429Y-116943143D01*
X167252381Y-89366666D02*
X167252381Y-89842857D01*
X166252381Y-89842857D01*
X166585714Y-88604761D02*
X167252381Y-88604761D01*
X166204762Y-88842857D02*
X166919048Y-89080952D01*
X166919048Y-88461904D01*
X169362381Y-83669095D02*
X168362381Y-83669095D01*
X168362381Y-83288142D01*
X168410000Y-83192904D01*
X168457619Y-83145285D01*
X168552857Y-83097666D01*
X168695714Y-83097666D01*
X168790952Y-83145285D01*
X168838571Y-83192904D01*
X168886190Y-83288142D01*
X168886190Y-83669095D01*
X169362381Y-82145285D02*
X169362381Y-82716714D01*
X169362381Y-82431000D02*
X168362381Y-82431000D01*
X168505238Y-82526238D01*
X168600476Y-82621476D01*
X168648095Y-82716714D01*
X179204762Y-88337648D02*
X179252381Y-88194791D01*
X179252381Y-87956695D01*
X179204762Y-87861457D01*
X179157143Y-87813838D01*
X179061905Y-87766219D01*
X178966667Y-87766219D01*
X178871429Y-87813838D01*
X178823810Y-87861457D01*
X178776190Y-87956695D01*
X178728571Y-88147172D01*
X178680952Y-88242410D01*
X178633333Y-88290029D01*
X178538095Y-88337648D01*
X178442857Y-88337648D01*
X178347619Y-88290029D01*
X178300000Y-88242410D01*
X178252381Y-88147172D01*
X178252381Y-87909076D01*
X178300000Y-87766219D01*
X179252381Y-87194791D02*
X179204762Y-87290029D01*
X179157143Y-87337648D01*
X179061905Y-87385267D01*
X178776190Y-87385267D01*
X178680952Y-87337648D01*
X178633333Y-87290029D01*
X178585714Y-87194791D01*
X178585714Y-87051933D01*
X178633333Y-86956695D01*
X178680952Y-86909076D01*
X178776190Y-86861457D01*
X179061905Y-86861457D01*
X179157143Y-86909076D01*
X179204762Y-86956695D01*
X179252381Y-87051933D01*
X179252381Y-87194791D01*
X179252381Y-86290029D02*
X179204762Y-86385267D01*
X179109524Y-86432886D01*
X178252381Y-86432886D01*
X179204762Y-85528123D02*
X179252381Y-85623361D01*
X179252381Y-85813838D01*
X179204762Y-85909076D01*
X179109524Y-85956695D01*
X178728571Y-85956695D01*
X178633333Y-85909076D01*
X178585714Y-85813838D01*
X178585714Y-85623361D01*
X178633333Y-85528123D01*
X178728571Y-85480504D01*
X178823810Y-85480504D01*
X178919048Y-85956695D01*
X178585714Y-85051933D02*
X179252381Y-85051933D01*
X178680952Y-85051933D02*
X178633333Y-85004314D01*
X178585714Y-84909076D01*
X178585714Y-84766218D01*
X178633333Y-84670980D01*
X178728571Y-84623361D01*
X179252381Y-84623361D01*
X179252381Y-84004314D02*
X179204762Y-84099552D01*
X179157143Y-84147171D01*
X179061905Y-84194790D01*
X178776190Y-84194790D01*
X178680952Y-84147171D01*
X178633333Y-84099552D01*
X178585714Y-84004314D01*
X178585714Y-83861456D01*
X178633333Y-83766218D01*
X178680952Y-83718599D01*
X178776190Y-83670980D01*
X179061905Y-83670980D01*
X179157143Y-83718599D01*
X179204762Y-83766218D01*
X179252381Y-83861456D01*
X179252381Y-84004314D01*
X179252381Y-83242409D02*
X178585714Y-83242409D01*
X178252381Y-83242409D02*
X178300000Y-83290028D01*
X178347619Y-83242409D01*
X178300000Y-83194790D01*
X178252381Y-83242409D01*
X178347619Y-83242409D01*
X179252381Y-82337647D02*
X178252381Y-82337647D01*
X179204762Y-82337647D02*
X179252381Y-82432885D01*
X179252381Y-82623362D01*
X179204762Y-82718600D01*
X179157143Y-82766219D01*
X179061905Y-82813838D01*
X178776190Y-82813838D01*
X178680952Y-82766219D01*
X178633333Y-82718600D01*
X178585714Y-82623362D01*
X178585714Y-82432885D01*
X178633333Y-82337647D01*
X179252381Y-81099552D02*
X178252381Y-81099552D01*
X178252381Y-80718599D01*
X178300000Y-80623361D01*
X178347619Y-80575742D01*
X178442857Y-80528123D01*
X178585714Y-80528123D01*
X178680952Y-80575742D01*
X178728571Y-80623361D01*
X178776190Y-80718599D01*
X178776190Y-81099552D01*
X179252381Y-79956695D02*
X179204762Y-80051933D01*
X179157143Y-80099552D01*
X179061905Y-80147171D01*
X178776190Y-80147171D01*
X178680952Y-80099552D01*
X178633333Y-80051933D01*
X178585714Y-79956695D01*
X178585714Y-79813837D01*
X178633333Y-79718599D01*
X178680952Y-79670980D01*
X178776190Y-79623361D01*
X179061905Y-79623361D01*
X179157143Y-79670980D01*
X179204762Y-79718599D01*
X179252381Y-79813837D01*
X179252381Y-79956695D01*
X178585714Y-79290028D02*
X179252381Y-79099552D01*
X178776190Y-78909075D01*
X179252381Y-78718599D01*
X178585714Y-78528123D01*
X179204762Y-77766218D02*
X179252381Y-77861456D01*
X179252381Y-78051933D01*
X179204762Y-78147171D01*
X179109524Y-78194790D01*
X178728571Y-78194790D01*
X178633333Y-78147171D01*
X178585714Y-78051933D01*
X178585714Y-77861456D01*
X178633333Y-77766218D01*
X178728571Y-77718599D01*
X178823810Y-77718599D01*
X178919048Y-78194790D01*
X179252381Y-77290028D02*
X178585714Y-77290028D01*
X178776190Y-77290028D02*
X178680952Y-77242409D01*
X178633333Y-77194790D01*
X178585714Y-77099552D01*
X178585714Y-77004313D01*
X133554762Y-104647619D02*
X133459524Y-104600000D01*
X133364286Y-104504762D01*
X133221429Y-104361905D01*
X133126190Y-104314286D01*
X133030952Y-104314286D01*
X133078571Y-104552381D02*
X132983333Y-104504762D01*
X132888095Y-104409524D01*
X132840476Y-104219048D01*
X132840476Y-103885714D01*
X132888095Y-103695238D01*
X132983333Y-103600000D01*
X133078571Y-103552381D01*
X133269048Y-103552381D01*
X133364286Y-103600000D01*
X133459524Y-103695238D01*
X133507143Y-103885714D01*
X133507143Y-104219048D01*
X133459524Y-104409524D01*
X133364286Y-104504762D01*
X133269048Y-104552381D01*
X133078571Y-104552381D01*
X134459524Y-104552381D02*
X133888095Y-104552381D01*
X134173809Y-104552381D02*
X134173809Y-103552381D01*
X134078571Y-103695238D01*
X133983333Y-103790476D01*
X133888095Y-103838095D01*
X158821381Y-106465666D02*
X158345190Y-106799000D01*
X158821381Y-107037095D02*
X157821381Y-107037095D01*
X157821381Y-106656142D01*
X157869000Y-106560904D01*
X157916619Y-106513285D01*
X158011857Y-106465666D01*
X158154714Y-106465666D01*
X158249952Y-106513285D01*
X158297571Y-106560904D01*
X158345190Y-106656142D01*
X158345190Y-107037095D01*
X158821381Y-105513285D02*
X158821381Y-106084714D01*
X158821381Y-105799000D02*
X157821381Y-105799000D01*
X157964238Y-105894238D01*
X158059476Y-105989476D01*
X158107095Y-106084714D01*
X131770381Y-105068666D02*
X131294190Y-105402000D01*
X131770381Y-105640095D02*
X130770381Y-105640095D01*
X130770381Y-105259142D01*
X130818000Y-105163904D01*
X130865619Y-105116285D01*
X130960857Y-105068666D01*
X131103714Y-105068666D01*
X131198952Y-105116285D01*
X131246571Y-105163904D01*
X131294190Y-105259142D01*
X131294190Y-105640095D01*
X130865619Y-104687714D02*
X130818000Y-104640095D01*
X130770381Y-104544857D01*
X130770381Y-104306761D01*
X130818000Y-104211523D01*
X130865619Y-104163904D01*
X130960857Y-104116285D01*
X131056095Y-104116285D01*
X131198952Y-104163904D01*
X131770381Y-104735333D01*
X131770381Y-104116285D01*
X147518381Y-112053666D02*
X147042190Y-112387000D01*
X147518381Y-112625095D02*
X146518381Y-112625095D01*
X146518381Y-112244142D01*
X146566000Y-112148904D01*
X146613619Y-112101285D01*
X146708857Y-112053666D01*
X146851714Y-112053666D01*
X146946952Y-112101285D01*
X146994571Y-112148904D01*
X147042190Y-112244142D01*
X147042190Y-112625095D01*
X146518381Y-111720333D02*
X146518381Y-111101285D01*
X146899333Y-111434619D01*
X146899333Y-111291761D01*
X146946952Y-111196523D01*
X146994571Y-111148904D01*
X147089810Y-111101285D01*
X147327905Y-111101285D01*
X147423143Y-111148904D01*
X147470762Y-111196523D01*
X147518381Y-111291761D01*
X147518381Y-111577476D01*
X147470762Y-111672714D01*
X147423143Y-111720333D01*
X161377334Y-104211381D02*
X161044000Y-103735190D01*
X160805905Y-104211381D02*
X160805905Y-103211381D01*
X161186858Y-103211381D01*
X161282096Y-103259000D01*
X161329715Y-103306619D01*
X161377334Y-103401857D01*
X161377334Y-103544714D01*
X161329715Y-103639952D01*
X161282096Y-103687571D01*
X161186858Y-103735190D01*
X160805905Y-103735190D01*
X162234477Y-103544714D02*
X162234477Y-104211381D01*
X161996381Y-103163762D02*
X161758286Y-103878048D01*
X162377334Y-103878048D01*
X151074381Y-110656666D02*
X150598190Y-110990000D01*
X151074381Y-111228095D02*
X150074381Y-111228095D01*
X150074381Y-110847142D01*
X150122000Y-110751904D01*
X150169619Y-110704285D01*
X150264857Y-110656666D01*
X150407714Y-110656666D01*
X150502952Y-110704285D01*
X150550571Y-110751904D01*
X150598190Y-110847142D01*
X150598190Y-111228095D01*
X150074381Y-109751904D02*
X150074381Y-110228095D01*
X150550571Y-110275714D01*
X150502952Y-110228095D01*
X150455333Y-110132857D01*
X150455333Y-109894761D01*
X150502952Y-109799523D01*
X150550571Y-109751904D01*
X150645810Y-109704285D01*
X150883905Y-109704285D01*
X150979143Y-109751904D01*
X151026762Y-109799523D01*
X151074381Y-109894761D01*
X151074381Y-110132857D01*
X151026762Y-110228095D01*
X150979143Y-110275714D01*
X161504334Y-99385381D02*
X161171000Y-98909190D01*
X160932905Y-99385381D02*
X160932905Y-98385381D01*
X161313858Y-98385381D01*
X161409096Y-98433000D01*
X161456715Y-98480619D01*
X161504334Y-98575857D01*
X161504334Y-98718714D01*
X161456715Y-98813952D01*
X161409096Y-98861571D01*
X161313858Y-98909190D01*
X160932905Y-98909190D01*
X162361477Y-98385381D02*
X162171000Y-98385381D01*
X162075762Y-98433000D01*
X162028143Y-98480619D01*
X161932905Y-98623476D01*
X161885286Y-98813952D01*
X161885286Y-99194905D01*
X161932905Y-99290143D01*
X161980524Y-99337762D01*
X162075762Y-99385381D01*
X162266239Y-99385381D01*
X162361477Y-99337762D01*
X162409096Y-99290143D01*
X162456715Y-99194905D01*
X162456715Y-98956810D01*
X162409096Y-98861571D01*
X162361477Y-98813952D01*
X162266239Y-98766333D01*
X162075762Y-98766333D01*
X161980524Y-98813952D01*
X161932905Y-98861571D01*
X161885286Y-98956810D01*
X144851381Y-109894666D02*
X144375190Y-110228000D01*
X144851381Y-110466095D02*
X143851381Y-110466095D01*
X143851381Y-110085142D01*
X143899000Y-109989904D01*
X143946619Y-109942285D01*
X144041857Y-109894666D01*
X144184714Y-109894666D01*
X144279952Y-109942285D01*
X144327571Y-109989904D01*
X144375190Y-110085142D01*
X144375190Y-110466095D01*
X143851381Y-109561333D02*
X143851381Y-108894666D01*
X144851381Y-109323238D01*
X154265334Y-110815381D02*
X153932000Y-110339190D01*
X153693905Y-110815381D02*
X153693905Y-109815381D01*
X154074858Y-109815381D01*
X154170096Y-109863000D01*
X154217715Y-109910619D01*
X154265334Y-110005857D01*
X154265334Y-110148714D01*
X154217715Y-110243952D01*
X154170096Y-110291571D01*
X154074858Y-110339190D01*
X153693905Y-110339190D01*
X154836762Y-110243952D02*
X154741524Y-110196333D01*
X154693905Y-110148714D01*
X154646286Y-110053476D01*
X154646286Y-110005857D01*
X154693905Y-109910619D01*
X154741524Y-109863000D01*
X154836762Y-109815381D01*
X155027239Y-109815381D01*
X155122477Y-109863000D01*
X155170096Y-109910619D01*
X155217715Y-110005857D01*
X155217715Y-110053476D01*
X155170096Y-110148714D01*
X155122477Y-110196333D01*
X155027239Y-110243952D01*
X154836762Y-110243952D01*
X154741524Y-110291571D01*
X154693905Y-110339190D01*
X154646286Y-110434429D01*
X154646286Y-110624905D01*
X154693905Y-110720143D01*
X154741524Y-110767762D01*
X154836762Y-110815381D01*
X155027239Y-110815381D01*
X155122477Y-110767762D01*
X155170096Y-110720143D01*
X155217715Y-110624905D01*
X155217715Y-110434429D01*
X155170096Y-110339190D01*
X155122477Y-110291571D01*
X155027239Y-110243952D01*
X136342381Y-113123466D02*
X135866190Y-113456800D01*
X136342381Y-113694895D02*
X135342381Y-113694895D01*
X135342381Y-113313942D01*
X135390000Y-113218704D01*
X135437619Y-113171085D01*
X135532857Y-113123466D01*
X135675714Y-113123466D01*
X135770952Y-113171085D01*
X135818571Y-113218704D01*
X135866190Y-113313942D01*
X135866190Y-113694895D01*
X136342381Y-112647276D02*
X136342381Y-112456800D01*
X136294762Y-112361561D01*
X136247143Y-112313942D01*
X136104286Y-112218704D01*
X135913810Y-112171085D01*
X135532857Y-112171085D01*
X135437619Y-112218704D01*
X135390000Y-112266323D01*
X135342381Y-112361561D01*
X135342381Y-112552038D01*
X135390000Y-112647276D01*
X135437619Y-112694895D01*
X135532857Y-112742514D01*
X135770952Y-112742514D01*
X135866190Y-112694895D01*
X135913810Y-112647276D01*
X135961429Y-112552038D01*
X135961429Y-112361561D01*
X135913810Y-112266323D01*
X135866190Y-112218704D01*
X135770952Y-112171085D01*
X143962381Y-119133857D02*
X143486190Y-119467191D01*
X143962381Y-119705286D02*
X142962381Y-119705286D01*
X142962381Y-119324333D01*
X143010000Y-119229095D01*
X143057619Y-119181476D01*
X143152857Y-119133857D01*
X143295714Y-119133857D01*
X143390952Y-119181476D01*
X143438571Y-119229095D01*
X143486190Y-119324333D01*
X143486190Y-119705286D01*
X143962381Y-118181476D02*
X143962381Y-118752905D01*
X143962381Y-118467191D02*
X142962381Y-118467191D01*
X143105238Y-118562429D01*
X143200476Y-118657667D01*
X143248095Y-118752905D01*
X142962381Y-117562429D02*
X142962381Y-117467190D01*
X143010000Y-117371952D01*
X143057619Y-117324333D01*
X143152857Y-117276714D01*
X143343333Y-117229095D01*
X143581429Y-117229095D01*
X143771905Y-117276714D01*
X143867143Y-117324333D01*
X143914762Y-117371952D01*
X143962381Y-117467190D01*
X143962381Y-117562429D01*
X143914762Y-117657667D01*
X143867143Y-117705286D01*
X143771905Y-117752905D01*
X143581429Y-117800524D01*
X143343333Y-117800524D01*
X143152857Y-117752905D01*
X143057619Y-117705286D01*
X143010000Y-117657667D01*
X142962381Y-117562429D01*
X145613381Y-119006857D02*
X145137190Y-119340191D01*
X145613381Y-119578286D02*
X144613381Y-119578286D01*
X144613381Y-119197333D01*
X144661000Y-119102095D01*
X144708619Y-119054476D01*
X144803857Y-119006857D01*
X144946714Y-119006857D01*
X145041952Y-119054476D01*
X145089571Y-119102095D01*
X145137190Y-119197333D01*
X145137190Y-119578286D01*
X145613381Y-118054476D02*
X145613381Y-118625905D01*
X145613381Y-118340191D02*
X144613381Y-118340191D01*
X144756238Y-118435429D01*
X144851476Y-118530667D01*
X144899095Y-118625905D01*
X145613381Y-117102095D02*
X145613381Y-117673524D01*
X145613381Y-117387810D02*
X144613381Y-117387810D01*
X144756238Y-117483048D01*
X144851476Y-117578286D01*
X144899095Y-117673524D01*
X136342381Y-116339857D02*
X135866190Y-116673191D01*
X136342381Y-116911286D02*
X135342381Y-116911286D01*
X135342381Y-116530333D01*
X135390000Y-116435095D01*
X135437619Y-116387476D01*
X135532857Y-116339857D01*
X135675714Y-116339857D01*
X135770952Y-116387476D01*
X135818571Y-116435095D01*
X135866190Y-116530333D01*
X135866190Y-116911286D01*
X136342381Y-115387476D02*
X136342381Y-115958905D01*
X136342381Y-115673191D02*
X135342381Y-115673191D01*
X135485238Y-115768429D01*
X135580476Y-115863667D01*
X135628095Y-115958905D01*
X135342381Y-114530333D02*
X135342381Y-114720810D01*
X135390000Y-114816048D01*
X135437619Y-114863667D01*
X135580476Y-114958905D01*
X135770952Y-115006524D01*
X136151905Y-115006524D01*
X136247143Y-114958905D01*
X136294762Y-114911286D01*
X136342381Y-114816048D01*
X136342381Y-114625571D01*
X136294762Y-114530333D01*
X136247143Y-114482714D01*
X136151905Y-114435095D01*
X135913810Y-114435095D01*
X135818571Y-114482714D01*
X135770952Y-114530333D01*
X135723333Y-114625571D01*
X135723333Y-114816048D01*
X135770952Y-114911286D01*
X135818571Y-114958905D01*
X135913810Y-115006524D01*
X139192095Y-117562381D02*
X139192095Y-118371905D01*
X139239714Y-118467143D01*
X139287333Y-118514762D01*
X139382571Y-118562381D01*
X139573048Y-118562381D01*
X139668286Y-118514762D01*
X139715905Y-118467143D01*
X139763524Y-118371905D01*
X139763524Y-117562381D01*
X140192095Y-117657619D02*
X140239714Y-117610000D01*
X140334952Y-117562381D01*
X140573048Y-117562381D01*
X140668286Y-117610000D01*
X140715905Y-117657619D01*
X140763524Y-117752857D01*
X140763524Y-117848095D01*
X140715905Y-117990952D01*
X140144476Y-118562381D01*
X140763524Y-118562381D01*
X157988095Y-86701381D02*
X157988095Y-87510905D01*
X158035714Y-87606143D01*
X158083333Y-87653762D01*
X158178571Y-87701381D01*
X158369048Y-87701381D01*
X158464286Y-87653762D01*
X158511905Y-87606143D01*
X158559524Y-87510905D01*
X158559524Y-86701381D01*
X159464286Y-87034714D02*
X159464286Y-87701381D01*
X159226190Y-86653762D02*
X158988095Y-87368048D01*
X159607143Y-87368048D01*
X125349095Y-104862381D02*
X125349095Y-105671905D01*
X125396714Y-105767143D01*
X125444333Y-105814762D01*
X125539571Y-105862381D01*
X125730048Y-105862381D01*
X125825286Y-105814762D01*
X125872905Y-105767143D01*
X125920524Y-105671905D01*
X125920524Y-104862381D01*
X126301476Y-104862381D02*
X126968143Y-104862381D01*
X126539571Y-105862381D01*
X121348667Y-78023981D02*
X121015333Y-77547790D01*
X120777238Y-78023981D02*
X120777238Y-77023981D01*
X121158191Y-77023981D01*
X121253429Y-77071600D01*
X121301048Y-77119219D01*
X121348667Y-77214457D01*
X121348667Y-77357314D01*
X121301048Y-77452552D01*
X121253429Y-77500171D01*
X121158191Y-77547790D01*
X120777238Y-77547790D01*
X121777238Y-77500171D02*
X122110572Y-77500171D01*
X122253429Y-78023981D02*
X121777238Y-78023981D01*
X121777238Y-77023981D01*
X122253429Y-77023981D01*
X123015334Y-77500171D02*
X122682000Y-77500171D01*
X122682000Y-78023981D02*
X122682000Y-77023981D01*
X123158191Y-77023981D01*
X123682000Y-77023981D02*
X123682000Y-77262076D01*
X123443905Y-77166838D02*
X123682000Y-77262076D01*
X123920096Y-77166838D01*
X123539143Y-77452552D02*
X123682000Y-77262076D01*
X123824858Y-77452552D01*
X124443905Y-77023981D02*
X124443905Y-77262076D01*
X124205810Y-77166838D02*
X124443905Y-77262076D01*
X124682001Y-77166838D01*
X124301048Y-77452552D02*
X124443905Y-77262076D01*
X124586763Y-77452552D01*
X168830667Y-114260381D02*
X168830667Y-114974667D01*
X168783047Y-115117524D01*
X168687809Y-115212762D01*
X168544952Y-115260381D01*
X168449714Y-115260381D01*
X169783048Y-114260381D02*
X169306857Y-114260381D01*
X169259238Y-114736571D01*
X169306857Y-114688952D01*
X169402095Y-114641333D01*
X169640191Y-114641333D01*
X169735429Y-114688952D01*
X169783048Y-114736571D01*
X169830667Y-114831810D01*
X169830667Y-115069905D01*
X169783048Y-115165143D01*
X169735429Y-115212762D01*
X169640191Y-115260381D01*
X169402095Y-115260381D01*
X169306857Y-115212762D01*
X169259238Y-115165143D01*
%LPC*%
D14*
X177292000Y-117398800D03*
X177292000Y-72745600D03*
D15*
X145250000Y-106950000D03*
X145750000Y-106950000D03*
X146250000Y-106950000D03*
X146750000Y-106950000D03*
X147250000Y-106950000D03*
X147750000Y-106950000D03*
X148250000Y-106950000D03*
X148750000Y-106950000D03*
X149250000Y-106950000D03*
X149750000Y-106950000D03*
X150250000Y-106950000D03*
X150750000Y-106950000D03*
X151250000Y-106950000D03*
X151750000Y-106950000D03*
X152250000Y-106950000D03*
X152750000Y-106950000D03*
D16*
X154700000Y-105000000D03*
X154700000Y-104500000D03*
X154700000Y-104000000D03*
X154700000Y-103500000D03*
X154700000Y-103000000D03*
X154700000Y-102500000D03*
X154700000Y-102000000D03*
X154700000Y-101500000D03*
X154700000Y-101000000D03*
X154700000Y-100500000D03*
X154700000Y-100000000D03*
X154700000Y-99500000D03*
X154700000Y-99000000D03*
X154700000Y-98500000D03*
X154700000Y-98000000D03*
X154700000Y-97500000D03*
D15*
X152750000Y-95550000D03*
X152250000Y-95550000D03*
X151750000Y-95550000D03*
X151250000Y-95550000D03*
X150750000Y-95550000D03*
X150250000Y-95550000D03*
X149750000Y-95550000D03*
X149250000Y-95550000D03*
X148750000Y-95550000D03*
X148250000Y-95550000D03*
X147750000Y-95550000D03*
X147250000Y-95550000D03*
X146750000Y-95550000D03*
X146250000Y-95550000D03*
X145750000Y-95550000D03*
X145250000Y-95550000D03*
D16*
X143300000Y-97500000D03*
X143300000Y-98000000D03*
X143300000Y-98500000D03*
X143300000Y-99000000D03*
X143300000Y-99500000D03*
X143300000Y-100000000D03*
X143300000Y-100500000D03*
X143300000Y-101000000D03*
X143300000Y-101500000D03*
X143300000Y-102000000D03*
X143300000Y-102500000D03*
X143300000Y-103000000D03*
X143300000Y-103500000D03*
X143300000Y-104000000D03*
X143300000Y-104500000D03*
X143300000Y-105000000D03*
D17*
X150750000Y-108750000D03*
X152250000Y-108750000D03*
X150500000Y-93750000D03*
X152000000Y-93750000D03*
D18*
X141500000Y-105500000D03*
X141500000Y-107000000D03*
X156500000Y-103000000D03*
X156500000Y-101500000D03*
X156464000Y-98044000D03*
X156464000Y-99544000D03*
D17*
X148000000Y-93750000D03*
X146500000Y-93750000D03*
D18*
X141500000Y-101750000D03*
X141500000Y-100250000D03*
D19*
X128150000Y-102850000D03*
X130150000Y-102850000D03*
X128150000Y-99822000D03*
X130150000Y-99822000D03*
D17*
X128400000Y-104850000D03*
X129900000Y-104850000D03*
X128400000Y-97790000D03*
X129900000Y-97790000D03*
X129650000Y-115100000D03*
X131150000Y-115100000D03*
D20*
X123650000Y-111600000D03*
X123650000Y-109600000D03*
D18*
X135483600Y-110478000D03*
X135483600Y-108978000D03*
D20*
X141250000Y-96500000D03*
X141250000Y-98500000D03*
D17*
X161200000Y-86450000D03*
X162700000Y-86450000D03*
X161200000Y-84700000D03*
X162700000Y-84700000D03*
X141172000Y-112956800D03*
X139672000Y-112956800D03*
D21*
X160000000Y-128300000D03*
D22*
X141000000Y-126000000D03*
X142000000Y-126000000D03*
X143000000Y-126000000D03*
X144000000Y-126000000D03*
X145000000Y-126000000D03*
X146000000Y-126000000D03*
X147000000Y-126000000D03*
X148000000Y-126000000D03*
X149000000Y-126000000D03*
X150000000Y-126000000D03*
X151000000Y-126000000D03*
X156000000Y-126000000D03*
X157000000Y-126000000D03*
X158000000Y-126000000D03*
D23*
X159000000Y-125500000D03*
D22*
X160000000Y-126000000D03*
X154000000Y-126000000D03*
X155000000Y-126000000D03*
D21*
X143000000Y-128300000D03*
X144000000Y-128300000D03*
X145000000Y-128300000D03*
X146000000Y-128300000D03*
X147000000Y-128300000D03*
X148000000Y-128300000D03*
X149000000Y-128300000D03*
X150000000Y-128300000D03*
X151000000Y-128300000D03*
X141000000Y-128300000D03*
X154000000Y-128300000D03*
X155000000Y-128300000D03*
X156000000Y-128300000D03*
X157000000Y-128300000D03*
X158000000Y-128300000D03*
X142000000Y-128300000D03*
D24*
X159999300Y-102000000D03*
X158500700Y-102000000D03*
X160000000Y-100500000D03*
X158501400Y-100500000D03*
D25*
X171312000Y-96000000D03*
X175062000Y-96000000D03*
D26*
X178062000Y-99000000D03*
X178062000Y-102750000D03*
X178062000Y-105000000D03*
X178062000Y-108750000D03*
X174812000Y-113875000D03*
X174812000Y-110125000D03*
X171812000Y-113875000D03*
X171812000Y-110125000D03*
X168562000Y-105000000D03*
X168562000Y-108750000D03*
X168562000Y-99000000D03*
X168562000Y-102750000D03*
D27*
X147300000Y-114000000D03*
X149200000Y-114000000D03*
X148250000Y-112000000D03*
D28*
X134140000Y-80600000D03*
X131600000Y-80600000D03*
X129060000Y-80600000D03*
X164600000Y-80500000D03*
X162060000Y-80500000D03*
X159520000Y-80500000D03*
D29*
X174562000Y-107080000D03*
D30*
X172022000Y-107080000D03*
X174562000Y-104540000D03*
X172022000Y-104540000D03*
X174562000Y-102000000D03*
X172022000Y-102000000D03*
X174562000Y-99460000D03*
X172022000Y-99460000D03*
D31*
X150100560Y-78598420D03*
X149300460Y-78598420D03*
X148500360Y-78598420D03*
X147700260Y-78598420D03*
X146900160Y-78598420D03*
D32*
X152950440Y-78499360D03*
X152950440Y-73000260D03*
X144050280Y-78499360D03*
X144050280Y-73000260D03*
D33*
X150700000Y-76000000D03*
X146300720Y-76000000D03*
D19*
X124150000Y-103100000D03*
X126150000Y-103100000D03*
X124150000Y-100600000D03*
X126150000Y-100600000D03*
X127650000Y-114850000D03*
X125650000Y-114850000D03*
D20*
X164700000Y-88200000D03*
X164700000Y-90200000D03*
D34*
X173900000Y-86300000D03*
X173900000Y-79137200D03*
D35*
X134650000Y-102550000D03*
X134650000Y-100650000D03*
X132650000Y-101600000D03*
D36*
X156616400Y-107062400D03*
X156616400Y-105562400D03*
X132740400Y-105601200D03*
X132740400Y-104101200D03*
X147400000Y-108750000D03*
X147400000Y-110250000D03*
D37*
X158500000Y-103750000D03*
X160000000Y-103750000D03*
D36*
X149100000Y-108750000D03*
X149100000Y-110250000D03*
D37*
X158500000Y-98750000D03*
X160000000Y-98750000D03*
D36*
X145694400Y-109028800D03*
X145694400Y-110528800D03*
D37*
X153750000Y-108750000D03*
X155250000Y-108750000D03*
D36*
X137422000Y-112206800D03*
X137422000Y-113706800D03*
X143422000Y-114956800D03*
X143422000Y-116456800D03*
X145172000Y-114956800D03*
X145172000Y-116456800D03*
X137422000Y-116456800D03*
X137422000Y-114956800D03*
D38*
X139322000Y-114756800D03*
X139322000Y-115706800D03*
X139322000Y-116656800D03*
X141522000Y-116656800D03*
X141522000Y-114756800D03*
X141522000Y-115706800D03*
D39*
X162650000Y-88200000D03*
X161700000Y-88200000D03*
X160750000Y-88200000D03*
X160750000Y-90400000D03*
X162650000Y-90400000D03*
X161700000Y-90400000D03*
D40*
X132550000Y-109600000D03*
D41*
X126250000Y-109600000D03*
X126250000Y-111900000D03*
X126250000Y-107300000D03*
D14*
X122682000Y-72745600D03*
D42*
X170027600Y-116687600D03*
D43*
X172567600Y-116687600D03*
M02*
