M48
;DRILL file {KiCad 4.0.7} date 01/05/18 11:35:25
;FORMAT={-:-/ absolute / inch / decimal}
FMAT,2
INCH,TZ
T1C0.024
T2C0.036
T3C0.039
T4C0.040
T5C0.120
T6C0.172
%
G90
G05
M72
T1
X4.7893Y-4.6267
X4.88Y-4.216
X5.Y-4.122
X5.09Y-4.62
X5.184Y-4.056
X5.228Y-4.582
X5.252Y-4.1567
X5.28Y-3.822
X5.2921Y-4.613
X5.299Y-4.471
X5.3006Y-4.2512
X5.302Y-4.524
X5.3179Y-4.387
X5.34Y-4.1667
X5.406Y-4.162
X5.41Y-4.246
X5.4152Y-4.0274
X5.428Y-3.578
X5.4538Y-3.9559
X5.4748Y-4.3051
X5.476Y-4.386
X5.48Y-3.578
X5.502Y-2.946
X5.506Y-3.902
X5.522Y-4.2
X5.568Y-4.7
X5.576Y-3.578
X5.59Y-4.838
X5.6094Y-4.3018
X5.614Y-4.25
X5.648Y-4.3367
X5.67Y-4.6608
X5.67Y-4.796
X5.714Y-3.69
X5.7235Y-4.714
X5.7236Y-4.1528
X5.735Y-4.405
X5.745Y-4.0499
X5.7516Y-3.8332
X5.78Y-4.625
X5.788Y-4.784
X5.8Y-4.152
X5.8117Y-4.0996
X5.8162Y-4.5437
X5.822Y-3.6265
X5.8441Y-4.0287
X5.85Y-3.867
X5.8651Y-4.0984
X5.886Y-3.604
X5.886Y-4.836
X5.897Y-4.1486
X5.916Y-4.44
X5.9237Y-4.0557
X5.9317Y-4.515
X5.9648Y-4.0897
X5.9896Y-4.4491
X5.996Y-4.334
X6.006Y-3.9334
X6.0079Y-3.9853
X6.0134Y-4.037
X6.0166Y-4.0942
X6.0297Y-4.638
X6.034Y-3.692
X6.08Y-4.336
X6.0827Y-4.638
X6.122Y-3.652
X6.1272Y-4.6657
X6.1681Y-4.6979
X6.2261Y-4.6855
X6.2555Y-4.77
X6.272Y-3.626
X6.366Y-3.666
X6.419Y-3.9204
X6.425Y-4.69
X6.434Y-3.83
X6.435Y-4.585
X6.4543Y-4.0854
X6.462Y-4.034
X6.4845Y-3.957
X6.4884Y-4.5044
X6.496Y-4.316
X6.512Y-4.19
X6.662Y-4.452
X6.706Y-3.998
X6.742Y-3.68
X7.016Y-4.482
T2
X5.0811Y-3.1732
X5.1811Y-3.1732
X5.2811Y-3.1732
X6.2803Y-3.1693
X6.3803Y-3.1693
X6.4803Y-3.1693
T3
X6.694Y-4.594
X6.794Y-4.594
T4
X6.7725Y-3.9157
X6.7725Y-4.0157
X6.7725Y-4.1157
X6.7725Y-4.2157
X6.8725Y-3.9157
X6.8725Y-4.0157
X6.8725Y-4.1157
X6.8725Y-4.2157
T5
X4.83Y-2.864
X6.98Y-2.864
X6.98Y-4.622
T6
X6.8465Y-3.1156
X6.8465Y-3.3976
T0
M30
