G04 #@! TF.FileFunction,Paste,Bot*
%FSLAX46Y46*%
G04 Gerber Fmt 4.6, Leading zero omitted, Abs format (unit mm)*
G04 Created by KiCad (PCBNEW 4.0.7) date 01/05/18 11:34:56*
%MOMM*%
%LPD*%
G01*
G04 APERTURE LIST*
%ADD10C,0.100000*%
%ADD11R,0.800000X0.750000*%
%ADD12R,0.500000X0.900000*%
%ADD13R,0.600000X1.950000*%
%ADD14R,1.500000X0.600000*%
%ADD15R,2.199640X2.400300*%
G04 APERTURE END LIST*
D10*
D11*
X135940000Y-87466000D03*
X134440000Y-87466000D03*
X135940000Y-85866000D03*
X134440000Y-85866000D03*
X132830000Y-101346000D03*
X131330000Y-101346000D03*
X132940000Y-87466000D03*
X131440000Y-87466000D03*
X126440000Y-87466000D03*
X127940000Y-87466000D03*
X123440000Y-87466000D03*
X124940000Y-87466000D03*
X141950000Y-110400000D03*
X140450000Y-110400000D03*
X143600000Y-110400000D03*
X145100000Y-110400000D03*
D12*
X157370000Y-96008000D03*
X155870000Y-96008000D03*
X157370000Y-108008000D03*
X155870000Y-108008000D03*
X157370000Y-98508000D03*
X155870000Y-98508000D03*
X157370000Y-110508000D03*
X155870000Y-110508000D03*
X157370000Y-101008000D03*
X155870000Y-101008000D03*
X157370000Y-113008000D03*
X155870000Y-113008000D03*
X157370000Y-103508000D03*
X155870000Y-103508000D03*
D13*
X135370000Y-99066000D03*
X134100000Y-99066000D03*
X132830000Y-99066000D03*
X131560000Y-99066000D03*
X130290000Y-99066000D03*
X129020000Y-99066000D03*
X127750000Y-99066000D03*
X126480000Y-99066000D03*
X125210000Y-99066000D03*
X123940000Y-99066000D03*
X123940000Y-89666000D03*
X125210000Y-89666000D03*
X126480000Y-89666000D03*
X127750000Y-89666000D03*
X129020000Y-89666000D03*
X130290000Y-89666000D03*
X131560000Y-89666000D03*
X132830000Y-89666000D03*
X134100000Y-89666000D03*
X135370000Y-89666000D03*
D14*
X160320000Y-104953000D03*
X160320000Y-103683000D03*
X160320000Y-102413000D03*
X160320000Y-101143000D03*
X160320000Y-99873000D03*
X160320000Y-98603000D03*
X160320000Y-97333000D03*
X160320000Y-96063000D03*
X166920000Y-96063000D03*
X166920000Y-97333000D03*
X166920000Y-98603000D03*
X166920000Y-99873000D03*
X166920000Y-101143000D03*
X166920000Y-102413000D03*
X166920000Y-103683000D03*
X166920000Y-104953000D03*
X160320000Y-116953000D03*
X160320000Y-115683000D03*
X160320000Y-114413000D03*
X160320000Y-113143000D03*
X160320000Y-111873000D03*
X160320000Y-110603000D03*
X160320000Y-109333000D03*
X160320000Y-108063000D03*
X166920000Y-108063000D03*
X166920000Y-109333000D03*
X166920000Y-110603000D03*
X166920000Y-111873000D03*
X166920000Y-113143000D03*
X166920000Y-114413000D03*
X166920000Y-115683000D03*
X166920000Y-116953000D03*
D15*
X139600400Y-114000000D03*
X145899600Y-114000000D03*
D12*
X157366400Y-115519200D03*
X155866400Y-115519200D03*
M02*
