G04 #@! TF.FileFunction,Copper,L2,Bot,Signal*
%FSLAX46Y46*%
G04 Gerber Fmt 4.6, Leading zero omitted, Abs format (unit mm)*
G04 Created by KiCad (PCBNEW 4.0.7) date 02/24/18 20:28:21*
%MOMM*%
%LPD*%
G01*
G04 APERTURE LIST*
%ADD10C,0.100000*%
%ADD11R,0.750000X1.200000*%
%ADD12R,0.900000X1.200000*%
%ADD13R,1.700000X1.700000*%
%ADD14O,1.700000X1.700000*%
%ADD15R,2.286000X1.778000*%
%ADD16C,3.556000*%
%ADD17R,1.200000X0.900000*%
%ADD18R,0.800000X1.900000*%
%ADD19C,1.117600*%
%ADD20C,0.508000*%
%ADD21C,0.254000*%
%ADD22C,0.381000*%
G04 APERTURE END LIST*
D10*
D11*
X156210000Y-121945400D03*
X156210000Y-123845400D03*
X163195000Y-121945400D03*
X163195000Y-123845400D03*
D12*
X156337000Y-110363000D03*
X156337000Y-112563000D03*
X159700000Y-110363000D03*
X159700000Y-112563000D03*
X163068000Y-110363000D03*
X163068000Y-112563000D03*
D13*
X167894000Y-136779000D03*
D14*
X165354000Y-136779000D03*
X162814000Y-136779000D03*
D15*
X175133000Y-124460000D03*
X175133000Y-121920000D03*
D16*
X144780000Y-126619000D03*
X144780000Y-121488200D03*
D17*
X158632800Y-119888000D03*
X160832800Y-119888000D03*
D18*
X158750000Y-122325000D03*
X160650000Y-122325000D03*
X159700000Y-125325000D03*
D19*
X161290000Y-118364000D03*
X153924000Y-124587000D03*
X157226000Y-126746000D03*
X159893000Y-127762000D03*
X164465000Y-119253000D03*
X151765000Y-116459000D03*
X153670000Y-121666000D03*
X160401000Y-116205000D03*
X165100000Y-114935000D03*
X162052000Y-116332000D03*
D20*
X156210000Y-121945400D02*
X156575400Y-121945400D01*
X156575400Y-121945400D02*
X158632800Y-119888000D01*
X158632800Y-119888000D02*
X158632800Y-122207800D01*
X158632800Y-122207800D02*
X158750000Y-122325000D01*
X161290000Y-118364000D02*
X160156800Y-118364000D01*
X160156800Y-118364000D02*
X158632800Y-119888000D01*
D21*
X157226000Y-126746000D02*
X162814000Y-132334000D01*
X162814000Y-132334000D02*
X162814000Y-136779000D01*
D22*
X159893000Y-128524000D02*
X165354000Y-133985000D01*
X165354000Y-133985000D02*
X165354000Y-136779000D01*
X159893000Y-127762000D02*
X159893000Y-128524000D01*
X163830000Y-119888000D02*
X164465000Y-119253000D01*
X163195000Y-120523000D02*
X163830000Y-119888000D01*
X163195000Y-121945400D02*
X163195000Y-120523000D01*
X163195000Y-120523000D02*
X162560000Y-119888000D01*
X162560000Y-119888000D02*
X160832800Y-119888000D01*
X160650000Y-122325000D02*
X160650000Y-120070800D01*
X160650000Y-120070800D02*
X160832800Y-119888000D01*
X156337000Y-112563000D02*
X156337000Y-114935000D01*
X156337000Y-114935000D02*
X154813000Y-116459000D01*
X151765000Y-116459000D02*
X154813000Y-116459000D01*
X159700000Y-110363000D02*
X158869000Y-110363000D01*
X158869000Y-110363000D02*
X157988000Y-111244000D01*
X157988000Y-111244000D02*
X157988000Y-117348000D01*
X153670000Y-121666000D02*
X157988000Y-117348000D01*
X160401000Y-114245000D02*
X160401000Y-116205000D01*
X159700000Y-112563000D02*
X159700000Y-113544000D01*
X159700000Y-113544000D02*
X160401000Y-114245000D01*
X163068000Y-110363000D02*
X163899000Y-110363000D01*
X163899000Y-110363000D02*
X165100000Y-111564000D01*
X165100000Y-111564000D02*
X165100000Y-114144738D01*
X165100000Y-114144738D02*
X165100000Y-114935000D01*
X162052000Y-115189000D02*
X163068000Y-114173000D01*
X163068000Y-114173000D02*
X163068000Y-112563000D01*
X162052000Y-116332000D02*
X162052000Y-115189000D01*
D21*
G36*
X178990000Y-138990000D02*
X140410000Y-138990000D01*
X140410000Y-136312815D01*
X141374630Y-136312815D01*
X141698980Y-137097800D01*
X142299041Y-137698909D01*
X143083459Y-138024628D01*
X143932815Y-138025370D01*
X144717800Y-137701020D01*
X145318909Y-137100959D01*
X145644628Y-136316541D01*
X145645370Y-135467185D01*
X145321020Y-134682200D01*
X144720959Y-134081091D01*
X143936541Y-133755372D01*
X143087185Y-133754630D01*
X142302200Y-134078980D01*
X141701091Y-134679041D01*
X141375372Y-135463459D01*
X141374630Y-136312815D01*
X140410000Y-136312815D01*
X140410000Y-126982420D01*
X156031993Y-126982420D01*
X156213355Y-127421350D01*
X156548884Y-127757464D01*
X156987497Y-127939592D01*
X157342272Y-127939902D01*
X162052000Y-132649631D01*
X162052000Y-135507382D01*
X161763946Y-135699853D01*
X161442039Y-136181622D01*
X161329000Y-136749907D01*
X161329000Y-136808093D01*
X161442039Y-137376378D01*
X161763946Y-137858147D01*
X162245715Y-138180054D01*
X162814000Y-138293093D01*
X163382285Y-138180054D01*
X163864054Y-137858147D01*
X164084000Y-137528974D01*
X164303946Y-137858147D01*
X164785715Y-138180054D01*
X165354000Y-138293093D01*
X165922285Y-138180054D01*
X166404054Y-137858147D01*
X166431850Y-137816548D01*
X166440838Y-137864317D01*
X166579910Y-138080441D01*
X166792110Y-138225431D01*
X167044000Y-138276440D01*
X168744000Y-138276440D01*
X168979317Y-138232162D01*
X169195441Y-138093090D01*
X169340431Y-137880890D01*
X169391440Y-137629000D01*
X169391440Y-136312815D01*
X173785030Y-136312815D01*
X174109380Y-137097800D01*
X174709441Y-137698909D01*
X175493859Y-138024628D01*
X176343215Y-138025370D01*
X177128200Y-137701020D01*
X177729309Y-137100959D01*
X178055028Y-136316541D01*
X178055770Y-135467185D01*
X177731420Y-134682200D01*
X177131359Y-134081091D01*
X176346941Y-133755372D01*
X175497585Y-133754630D01*
X174712600Y-134078980D01*
X174111491Y-134679041D01*
X173785772Y-135463459D01*
X173785030Y-136312815D01*
X169391440Y-136312815D01*
X169391440Y-135929000D01*
X169347162Y-135693683D01*
X169208090Y-135477559D01*
X168995890Y-135332569D01*
X168744000Y-135281560D01*
X167044000Y-135281560D01*
X166808683Y-135325838D01*
X166592559Y-135464910D01*
X166447569Y-135677110D01*
X166433914Y-135744541D01*
X166404054Y-135699853D01*
X166179500Y-135549811D01*
X166179500Y-133985000D01*
X166116663Y-133669094D01*
X166044987Y-133561824D01*
X165937717Y-133401283D01*
X165937714Y-133401281D01*
X160925321Y-128388887D01*
X161086592Y-128000503D01*
X161087007Y-127525580D01*
X160905645Y-127086650D01*
X160570116Y-126750536D01*
X160131503Y-126568408D01*
X159656580Y-126567993D01*
X159217650Y-126749355D01*
X158881536Y-127084884D01*
X158811406Y-127253776D01*
X158419699Y-126862069D01*
X158420007Y-126509580D01*
X158238645Y-126070650D01*
X157903116Y-125734536D01*
X157464503Y-125552408D01*
X156989580Y-125551993D01*
X156550650Y-125733355D01*
X156214536Y-126068884D01*
X156032408Y-126507497D01*
X156031993Y-126982420D01*
X140410000Y-126982420D01*
X140410000Y-121966070D01*
X142366583Y-121966070D01*
X142733166Y-122853269D01*
X143411361Y-123532649D01*
X144297919Y-123900780D01*
X145257870Y-123901617D01*
X146145069Y-123535034D01*
X146824449Y-122856839D01*
X147192580Y-121970281D01*
X147193417Y-121010330D01*
X146826834Y-120123131D01*
X146148639Y-119443751D01*
X145262081Y-119075620D01*
X144302130Y-119074783D01*
X143414931Y-119441366D01*
X142735551Y-120119561D01*
X142367420Y-121006119D01*
X142366583Y-121966070D01*
X140410000Y-121966070D01*
X140410000Y-116695420D01*
X150570993Y-116695420D01*
X150752355Y-117134350D01*
X151087884Y-117470464D01*
X151526497Y-117652592D01*
X152001420Y-117653007D01*
X152440350Y-117471645D01*
X152627821Y-117284500D01*
X154813000Y-117284500D01*
X155128906Y-117221663D01*
X155396717Y-117042717D01*
X156920714Y-115518719D01*
X156920717Y-115518717D01*
X157099663Y-115250905D01*
X157162500Y-114935000D01*
X157162500Y-117006066D01*
X153696343Y-120472223D01*
X153433580Y-120471993D01*
X152994650Y-120653355D01*
X152658536Y-120988884D01*
X152476408Y-121427497D01*
X152475993Y-121902420D01*
X152657355Y-122341350D01*
X152992884Y-122677464D01*
X153431497Y-122859592D01*
X153906420Y-122860007D01*
X154345350Y-122678645D01*
X154681464Y-122343116D01*
X154863592Y-121904503D01*
X154863823Y-121639611D01*
X155195057Y-121308377D01*
X155187560Y-121345400D01*
X155187560Y-122545400D01*
X155231838Y-122780717D01*
X155370910Y-122996841D01*
X155583110Y-123141831D01*
X155835000Y-123192840D01*
X156585000Y-123192840D01*
X156820317Y-123148562D01*
X157036441Y-123009490D01*
X157181431Y-122797290D01*
X157232390Y-122545646D01*
X157702560Y-122075476D01*
X157702560Y-123275000D01*
X157746838Y-123510317D01*
X157885910Y-123726441D01*
X158098110Y-123871431D01*
X158350000Y-123922440D01*
X159150000Y-123922440D01*
X159385317Y-123878162D01*
X159601441Y-123739090D01*
X159700633Y-123593917D01*
X159785910Y-123726441D01*
X159998110Y-123871431D01*
X160250000Y-123922440D01*
X161050000Y-123922440D01*
X161285317Y-123878162D01*
X161501441Y-123739090D01*
X161646431Y-123526890D01*
X161697440Y-123275000D01*
X161697440Y-121375000D01*
X161653162Y-121139683D01*
X161540829Y-120965113D01*
X161668117Y-120941162D01*
X161884241Y-120802090D01*
X161944772Y-120713500D01*
X162218066Y-120713500D01*
X162369500Y-120864933D01*
X162369500Y-120880704D01*
X162368559Y-120881310D01*
X162223569Y-121093510D01*
X162172560Y-121345400D01*
X162172560Y-122545400D01*
X162216838Y-122780717D01*
X162355910Y-122996841D01*
X162568110Y-123141831D01*
X162820000Y-123192840D01*
X163570000Y-123192840D01*
X163805317Y-123148562D01*
X164021441Y-123009490D01*
X164166431Y-122797290D01*
X164217440Y-122545400D01*
X164217440Y-121345400D01*
X164173162Y-121110083D01*
X164122274Y-121031000D01*
X173342560Y-121031000D01*
X173342560Y-122809000D01*
X173386838Y-123044317D01*
X173525910Y-123260441D01*
X173738110Y-123405431D01*
X173990000Y-123456440D01*
X176276000Y-123456440D01*
X176511317Y-123412162D01*
X176727441Y-123273090D01*
X176872431Y-123060890D01*
X176923440Y-122809000D01*
X176923440Y-121031000D01*
X176879162Y-120795683D01*
X176740090Y-120579559D01*
X176527890Y-120434569D01*
X176276000Y-120383560D01*
X173990000Y-120383560D01*
X173754683Y-120427838D01*
X173538559Y-120566910D01*
X173393569Y-120779110D01*
X173342560Y-121031000D01*
X164122274Y-121031000D01*
X164034090Y-120893959D01*
X164020500Y-120884673D01*
X164020500Y-120864934D01*
X164413714Y-120471719D01*
X164413717Y-120471717D01*
X164438657Y-120446777D01*
X164701420Y-120447007D01*
X165140350Y-120265645D01*
X165476464Y-119930116D01*
X165658592Y-119491503D01*
X165659007Y-119016580D01*
X165477645Y-118577650D01*
X165142116Y-118241536D01*
X164703503Y-118059408D01*
X164228580Y-118058993D01*
X163789650Y-118240355D01*
X163453536Y-118575884D01*
X163271408Y-119014497D01*
X163271177Y-119279390D01*
X163246283Y-119304283D01*
X163246281Y-119304286D01*
X163195000Y-119355566D01*
X163143717Y-119304283D01*
X162875906Y-119125337D01*
X162560000Y-119062500D01*
X162280043Y-119062500D01*
X162301464Y-119041116D01*
X162483592Y-118602503D01*
X162484007Y-118127580D01*
X162302645Y-117688650D01*
X162140156Y-117525877D01*
X162288420Y-117526007D01*
X162727350Y-117344645D01*
X163063464Y-117009116D01*
X163245592Y-116570503D01*
X163246007Y-116095580D01*
X163064645Y-115656650D01*
X162908351Y-115500083D01*
X163651717Y-114756717D01*
X163830663Y-114488906D01*
X163893501Y-114173000D01*
X163893500Y-114172995D01*
X163893500Y-113675957D01*
X163969441Y-113627090D01*
X164114431Y-113414890D01*
X164165440Y-113163000D01*
X164165440Y-111963000D01*
X164126936Y-111758369D01*
X164274500Y-111905933D01*
X164274500Y-114072244D01*
X164088536Y-114257884D01*
X163906408Y-114696497D01*
X163905993Y-115171420D01*
X164087355Y-115610350D01*
X164422884Y-115946464D01*
X164861497Y-116128592D01*
X165336420Y-116129007D01*
X165775350Y-115947645D01*
X166111464Y-115612116D01*
X166293592Y-115173503D01*
X166294007Y-114698580D01*
X166112645Y-114259650D01*
X165925500Y-114072179D01*
X165925500Y-112182815D01*
X173759630Y-112182815D01*
X174083980Y-112967800D01*
X174684041Y-113568909D01*
X175468459Y-113894628D01*
X176317815Y-113895370D01*
X177102800Y-113571020D01*
X177703909Y-112970959D01*
X178029628Y-112186541D01*
X178030370Y-111337185D01*
X177706020Y-110552200D01*
X177105959Y-109951091D01*
X176321541Y-109625372D01*
X175472185Y-109624630D01*
X174687200Y-109948980D01*
X174086091Y-110549041D01*
X173760372Y-111333459D01*
X173759630Y-112182815D01*
X165925500Y-112182815D01*
X165925500Y-111564000D01*
X165862663Y-111248095D01*
X165683717Y-110980283D01*
X165683714Y-110980281D01*
X164482717Y-109779283D01*
X164214906Y-109600337D01*
X164131719Y-109583790D01*
X164121162Y-109527683D01*
X163982090Y-109311559D01*
X163769890Y-109166569D01*
X163518000Y-109115560D01*
X162618000Y-109115560D01*
X162382683Y-109159838D01*
X162166559Y-109298910D01*
X162021569Y-109511110D01*
X161970560Y-109763000D01*
X161970560Y-110963000D01*
X162014838Y-111198317D01*
X162153910Y-111414441D01*
X162223711Y-111462134D01*
X162166559Y-111498910D01*
X162021569Y-111711110D01*
X161970560Y-111963000D01*
X161970560Y-113163000D01*
X162014838Y-113398317D01*
X162153910Y-113614441D01*
X162242500Y-113674972D01*
X162242500Y-113831066D01*
X161468283Y-114605283D01*
X161289337Y-114873094D01*
X161261825Y-115011408D01*
X161226500Y-115189000D01*
X161226500Y-114245005D01*
X161226501Y-114245000D01*
X161163663Y-113929095D01*
X161117432Y-113859905D01*
X160984717Y-113661283D01*
X160984714Y-113661281D01*
X160743140Y-113419707D01*
X160746431Y-113414890D01*
X160797440Y-113163000D01*
X160797440Y-111963000D01*
X160753162Y-111727683D01*
X160614090Y-111511559D01*
X160544289Y-111463866D01*
X160601441Y-111427090D01*
X160746431Y-111214890D01*
X160797440Y-110963000D01*
X160797440Y-109763000D01*
X160753162Y-109527683D01*
X160614090Y-109311559D01*
X160401890Y-109166569D01*
X160150000Y-109115560D01*
X159250000Y-109115560D01*
X159014683Y-109159838D01*
X158798559Y-109298910D01*
X158653569Y-109511110D01*
X158638959Y-109583258D01*
X158553094Y-109600337D01*
X158285283Y-109779283D01*
X157404283Y-110660283D01*
X157225337Y-110928094D01*
X157173540Y-111188500D01*
X157162500Y-111244000D01*
X157162500Y-111451028D01*
X157038890Y-111366569D01*
X156787000Y-111315560D01*
X155887000Y-111315560D01*
X155651683Y-111359838D01*
X155435559Y-111498910D01*
X155290569Y-111711110D01*
X155239560Y-111963000D01*
X155239560Y-113163000D01*
X155283838Y-113398317D01*
X155422910Y-113614441D01*
X155511500Y-113674972D01*
X155511500Y-114593067D01*
X154471066Y-115633500D01*
X152627756Y-115633500D01*
X152442116Y-115447536D01*
X152003503Y-115265408D01*
X151528580Y-115264993D01*
X151089650Y-115446355D01*
X150753536Y-115781884D01*
X150571408Y-116220497D01*
X150570993Y-116695420D01*
X140410000Y-116695420D01*
X140410000Y-112182815D01*
X141374630Y-112182815D01*
X141698980Y-112967800D01*
X142299041Y-113568909D01*
X143083459Y-113894628D01*
X143932815Y-113895370D01*
X144717800Y-113571020D01*
X145318909Y-112970959D01*
X145644628Y-112186541D01*
X145645370Y-111337185D01*
X145321020Y-110552200D01*
X144720959Y-109951091D01*
X143936541Y-109625372D01*
X143087185Y-109624630D01*
X142302200Y-109948980D01*
X141701091Y-110549041D01*
X141375372Y-111333459D01*
X141374630Y-112182815D01*
X140410000Y-112182815D01*
X140410000Y-108660000D01*
X178990000Y-108660000D01*
X178990000Y-138990000D01*
X178990000Y-138990000D01*
G37*
X178990000Y-138990000D02*
X140410000Y-138990000D01*
X140410000Y-136312815D01*
X141374630Y-136312815D01*
X141698980Y-137097800D01*
X142299041Y-137698909D01*
X143083459Y-138024628D01*
X143932815Y-138025370D01*
X144717800Y-137701020D01*
X145318909Y-137100959D01*
X145644628Y-136316541D01*
X145645370Y-135467185D01*
X145321020Y-134682200D01*
X144720959Y-134081091D01*
X143936541Y-133755372D01*
X143087185Y-133754630D01*
X142302200Y-134078980D01*
X141701091Y-134679041D01*
X141375372Y-135463459D01*
X141374630Y-136312815D01*
X140410000Y-136312815D01*
X140410000Y-126982420D01*
X156031993Y-126982420D01*
X156213355Y-127421350D01*
X156548884Y-127757464D01*
X156987497Y-127939592D01*
X157342272Y-127939902D01*
X162052000Y-132649631D01*
X162052000Y-135507382D01*
X161763946Y-135699853D01*
X161442039Y-136181622D01*
X161329000Y-136749907D01*
X161329000Y-136808093D01*
X161442039Y-137376378D01*
X161763946Y-137858147D01*
X162245715Y-138180054D01*
X162814000Y-138293093D01*
X163382285Y-138180054D01*
X163864054Y-137858147D01*
X164084000Y-137528974D01*
X164303946Y-137858147D01*
X164785715Y-138180054D01*
X165354000Y-138293093D01*
X165922285Y-138180054D01*
X166404054Y-137858147D01*
X166431850Y-137816548D01*
X166440838Y-137864317D01*
X166579910Y-138080441D01*
X166792110Y-138225431D01*
X167044000Y-138276440D01*
X168744000Y-138276440D01*
X168979317Y-138232162D01*
X169195441Y-138093090D01*
X169340431Y-137880890D01*
X169391440Y-137629000D01*
X169391440Y-136312815D01*
X173785030Y-136312815D01*
X174109380Y-137097800D01*
X174709441Y-137698909D01*
X175493859Y-138024628D01*
X176343215Y-138025370D01*
X177128200Y-137701020D01*
X177729309Y-137100959D01*
X178055028Y-136316541D01*
X178055770Y-135467185D01*
X177731420Y-134682200D01*
X177131359Y-134081091D01*
X176346941Y-133755372D01*
X175497585Y-133754630D01*
X174712600Y-134078980D01*
X174111491Y-134679041D01*
X173785772Y-135463459D01*
X173785030Y-136312815D01*
X169391440Y-136312815D01*
X169391440Y-135929000D01*
X169347162Y-135693683D01*
X169208090Y-135477559D01*
X168995890Y-135332569D01*
X168744000Y-135281560D01*
X167044000Y-135281560D01*
X166808683Y-135325838D01*
X166592559Y-135464910D01*
X166447569Y-135677110D01*
X166433914Y-135744541D01*
X166404054Y-135699853D01*
X166179500Y-135549811D01*
X166179500Y-133985000D01*
X166116663Y-133669094D01*
X166044987Y-133561824D01*
X165937717Y-133401283D01*
X165937714Y-133401281D01*
X160925321Y-128388887D01*
X161086592Y-128000503D01*
X161087007Y-127525580D01*
X160905645Y-127086650D01*
X160570116Y-126750536D01*
X160131503Y-126568408D01*
X159656580Y-126567993D01*
X159217650Y-126749355D01*
X158881536Y-127084884D01*
X158811406Y-127253776D01*
X158419699Y-126862069D01*
X158420007Y-126509580D01*
X158238645Y-126070650D01*
X157903116Y-125734536D01*
X157464503Y-125552408D01*
X156989580Y-125551993D01*
X156550650Y-125733355D01*
X156214536Y-126068884D01*
X156032408Y-126507497D01*
X156031993Y-126982420D01*
X140410000Y-126982420D01*
X140410000Y-121966070D01*
X142366583Y-121966070D01*
X142733166Y-122853269D01*
X143411361Y-123532649D01*
X144297919Y-123900780D01*
X145257870Y-123901617D01*
X146145069Y-123535034D01*
X146824449Y-122856839D01*
X147192580Y-121970281D01*
X147193417Y-121010330D01*
X146826834Y-120123131D01*
X146148639Y-119443751D01*
X145262081Y-119075620D01*
X144302130Y-119074783D01*
X143414931Y-119441366D01*
X142735551Y-120119561D01*
X142367420Y-121006119D01*
X142366583Y-121966070D01*
X140410000Y-121966070D01*
X140410000Y-116695420D01*
X150570993Y-116695420D01*
X150752355Y-117134350D01*
X151087884Y-117470464D01*
X151526497Y-117652592D01*
X152001420Y-117653007D01*
X152440350Y-117471645D01*
X152627821Y-117284500D01*
X154813000Y-117284500D01*
X155128906Y-117221663D01*
X155396717Y-117042717D01*
X156920714Y-115518719D01*
X156920717Y-115518717D01*
X157099663Y-115250905D01*
X157162500Y-114935000D01*
X157162500Y-117006066D01*
X153696343Y-120472223D01*
X153433580Y-120471993D01*
X152994650Y-120653355D01*
X152658536Y-120988884D01*
X152476408Y-121427497D01*
X152475993Y-121902420D01*
X152657355Y-122341350D01*
X152992884Y-122677464D01*
X153431497Y-122859592D01*
X153906420Y-122860007D01*
X154345350Y-122678645D01*
X154681464Y-122343116D01*
X154863592Y-121904503D01*
X154863823Y-121639611D01*
X155195057Y-121308377D01*
X155187560Y-121345400D01*
X155187560Y-122545400D01*
X155231838Y-122780717D01*
X155370910Y-122996841D01*
X155583110Y-123141831D01*
X155835000Y-123192840D01*
X156585000Y-123192840D01*
X156820317Y-123148562D01*
X157036441Y-123009490D01*
X157181431Y-122797290D01*
X157232390Y-122545646D01*
X157702560Y-122075476D01*
X157702560Y-123275000D01*
X157746838Y-123510317D01*
X157885910Y-123726441D01*
X158098110Y-123871431D01*
X158350000Y-123922440D01*
X159150000Y-123922440D01*
X159385317Y-123878162D01*
X159601441Y-123739090D01*
X159700633Y-123593917D01*
X159785910Y-123726441D01*
X159998110Y-123871431D01*
X160250000Y-123922440D01*
X161050000Y-123922440D01*
X161285317Y-123878162D01*
X161501441Y-123739090D01*
X161646431Y-123526890D01*
X161697440Y-123275000D01*
X161697440Y-121375000D01*
X161653162Y-121139683D01*
X161540829Y-120965113D01*
X161668117Y-120941162D01*
X161884241Y-120802090D01*
X161944772Y-120713500D01*
X162218066Y-120713500D01*
X162369500Y-120864933D01*
X162369500Y-120880704D01*
X162368559Y-120881310D01*
X162223569Y-121093510D01*
X162172560Y-121345400D01*
X162172560Y-122545400D01*
X162216838Y-122780717D01*
X162355910Y-122996841D01*
X162568110Y-123141831D01*
X162820000Y-123192840D01*
X163570000Y-123192840D01*
X163805317Y-123148562D01*
X164021441Y-123009490D01*
X164166431Y-122797290D01*
X164217440Y-122545400D01*
X164217440Y-121345400D01*
X164173162Y-121110083D01*
X164122274Y-121031000D01*
X173342560Y-121031000D01*
X173342560Y-122809000D01*
X173386838Y-123044317D01*
X173525910Y-123260441D01*
X173738110Y-123405431D01*
X173990000Y-123456440D01*
X176276000Y-123456440D01*
X176511317Y-123412162D01*
X176727441Y-123273090D01*
X176872431Y-123060890D01*
X176923440Y-122809000D01*
X176923440Y-121031000D01*
X176879162Y-120795683D01*
X176740090Y-120579559D01*
X176527890Y-120434569D01*
X176276000Y-120383560D01*
X173990000Y-120383560D01*
X173754683Y-120427838D01*
X173538559Y-120566910D01*
X173393569Y-120779110D01*
X173342560Y-121031000D01*
X164122274Y-121031000D01*
X164034090Y-120893959D01*
X164020500Y-120884673D01*
X164020500Y-120864934D01*
X164413714Y-120471719D01*
X164413717Y-120471717D01*
X164438657Y-120446777D01*
X164701420Y-120447007D01*
X165140350Y-120265645D01*
X165476464Y-119930116D01*
X165658592Y-119491503D01*
X165659007Y-119016580D01*
X165477645Y-118577650D01*
X165142116Y-118241536D01*
X164703503Y-118059408D01*
X164228580Y-118058993D01*
X163789650Y-118240355D01*
X163453536Y-118575884D01*
X163271408Y-119014497D01*
X163271177Y-119279390D01*
X163246283Y-119304283D01*
X163246281Y-119304286D01*
X163195000Y-119355566D01*
X163143717Y-119304283D01*
X162875906Y-119125337D01*
X162560000Y-119062500D01*
X162280043Y-119062500D01*
X162301464Y-119041116D01*
X162483592Y-118602503D01*
X162484007Y-118127580D01*
X162302645Y-117688650D01*
X162140156Y-117525877D01*
X162288420Y-117526007D01*
X162727350Y-117344645D01*
X163063464Y-117009116D01*
X163245592Y-116570503D01*
X163246007Y-116095580D01*
X163064645Y-115656650D01*
X162908351Y-115500083D01*
X163651717Y-114756717D01*
X163830663Y-114488906D01*
X163893501Y-114173000D01*
X163893500Y-114172995D01*
X163893500Y-113675957D01*
X163969441Y-113627090D01*
X164114431Y-113414890D01*
X164165440Y-113163000D01*
X164165440Y-111963000D01*
X164126936Y-111758369D01*
X164274500Y-111905933D01*
X164274500Y-114072244D01*
X164088536Y-114257884D01*
X163906408Y-114696497D01*
X163905993Y-115171420D01*
X164087355Y-115610350D01*
X164422884Y-115946464D01*
X164861497Y-116128592D01*
X165336420Y-116129007D01*
X165775350Y-115947645D01*
X166111464Y-115612116D01*
X166293592Y-115173503D01*
X166294007Y-114698580D01*
X166112645Y-114259650D01*
X165925500Y-114072179D01*
X165925500Y-112182815D01*
X173759630Y-112182815D01*
X174083980Y-112967800D01*
X174684041Y-113568909D01*
X175468459Y-113894628D01*
X176317815Y-113895370D01*
X177102800Y-113571020D01*
X177703909Y-112970959D01*
X178029628Y-112186541D01*
X178030370Y-111337185D01*
X177706020Y-110552200D01*
X177105959Y-109951091D01*
X176321541Y-109625372D01*
X175472185Y-109624630D01*
X174687200Y-109948980D01*
X174086091Y-110549041D01*
X173760372Y-111333459D01*
X173759630Y-112182815D01*
X165925500Y-112182815D01*
X165925500Y-111564000D01*
X165862663Y-111248095D01*
X165683717Y-110980283D01*
X165683714Y-110980281D01*
X164482717Y-109779283D01*
X164214906Y-109600337D01*
X164131719Y-109583790D01*
X164121162Y-109527683D01*
X163982090Y-109311559D01*
X163769890Y-109166569D01*
X163518000Y-109115560D01*
X162618000Y-109115560D01*
X162382683Y-109159838D01*
X162166559Y-109298910D01*
X162021569Y-109511110D01*
X161970560Y-109763000D01*
X161970560Y-110963000D01*
X162014838Y-111198317D01*
X162153910Y-111414441D01*
X162223711Y-111462134D01*
X162166559Y-111498910D01*
X162021569Y-111711110D01*
X161970560Y-111963000D01*
X161970560Y-113163000D01*
X162014838Y-113398317D01*
X162153910Y-113614441D01*
X162242500Y-113674972D01*
X162242500Y-113831066D01*
X161468283Y-114605283D01*
X161289337Y-114873094D01*
X161261825Y-115011408D01*
X161226500Y-115189000D01*
X161226500Y-114245005D01*
X161226501Y-114245000D01*
X161163663Y-113929095D01*
X161117432Y-113859905D01*
X160984717Y-113661283D01*
X160984714Y-113661281D01*
X160743140Y-113419707D01*
X160746431Y-113414890D01*
X160797440Y-113163000D01*
X160797440Y-111963000D01*
X160753162Y-111727683D01*
X160614090Y-111511559D01*
X160544289Y-111463866D01*
X160601441Y-111427090D01*
X160746431Y-111214890D01*
X160797440Y-110963000D01*
X160797440Y-109763000D01*
X160753162Y-109527683D01*
X160614090Y-109311559D01*
X160401890Y-109166569D01*
X160150000Y-109115560D01*
X159250000Y-109115560D01*
X159014683Y-109159838D01*
X158798559Y-109298910D01*
X158653569Y-109511110D01*
X158638959Y-109583258D01*
X158553094Y-109600337D01*
X158285283Y-109779283D01*
X157404283Y-110660283D01*
X157225337Y-110928094D01*
X157173540Y-111188500D01*
X157162500Y-111244000D01*
X157162500Y-111451028D01*
X157038890Y-111366569D01*
X156787000Y-111315560D01*
X155887000Y-111315560D01*
X155651683Y-111359838D01*
X155435559Y-111498910D01*
X155290569Y-111711110D01*
X155239560Y-111963000D01*
X155239560Y-113163000D01*
X155283838Y-113398317D01*
X155422910Y-113614441D01*
X155511500Y-113674972D01*
X155511500Y-114593067D01*
X154471066Y-115633500D01*
X152627756Y-115633500D01*
X152442116Y-115447536D01*
X152003503Y-115265408D01*
X151528580Y-115264993D01*
X151089650Y-115446355D01*
X150753536Y-115781884D01*
X150571408Y-116220497D01*
X150570993Y-116695420D01*
X140410000Y-116695420D01*
X140410000Y-112182815D01*
X141374630Y-112182815D01*
X141698980Y-112967800D01*
X142299041Y-113568909D01*
X143083459Y-113894628D01*
X143932815Y-113895370D01*
X144717800Y-113571020D01*
X145318909Y-112970959D01*
X145644628Y-112186541D01*
X145645370Y-111337185D01*
X145321020Y-110552200D01*
X144720959Y-109951091D01*
X143936541Y-109625372D01*
X143087185Y-109624630D01*
X142302200Y-109948980D01*
X141701091Y-110549041D01*
X141375372Y-111333459D01*
X141374630Y-112182815D01*
X140410000Y-112182815D01*
X140410000Y-108660000D01*
X178990000Y-108660000D01*
X178990000Y-138990000D01*
M02*
