G04 #@! TF.FileFunction,Legend,Bot*
%FSLAX46Y46*%
G04 Gerber Fmt 4.6, Leading zero omitted, Abs format (unit mm)*
G04 Created by KiCad (PCBNEW 4.0.7) date 02/24/18 20:28:21*
%MOMM*%
%LPD*%
G01*
G04 APERTURE LIST*
%ADD10C,0.100000*%
%ADD11C,0.250000*%
%ADD12C,0.175000*%
%ADD13C,0.120000*%
%ADD14C,0.150000*%
%ADD15R,1.150000X1.600000*%
%ADD16R,1.300000X1.600000*%
%ADD17R,2.100000X2.100000*%
%ADD18O,2.100000X2.100000*%
%ADD19R,2.686000X2.178000*%
%ADD20C,3.956000*%
%ADD21R,1.600000X1.300000*%
%ADD22R,1.200000X2.300000*%
%ADD23C,3.400000*%
G04 APERTURE END LIST*
D10*
D11*
X177361243Y-130119381D02*
X177361243Y-129119381D01*
X176789814Y-130119381D01*
X176789814Y-129119381D01*
X176123148Y-129119381D02*
X175932671Y-129119381D01*
X175837433Y-129167000D01*
X175742195Y-129262238D01*
X175694576Y-129452714D01*
X175694576Y-129786048D01*
X175742195Y-129976524D01*
X175837433Y-130071762D01*
X175932671Y-130119381D01*
X176123148Y-130119381D01*
X176218386Y-130071762D01*
X176313624Y-129976524D01*
X176361243Y-129786048D01*
X176361243Y-129452714D01*
X176313624Y-129262238D01*
X176218386Y-129167000D01*
X176123148Y-129119381D01*
X175266005Y-130024143D02*
X175218386Y-130071762D01*
X175266005Y-130119381D01*
X175313624Y-130071762D01*
X175266005Y-130024143D01*
X175266005Y-130119381D01*
X175027910Y-130214619D02*
X174266005Y-130214619D01*
X174266005Y-130214619D02*
X173504100Y-130214619D01*
X173504100Y-130214619D02*
X172742195Y-130214619D01*
X172742195Y-130214619D02*
X171980290Y-130214619D01*
X171980290Y-130214619D02*
X171218385Y-130214619D01*
X171218385Y-130214619D02*
X170456480Y-130214619D01*
X170456480Y-130214619D02*
X169694575Y-130214619D01*
X169694575Y-130214619D02*
X168932670Y-130214619D01*
X168932670Y-130214619D02*
X168170765Y-130214619D01*
X167932670Y-130119381D02*
X167932670Y-129119381D01*
X167361241Y-130119381D01*
X167361241Y-129119381D01*
X166742194Y-130119381D02*
X166837432Y-130071762D01*
X166885051Y-130024143D01*
X166932670Y-129928905D01*
X166932670Y-129643190D01*
X166885051Y-129547952D01*
X166837432Y-129500333D01*
X166742194Y-129452714D01*
X166599336Y-129452714D01*
X166504098Y-129500333D01*
X166456479Y-129547952D01*
X166408860Y-129643190D01*
X166408860Y-129928905D01*
X166456479Y-130024143D01*
X166504098Y-130071762D01*
X166599336Y-130119381D01*
X166742194Y-130119381D01*
X166123146Y-129452714D02*
X165742194Y-129452714D01*
X165980289Y-129119381D02*
X165980289Y-129976524D01*
X165932670Y-130071762D01*
X165837432Y-130119381D01*
X165742194Y-130119381D01*
X165027907Y-130071762D02*
X165123145Y-130119381D01*
X165313622Y-130119381D01*
X165408860Y-130071762D01*
X165456479Y-129976524D01*
X165456479Y-129595571D01*
X165408860Y-129500333D01*
X165313622Y-129452714D01*
X165123145Y-129452714D01*
X165027907Y-129500333D01*
X164980288Y-129595571D01*
X164980288Y-129690810D01*
X165456479Y-129786048D01*
X164789812Y-130214619D02*
X164027907Y-130214619D01*
X164027907Y-130214619D02*
X163266002Y-130214619D01*
X163266002Y-130214619D02*
X162504097Y-130214619D01*
X162504097Y-130214619D02*
X161742192Y-130214619D01*
X161742192Y-130214619D02*
X160980287Y-130214619D01*
X160980287Y-130214619D02*
X160218382Y-130214619D01*
X160218382Y-130214619D02*
X159456477Y-130214619D01*
X159456477Y-130214619D02*
X158694572Y-130214619D01*
X158694572Y-130214619D02*
X157932667Y-130214619D01*
X157932667Y-130214619D02*
X157170762Y-130214619D01*
X157170762Y-130214619D02*
X156408857Y-130214619D01*
X156408857Y-130214619D02*
X155646952Y-130214619D01*
X155646952Y-130214619D02*
X154885047Y-130214619D01*
X154885047Y-130214619D02*
X154123142Y-130214619D01*
X154123142Y-130214619D02*
X153361237Y-130214619D01*
X153361237Y-130214619D02*
X152599332Y-130214619D01*
X152599332Y-130214619D02*
X151837427Y-130214619D01*
X151837427Y-130214619D02*
X151075522Y-130214619D01*
X151075522Y-130214619D02*
X150313617Y-130214619D01*
X150313617Y-130214619D02*
X149551712Y-130214619D01*
X149551712Y-130214619D02*
X148789807Y-130214619D01*
X148789807Y-130214619D02*
X148027902Y-130214619D01*
X148027902Y-130214619D02*
X147265997Y-130214619D01*
X147265997Y-130214619D02*
X146504092Y-130214619D01*
X146504092Y-130214619D02*
X145742187Y-130214619D01*
X145742187Y-130214619D02*
X144980282Y-130214619D01*
X144980282Y-130214619D02*
X144218377Y-130214619D01*
X144218377Y-130214619D02*
X143456472Y-130214619D01*
X143456472Y-130214619D02*
X142694567Y-130214619D01*
X142694567Y-130214619D02*
X141932662Y-130214619D01*
X171837430Y-132167381D02*
X171837430Y-132405476D01*
X172075525Y-132310238D02*
X171837430Y-132405476D01*
X171599334Y-132310238D01*
X171980287Y-132595952D02*
X171837430Y-132405476D01*
X171694572Y-132595952D01*
X171075525Y-132167381D02*
X171075525Y-132405476D01*
X171313620Y-132310238D02*
X171075525Y-132405476D01*
X170837429Y-132310238D01*
X171218382Y-132595952D02*
X171075525Y-132405476D01*
X170932667Y-132595952D01*
X170313620Y-132167381D02*
X170313620Y-132405476D01*
X170551715Y-132310238D02*
X170313620Y-132405476D01*
X170075524Y-132310238D01*
X170456477Y-132595952D02*
X170313620Y-132405476D01*
X170170762Y-132595952D01*
X169361238Y-132643571D02*
X169694572Y-132643571D01*
X169694572Y-133167381D02*
X169694572Y-132167381D01*
X169218381Y-132167381D01*
X168885048Y-132881667D02*
X168408857Y-132881667D01*
X168980286Y-133167381D02*
X168646953Y-132167381D01*
X168313619Y-133167381D01*
X167408857Y-133072143D02*
X167456476Y-133119762D01*
X167599333Y-133167381D01*
X167694571Y-133167381D01*
X167837429Y-133119762D01*
X167932667Y-133024524D01*
X167980286Y-132929286D01*
X168027905Y-132738810D01*
X168027905Y-132595952D01*
X167980286Y-132405476D01*
X167932667Y-132310238D01*
X167837429Y-132215000D01*
X167694571Y-132167381D01*
X167599333Y-132167381D01*
X167456476Y-132215000D01*
X167408857Y-132262619D01*
X166980286Y-132643571D02*
X166646952Y-132643571D01*
X166504095Y-133167381D02*
X166980286Y-133167381D01*
X166980286Y-132167381D01*
X166504095Y-132167381D01*
X165456476Y-132167381D02*
X164885047Y-132167381D01*
X165170762Y-133167381D02*
X165170762Y-132167381D01*
X164361238Y-132167381D02*
X164170761Y-132167381D01*
X164075523Y-132215000D01*
X163980285Y-132310238D01*
X163932666Y-132500714D01*
X163932666Y-132834048D01*
X163980285Y-133024524D01*
X164075523Y-133119762D01*
X164170761Y-133167381D01*
X164361238Y-133167381D01*
X164456476Y-133119762D01*
X164551714Y-133024524D01*
X164599333Y-132834048D01*
X164599333Y-132500714D01*
X164551714Y-132310238D01*
X164456476Y-132215000D01*
X164361238Y-132167381D01*
X163599333Y-132167381D02*
X163361238Y-133167381D01*
X163170761Y-132453095D01*
X162980285Y-133167381D01*
X162742190Y-132167381D01*
X162408857Y-132881667D02*
X161932666Y-132881667D01*
X162504095Y-133167381D02*
X162170762Y-132167381D01*
X161837428Y-133167381D01*
X160932666Y-133167381D02*
X161266000Y-132691190D01*
X161504095Y-133167381D02*
X161504095Y-132167381D01*
X161123142Y-132167381D01*
X161027904Y-132215000D01*
X160980285Y-132262619D01*
X160932666Y-132357857D01*
X160932666Y-132500714D01*
X160980285Y-132595952D01*
X161027904Y-132643571D01*
X161123142Y-132691190D01*
X161504095Y-132691190D01*
X160504095Y-133167381D02*
X160504095Y-132167381D01*
X160266000Y-132167381D01*
X160123142Y-132215000D01*
X160027904Y-132310238D01*
X159980285Y-132405476D01*
X159932666Y-132595952D01*
X159932666Y-132738810D01*
X159980285Y-132929286D01*
X160027904Y-133024524D01*
X160123142Y-133119762D01*
X160266000Y-133167381D01*
X160504095Y-133167381D01*
X158789809Y-133119762D02*
X158646952Y-133167381D01*
X158408856Y-133167381D01*
X158313618Y-133119762D01*
X158265999Y-133072143D01*
X158218380Y-132976905D01*
X158218380Y-132881667D01*
X158265999Y-132786429D01*
X158313618Y-132738810D01*
X158408856Y-132691190D01*
X158599333Y-132643571D01*
X158694571Y-132595952D01*
X158742190Y-132548333D01*
X158789809Y-132453095D01*
X158789809Y-132357857D01*
X158742190Y-132262619D01*
X158694571Y-132215000D01*
X158599333Y-132167381D01*
X158361237Y-132167381D01*
X158218380Y-132215000D01*
X157599333Y-132167381D02*
X157408856Y-132167381D01*
X157313618Y-132215000D01*
X157218380Y-132310238D01*
X157170761Y-132500714D01*
X157170761Y-132834048D01*
X157218380Y-133024524D01*
X157313618Y-133119762D01*
X157408856Y-133167381D01*
X157599333Y-133167381D01*
X157694571Y-133119762D01*
X157789809Y-133024524D01*
X157837428Y-132834048D01*
X157837428Y-132500714D01*
X157789809Y-132310238D01*
X157694571Y-132215000D01*
X157599333Y-132167381D01*
X156742190Y-132167381D02*
X156742190Y-132976905D01*
X156694571Y-133072143D01*
X156646952Y-133119762D01*
X156551714Y-133167381D01*
X156361237Y-133167381D01*
X156265999Y-133119762D01*
X156218380Y-133072143D01*
X156170761Y-132976905D01*
X156170761Y-132167381D01*
X155837428Y-132167381D02*
X155265999Y-132167381D01*
X155551714Y-133167381D02*
X155551714Y-132167381D01*
X154932666Y-133167381D02*
X154932666Y-132167381D01*
X154932666Y-132643571D02*
X154361237Y-132643571D01*
X154361237Y-133167381D02*
X154361237Y-132167381D01*
X153123142Y-133167381D02*
X153123142Y-132167381D01*
X152742189Y-132167381D01*
X152646951Y-132215000D01*
X152599332Y-132262619D01*
X152551713Y-132357857D01*
X152551713Y-132500714D01*
X152599332Y-132595952D01*
X152646951Y-132643571D01*
X152742189Y-132691190D01*
X153123142Y-132691190D01*
X151932666Y-132167381D02*
X151742189Y-132167381D01*
X151646951Y-132215000D01*
X151551713Y-132310238D01*
X151504094Y-132500714D01*
X151504094Y-132834048D01*
X151551713Y-133024524D01*
X151646951Y-133119762D01*
X151742189Y-133167381D01*
X151932666Y-133167381D01*
X152027904Y-133119762D01*
X152123142Y-133024524D01*
X152170761Y-132834048D01*
X152170761Y-132500714D01*
X152123142Y-132310238D01*
X152027904Y-132215000D01*
X151932666Y-132167381D01*
X150599332Y-133167381D02*
X151075523Y-133167381D01*
X151075523Y-132167381D01*
X150265999Y-132643571D02*
X149932665Y-132643571D01*
X149789808Y-133167381D02*
X150265999Y-133167381D01*
X150265999Y-132167381D01*
X149789808Y-132167381D01*
X149218380Y-132167381D02*
X149218380Y-132405476D01*
X149456475Y-132310238D02*
X149218380Y-132405476D01*
X148980284Y-132310238D01*
X149361237Y-132595952D02*
X149218380Y-132405476D01*
X149075522Y-132595952D01*
X148456475Y-132167381D02*
X148456475Y-132405476D01*
X148694570Y-132310238D02*
X148456475Y-132405476D01*
X148218379Y-132310238D01*
X148599332Y-132595952D02*
X148456475Y-132405476D01*
X148313617Y-132595952D01*
X147694570Y-132167381D02*
X147694570Y-132405476D01*
X147932665Y-132310238D02*
X147694570Y-132405476D01*
X147456474Y-132310238D01*
X147837427Y-132595952D02*
X147694570Y-132405476D01*
X147551712Y-132595952D01*
D12*
X161860667Y-109665002D02*
X161160667Y-109665002D01*
X161827333Y-109965001D02*
X161860667Y-110065001D01*
X161860667Y-110231668D01*
X161827333Y-110298335D01*
X161794000Y-110331668D01*
X161727333Y-110365001D01*
X161660667Y-110365001D01*
X161594000Y-110331668D01*
X161560667Y-110298335D01*
X161527333Y-110231668D01*
X161494000Y-110098335D01*
X161460667Y-110031668D01*
X161427333Y-109998335D01*
X161360667Y-109965001D01*
X161294000Y-109965001D01*
X161227333Y-109998335D01*
X161194000Y-110031668D01*
X161160667Y-110098335D01*
X161160667Y-110265001D01*
X161194000Y-110365001D01*
X161827333Y-111165001D02*
X161860667Y-111265001D01*
X161860667Y-111431668D01*
X161827333Y-111498335D01*
X161794000Y-111531668D01*
X161727333Y-111565001D01*
X161660667Y-111565001D01*
X161594000Y-111531668D01*
X161560667Y-111498335D01*
X161527333Y-111431668D01*
X161494000Y-111298335D01*
X161460667Y-111231668D01*
X161427333Y-111198335D01*
X161360667Y-111165001D01*
X161294000Y-111165001D01*
X161227333Y-111198335D01*
X161194000Y-111231668D01*
X161160667Y-111298335D01*
X161160667Y-111465001D01*
X161194000Y-111565001D01*
X161160667Y-111798335D02*
X161860667Y-111965002D01*
X161360667Y-112098335D01*
X161860667Y-112231668D01*
X161160667Y-112398335D01*
X161860667Y-112665002D02*
X161160667Y-112665002D01*
X161160667Y-112898335D02*
X161160667Y-113298335D01*
X161860667Y-113098335D02*
X161160667Y-113098335D01*
X161794000Y-113931668D02*
X161827333Y-113898334D01*
X161860667Y-113798334D01*
X161860667Y-113731668D01*
X161827333Y-113631668D01*
X161760667Y-113565001D01*
X161694000Y-113531668D01*
X161560667Y-113498334D01*
X161460667Y-113498334D01*
X161327333Y-113531668D01*
X161260667Y-113565001D01*
X161194000Y-113631668D01*
X161160667Y-113731668D01*
X161160667Y-113798334D01*
X161194000Y-113898334D01*
X161227333Y-113931668D01*
X161860667Y-114231668D02*
X161160667Y-114231668D01*
X161494000Y-114231668D02*
X161494000Y-114631668D01*
X161860667Y-114631668D02*
X161160667Y-114631668D01*
X161860667Y-115498334D02*
X161160667Y-115498334D01*
X161494000Y-115498334D02*
X161494000Y-115898334D01*
X161860667Y-115898334D02*
X161160667Y-115898334D01*
X161860667Y-116231667D02*
X161160667Y-116231667D01*
X161194000Y-116931666D02*
X161160667Y-116865000D01*
X161160667Y-116765000D01*
X161194000Y-116665000D01*
X161260667Y-116598333D01*
X161327333Y-116565000D01*
X161460667Y-116531666D01*
X161560667Y-116531666D01*
X161694000Y-116565000D01*
X161760667Y-116598333D01*
X161827333Y-116665000D01*
X161860667Y-116765000D01*
X161860667Y-116831666D01*
X161827333Y-116931666D01*
X161794000Y-116965000D01*
X161560667Y-116965000D01*
X161560667Y-116831666D01*
X161860667Y-117265000D02*
X161160667Y-117265000D01*
X161494000Y-117265000D02*
X161494000Y-117665000D01*
X161860667Y-117665000D02*
X161160667Y-117665000D01*
X158558667Y-109658735D02*
X157858667Y-109658735D01*
X158192000Y-109658735D02*
X158192000Y-110058735D01*
X158558667Y-110058735D02*
X157858667Y-110058735D01*
X158358667Y-110358734D02*
X158358667Y-110692068D01*
X158558667Y-110292068D02*
X157858667Y-110525401D01*
X158558667Y-110758734D01*
X158558667Y-111325401D02*
X158558667Y-110992068D01*
X157858667Y-110992068D01*
X158558667Y-111892068D02*
X158558667Y-111558735D01*
X157858667Y-111558735D01*
X158525333Y-112625401D02*
X158558667Y-112725401D01*
X158558667Y-112892068D01*
X158525333Y-112958735D01*
X158492000Y-112992068D01*
X158425333Y-113025401D01*
X158358667Y-113025401D01*
X158292000Y-112992068D01*
X158258667Y-112958735D01*
X158225333Y-112892068D01*
X158192000Y-112758735D01*
X158158667Y-112692068D01*
X158125333Y-112658735D01*
X158058667Y-112625401D01*
X157992000Y-112625401D01*
X157925333Y-112658735D01*
X157892000Y-112692068D01*
X157858667Y-112758735D01*
X157858667Y-112925401D01*
X157892000Y-113025401D01*
X158192000Y-113325402D02*
X158192000Y-113558735D01*
X158558667Y-113658735D02*
X158558667Y-113325402D01*
X157858667Y-113325402D01*
X157858667Y-113658735D01*
X158558667Y-113958735D02*
X157858667Y-113958735D01*
X158558667Y-114358735D01*
X157858667Y-114358735D01*
X158525333Y-114658734D02*
X158558667Y-114758734D01*
X158558667Y-114925401D01*
X158525333Y-114992068D01*
X158492000Y-115025401D01*
X158425333Y-115058734D01*
X158358667Y-115058734D01*
X158292000Y-115025401D01*
X158258667Y-114992068D01*
X158225333Y-114925401D01*
X158192000Y-114792068D01*
X158158667Y-114725401D01*
X158125333Y-114692068D01*
X158058667Y-114658734D01*
X157992000Y-114658734D01*
X157925333Y-114692068D01*
X157892000Y-114725401D01*
X157858667Y-114792068D01*
X157858667Y-114958734D01*
X157892000Y-115058734D01*
X157858667Y-115492068D02*
X157858667Y-115625401D01*
X157892000Y-115692068D01*
X157958667Y-115758735D01*
X158092000Y-115792068D01*
X158325333Y-115792068D01*
X158458667Y-115758735D01*
X158525333Y-115692068D01*
X158558667Y-115625401D01*
X158558667Y-115492068D01*
X158525333Y-115425401D01*
X158458667Y-115358735D01*
X158325333Y-115325401D01*
X158092000Y-115325401D01*
X157958667Y-115358735D01*
X157892000Y-115425401D01*
X157858667Y-115492068D01*
X158558667Y-116492068D02*
X158225333Y-116258734D01*
X158558667Y-116092068D02*
X157858667Y-116092068D01*
X157858667Y-116358734D01*
X157892000Y-116425401D01*
X157925333Y-116458734D01*
X157992000Y-116492068D01*
X158092000Y-116492068D01*
X158158667Y-116458734D01*
X158192000Y-116425401D01*
X158225333Y-116358734D01*
X158225333Y-116092068D01*
X157858667Y-117458734D02*
X157858667Y-117592067D01*
X157892000Y-117658734D01*
X157958667Y-117725401D01*
X158092000Y-117758734D01*
X158325333Y-117758734D01*
X158458667Y-117725401D01*
X158525333Y-117658734D01*
X158558667Y-117592067D01*
X158558667Y-117458734D01*
X158525333Y-117392067D01*
X158458667Y-117325401D01*
X158325333Y-117292067D01*
X158092000Y-117292067D01*
X157958667Y-117325401D01*
X157892000Y-117392067D01*
X157858667Y-117458734D01*
X157858667Y-118058734D02*
X158425333Y-118058734D01*
X158492000Y-118092067D01*
X158525333Y-118125400D01*
X158558667Y-118192067D01*
X158558667Y-118325400D01*
X158525333Y-118392067D01*
X158492000Y-118425400D01*
X158425333Y-118458734D01*
X157858667Y-118458734D01*
X157858667Y-118692067D02*
X157858667Y-119092067D01*
X158558667Y-118892067D02*
X157858667Y-118892067D01*
X155129667Y-109683667D02*
X154429667Y-109683667D01*
X154429667Y-109950333D01*
X154463000Y-110017000D01*
X154496333Y-110050333D01*
X154563000Y-110083667D01*
X154663000Y-110083667D01*
X154729667Y-110050333D01*
X154763000Y-110017000D01*
X154796333Y-109950333D01*
X154796333Y-109683667D01*
X154429667Y-110317000D02*
X155129667Y-110483667D01*
X154629667Y-110617000D01*
X155129667Y-110750333D01*
X154429667Y-110917000D01*
X155129667Y-111583667D02*
X154796333Y-111350333D01*
X155129667Y-111183667D02*
X154429667Y-111183667D01*
X154429667Y-111450333D01*
X154463000Y-111517000D01*
X154496333Y-111550333D01*
X154563000Y-111583667D01*
X154663000Y-111583667D01*
X154729667Y-111550333D01*
X154763000Y-111517000D01*
X154796333Y-111450333D01*
X154796333Y-111183667D01*
D13*
X155610000Y-122545400D02*
X155610000Y-123245400D01*
X156810000Y-123245400D02*
X156810000Y-122545400D01*
X162595000Y-122545400D02*
X162595000Y-123245400D01*
X163795000Y-123245400D02*
X163795000Y-122545400D01*
X155787000Y-109663000D02*
X156887000Y-109663000D01*
X156887000Y-109663000D02*
X156887000Y-112263000D01*
X155787000Y-109663000D02*
X155787000Y-112263000D01*
X159150000Y-109663000D02*
X160250000Y-109663000D01*
X160250000Y-109663000D02*
X160250000Y-112263000D01*
X159150000Y-109663000D02*
X159150000Y-112263000D01*
X162518000Y-109663000D02*
X163618000Y-109663000D01*
X163618000Y-109663000D02*
X163618000Y-112263000D01*
X162518000Y-109663000D02*
X162518000Y-112263000D01*
X160232800Y-119208000D02*
X159232800Y-119208000D01*
X159232800Y-120568000D02*
X160232800Y-120568000D01*
X161280000Y-124585000D02*
X160350000Y-124585000D01*
X158120000Y-124585000D02*
X159050000Y-124585000D01*
X158120000Y-124585000D02*
X158120000Y-121425000D01*
X161280000Y-124585000D02*
X161280000Y-123125000D01*
D14*
X155317143Y-122728734D02*
X155364762Y-122681115D01*
X155412381Y-122538258D01*
X155412381Y-122443020D01*
X155364762Y-122300162D01*
X155269524Y-122204924D01*
X155174286Y-122157305D01*
X154983810Y-122109686D01*
X154840952Y-122109686D01*
X154650476Y-122157305D01*
X154555238Y-122204924D01*
X154460000Y-122300162D01*
X154412381Y-122443020D01*
X154412381Y-122538258D01*
X154460000Y-122681115D01*
X154507619Y-122728734D01*
X155412381Y-123681115D02*
X155412381Y-123109686D01*
X155412381Y-123395400D02*
X154412381Y-123395400D01*
X154555238Y-123300162D01*
X154650476Y-123204924D01*
X154698095Y-123109686D01*
X162302143Y-122728734D02*
X162349762Y-122681115D01*
X162397381Y-122538258D01*
X162397381Y-122443020D01*
X162349762Y-122300162D01*
X162254524Y-122204924D01*
X162159286Y-122157305D01*
X161968810Y-122109686D01*
X161825952Y-122109686D01*
X161635476Y-122157305D01*
X161540238Y-122204924D01*
X161445000Y-122300162D01*
X161397381Y-122443020D01*
X161397381Y-122538258D01*
X161445000Y-122681115D01*
X161492619Y-122728734D01*
X161492619Y-123109686D02*
X161445000Y-123157305D01*
X161397381Y-123252543D01*
X161397381Y-123490639D01*
X161445000Y-123585877D01*
X161492619Y-123633496D01*
X161587857Y-123681115D01*
X161683095Y-123681115D01*
X161825952Y-123633496D01*
X162397381Y-123062067D01*
X162397381Y-123681115D01*
X156789381Y-113815905D02*
X155789381Y-113815905D01*
X155789381Y-114054000D01*
X155837000Y-114196858D01*
X155932238Y-114292096D01*
X156027476Y-114339715D01*
X156217952Y-114387334D01*
X156360810Y-114387334D01*
X156551286Y-114339715D01*
X156646524Y-114292096D01*
X156741762Y-114196858D01*
X156789381Y-114054000D01*
X156789381Y-113815905D01*
X155789381Y-114720667D02*
X155789381Y-115339715D01*
X156170333Y-115006381D01*
X156170333Y-115149239D01*
X156217952Y-115244477D01*
X156265571Y-115292096D01*
X156360810Y-115339715D01*
X156598905Y-115339715D01*
X156694143Y-115292096D01*
X156741762Y-115244477D01*
X156789381Y-115149239D01*
X156789381Y-114863524D01*
X156741762Y-114768286D01*
X156694143Y-114720667D01*
X160152381Y-113815905D02*
X159152381Y-113815905D01*
X159152381Y-114054000D01*
X159200000Y-114196858D01*
X159295238Y-114292096D01*
X159390476Y-114339715D01*
X159580952Y-114387334D01*
X159723810Y-114387334D01*
X159914286Y-114339715D01*
X160009524Y-114292096D01*
X160104762Y-114196858D01*
X160152381Y-114054000D01*
X160152381Y-113815905D01*
X159485714Y-115244477D02*
X160152381Y-115244477D01*
X159104762Y-115006381D02*
X159819048Y-114768286D01*
X159819048Y-115387334D01*
X163520381Y-113815905D02*
X162520381Y-113815905D01*
X162520381Y-114054000D01*
X162568000Y-114196858D01*
X162663238Y-114292096D01*
X162758476Y-114339715D01*
X162948952Y-114387334D01*
X163091810Y-114387334D01*
X163282286Y-114339715D01*
X163377524Y-114292096D01*
X163472762Y-114196858D01*
X163520381Y-114054000D01*
X163520381Y-113815905D01*
X162520381Y-115292096D02*
X162520381Y-114815905D01*
X162996571Y-114768286D01*
X162948952Y-114815905D01*
X162901333Y-114911143D01*
X162901333Y-115149239D01*
X162948952Y-115244477D01*
X162996571Y-115292096D01*
X163091810Y-115339715D01*
X163329905Y-115339715D01*
X163425143Y-115292096D01*
X163472762Y-115244477D01*
X163520381Y-115149239D01*
X163520381Y-114911143D01*
X163472762Y-114815905D01*
X163425143Y-114768286D01*
X159899466Y-121790381D02*
X160232800Y-121314190D01*
X160470895Y-121790381D02*
X160470895Y-120790381D01*
X160089942Y-120790381D01*
X159994704Y-120838000D01*
X159947085Y-120885619D01*
X159899466Y-120980857D01*
X159899466Y-121123714D01*
X159947085Y-121218952D01*
X159994704Y-121266571D01*
X160089942Y-121314190D01*
X160470895Y-121314190D01*
X158947085Y-121790381D02*
X159518514Y-121790381D01*
X159232800Y-121790381D02*
X159232800Y-120790381D01*
X159328038Y-120933238D01*
X159423276Y-121028476D01*
X159518514Y-121076095D01*
X156652381Y-123063095D02*
X157461905Y-123063095D01*
X157557143Y-123110714D01*
X157604762Y-123158333D01*
X157652381Y-123253571D01*
X157652381Y-123444048D01*
X157604762Y-123539286D01*
X157557143Y-123586905D01*
X157461905Y-123634524D01*
X156652381Y-123634524D01*
X157652381Y-124634524D02*
X157652381Y-124063095D01*
X157652381Y-124348809D02*
X156652381Y-124348809D01*
X156795238Y-124253571D01*
X156890476Y-124158333D01*
X156938095Y-124063095D01*
%LPC*%
D15*
X156210000Y-121945400D03*
X156210000Y-123845400D03*
X163195000Y-121945400D03*
X163195000Y-123845400D03*
D16*
X156337000Y-110363000D03*
X156337000Y-112563000D03*
X159700000Y-110363000D03*
X159700000Y-112563000D03*
X163068000Y-110363000D03*
X163068000Y-112563000D03*
D17*
X167894000Y-136779000D03*
D18*
X165354000Y-136779000D03*
X162814000Y-136779000D03*
D19*
X175133000Y-124460000D03*
X175133000Y-121920000D03*
D20*
X144780000Y-126619000D03*
X144780000Y-121488200D03*
D21*
X158632800Y-119888000D03*
X160832800Y-119888000D03*
D22*
X158750000Y-122325000D03*
X160650000Y-122325000D03*
X159700000Y-125325000D03*
D23*
X143510000Y-135890000D03*
X143510000Y-111760000D03*
X175895000Y-111760000D03*
X175920400Y-135890000D03*
M02*
