G04 #@! TF.FileFunction,Copper,L1,Top,Signal*
%FSLAX46Y46*%
G04 Gerber Fmt 4.6, Leading zero omitted, Abs format (unit mm)*
G04 Created by KiCad (PCBNEW 4.0.7) date 02/24/18 20:28:21*
%MOMM*%
%LPD*%
G01*
G04 APERTURE LIST*
%ADD10C,0.100000*%
%ADD11R,0.900000X1.200000*%
%ADD12R,0.700000X0.600000*%
%ADD13R,1.000000X1.000000*%
%ADD14R,1.700000X1.700000*%
%ADD15O,1.700000X1.700000*%
%ADD16R,2.286000X1.778000*%
%ADD17C,3.556000*%
%ADD18R,1.200000X0.900000*%
%ADD19R,0.800000X1.900000*%
%ADD20R,1.900000X0.800000*%
%ADD21C,1.117600*%
%ADD22C,0.508000*%
%ADD23C,0.381000*%
%ADD24C,0.254000*%
G04 APERTURE END LIST*
D10*
D11*
X151257000Y-129921000D03*
X151257000Y-132121000D03*
D12*
X169926000Y-112138000D03*
X169926000Y-113538000D03*
D13*
X171938000Y-115697000D03*
X169438000Y-115697000D03*
D14*
X167894000Y-136779000D03*
D15*
X165354000Y-136779000D03*
X162814000Y-136779000D03*
D16*
X175133000Y-124460000D03*
X175133000Y-121920000D03*
D17*
X144780000Y-126619000D03*
X144780000Y-121488200D03*
D11*
X153797000Y-129964000D03*
X153797000Y-132164000D03*
D18*
X161460000Y-128270000D03*
X163660000Y-128270000D03*
X163660000Y-130556000D03*
X161460000Y-130556000D03*
D11*
X166243000Y-130513000D03*
X166243000Y-128313000D03*
D18*
X166200000Y-116586000D03*
X164000000Y-116586000D03*
D11*
X151765000Y-118110000D03*
X151765000Y-120310000D03*
X155575000Y-118110000D03*
X155575000Y-120310000D03*
X155575000Y-126533000D03*
X155575000Y-124333000D03*
X159385000Y-118110000D03*
X159385000Y-120310000D03*
D18*
X169588000Y-117602000D03*
X171788000Y-117602000D03*
D19*
X151069000Y-126595000D03*
X152969000Y-126595000D03*
X152019000Y-123595000D03*
D20*
X167084000Y-113980000D03*
X167084000Y-112080000D03*
X164084000Y-113030000D03*
D19*
X156276000Y-132032000D03*
X158176000Y-132032000D03*
X157226000Y-129032000D03*
X168976000Y-131929000D03*
X170876000Y-131929000D03*
X169926000Y-128929000D03*
D21*
X161290000Y-118364000D03*
X153924000Y-124587000D03*
X157226000Y-126746000D03*
X159893000Y-127762000D03*
X164465000Y-119253000D03*
X151765000Y-116459000D03*
X153670000Y-121666000D03*
X160401000Y-116205000D03*
X165100000Y-114935000D03*
X162052000Y-116332000D03*
D22*
X161460000Y-128270000D02*
X161610000Y-128270000D01*
X161610000Y-128270000D02*
X165735000Y-124145000D01*
X164730866Y-117940000D02*
X164000000Y-117940000D01*
X165735000Y-124145000D02*
X165735000Y-118944134D01*
X165735000Y-118944134D02*
X164730866Y-117940000D01*
X163576000Y-118364000D02*
X164000000Y-117940000D01*
X164000000Y-117940000D02*
X164000000Y-116586000D01*
X161290000Y-118364000D02*
X163576000Y-118364000D01*
X159385000Y-120310000D02*
X159385000Y-120269000D01*
X159385000Y-120269000D02*
X161290000Y-118364000D01*
X156845000Y-120310000D02*
X159385000Y-120310000D01*
X155575000Y-120310000D02*
X156845000Y-120310000D01*
X151765000Y-120310000D02*
X155575000Y-120310000D01*
X144780000Y-121488200D02*
X150736800Y-121488200D01*
X150736800Y-121488200D02*
X151765000Y-120460000D01*
X151765000Y-120460000D02*
X151765000Y-120310000D01*
D23*
X152969000Y-126595000D02*
X152969000Y-125542000D01*
X152969000Y-125542000D02*
X153924000Y-124587000D01*
X152969000Y-126595000D02*
X152969000Y-125034000D01*
D24*
X169438000Y-115697000D02*
X170205400Y-115697000D01*
X166350000Y-116586000D02*
X166200000Y-116586000D01*
X170205400Y-115697000D02*
X170688000Y-116179600D01*
X170281600Y-118872000D02*
X168554400Y-118872000D01*
X170688000Y-116179600D02*
X170688000Y-118465600D01*
X170688000Y-118465600D02*
X170281600Y-118872000D01*
X168554400Y-118872000D02*
X167894000Y-118211600D01*
X167894000Y-118211600D02*
X167894000Y-118130000D01*
X167894000Y-118130000D02*
X166350000Y-116586000D01*
X169926000Y-113538000D02*
X169926000Y-115209000D01*
X169926000Y-115209000D02*
X169438000Y-115697000D01*
X151257000Y-129921000D02*
X153754000Y-129921000D01*
X153754000Y-129921000D02*
X153797000Y-129964000D01*
X149606000Y-133985000D02*
X149606000Y-131722000D01*
X149606000Y-131722000D02*
X151257000Y-130071000D01*
X151257000Y-130071000D02*
X151257000Y-129921000D01*
X154432000Y-138811000D02*
X149606000Y-133985000D01*
X166966000Y-138811000D02*
X154432000Y-138811000D01*
X167894000Y-136779000D02*
X167894000Y-137883000D01*
X167894000Y-137883000D02*
X166966000Y-138811000D01*
X157226000Y-126746000D02*
X157226000Y-129032000D01*
D23*
X162494000Y-129540000D02*
X158515000Y-129540000D01*
X158515000Y-129540000D02*
X158007000Y-129032000D01*
X158007000Y-129032000D02*
X157226000Y-129032000D01*
X163510000Y-130556000D02*
X162494000Y-129540000D01*
D24*
X157353000Y-128905000D02*
X157226000Y-129032000D01*
X163660000Y-130556000D02*
X166200000Y-130556000D01*
X166200000Y-130556000D02*
X166243000Y-130513000D01*
X163660000Y-130556000D02*
X163660000Y-128270000D01*
X157226000Y-129032000D02*
X157880000Y-129032000D01*
X163510000Y-130556000D02*
X163660000Y-130556000D01*
X163660000Y-128270000D02*
X163810000Y-128270000D01*
D23*
X155575000Y-127508000D02*
X155575000Y-126533000D01*
X154686000Y-128397000D02*
X155575000Y-127508000D01*
X152321000Y-128397000D02*
X154686000Y-128397000D01*
X151069000Y-126595000D02*
X151069000Y-127145000D01*
X151069000Y-127145000D02*
X152321000Y-128397000D01*
D24*
X167767000Y-115317000D02*
X167767000Y-115931000D01*
X167767000Y-115931000D02*
X169438000Y-117602000D01*
X169438000Y-117602000D02*
X169588000Y-117602000D01*
X167767000Y-115317000D02*
X167084000Y-114634000D01*
X167084000Y-114634000D02*
X167084000Y-113980000D01*
D23*
X164465000Y-122936000D02*
X164465000Y-122428000D01*
X164465000Y-122428000D02*
X164465000Y-119253000D01*
X159893000Y-127762000D02*
X164465000Y-123190000D01*
X164465000Y-123190000D02*
X164465000Y-122428000D01*
X155575000Y-124333000D02*
X156464000Y-124333000D01*
X156464000Y-124333000D02*
X159893000Y-127762000D01*
X169926000Y-128929000D02*
X169926000Y-123317000D01*
X169926000Y-123317000D02*
X171323000Y-121920000D01*
X171323000Y-121920000D02*
X172466000Y-121920000D01*
X175133000Y-121920000D02*
X172466000Y-121920000D01*
D22*
X174879000Y-121920000D02*
X175133000Y-121920000D01*
D23*
X175514000Y-121920000D02*
X175260000Y-121920000D01*
X171788000Y-121242000D02*
X171788000Y-117602000D01*
X175514000Y-121920000D02*
X172466000Y-121920000D01*
X172466000Y-121920000D02*
X171788000Y-121242000D01*
D24*
X171788000Y-117602000D02*
X171788000Y-115847000D01*
X171788000Y-115847000D02*
X171938000Y-115697000D01*
D23*
X151765000Y-118110000D02*
X151765000Y-116459000D01*
X151765000Y-118110000D02*
X151765000Y-117960000D01*
X152019000Y-123595000D02*
X152800000Y-123595000D01*
X153670000Y-122725000D02*
X153670000Y-121666000D01*
X152800000Y-123595000D02*
X153670000Y-122725000D01*
X157330000Y-116205000D02*
X160401000Y-116205000D01*
X155575000Y-118110000D02*
X155575000Y-117960000D01*
X155575000Y-117960000D02*
X157330000Y-116205000D01*
X164084000Y-113030000D02*
X164084000Y-113919000D01*
X164084000Y-113919000D02*
X165100000Y-114935000D01*
X161150301Y-117360699D02*
X162052000Y-116459000D01*
X162052000Y-116459000D02*
X162052000Y-116332000D01*
X159385000Y-118110000D02*
X160134301Y-117360699D01*
X160134301Y-117360699D02*
X161150301Y-117360699D01*
D24*
X154686000Y-131064000D02*
X154686000Y-131096000D01*
X154686000Y-131096000D02*
X155622000Y-132032000D01*
X155622000Y-132032000D02*
X156276000Y-132032000D01*
X153018000Y-131064000D02*
X154686000Y-131064000D01*
X151257000Y-132121000D02*
X151961000Y-132121000D01*
X151961000Y-132121000D02*
X153018000Y-131064000D01*
X156276000Y-132032000D02*
X156276000Y-132582000D01*
X168976000Y-131929000D02*
X168976000Y-131379000D01*
X167513000Y-128651000D02*
X167175000Y-128313000D01*
X168976000Y-131379000D02*
X167513000Y-129916000D01*
X167513000Y-129916000D02*
X167513000Y-128651000D01*
X167175000Y-128313000D02*
X166243000Y-128313000D01*
G36*
X178990000Y-138990000D02*
X167864630Y-138990000D01*
X168432815Y-138421815D01*
X168529952Y-138276440D01*
X168744000Y-138276440D01*
X168979317Y-138232162D01*
X169195441Y-138093090D01*
X169340431Y-137880890D01*
X169391440Y-137629000D01*
X169391440Y-136312815D01*
X173785030Y-136312815D01*
X174109380Y-137097800D01*
X174709441Y-137698909D01*
X175493859Y-138024628D01*
X176343215Y-138025370D01*
X177128200Y-137701020D01*
X177729309Y-137100959D01*
X178055028Y-136316541D01*
X178055770Y-135467185D01*
X177731420Y-134682200D01*
X177131359Y-134081091D01*
X176346941Y-133755372D01*
X175497585Y-133754630D01*
X174712600Y-134078980D01*
X174111491Y-134679041D01*
X173785772Y-135463459D01*
X173785030Y-136312815D01*
X169391440Y-136312815D01*
X169391440Y-135929000D01*
X169347162Y-135693683D01*
X169208090Y-135477559D01*
X168995890Y-135332569D01*
X168744000Y-135281560D01*
X167044000Y-135281560D01*
X166808683Y-135325838D01*
X166592559Y-135464910D01*
X166447569Y-135677110D01*
X166433914Y-135744541D01*
X166404054Y-135699853D01*
X165922285Y-135377946D01*
X165354000Y-135264907D01*
X164785715Y-135377946D01*
X164303946Y-135699853D01*
X164084000Y-136029026D01*
X163864054Y-135699853D01*
X163382285Y-135377946D01*
X162814000Y-135264907D01*
X162245715Y-135377946D01*
X161763946Y-135699853D01*
X161442039Y-136181622D01*
X161329000Y-136749907D01*
X161329000Y-136808093D01*
X161442039Y-137376378D01*
X161763946Y-137858147D01*
X162049578Y-138049000D01*
X154747631Y-138049000D01*
X150368000Y-133669370D01*
X150368000Y-133189584D01*
X150555110Y-133317431D01*
X150807000Y-133368440D01*
X151707000Y-133368440D01*
X151942317Y-133324162D01*
X152158441Y-133185090D01*
X152303431Y-132972890D01*
X152346020Y-132762578D01*
X152499815Y-132659815D01*
X153333631Y-131826000D01*
X154338370Y-131826000D01*
X155083185Y-132570815D01*
X155228560Y-132667952D01*
X155228560Y-132982000D01*
X155272838Y-133217317D01*
X155411910Y-133433441D01*
X155624110Y-133578431D01*
X155876000Y-133629440D01*
X156676000Y-133629440D01*
X156911317Y-133585162D01*
X157127441Y-133446090D01*
X157272431Y-133233890D01*
X157323440Y-132982000D01*
X157323440Y-131082000D01*
X157279162Y-130846683D01*
X157140090Y-130630559D01*
X157138452Y-130629440D01*
X157626000Y-130629440D01*
X157861317Y-130585162D01*
X158077441Y-130446090D01*
X158182855Y-130291812D01*
X158199095Y-130302663D01*
X158515000Y-130365500D01*
X162152066Y-130365500D01*
X162412560Y-130625994D01*
X162412560Y-131006000D01*
X162456838Y-131241317D01*
X162595910Y-131457441D01*
X162808110Y-131602431D01*
X163060000Y-131653440D01*
X164260000Y-131653440D01*
X164495317Y-131609162D01*
X164711441Y-131470090D01*
X164815360Y-131318000D01*
X165184133Y-131318000D01*
X165189838Y-131348317D01*
X165328910Y-131564441D01*
X165541110Y-131709431D01*
X165793000Y-131760440D01*
X166693000Y-131760440D01*
X166928317Y-131716162D01*
X167144441Y-131577090D01*
X167289431Y-131364890D01*
X167340440Y-131113000D01*
X167340440Y-130821070D01*
X167928560Y-131409191D01*
X167928560Y-132879000D01*
X167972838Y-133114317D01*
X168111910Y-133330441D01*
X168324110Y-133475431D01*
X168576000Y-133526440D01*
X169376000Y-133526440D01*
X169611317Y-133482162D01*
X169827441Y-133343090D01*
X169972431Y-133130890D01*
X170023440Y-132879000D01*
X170023440Y-130979000D01*
X169979162Y-130743683D01*
X169840090Y-130527559D01*
X169838452Y-130526440D01*
X170326000Y-130526440D01*
X170561317Y-130482162D01*
X170777441Y-130343090D01*
X170922431Y-130130890D01*
X170973440Y-129879000D01*
X170973440Y-127979000D01*
X170929162Y-127743683D01*
X170790090Y-127527559D01*
X170751500Y-127501192D01*
X170751500Y-123658934D01*
X171664933Y-122745500D01*
X172465995Y-122745500D01*
X172466000Y-122745501D01*
X172466005Y-122745500D01*
X173342560Y-122745500D01*
X173342560Y-122809000D01*
X173386838Y-123044317D01*
X173525910Y-123260441D01*
X173738110Y-123405431D01*
X173990000Y-123456440D01*
X176276000Y-123456440D01*
X176511317Y-123412162D01*
X176727441Y-123273090D01*
X176872431Y-123060890D01*
X176923440Y-122809000D01*
X176923440Y-121031000D01*
X176879162Y-120795683D01*
X176740090Y-120579559D01*
X176527890Y-120434569D01*
X176276000Y-120383560D01*
X173990000Y-120383560D01*
X173754683Y-120427838D01*
X173538559Y-120566910D01*
X173393569Y-120779110D01*
X173342560Y-121031000D01*
X173342560Y-121094500D01*
X172807934Y-121094500D01*
X172613500Y-120900066D01*
X172613500Y-118657009D01*
X172623317Y-118655162D01*
X172839441Y-118516090D01*
X172984431Y-118303890D01*
X173035440Y-118052000D01*
X173035440Y-117152000D01*
X172991162Y-116916683D01*
X172852090Y-116700559D01*
X172840457Y-116692610D01*
X172889441Y-116661090D01*
X173034431Y-116448890D01*
X173085440Y-116197000D01*
X173085440Y-115197000D01*
X173041162Y-114961683D01*
X172902090Y-114745559D01*
X172689890Y-114600569D01*
X172438000Y-114549560D01*
X171438000Y-114549560D01*
X171202683Y-114593838D01*
X170986559Y-114732910D01*
X170841569Y-114945110D01*
X170790560Y-115197000D01*
X170790560Y-115204530D01*
X170744215Y-115158185D01*
X170688000Y-115120623D01*
X170688000Y-114327470D01*
X170727441Y-114302090D01*
X170872431Y-114089890D01*
X170923440Y-113838000D01*
X170923440Y-113238000D01*
X170879162Y-113002683D01*
X170740090Y-112786559D01*
X170527890Y-112641569D01*
X170276000Y-112590560D01*
X169576000Y-112590560D01*
X169340683Y-112634838D01*
X169124559Y-112773910D01*
X168979569Y-112986110D01*
X168928560Y-113238000D01*
X168928560Y-113838000D01*
X168972838Y-114073317D01*
X169111910Y-114289441D01*
X169164000Y-114325033D01*
X169164000Y-114549560D01*
X168938000Y-114549560D01*
X168702683Y-114593838D01*
X168620138Y-114646954D01*
X168630431Y-114631890D01*
X168681440Y-114380000D01*
X168681440Y-113580000D01*
X168637162Y-113344683D01*
X168498090Y-113128559D01*
X168285890Y-112983569D01*
X168034000Y-112932560D01*
X166134000Y-112932560D01*
X165898683Y-112976838D01*
X165682559Y-113115910D01*
X165681440Y-113117548D01*
X165681440Y-112630000D01*
X165637162Y-112394683D01*
X165500829Y-112182815D01*
X173759630Y-112182815D01*
X174083980Y-112967800D01*
X174684041Y-113568909D01*
X175468459Y-113894628D01*
X176317815Y-113895370D01*
X177102800Y-113571020D01*
X177703909Y-112970959D01*
X178029628Y-112186541D01*
X178030370Y-111337185D01*
X177706020Y-110552200D01*
X177105959Y-109951091D01*
X176321541Y-109625372D01*
X175472185Y-109624630D01*
X174687200Y-109948980D01*
X174086091Y-110549041D01*
X173760372Y-111333459D01*
X173759630Y-112182815D01*
X165500829Y-112182815D01*
X165498090Y-112178559D01*
X165285890Y-112033569D01*
X165034000Y-111982560D01*
X163134000Y-111982560D01*
X162898683Y-112026838D01*
X162682559Y-112165910D01*
X162537569Y-112378110D01*
X162486560Y-112630000D01*
X162486560Y-113430000D01*
X162530838Y-113665317D01*
X162669910Y-113881441D01*
X162882110Y-114026431D01*
X163134000Y-114077440D01*
X163290015Y-114077440D01*
X163321337Y-114234906D01*
X163500283Y-114502717D01*
X163906223Y-114908657D01*
X163905993Y-115171420D01*
X164037032Y-115488560D01*
X163400000Y-115488560D01*
X163164683Y-115532838D01*
X163028517Y-115620459D01*
X162729116Y-115320536D01*
X162290503Y-115138408D01*
X161815580Y-115137993D01*
X161376650Y-115319355D01*
X161290032Y-115405822D01*
X161078116Y-115193536D01*
X160639503Y-115011408D01*
X160164580Y-115010993D01*
X159725650Y-115192355D01*
X159538179Y-115379500D01*
X157330005Y-115379500D01*
X157330000Y-115379499D01*
X157014095Y-115442337D01*
X156746283Y-115621283D01*
X155505006Y-116862560D01*
X155125000Y-116862560D01*
X154889683Y-116906838D01*
X154673559Y-117045910D01*
X154528569Y-117258110D01*
X154477560Y-117510000D01*
X154477560Y-118710000D01*
X154521838Y-118945317D01*
X154660910Y-119161441D01*
X154730711Y-119209134D01*
X154673559Y-119245910D01*
X154553925Y-119421000D01*
X152783618Y-119421000D01*
X152679090Y-119258559D01*
X152609289Y-119210866D01*
X152666441Y-119174090D01*
X152811431Y-118961890D01*
X152862440Y-118710000D01*
X152862440Y-117510000D01*
X152818162Y-117274683D01*
X152747562Y-117164968D01*
X152776464Y-117136116D01*
X152958592Y-116697503D01*
X152959007Y-116222580D01*
X152777645Y-115783650D01*
X152442116Y-115447536D01*
X152003503Y-115265408D01*
X151528580Y-115264993D01*
X151089650Y-115446355D01*
X150753536Y-115781884D01*
X150571408Y-116220497D01*
X150570993Y-116695420D01*
X150752355Y-117134350D01*
X150782498Y-117164546D01*
X150718569Y-117258110D01*
X150667560Y-117510000D01*
X150667560Y-118710000D01*
X150711838Y-118945317D01*
X150850910Y-119161441D01*
X150920711Y-119209134D01*
X150863559Y-119245910D01*
X150718569Y-119458110D01*
X150667560Y-119710000D01*
X150667560Y-120300204D01*
X150368564Y-120599200D01*
X147023542Y-120599200D01*
X146826834Y-120123131D01*
X146148639Y-119443751D01*
X145262081Y-119075620D01*
X144302130Y-119074783D01*
X143414931Y-119441366D01*
X142735551Y-120119561D01*
X142367420Y-121006119D01*
X142366583Y-121966070D01*
X142733166Y-122853269D01*
X143411361Y-123532649D01*
X144297919Y-123900780D01*
X145257870Y-123901617D01*
X146145069Y-123535034D01*
X146824449Y-122856839D01*
X147023612Y-122377200D01*
X150736800Y-122377200D01*
X151077006Y-122309529D01*
X151081922Y-122306244D01*
X151022569Y-122393110D01*
X150971560Y-122645000D01*
X150971560Y-124545000D01*
X151015838Y-124780317D01*
X151154910Y-124996441D01*
X151156548Y-124997560D01*
X150669000Y-124997560D01*
X150433683Y-125041838D01*
X150217559Y-125180910D01*
X150072569Y-125393110D01*
X150021560Y-125645000D01*
X150021560Y-127545000D01*
X150065838Y-127780317D01*
X150204910Y-127996441D01*
X150417110Y-128141431D01*
X150669000Y-128192440D01*
X150949006Y-128192440D01*
X151430127Y-128673560D01*
X150807000Y-128673560D01*
X150571683Y-128717838D01*
X150355559Y-128856910D01*
X150210569Y-129069110D01*
X150159560Y-129321000D01*
X150159560Y-130090809D01*
X149067185Y-131183185D01*
X148902004Y-131430395D01*
X148844000Y-131722000D01*
X148844000Y-133985000D01*
X148902004Y-134276605D01*
X149067185Y-134523815D01*
X153533369Y-138990000D01*
X140410000Y-138990000D01*
X140410000Y-136312815D01*
X141374630Y-136312815D01*
X141698980Y-137097800D01*
X142299041Y-137698909D01*
X143083459Y-138024628D01*
X143932815Y-138025370D01*
X144717800Y-137701020D01*
X145318909Y-137100959D01*
X145644628Y-136316541D01*
X145645370Y-135467185D01*
X145321020Y-134682200D01*
X144720959Y-134081091D01*
X143936541Y-133755372D01*
X143087185Y-133754630D01*
X142302200Y-134078980D01*
X141701091Y-134679041D01*
X141375372Y-135463459D01*
X141374630Y-136312815D01*
X140410000Y-136312815D01*
X140410000Y-112182815D01*
X141374630Y-112182815D01*
X141698980Y-112967800D01*
X142299041Y-113568909D01*
X143083459Y-113894628D01*
X143932815Y-113895370D01*
X144717800Y-113571020D01*
X145318909Y-112970959D01*
X145644628Y-112186541D01*
X145645370Y-111337185D01*
X145321020Y-110552200D01*
X144720959Y-109951091D01*
X143936541Y-109625372D01*
X143087185Y-109624630D01*
X142302200Y-109948980D01*
X141701091Y-110549041D01*
X141375372Y-111333459D01*
X141374630Y-112182815D01*
X140410000Y-112182815D01*
X140410000Y-108660000D01*
X178990000Y-108660000D01*
X178990000Y-138990000D01*
X178990000Y-138990000D01*
G37*
X178990000Y-138990000D02*
X167864630Y-138990000D01*
X168432815Y-138421815D01*
X168529952Y-138276440D01*
X168744000Y-138276440D01*
X168979317Y-138232162D01*
X169195441Y-138093090D01*
X169340431Y-137880890D01*
X169391440Y-137629000D01*
X169391440Y-136312815D01*
X173785030Y-136312815D01*
X174109380Y-137097800D01*
X174709441Y-137698909D01*
X175493859Y-138024628D01*
X176343215Y-138025370D01*
X177128200Y-137701020D01*
X177729309Y-137100959D01*
X178055028Y-136316541D01*
X178055770Y-135467185D01*
X177731420Y-134682200D01*
X177131359Y-134081091D01*
X176346941Y-133755372D01*
X175497585Y-133754630D01*
X174712600Y-134078980D01*
X174111491Y-134679041D01*
X173785772Y-135463459D01*
X173785030Y-136312815D01*
X169391440Y-136312815D01*
X169391440Y-135929000D01*
X169347162Y-135693683D01*
X169208090Y-135477559D01*
X168995890Y-135332569D01*
X168744000Y-135281560D01*
X167044000Y-135281560D01*
X166808683Y-135325838D01*
X166592559Y-135464910D01*
X166447569Y-135677110D01*
X166433914Y-135744541D01*
X166404054Y-135699853D01*
X165922285Y-135377946D01*
X165354000Y-135264907D01*
X164785715Y-135377946D01*
X164303946Y-135699853D01*
X164084000Y-136029026D01*
X163864054Y-135699853D01*
X163382285Y-135377946D01*
X162814000Y-135264907D01*
X162245715Y-135377946D01*
X161763946Y-135699853D01*
X161442039Y-136181622D01*
X161329000Y-136749907D01*
X161329000Y-136808093D01*
X161442039Y-137376378D01*
X161763946Y-137858147D01*
X162049578Y-138049000D01*
X154747631Y-138049000D01*
X150368000Y-133669370D01*
X150368000Y-133189584D01*
X150555110Y-133317431D01*
X150807000Y-133368440D01*
X151707000Y-133368440D01*
X151942317Y-133324162D01*
X152158441Y-133185090D01*
X152303431Y-132972890D01*
X152346020Y-132762578D01*
X152499815Y-132659815D01*
X153333631Y-131826000D01*
X154338370Y-131826000D01*
X155083185Y-132570815D01*
X155228560Y-132667952D01*
X155228560Y-132982000D01*
X155272838Y-133217317D01*
X155411910Y-133433441D01*
X155624110Y-133578431D01*
X155876000Y-133629440D01*
X156676000Y-133629440D01*
X156911317Y-133585162D01*
X157127441Y-133446090D01*
X157272431Y-133233890D01*
X157323440Y-132982000D01*
X157323440Y-131082000D01*
X157279162Y-130846683D01*
X157140090Y-130630559D01*
X157138452Y-130629440D01*
X157626000Y-130629440D01*
X157861317Y-130585162D01*
X158077441Y-130446090D01*
X158182855Y-130291812D01*
X158199095Y-130302663D01*
X158515000Y-130365500D01*
X162152066Y-130365500D01*
X162412560Y-130625994D01*
X162412560Y-131006000D01*
X162456838Y-131241317D01*
X162595910Y-131457441D01*
X162808110Y-131602431D01*
X163060000Y-131653440D01*
X164260000Y-131653440D01*
X164495317Y-131609162D01*
X164711441Y-131470090D01*
X164815360Y-131318000D01*
X165184133Y-131318000D01*
X165189838Y-131348317D01*
X165328910Y-131564441D01*
X165541110Y-131709431D01*
X165793000Y-131760440D01*
X166693000Y-131760440D01*
X166928317Y-131716162D01*
X167144441Y-131577090D01*
X167289431Y-131364890D01*
X167340440Y-131113000D01*
X167340440Y-130821070D01*
X167928560Y-131409191D01*
X167928560Y-132879000D01*
X167972838Y-133114317D01*
X168111910Y-133330441D01*
X168324110Y-133475431D01*
X168576000Y-133526440D01*
X169376000Y-133526440D01*
X169611317Y-133482162D01*
X169827441Y-133343090D01*
X169972431Y-133130890D01*
X170023440Y-132879000D01*
X170023440Y-130979000D01*
X169979162Y-130743683D01*
X169840090Y-130527559D01*
X169838452Y-130526440D01*
X170326000Y-130526440D01*
X170561317Y-130482162D01*
X170777441Y-130343090D01*
X170922431Y-130130890D01*
X170973440Y-129879000D01*
X170973440Y-127979000D01*
X170929162Y-127743683D01*
X170790090Y-127527559D01*
X170751500Y-127501192D01*
X170751500Y-123658934D01*
X171664933Y-122745500D01*
X172465995Y-122745500D01*
X172466000Y-122745501D01*
X172466005Y-122745500D01*
X173342560Y-122745500D01*
X173342560Y-122809000D01*
X173386838Y-123044317D01*
X173525910Y-123260441D01*
X173738110Y-123405431D01*
X173990000Y-123456440D01*
X176276000Y-123456440D01*
X176511317Y-123412162D01*
X176727441Y-123273090D01*
X176872431Y-123060890D01*
X176923440Y-122809000D01*
X176923440Y-121031000D01*
X176879162Y-120795683D01*
X176740090Y-120579559D01*
X176527890Y-120434569D01*
X176276000Y-120383560D01*
X173990000Y-120383560D01*
X173754683Y-120427838D01*
X173538559Y-120566910D01*
X173393569Y-120779110D01*
X173342560Y-121031000D01*
X173342560Y-121094500D01*
X172807934Y-121094500D01*
X172613500Y-120900066D01*
X172613500Y-118657009D01*
X172623317Y-118655162D01*
X172839441Y-118516090D01*
X172984431Y-118303890D01*
X173035440Y-118052000D01*
X173035440Y-117152000D01*
X172991162Y-116916683D01*
X172852090Y-116700559D01*
X172840457Y-116692610D01*
X172889441Y-116661090D01*
X173034431Y-116448890D01*
X173085440Y-116197000D01*
X173085440Y-115197000D01*
X173041162Y-114961683D01*
X172902090Y-114745559D01*
X172689890Y-114600569D01*
X172438000Y-114549560D01*
X171438000Y-114549560D01*
X171202683Y-114593838D01*
X170986559Y-114732910D01*
X170841569Y-114945110D01*
X170790560Y-115197000D01*
X170790560Y-115204530D01*
X170744215Y-115158185D01*
X170688000Y-115120623D01*
X170688000Y-114327470D01*
X170727441Y-114302090D01*
X170872431Y-114089890D01*
X170923440Y-113838000D01*
X170923440Y-113238000D01*
X170879162Y-113002683D01*
X170740090Y-112786559D01*
X170527890Y-112641569D01*
X170276000Y-112590560D01*
X169576000Y-112590560D01*
X169340683Y-112634838D01*
X169124559Y-112773910D01*
X168979569Y-112986110D01*
X168928560Y-113238000D01*
X168928560Y-113838000D01*
X168972838Y-114073317D01*
X169111910Y-114289441D01*
X169164000Y-114325033D01*
X169164000Y-114549560D01*
X168938000Y-114549560D01*
X168702683Y-114593838D01*
X168620138Y-114646954D01*
X168630431Y-114631890D01*
X168681440Y-114380000D01*
X168681440Y-113580000D01*
X168637162Y-113344683D01*
X168498090Y-113128559D01*
X168285890Y-112983569D01*
X168034000Y-112932560D01*
X166134000Y-112932560D01*
X165898683Y-112976838D01*
X165682559Y-113115910D01*
X165681440Y-113117548D01*
X165681440Y-112630000D01*
X165637162Y-112394683D01*
X165500829Y-112182815D01*
X173759630Y-112182815D01*
X174083980Y-112967800D01*
X174684041Y-113568909D01*
X175468459Y-113894628D01*
X176317815Y-113895370D01*
X177102800Y-113571020D01*
X177703909Y-112970959D01*
X178029628Y-112186541D01*
X178030370Y-111337185D01*
X177706020Y-110552200D01*
X177105959Y-109951091D01*
X176321541Y-109625372D01*
X175472185Y-109624630D01*
X174687200Y-109948980D01*
X174086091Y-110549041D01*
X173760372Y-111333459D01*
X173759630Y-112182815D01*
X165500829Y-112182815D01*
X165498090Y-112178559D01*
X165285890Y-112033569D01*
X165034000Y-111982560D01*
X163134000Y-111982560D01*
X162898683Y-112026838D01*
X162682559Y-112165910D01*
X162537569Y-112378110D01*
X162486560Y-112630000D01*
X162486560Y-113430000D01*
X162530838Y-113665317D01*
X162669910Y-113881441D01*
X162882110Y-114026431D01*
X163134000Y-114077440D01*
X163290015Y-114077440D01*
X163321337Y-114234906D01*
X163500283Y-114502717D01*
X163906223Y-114908657D01*
X163905993Y-115171420D01*
X164037032Y-115488560D01*
X163400000Y-115488560D01*
X163164683Y-115532838D01*
X163028517Y-115620459D01*
X162729116Y-115320536D01*
X162290503Y-115138408D01*
X161815580Y-115137993D01*
X161376650Y-115319355D01*
X161290032Y-115405822D01*
X161078116Y-115193536D01*
X160639503Y-115011408D01*
X160164580Y-115010993D01*
X159725650Y-115192355D01*
X159538179Y-115379500D01*
X157330005Y-115379500D01*
X157330000Y-115379499D01*
X157014095Y-115442337D01*
X156746283Y-115621283D01*
X155505006Y-116862560D01*
X155125000Y-116862560D01*
X154889683Y-116906838D01*
X154673559Y-117045910D01*
X154528569Y-117258110D01*
X154477560Y-117510000D01*
X154477560Y-118710000D01*
X154521838Y-118945317D01*
X154660910Y-119161441D01*
X154730711Y-119209134D01*
X154673559Y-119245910D01*
X154553925Y-119421000D01*
X152783618Y-119421000D01*
X152679090Y-119258559D01*
X152609289Y-119210866D01*
X152666441Y-119174090D01*
X152811431Y-118961890D01*
X152862440Y-118710000D01*
X152862440Y-117510000D01*
X152818162Y-117274683D01*
X152747562Y-117164968D01*
X152776464Y-117136116D01*
X152958592Y-116697503D01*
X152959007Y-116222580D01*
X152777645Y-115783650D01*
X152442116Y-115447536D01*
X152003503Y-115265408D01*
X151528580Y-115264993D01*
X151089650Y-115446355D01*
X150753536Y-115781884D01*
X150571408Y-116220497D01*
X150570993Y-116695420D01*
X150752355Y-117134350D01*
X150782498Y-117164546D01*
X150718569Y-117258110D01*
X150667560Y-117510000D01*
X150667560Y-118710000D01*
X150711838Y-118945317D01*
X150850910Y-119161441D01*
X150920711Y-119209134D01*
X150863559Y-119245910D01*
X150718569Y-119458110D01*
X150667560Y-119710000D01*
X150667560Y-120300204D01*
X150368564Y-120599200D01*
X147023542Y-120599200D01*
X146826834Y-120123131D01*
X146148639Y-119443751D01*
X145262081Y-119075620D01*
X144302130Y-119074783D01*
X143414931Y-119441366D01*
X142735551Y-120119561D01*
X142367420Y-121006119D01*
X142366583Y-121966070D01*
X142733166Y-122853269D01*
X143411361Y-123532649D01*
X144297919Y-123900780D01*
X145257870Y-123901617D01*
X146145069Y-123535034D01*
X146824449Y-122856839D01*
X147023612Y-122377200D01*
X150736800Y-122377200D01*
X151077006Y-122309529D01*
X151081922Y-122306244D01*
X151022569Y-122393110D01*
X150971560Y-122645000D01*
X150971560Y-124545000D01*
X151015838Y-124780317D01*
X151154910Y-124996441D01*
X151156548Y-124997560D01*
X150669000Y-124997560D01*
X150433683Y-125041838D01*
X150217559Y-125180910D01*
X150072569Y-125393110D01*
X150021560Y-125645000D01*
X150021560Y-127545000D01*
X150065838Y-127780317D01*
X150204910Y-127996441D01*
X150417110Y-128141431D01*
X150669000Y-128192440D01*
X150949006Y-128192440D01*
X151430127Y-128673560D01*
X150807000Y-128673560D01*
X150571683Y-128717838D01*
X150355559Y-128856910D01*
X150210569Y-129069110D01*
X150159560Y-129321000D01*
X150159560Y-130090809D01*
X149067185Y-131183185D01*
X148902004Y-131430395D01*
X148844000Y-131722000D01*
X148844000Y-133985000D01*
X148902004Y-134276605D01*
X149067185Y-134523815D01*
X153533369Y-138990000D01*
X140410000Y-138990000D01*
X140410000Y-136312815D01*
X141374630Y-136312815D01*
X141698980Y-137097800D01*
X142299041Y-137698909D01*
X143083459Y-138024628D01*
X143932815Y-138025370D01*
X144717800Y-137701020D01*
X145318909Y-137100959D01*
X145644628Y-136316541D01*
X145645370Y-135467185D01*
X145321020Y-134682200D01*
X144720959Y-134081091D01*
X143936541Y-133755372D01*
X143087185Y-133754630D01*
X142302200Y-134078980D01*
X141701091Y-134679041D01*
X141375372Y-135463459D01*
X141374630Y-136312815D01*
X140410000Y-136312815D01*
X140410000Y-112182815D01*
X141374630Y-112182815D01*
X141698980Y-112967800D01*
X142299041Y-113568909D01*
X143083459Y-113894628D01*
X143932815Y-113895370D01*
X144717800Y-113571020D01*
X145318909Y-112970959D01*
X145644628Y-112186541D01*
X145645370Y-111337185D01*
X145321020Y-110552200D01*
X144720959Y-109951091D01*
X143936541Y-109625372D01*
X143087185Y-109624630D01*
X142302200Y-109948980D01*
X141701091Y-110549041D01*
X141375372Y-111333459D01*
X141374630Y-112182815D01*
X140410000Y-112182815D01*
X140410000Y-108660000D01*
X178990000Y-108660000D01*
X178990000Y-138990000D01*
G36*
X163270993Y-119489420D02*
X163452355Y-119928350D01*
X163639500Y-120115821D01*
X163639500Y-122848067D01*
X159919344Y-126568223D01*
X159866610Y-126568177D01*
X157047717Y-123749283D01*
X156779906Y-123570337D01*
X156636464Y-123541805D01*
X156628162Y-123497683D01*
X156489090Y-123281559D01*
X156276890Y-123136569D01*
X156025000Y-123085560D01*
X155125000Y-123085560D01*
X154889683Y-123129838D01*
X154673559Y-123268910D01*
X154528569Y-123481110D01*
X154477560Y-123733000D01*
X154477560Y-124933000D01*
X154521838Y-125168317D01*
X154660910Y-125384441D01*
X154730711Y-125432134D01*
X154673559Y-125468910D01*
X154528569Y-125681110D01*
X154477560Y-125933000D01*
X154477560Y-127133000D01*
X154521838Y-127368317D01*
X154531787Y-127383779D01*
X154344066Y-127571500D01*
X152662933Y-127571500D01*
X152116440Y-127025006D01*
X152116440Y-125645000D01*
X152072162Y-125409683D01*
X151933090Y-125193559D01*
X151931452Y-125192440D01*
X152419000Y-125192440D01*
X152654317Y-125148162D01*
X152870441Y-125009090D01*
X153015431Y-124796890D01*
X153066440Y-124545000D01*
X153066440Y-124367502D01*
X153115906Y-124357663D01*
X153383717Y-124178717D01*
X154253717Y-123308717D01*
X154432663Y-123040905D01*
X154495501Y-122725000D01*
X154495500Y-122724995D01*
X154495500Y-122528756D01*
X154681464Y-122343116D01*
X154863592Y-121904503D01*
X154863945Y-121500169D01*
X154873110Y-121506431D01*
X155125000Y-121557440D01*
X156025000Y-121557440D01*
X156260317Y-121513162D01*
X156476441Y-121374090D01*
X156596075Y-121199000D01*
X158366382Y-121199000D01*
X158470910Y-121361441D01*
X158683110Y-121506431D01*
X158935000Y-121557440D01*
X159835000Y-121557440D01*
X160070317Y-121513162D01*
X160286441Y-121374090D01*
X160431431Y-121161890D01*
X160482440Y-120910000D01*
X160482440Y-120428796D01*
X161353380Y-119557856D01*
X161526420Y-119558007D01*
X161965350Y-119376645D01*
X162089211Y-119253000D01*
X163271200Y-119253000D01*
X163270993Y-119489420D01*
X163270993Y-119489420D01*
G37*
X163270993Y-119489420D02*
X163452355Y-119928350D01*
X163639500Y-120115821D01*
X163639500Y-122848067D01*
X159919344Y-126568223D01*
X159866610Y-126568177D01*
X157047717Y-123749283D01*
X156779906Y-123570337D01*
X156636464Y-123541805D01*
X156628162Y-123497683D01*
X156489090Y-123281559D01*
X156276890Y-123136569D01*
X156025000Y-123085560D01*
X155125000Y-123085560D01*
X154889683Y-123129838D01*
X154673559Y-123268910D01*
X154528569Y-123481110D01*
X154477560Y-123733000D01*
X154477560Y-124933000D01*
X154521838Y-125168317D01*
X154660910Y-125384441D01*
X154730711Y-125432134D01*
X154673559Y-125468910D01*
X154528569Y-125681110D01*
X154477560Y-125933000D01*
X154477560Y-127133000D01*
X154521838Y-127368317D01*
X154531787Y-127383779D01*
X154344066Y-127571500D01*
X152662933Y-127571500D01*
X152116440Y-127025006D01*
X152116440Y-125645000D01*
X152072162Y-125409683D01*
X151933090Y-125193559D01*
X151931452Y-125192440D01*
X152419000Y-125192440D01*
X152654317Y-125148162D01*
X152870441Y-125009090D01*
X153015431Y-124796890D01*
X153066440Y-124545000D01*
X153066440Y-124367502D01*
X153115906Y-124357663D01*
X153383717Y-124178717D01*
X154253717Y-123308717D01*
X154432663Y-123040905D01*
X154495501Y-122725000D01*
X154495500Y-122724995D01*
X154495500Y-122528756D01*
X154681464Y-122343116D01*
X154863592Y-121904503D01*
X154863945Y-121500169D01*
X154873110Y-121506431D01*
X155125000Y-121557440D01*
X156025000Y-121557440D01*
X156260317Y-121513162D01*
X156476441Y-121374090D01*
X156596075Y-121199000D01*
X158366382Y-121199000D01*
X158470910Y-121361441D01*
X158683110Y-121506431D01*
X158935000Y-121557440D01*
X159835000Y-121557440D01*
X160070317Y-121513162D01*
X160286441Y-121374090D01*
X160431431Y-121161890D01*
X160482440Y-120910000D01*
X160482440Y-120428796D01*
X161353380Y-119557856D01*
X161526420Y-119558007D01*
X161965350Y-119376645D01*
X162089211Y-119253000D01*
X163271200Y-119253000D01*
X163270993Y-119489420D01*
M02*
