G04 #@! TF.FileFunction,Copper,L1,Top,Signal*
%FSLAX46Y46*%
G04 Gerber Fmt 4.6, Leading zero omitted, Abs format (unit mm)*
G04 Created by KiCad (PCBNEW 4.0.6) date 06/24/17 11:55:09*
%MOMM*%
%LPD*%
G01*
G04 APERTURE LIST*
%ADD10C,0.100000*%
%ADD11C,3.048000*%
%ADD12R,0.800000X0.750000*%
%ADD13R,0.750000X0.800000*%
%ADD14R,0.797560X0.797560*%
%ADD15R,2.000000X1.250000*%
%ADD16R,1.250000X2.000000*%
%ADD17R,1.250000X1.000000*%
%ADD18R,1.000000X1.250000*%
%ADD19R,2.301240X0.500380*%
%ADD20R,2.499360X1.998980*%
%ADD21R,2.286000X1.778000*%
%ADD22R,1.727200X1.727200*%
%ADD23O,1.727200X1.727200*%
%ADD24C,6.604000*%
%ADD25R,0.500000X0.900000*%
%ADD26R,0.900000X0.500000*%
%ADD27R,1.500000X0.600000*%
%ADD28R,1.060000X0.650000*%
%ADD29R,0.508000X1.143000*%
%ADD30R,0.600000X1.500000*%
%ADD31R,1.950000X0.600000*%
%ADD32R,2.199640X2.400300*%
%ADD33R,1.000000X1.600000*%
%ADD34R,1.000000X0.250000*%
%ADD35R,0.250000X1.000000*%
%ADD36R,1.200000X2.200000*%
%ADD37R,3.500000X2.200000*%
%ADD38C,1.219200*%
%ADD39C,0.254000*%
%ADD40C,0.406400*%
%ADD41C,1.270000*%
G04 APERTURE END LIST*
D10*
D11*
X5842000Y-50546000D03*
X50292000Y-22606000D03*
D12*
X16788000Y-23114000D03*
X18288000Y-23114000D03*
D13*
X11176000Y-31508000D03*
X11176000Y-33008000D03*
X27940000Y-32524000D03*
X27940000Y-34024000D03*
D12*
X18300000Y-38354000D03*
X19800000Y-38354000D03*
D13*
X27940000Y-29960000D03*
X27940000Y-28460000D03*
X20066000Y-23102000D03*
X20066000Y-21602000D03*
X12954000Y-31496000D03*
X12954000Y-32996000D03*
X11176000Y-28956000D03*
X11176000Y-27456000D03*
X6604000Y-39358000D03*
X6604000Y-37858000D03*
X13462000Y-20574000D03*
X13462000Y-22074000D03*
D12*
X19038000Y-5842000D03*
X17538000Y-5842000D03*
X25134000Y-7874000D03*
X23634000Y-7874000D03*
D13*
X55880000Y-27698000D03*
X55880000Y-29198000D03*
X54102000Y-29198000D03*
X54102000Y-27698000D03*
D12*
X22364000Y-40132000D03*
X23864000Y-40132000D03*
X22618000Y-50292000D03*
X24118000Y-50292000D03*
X28206000Y-40132000D03*
X29706000Y-40132000D03*
X28460000Y-50292000D03*
X29960000Y-50292000D03*
D13*
X34798000Y-30722000D03*
X34798000Y-29222000D03*
X34798000Y-44438000D03*
X34798000Y-42938000D03*
X49276000Y-26694000D03*
X49276000Y-28194000D03*
X49276000Y-31218000D03*
X49276000Y-29718000D03*
X49276000Y-33806000D03*
X49276000Y-35306000D03*
X49276000Y-38330000D03*
X49276000Y-36830000D03*
X49276000Y-40410000D03*
X49276000Y-41910000D03*
X49276000Y-44934000D03*
X49276000Y-43434000D03*
X49276000Y-47510000D03*
X49276000Y-49010000D03*
X49276000Y-52046000D03*
X49276000Y-50546000D03*
X51054000Y-28194000D03*
X51054000Y-26694000D03*
X51054000Y-41910000D03*
X51054000Y-40410000D03*
D14*
X5829300Y-6096000D03*
X4330700Y-6096000D03*
X2781300Y-7620000D03*
X1282700Y-7620000D03*
X5829300Y-8890000D03*
X4330700Y-8890000D03*
X2781300Y-10160000D03*
X1282700Y-10160000D03*
X5829300Y-11430000D03*
X4330700Y-11430000D03*
X2781300Y-12700000D03*
X1282700Y-12700000D03*
X5829300Y-13970000D03*
X4330700Y-13970000D03*
X2781300Y-15240000D03*
X1282700Y-15240000D03*
D15*
X63246000Y-5745000D03*
X63246000Y-9495000D03*
D16*
X60803000Y-12192000D03*
X57053000Y-12192000D03*
X50957000Y-12192000D03*
X54707000Y-12192000D03*
X45369000Y-8890000D03*
X49119000Y-8890000D03*
X60803000Y-2540000D03*
X57053000Y-2540000D03*
X50957000Y-2540000D03*
X54707000Y-2540000D03*
X45369000Y-5842000D03*
X49119000Y-5842000D03*
D17*
X15748000Y-48752000D03*
X15748000Y-46752000D03*
X18796000Y-48736000D03*
X18796000Y-46736000D03*
D18*
X57388000Y-25654000D03*
X55388000Y-25654000D03*
D19*
X8529320Y-29133800D03*
X8529320Y-29933900D03*
X8529320Y-30734000D03*
X8529320Y-31534100D03*
X8529320Y-32334200D03*
D20*
X8430260Y-26283920D03*
X2931160Y-26283920D03*
X8430260Y-35184080D03*
X2931160Y-35184080D03*
D21*
X55372000Y-21590000D03*
X55372000Y-19050000D03*
X55372000Y-16510000D03*
D22*
X52324000Y-8636000D03*
D23*
X52324000Y-6096000D03*
X54864000Y-8636000D03*
X54864000Y-6096000D03*
X57404000Y-8636000D03*
X57404000Y-6096000D03*
X59944000Y-8636000D03*
X59944000Y-6096000D03*
D24*
X39395400Y-5842000D03*
X32232600Y-5842000D03*
D21*
X55372000Y-38608000D03*
X55372000Y-36068000D03*
X55372000Y-33528000D03*
X55626000Y-49276000D03*
X55626000Y-46736000D03*
X55626000Y-44196000D03*
D25*
X7378000Y-6096000D03*
X8878000Y-6096000D03*
X10172000Y-7620000D03*
X11672000Y-7620000D03*
X7378000Y-8890000D03*
X8878000Y-8890000D03*
X10172000Y-10160000D03*
X11672000Y-10160000D03*
X7378000Y-11430000D03*
X8878000Y-11430000D03*
X10172000Y-12700000D03*
X11672000Y-12700000D03*
X7378000Y-13970000D03*
X8878000Y-13970000D03*
X10172000Y-15240000D03*
X11672000Y-15240000D03*
X17538000Y-4064000D03*
X19038000Y-4064000D03*
D26*
X21082000Y-8878000D03*
X21082000Y-7378000D03*
D25*
X20840000Y-14478000D03*
X22340000Y-14478000D03*
X25134000Y-14478000D03*
X23634000Y-14478000D03*
D26*
X21082000Y-11684000D03*
X21082000Y-10184000D03*
X12954000Y-27698000D03*
X12954000Y-29198000D03*
X12192000Y-36044000D03*
X12192000Y-34544000D03*
X45974000Y-23356000D03*
X45974000Y-21856000D03*
X27686000Y-23344000D03*
X27686000Y-21844000D03*
X30226000Y-23344000D03*
X30226000Y-21844000D03*
X32766000Y-23344000D03*
X32766000Y-21844000D03*
X38354000Y-23356000D03*
X38354000Y-21856000D03*
X40894000Y-23356000D03*
X40894000Y-21856000D03*
X43434000Y-23356000D03*
X43434000Y-21856000D03*
D27*
X13556000Y-7493000D03*
X13556000Y-8763000D03*
X13556000Y-10033000D03*
X13556000Y-11303000D03*
X13556000Y-12573000D03*
X13556000Y-13843000D03*
X13556000Y-15113000D03*
X13556000Y-16383000D03*
X18956000Y-16383000D03*
X18956000Y-15113000D03*
X18956000Y-13843000D03*
X18956000Y-12573000D03*
X18956000Y-11303000D03*
X18956000Y-10033000D03*
X18956000Y-8763000D03*
X18956000Y-7493000D03*
D28*
X59352000Y-27498000D03*
X59352000Y-28448000D03*
X59352000Y-29398000D03*
X61552000Y-29398000D03*
X61552000Y-27498000D03*
X61552000Y-28448000D03*
D29*
X22225000Y-42037000D03*
X23495000Y-42037000D03*
X24765000Y-42037000D03*
X26035000Y-42037000D03*
X26035000Y-48387000D03*
X24765000Y-48387000D03*
X23495000Y-48387000D03*
X22225000Y-48387000D03*
X28067000Y-42037000D03*
X29337000Y-42037000D03*
X30607000Y-42037000D03*
X31877000Y-42037000D03*
X31877000Y-48387000D03*
X30607000Y-48387000D03*
X29337000Y-48387000D03*
X28067000Y-48387000D03*
D30*
X38227000Y-19810000D03*
X39497000Y-19810000D03*
X40767000Y-19810000D03*
X42037000Y-19810000D03*
X43307000Y-19810000D03*
X44577000Y-19810000D03*
X45847000Y-19810000D03*
X47117000Y-19810000D03*
X47117000Y-13210000D03*
X45847000Y-13210000D03*
X44577000Y-13210000D03*
X43307000Y-13210000D03*
X42037000Y-13210000D03*
X40767000Y-13210000D03*
X39497000Y-13210000D03*
X38227000Y-13210000D03*
X27559000Y-19810000D03*
X28829000Y-19810000D03*
X30099000Y-19810000D03*
X31369000Y-19810000D03*
X32639000Y-19810000D03*
X33909000Y-19810000D03*
X35179000Y-19810000D03*
X36449000Y-19810000D03*
X36449000Y-13210000D03*
X35179000Y-13210000D03*
X33909000Y-13210000D03*
X32639000Y-13210000D03*
X31369000Y-13210000D03*
X30099000Y-13210000D03*
X28829000Y-13210000D03*
X27559000Y-13210000D03*
D31*
X37210000Y-26797000D03*
X37210000Y-28067000D03*
X37210000Y-29337000D03*
X37210000Y-30607000D03*
X37210000Y-31877000D03*
X37210000Y-33147000D03*
X37210000Y-34417000D03*
X37210000Y-35687000D03*
X37210000Y-36957000D03*
X37210000Y-38227000D03*
X46610000Y-38227000D03*
X46610000Y-36957000D03*
X46610000Y-35687000D03*
X46610000Y-34417000D03*
X46610000Y-33147000D03*
X46610000Y-31877000D03*
X46610000Y-30607000D03*
X46610000Y-29337000D03*
X46610000Y-28067000D03*
X46610000Y-26797000D03*
X37210000Y-40513000D03*
X37210000Y-41783000D03*
X37210000Y-43053000D03*
X37210000Y-44323000D03*
X37210000Y-45593000D03*
X37210000Y-46863000D03*
X37210000Y-48133000D03*
X37210000Y-49403000D03*
X37210000Y-50673000D03*
X37210000Y-51943000D03*
X46610000Y-51943000D03*
X46610000Y-50673000D03*
X46610000Y-49403000D03*
X46610000Y-48133000D03*
X46610000Y-46863000D03*
X46610000Y-45593000D03*
X46610000Y-44323000D03*
X46610000Y-43053000D03*
X46610000Y-41783000D03*
X46610000Y-40513000D03*
D32*
X10769600Y-20574000D03*
X4470400Y-20574000D03*
D12*
X23610000Y-38354000D03*
X22110000Y-38354000D03*
D33*
X8406000Y-39370000D03*
X11406000Y-39370000D03*
D12*
X23344000Y-23114000D03*
X21844000Y-23114000D03*
D13*
X1778000Y-20586000D03*
X1778000Y-22086000D03*
D34*
X14620000Y-26984000D03*
X14620000Y-27484000D03*
X14620000Y-27984000D03*
X14620000Y-28484000D03*
X14620000Y-28984000D03*
X14620000Y-29484000D03*
X14620000Y-29984000D03*
X14620000Y-30484000D03*
X14620000Y-30984000D03*
X14620000Y-31484000D03*
X14620000Y-31984000D03*
X14620000Y-32484000D03*
X14620000Y-32984000D03*
X14620000Y-33484000D03*
X14620000Y-33984000D03*
X14620000Y-34484000D03*
D35*
X16570000Y-36434000D03*
X17070000Y-36434000D03*
X17570000Y-36434000D03*
X18070000Y-36434000D03*
X18570000Y-36434000D03*
X19070000Y-36434000D03*
X19570000Y-36434000D03*
X20070000Y-36434000D03*
X20570000Y-36434000D03*
X21070000Y-36434000D03*
X21570000Y-36434000D03*
X22070000Y-36434000D03*
X22570000Y-36434000D03*
X23070000Y-36434000D03*
X23570000Y-36434000D03*
X24070000Y-36434000D03*
D34*
X26020000Y-34484000D03*
X26020000Y-33984000D03*
X26020000Y-33484000D03*
X26020000Y-32984000D03*
X26020000Y-32484000D03*
X26020000Y-31984000D03*
X26020000Y-31484000D03*
X26020000Y-30984000D03*
X26020000Y-30484000D03*
X26020000Y-29984000D03*
X26020000Y-29484000D03*
X26020000Y-28984000D03*
X26020000Y-28484000D03*
X26020000Y-27984000D03*
X26020000Y-27484000D03*
X26020000Y-26984000D03*
D35*
X24070000Y-25034000D03*
X23570000Y-25034000D03*
X23070000Y-25034000D03*
X22570000Y-25034000D03*
X22070000Y-25034000D03*
X21570000Y-25034000D03*
X21070000Y-25034000D03*
X20570000Y-25034000D03*
X20070000Y-25034000D03*
X19570000Y-25034000D03*
X19070000Y-25034000D03*
X18570000Y-25034000D03*
X18070000Y-25034000D03*
X17570000Y-25034000D03*
X17070000Y-25034000D03*
X16570000Y-25034000D03*
D28*
X23030000Y-9972000D03*
X23030000Y-10922000D03*
X23030000Y-11872000D03*
X25230000Y-11872000D03*
X25230000Y-9972000D03*
X25230000Y-10922000D03*
D36*
X12968000Y-42366000D03*
X10668000Y-42366000D03*
X8368000Y-42366000D03*
D37*
X10668000Y-48566000D03*
D11*
X3048000Y-2794000D03*
D17*
X15748000Y-43291000D03*
X15748000Y-41291000D03*
X18796000Y-43291000D03*
X18796000Y-41291000D03*
X25146000Y-22820000D03*
X25146000Y-20820000D03*
D38*
X19844875Y-31268218D03*
X24130000Y-32334190D03*
X19812000Y-28194000D03*
X24130000Y-28448000D03*
X29718000Y-38354000D03*
X21082000Y-39624000D03*
X25654000Y-40132000D03*
X25146000Y-25654000D03*
X22860000Y-26670000D03*
X57658000Y-30480000D03*
X57658000Y-28194000D03*
X22606000Y-5842000D03*
X22606000Y-8834198D03*
X28117810Y-44485560D03*
X20320000Y-42418000D03*
X18796000Y-50292000D03*
X17018000Y-38100000D03*
X14986000Y-38100000D03*
X21977021Y-45389810D03*
X23876000Y-15748000D03*
X23368000Y-21844000D03*
X3302000Y-53594000D03*
X5080000Y-42366000D03*
X5074919Y-31031181D03*
X39878000Y-54610000D03*
X28448000Y-53594000D03*
X22352000Y-53594000D03*
X59182000Y-25146000D03*
X51054000Y-38354000D03*
X51054000Y-29464000D03*
X51054000Y-52070000D03*
X51054000Y-43434000D03*
X50546000Y-17018000D03*
X37084000Y-17780000D03*
X29972000Y-17018000D03*
X40894000Y-15494000D03*
X32766000Y-15494000D03*
X27686000Y-15494000D03*
X18509643Y-26804011D03*
X18034000Y-17526000D03*
X16002000Y-21336000D03*
X17018000Y-12700000D03*
X24892000Y-13208000D03*
X19854940Y-26341807D03*
X15748000Y-10922000D03*
X45974000Y-24638000D03*
X19833247Y-33041247D03*
X27794249Y-24536557D03*
X21844000Y-32359587D03*
X30226000Y-24638000D03*
X21844000Y-33782000D03*
X32990452Y-33483549D03*
X32773094Y-35363160D03*
X32766000Y-24638000D03*
X21208543Y-35121300D03*
X38354000Y-24638000D03*
X23557889Y-34672999D03*
X25182897Y-36954832D03*
X40894000Y-24638000D03*
X26416000Y-36245810D03*
X40640000Y-34798000D03*
X25062477Y-45747208D03*
X63246000Y-29718000D03*
X23368000Y-46482000D03*
X63500000Y-27432000D03*
X16374480Y-31049453D03*
X13370584Y-39458395D03*
X18059943Y-30026304D03*
X16540483Y-33401021D03*
X17224097Y-10993391D03*
X16256000Y-4064000D03*
X62484000Y-25908000D03*
X18530297Y-33839509D03*
X17650723Y-35005912D03*
X23622000Y-43434000D03*
X14478000Y-35560000D03*
X26162000Y-43942000D03*
X31667721Y-44559592D03*
X31242000Y-27178000D03*
X30226000Y-33274000D03*
X26769258Y-25522787D03*
X21261358Y-26679246D03*
X31496000Y-25654000D03*
X31496000Y-32004000D03*
X32004000Y-39624000D03*
X34290000Y-39624000D03*
D39*
X24130000Y-27585896D02*
X24130000Y-28448000D01*
X24442291Y-26341197D02*
X24442291Y-27273605D01*
X24206199Y-26105105D02*
X24442291Y-26341197D01*
X24070000Y-25788000D02*
X24206199Y-25924199D01*
X24206199Y-25924199D02*
X24206199Y-26105105D01*
X24442291Y-27273605D02*
X24130000Y-27585896D01*
X24070000Y-25034000D02*
X24070000Y-25788000D01*
X19235276Y-31877817D02*
X19844875Y-31268218D01*
X18651882Y-32461211D02*
X19235276Y-31877817D01*
X15396789Y-32461211D02*
X18651882Y-32461211D01*
X15374000Y-32484000D02*
X15396789Y-32461211D01*
X14620000Y-32484000D02*
X15374000Y-32484000D01*
X17569842Y-27083250D02*
X17569842Y-27255116D01*
X16570000Y-26083408D02*
X17569842Y-27083250D01*
X16570000Y-25034000D02*
X16570000Y-26083408D01*
X17569842Y-27255116D02*
X18508726Y-28194000D01*
X18508726Y-28194000D02*
X18949896Y-28194000D01*
X18949896Y-28194000D02*
X19812000Y-28194000D01*
X25146000Y-22820000D02*
X25146000Y-23320000D01*
X24279810Y-32484000D02*
X24130000Y-32334190D01*
X26020000Y-32484000D02*
X24279810Y-32484000D01*
X26020000Y-32484000D02*
X27900000Y-32484000D01*
X27900000Y-32484000D02*
X27940000Y-32524000D01*
X24070000Y-25034000D02*
X24070000Y-24396000D01*
X24070000Y-24396000D02*
X25146000Y-23320000D01*
X16570000Y-25034000D02*
X16570000Y-23332000D01*
X16570000Y-23332000D02*
X16788000Y-23114000D01*
X14620000Y-32484000D02*
X13866000Y-32484000D01*
X13620201Y-32238201D02*
X11881201Y-32238201D01*
X11176000Y-31533000D02*
X11176000Y-31508000D01*
X13866000Y-32484000D02*
X13620201Y-32238201D01*
X11881201Y-32238201D02*
X11176000Y-31533000D01*
D40*
X23864000Y-40132000D02*
X25654000Y-40132000D01*
D39*
X23070000Y-25034000D02*
X23070000Y-26460000D01*
X23070000Y-26460000D02*
X22860000Y-26670000D01*
D40*
X59352000Y-28448000D02*
X57912000Y-28448000D01*
X57912000Y-28448000D02*
X57658000Y-28194000D01*
D39*
X30330138Y-47244000D02*
X31051500Y-47244000D01*
X31877000Y-48069500D02*
X31877000Y-48387000D01*
X31051500Y-47244000D02*
X31877000Y-48069500D01*
X29972000Y-49651000D02*
X29972000Y-47602138D01*
X29972000Y-47602138D02*
X30330138Y-47244000D01*
X29960000Y-50292000D02*
X29960000Y-49663000D01*
X29960000Y-49663000D02*
X29972000Y-49651000D01*
X27940000Y-34024000D02*
X27400000Y-33484000D01*
X27400000Y-33484000D02*
X26020000Y-33484000D01*
X20570000Y-36434000D02*
X20570000Y-37842000D01*
X8529320Y-32334200D02*
X8529320Y-35085020D01*
X8529320Y-35085020D02*
X8430260Y-35184080D01*
X16764000Y-32004000D02*
X17591443Y-31176557D01*
X17591443Y-31176557D02*
X17591443Y-30979443D01*
X15394000Y-32004000D02*
X16764000Y-32004000D01*
X14620000Y-31984000D02*
X15374000Y-31984000D01*
X18804557Y-30979443D02*
X19304000Y-30480000D01*
X17591443Y-30979443D02*
X18804557Y-30979443D01*
X17314282Y-30702282D02*
X17591443Y-30979443D01*
X14620000Y-28984000D02*
X15699935Y-28984000D01*
X19304000Y-29635866D02*
X17112633Y-27444499D01*
X17112633Y-27444499D02*
X17112633Y-27272633D01*
X17112633Y-27272633D02*
X15748000Y-25908000D01*
X19304000Y-29972000D02*
X19304000Y-29635866D01*
X19304000Y-30480000D02*
X19304000Y-29972000D01*
X17314282Y-30598347D02*
X17314282Y-30702282D01*
X15699935Y-28984000D02*
X17314282Y-30598347D01*
X15374000Y-31984000D02*
X15394000Y-32004000D01*
X14620000Y-31484000D02*
X14620000Y-31984000D01*
X15494000Y-33864000D02*
X15494000Y-33104000D01*
X15494000Y-33104000D02*
X15374000Y-32984000D01*
X15374000Y-32984000D02*
X14620000Y-32984000D01*
X14620000Y-33984000D02*
X15374000Y-33984000D01*
X15374000Y-33984000D02*
X15494000Y-33864000D01*
X14620000Y-32984000D02*
X12966000Y-32984000D01*
X12966000Y-32984000D02*
X12954000Y-32996000D01*
X14538000Y-26984000D02*
X10922000Y-23368000D01*
X23070000Y-26714000D02*
X19812000Y-29972000D01*
X19812000Y-29972000D02*
X19304000Y-29972000D01*
X23070000Y-25034000D02*
X23070000Y-26714000D01*
X14620000Y-26984000D02*
X14538000Y-26984000D01*
X26020000Y-27484000D02*
X24944000Y-27484000D01*
D41*
X8636000Y-35389820D02*
X8430260Y-35184080D01*
D39*
X23514410Y-9036412D02*
X23634000Y-8916822D01*
X23634000Y-8916822D02*
X23634000Y-7874000D01*
X23514410Y-9036412D02*
X22808214Y-9036412D01*
X22808214Y-9036412D02*
X22606000Y-8834198D01*
X23890201Y-9412201D02*
X23514410Y-9036412D01*
X23876000Y-10922000D02*
X23890201Y-10907799D01*
X23890201Y-10907799D02*
X23890201Y-9412201D01*
X23030000Y-10922000D02*
X23876000Y-10922000D01*
X14986000Y-38100000D02*
X13970000Y-37084000D01*
X13970000Y-37084000D02*
X12446000Y-37084000D01*
X12446000Y-37084000D02*
X12192000Y-36830000D01*
X12192000Y-36830000D02*
X12192000Y-36044000D01*
X28067000Y-44434750D02*
X28117810Y-44485560D01*
X28067000Y-42037000D02*
X28067000Y-44434750D01*
X23799802Y-27121785D02*
X23126000Y-27795587D01*
X23570000Y-25034000D02*
X23570000Y-25989092D01*
X23799802Y-26345301D02*
X23799802Y-27121785D01*
X23748988Y-26294487D02*
X23799802Y-26345301D01*
X23748988Y-26168080D02*
X23748988Y-26294487D01*
X23126000Y-27795587D02*
X23126000Y-29984000D01*
X23570000Y-25989092D02*
X23748988Y-26168080D01*
X23570000Y-35737802D02*
X23570000Y-36434000D01*
X23704003Y-35603799D02*
X23570000Y-35737802D01*
X24207109Y-35603799D02*
X23704003Y-35603799D01*
X24561802Y-35249106D02*
X24207109Y-35603799D01*
X24561802Y-34346894D02*
X24561802Y-35249106D01*
X23114000Y-32899092D02*
X24561802Y-34346894D01*
X23114000Y-29972000D02*
X23114000Y-32899092D01*
X20320000Y-42418000D02*
X20320000Y-47337000D01*
X20320000Y-47337000D02*
X18921000Y-48736000D01*
X18921000Y-48736000D02*
X18796000Y-48736000D01*
X17018000Y-38100000D02*
X18046000Y-38100000D01*
X18046000Y-38100000D02*
X18300000Y-38354000D01*
X22225000Y-45141831D02*
X21977021Y-45389810D01*
X22225000Y-42037000D02*
X22225000Y-45141831D01*
X26020000Y-29984000D02*
X23126000Y-29984000D01*
X23126000Y-29984000D02*
X23114000Y-29972000D01*
X20570000Y-24130000D02*
X20570000Y-23606000D01*
X20570000Y-25034000D02*
X20570000Y-24130000D01*
X23570000Y-25034000D02*
X23570000Y-24130000D01*
X23570000Y-24130000D02*
X23570000Y-23340000D01*
X20570000Y-24130000D02*
X23570000Y-24130000D01*
X23344000Y-23114000D02*
X23344000Y-21868000D01*
X23344000Y-21868000D02*
X23368000Y-21844000D01*
X28067000Y-42037000D02*
X28067000Y-40271000D01*
X28067000Y-40271000D02*
X28206000Y-40132000D01*
X22225000Y-42037000D02*
X22225000Y-40271000D01*
X22225000Y-40271000D02*
X22364000Y-40132000D01*
X18070000Y-37338000D02*
X18070000Y-38124000D01*
X18070000Y-36434000D02*
X18070000Y-37338000D01*
X23570000Y-36434000D02*
X23570000Y-37338000D01*
X23570000Y-37338000D02*
X23570000Y-38314000D01*
X23610000Y-38354000D02*
X23610000Y-38886000D01*
X23610000Y-38886000D02*
X22364000Y-40132000D01*
X18070000Y-38124000D02*
X18300000Y-38354000D01*
X23570000Y-38314000D02*
X23610000Y-38354000D01*
X26020000Y-29984000D02*
X27916000Y-29984000D01*
X27916000Y-29984000D02*
X27940000Y-29960000D01*
X23570000Y-23340000D02*
X23344000Y-23114000D01*
X20570000Y-23606000D02*
X20066000Y-23102000D01*
X19038000Y-4064000D02*
X19038000Y-5842000D01*
X23634000Y-14478000D02*
X23634000Y-15182000D01*
X23634000Y-15182000D02*
X23946000Y-15494000D01*
X23946000Y-15494000D02*
X25412362Y-15494000D01*
X25412362Y-15494000D02*
X26670000Y-14236362D01*
X26670000Y-14236362D02*
X26670000Y-10628000D01*
X26670000Y-10628000D02*
X26014000Y-9972000D01*
X26014000Y-9972000D02*
X25230000Y-9972000D01*
X22340000Y-14478000D02*
X23634000Y-14478000D01*
X19787000Y-15494000D02*
X21524000Y-15494000D01*
X21524000Y-15494000D02*
X22340000Y-14678000D01*
X22340000Y-14678000D02*
X22340000Y-14478000D01*
X18956000Y-15113000D02*
X19406000Y-15113000D01*
X19406000Y-15113000D02*
X19787000Y-15494000D01*
X24003362Y-6874000D02*
X25134000Y-8004638D01*
X25134000Y-8004638D02*
X25134000Y-8636000D01*
X21786000Y-6874000D02*
X24003362Y-6874000D01*
X21282000Y-7378000D02*
X21786000Y-6874000D01*
X21082000Y-7378000D02*
X21282000Y-7378000D01*
X25134000Y-8128000D02*
X25134000Y-8890000D01*
X18956000Y-7493000D02*
X20967000Y-7493000D01*
X20967000Y-7493000D02*
X21082000Y-7378000D01*
X19038000Y-5842000D02*
X19038000Y-7411000D01*
X19038000Y-7411000D02*
X18956000Y-7493000D01*
X25134000Y-8890000D02*
X25134000Y-9876000D01*
X25134000Y-9876000D02*
X25230000Y-9972000D01*
X27940000Y-45720000D02*
X28067000Y-45847000D01*
X28067000Y-45847000D02*
X28067000Y-48387000D01*
X26035000Y-42037000D02*
X26543000Y-42037000D01*
X27178000Y-44958000D02*
X27940000Y-45720000D01*
X32766000Y-44958000D02*
X32766000Y-43751500D01*
X32766000Y-43751500D02*
X31877000Y-42862500D01*
X26543000Y-42037000D02*
X27178000Y-42672000D01*
X27178000Y-42672000D02*
X27178000Y-44958000D01*
X32004000Y-45720000D02*
X32766000Y-44958000D01*
X27940000Y-45720000D02*
X32004000Y-45720000D01*
X31877000Y-42862500D02*
X31877000Y-42037000D01*
X26035000Y-42037000D02*
X26035000Y-42354500D01*
D40*
X28460000Y-50292000D02*
X28460000Y-53582000D01*
X28460000Y-53582000D02*
X28448000Y-53594000D01*
X28460000Y-53328000D02*
X28448000Y-53340000D01*
X37885000Y-41783000D02*
X37210000Y-41783000D01*
X39623999Y-40044001D02*
X37885000Y-41783000D01*
X39623999Y-31075999D02*
X39623999Y-40044001D01*
X37885000Y-29337000D02*
X39623999Y-31075999D01*
X37210000Y-29337000D02*
X37885000Y-29337000D01*
X8368000Y-42366000D02*
X5080000Y-42366000D01*
X5080000Y-42366000D02*
X3354000Y-42366000D01*
X39878000Y-44339600D02*
X39878000Y-54610000D01*
X37210000Y-43053000D02*
X38591400Y-43053000D01*
X38591400Y-43053000D02*
X39878000Y-44339600D01*
X37210000Y-29337000D02*
X34913000Y-29337000D01*
X34913000Y-29337000D02*
X34798000Y-29222000D01*
X37210000Y-28067000D02*
X37210000Y-29337000D01*
X37210000Y-43053000D02*
X34913000Y-43053000D01*
X34913000Y-43053000D02*
X34798000Y-42938000D01*
X37210000Y-41783000D02*
X37210000Y-43053000D01*
X22352000Y-53594000D02*
X22618000Y-53328000D01*
X22618000Y-53328000D02*
X22618000Y-50292000D01*
X2794000Y-53086000D02*
X3302000Y-53594000D01*
X2794000Y-42926000D02*
X2794000Y-53086000D01*
X3354000Y-42366000D02*
X2794000Y-42926000D01*
X57388000Y-25654000D02*
X58674000Y-25654000D01*
X58674000Y-25654000D02*
X59182000Y-25146000D01*
X8529320Y-29133800D02*
X6972300Y-29133800D01*
X6972300Y-29133800D02*
X5074919Y-31031181D01*
X8406000Y-39370000D02*
X6616000Y-39370000D01*
X6616000Y-39370000D02*
X6604000Y-39358000D01*
X8368000Y-42366000D02*
X8368000Y-39408000D01*
X8368000Y-39408000D02*
X8406000Y-39370000D01*
X22225000Y-48387000D02*
X22225000Y-49899000D01*
X22225000Y-49899000D02*
X22618000Y-50292000D01*
X28067000Y-48387000D02*
X28067000Y-49899000D01*
X28067000Y-49899000D02*
X28460000Y-50292000D01*
D39*
X15494000Y-26752550D02*
X15494000Y-27364000D01*
X15494000Y-27364000D02*
X15374000Y-27484000D01*
X15374000Y-27484000D02*
X14620000Y-27484000D01*
X10769600Y-20574000D02*
X10769600Y-22028150D01*
X10769600Y-22028150D02*
X15494000Y-26752550D01*
X13462000Y-20574000D02*
X10769600Y-20574000D01*
X6572250Y-24130000D02*
X10680362Y-24130000D01*
X10680362Y-24130000D02*
X13734201Y-27183839D01*
X13734201Y-27183839D02*
X13734201Y-27852201D01*
X13734201Y-27852201D02*
X13866000Y-27984000D01*
X13866000Y-27984000D02*
X14620000Y-27984000D01*
X4470400Y-20574000D02*
X4470400Y-22028150D01*
X4470400Y-22028150D02*
X6572250Y-24130000D01*
X1778000Y-20586000D02*
X4458400Y-20586000D01*
X4458400Y-20586000D02*
X4470400Y-20574000D01*
D40*
X57912000Y-20040600D02*
X57912000Y-23005000D01*
X57912000Y-23005000D02*
X55388000Y-25529000D01*
X55388000Y-25529000D02*
X55388000Y-25654000D01*
X55372000Y-19050000D02*
X56921400Y-19050000D01*
X56921400Y-19050000D02*
X57912000Y-20040600D01*
X55880000Y-27698000D02*
X55880000Y-27673000D01*
X55880000Y-27673000D02*
X56786400Y-26766600D01*
X56786400Y-26766600D02*
X58415600Y-26766600D01*
X58415600Y-26766600D02*
X59147000Y-27498000D01*
X59147000Y-27498000D02*
X59352000Y-27498000D01*
X55388000Y-25654000D02*
X55388000Y-27206000D01*
X55388000Y-27206000D02*
X55880000Y-27698000D01*
D39*
X56407799Y-28467799D02*
X57338000Y-29398000D01*
X57338000Y-29398000D02*
X59352000Y-29398000D01*
X54102000Y-27698000D02*
X54102000Y-27723000D01*
X54102000Y-27723000D02*
X54846799Y-28467799D01*
X54846799Y-28467799D02*
X56407799Y-28467799D01*
D40*
X60452000Y-20040600D02*
X60452000Y-29234400D01*
X60452000Y-29234400D02*
X60288400Y-29398000D01*
X60288400Y-29398000D02*
X59352000Y-29398000D01*
X55372000Y-16510000D02*
X56921400Y-16510000D01*
X56921400Y-16510000D02*
X60452000Y-20040600D01*
X49276000Y-26694000D02*
X51054000Y-26694000D01*
X46610000Y-26797000D02*
X49173000Y-26797000D01*
X49173000Y-26797000D02*
X49276000Y-26694000D01*
X46610000Y-28067000D02*
X49149000Y-28067000D01*
X49149000Y-28067000D02*
X49276000Y-28194000D01*
X48372400Y-30988000D02*
X48372400Y-31095800D01*
X48372400Y-31095800D02*
X48494600Y-31218000D01*
X48494600Y-31218000D02*
X49276000Y-31218000D01*
X46610000Y-30607000D02*
X47991400Y-30607000D01*
X47991400Y-30607000D02*
X48372400Y-30988000D01*
X48372400Y-29718000D02*
X49276000Y-29718000D01*
X46610000Y-29337000D02*
X47991400Y-29337000D01*
X47991400Y-29337000D02*
X48372400Y-29718000D01*
X48514000Y-33894400D02*
X49187600Y-33894400D01*
X49187600Y-33894400D02*
X49276000Y-33806000D01*
X46610000Y-34417000D02*
X47991400Y-34417000D01*
X47991400Y-34417000D02*
X48514000Y-33894400D01*
X48372400Y-35306000D02*
X49276000Y-35306000D01*
X46610000Y-35687000D02*
X47991400Y-35687000D01*
X47991400Y-35687000D02*
X48372400Y-35306000D01*
X51054000Y-28194000D02*
X51054000Y-29464000D01*
X46610000Y-36957000D02*
X49149000Y-36957000D01*
X49149000Y-36957000D02*
X49276000Y-36830000D01*
X49276000Y-40410000D02*
X51054000Y-40410000D01*
X46610000Y-40513000D02*
X49173000Y-40513000D01*
X49173000Y-40513000D02*
X49276000Y-40410000D01*
X46610000Y-41783000D02*
X49149000Y-41783000D01*
X49149000Y-41783000D02*
X49276000Y-41910000D01*
X47371000Y-44323000D02*
X47982000Y-44934000D01*
X47982000Y-44934000D02*
X49276000Y-44934000D01*
X46610000Y-44323000D02*
X47371000Y-44323000D01*
X46610000Y-43053000D02*
X48895000Y-43053000D01*
X48895000Y-43053000D02*
X49276000Y-43434000D01*
X48514000Y-47610400D02*
X49175600Y-47610400D01*
X49175600Y-47610400D02*
X49276000Y-47510000D01*
X46610000Y-48133000D02*
X47991400Y-48133000D01*
X47991400Y-48133000D02*
X48514000Y-47610400D01*
X46610000Y-49403000D02*
X47991400Y-49403000D01*
X47991400Y-49403000D02*
X48384400Y-49010000D01*
X48384400Y-49010000D02*
X49276000Y-49010000D01*
X51054000Y-41910000D02*
X51054000Y-43434000D01*
X46610000Y-50673000D02*
X49149000Y-50673000D01*
X49149000Y-50673000D02*
X49276000Y-50546000D01*
D39*
X5829300Y-6096000D02*
X7378000Y-6096000D01*
X2781300Y-7620000D02*
X3434080Y-7620000D01*
X3434080Y-7620000D02*
X10172000Y-7620000D01*
X5829300Y-8890000D02*
X7378000Y-8890000D01*
X2781300Y-10160000D02*
X3434080Y-10160000D01*
X3434080Y-10160000D02*
X10172000Y-10160000D01*
X5829300Y-11430000D02*
X7378000Y-11430000D01*
X2781300Y-12700000D02*
X10172000Y-12700000D01*
X5829300Y-13970000D02*
X7378000Y-13970000D01*
X2781300Y-15240000D02*
X10172000Y-15240000D01*
D40*
X44450000Y-15494000D02*
X45974000Y-17018000D01*
X45974000Y-17018000D02*
X50546000Y-17018000D01*
X44434600Y-15494000D02*
X44450000Y-15494000D01*
X43307000Y-13210000D02*
X43307000Y-14366400D01*
X43307000Y-14366400D02*
X44434600Y-15494000D01*
X59944000Y-8636000D02*
X62387000Y-8636000D01*
X62387000Y-8636000D02*
X63246000Y-9495000D01*
X37084000Y-17780000D02*
X38227000Y-16637000D01*
X38227000Y-16637000D02*
X38227000Y-15671777D01*
X38227000Y-15671777D02*
X38227000Y-13210000D01*
X57404000Y-8636000D02*
X57404000Y-11841000D01*
X57404000Y-11841000D02*
X57053000Y-12192000D01*
X29972000Y-15240000D02*
X29972000Y-17018000D01*
X29972000Y-15240000D02*
X29972000Y-13337000D01*
X54864000Y-8636000D02*
X54864000Y-12035000D01*
X54864000Y-12035000D02*
X54707000Y-12192000D01*
X29972000Y-13337000D02*
X30099000Y-13210000D01*
X46212600Y-14732000D02*
X47376522Y-14732000D01*
X47376522Y-14732000D02*
X49119000Y-12989522D01*
X49119000Y-12989522D02*
X49119000Y-10296400D01*
X49119000Y-10296400D02*
X49119000Y-8890000D01*
X45847000Y-13210000D02*
X45847000Y-14366400D01*
X45847000Y-14366400D02*
X46212600Y-14732000D01*
X52324000Y-8636000D02*
X49373000Y-8636000D01*
X49373000Y-8636000D02*
X49119000Y-8890000D01*
X40894000Y-15494000D02*
X40894000Y-13337000D01*
X40894000Y-13337000D02*
X40767000Y-13210000D01*
X57404000Y-6096000D02*
X57404000Y-2891000D01*
X57404000Y-2891000D02*
X57053000Y-2540000D01*
X32766000Y-15494000D02*
X32766000Y-13337000D01*
X32766000Y-13337000D02*
X32639000Y-13210000D01*
X32512000Y-13337000D02*
X32639000Y-13210000D01*
X54864000Y-6096000D02*
X54864000Y-2697000D01*
X54864000Y-2697000D02*
X54707000Y-2540000D01*
X27686000Y-15494000D02*
X27686000Y-13337000D01*
X27686000Y-13337000D02*
X27559000Y-13210000D01*
X52324000Y-6096000D02*
X49373000Y-6096000D01*
X49373000Y-6096000D02*
X49119000Y-5842000D01*
D39*
X8529320Y-29933900D02*
X9933940Y-29933900D01*
X9933940Y-29933900D02*
X9984040Y-29984000D01*
X9984040Y-29984000D02*
X13866000Y-29984000D01*
X13866000Y-29984000D02*
X14620000Y-29984000D01*
X8529320Y-30734000D02*
X9933940Y-30734000D01*
X9933940Y-30734000D02*
X10183940Y-30484000D01*
X10183940Y-30484000D02*
X14620000Y-30484000D01*
X57150000Y-32512000D02*
X57150000Y-37084000D01*
X57150000Y-37084000D02*
X55626000Y-38608000D01*
X55626000Y-38608000D02*
X55372000Y-38608000D01*
X56642000Y-32004000D02*
X57150000Y-32512000D01*
X47966000Y-32004000D02*
X56642000Y-32004000D01*
X46610000Y-31877000D02*
X47839000Y-31877000D01*
X47839000Y-31877000D02*
X47966000Y-32004000D01*
X48220000Y-32766000D02*
X51816000Y-32766000D01*
X51816000Y-32766000D02*
X55118000Y-36068000D01*
X55118000Y-36068000D02*
X55372000Y-36068000D01*
X46610000Y-33147000D02*
X47839000Y-33147000D01*
X47839000Y-33147000D02*
X48220000Y-32766000D01*
X57404000Y-45974000D02*
X57404000Y-47752000D01*
X57404000Y-47752000D02*
X55880000Y-49276000D01*
X55880000Y-49276000D02*
X55626000Y-49276000D01*
X56946799Y-45516799D02*
X57404000Y-45974000D01*
X46610000Y-45593000D02*
X47839000Y-45593000D01*
X47839000Y-45593000D02*
X47910201Y-45664201D01*
X54218839Y-45516799D02*
X56946799Y-45516799D01*
X47910201Y-45664201D02*
X54071437Y-45664201D01*
X54071437Y-45664201D02*
X54218839Y-45516799D01*
X46610000Y-46863000D02*
X47839000Y-46863000D01*
X47839000Y-46863000D02*
X47966000Y-46736000D01*
X47966000Y-46736000D02*
X54229000Y-46736000D01*
X54229000Y-46736000D02*
X55626000Y-46736000D01*
X15240000Y-7874000D02*
X16129000Y-8763000D01*
X16129000Y-8763000D02*
X18956000Y-8763000D01*
X15240000Y-7532638D02*
X15240000Y-7874000D01*
X8878000Y-6096000D02*
X13803362Y-6096000D01*
X13803362Y-6096000D02*
X15240000Y-7532638D01*
X11672000Y-7620000D02*
X13429000Y-7620000D01*
X13429000Y-7620000D02*
X13556000Y-7493000D01*
X8878000Y-8890000D02*
X13429000Y-8890000D01*
X13429000Y-8890000D02*
X13556000Y-8763000D01*
X11672000Y-10160000D02*
X13429000Y-10160000D01*
X13429000Y-10160000D02*
X13556000Y-10033000D01*
X8878000Y-11430000D02*
X13429000Y-11430000D01*
X13429000Y-11430000D02*
X13556000Y-11303000D01*
X11672000Y-12700000D02*
X13429000Y-12700000D01*
X13429000Y-12700000D02*
X13556000Y-12573000D01*
X8878000Y-13970000D02*
X13429000Y-13970000D01*
X13429000Y-13970000D02*
X13556000Y-13843000D01*
X11672000Y-15240000D02*
X13429000Y-15240000D01*
X13429000Y-15240000D02*
X13556000Y-15113000D01*
X21082000Y-10184000D02*
X21082000Y-8878000D01*
X21312000Y-10184000D02*
X21524000Y-9972000D01*
X21524000Y-9972000D02*
X23030000Y-9972000D01*
X21082000Y-10184000D02*
X21312000Y-10184000D01*
X20882000Y-8878000D02*
X21082000Y-8878000D01*
X17570000Y-25034000D02*
X17570000Y-26014140D01*
X17570000Y-26014140D02*
X18359871Y-26804011D01*
X18359871Y-26804011D02*
X18509643Y-26804011D01*
X17526000Y-17018000D02*
X18034000Y-17526000D01*
X17526000Y-14478000D02*
X17526000Y-17018000D01*
X18161000Y-13843000D02*
X17526000Y-14478000D01*
X18956000Y-13843000D02*
X18161000Y-13843000D01*
X20840000Y-13704000D02*
X20840000Y-13970000D01*
X20840000Y-13970000D02*
X20840000Y-14478000D01*
X20713000Y-13843000D02*
X20840000Y-13970000D01*
X18956000Y-13843000D02*
X20713000Y-13843000D01*
X25230000Y-11872000D02*
X24446000Y-11872000D01*
X24446000Y-11872000D02*
X23790799Y-12527201D01*
X23790799Y-12527201D02*
X22016799Y-12527201D01*
X22016799Y-12527201D02*
X20840000Y-13704000D01*
X17518201Y-22598201D02*
X16865599Y-21945599D01*
X16865599Y-21945599D02*
X16611599Y-21945599D01*
X16611599Y-21945599D02*
X16002000Y-21336000D01*
X17518201Y-23831799D02*
X17518201Y-22598201D01*
X17070000Y-24280000D02*
X17518201Y-23831799D01*
X17070000Y-25034000D02*
X17070000Y-24280000D01*
X26162000Y-12954000D02*
X26162000Y-11430000D01*
X25908000Y-13208000D02*
X26162000Y-12954000D01*
X24892000Y-13208000D02*
X25908000Y-13208000D01*
X17018000Y-12700000D02*
X18829000Y-12700000D01*
X18829000Y-12700000D02*
X18956000Y-12573000D01*
X25134000Y-14478000D02*
X25134000Y-13450000D01*
X25134000Y-13450000D02*
X24892000Y-13208000D01*
X26162000Y-11430000D02*
X25654000Y-10922000D01*
X25654000Y-10922000D02*
X25230000Y-10922000D01*
X19377334Y-25864201D02*
X19854940Y-26341807D01*
X18146201Y-25864201D02*
X19377334Y-25864201D01*
X18070000Y-25034000D02*
X18070000Y-25788000D01*
X18070000Y-25788000D02*
X18146201Y-25864201D01*
X16002000Y-10668000D02*
X15748000Y-10922000D01*
X16764000Y-9906000D02*
X16002000Y-10668000D01*
X17825000Y-9906000D02*
X16764000Y-9906000D01*
X18956000Y-10033000D02*
X17952000Y-10033000D01*
X17952000Y-10033000D02*
X17825000Y-9906000D01*
X18956000Y-10033000D02*
X19406000Y-10033000D01*
X19406000Y-10033000D02*
X21057000Y-11684000D01*
X21057000Y-11684000D02*
X21082000Y-11684000D01*
X21844000Y-11684000D02*
X22032000Y-11872000D01*
X22032000Y-11872000D02*
X23030000Y-11872000D01*
X21082000Y-11684000D02*
X21844000Y-11684000D01*
X14620000Y-29484000D02*
X13240000Y-29484000D01*
X13240000Y-29484000D02*
X12954000Y-29198000D01*
X14620000Y-33484000D02*
X13835362Y-33484000D01*
X13279362Y-34040000D02*
X12896000Y-34040000D01*
X13835362Y-33484000D02*
X13279362Y-34040000D01*
X12896000Y-34040000D02*
X12392000Y-34544000D01*
X12392000Y-34544000D02*
X12192000Y-34544000D01*
X45974000Y-24638000D02*
X45974000Y-23356000D01*
X18570000Y-36434000D02*
X18570000Y-35274860D01*
X19354319Y-34291430D02*
X19833247Y-33812502D01*
X18570000Y-35274860D02*
X19354319Y-34490541D01*
X19354319Y-34490541D02*
X19354319Y-34291430D01*
X19833247Y-33812502D02*
X19833247Y-33041247D01*
D40*
X45847000Y-19810000D02*
X45847000Y-21729000D01*
X45847000Y-21729000D02*
X45974000Y-21856000D01*
D39*
X27686000Y-24428308D02*
X27794249Y-24536557D01*
X27686000Y-23344000D02*
X27686000Y-24428308D01*
X19811530Y-34480812D02*
X21234401Y-33057941D01*
X21234401Y-33057941D02*
X21234401Y-32969186D01*
X19070000Y-35421453D02*
X19811530Y-34679923D01*
X19811530Y-34679923D02*
X19811530Y-34480812D01*
X19070000Y-36434000D02*
X19070000Y-35421453D01*
X21234401Y-32969186D02*
X21844000Y-32359587D01*
D40*
X27559000Y-19810000D02*
X27559000Y-21717000D01*
X27559000Y-21717000D02*
X27686000Y-21844000D01*
D39*
X30226000Y-24638000D02*
X30226000Y-23344000D01*
X19570000Y-36434000D02*
X19570000Y-35568045D01*
X20268741Y-34869304D02*
X20268741Y-34670194D01*
X19570000Y-35568045D02*
X20268741Y-34869304D01*
X21156935Y-33782000D02*
X21844000Y-33782000D01*
X20268741Y-34670194D02*
X21156935Y-33782000D01*
D40*
X30099000Y-19810000D02*
X30099000Y-21717000D01*
X30099000Y-21717000D02*
X30226000Y-21844000D01*
D39*
X32990452Y-33483549D02*
X32990452Y-35145802D01*
X32990452Y-35145802D02*
X32773094Y-35363160D01*
X32766000Y-24638000D02*
X32766000Y-23344000D01*
X20070000Y-35809728D02*
X20758428Y-35121300D01*
X20758428Y-35121300D02*
X21208543Y-35121300D01*
X20070000Y-36434000D02*
X20070000Y-35809728D01*
D40*
X32639000Y-19810000D02*
X32639000Y-21717000D01*
X32639000Y-21717000D02*
X32766000Y-21844000D01*
D39*
X38354000Y-24638000D02*
X38354000Y-23356000D01*
X23070000Y-35160888D02*
X23557889Y-34672999D01*
X23070000Y-36434000D02*
X23070000Y-35160888D01*
D40*
X38227000Y-19810000D02*
X38227000Y-21729000D01*
X38227000Y-21729000D02*
X38354000Y-21856000D01*
D39*
X24662065Y-36434000D02*
X25182897Y-36954832D01*
X24070000Y-36434000D02*
X24662065Y-36434000D01*
X40894000Y-24638000D02*
X40894000Y-23356000D01*
D40*
X40767000Y-19810000D02*
X40767000Y-21729000D01*
X40767000Y-21729000D02*
X40894000Y-21856000D01*
D39*
X26020000Y-34484000D02*
X26020000Y-35849810D01*
X26020000Y-35849810D02*
X26416000Y-36245810D01*
X41249599Y-26822401D02*
X43434000Y-24638000D01*
X43434000Y-24638000D02*
X43434000Y-23356000D01*
X40640000Y-34798000D02*
X41249599Y-34188401D01*
X41249599Y-34188401D02*
X41249599Y-26822401D01*
D40*
X43307000Y-19810000D02*
X43307000Y-21729000D01*
X43307000Y-21729000D02*
X43434000Y-21856000D01*
D39*
X24765000Y-46044685D02*
X25062477Y-45747208D01*
X24765000Y-48387000D02*
X24765000Y-46044685D01*
X61552000Y-29398000D02*
X62926000Y-29398000D01*
X62926000Y-29398000D02*
X63246000Y-29718000D01*
X23368000Y-46482000D02*
X23368000Y-48260000D01*
X23368000Y-48260000D02*
X23495000Y-48387000D01*
X61552000Y-27498000D02*
X63434000Y-27498000D01*
X63434000Y-27498000D02*
X63500000Y-27432000D01*
X33274000Y-38354000D02*
X34671000Y-36957000D01*
X34671000Y-36957000D02*
X37210000Y-36957000D01*
X33274000Y-45466000D02*
X33274000Y-38354000D01*
X32258000Y-46482000D02*
X33274000Y-45466000D01*
X30416500Y-46482000D02*
X32258000Y-46482000D01*
X29337000Y-48387000D02*
X29337000Y-47561500D01*
X29337000Y-47561500D02*
X30416500Y-46482000D01*
X30607000Y-48387000D02*
X30607000Y-48704500D01*
X35981000Y-50673000D02*
X37210000Y-50673000D01*
X30607000Y-48704500D02*
X32575500Y-50673000D01*
X32575500Y-50673000D02*
X35981000Y-50673000D01*
X14620000Y-30984000D02*
X16309027Y-30984000D01*
X16309027Y-30984000D02*
X16374480Y-31049453D01*
X15748000Y-43291000D02*
X15748000Y-42926000D01*
D40*
X15748000Y-43942000D02*
X15748000Y-43291000D01*
D39*
X13370584Y-40320499D02*
X13370584Y-39458395D01*
X15748000Y-42926000D02*
X13370584Y-40548584D01*
X13370584Y-40548584D02*
X13370584Y-40320499D01*
D40*
X15748000Y-46752000D02*
X15748000Y-43942000D01*
D39*
X12954000Y-31496000D02*
X13466000Y-30984000D01*
X13466000Y-30984000D02*
X14620000Y-30984000D01*
X15930884Y-34010620D02*
X16540483Y-33401021D01*
X15930884Y-38403790D02*
X15930884Y-34010620D01*
X17449799Y-39922705D02*
X15930884Y-38403790D01*
X17449799Y-42069799D02*
X17449799Y-39922705D01*
X18796000Y-43291000D02*
X18671000Y-43291000D01*
X17450344Y-29416705D02*
X18059943Y-30026304D01*
X16517639Y-28484000D02*
X17450344Y-29416705D01*
X14620000Y-28484000D02*
X16517639Y-28484000D01*
X18671000Y-43291000D02*
X17449799Y-42069799D01*
D40*
X18796000Y-43942000D02*
X18796000Y-43291000D01*
D39*
X14656000Y-28448000D02*
X14620000Y-28484000D01*
D40*
X18796000Y-46736000D02*
X18796000Y-43942000D01*
D39*
X14620000Y-28484000D02*
X11648000Y-28484000D01*
X11648000Y-28484000D02*
X11176000Y-28956000D01*
X15748000Y-18288000D02*
X15748000Y-12469488D01*
X15748000Y-12469488D02*
X17224097Y-10993391D01*
X19050000Y-21590000D02*
X15748000Y-18288000D01*
X19050000Y-23800000D02*
X19050000Y-21590000D01*
X18570000Y-25034000D02*
X18570000Y-24280000D01*
X18570000Y-24280000D02*
X19050000Y-23800000D01*
X17533706Y-11303000D02*
X17224097Y-10993391D01*
X18956000Y-11303000D02*
X17533706Y-11303000D01*
X16256000Y-4064000D02*
X17538000Y-4064000D01*
X16510000Y-34809793D02*
X17480284Y-33839509D01*
X17070000Y-36434000D02*
X17070000Y-35785761D01*
X17480284Y-33839509D02*
X17668193Y-33839509D01*
X17070000Y-35785761D02*
X16510000Y-35225761D01*
X16510000Y-35225761D02*
X16510000Y-34809793D01*
X17668193Y-33839509D02*
X18530297Y-33839509D01*
X62484000Y-25908000D02*
X63500000Y-25908000D01*
X63500000Y-25908000D02*
X64516000Y-26924000D01*
X64516000Y-27940000D02*
X64008000Y-28448000D01*
X64008000Y-28448000D02*
X61552000Y-28448000D01*
X64516000Y-26924000D02*
X64516000Y-27940000D01*
X17570000Y-36434000D02*
X17570000Y-35086635D01*
X17570000Y-35086635D02*
X17650723Y-35005912D01*
X23495000Y-42037000D02*
X23495000Y-43307000D01*
X23495000Y-43307000D02*
X23622000Y-43434000D01*
X14478000Y-35560000D02*
X14478000Y-34626000D01*
X14478000Y-34626000D02*
X14620000Y-34484000D01*
X24765000Y-42037000D02*
X24765000Y-42545000D01*
X24765000Y-42545000D02*
X26162000Y-43942000D01*
X29337000Y-41211500D02*
X28956000Y-40830500D01*
X27076156Y-31793799D02*
X26885955Y-31984000D01*
X26774000Y-31984000D02*
X26020000Y-31984000D01*
X28956000Y-40830500D02*
X28956000Y-38982906D01*
X26885955Y-31984000D02*
X26774000Y-31984000D01*
X28778199Y-31992837D02*
X28579161Y-31793799D01*
X28956000Y-38982906D02*
X28778199Y-38805105D01*
X28778199Y-38805105D02*
X28778199Y-31992837D01*
X28579161Y-31793799D02*
X27076156Y-31793799D01*
X29337000Y-42037000D02*
X29337000Y-41211500D01*
X30226000Y-34136104D02*
X30226000Y-33274000D01*
X30657801Y-34567905D02*
X30226000Y-34136104D01*
X30657801Y-41160699D02*
X30657801Y-34567905D01*
X30607000Y-41211500D02*
X30657801Y-41160699D01*
X30607000Y-42037000D02*
X30607000Y-41211500D01*
X30607000Y-42354500D02*
X31667721Y-43415221D01*
X30607000Y-42037000D02*
X30607000Y-42354500D01*
X31667721Y-43415221D02*
X31667721Y-43697488D01*
X31667721Y-43697488D02*
X31667721Y-44559592D01*
X27432000Y-27178000D02*
X27238000Y-26984000D01*
X27238000Y-26984000D02*
X26020000Y-26984000D01*
X31242000Y-27178000D02*
X27432000Y-27178000D01*
X26739362Y-31484000D02*
X26020000Y-31484000D01*
X26886774Y-31336588D02*
X26739362Y-31484000D01*
X37210000Y-35687000D02*
X36535000Y-35687000D01*
X30772504Y-31336588D02*
X26886774Y-31336588D01*
X31044894Y-31064198D02*
X30772504Y-31336588D01*
X31912198Y-31064198D02*
X31044894Y-31064198D01*
X36535000Y-35687000D02*
X31912198Y-31064198D01*
X31496000Y-25654000D02*
X26900471Y-25654000D01*
X26900471Y-25654000D02*
X26769258Y-25522787D01*
X22570000Y-25628269D02*
X22128622Y-26069647D01*
X22570000Y-25034000D02*
X22570000Y-25628269D01*
X22128622Y-26069647D02*
X21870957Y-26069647D01*
X21870957Y-26069647D02*
X21261358Y-26679246D01*
X31242000Y-32512000D02*
X31242000Y-32258000D01*
X31242000Y-32258000D02*
X31496000Y-32004000D01*
X31242000Y-38862000D02*
X31242000Y-32512000D01*
X31394401Y-39014401D02*
X31242000Y-38862000D01*
X32004000Y-39624000D02*
X31394401Y-39014401D01*
X33782000Y-40132000D02*
X34290000Y-39624000D01*
X33782000Y-46650000D02*
X33782000Y-40132000D01*
X37210000Y-49403000D02*
X36535000Y-49403000D01*
X36535000Y-49403000D02*
X33782000Y-46650000D01*
G36*
X26797000Y-10036580D02*
X26373210Y-9612790D01*
X26208403Y-9502669D01*
X26106882Y-9482475D01*
X26038454Y-9376135D01*
X25911134Y-9289141D01*
X25760000Y-9258536D01*
X25642000Y-9258536D01*
X25642000Y-8617142D01*
X25675190Y-8610897D01*
X25804865Y-8527454D01*
X25891859Y-8400134D01*
X25922464Y-8249000D01*
X25922464Y-7499000D01*
X25895897Y-7357810D01*
X25812454Y-7228135D01*
X25685134Y-7141141D01*
X25534000Y-7110536D01*
X24958319Y-7110536D01*
X24362572Y-6514790D01*
X24197765Y-6404669D01*
X24003362Y-6366000D01*
X21786000Y-6366000D01*
X21591597Y-6404669D01*
X21426790Y-6514789D01*
X21202043Y-6739536D01*
X20632000Y-6739536D01*
X20490810Y-6766103D01*
X20361135Y-6849546D01*
X20274141Y-6976866D01*
X20272494Y-6985000D01*
X20024906Y-6985000D01*
X19984454Y-6922135D01*
X19857134Y-6835141D01*
X19706000Y-6804536D01*
X19546000Y-6804536D01*
X19546000Y-6585142D01*
X19579190Y-6578897D01*
X19708865Y-6495454D01*
X19795859Y-6368134D01*
X19826464Y-6217000D01*
X19826464Y-5467000D01*
X19799897Y-5325810D01*
X19716454Y-5196135D01*
X19589134Y-5109141D01*
X19546000Y-5100406D01*
X19546000Y-4800732D01*
X19558865Y-4792454D01*
X19645859Y-4665134D01*
X19676464Y-4514000D01*
X19676464Y-3614000D01*
X19649897Y-3472810D01*
X19566454Y-3343135D01*
X19439134Y-3256141D01*
X19288000Y-3225536D01*
X18788000Y-3225536D01*
X18646810Y-3252103D01*
X18517135Y-3335546D01*
X18430141Y-3462866D01*
X18399536Y-3614000D01*
X18399536Y-4514000D01*
X18426103Y-4655190D01*
X18509546Y-4784865D01*
X18530000Y-4798841D01*
X18530000Y-5098858D01*
X18496810Y-5105103D01*
X18367135Y-5188546D01*
X18280141Y-5315866D01*
X18249536Y-5467000D01*
X18249536Y-6217000D01*
X18276103Y-6358190D01*
X18359546Y-6487865D01*
X18486866Y-6574859D01*
X18530000Y-6583594D01*
X18530000Y-6804536D01*
X18206000Y-6804536D01*
X18064810Y-6831103D01*
X17935135Y-6914546D01*
X17848141Y-7041866D01*
X17817536Y-7193000D01*
X17817536Y-7793000D01*
X17844103Y-7934190D01*
X17927546Y-8063865D01*
X18022187Y-8128530D01*
X17935135Y-8184546D01*
X17886996Y-8255000D01*
X16339420Y-8255000D01*
X15748000Y-7663580D01*
X15748000Y-7532638D01*
X15709331Y-7338235D01*
X15599210Y-7173428D01*
X14162572Y-5736790D01*
X13997765Y-5626669D01*
X13803362Y-5588000D01*
X9505550Y-5588000D01*
X9489897Y-5504810D01*
X9406454Y-5375135D01*
X9279134Y-5288141D01*
X9128000Y-5257536D01*
X8628000Y-5257536D01*
X8486810Y-5284103D01*
X8357135Y-5367546D01*
X8270141Y-5494866D01*
X8239536Y-5646000D01*
X8239536Y-6546000D01*
X8266103Y-6687190D01*
X8349546Y-6816865D01*
X8476866Y-6903859D01*
X8628000Y-6934464D01*
X9128000Y-6934464D01*
X9269190Y-6907897D01*
X9398865Y-6824454D01*
X9485859Y-6697134D01*
X9504719Y-6604000D01*
X13592942Y-6604000D01*
X13793478Y-6804536D01*
X12806000Y-6804536D01*
X12664810Y-6831103D01*
X12535135Y-6914546D01*
X12448141Y-7041866D01*
X12433939Y-7112000D01*
X12299550Y-7112000D01*
X12283897Y-7028810D01*
X12200454Y-6899135D01*
X12073134Y-6812141D01*
X11922000Y-6781536D01*
X11422000Y-6781536D01*
X11280810Y-6808103D01*
X11151135Y-6891546D01*
X11064141Y-7018866D01*
X11033536Y-7170000D01*
X11033536Y-8070000D01*
X11060103Y-8211190D01*
X11143546Y-8340865D01*
X11203749Y-8382000D01*
X10640733Y-8382000D01*
X10692865Y-8348454D01*
X10779859Y-8221134D01*
X10810464Y-8070000D01*
X10810464Y-7170000D01*
X10783897Y-7028810D01*
X10700454Y-6899135D01*
X10573134Y-6812141D01*
X10422000Y-6781536D01*
X9922000Y-6781536D01*
X9780810Y-6808103D01*
X9651135Y-6891546D01*
X9564141Y-7018866D01*
X9545281Y-7112000D01*
X3547993Y-7112000D01*
X3541977Y-7080030D01*
X3458534Y-6950355D01*
X3331214Y-6863361D01*
X3180080Y-6832756D01*
X2382520Y-6832756D01*
X2241330Y-6859323D01*
X2111655Y-6942766D01*
X2024661Y-7070086D01*
X1994056Y-7221220D01*
X1994056Y-8018780D01*
X2020623Y-8159970D01*
X2104066Y-8289645D01*
X2231386Y-8376639D01*
X2382520Y-8407244D01*
X3180080Y-8407244D01*
X3321270Y-8380677D01*
X3450945Y-8297234D01*
X3537939Y-8169914D01*
X3546427Y-8128000D01*
X5296361Y-8128000D01*
X5289330Y-8129323D01*
X5159655Y-8212766D01*
X5072661Y-8340086D01*
X5042056Y-8491220D01*
X5042056Y-9288780D01*
X5068623Y-9429970D01*
X5152066Y-9559645D01*
X5279386Y-9646639D01*
X5305860Y-9652000D01*
X3547993Y-9652000D01*
X3541977Y-9620030D01*
X3458534Y-9490355D01*
X3331214Y-9403361D01*
X3180080Y-9372756D01*
X2382520Y-9372756D01*
X2241330Y-9399323D01*
X2111655Y-9482766D01*
X2024661Y-9610086D01*
X1994056Y-9761220D01*
X1994056Y-10558780D01*
X2020623Y-10699970D01*
X2104066Y-10829645D01*
X2231386Y-10916639D01*
X2382520Y-10947244D01*
X3180080Y-10947244D01*
X3321270Y-10920677D01*
X3450945Y-10837234D01*
X3537939Y-10709914D01*
X3546427Y-10668000D01*
X5296361Y-10668000D01*
X5289330Y-10669323D01*
X5159655Y-10752766D01*
X5072661Y-10880086D01*
X5042056Y-11031220D01*
X5042056Y-11828780D01*
X5068623Y-11969970D01*
X5152066Y-12099645D01*
X5279386Y-12186639D01*
X5305860Y-12192000D01*
X3547993Y-12192000D01*
X3541977Y-12160030D01*
X3458534Y-12030355D01*
X3331214Y-11943361D01*
X3180080Y-11912756D01*
X2382520Y-11912756D01*
X2241330Y-11939323D01*
X2111655Y-12022766D01*
X2024661Y-12150086D01*
X1994056Y-12301220D01*
X1994056Y-13098780D01*
X2020623Y-13239970D01*
X2104066Y-13369645D01*
X2231386Y-13456639D01*
X2382520Y-13487244D01*
X3180080Y-13487244D01*
X3321270Y-13460677D01*
X3450945Y-13377234D01*
X3537939Y-13249914D01*
X3546427Y-13208000D01*
X5296361Y-13208000D01*
X5289330Y-13209323D01*
X5159655Y-13292766D01*
X5072661Y-13420086D01*
X5042056Y-13571220D01*
X5042056Y-14368780D01*
X5068623Y-14509970D01*
X5152066Y-14639645D01*
X5279386Y-14726639D01*
X5305860Y-14732000D01*
X3547993Y-14732000D01*
X3541977Y-14700030D01*
X3458534Y-14570355D01*
X3331214Y-14483361D01*
X3180080Y-14452756D01*
X2382520Y-14452756D01*
X2241330Y-14479323D01*
X2111655Y-14562766D01*
X2024661Y-14690086D01*
X1994056Y-14841220D01*
X1994056Y-15638780D01*
X2020623Y-15779970D01*
X2104066Y-15909645D01*
X2231386Y-15996639D01*
X2382520Y-16027244D01*
X3180080Y-16027244D01*
X3321270Y-16000677D01*
X3450945Y-15917234D01*
X3537939Y-15789914D01*
X3546427Y-15748000D01*
X9544450Y-15748000D01*
X9560103Y-15831190D01*
X9643546Y-15960865D01*
X9770866Y-16047859D01*
X9922000Y-16078464D01*
X10422000Y-16078464D01*
X10563190Y-16051897D01*
X10692865Y-15968454D01*
X10779859Y-15841134D01*
X10810464Y-15690000D01*
X10810464Y-14790000D01*
X10783897Y-14648810D01*
X10700454Y-14519135D01*
X10640251Y-14478000D01*
X11203267Y-14478000D01*
X11151135Y-14511546D01*
X11064141Y-14638866D01*
X11033536Y-14790000D01*
X11033536Y-15690000D01*
X11060103Y-15831190D01*
X11143546Y-15960865D01*
X11270866Y-16047859D01*
X11422000Y-16078464D01*
X11922000Y-16078464D01*
X12063190Y-16051897D01*
X12192865Y-15968454D01*
X12279859Y-15841134D01*
X12298719Y-15748000D01*
X12621411Y-15748000D01*
X12654866Y-15770859D01*
X12806000Y-15801464D01*
X14306000Y-15801464D01*
X14447190Y-15774897D01*
X14576865Y-15691454D01*
X14663859Y-15564134D01*
X14694464Y-15413000D01*
X14694464Y-14813000D01*
X14667897Y-14671810D01*
X14584454Y-14542135D01*
X14489813Y-14477470D01*
X14576865Y-14421454D01*
X14663859Y-14294134D01*
X14694464Y-14143000D01*
X14694464Y-13543000D01*
X14667897Y-13401810D01*
X14584454Y-13272135D01*
X14489813Y-13207470D01*
X14576865Y-13151454D01*
X14663859Y-13024134D01*
X14694464Y-12873000D01*
X14694464Y-12273000D01*
X14667897Y-12131810D01*
X14584454Y-12002135D01*
X14489813Y-11937470D01*
X14576865Y-11881454D01*
X14663859Y-11754134D01*
X14694464Y-11603000D01*
X14694464Y-11003000D01*
X14667897Y-10861810D01*
X14584454Y-10732135D01*
X14489813Y-10667470D01*
X14576865Y-10611454D01*
X14663859Y-10484134D01*
X14694464Y-10333000D01*
X14694464Y-9733000D01*
X14667897Y-9591810D01*
X14584454Y-9462135D01*
X14489813Y-9397470D01*
X14576865Y-9341454D01*
X14663859Y-9214134D01*
X14694464Y-9063000D01*
X14694464Y-8463000D01*
X14667897Y-8321810D01*
X14584454Y-8192135D01*
X14489813Y-8127470D01*
X14576865Y-8071454D01*
X14663859Y-7944134D01*
X14694464Y-7793000D01*
X14694464Y-7705522D01*
X14732000Y-7743058D01*
X14732000Y-7874000D01*
X14770669Y-8068403D01*
X14880790Y-8233210D01*
X15769790Y-9122210D01*
X15934597Y-9232331D01*
X16129000Y-9271000D01*
X17887094Y-9271000D01*
X17927546Y-9333865D01*
X18022187Y-9398530D01*
X17976255Y-9428086D01*
X17825000Y-9398000D01*
X16764000Y-9398000D01*
X16569597Y-9436669D01*
X16404790Y-9546790D01*
X15998266Y-9953314D01*
X15945907Y-9931572D01*
X15551822Y-9931228D01*
X15187603Y-10081721D01*
X14908700Y-10360138D01*
X14757572Y-10724093D01*
X14757228Y-11118178D01*
X14907721Y-11482397D01*
X15186138Y-11761300D01*
X15550093Y-11912428D01*
X15586608Y-11912460D01*
X15388790Y-12110278D01*
X15278669Y-12275085D01*
X15240000Y-12469488D01*
X15240000Y-18288000D01*
X15278669Y-18482403D01*
X15388790Y-18647210D01*
X18542000Y-21800420D01*
X18542000Y-23589579D01*
X18210790Y-23920790D01*
X18100669Y-24085597D01*
X18088746Y-24145536D01*
X17945000Y-24145536D01*
X17902445Y-24153543D01*
X17987532Y-24026202D01*
X18026201Y-23831799D01*
X18026201Y-22598201D01*
X17987532Y-22403798D01*
X17982141Y-22395730D01*
X17877412Y-22238991D01*
X17224809Y-21586389D01*
X17060002Y-21476268D01*
X16992490Y-21462839D01*
X16992772Y-21139822D01*
X16842279Y-20775603D01*
X16563862Y-20496700D01*
X16199907Y-20345572D01*
X15805822Y-20345228D01*
X15441603Y-20495721D01*
X15162700Y-20774138D01*
X15011572Y-21138093D01*
X15011228Y-21532178D01*
X15161721Y-21896397D01*
X15440138Y-22175300D01*
X15804093Y-22326428D01*
X16198178Y-22326772D01*
X16252080Y-22304500D01*
X16252389Y-22304809D01*
X16335584Y-22360399D01*
X16246810Y-22377103D01*
X16117135Y-22460546D01*
X16030141Y-22587866D01*
X15999536Y-22739000D01*
X15999536Y-23489000D01*
X16026103Y-23630190D01*
X16062000Y-23685976D01*
X16062000Y-24507018D01*
X16056536Y-24534000D01*
X16056536Y-25534000D01*
X16062000Y-25563038D01*
X16062000Y-26083408D01*
X16100669Y-26277811D01*
X16210790Y-26442618D01*
X17071415Y-27303243D01*
X17100511Y-27449519D01*
X17210632Y-27614326D01*
X18149515Y-28553210D01*
X18233011Y-28609000D01*
X18314323Y-28663331D01*
X18508726Y-28702000D01*
X18950071Y-28702000D01*
X18971721Y-28754397D01*
X19250138Y-29033300D01*
X19614093Y-29184428D01*
X20008178Y-29184772D01*
X20372397Y-29034279D01*
X20651300Y-28755862D01*
X20802428Y-28391907D01*
X20802772Y-27997822D01*
X20652279Y-27633603D01*
X20373862Y-27354700D01*
X20186186Y-27276770D01*
X20399928Y-27188453D01*
X20421079Y-27239643D01*
X20699496Y-27518546D01*
X21063451Y-27669674D01*
X21457536Y-27670018D01*
X21821755Y-27519525D01*
X22100658Y-27241108D01*
X22251786Y-26877153D01*
X22252069Y-26553092D01*
X22323025Y-26538978D01*
X22487832Y-26428857D01*
X22929210Y-25987479D01*
X23039331Y-25822672D01*
X23062000Y-25708707D01*
X23062000Y-25989092D01*
X23100669Y-26183495D01*
X23210790Y-26348302D01*
X23261849Y-26399361D01*
X23279657Y-26488890D01*
X23291802Y-26507066D01*
X23291802Y-26911365D01*
X22766790Y-27436377D01*
X22656669Y-27601184D01*
X22618000Y-27795587D01*
X22618000Y-29911672D01*
X22606000Y-29972000D01*
X22606000Y-31720774D01*
X22405862Y-31520287D01*
X22041907Y-31369159D01*
X21647822Y-31368815D01*
X21283603Y-31519308D01*
X21004700Y-31797725D01*
X20853572Y-32161680D01*
X20853228Y-32555765D01*
X20875500Y-32609667D01*
X20875191Y-32609976D01*
X20783550Y-32747126D01*
X20673526Y-32480850D01*
X20395109Y-32201947D01*
X20287374Y-32157212D01*
X20405272Y-32108497D01*
X20684175Y-31830080D01*
X20835303Y-31466125D01*
X20835647Y-31072040D01*
X20685154Y-30707821D01*
X20406737Y-30428918D01*
X20042782Y-30277790D01*
X19648697Y-30277446D01*
X19284478Y-30427939D01*
X19005575Y-30706356D01*
X18854447Y-31070311D01*
X18854103Y-31464396D01*
X18876375Y-31518298D01*
X18441462Y-31953211D01*
X16781247Y-31953211D01*
X16934877Y-31889732D01*
X17213780Y-31611315D01*
X17364908Y-31247360D01*
X17365252Y-30853275D01*
X17280135Y-30647278D01*
X17498081Y-30865604D01*
X17862036Y-31016732D01*
X18256121Y-31017076D01*
X18620340Y-30866583D01*
X18899243Y-30588166D01*
X19050371Y-30224211D01*
X19050715Y-29830126D01*
X18900222Y-29465907D01*
X18621805Y-29187004D01*
X18257850Y-29035876D01*
X17863765Y-29035532D01*
X17809863Y-29057804D01*
X16876849Y-28124790D01*
X16712042Y-28014669D01*
X16517639Y-27976000D01*
X15508464Y-27976000D01*
X15508464Y-27965254D01*
X15568403Y-27953331D01*
X15733210Y-27843210D01*
X15853211Y-27723210D01*
X15963331Y-27558403D01*
X16002000Y-27364000D01*
X16002000Y-26752550D01*
X15963331Y-26558147D01*
X15962868Y-26557454D01*
X15853211Y-26393340D01*
X11622484Y-22162614D01*
X11869420Y-22162614D01*
X12010610Y-22136047D01*
X12140285Y-22052604D01*
X12227279Y-21925284D01*
X12257884Y-21774150D01*
X12257884Y-21082000D01*
X12718858Y-21082000D01*
X12725103Y-21115190D01*
X12808546Y-21244865D01*
X12935866Y-21331859D01*
X13087000Y-21362464D01*
X13837000Y-21362464D01*
X13978190Y-21335897D01*
X14107865Y-21252454D01*
X14194859Y-21125134D01*
X14225464Y-20974000D01*
X14225464Y-20174000D01*
X14198897Y-20032810D01*
X14115454Y-19903135D01*
X13988134Y-19816141D01*
X13837000Y-19785536D01*
X13087000Y-19785536D01*
X12945810Y-19812103D01*
X12816135Y-19895546D01*
X12729141Y-20022866D01*
X12720406Y-20066000D01*
X12257884Y-20066000D01*
X12257884Y-19373850D01*
X12231317Y-19232660D01*
X12147874Y-19102985D01*
X12020554Y-19015991D01*
X11869420Y-18985386D01*
X9669780Y-18985386D01*
X9528590Y-19011953D01*
X9398915Y-19095396D01*
X9311921Y-19222716D01*
X9281316Y-19373850D01*
X9281316Y-21774150D01*
X9307883Y-21915340D01*
X9391326Y-22045015D01*
X9518646Y-22132009D01*
X9669780Y-22162614D01*
X10288346Y-22162614D01*
X10300269Y-22222553D01*
X10410390Y-22387360D01*
X14986000Y-26962971D01*
X14986000Y-26970536D01*
X14190903Y-26970536D01*
X14093412Y-26824629D01*
X11039572Y-23770790D01*
X10874765Y-23660669D01*
X10680362Y-23622000D01*
X6782670Y-23622000D01*
X5323284Y-22162614D01*
X5570220Y-22162614D01*
X5711410Y-22136047D01*
X5841085Y-22052604D01*
X5928079Y-21925284D01*
X5958684Y-21774150D01*
X5958684Y-19373850D01*
X5932117Y-19232660D01*
X5848674Y-19102985D01*
X5721354Y-19015991D01*
X5570220Y-18985386D01*
X3370580Y-18985386D01*
X3229390Y-19011953D01*
X3099715Y-19095396D01*
X3012721Y-19222716D01*
X2982116Y-19373850D01*
X2982116Y-20078000D01*
X2521142Y-20078000D01*
X2514897Y-20044810D01*
X2431454Y-19915135D01*
X2304134Y-19828141D01*
X2153000Y-19797536D01*
X1403000Y-19797536D01*
X1261810Y-19824103D01*
X1132135Y-19907546D01*
X1045141Y-20034866D01*
X1014536Y-20186000D01*
X1014536Y-20986000D01*
X1041103Y-21127190D01*
X1124546Y-21256865D01*
X1251866Y-21343859D01*
X1403000Y-21374464D01*
X2153000Y-21374464D01*
X2294190Y-21347897D01*
X2423865Y-21264454D01*
X2510859Y-21137134D01*
X2519594Y-21094000D01*
X2982116Y-21094000D01*
X2982116Y-21774150D01*
X3008683Y-21915340D01*
X3092126Y-22045015D01*
X3219446Y-22132009D01*
X3370580Y-22162614D01*
X3989146Y-22162614D01*
X4001069Y-22222553D01*
X4111190Y-22387360D01*
X6213040Y-24489210D01*
X6377847Y-24599331D01*
X6572250Y-24638000D01*
X10469942Y-24638000D01*
X13226201Y-27394260D01*
X13226201Y-27852201D01*
X13250826Y-27976000D01*
X11648000Y-27976000D01*
X11453597Y-28014669D01*
X11288790Y-28124790D01*
X11246044Y-28167536D01*
X10801000Y-28167536D01*
X10659810Y-28194103D01*
X10530135Y-28277546D01*
X10443141Y-28404866D01*
X10412536Y-28556000D01*
X10412536Y-29356000D01*
X10435116Y-29476000D01*
X10145451Y-29476000D01*
X10128343Y-29464569D01*
X10055039Y-29449988D01*
X10068404Y-29383990D01*
X10068404Y-28883610D01*
X10041837Y-28742420D01*
X9958394Y-28612745D01*
X9831074Y-28525751D01*
X9679940Y-28495146D01*
X7378700Y-28495146D01*
X7237510Y-28521713D01*
X7194172Y-28549600D01*
X6972300Y-28549600D01*
X6761430Y-28591545D01*
X6761624Y-28369872D01*
X6635442Y-28064489D01*
X6402000Y-27830639D01*
X6096837Y-27703925D01*
X5766412Y-27703636D01*
X5461029Y-27829818D01*
X5227179Y-28063260D01*
X5100465Y-28368423D01*
X5100176Y-28698848D01*
X5226358Y-29004231D01*
X5459800Y-29238081D01*
X5764963Y-29364795D01*
X5914990Y-29364926D01*
X5239192Y-30040724D01*
X4878741Y-30040409D01*
X4514522Y-30190902D01*
X4235619Y-30469319D01*
X4084491Y-30833274D01*
X4084147Y-31227359D01*
X4234640Y-31591578D01*
X4513057Y-31870481D01*
X4877012Y-32021609D01*
X5271097Y-32021953D01*
X5635316Y-31871460D01*
X5914219Y-31593043D01*
X6065347Y-31229088D01*
X6065663Y-30866621D01*
X6990236Y-29942048D01*
X6990236Y-30184090D01*
X7016803Y-30325280D01*
X7021212Y-30332132D01*
X7020841Y-30332676D01*
X6990236Y-30483810D01*
X6990236Y-30984190D01*
X7016803Y-31125380D01*
X7021212Y-31132232D01*
X7020841Y-31132776D01*
X6990236Y-31283910D01*
X6990236Y-31784290D01*
X7016803Y-31925480D01*
X7100246Y-32055155D01*
X7227566Y-32142149D01*
X7378700Y-32172754D01*
X9679940Y-32172754D01*
X9821130Y-32146187D01*
X9950805Y-32062744D01*
X10037799Y-31935424D01*
X10068404Y-31784290D01*
X10068404Y-31283910D01*
X10055951Y-31217731D01*
X10128343Y-31203331D01*
X10293150Y-31093210D01*
X10394360Y-30992000D01*
X10436026Y-30992000D01*
X10412536Y-31108000D01*
X10412536Y-31908000D01*
X10439103Y-32049190D01*
X10522546Y-32178865D01*
X10649866Y-32265859D01*
X10801000Y-32296464D01*
X11221044Y-32296464D01*
X11521991Y-32597411D01*
X11686798Y-32707532D01*
X11881201Y-32746201D01*
X13409781Y-32746201D01*
X13506790Y-32843210D01*
X13671596Y-32953331D01*
X13703850Y-32959746D01*
X13810462Y-32980953D01*
X13640959Y-33014669D01*
X13476152Y-33124790D01*
X13068942Y-33532000D01*
X12896000Y-33532000D01*
X12701597Y-33570669D01*
X12536790Y-33680789D01*
X12312043Y-33905536D01*
X11742000Y-33905536D01*
X11600810Y-33932103D01*
X11471135Y-34015546D01*
X11384141Y-34142866D01*
X11353536Y-34294000D01*
X11353536Y-34794000D01*
X11380103Y-34935190D01*
X11463546Y-35064865D01*
X11590866Y-35151859D01*
X11742000Y-35182464D01*
X12642000Y-35182464D01*
X12783190Y-35155897D01*
X12912865Y-35072454D01*
X12999859Y-34945134D01*
X13030464Y-34794000D01*
X13030464Y-34623957D01*
X13106421Y-34548000D01*
X13279362Y-34548000D01*
X13473765Y-34509331D01*
X13638572Y-34399210D01*
X13744931Y-34292851D01*
X13731536Y-34359000D01*
X13731536Y-34609000D01*
X13758103Y-34750190D01*
X13808549Y-34828585D01*
X13638700Y-34998138D01*
X13487572Y-35362093D01*
X13487228Y-35756178D01*
X13637721Y-36120397D01*
X13916138Y-36399300D01*
X14280093Y-36550428D01*
X14674178Y-36550772D01*
X15038397Y-36400279D01*
X15317300Y-36121862D01*
X15422884Y-35867589D01*
X15422884Y-37208804D01*
X15183907Y-37109572D01*
X14789822Y-37109228D01*
X14735920Y-37131500D01*
X14329210Y-36724790D01*
X14164403Y-36614669D01*
X13970000Y-36576000D01*
X12907354Y-36576000D01*
X12912865Y-36572454D01*
X12999859Y-36445134D01*
X13030464Y-36294000D01*
X13030464Y-35794000D01*
X13003897Y-35652810D01*
X12920454Y-35523135D01*
X12793134Y-35436141D01*
X12642000Y-35405536D01*
X11742000Y-35405536D01*
X11600810Y-35432103D01*
X11471135Y-35515546D01*
X11384141Y-35642866D01*
X11353536Y-35794000D01*
X11353536Y-36294000D01*
X11380103Y-36435190D01*
X11463546Y-36564865D01*
X11590866Y-36651859D01*
X11684000Y-36670719D01*
X11684000Y-36830000D01*
X11722669Y-37024403D01*
X11832790Y-37189210D01*
X12086790Y-37443210D01*
X12251596Y-37553331D01*
X12283850Y-37559746D01*
X12446000Y-37592000D01*
X13759580Y-37592000D01*
X14017314Y-37849734D01*
X13995572Y-37902093D01*
X13995228Y-38296178D01*
X14145721Y-38660397D01*
X14424138Y-38939300D01*
X14788093Y-39090428D01*
X15182178Y-39090772D01*
X15546397Y-38940279D01*
X15647763Y-38839089D01*
X16941799Y-40133125D01*
X16941799Y-42069799D01*
X16980468Y-42264202D01*
X17090589Y-42429009D01*
X17782536Y-43120956D01*
X17782536Y-43791000D01*
X17809103Y-43932190D01*
X17892546Y-44061865D01*
X18019866Y-44148859D01*
X18171000Y-44179464D01*
X18211800Y-44179464D01*
X18211800Y-45847536D01*
X18171000Y-45847536D01*
X18029810Y-45874103D01*
X17900135Y-45957546D01*
X17813141Y-46084866D01*
X17782536Y-46236000D01*
X17782536Y-47236000D01*
X17809103Y-47377190D01*
X17892546Y-47506865D01*
X18019866Y-47593859D01*
X18171000Y-47624464D01*
X19314116Y-47624464D01*
X19313580Y-47625000D01*
X16455183Y-47625000D01*
X16514190Y-47613897D01*
X16643865Y-47530454D01*
X16730859Y-47403134D01*
X16761464Y-47252000D01*
X16761464Y-46252000D01*
X16734897Y-46110810D01*
X16651454Y-45981135D01*
X16524134Y-45894141D01*
X16373000Y-45863536D01*
X16332200Y-45863536D01*
X16332200Y-44179464D01*
X16373000Y-44179464D01*
X16514190Y-44152897D01*
X16643865Y-44069454D01*
X16730859Y-43942134D01*
X16761464Y-43791000D01*
X16761464Y-42791000D01*
X16734897Y-42649810D01*
X16651454Y-42520135D01*
X16524134Y-42433141D01*
X16373000Y-42402536D01*
X15942956Y-42402536D01*
X13878584Y-40338164D01*
X13878584Y-40320324D01*
X13930981Y-40298674D01*
X14209884Y-40020257D01*
X14361012Y-39656302D01*
X14361356Y-39262217D01*
X14210863Y-38897998D01*
X13932446Y-38619095D01*
X13568491Y-38467967D01*
X13174406Y-38467623D01*
X12810187Y-38618116D01*
X12531284Y-38896533D01*
X12380156Y-39260488D01*
X12379812Y-39654573D01*
X12530305Y-40018792D01*
X12808722Y-40297695D01*
X12862584Y-40320061D01*
X12862584Y-40548584D01*
X12901253Y-40742987D01*
X13011374Y-40907794D01*
X14761488Y-42657908D01*
X14734536Y-42791000D01*
X14734536Y-43791000D01*
X14761103Y-43932190D01*
X14844546Y-44061865D01*
X14971866Y-44148859D01*
X15123000Y-44179464D01*
X15163800Y-44179464D01*
X15163800Y-45863536D01*
X15123000Y-45863536D01*
X14981810Y-45890103D01*
X14852135Y-45973546D01*
X14765141Y-46100866D01*
X14734536Y-46252000D01*
X14734536Y-47252000D01*
X14761103Y-47393190D01*
X14844546Y-47522865D01*
X14971866Y-47609859D01*
X15046635Y-47625000D01*
X14889816Y-47625000D01*
X14351000Y-47086184D01*
X14351000Y-44196000D01*
X14322997Y-44052633D01*
X14239408Y-43926592D01*
X13985408Y-43672592D01*
X13864230Y-43591017D01*
X13716000Y-43561000D01*
X12095816Y-43561000D01*
X12065000Y-43530184D01*
X12065000Y-40894000D01*
X12038944Y-40755523D01*
X11957104Y-40628340D01*
X11832230Y-40543017D01*
X11684000Y-40513000D01*
X9652000Y-40513000D01*
X9513523Y-40539056D01*
X9386340Y-40620896D01*
X9301017Y-40745770D01*
X9271000Y-40894000D01*
X9271000Y-41033281D01*
X9246454Y-40995135D01*
X9119134Y-40908141D01*
X8968000Y-40877536D01*
X8952200Y-40877536D01*
X8952200Y-40549771D01*
X9047190Y-40531897D01*
X9176865Y-40448454D01*
X9263859Y-40321134D01*
X9294464Y-40170000D01*
X9294464Y-38570000D01*
X9267897Y-38428810D01*
X9184454Y-38299135D01*
X9057134Y-38212141D01*
X8906000Y-38181536D01*
X7906000Y-38181536D01*
X7764810Y-38208103D01*
X7635135Y-38291546D01*
X7548141Y-38418866D01*
X7517536Y-38570000D01*
X7517536Y-38785800D01*
X7320943Y-38785800D01*
X7257454Y-38687135D01*
X7130134Y-38600141D01*
X6979000Y-38569536D01*
X6229000Y-38569536D01*
X6087810Y-38596103D01*
X5958135Y-38679546D01*
X5871141Y-38806866D01*
X5840536Y-38958000D01*
X5840536Y-39758000D01*
X5867103Y-39899190D01*
X5950546Y-40028865D01*
X6077866Y-40115859D01*
X6229000Y-40146464D01*
X6979000Y-40146464D01*
X7120190Y-40119897D01*
X7249865Y-40036454D01*
X7306067Y-39954200D01*
X7517536Y-39954200D01*
X7517536Y-40170000D01*
X7544103Y-40311190D01*
X7627546Y-40440865D01*
X7754866Y-40527859D01*
X7783800Y-40533718D01*
X7783800Y-40877536D01*
X7768000Y-40877536D01*
X7626810Y-40904103D01*
X7497135Y-40987546D01*
X7410141Y-41114866D01*
X7379536Y-41266000D01*
X7379536Y-41781800D01*
X5896517Y-41781800D01*
X5641862Y-41526700D01*
X5277907Y-41375572D01*
X4883822Y-41375228D01*
X4519603Y-41525721D01*
X4263077Y-41781800D01*
X3354005Y-41781800D01*
X3354000Y-41781799D01*
X3130437Y-41826269D01*
X3085735Y-41856138D01*
X2940908Y-41952908D01*
X2940906Y-41952911D01*
X2380908Y-42512908D01*
X2254270Y-42702436D01*
X2209800Y-42926000D01*
X2209800Y-53086000D01*
X2254270Y-53309564D01*
X2274607Y-53340000D01*
X2311769Y-53395618D01*
X2311572Y-53396093D01*
X2311228Y-53790178D01*
X2461721Y-54154397D01*
X2740138Y-54433300D01*
X3104093Y-54584428D01*
X3498178Y-54584772D01*
X3862397Y-54434279D01*
X4141300Y-54155862D01*
X4292428Y-53791907D01*
X4292490Y-53721000D01*
X19558000Y-53721000D01*
X19696477Y-53694944D01*
X19823660Y-53613104D01*
X19908983Y-53488230D01*
X19939000Y-53340000D01*
X19939000Y-48436420D01*
X20679210Y-47696210D01*
X20789331Y-47531403D01*
X20828000Y-47337000D01*
X20828000Y-43279929D01*
X20880397Y-43258279D01*
X21159300Y-42979862D01*
X21310428Y-42615907D01*
X21310772Y-42221822D01*
X21160279Y-41857603D01*
X20881862Y-41578700D01*
X20517907Y-41427572D01*
X20123822Y-41427228D01*
X19759603Y-41577721D01*
X19480700Y-41856138D01*
X19329572Y-42220093D01*
X19329413Y-42402536D01*
X18500956Y-42402536D01*
X17957799Y-41859379D01*
X17957799Y-39922705D01*
X17944304Y-39854859D01*
X17919130Y-39728301D01*
X17809009Y-39563495D01*
X17300584Y-39055070D01*
X17578397Y-38940279D01*
X17581324Y-38937357D01*
X17621546Y-38999865D01*
X17748866Y-39086859D01*
X17900000Y-39117464D01*
X18700000Y-39117464D01*
X18841190Y-39090897D01*
X18970865Y-39007454D01*
X19057859Y-38880134D01*
X19088464Y-38729000D01*
X19088464Y-37979000D01*
X19061897Y-37837810D01*
X18978454Y-37708135D01*
X18851134Y-37621141D01*
X18700000Y-37590536D01*
X18578000Y-37590536D01*
X18578000Y-37322464D01*
X18695000Y-37322464D01*
X18824588Y-37298080D01*
X18945000Y-37322464D01*
X19195000Y-37322464D01*
X19324588Y-37298080D01*
X19445000Y-37322464D01*
X19695000Y-37322464D01*
X19824588Y-37298080D01*
X19945000Y-37322464D01*
X20195000Y-37322464D01*
X20336190Y-37295897D01*
X20465865Y-37212454D01*
X20552859Y-37085134D01*
X20569506Y-37002928D01*
X20583103Y-37075190D01*
X20666546Y-37204865D01*
X20793866Y-37291859D01*
X20945000Y-37322464D01*
X21195000Y-37322464D01*
X21324588Y-37298080D01*
X21445000Y-37322464D01*
X21695000Y-37322464D01*
X21824588Y-37298080D01*
X21945000Y-37322464D01*
X22195000Y-37322464D01*
X22324588Y-37298080D01*
X22445000Y-37322464D01*
X22695000Y-37322464D01*
X22824588Y-37298080D01*
X22945000Y-37322464D01*
X23062000Y-37322464D01*
X23062000Y-37621485D01*
X22939135Y-37700546D01*
X22852141Y-37827866D01*
X22821536Y-37979000D01*
X22821536Y-38729000D01*
X22848103Y-38870190D01*
X22871316Y-38906264D01*
X22409044Y-39368536D01*
X21964000Y-39368536D01*
X21822810Y-39395103D01*
X21693135Y-39478546D01*
X21606141Y-39605866D01*
X21575536Y-39757000D01*
X21575536Y-40507000D01*
X21602103Y-40648190D01*
X21685546Y-40777865D01*
X21717000Y-40799357D01*
X21717000Y-41176194D01*
X21700135Y-41187046D01*
X21613141Y-41314366D01*
X21582536Y-41465500D01*
X21582536Y-42608500D01*
X21609103Y-42749690D01*
X21692546Y-42879365D01*
X21717000Y-42896074D01*
X21717000Y-44425418D01*
X21416624Y-44549531D01*
X21137721Y-44827948D01*
X20986593Y-45191903D01*
X20986249Y-45585988D01*
X21136742Y-45950207D01*
X21415159Y-46229110D01*
X21779114Y-46380238D01*
X22173199Y-46380582D01*
X22377561Y-46296141D01*
X22377228Y-46678178D01*
X22527721Y-47042397D01*
X22806138Y-47321300D01*
X22860000Y-47343666D01*
X22860000Y-47775833D01*
X22840897Y-47674310D01*
X22757454Y-47544635D01*
X22630134Y-47457641D01*
X22479000Y-47427036D01*
X21971000Y-47427036D01*
X21829810Y-47453603D01*
X21700135Y-47537046D01*
X21613141Y-47664366D01*
X21582536Y-47815500D01*
X21582536Y-48958500D01*
X21609103Y-49099690D01*
X21640800Y-49148949D01*
X21640800Y-49899000D01*
X21685270Y-50122564D01*
X21751621Y-50221866D01*
X21811908Y-50312092D01*
X21829536Y-50329720D01*
X21829536Y-50667000D01*
X21856103Y-50808190D01*
X21939546Y-50937865D01*
X22033800Y-51002266D01*
X22033800Y-52653647D01*
X21791603Y-52753721D01*
X21512700Y-53032138D01*
X21361572Y-53396093D01*
X21361228Y-53790178D01*
X21511721Y-54154397D01*
X21790138Y-54433300D01*
X22154093Y-54584428D01*
X22548178Y-54584772D01*
X22912397Y-54434279D01*
X23191300Y-54155862D01*
X23342428Y-53791907D01*
X23342772Y-53397822D01*
X23202200Y-53057614D01*
X23202200Y-51001221D01*
X23288865Y-50945454D01*
X23375859Y-50818134D01*
X23406464Y-50667000D01*
X23406464Y-49917000D01*
X23379897Y-49775810D01*
X23296454Y-49646135D01*
X23169134Y-49559141D01*
X23018000Y-49528536D01*
X22809200Y-49528536D01*
X22809200Y-49150114D01*
X22836859Y-49109634D01*
X22859726Y-48996712D01*
X22879103Y-49099690D01*
X22962546Y-49229365D01*
X23089866Y-49316359D01*
X23241000Y-49346964D01*
X23749000Y-49346964D01*
X23890190Y-49320397D01*
X24019865Y-49236954D01*
X24106859Y-49109634D01*
X24129726Y-48996712D01*
X24149103Y-49099690D01*
X24232546Y-49229365D01*
X24359866Y-49316359D01*
X24511000Y-49346964D01*
X25019000Y-49346964D01*
X25160190Y-49320397D01*
X25289865Y-49236954D01*
X25376859Y-49109634D01*
X25407464Y-48958500D01*
X25407464Y-47815500D01*
X25380897Y-47674310D01*
X25297454Y-47544635D01*
X25273000Y-47527926D01*
X25273000Y-46732053D01*
X25622874Y-46587487D01*
X25901777Y-46309070D01*
X26052905Y-45945115D01*
X26053249Y-45551030D01*
X25902756Y-45186811D01*
X25624339Y-44907908D01*
X25260384Y-44756780D01*
X24866299Y-44756436D01*
X24502080Y-44906929D01*
X24223177Y-45185346D01*
X24072049Y-45549301D01*
X24071843Y-45784929D01*
X23929862Y-45642700D01*
X23565907Y-45491572D01*
X23171822Y-45491228D01*
X22967460Y-45575669D01*
X22967793Y-45193632D01*
X22817300Y-44829413D01*
X22733000Y-44744966D01*
X22733000Y-43876484D01*
X22781721Y-43994397D01*
X23060138Y-44273300D01*
X23424093Y-44424428D01*
X23818178Y-44424772D01*
X24182397Y-44274279D01*
X24461300Y-43995862D01*
X24612428Y-43631907D01*
X24612772Y-43237822D01*
X24523607Y-43022027D01*
X25193314Y-43691734D01*
X25171572Y-43744093D01*
X25171228Y-44138178D01*
X25321721Y-44502397D01*
X25600138Y-44781300D01*
X25964093Y-44932428D01*
X26358178Y-44932772D01*
X26670000Y-44803929D01*
X26670000Y-44958000D01*
X26708669Y-45152403D01*
X26818790Y-45317210D01*
X27559000Y-46057420D01*
X27559000Y-47526194D01*
X27542135Y-47537046D01*
X27455141Y-47664366D01*
X27424536Y-47815500D01*
X27424536Y-48958500D01*
X27451103Y-49099690D01*
X27482800Y-49148949D01*
X27482800Y-49899000D01*
X27527270Y-50122564D01*
X27593621Y-50221866D01*
X27653908Y-50312092D01*
X27671536Y-50329720D01*
X27671536Y-50667000D01*
X27698103Y-50808190D01*
X27781546Y-50937865D01*
X27875800Y-51002266D01*
X27875800Y-52765503D01*
X27608700Y-53032138D01*
X27457572Y-53396093D01*
X27457228Y-53790178D01*
X27607721Y-54154397D01*
X27886138Y-54433300D01*
X28250093Y-54584428D01*
X28644178Y-54584772D01*
X29008397Y-54434279D01*
X29287300Y-54155862D01*
X29438428Y-53791907D01*
X29438772Y-53397822D01*
X29288279Y-53033603D01*
X29044200Y-52789098D01*
X29044200Y-51001221D01*
X29130865Y-50945454D01*
X29217859Y-50818134D01*
X29248464Y-50667000D01*
X29248464Y-49917000D01*
X29221897Y-49775810D01*
X29138454Y-49646135D01*
X29011134Y-49559141D01*
X28860000Y-49528536D01*
X28651200Y-49528536D01*
X28651200Y-49150114D01*
X28678859Y-49109634D01*
X28701726Y-48996712D01*
X28721103Y-49099690D01*
X28804546Y-49229365D01*
X28931866Y-49316359D01*
X29083000Y-49346964D01*
X29591000Y-49346964D01*
X29732190Y-49320397D01*
X29861865Y-49236954D01*
X29948859Y-49109634D01*
X29971726Y-48996712D01*
X29991103Y-49099690D01*
X30074546Y-49229365D01*
X30201866Y-49316359D01*
X30353000Y-49346964D01*
X30531044Y-49346964D01*
X32216289Y-51032210D01*
X32381096Y-51142331D01*
X32413350Y-51148746D01*
X32575500Y-51181000D01*
X35916094Y-51181000D01*
X35956546Y-51243865D01*
X36083866Y-51330859D01*
X36235000Y-51361464D01*
X38185000Y-51361464D01*
X38326190Y-51334897D01*
X38455865Y-51251454D01*
X38542859Y-51124134D01*
X38573464Y-50973000D01*
X38573464Y-50373000D01*
X38546897Y-50231810D01*
X38463454Y-50102135D01*
X38368813Y-50037470D01*
X38455865Y-49981454D01*
X38542859Y-49854134D01*
X38573464Y-49703000D01*
X38573464Y-49103000D01*
X38546897Y-48961810D01*
X38463454Y-48832135D01*
X38336134Y-48745141D01*
X38185000Y-48714536D01*
X36564956Y-48714536D01*
X34290000Y-46439580D01*
X34290000Y-43699531D01*
X34423000Y-43726464D01*
X35173000Y-43726464D01*
X35314190Y-43699897D01*
X35411625Y-43637200D01*
X35976062Y-43637200D01*
X36083866Y-43710859D01*
X36235000Y-43741464D01*
X38185000Y-43741464D01*
X38326190Y-43714897D01*
X38387598Y-43675382D01*
X39293800Y-44581584D01*
X39293800Y-53793483D01*
X39038700Y-54048138D01*
X38887572Y-54412093D01*
X38887228Y-54806178D01*
X39037721Y-55170397D01*
X39290882Y-55424000D01*
X456000Y-55424000D01*
X456000Y-33098128D01*
X5100176Y-33098128D01*
X5226358Y-33403511D01*
X5459800Y-33637361D01*
X5764963Y-33764075D01*
X6095388Y-33764364D01*
X6400771Y-33638182D01*
X6634621Y-33404740D01*
X6761335Y-33099577D01*
X6761624Y-32769152D01*
X6635442Y-32463769D01*
X6402000Y-32229919D01*
X6096837Y-32103205D01*
X5766412Y-32102916D01*
X5461029Y-32229098D01*
X5227179Y-32462540D01*
X5100465Y-32767703D01*
X5100176Y-33098128D01*
X456000Y-33098128D01*
X456000Y-5697220D01*
X5042056Y-5697220D01*
X5042056Y-6494780D01*
X5068623Y-6635970D01*
X5152066Y-6765645D01*
X5279386Y-6852639D01*
X5430520Y-6883244D01*
X6228080Y-6883244D01*
X6369270Y-6856677D01*
X6498945Y-6773234D01*
X6585939Y-6645914D01*
X6594427Y-6604000D01*
X6750450Y-6604000D01*
X6766103Y-6687190D01*
X6849546Y-6816865D01*
X6976866Y-6903859D01*
X7128000Y-6934464D01*
X7628000Y-6934464D01*
X7769190Y-6907897D01*
X7898865Y-6824454D01*
X7985859Y-6697134D01*
X8016464Y-6546000D01*
X8016464Y-5646000D01*
X7989897Y-5504810D01*
X7906454Y-5375135D01*
X7779134Y-5288141D01*
X7628000Y-5257536D01*
X7128000Y-5257536D01*
X6986810Y-5284103D01*
X6857135Y-5367546D01*
X6770141Y-5494866D01*
X6751281Y-5588000D01*
X6595993Y-5588000D01*
X6589977Y-5556030D01*
X6506534Y-5426355D01*
X6379214Y-5339361D01*
X6228080Y-5308756D01*
X5430520Y-5308756D01*
X5289330Y-5335323D01*
X5159655Y-5418766D01*
X5072661Y-5546086D01*
X5042056Y-5697220D01*
X456000Y-5697220D01*
X456000Y-3171265D01*
X1142670Y-3171265D01*
X1432078Y-3871686D01*
X1967495Y-4408039D01*
X2667410Y-4698668D01*
X3425265Y-4699330D01*
X4125686Y-4409922D01*
X4275691Y-4260178D01*
X15265228Y-4260178D01*
X15415721Y-4624397D01*
X15694138Y-4903300D01*
X16058093Y-5054428D01*
X16452178Y-5054772D01*
X16816397Y-4904279D01*
X16980788Y-4740174D01*
X17009546Y-4784865D01*
X17136866Y-4871859D01*
X17288000Y-4902464D01*
X17788000Y-4902464D01*
X17929190Y-4875897D01*
X18058865Y-4792454D01*
X18145859Y-4665134D01*
X18176464Y-4514000D01*
X18176464Y-3614000D01*
X18149897Y-3472810D01*
X18066454Y-3343135D01*
X17939134Y-3256141D01*
X17788000Y-3225536D01*
X17288000Y-3225536D01*
X17146810Y-3252103D01*
X17017135Y-3335546D01*
X16981125Y-3388248D01*
X16817862Y-3224700D01*
X16453907Y-3073572D01*
X16059822Y-3073228D01*
X15695603Y-3223721D01*
X15416700Y-3502138D01*
X15265572Y-3866093D01*
X15265228Y-4260178D01*
X4275691Y-4260178D01*
X4662039Y-3874505D01*
X4952668Y-3174590D01*
X4953330Y-2416735D01*
X4663922Y-1716314D01*
X4128505Y-1179961D01*
X3428590Y-889332D01*
X2670735Y-888670D01*
X1970314Y-1178078D01*
X1433961Y-1713495D01*
X1143332Y-2413410D01*
X1142670Y-3171265D01*
X456000Y-3171265D01*
X456000Y-456000D01*
X26797000Y-456000D01*
X26797000Y-10036580D01*
X26797000Y-10036580D01*
G37*
X26797000Y-10036580D02*
X26373210Y-9612790D01*
X26208403Y-9502669D01*
X26106882Y-9482475D01*
X26038454Y-9376135D01*
X25911134Y-9289141D01*
X25760000Y-9258536D01*
X25642000Y-9258536D01*
X25642000Y-8617142D01*
X25675190Y-8610897D01*
X25804865Y-8527454D01*
X25891859Y-8400134D01*
X25922464Y-8249000D01*
X25922464Y-7499000D01*
X25895897Y-7357810D01*
X25812454Y-7228135D01*
X25685134Y-7141141D01*
X25534000Y-7110536D01*
X24958319Y-7110536D01*
X24362572Y-6514790D01*
X24197765Y-6404669D01*
X24003362Y-6366000D01*
X21786000Y-6366000D01*
X21591597Y-6404669D01*
X21426790Y-6514789D01*
X21202043Y-6739536D01*
X20632000Y-6739536D01*
X20490810Y-6766103D01*
X20361135Y-6849546D01*
X20274141Y-6976866D01*
X20272494Y-6985000D01*
X20024906Y-6985000D01*
X19984454Y-6922135D01*
X19857134Y-6835141D01*
X19706000Y-6804536D01*
X19546000Y-6804536D01*
X19546000Y-6585142D01*
X19579190Y-6578897D01*
X19708865Y-6495454D01*
X19795859Y-6368134D01*
X19826464Y-6217000D01*
X19826464Y-5467000D01*
X19799897Y-5325810D01*
X19716454Y-5196135D01*
X19589134Y-5109141D01*
X19546000Y-5100406D01*
X19546000Y-4800732D01*
X19558865Y-4792454D01*
X19645859Y-4665134D01*
X19676464Y-4514000D01*
X19676464Y-3614000D01*
X19649897Y-3472810D01*
X19566454Y-3343135D01*
X19439134Y-3256141D01*
X19288000Y-3225536D01*
X18788000Y-3225536D01*
X18646810Y-3252103D01*
X18517135Y-3335546D01*
X18430141Y-3462866D01*
X18399536Y-3614000D01*
X18399536Y-4514000D01*
X18426103Y-4655190D01*
X18509546Y-4784865D01*
X18530000Y-4798841D01*
X18530000Y-5098858D01*
X18496810Y-5105103D01*
X18367135Y-5188546D01*
X18280141Y-5315866D01*
X18249536Y-5467000D01*
X18249536Y-6217000D01*
X18276103Y-6358190D01*
X18359546Y-6487865D01*
X18486866Y-6574859D01*
X18530000Y-6583594D01*
X18530000Y-6804536D01*
X18206000Y-6804536D01*
X18064810Y-6831103D01*
X17935135Y-6914546D01*
X17848141Y-7041866D01*
X17817536Y-7193000D01*
X17817536Y-7793000D01*
X17844103Y-7934190D01*
X17927546Y-8063865D01*
X18022187Y-8128530D01*
X17935135Y-8184546D01*
X17886996Y-8255000D01*
X16339420Y-8255000D01*
X15748000Y-7663580D01*
X15748000Y-7532638D01*
X15709331Y-7338235D01*
X15599210Y-7173428D01*
X14162572Y-5736790D01*
X13997765Y-5626669D01*
X13803362Y-5588000D01*
X9505550Y-5588000D01*
X9489897Y-5504810D01*
X9406454Y-5375135D01*
X9279134Y-5288141D01*
X9128000Y-5257536D01*
X8628000Y-5257536D01*
X8486810Y-5284103D01*
X8357135Y-5367546D01*
X8270141Y-5494866D01*
X8239536Y-5646000D01*
X8239536Y-6546000D01*
X8266103Y-6687190D01*
X8349546Y-6816865D01*
X8476866Y-6903859D01*
X8628000Y-6934464D01*
X9128000Y-6934464D01*
X9269190Y-6907897D01*
X9398865Y-6824454D01*
X9485859Y-6697134D01*
X9504719Y-6604000D01*
X13592942Y-6604000D01*
X13793478Y-6804536D01*
X12806000Y-6804536D01*
X12664810Y-6831103D01*
X12535135Y-6914546D01*
X12448141Y-7041866D01*
X12433939Y-7112000D01*
X12299550Y-7112000D01*
X12283897Y-7028810D01*
X12200454Y-6899135D01*
X12073134Y-6812141D01*
X11922000Y-6781536D01*
X11422000Y-6781536D01*
X11280810Y-6808103D01*
X11151135Y-6891546D01*
X11064141Y-7018866D01*
X11033536Y-7170000D01*
X11033536Y-8070000D01*
X11060103Y-8211190D01*
X11143546Y-8340865D01*
X11203749Y-8382000D01*
X10640733Y-8382000D01*
X10692865Y-8348454D01*
X10779859Y-8221134D01*
X10810464Y-8070000D01*
X10810464Y-7170000D01*
X10783897Y-7028810D01*
X10700454Y-6899135D01*
X10573134Y-6812141D01*
X10422000Y-6781536D01*
X9922000Y-6781536D01*
X9780810Y-6808103D01*
X9651135Y-6891546D01*
X9564141Y-7018866D01*
X9545281Y-7112000D01*
X3547993Y-7112000D01*
X3541977Y-7080030D01*
X3458534Y-6950355D01*
X3331214Y-6863361D01*
X3180080Y-6832756D01*
X2382520Y-6832756D01*
X2241330Y-6859323D01*
X2111655Y-6942766D01*
X2024661Y-7070086D01*
X1994056Y-7221220D01*
X1994056Y-8018780D01*
X2020623Y-8159970D01*
X2104066Y-8289645D01*
X2231386Y-8376639D01*
X2382520Y-8407244D01*
X3180080Y-8407244D01*
X3321270Y-8380677D01*
X3450945Y-8297234D01*
X3537939Y-8169914D01*
X3546427Y-8128000D01*
X5296361Y-8128000D01*
X5289330Y-8129323D01*
X5159655Y-8212766D01*
X5072661Y-8340086D01*
X5042056Y-8491220D01*
X5042056Y-9288780D01*
X5068623Y-9429970D01*
X5152066Y-9559645D01*
X5279386Y-9646639D01*
X5305860Y-9652000D01*
X3547993Y-9652000D01*
X3541977Y-9620030D01*
X3458534Y-9490355D01*
X3331214Y-9403361D01*
X3180080Y-9372756D01*
X2382520Y-9372756D01*
X2241330Y-9399323D01*
X2111655Y-9482766D01*
X2024661Y-9610086D01*
X1994056Y-9761220D01*
X1994056Y-10558780D01*
X2020623Y-10699970D01*
X2104066Y-10829645D01*
X2231386Y-10916639D01*
X2382520Y-10947244D01*
X3180080Y-10947244D01*
X3321270Y-10920677D01*
X3450945Y-10837234D01*
X3537939Y-10709914D01*
X3546427Y-10668000D01*
X5296361Y-10668000D01*
X5289330Y-10669323D01*
X5159655Y-10752766D01*
X5072661Y-10880086D01*
X5042056Y-11031220D01*
X5042056Y-11828780D01*
X5068623Y-11969970D01*
X5152066Y-12099645D01*
X5279386Y-12186639D01*
X5305860Y-12192000D01*
X3547993Y-12192000D01*
X3541977Y-12160030D01*
X3458534Y-12030355D01*
X3331214Y-11943361D01*
X3180080Y-11912756D01*
X2382520Y-11912756D01*
X2241330Y-11939323D01*
X2111655Y-12022766D01*
X2024661Y-12150086D01*
X1994056Y-12301220D01*
X1994056Y-13098780D01*
X2020623Y-13239970D01*
X2104066Y-13369645D01*
X2231386Y-13456639D01*
X2382520Y-13487244D01*
X3180080Y-13487244D01*
X3321270Y-13460677D01*
X3450945Y-13377234D01*
X3537939Y-13249914D01*
X3546427Y-13208000D01*
X5296361Y-13208000D01*
X5289330Y-13209323D01*
X5159655Y-13292766D01*
X5072661Y-13420086D01*
X5042056Y-13571220D01*
X5042056Y-14368780D01*
X5068623Y-14509970D01*
X5152066Y-14639645D01*
X5279386Y-14726639D01*
X5305860Y-14732000D01*
X3547993Y-14732000D01*
X3541977Y-14700030D01*
X3458534Y-14570355D01*
X3331214Y-14483361D01*
X3180080Y-14452756D01*
X2382520Y-14452756D01*
X2241330Y-14479323D01*
X2111655Y-14562766D01*
X2024661Y-14690086D01*
X1994056Y-14841220D01*
X1994056Y-15638780D01*
X2020623Y-15779970D01*
X2104066Y-15909645D01*
X2231386Y-15996639D01*
X2382520Y-16027244D01*
X3180080Y-16027244D01*
X3321270Y-16000677D01*
X3450945Y-15917234D01*
X3537939Y-15789914D01*
X3546427Y-15748000D01*
X9544450Y-15748000D01*
X9560103Y-15831190D01*
X9643546Y-15960865D01*
X9770866Y-16047859D01*
X9922000Y-16078464D01*
X10422000Y-16078464D01*
X10563190Y-16051897D01*
X10692865Y-15968454D01*
X10779859Y-15841134D01*
X10810464Y-15690000D01*
X10810464Y-14790000D01*
X10783897Y-14648810D01*
X10700454Y-14519135D01*
X10640251Y-14478000D01*
X11203267Y-14478000D01*
X11151135Y-14511546D01*
X11064141Y-14638866D01*
X11033536Y-14790000D01*
X11033536Y-15690000D01*
X11060103Y-15831190D01*
X11143546Y-15960865D01*
X11270866Y-16047859D01*
X11422000Y-16078464D01*
X11922000Y-16078464D01*
X12063190Y-16051897D01*
X12192865Y-15968454D01*
X12279859Y-15841134D01*
X12298719Y-15748000D01*
X12621411Y-15748000D01*
X12654866Y-15770859D01*
X12806000Y-15801464D01*
X14306000Y-15801464D01*
X14447190Y-15774897D01*
X14576865Y-15691454D01*
X14663859Y-15564134D01*
X14694464Y-15413000D01*
X14694464Y-14813000D01*
X14667897Y-14671810D01*
X14584454Y-14542135D01*
X14489813Y-14477470D01*
X14576865Y-14421454D01*
X14663859Y-14294134D01*
X14694464Y-14143000D01*
X14694464Y-13543000D01*
X14667897Y-13401810D01*
X14584454Y-13272135D01*
X14489813Y-13207470D01*
X14576865Y-13151454D01*
X14663859Y-13024134D01*
X14694464Y-12873000D01*
X14694464Y-12273000D01*
X14667897Y-12131810D01*
X14584454Y-12002135D01*
X14489813Y-11937470D01*
X14576865Y-11881454D01*
X14663859Y-11754134D01*
X14694464Y-11603000D01*
X14694464Y-11003000D01*
X14667897Y-10861810D01*
X14584454Y-10732135D01*
X14489813Y-10667470D01*
X14576865Y-10611454D01*
X14663859Y-10484134D01*
X14694464Y-10333000D01*
X14694464Y-9733000D01*
X14667897Y-9591810D01*
X14584454Y-9462135D01*
X14489813Y-9397470D01*
X14576865Y-9341454D01*
X14663859Y-9214134D01*
X14694464Y-9063000D01*
X14694464Y-8463000D01*
X14667897Y-8321810D01*
X14584454Y-8192135D01*
X14489813Y-8127470D01*
X14576865Y-8071454D01*
X14663859Y-7944134D01*
X14694464Y-7793000D01*
X14694464Y-7705522D01*
X14732000Y-7743058D01*
X14732000Y-7874000D01*
X14770669Y-8068403D01*
X14880790Y-8233210D01*
X15769790Y-9122210D01*
X15934597Y-9232331D01*
X16129000Y-9271000D01*
X17887094Y-9271000D01*
X17927546Y-9333865D01*
X18022187Y-9398530D01*
X17976255Y-9428086D01*
X17825000Y-9398000D01*
X16764000Y-9398000D01*
X16569597Y-9436669D01*
X16404790Y-9546790D01*
X15998266Y-9953314D01*
X15945907Y-9931572D01*
X15551822Y-9931228D01*
X15187603Y-10081721D01*
X14908700Y-10360138D01*
X14757572Y-10724093D01*
X14757228Y-11118178D01*
X14907721Y-11482397D01*
X15186138Y-11761300D01*
X15550093Y-11912428D01*
X15586608Y-11912460D01*
X15388790Y-12110278D01*
X15278669Y-12275085D01*
X15240000Y-12469488D01*
X15240000Y-18288000D01*
X15278669Y-18482403D01*
X15388790Y-18647210D01*
X18542000Y-21800420D01*
X18542000Y-23589579D01*
X18210790Y-23920790D01*
X18100669Y-24085597D01*
X18088746Y-24145536D01*
X17945000Y-24145536D01*
X17902445Y-24153543D01*
X17987532Y-24026202D01*
X18026201Y-23831799D01*
X18026201Y-22598201D01*
X17987532Y-22403798D01*
X17982141Y-22395730D01*
X17877412Y-22238991D01*
X17224809Y-21586389D01*
X17060002Y-21476268D01*
X16992490Y-21462839D01*
X16992772Y-21139822D01*
X16842279Y-20775603D01*
X16563862Y-20496700D01*
X16199907Y-20345572D01*
X15805822Y-20345228D01*
X15441603Y-20495721D01*
X15162700Y-20774138D01*
X15011572Y-21138093D01*
X15011228Y-21532178D01*
X15161721Y-21896397D01*
X15440138Y-22175300D01*
X15804093Y-22326428D01*
X16198178Y-22326772D01*
X16252080Y-22304500D01*
X16252389Y-22304809D01*
X16335584Y-22360399D01*
X16246810Y-22377103D01*
X16117135Y-22460546D01*
X16030141Y-22587866D01*
X15999536Y-22739000D01*
X15999536Y-23489000D01*
X16026103Y-23630190D01*
X16062000Y-23685976D01*
X16062000Y-24507018D01*
X16056536Y-24534000D01*
X16056536Y-25534000D01*
X16062000Y-25563038D01*
X16062000Y-26083408D01*
X16100669Y-26277811D01*
X16210790Y-26442618D01*
X17071415Y-27303243D01*
X17100511Y-27449519D01*
X17210632Y-27614326D01*
X18149515Y-28553210D01*
X18233011Y-28609000D01*
X18314323Y-28663331D01*
X18508726Y-28702000D01*
X18950071Y-28702000D01*
X18971721Y-28754397D01*
X19250138Y-29033300D01*
X19614093Y-29184428D01*
X20008178Y-29184772D01*
X20372397Y-29034279D01*
X20651300Y-28755862D01*
X20802428Y-28391907D01*
X20802772Y-27997822D01*
X20652279Y-27633603D01*
X20373862Y-27354700D01*
X20186186Y-27276770D01*
X20399928Y-27188453D01*
X20421079Y-27239643D01*
X20699496Y-27518546D01*
X21063451Y-27669674D01*
X21457536Y-27670018D01*
X21821755Y-27519525D01*
X22100658Y-27241108D01*
X22251786Y-26877153D01*
X22252069Y-26553092D01*
X22323025Y-26538978D01*
X22487832Y-26428857D01*
X22929210Y-25987479D01*
X23039331Y-25822672D01*
X23062000Y-25708707D01*
X23062000Y-25989092D01*
X23100669Y-26183495D01*
X23210790Y-26348302D01*
X23261849Y-26399361D01*
X23279657Y-26488890D01*
X23291802Y-26507066D01*
X23291802Y-26911365D01*
X22766790Y-27436377D01*
X22656669Y-27601184D01*
X22618000Y-27795587D01*
X22618000Y-29911672D01*
X22606000Y-29972000D01*
X22606000Y-31720774D01*
X22405862Y-31520287D01*
X22041907Y-31369159D01*
X21647822Y-31368815D01*
X21283603Y-31519308D01*
X21004700Y-31797725D01*
X20853572Y-32161680D01*
X20853228Y-32555765D01*
X20875500Y-32609667D01*
X20875191Y-32609976D01*
X20783550Y-32747126D01*
X20673526Y-32480850D01*
X20395109Y-32201947D01*
X20287374Y-32157212D01*
X20405272Y-32108497D01*
X20684175Y-31830080D01*
X20835303Y-31466125D01*
X20835647Y-31072040D01*
X20685154Y-30707821D01*
X20406737Y-30428918D01*
X20042782Y-30277790D01*
X19648697Y-30277446D01*
X19284478Y-30427939D01*
X19005575Y-30706356D01*
X18854447Y-31070311D01*
X18854103Y-31464396D01*
X18876375Y-31518298D01*
X18441462Y-31953211D01*
X16781247Y-31953211D01*
X16934877Y-31889732D01*
X17213780Y-31611315D01*
X17364908Y-31247360D01*
X17365252Y-30853275D01*
X17280135Y-30647278D01*
X17498081Y-30865604D01*
X17862036Y-31016732D01*
X18256121Y-31017076D01*
X18620340Y-30866583D01*
X18899243Y-30588166D01*
X19050371Y-30224211D01*
X19050715Y-29830126D01*
X18900222Y-29465907D01*
X18621805Y-29187004D01*
X18257850Y-29035876D01*
X17863765Y-29035532D01*
X17809863Y-29057804D01*
X16876849Y-28124790D01*
X16712042Y-28014669D01*
X16517639Y-27976000D01*
X15508464Y-27976000D01*
X15508464Y-27965254D01*
X15568403Y-27953331D01*
X15733210Y-27843210D01*
X15853211Y-27723210D01*
X15963331Y-27558403D01*
X16002000Y-27364000D01*
X16002000Y-26752550D01*
X15963331Y-26558147D01*
X15962868Y-26557454D01*
X15853211Y-26393340D01*
X11622484Y-22162614D01*
X11869420Y-22162614D01*
X12010610Y-22136047D01*
X12140285Y-22052604D01*
X12227279Y-21925284D01*
X12257884Y-21774150D01*
X12257884Y-21082000D01*
X12718858Y-21082000D01*
X12725103Y-21115190D01*
X12808546Y-21244865D01*
X12935866Y-21331859D01*
X13087000Y-21362464D01*
X13837000Y-21362464D01*
X13978190Y-21335897D01*
X14107865Y-21252454D01*
X14194859Y-21125134D01*
X14225464Y-20974000D01*
X14225464Y-20174000D01*
X14198897Y-20032810D01*
X14115454Y-19903135D01*
X13988134Y-19816141D01*
X13837000Y-19785536D01*
X13087000Y-19785536D01*
X12945810Y-19812103D01*
X12816135Y-19895546D01*
X12729141Y-20022866D01*
X12720406Y-20066000D01*
X12257884Y-20066000D01*
X12257884Y-19373850D01*
X12231317Y-19232660D01*
X12147874Y-19102985D01*
X12020554Y-19015991D01*
X11869420Y-18985386D01*
X9669780Y-18985386D01*
X9528590Y-19011953D01*
X9398915Y-19095396D01*
X9311921Y-19222716D01*
X9281316Y-19373850D01*
X9281316Y-21774150D01*
X9307883Y-21915340D01*
X9391326Y-22045015D01*
X9518646Y-22132009D01*
X9669780Y-22162614D01*
X10288346Y-22162614D01*
X10300269Y-22222553D01*
X10410390Y-22387360D01*
X14986000Y-26962971D01*
X14986000Y-26970536D01*
X14190903Y-26970536D01*
X14093412Y-26824629D01*
X11039572Y-23770790D01*
X10874765Y-23660669D01*
X10680362Y-23622000D01*
X6782670Y-23622000D01*
X5323284Y-22162614D01*
X5570220Y-22162614D01*
X5711410Y-22136047D01*
X5841085Y-22052604D01*
X5928079Y-21925284D01*
X5958684Y-21774150D01*
X5958684Y-19373850D01*
X5932117Y-19232660D01*
X5848674Y-19102985D01*
X5721354Y-19015991D01*
X5570220Y-18985386D01*
X3370580Y-18985386D01*
X3229390Y-19011953D01*
X3099715Y-19095396D01*
X3012721Y-19222716D01*
X2982116Y-19373850D01*
X2982116Y-20078000D01*
X2521142Y-20078000D01*
X2514897Y-20044810D01*
X2431454Y-19915135D01*
X2304134Y-19828141D01*
X2153000Y-19797536D01*
X1403000Y-19797536D01*
X1261810Y-19824103D01*
X1132135Y-19907546D01*
X1045141Y-20034866D01*
X1014536Y-20186000D01*
X1014536Y-20986000D01*
X1041103Y-21127190D01*
X1124546Y-21256865D01*
X1251866Y-21343859D01*
X1403000Y-21374464D01*
X2153000Y-21374464D01*
X2294190Y-21347897D01*
X2423865Y-21264454D01*
X2510859Y-21137134D01*
X2519594Y-21094000D01*
X2982116Y-21094000D01*
X2982116Y-21774150D01*
X3008683Y-21915340D01*
X3092126Y-22045015D01*
X3219446Y-22132009D01*
X3370580Y-22162614D01*
X3989146Y-22162614D01*
X4001069Y-22222553D01*
X4111190Y-22387360D01*
X6213040Y-24489210D01*
X6377847Y-24599331D01*
X6572250Y-24638000D01*
X10469942Y-24638000D01*
X13226201Y-27394260D01*
X13226201Y-27852201D01*
X13250826Y-27976000D01*
X11648000Y-27976000D01*
X11453597Y-28014669D01*
X11288790Y-28124790D01*
X11246044Y-28167536D01*
X10801000Y-28167536D01*
X10659810Y-28194103D01*
X10530135Y-28277546D01*
X10443141Y-28404866D01*
X10412536Y-28556000D01*
X10412536Y-29356000D01*
X10435116Y-29476000D01*
X10145451Y-29476000D01*
X10128343Y-29464569D01*
X10055039Y-29449988D01*
X10068404Y-29383990D01*
X10068404Y-28883610D01*
X10041837Y-28742420D01*
X9958394Y-28612745D01*
X9831074Y-28525751D01*
X9679940Y-28495146D01*
X7378700Y-28495146D01*
X7237510Y-28521713D01*
X7194172Y-28549600D01*
X6972300Y-28549600D01*
X6761430Y-28591545D01*
X6761624Y-28369872D01*
X6635442Y-28064489D01*
X6402000Y-27830639D01*
X6096837Y-27703925D01*
X5766412Y-27703636D01*
X5461029Y-27829818D01*
X5227179Y-28063260D01*
X5100465Y-28368423D01*
X5100176Y-28698848D01*
X5226358Y-29004231D01*
X5459800Y-29238081D01*
X5764963Y-29364795D01*
X5914990Y-29364926D01*
X5239192Y-30040724D01*
X4878741Y-30040409D01*
X4514522Y-30190902D01*
X4235619Y-30469319D01*
X4084491Y-30833274D01*
X4084147Y-31227359D01*
X4234640Y-31591578D01*
X4513057Y-31870481D01*
X4877012Y-32021609D01*
X5271097Y-32021953D01*
X5635316Y-31871460D01*
X5914219Y-31593043D01*
X6065347Y-31229088D01*
X6065663Y-30866621D01*
X6990236Y-29942048D01*
X6990236Y-30184090D01*
X7016803Y-30325280D01*
X7021212Y-30332132D01*
X7020841Y-30332676D01*
X6990236Y-30483810D01*
X6990236Y-30984190D01*
X7016803Y-31125380D01*
X7021212Y-31132232D01*
X7020841Y-31132776D01*
X6990236Y-31283910D01*
X6990236Y-31784290D01*
X7016803Y-31925480D01*
X7100246Y-32055155D01*
X7227566Y-32142149D01*
X7378700Y-32172754D01*
X9679940Y-32172754D01*
X9821130Y-32146187D01*
X9950805Y-32062744D01*
X10037799Y-31935424D01*
X10068404Y-31784290D01*
X10068404Y-31283910D01*
X10055951Y-31217731D01*
X10128343Y-31203331D01*
X10293150Y-31093210D01*
X10394360Y-30992000D01*
X10436026Y-30992000D01*
X10412536Y-31108000D01*
X10412536Y-31908000D01*
X10439103Y-32049190D01*
X10522546Y-32178865D01*
X10649866Y-32265859D01*
X10801000Y-32296464D01*
X11221044Y-32296464D01*
X11521991Y-32597411D01*
X11686798Y-32707532D01*
X11881201Y-32746201D01*
X13409781Y-32746201D01*
X13506790Y-32843210D01*
X13671596Y-32953331D01*
X13703850Y-32959746D01*
X13810462Y-32980953D01*
X13640959Y-33014669D01*
X13476152Y-33124790D01*
X13068942Y-33532000D01*
X12896000Y-33532000D01*
X12701597Y-33570669D01*
X12536790Y-33680789D01*
X12312043Y-33905536D01*
X11742000Y-33905536D01*
X11600810Y-33932103D01*
X11471135Y-34015546D01*
X11384141Y-34142866D01*
X11353536Y-34294000D01*
X11353536Y-34794000D01*
X11380103Y-34935190D01*
X11463546Y-35064865D01*
X11590866Y-35151859D01*
X11742000Y-35182464D01*
X12642000Y-35182464D01*
X12783190Y-35155897D01*
X12912865Y-35072454D01*
X12999859Y-34945134D01*
X13030464Y-34794000D01*
X13030464Y-34623957D01*
X13106421Y-34548000D01*
X13279362Y-34548000D01*
X13473765Y-34509331D01*
X13638572Y-34399210D01*
X13744931Y-34292851D01*
X13731536Y-34359000D01*
X13731536Y-34609000D01*
X13758103Y-34750190D01*
X13808549Y-34828585D01*
X13638700Y-34998138D01*
X13487572Y-35362093D01*
X13487228Y-35756178D01*
X13637721Y-36120397D01*
X13916138Y-36399300D01*
X14280093Y-36550428D01*
X14674178Y-36550772D01*
X15038397Y-36400279D01*
X15317300Y-36121862D01*
X15422884Y-35867589D01*
X15422884Y-37208804D01*
X15183907Y-37109572D01*
X14789822Y-37109228D01*
X14735920Y-37131500D01*
X14329210Y-36724790D01*
X14164403Y-36614669D01*
X13970000Y-36576000D01*
X12907354Y-36576000D01*
X12912865Y-36572454D01*
X12999859Y-36445134D01*
X13030464Y-36294000D01*
X13030464Y-35794000D01*
X13003897Y-35652810D01*
X12920454Y-35523135D01*
X12793134Y-35436141D01*
X12642000Y-35405536D01*
X11742000Y-35405536D01*
X11600810Y-35432103D01*
X11471135Y-35515546D01*
X11384141Y-35642866D01*
X11353536Y-35794000D01*
X11353536Y-36294000D01*
X11380103Y-36435190D01*
X11463546Y-36564865D01*
X11590866Y-36651859D01*
X11684000Y-36670719D01*
X11684000Y-36830000D01*
X11722669Y-37024403D01*
X11832790Y-37189210D01*
X12086790Y-37443210D01*
X12251596Y-37553331D01*
X12283850Y-37559746D01*
X12446000Y-37592000D01*
X13759580Y-37592000D01*
X14017314Y-37849734D01*
X13995572Y-37902093D01*
X13995228Y-38296178D01*
X14145721Y-38660397D01*
X14424138Y-38939300D01*
X14788093Y-39090428D01*
X15182178Y-39090772D01*
X15546397Y-38940279D01*
X15647763Y-38839089D01*
X16941799Y-40133125D01*
X16941799Y-42069799D01*
X16980468Y-42264202D01*
X17090589Y-42429009D01*
X17782536Y-43120956D01*
X17782536Y-43791000D01*
X17809103Y-43932190D01*
X17892546Y-44061865D01*
X18019866Y-44148859D01*
X18171000Y-44179464D01*
X18211800Y-44179464D01*
X18211800Y-45847536D01*
X18171000Y-45847536D01*
X18029810Y-45874103D01*
X17900135Y-45957546D01*
X17813141Y-46084866D01*
X17782536Y-46236000D01*
X17782536Y-47236000D01*
X17809103Y-47377190D01*
X17892546Y-47506865D01*
X18019866Y-47593859D01*
X18171000Y-47624464D01*
X19314116Y-47624464D01*
X19313580Y-47625000D01*
X16455183Y-47625000D01*
X16514190Y-47613897D01*
X16643865Y-47530454D01*
X16730859Y-47403134D01*
X16761464Y-47252000D01*
X16761464Y-46252000D01*
X16734897Y-46110810D01*
X16651454Y-45981135D01*
X16524134Y-45894141D01*
X16373000Y-45863536D01*
X16332200Y-45863536D01*
X16332200Y-44179464D01*
X16373000Y-44179464D01*
X16514190Y-44152897D01*
X16643865Y-44069454D01*
X16730859Y-43942134D01*
X16761464Y-43791000D01*
X16761464Y-42791000D01*
X16734897Y-42649810D01*
X16651454Y-42520135D01*
X16524134Y-42433141D01*
X16373000Y-42402536D01*
X15942956Y-42402536D01*
X13878584Y-40338164D01*
X13878584Y-40320324D01*
X13930981Y-40298674D01*
X14209884Y-40020257D01*
X14361012Y-39656302D01*
X14361356Y-39262217D01*
X14210863Y-38897998D01*
X13932446Y-38619095D01*
X13568491Y-38467967D01*
X13174406Y-38467623D01*
X12810187Y-38618116D01*
X12531284Y-38896533D01*
X12380156Y-39260488D01*
X12379812Y-39654573D01*
X12530305Y-40018792D01*
X12808722Y-40297695D01*
X12862584Y-40320061D01*
X12862584Y-40548584D01*
X12901253Y-40742987D01*
X13011374Y-40907794D01*
X14761488Y-42657908D01*
X14734536Y-42791000D01*
X14734536Y-43791000D01*
X14761103Y-43932190D01*
X14844546Y-44061865D01*
X14971866Y-44148859D01*
X15123000Y-44179464D01*
X15163800Y-44179464D01*
X15163800Y-45863536D01*
X15123000Y-45863536D01*
X14981810Y-45890103D01*
X14852135Y-45973546D01*
X14765141Y-46100866D01*
X14734536Y-46252000D01*
X14734536Y-47252000D01*
X14761103Y-47393190D01*
X14844546Y-47522865D01*
X14971866Y-47609859D01*
X15046635Y-47625000D01*
X14889816Y-47625000D01*
X14351000Y-47086184D01*
X14351000Y-44196000D01*
X14322997Y-44052633D01*
X14239408Y-43926592D01*
X13985408Y-43672592D01*
X13864230Y-43591017D01*
X13716000Y-43561000D01*
X12095816Y-43561000D01*
X12065000Y-43530184D01*
X12065000Y-40894000D01*
X12038944Y-40755523D01*
X11957104Y-40628340D01*
X11832230Y-40543017D01*
X11684000Y-40513000D01*
X9652000Y-40513000D01*
X9513523Y-40539056D01*
X9386340Y-40620896D01*
X9301017Y-40745770D01*
X9271000Y-40894000D01*
X9271000Y-41033281D01*
X9246454Y-40995135D01*
X9119134Y-40908141D01*
X8968000Y-40877536D01*
X8952200Y-40877536D01*
X8952200Y-40549771D01*
X9047190Y-40531897D01*
X9176865Y-40448454D01*
X9263859Y-40321134D01*
X9294464Y-40170000D01*
X9294464Y-38570000D01*
X9267897Y-38428810D01*
X9184454Y-38299135D01*
X9057134Y-38212141D01*
X8906000Y-38181536D01*
X7906000Y-38181536D01*
X7764810Y-38208103D01*
X7635135Y-38291546D01*
X7548141Y-38418866D01*
X7517536Y-38570000D01*
X7517536Y-38785800D01*
X7320943Y-38785800D01*
X7257454Y-38687135D01*
X7130134Y-38600141D01*
X6979000Y-38569536D01*
X6229000Y-38569536D01*
X6087810Y-38596103D01*
X5958135Y-38679546D01*
X5871141Y-38806866D01*
X5840536Y-38958000D01*
X5840536Y-39758000D01*
X5867103Y-39899190D01*
X5950546Y-40028865D01*
X6077866Y-40115859D01*
X6229000Y-40146464D01*
X6979000Y-40146464D01*
X7120190Y-40119897D01*
X7249865Y-40036454D01*
X7306067Y-39954200D01*
X7517536Y-39954200D01*
X7517536Y-40170000D01*
X7544103Y-40311190D01*
X7627546Y-40440865D01*
X7754866Y-40527859D01*
X7783800Y-40533718D01*
X7783800Y-40877536D01*
X7768000Y-40877536D01*
X7626810Y-40904103D01*
X7497135Y-40987546D01*
X7410141Y-41114866D01*
X7379536Y-41266000D01*
X7379536Y-41781800D01*
X5896517Y-41781800D01*
X5641862Y-41526700D01*
X5277907Y-41375572D01*
X4883822Y-41375228D01*
X4519603Y-41525721D01*
X4263077Y-41781800D01*
X3354005Y-41781800D01*
X3354000Y-41781799D01*
X3130437Y-41826269D01*
X3085735Y-41856138D01*
X2940908Y-41952908D01*
X2940906Y-41952911D01*
X2380908Y-42512908D01*
X2254270Y-42702436D01*
X2209800Y-42926000D01*
X2209800Y-53086000D01*
X2254270Y-53309564D01*
X2274607Y-53340000D01*
X2311769Y-53395618D01*
X2311572Y-53396093D01*
X2311228Y-53790178D01*
X2461721Y-54154397D01*
X2740138Y-54433300D01*
X3104093Y-54584428D01*
X3498178Y-54584772D01*
X3862397Y-54434279D01*
X4141300Y-54155862D01*
X4292428Y-53791907D01*
X4292490Y-53721000D01*
X19558000Y-53721000D01*
X19696477Y-53694944D01*
X19823660Y-53613104D01*
X19908983Y-53488230D01*
X19939000Y-53340000D01*
X19939000Y-48436420D01*
X20679210Y-47696210D01*
X20789331Y-47531403D01*
X20828000Y-47337000D01*
X20828000Y-43279929D01*
X20880397Y-43258279D01*
X21159300Y-42979862D01*
X21310428Y-42615907D01*
X21310772Y-42221822D01*
X21160279Y-41857603D01*
X20881862Y-41578700D01*
X20517907Y-41427572D01*
X20123822Y-41427228D01*
X19759603Y-41577721D01*
X19480700Y-41856138D01*
X19329572Y-42220093D01*
X19329413Y-42402536D01*
X18500956Y-42402536D01*
X17957799Y-41859379D01*
X17957799Y-39922705D01*
X17944304Y-39854859D01*
X17919130Y-39728301D01*
X17809009Y-39563495D01*
X17300584Y-39055070D01*
X17578397Y-38940279D01*
X17581324Y-38937357D01*
X17621546Y-38999865D01*
X17748866Y-39086859D01*
X17900000Y-39117464D01*
X18700000Y-39117464D01*
X18841190Y-39090897D01*
X18970865Y-39007454D01*
X19057859Y-38880134D01*
X19088464Y-38729000D01*
X19088464Y-37979000D01*
X19061897Y-37837810D01*
X18978454Y-37708135D01*
X18851134Y-37621141D01*
X18700000Y-37590536D01*
X18578000Y-37590536D01*
X18578000Y-37322464D01*
X18695000Y-37322464D01*
X18824588Y-37298080D01*
X18945000Y-37322464D01*
X19195000Y-37322464D01*
X19324588Y-37298080D01*
X19445000Y-37322464D01*
X19695000Y-37322464D01*
X19824588Y-37298080D01*
X19945000Y-37322464D01*
X20195000Y-37322464D01*
X20336190Y-37295897D01*
X20465865Y-37212454D01*
X20552859Y-37085134D01*
X20569506Y-37002928D01*
X20583103Y-37075190D01*
X20666546Y-37204865D01*
X20793866Y-37291859D01*
X20945000Y-37322464D01*
X21195000Y-37322464D01*
X21324588Y-37298080D01*
X21445000Y-37322464D01*
X21695000Y-37322464D01*
X21824588Y-37298080D01*
X21945000Y-37322464D01*
X22195000Y-37322464D01*
X22324588Y-37298080D01*
X22445000Y-37322464D01*
X22695000Y-37322464D01*
X22824588Y-37298080D01*
X22945000Y-37322464D01*
X23062000Y-37322464D01*
X23062000Y-37621485D01*
X22939135Y-37700546D01*
X22852141Y-37827866D01*
X22821536Y-37979000D01*
X22821536Y-38729000D01*
X22848103Y-38870190D01*
X22871316Y-38906264D01*
X22409044Y-39368536D01*
X21964000Y-39368536D01*
X21822810Y-39395103D01*
X21693135Y-39478546D01*
X21606141Y-39605866D01*
X21575536Y-39757000D01*
X21575536Y-40507000D01*
X21602103Y-40648190D01*
X21685546Y-40777865D01*
X21717000Y-40799357D01*
X21717000Y-41176194D01*
X21700135Y-41187046D01*
X21613141Y-41314366D01*
X21582536Y-41465500D01*
X21582536Y-42608500D01*
X21609103Y-42749690D01*
X21692546Y-42879365D01*
X21717000Y-42896074D01*
X21717000Y-44425418D01*
X21416624Y-44549531D01*
X21137721Y-44827948D01*
X20986593Y-45191903D01*
X20986249Y-45585988D01*
X21136742Y-45950207D01*
X21415159Y-46229110D01*
X21779114Y-46380238D01*
X22173199Y-46380582D01*
X22377561Y-46296141D01*
X22377228Y-46678178D01*
X22527721Y-47042397D01*
X22806138Y-47321300D01*
X22860000Y-47343666D01*
X22860000Y-47775833D01*
X22840897Y-47674310D01*
X22757454Y-47544635D01*
X22630134Y-47457641D01*
X22479000Y-47427036D01*
X21971000Y-47427036D01*
X21829810Y-47453603D01*
X21700135Y-47537046D01*
X21613141Y-47664366D01*
X21582536Y-47815500D01*
X21582536Y-48958500D01*
X21609103Y-49099690D01*
X21640800Y-49148949D01*
X21640800Y-49899000D01*
X21685270Y-50122564D01*
X21751621Y-50221866D01*
X21811908Y-50312092D01*
X21829536Y-50329720D01*
X21829536Y-50667000D01*
X21856103Y-50808190D01*
X21939546Y-50937865D01*
X22033800Y-51002266D01*
X22033800Y-52653647D01*
X21791603Y-52753721D01*
X21512700Y-53032138D01*
X21361572Y-53396093D01*
X21361228Y-53790178D01*
X21511721Y-54154397D01*
X21790138Y-54433300D01*
X22154093Y-54584428D01*
X22548178Y-54584772D01*
X22912397Y-54434279D01*
X23191300Y-54155862D01*
X23342428Y-53791907D01*
X23342772Y-53397822D01*
X23202200Y-53057614D01*
X23202200Y-51001221D01*
X23288865Y-50945454D01*
X23375859Y-50818134D01*
X23406464Y-50667000D01*
X23406464Y-49917000D01*
X23379897Y-49775810D01*
X23296454Y-49646135D01*
X23169134Y-49559141D01*
X23018000Y-49528536D01*
X22809200Y-49528536D01*
X22809200Y-49150114D01*
X22836859Y-49109634D01*
X22859726Y-48996712D01*
X22879103Y-49099690D01*
X22962546Y-49229365D01*
X23089866Y-49316359D01*
X23241000Y-49346964D01*
X23749000Y-49346964D01*
X23890190Y-49320397D01*
X24019865Y-49236954D01*
X24106859Y-49109634D01*
X24129726Y-48996712D01*
X24149103Y-49099690D01*
X24232546Y-49229365D01*
X24359866Y-49316359D01*
X24511000Y-49346964D01*
X25019000Y-49346964D01*
X25160190Y-49320397D01*
X25289865Y-49236954D01*
X25376859Y-49109634D01*
X25407464Y-48958500D01*
X25407464Y-47815500D01*
X25380897Y-47674310D01*
X25297454Y-47544635D01*
X25273000Y-47527926D01*
X25273000Y-46732053D01*
X25622874Y-46587487D01*
X25901777Y-46309070D01*
X26052905Y-45945115D01*
X26053249Y-45551030D01*
X25902756Y-45186811D01*
X25624339Y-44907908D01*
X25260384Y-44756780D01*
X24866299Y-44756436D01*
X24502080Y-44906929D01*
X24223177Y-45185346D01*
X24072049Y-45549301D01*
X24071843Y-45784929D01*
X23929862Y-45642700D01*
X23565907Y-45491572D01*
X23171822Y-45491228D01*
X22967460Y-45575669D01*
X22967793Y-45193632D01*
X22817300Y-44829413D01*
X22733000Y-44744966D01*
X22733000Y-43876484D01*
X22781721Y-43994397D01*
X23060138Y-44273300D01*
X23424093Y-44424428D01*
X23818178Y-44424772D01*
X24182397Y-44274279D01*
X24461300Y-43995862D01*
X24612428Y-43631907D01*
X24612772Y-43237822D01*
X24523607Y-43022027D01*
X25193314Y-43691734D01*
X25171572Y-43744093D01*
X25171228Y-44138178D01*
X25321721Y-44502397D01*
X25600138Y-44781300D01*
X25964093Y-44932428D01*
X26358178Y-44932772D01*
X26670000Y-44803929D01*
X26670000Y-44958000D01*
X26708669Y-45152403D01*
X26818790Y-45317210D01*
X27559000Y-46057420D01*
X27559000Y-47526194D01*
X27542135Y-47537046D01*
X27455141Y-47664366D01*
X27424536Y-47815500D01*
X27424536Y-48958500D01*
X27451103Y-49099690D01*
X27482800Y-49148949D01*
X27482800Y-49899000D01*
X27527270Y-50122564D01*
X27593621Y-50221866D01*
X27653908Y-50312092D01*
X27671536Y-50329720D01*
X27671536Y-50667000D01*
X27698103Y-50808190D01*
X27781546Y-50937865D01*
X27875800Y-51002266D01*
X27875800Y-52765503D01*
X27608700Y-53032138D01*
X27457572Y-53396093D01*
X27457228Y-53790178D01*
X27607721Y-54154397D01*
X27886138Y-54433300D01*
X28250093Y-54584428D01*
X28644178Y-54584772D01*
X29008397Y-54434279D01*
X29287300Y-54155862D01*
X29438428Y-53791907D01*
X29438772Y-53397822D01*
X29288279Y-53033603D01*
X29044200Y-52789098D01*
X29044200Y-51001221D01*
X29130865Y-50945454D01*
X29217859Y-50818134D01*
X29248464Y-50667000D01*
X29248464Y-49917000D01*
X29221897Y-49775810D01*
X29138454Y-49646135D01*
X29011134Y-49559141D01*
X28860000Y-49528536D01*
X28651200Y-49528536D01*
X28651200Y-49150114D01*
X28678859Y-49109634D01*
X28701726Y-48996712D01*
X28721103Y-49099690D01*
X28804546Y-49229365D01*
X28931866Y-49316359D01*
X29083000Y-49346964D01*
X29591000Y-49346964D01*
X29732190Y-49320397D01*
X29861865Y-49236954D01*
X29948859Y-49109634D01*
X29971726Y-48996712D01*
X29991103Y-49099690D01*
X30074546Y-49229365D01*
X30201866Y-49316359D01*
X30353000Y-49346964D01*
X30531044Y-49346964D01*
X32216289Y-51032210D01*
X32381096Y-51142331D01*
X32413350Y-51148746D01*
X32575500Y-51181000D01*
X35916094Y-51181000D01*
X35956546Y-51243865D01*
X36083866Y-51330859D01*
X36235000Y-51361464D01*
X38185000Y-51361464D01*
X38326190Y-51334897D01*
X38455865Y-51251454D01*
X38542859Y-51124134D01*
X38573464Y-50973000D01*
X38573464Y-50373000D01*
X38546897Y-50231810D01*
X38463454Y-50102135D01*
X38368813Y-50037470D01*
X38455865Y-49981454D01*
X38542859Y-49854134D01*
X38573464Y-49703000D01*
X38573464Y-49103000D01*
X38546897Y-48961810D01*
X38463454Y-48832135D01*
X38336134Y-48745141D01*
X38185000Y-48714536D01*
X36564956Y-48714536D01*
X34290000Y-46439580D01*
X34290000Y-43699531D01*
X34423000Y-43726464D01*
X35173000Y-43726464D01*
X35314190Y-43699897D01*
X35411625Y-43637200D01*
X35976062Y-43637200D01*
X36083866Y-43710859D01*
X36235000Y-43741464D01*
X38185000Y-43741464D01*
X38326190Y-43714897D01*
X38387598Y-43675382D01*
X39293800Y-44581584D01*
X39293800Y-53793483D01*
X39038700Y-54048138D01*
X38887572Y-54412093D01*
X38887228Y-54806178D01*
X39037721Y-55170397D01*
X39290882Y-55424000D01*
X456000Y-55424000D01*
X456000Y-33098128D01*
X5100176Y-33098128D01*
X5226358Y-33403511D01*
X5459800Y-33637361D01*
X5764963Y-33764075D01*
X6095388Y-33764364D01*
X6400771Y-33638182D01*
X6634621Y-33404740D01*
X6761335Y-33099577D01*
X6761624Y-32769152D01*
X6635442Y-32463769D01*
X6402000Y-32229919D01*
X6096837Y-32103205D01*
X5766412Y-32102916D01*
X5461029Y-32229098D01*
X5227179Y-32462540D01*
X5100465Y-32767703D01*
X5100176Y-33098128D01*
X456000Y-33098128D01*
X456000Y-5697220D01*
X5042056Y-5697220D01*
X5042056Y-6494780D01*
X5068623Y-6635970D01*
X5152066Y-6765645D01*
X5279386Y-6852639D01*
X5430520Y-6883244D01*
X6228080Y-6883244D01*
X6369270Y-6856677D01*
X6498945Y-6773234D01*
X6585939Y-6645914D01*
X6594427Y-6604000D01*
X6750450Y-6604000D01*
X6766103Y-6687190D01*
X6849546Y-6816865D01*
X6976866Y-6903859D01*
X7128000Y-6934464D01*
X7628000Y-6934464D01*
X7769190Y-6907897D01*
X7898865Y-6824454D01*
X7985859Y-6697134D01*
X8016464Y-6546000D01*
X8016464Y-5646000D01*
X7989897Y-5504810D01*
X7906454Y-5375135D01*
X7779134Y-5288141D01*
X7628000Y-5257536D01*
X7128000Y-5257536D01*
X6986810Y-5284103D01*
X6857135Y-5367546D01*
X6770141Y-5494866D01*
X6751281Y-5588000D01*
X6595993Y-5588000D01*
X6589977Y-5556030D01*
X6506534Y-5426355D01*
X6379214Y-5339361D01*
X6228080Y-5308756D01*
X5430520Y-5308756D01*
X5289330Y-5335323D01*
X5159655Y-5418766D01*
X5072661Y-5546086D01*
X5042056Y-5697220D01*
X456000Y-5697220D01*
X456000Y-3171265D01*
X1142670Y-3171265D01*
X1432078Y-3871686D01*
X1967495Y-4408039D01*
X2667410Y-4698668D01*
X3425265Y-4699330D01*
X4125686Y-4409922D01*
X4275691Y-4260178D01*
X15265228Y-4260178D01*
X15415721Y-4624397D01*
X15694138Y-4903300D01*
X16058093Y-5054428D01*
X16452178Y-5054772D01*
X16816397Y-4904279D01*
X16980788Y-4740174D01*
X17009546Y-4784865D01*
X17136866Y-4871859D01*
X17288000Y-4902464D01*
X17788000Y-4902464D01*
X17929190Y-4875897D01*
X18058865Y-4792454D01*
X18145859Y-4665134D01*
X18176464Y-4514000D01*
X18176464Y-3614000D01*
X18149897Y-3472810D01*
X18066454Y-3343135D01*
X17939134Y-3256141D01*
X17788000Y-3225536D01*
X17288000Y-3225536D01*
X17146810Y-3252103D01*
X17017135Y-3335546D01*
X16981125Y-3388248D01*
X16817862Y-3224700D01*
X16453907Y-3073572D01*
X16059822Y-3073228D01*
X15695603Y-3223721D01*
X15416700Y-3502138D01*
X15265572Y-3866093D01*
X15265228Y-4260178D01*
X4275691Y-4260178D01*
X4662039Y-3874505D01*
X4952668Y-3174590D01*
X4953330Y-2416735D01*
X4663922Y-1716314D01*
X4128505Y-1179961D01*
X3428590Y-889332D01*
X2670735Y-888670D01*
X1970314Y-1178078D01*
X1433961Y-1713495D01*
X1143332Y-2413410D01*
X1142670Y-3171265D01*
X456000Y-3171265D01*
X456000Y-456000D01*
X26797000Y-456000D01*
X26797000Y-10036580D01*
G36*
X33274000Y-46650000D02*
X33312669Y-46844403D01*
X33422790Y-47009210D01*
X35846536Y-49432956D01*
X35846536Y-49703000D01*
X35873103Y-49844190D01*
X35956546Y-49973865D01*
X36051187Y-50038530D01*
X35964135Y-50094546D01*
X35915996Y-50165000D01*
X32785921Y-50165000D01*
X31249464Y-48628544D01*
X31249464Y-47815500D01*
X31222897Y-47674310D01*
X31139454Y-47544635D01*
X31012134Y-47457641D01*
X30861000Y-47427036D01*
X30353000Y-47427036D01*
X30211810Y-47453603D01*
X30082135Y-47537046D01*
X29995141Y-47664366D01*
X29972274Y-47777288D01*
X29952897Y-47674310D01*
X29948869Y-47668051D01*
X30626921Y-46990000D01*
X32258000Y-46990000D01*
X32452403Y-46951331D01*
X32617210Y-46841210D01*
X33274000Y-46184420D01*
X33274000Y-46650000D01*
X33274000Y-46650000D01*
G37*
X33274000Y-46650000D02*
X33312669Y-46844403D01*
X33422790Y-47009210D01*
X35846536Y-49432956D01*
X35846536Y-49703000D01*
X35873103Y-49844190D01*
X35956546Y-49973865D01*
X36051187Y-50038530D01*
X35964135Y-50094546D01*
X35915996Y-50165000D01*
X32785921Y-50165000D01*
X31249464Y-48628544D01*
X31249464Y-47815500D01*
X31222897Y-47674310D01*
X31139454Y-47544635D01*
X31012134Y-47457641D01*
X30861000Y-47427036D01*
X30353000Y-47427036D01*
X30211810Y-47453603D01*
X30082135Y-47537046D01*
X29995141Y-47664366D01*
X29972274Y-47777288D01*
X29952897Y-47674310D01*
X29948869Y-47668051D01*
X30626921Y-46990000D01*
X32258000Y-46990000D01*
X32452403Y-46951331D01*
X32617210Y-46841210D01*
X33274000Y-46184420D01*
X33274000Y-46650000D01*
G36*
X18022187Y-13208530D02*
X17935135Y-13264546D01*
X17848141Y-13391866D01*
X17833867Y-13462356D01*
X17801790Y-13483789D01*
X17166790Y-14118790D01*
X17056669Y-14283597D01*
X17018000Y-14478000D01*
X17018000Y-17018000D01*
X17056669Y-17212403D01*
X17078219Y-17244654D01*
X17043572Y-17328093D01*
X17043228Y-17722178D01*
X17193721Y-18086397D01*
X17472138Y-18365300D01*
X17836093Y-18516428D01*
X18230178Y-18516772D01*
X18594397Y-18366279D01*
X18873300Y-18087862D01*
X19024428Y-17723907D01*
X19024772Y-17329822D01*
X18918020Y-17071464D01*
X19706000Y-17071464D01*
X19847190Y-17044897D01*
X19976865Y-16961454D01*
X20063859Y-16834134D01*
X20094464Y-16683000D01*
X20094464Y-16083000D01*
X20079223Y-16002000D01*
X21524000Y-16002000D01*
X21718403Y-15963331D01*
X21883210Y-15853210D01*
X22419956Y-15316464D01*
X22590000Y-15316464D01*
X22731190Y-15289897D01*
X22860865Y-15206454D01*
X22947859Y-15079134D01*
X22966719Y-14986000D01*
X23006450Y-14986000D01*
X23022103Y-15069190D01*
X23073633Y-15149270D01*
X23036700Y-15186138D01*
X22885572Y-15550093D01*
X22885228Y-15944178D01*
X23035721Y-16308397D01*
X23314138Y-16587300D01*
X23678093Y-16738428D01*
X24072178Y-16738772D01*
X24436397Y-16588279D01*
X24715300Y-16309862D01*
X24843136Y-16002000D01*
X25412362Y-16002000D01*
X25606765Y-15963331D01*
X25771572Y-15853210D01*
X26797000Y-14827782D01*
X26797000Y-15051828D01*
X26695572Y-15296093D01*
X26695228Y-15690178D01*
X26797000Y-15936484D01*
X26797000Y-18034000D01*
X26807006Y-18083410D01*
X26835447Y-18125035D01*
X26877841Y-18152315D01*
X26924000Y-18161000D01*
X36169595Y-18161000D01*
X36243721Y-18340397D01*
X36522138Y-18619300D01*
X36647936Y-18671536D01*
X36149000Y-18671536D01*
X36007810Y-18698103D01*
X35878135Y-18781546D01*
X35813470Y-18876187D01*
X35757454Y-18789135D01*
X35630134Y-18702141D01*
X35479000Y-18671536D01*
X34879000Y-18671536D01*
X34737810Y-18698103D01*
X34608135Y-18781546D01*
X34521141Y-18908866D01*
X34490536Y-19060000D01*
X34490536Y-20560000D01*
X34517103Y-20701190D01*
X34600546Y-20830865D01*
X34727866Y-20917859D01*
X34879000Y-20948464D01*
X35479000Y-20948464D01*
X35620190Y-20921897D01*
X35749865Y-20838454D01*
X35814530Y-20743813D01*
X35870546Y-20830865D01*
X35997866Y-20917859D01*
X36149000Y-20948464D01*
X36749000Y-20948464D01*
X36890190Y-20921897D01*
X37019865Y-20838454D01*
X37106859Y-20711134D01*
X37137464Y-20560000D01*
X37137464Y-19060000D01*
X37110897Y-18918810D01*
X37027454Y-18789135D01*
X37000221Y-18770528D01*
X37280178Y-18770772D01*
X37644397Y-18620279D01*
X37923300Y-18341862D01*
X37998401Y-18161000D01*
X51816000Y-18161000D01*
X51865410Y-18150994D01*
X51907035Y-18122553D01*
X51934315Y-18080159D01*
X51943000Y-18034000D01*
X51943000Y-14859000D01*
X65584000Y-14859000D01*
X65584000Y-30861000D01*
X53975000Y-30861000D01*
X53975000Y-28486464D01*
X54147044Y-28486464D01*
X54487589Y-28827009D01*
X54652396Y-28937130D01*
X54846799Y-28975799D01*
X56197379Y-28975799D01*
X56978790Y-29757210D01*
X57143597Y-29867331D01*
X57338000Y-29906000D01*
X58487007Y-29906000D01*
X58543546Y-29993865D01*
X58670866Y-30080859D01*
X58822000Y-30111464D01*
X59882000Y-30111464D01*
X60023190Y-30084897D01*
X60152865Y-30001454D01*
X60166021Y-29982200D01*
X60288400Y-29982200D01*
X60511964Y-29937730D01*
X60655850Y-29841589D01*
X60660103Y-29864190D01*
X60743546Y-29993865D01*
X60870866Y-30080859D01*
X61022000Y-30111464D01*
X62082000Y-30111464D01*
X62223190Y-30084897D01*
X62304223Y-30032754D01*
X62405721Y-30278397D01*
X62684138Y-30557300D01*
X63048093Y-30708428D01*
X63442178Y-30708772D01*
X63806397Y-30558279D01*
X64085300Y-30279862D01*
X64236428Y-29915907D01*
X64236772Y-29521822D01*
X64086279Y-29157603D01*
X63885027Y-28956000D01*
X64008000Y-28956000D01*
X64202403Y-28917331D01*
X64367210Y-28807210D01*
X64875210Y-28299211D01*
X64985330Y-28134404D01*
X64985331Y-28134403D01*
X65024000Y-27940000D01*
X65024000Y-26924000D01*
X64985331Y-26729597D01*
X64875210Y-26564790D01*
X63859210Y-25548790D01*
X63694403Y-25438669D01*
X63500000Y-25400000D01*
X63345929Y-25400000D01*
X63324279Y-25347603D01*
X63045862Y-25068700D01*
X62681907Y-24917572D01*
X62287822Y-24917228D01*
X61923603Y-25067721D01*
X61644700Y-25346138D01*
X61493572Y-25710093D01*
X61493228Y-26104178D01*
X61643721Y-26468397D01*
X61922138Y-26747300D01*
X62011812Y-26784536D01*
X61036200Y-26784536D01*
X61036200Y-20040600D01*
X60991730Y-19817036D01*
X60865092Y-19627508D01*
X60865089Y-19627506D01*
X57334492Y-16096908D01*
X57273062Y-16055862D01*
X57144964Y-15970270D01*
X56921400Y-15925800D01*
X56903464Y-15925800D01*
X56903464Y-15621000D01*
X56876897Y-15479810D01*
X56793454Y-15350135D01*
X56666134Y-15263141D01*
X56515000Y-15232536D01*
X54229000Y-15232536D01*
X54087810Y-15259103D01*
X53958135Y-15342546D01*
X53871141Y-15469866D01*
X53840536Y-15621000D01*
X53840536Y-17399000D01*
X53867103Y-17540190D01*
X53950546Y-17669865D01*
X54077866Y-17756859D01*
X54190788Y-17779726D01*
X54087810Y-17799103D01*
X53958135Y-17882546D01*
X53871141Y-18009866D01*
X53840536Y-18161000D01*
X53840536Y-19939000D01*
X53867103Y-20080190D01*
X53950546Y-20209865D01*
X54077866Y-20296859D01*
X54229000Y-20327464D01*
X56515000Y-20327464D01*
X56656190Y-20300897D01*
X56785865Y-20217454D01*
X56872859Y-20090134D01*
X56903464Y-19939000D01*
X56903464Y-19858248D01*
X57327800Y-20282584D01*
X57327800Y-22763016D01*
X55450280Y-24640536D01*
X54888000Y-24640536D01*
X54746810Y-24667103D01*
X54617135Y-24750546D01*
X54530141Y-24877866D01*
X54499536Y-25029000D01*
X54499536Y-26279000D01*
X54526103Y-26420190D01*
X54609546Y-26549865D01*
X54736866Y-26636859D01*
X54803800Y-26650413D01*
X54803800Y-27102267D01*
X54755454Y-27027135D01*
X54628134Y-26940141D01*
X54477000Y-26909536D01*
X53975000Y-26909536D01*
X53975000Y-25146000D01*
X53964994Y-25096590D01*
X53936553Y-25054965D01*
X53894159Y-25027685D01*
X53848000Y-25019000D01*
X46888401Y-25019000D01*
X46964428Y-24835907D01*
X46964772Y-24441822D01*
X46814279Y-24077603D01*
X46650174Y-23913212D01*
X46694865Y-23884454D01*
X46781859Y-23757134D01*
X46812464Y-23606000D01*
X46812464Y-23106000D01*
X46789370Y-22983265D01*
X48386670Y-22983265D01*
X48676078Y-23683686D01*
X49211495Y-24220039D01*
X49911410Y-24510668D01*
X50669265Y-24511330D01*
X51369686Y-24221922D01*
X51906039Y-23686505D01*
X52196668Y-22986590D01*
X52197330Y-22228735D01*
X51907922Y-21528314D01*
X51372505Y-20991961D01*
X50672590Y-20701332D01*
X49914735Y-20700670D01*
X49214314Y-20990078D01*
X48677961Y-21525495D01*
X48387332Y-22225410D01*
X48386670Y-22983265D01*
X46789370Y-22983265D01*
X46785897Y-22964810D01*
X46702454Y-22835135D01*
X46575134Y-22748141D01*
X46424000Y-22717536D01*
X45524000Y-22717536D01*
X45382810Y-22744103D01*
X45253135Y-22827546D01*
X45166141Y-22954866D01*
X45135536Y-23106000D01*
X45135536Y-23606000D01*
X45162103Y-23747190D01*
X45245546Y-23876865D01*
X45298248Y-23912875D01*
X45134700Y-24076138D01*
X44983572Y-24440093D01*
X44983228Y-24834178D01*
X45059595Y-25019000D01*
X43771421Y-25019000D01*
X43793211Y-24997210D01*
X43903331Y-24832403D01*
X43942000Y-24638000D01*
X43942000Y-23983550D01*
X44025190Y-23967897D01*
X44154865Y-23884454D01*
X44241859Y-23757134D01*
X44272464Y-23606000D01*
X44272464Y-23106000D01*
X44245897Y-22964810D01*
X44162454Y-22835135D01*
X44035134Y-22748141D01*
X43884000Y-22717536D01*
X42984000Y-22717536D01*
X42842810Y-22744103D01*
X42713135Y-22827546D01*
X42626141Y-22954866D01*
X42595536Y-23106000D01*
X42595536Y-23606000D01*
X42622103Y-23747190D01*
X42705546Y-23876865D01*
X42832866Y-23963859D01*
X42926000Y-23982719D01*
X42926000Y-24427579D01*
X42334579Y-25019000D01*
X41808401Y-25019000D01*
X41884428Y-24835907D01*
X41884772Y-24441822D01*
X41734279Y-24077603D01*
X41570174Y-23913212D01*
X41614865Y-23884454D01*
X41701859Y-23757134D01*
X41732464Y-23606000D01*
X41732464Y-23106000D01*
X41705897Y-22964810D01*
X41622454Y-22835135D01*
X41495134Y-22748141D01*
X41344000Y-22717536D01*
X40444000Y-22717536D01*
X40302810Y-22744103D01*
X40173135Y-22827546D01*
X40086141Y-22954866D01*
X40055536Y-23106000D01*
X40055536Y-23606000D01*
X40082103Y-23747190D01*
X40165546Y-23876865D01*
X40218248Y-23912875D01*
X40054700Y-24076138D01*
X39903572Y-24440093D01*
X39903228Y-24834178D01*
X40053721Y-25198397D01*
X40332138Y-25477300D01*
X40696093Y-25628428D01*
X40767000Y-25628490D01*
X40767000Y-26694701D01*
X40741599Y-26822401D01*
X40741599Y-33807488D01*
X40443822Y-33807228D01*
X40208199Y-33904586D01*
X40208199Y-31075999D01*
X40163729Y-30852435D01*
X40037091Y-30662907D01*
X38573464Y-29199280D01*
X38573464Y-29037000D01*
X38546897Y-28895810D01*
X38463454Y-28766135D01*
X38368813Y-28701470D01*
X38455865Y-28645454D01*
X38542859Y-28518134D01*
X38573464Y-28367000D01*
X38573464Y-27767000D01*
X38546897Y-27625810D01*
X38463454Y-27496135D01*
X38368813Y-27431470D01*
X38455865Y-27375454D01*
X38542859Y-27248134D01*
X38573464Y-27097000D01*
X38573464Y-26497000D01*
X38546897Y-26355810D01*
X38463454Y-26226135D01*
X38336134Y-26139141D01*
X38185000Y-26108536D01*
X36235000Y-26108536D01*
X36093810Y-26135103D01*
X35964135Y-26218546D01*
X35877141Y-26345866D01*
X35846536Y-26497000D01*
X35846536Y-27097000D01*
X35873103Y-27238190D01*
X35956546Y-27367865D01*
X36051187Y-27432530D01*
X35964135Y-27488546D01*
X35877141Y-27615866D01*
X35846536Y-27767000D01*
X35846536Y-28367000D01*
X35873103Y-28508190D01*
X35956546Y-28637865D01*
X36051187Y-28702530D01*
X35973065Y-28752800D01*
X35548443Y-28752800D01*
X35534897Y-28680810D01*
X35451454Y-28551135D01*
X35324134Y-28464141D01*
X35173000Y-28433536D01*
X34423000Y-28433536D01*
X34281810Y-28460103D01*
X34152135Y-28543546D01*
X34065141Y-28670866D01*
X34034536Y-28822000D01*
X34034536Y-29622000D01*
X34061103Y-29763190D01*
X34144546Y-29892865D01*
X34271866Y-29979859D01*
X34423000Y-30010464D01*
X35173000Y-30010464D01*
X35314190Y-29983897D01*
X35411625Y-29921200D01*
X35976062Y-29921200D01*
X36083866Y-29994859D01*
X36235000Y-30025464D01*
X37747280Y-30025464D01*
X39039799Y-31317983D01*
X39039799Y-39802017D01*
X38573464Y-40268352D01*
X38573464Y-40213000D01*
X38546897Y-40071810D01*
X38463454Y-39942135D01*
X38336134Y-39855141D01*
X38185000Y-39824536D01*
X36235000Y-39824536D01*
X36093810Y-39851103D01*
X35964135Y-39934546D01*
X35877141Y-40061866D01*
X35846536Y-40213000D01*
X35846536Y-40813000D01*
X35873103Y-40954190D01*
X35956546Y-41083865D01*
X36051187Y-41148530D01*
X35964135Y-41204546D01*
X35877141Y-41331866D01*
X35846536Y-41483000D01*
X35846536Y-42083000D01*
X35873103Y-42224190D01*
X35956546Y-42353865D01*
X36051187Y-42418530D01*
X35973065Y-42468800D01*
X35548443Y-42468800D01*
X35534897Y-42396810D01*
X35451454Y-42267135D01*
X35324134Y-42180141D01*
X35173000Y-42149536D01*
X34423000Y-42149536D01*
X34290000Y-42174562D01*
X34290000Y-40614601D01*
X34486178Y-40614772D01*
X34850397Y-40464279D01*
X35129300Y-40185862D01*
X35280428Y-39821907D01*
X35280772Y-39427822D01*
X35130279Y-39063603D01*
X34851862Y-38784700D01*
X34487907Y-38633572D01*
X34093822Y-38633228D01*
X33782000Y-38762071D01*
X33782000Y-38564420D01*
X34881420Y-37465000D01*
X35916094Y-37465000D01*
X35956546Y-37527865D01*
X36083866Y-37614859D01*
X36235000Y-37645464D01*
X38185000Y-37645464D01*
X38326190Y-37618897D01*
X38455865Y-37535454D01*
X38542859Y-37408134D01*
X38573464Y-37257000D01*
X38573464Y-36657000D01*
X38546897Y-36515810D01*
X38463454Y-36386135D01*
X38368813Y-36321470D01*
X38455865Y-36265454D01*
X38542859Y-36138134D01*
X38573464Y-35987000D01*
X38573464Y-35387000D01*
X38546897Y-35245810D01*
X38463454Y-35116135D01*
X38336134Y-35029141D01*
X38185000Y-34998536D01*
X36564956Y-34998536D01*
X32271408Y-30704988D01*
X32106601Y-30594867D01*
X31912198Y-30556198D01*
X31044894Y-30556198D01*
X30850491Y-30594867D01*
X30685684Y-30704987D01*
X30562083Y-30828588D01*
X26902742Y-30828588D01*
X26884080Y-30729412D01*
X26908464Y-30609000D01*
X26908464Y-30492000D01*
X27201374Y-30492000D01*
X27203103Y-30501190D01*
X27286546Y-30630865D01*
X27413866Y-30717859D01*
X27565000Y-30748464D01*
X28315000Y-30748464D01*
X28456190Y-30721897D01*
X28585865Y-30638454D01*
X28672859Y-30511134D01*
X28703464Y-30360000D01*
X28703464Y-29560000D01*
X28676897Y-29418810D01*
X28593454Y-29289135D01*
X28466134Y-29202141D01*
X28315000Y-29171536D01*
X27565000Y-29171536D01*
X27423810Y-29198103D01*
X27294135Y-29281546D01*
X27207141Y-29408866D01*
X27193546Y-29476000D01*
X26908464Y-29476000D01*
X26908464Y-29359000D01*
X26884080Y-29229412D01*
X26908464Y-29109000D01*
X26908464Y-28859000D01*
X26884080Y-28729412D01*
X26908464Y-28609000D01*
X26908464Y-28359000D01*
X26884080Y-28229412D01*
X26908464Y-28109000D01*
X26908464Y-27859000D01*
X26881897Y-27717810D01*
X26798454Y-27588135D01*
X26671134Y-27501141D01*
X26625994Y-27492000D01*
X27027579Y-27492000D01*
X27072789Y-27537210D01*
X27237596Y-27647331D01*
X27265142Y-27652810D01*
X27432000Y-27686000D01*
X30380071Y-27686000D01*
X30401721Y-27738397D01*
X30680138Y-28017300D01*
X31044093Y-28168428D01*
X31438178Y-28168772D01*
X31802397Y-28018279D01*
X32081300Y-27739862D01*
X32232428Y-27375907D01*
X32232772Y-26981822D01*
X32082279Y-26617603D01*
X31987562Y-26522721D01*
X32056397Y-26494279D01*
X32335300Y-26215862D01*
X32486428Y-25851907D01*
X32486653Y-25594611D01*
X32568093Y-25628428D01*
X32962178Y-25628772D01*
X33326397Y-25478279D01*
X33605300Y-25199862D01*
X33756428Y-24835907D01*
X33756429Y-24834178D01*
X37363228Y-24834178D01*
X37513721Y-25198397D01*
X37792138Y-25477300D01*
X38156093Y-25628428D01*
X38550178Y-25628772D01*
X38914397Y-25478279D01*
X39193300Y-25199862D01*
X39344428Y-24835907D01*
X39344772Y-24441822D01*
X39194279Y-24077603D01*
X39030174Y-23913212D01*
X39074865Y-23884454D01*
X39161859Y-23757134D01*
X39192464Y-23606000D01*
X39192464Y-23106000D01*
X39165897Y-22964810D01*
X39082454Y-22835135D01*
X38955134Y-22748141D01*
X38804000Y-22717536D01*
X37904000Y-22717536D01*
X37762810Y-22744103D01*
X37633135Y-22827546D01*
X37546141Y-22954866D01*
X37515536Y-23106000D01*
X37515536Y-23606000D01*
X37542103Y-23747190D01*
X37625546Y-23876865D01*
X37678248Y-23912875D01*
X37514700Y-24076138D01*
X37363572Y-24440093D01*
X37363228Y-24834178D01*
X33756429Y-24834178D01*
X33756772Y-24441822D01*
X33606279Y-24077603D01*
X33434880Y-23905905D01*
X33486865Y-23872454D01*
X33573859Y-23745134D01*
X33604464Y-23594000D01*
X33604464Y-23094000D01*
X33577897Y-22952810D01*
X33494454Y-22823135D01*
X33367134Y-22736141D01*
X33216000Y-22705536D01*
X32316000Y-22705536D01*
X32174810Y-22732103D01*
X32045135Y-22815546D01*
X31958141Y-22942866D01*
X31927536Y-23094000D01*
X31927536Y-23594000D01*
X31954103Y-23735190D01*
X32037546Y-23864865D01*
X32097385Y-23905751D01*
X31926700Y-24076138D01*
X31775572Y-24440093D01*
X31775347Y-24697389D01*
X31693907Y-24663572D01*
X31299822Y-24663228D01*
X31216549Y-24697636D01*
X31216772Y-24441822D01*
X31066279Y-24077603D01*
X30894880Y-23905905D01*
X30946865Y-23872454D01*
X31033859Y-23745134D01*
X31064464Y-23594000D01*
X31064464Y-23094000D01*
X31037897Y-22952810D01*
X30954454Y-22823135D01*
X30827134Y-22736141D01*
X30676000Y-22705536D01*
X29776000Y-22705536D01*
X29634810Y-22732103D01*
X29505135Y-22815546D01*
X29418141Y-22942866D01*
X29387536Y-23094000D01*
X29387536Y-23594000D01*
X29414103Y-23735190D01*
X29497546Y-23864865D01*
X29557385Y-23905751D01*
X29386700Y-24076138D01*
X29235572Y-24440093D01*
X29235228Y-24834178D01*
X29364071Y-25146000D01*
X28585885Y-25146000D01*
X28633549Y-25098419D01*
X28784677Y-24734464D01*
X28785021Y-24340379D01*
X28634528Y-23976160D01*
X28457307Y-23798630D01*
X28493859Y-23745134D01*
X28524464Y-23594000D01*
X28524464Y-23094000D01*
X28497897Y-22952810D01*
X28414454Y-22823135D01*
X28287134Y-22736141D01*
X28136000Y-22705536D01*
X27236000Y-22705536D01*
X27094810Y-22732103D01*
X26965135Y-22815546D01*
X26878141Y-22942866D01*
X26847536Y-23094000D01*
X26847536Y-23594000D01*
X26874103Y-23735190D01*
X26957546Y-23864865D01*
X27021320Y-23908440D01*
X26954949Y-23974695D01*
X26803821Y-24338650D01*
X26803652Y-24532216D01*
X26573080Y-24532015D01*
X26208861Y-24682508D01*
X25929958Y-24960925D01*
X25778830Y-25324880D01*
X25778486Y-25718965D01*
X25928979Y-26083184D01*
X26207396Y-26362087D01*
X26468569Y-26470536D01*
X25520000Y-26470536D01*
X25378810Y-26497103D01*
X25249135Y-26580546D01*
X25162141Y-26707866D01*
X25131536Y-26859000D01*
X25131536Y-27109000D01*
X25158103Y-27250190D01*
X25241546Y-27379865D01*
X25368866Y-27466859D01*
X25451072Y-27483506D01*
X25378810Y-27497103D01*
X25249135Y-27580546D01*
X25162141Y-27707866D01*
X25131536Y-27859000D01*
X25131536Y-28109000D01*
X25155920Y-28238588D01*
X25131536Y-28359000D01*
X25131536Y-28609000D01*
X25155920Y-28738588D01*
X25131536Y-28859000D01*
X25131536Y-29109000D01*
X25155920Y-29238588D01*
X25131536Y-29359000D01*
X25131536Y-29476000D01*
X23634000Y-29476000D01*
X23634000Y-29314648D01*
X23932093Y-29438428D01*
X24326178Y-29438772D01*
X24690397Y-29288279D01*
X24969300Y-29009862D01*
X25120428Y-28645907D01*
X25120772Y-28251822D01*
X24970279Y-27887603D01*
X24758681Y-27675635D01*
X24801501Y-27632815D01*
X24911622Y-27468009D01*
X24950291Y-27273605D01*
X24950291Y-26341197D01*
X24911622Y-26146794D01*
X24906508Y-26139141D01*
X24801502Y-25981987D01*
X24706870Y-25887356D01*
X24675530Y-25729796D01*
X24612706Y-25635774D01*
X24578000Y-25583832D01*
X24578000Y-25560982D01*
X24583464Y-25534000D01*
X24583464Y-24600956D01*
X25475956Y-23708464D01*
X25771000Y-23708464D01*
X25912190Y-23681897D01*
X26041865Y-23598454D01*
X26128859Y-23471134D01*
X26159464Y-23320000D01*
X26159464Y-22320000D01*
X26132897Y-22178810D01*
X26049454Y-22049135D01*
X25922134Y-21962141D01*
X25771000Y-21931536D01*
X24521000Y-21931536D01*
X24379810Y-21958103D01*
X24358489Y-21971822D01*
X24358772Y-21647822D01*
X24336534Y-21594000D01*
X26847536Y-21594000D01*
X26847536Y-22094000D01*
X26874103Y-22235190D01*
X26957546Y-22364865D01*
X27084866Y-22451859D01*
X27236000Y-22482464D01*
X28136000Y-22482464D01*
X28277190Y-22455897D01*
X28406865Y-22372454D01*
X28493859Y-22245134D01*
X28524464Y-22094000D01*
X28524464Y-21594000D01*
X29387536Y-21594000D01*
X29387536Y-22094000D01*
X29414103Y-22235190D01*
X29497546Y-22364865D01*
X29624866Y-22451859D01*
X29776000Y-22482464D01*
X30676000Y-22482464D01*
X30817190Y-22455897D01*
X30946865Y-22372454D01*
X31033859Y-22245134D01*
X31064464Y-22094000D01*
X31064464Y-21594000D01*
X31927536Y-21594000D01*
X31927536Y-22094000D01*
X31954103Y-22235190D01*
X32037546Y-22364865D01*
X32164866Y-22451859D01*
X32316000Y-22482464D01*
X33216000Y-22482464D01*
X33357190Y-22455897D01*
X33486865Y-22372454D01*
X33573859Y-22245134D01*
X33604464Y-22094000D01*
X33604464Y-21606000D01*
X37515536Y-21606000D01*
X37515536Y-22106000D01*
X37542103Y-22247190D01*
X37625546Y-22376865D01*
X37752866Y-22463859D01*
X37904000Y-22494464D01*
X38804000Y-22494464D01*
X38945190Y-22467897D01*
X39074865Y-22384454D01*
X39161859Y-22257134D01*
X39192464Y-22106000D01*
X39192464Y-21606000D01*
X40055536Y-21606000D01*
X40055536Y-22106000D01*
X40082103Y-22247190D01*
X40165546Y-22376865D01*
X40292866Y-22463859D01*
X40444000Y-22494464D01*
X41344000Y-22494464D01*
X41485190Y-22467897D01*
X41614865Y-22384454D01*
X41701859Y-22257134D01*
X41732464Y-22106000D01*
X41732464Y-21606000D01*
X42595536Y-21606000D01*
X42595536Y-22106000D01*
X42622103Y-22247190D01*
X42705546Y-22376865D01*
X42832866Y-22463859D01*
X42984000Y-22494464D01*
X43884000Y-22494464D01*
X44025190Y-22467897D01*
X44154865Y-22384454D01*
X44241859Y-22257134D01*
X44272464Y-22106000D01*
X44272464Y-21606000D01*
X45135536Y-21606000D01*
X45135536Y-22106000D01*
X45162103Y-22247190D01*
X45245546Y-22376865D01*
X45372866Y-22463859D01*
X45524000Y-22494464D01*
X46424000Y-22494464D01*
X46565190Y-22467897D01*
X46694865Y-22384454D01*
X46781859Y-22257134D01*
X46812464Y-22106000D01*
X46812464Y-21606000D01*
X46785897Y-21464810D01*
X46702454Y-21335135D01*
X46575134Y-21248141D01*
X46431200Y-21218994D01*
X46431200Y-20818938D01*
X46504859Y-20711134D01*
X46535464Y-20560000D01*
X46535464Y-19060000D01*
X46508897Y-18918810D01*
X46425454Y-18789135D01*
X46298134Y-18702141D01*
X46147000Y-18671536D01*
X45547000Y-18671536D01*
X45405810Y-18698103D01*
X45276135Y-18781546D01*
X45189141Y-18908866D01*
X45158536Y-19060000D01*
X45158536Y-20560000D01*
X45185103Y-20701190D01*
X45262800Y-20821935D01*
X45262800Y-21321327D01*
X45253135Y-21327546D01*
X45166141Y-21454866D01*
X45135536Y-21606000D01*
X44272464Y-21606000D01*
X44245897Y-21464810D01*
X44162454Y-21335135D01*
X44035134Y-21248141D01*
X43891200Y-21218994D01*
X43891200Y-20818938D01*
X43964859Y-20711134D01*
X43995464Y-20560000D01*
X43995464Y-19060000D01*
X43968897Y-18918810D01*
X43885454Y-18789135D01*
X43758134Y-18702141D01*
X43607000Y-18671536D01*
X43007000Y-18671536D01*
X42865810Y-18698103D01*
X42736135Y-18781546D01*
X42649141Y-18908866D01*
X42618536Y-19060000D01*
X42618536Y-20560000D01*
X42645103Y-20701190D01*
X42722800Y-20821935D01*
X42722800Y-21321327D01*
X42713135Y-21327546D01*
X42626141Y-21454866D01*
X42595536Y-21606000D01*
X41732464Y-21606000D01*
X41705897Y-21464810D01*
X41622454Y-21335135D01*
X41495134Y-21248141D01*
X41351200Y-21218994D01*
X41351200Y-20818938D01*
X41424859Y-20711134D01*
X41455464Y-20560000D01*
X41455464Y-19060000D01*
X41428897Y-18918810D01*
X41345454Y-18789135D01*
X41218134Y-18702141D01*
X41067000Y-18671536D01*
X40467000Y-18671536D01*
X40325810Y-18698103D01*
X40196135Y-18781546D01*
X40109141Y-18908866D01*
X40078536Y-19060000D01*
X40078536Y-20560000D01*
X40105103Y-20701190D01*
X40182800Y-20821935D01*
X40182800Y-21321327D01*
X40173135Y-21327546D01*
X40086141Y-21454866D01*
X40055536Y-21606000D01*
X39192464Y-21606000D01*
X39165897Y-21464810D01*
X39082454Y-21335135D01*
X38955134Y-21248141D01*
X38811200Y-21218994D01*
X38811200Y-20818938D01*
X38884859Y-20711134D01*
X38915464Y-20560000D01*
X38915464Y-19060000D01*
X38888897Y-18918810D01*
X38805454Y-18789135D01*
X38678134Y-18702141D01*
X38527000Y-18671536D01*
X37927000Y-18671536D01*
X37785810Y-18698103D01*
X37656135Y-18781546D01*
X37569141Y-18908866D01*
X37538536Y-19060000D01*
X37538536Y-20560000D01*
X37565103Y-20701190D01*
X37642800Y-20821935D01*
X37642800Y-21321327D01*
X37633135Y-21327546D01*
X37546141Y-21454866D01*
X37515536Y-21606000D01*
X33604464Y-21606000D01*
X33604464Y-21594000D01*
X33577897Y-21452810D01*
X33494454Y-21323135D01*
X33367134Y-21236141D01*
X33223200Y-21206994D01*
X33223200Y-20818938D01*
X33296859Y-20711134D01*
X33327464Y-20560000D01*
X33327464Y-19060000D01*
X33300897Y-18918810D01*
X33217454Y-18789135D01*
X33090134Y-18702141D01*
X32939000Y-18671536D01*
X32339000Y-18671536D01*
X32197810Y-18698103D01*
X32068135Y-18781546D01*
X31981141Y-18908866D01*
X31950536Y-19060000D01*
X31950536Y-20560000D01*
X31977103Y-20701190D01*
X32054800Y-20821935D01*
X32054800Y-21309327D01*
X32045135Y-21315546D01*
X31958141Y-21442866D01*
X31927536Y-21594000D01*
X31064464Y-21594000D01*
X31037897Y-21452810D01*
X30954454Y-21323135D01*
X30827134Y-21236141D01*
X30683200Y-21206994D01*
X30683200Y-20818938D01*
X30756859Y-20711134D01*
X30787464Y-20560000D01*
X30787464Y-19060000D01*
X30760897Y-18918810D01*
X30677454Y-18789135D01*
X30550134Y-18702141D01*
X30399000Y-18671536D01*
X29799000Y-18671536D01*
X29657810Y-18698103D01*
X29528135Y-18781546D01*
X29441141Y-18908866D01*
X29410536Y-19060000D01*
X29410536Y-20560000D01*
X29437103Y-20701190D01*
X29514800Y-20821935D01*
X29514800Y-21309327D01*
X29505135Y-21315546D01*
X29418141Y-21442866D01*
X29387536Y-21594000D01*
X28524464Y-21594000D01*
X28497897Y-21452810D01*
X28414454Y-21323135D01*
X28287134Y-21236141D01*
X28143200Y-21206994D01*
X28143200Y-20818938D01*
X28216859Y-20711134D01*
X28247464Y-20560000D01*
X28247464Y-19060000D01*
X28220897Y-18918810D01*
X28137454Y-18789135D01*
X28010134Y-18702141D01*
X27859000Y-18671536D01*
X27259000Y-18671536D01*
X27117810Y-18698103D01*
X26988135Y-18781546D01*
X26901141Y-18908866D01*
X26870536Y-19060000D01*
X26870536Y-20560000D01*
X26897103Y-20701190D01*
X26974800Y-20821935D01*
X26974800Y-21309327D01*
X26965135Y-21315546D01*
X26878141Y-21442866D01*
X26847536Y-21594000D01*
X24336534Y-21594000D01*
X24208279Y-21283603D01*
X23929862Y-21004700D01*
X23565907Y-20853572D01*
X23171822Y-20853228D01*
X22807603Y-21003721D01*
X22528700Y-21282138D01*
X22377572Y-21646093D01*
X22377228Y-22040178D01*
X22527721Y-22404397D01*
X22636823Y-22513690D01*
X22586141Y-22587866D01*
X22555536Y-22739000D01*
X22555536Y-23489000D01*
X22580562Y-23622000D01*
X21078000Y-23622000D01*
X21078000Y-23606000D01*
X21039331Y-23411597D01*
X20994164Y-23344000D01*
X20929211Y-23246790D01*
X20829464Y-23147043D01*
X20829464Y-22702000D01*
X20802897Y-22560810D01*
X20719454Y-22431135D01*
X20592134Y-22344141D01*
X20441000Y-22313536D01*
X19691000Y-22313536D01*
X19558000Y-22338562D01*
X19558000Y-21590000D01*
X19551798Y-21558819D01*
X19519331Y-21395596D01*
X19409210Y-21230790D01*
X16256000Y-18077580D01*
X16256000Y-13338813D01*
X16456138Y-13539300D01*
X16820093Y-13690428D01*
X17214178Y-13690772D01*
X17578397Y-13540279D01*
X17857300Y-13261862D01*
X17879666Y-13208000D01*
X18021411Y-13208000D01*
X18022187Y-13208530D01*
X18022187Y-13208530D01*
G37*
X18022187Y-13208530D02*
X17935135Y-13264546D01*
X17848141Y-13391866D01*
X17833867Y-13462356D01*
X17801790Y-13483789D01*
X17166790Y-14118790D01*
X17056669Y-14283597D01*
X17018000Y-14478000D01*
X17018000Y-17018000D01*
X17056669Y-17212403D01*
X17078219Y-17244654D01*
X17043572Y-17328093D01*
X17043228Y-17722178D01*
X17193721Y-18086397D01*
X17472138Y-18365300D01*
X17836093Y-18516428D01*
X18230178Y-18516772D01*
X18594397Y-18366279D01*
X18873300Y-18087862D01*
X19024428Y-17723907D01*
X19024772Y-17329822D01*
X18918020Y-17071464D01*
X19706000Y-17071464D01*
X19847190Y-17044897D01*
X19976865Y-16961454D01*
X20063859Y-16834134D01*
X20094464Y-16683000D01*
X20094464Y-16083000D01*
X20079223Y-16002000D01*
X21524000Y-16002000D01*
X21718403Y-15963331D01*
X21883210Y-15853210D01*
X22419956Y-15316464D01*
X22590000Y-15316464D01*
X22731190Y-15289897D01*
X22860865Y-15206454D01*
X22947859Y-15079134D01*
X22966719Y-14986000D01*
X23006450Y-14986000D01*
X23022103Y-15069190D01*
X23073633Y-15149270D01*
X23036700Y-15186138D01*
X22885572Y-15550093D01*
X22885228Y-15944178D01*
X23035721Y-16308397D01*
X23314138Y-16587300D01*
X23678093Y-16738428D01*
X24072178Y-16738772D01*
X24436397Y-16588279D01*
X24715300Y-16309862D01*
X24843136Y-16002000D01*
X25412362Y-16002000D01*
X25606765Y-15963331D01*
X25771572Y-15853210D01*
X26797000Y-14827782D01*
X26797000Y-15051828D01*
X26695572Y-15296093D01*
X26695228Y-15690178D01*
X26797000Y-15936484D01*
X26797000Y-18034000D01*
X26807006Y-18083410D01*
X26835447Y-18125035D01*
X26877841Y-18152315D01*
X26924000Y-18161000D01*
X36169595Y-18161000D01*
X36243721Y-18340397D01*
X36522138Y-18619300D01*
X36647936Y-18671536D01*
X36149000Y-18671536D01*
X36007810Y-18698103D01*
X35878135Y-18781546D01*
X35813470Y-18876187D01*
X35757454Y-18789135D01*
X35630134Y-18702141D01*
X35479000Y-18671536D01*
X34879000Y-18671536D01*
X34737810Y-18698103D01*
X34608135Y-18781546D01*
X34521141Y-18908866D01*
X34490536Y-19060000D01*
X34490536Y-20560000D01*
X34517103Y-20701190D01*
X34600546Y-20830865D01*
X34727866Y-20917859D01*
X34879000Y-20948464D01*
X35479000Y-20948464D01*
X35620190Y-20921897D01*
X35749865Y-20838454D01*
X35814530Y-20743813D01*
X35870546Y-20830865D01*
X35997866Y-20917859D01*
X36149000Y-20948464D01*
X36749000Y-20948464D01*
X36890190Y-20921897D01*
X37019865Y-20838454D01*
X37106859Y-20711134D01*
X37137464Y-20560000D01*
X37137464Y-19060000D01*
X37110897Y-18918810D01*
X37027454Y-18789135D01*
X37000221Y-18770528D01*
X37280178Y-18770772D01*
X37644397Y-18620279D01*
X37923300Y-18341862D01*
X37998401Y-18161000D01*
X51816000Y-18161000D01*
X51865410Y-18150994D01*
X51907035Y-18122553D01*
X51934315Y-18080159D01*
X51943000Y-18034000D01*
X51943000Y-14859000D01*
X65584000Y-14859000D01*
X65584000Y-30861000D01*
X53975000Y-30861000D01*
X53975000Y-28486464D01*
X54147044Y-28486464D01*
X54487589Y-28827009D01*
X54652396Y-28937130D01*
X54846799Y-28975799D01*
X56197379Y-28975799D01*
X56978790Y-29757210D01*
X57143597Y-29867331D01*
X57338000Y-29906000D01*
X58487007Y-29906000D01*
X58543546Y-29993865D01*
X58670866Y-30080859D01*
X58822000Y-30111464D01*
X59882000Y-30111464D01*
X60023190Y-30084897D01*
X60152865Y-30001454D01*
X60166021Y-29982200D01*
X60288400Y-29982200D01*
X60511964Y-29937730D01*
X60655850Y-29841589D01*
X60660103Y-29864190D01*
X60743546Y-29993865D01*
X60870866Y-30080859D01*
X61022000Y-30111464D01*
X62082000Y-30111464D01*
X62223190Y-30084897D01*
X62304223Y-30032754D01*
X62405721Y-30278397D01*
X62684138Y-30557300D01*
X63048093Y-30708428D01*
X63442178Y-30708772D01*
X63806397Y-30558279D01*
X64085300Y-30279862D01*
X64236428Y-29915907D01*
X64236772Y-29521822D01*
X64086279Y-29157603D01*
X63885027Y-28956000D01*
X64008000Y-28956000D01*
X64202403Y-28917331D01*
X64367210Y-28807210D01*
X64875210Y-28299211D01*
X64985330Y-28134404D01*
X64985331Y-28134403D01*
X65024000Y-27940000D01*
X65024000Y-26924000D01*
X64985331Y-26729597D01*
X64875210Y-26564790D01*
X63859210Y-25548790D01*
X63694403Y-25438669D01*
X63500000Y-25400000D01*
X63345929Y-25400000D01*
X63324279Y-25347603D01*
X63045862Y-25068700D01*
X62681907Y-24917572D01*
X62287822Y-24917228D01*
X61923603Y-25067721D01*
X61644700Y-25346138D01*
X61493572Y-25710093D01*
X61493228Y-26104178D01*
X61643721Y-26468397D01*
X61922138Y-26747300D01*
X62011812Y-26784536D01*
X61036200Y-26784536D01*
X61036200Y-20040600D01*
X60991730Y-19817036D01*
X60865092Y-19627508D01*
X60865089Y-19627506D01*
X57334492Y-16096908D01*
X57273062Y-16055862D01*
X57144964Y-15970270D01*
X56921400Y-15925800D01*
X56903464Y-15925800D01*
X56903464Y-15621000D01*
X56876897Y-15479810D01*
X56793454Y-15350135D01*
X56666134Y-15263141D01*
X56515000Y-15232536D01*
X54229000Y-15232536D01*
X54087810Y-15259103D01*
X53958135Y-15342546D01*
X53871141Y-15469866D01*
X53840536Y-15621000D01*
X53840536Y-17399000D01*
X53867103Y-17540190D01*
X53950546Y-17669865D01*
X54077866Y-17756859D01*
X54190788Y-17779726D01*
X54087810Y-17799103D01*
X53958135Y-17882546D01*
X53871141Y-18009866D01*
X53840536Y-18161000D01*
X53840536Y-19939000D01*
X53867103Y-20080190D01*
X53950546Y-20209865D01*
X54077866Y-20296859D01*
X54229000Y-20327464D01*
X56515000Y-20327464D01*
X56656190Y-20300897D01*
X56785865Y-20217454D01*
X56872859Y-20090134D01*
X56903464Y-19939000D01*
X56903464Y-19858248D01*
X57327800Y-20282584D01*
X57327800Y-22763016D01*
X55450280Y-24640536D01*
X54888000Y-24640536D01*
X54746810Y-24667103D01*
X54617135Y-24750546D01*
X54530141Y-24877866D01*
X54499536Y-25029000D01*
X54499536Y-26279000D01*
X54526103Y-26420190D01*
X54609546Y-26549865D01*
X54736866Y-26636859D01*
X54803800Y-26650413D01*
X54803800Y-27102267D01*
X54755454Y-27027135D01*
X54628134Y-26940141D01*
X54477000Y-26909536D01*
X53975000Y-26909536D01*
X53975000Y-25146000D01*
X53964994Y-25096590D01*
X53936553Y-25054965D01*
X53894159Y-25027685D01*
X53848000Y-25019000D01*
X46888401Y-25019000D01*
X46964428Y-24835907D01*
X46964772Y-24441822D01*
X46814279Y-24077603D01*
X46650174Y-23913212D01*
X46694865Y-23884454D01*
X46781859Y-23757134D01*
X46812464Y-23606000D01*
X46812464Y-23106000D01*
X46789370Y-22983265D01*
X48386670Y-22983265D01*
X48676078Y-23683686D01*
X49211495Y-24220039D01*
X49911410Y-24510668D01*
X50669265Y-24511330D01*
X51369686Y-24221922D01*
X51906039Y-23686505D01*
X52196668Y-22986590D01*
X52197330Y-22228735D01*
X51907922Y-21528314D01*
X51372505Y-20991961D01*
X50672590Y-20701332D01*
X49914735Y-20700670D01*
X49214314Y-20990078D01*
X48677961Y-21525495D01*
X48387332Y-22225410D01*
X48386670Y-22983265D01*
X46789370Y-22983265D01*
X46785897Y-22964810D01*
X46702454Y-22835135D01*
X46575134Y-22748141D01*
X46424000Y-22717536D01*
X45524000Y-22717536D01*
X45382810Y-22744103D01*
X45253135Y-22827546D01*
X45166141Y-22954866D01*
X45135536Y-23106000D01*
X45135536Y-23606000D01*
X45162103Y-23747190D01*
X45245546Y-23876865D01*
X45298248Y-23912875D01*
X45134700Y-24076138D01*
X44983572Y-24440093D01*
X44983228Y-24834178D01*
X45059595Y-25019000D01*
X43771421Y-25019000D01*
X43793211Y-24997210D01*
X43903331Y-24832403D01*
X43942000Y-24638000D01*
X43942000Y-23983550D01*
X44025190Y-23967897D01*
X44154865Y-23884454D01*
X44241859Y-23757134D01*
X44272464Y-23606000D01*
X44272464Y-23106000D01*
X44245897Y-22964810D01*
X44162454Y-22835135D01*
X44035134Y-22748141D01*
X43884000Y-22717536D01*
X42984000Y-22717536D01*
X42842810Y-22744103D01*
X42713135Y-22827546D01*
X42626141Y-22954866D01*
X42595536Y-23106000D01*
X42595536Y-23606000D01*
X42622103Y-23747190D01*
X42705546Y-23876865D01*
X42832866Y-23963859D01*
X42926000Y-23982719D01*
X42926000Y-24427579D01*
X42334579Y-25019000D01*
X41808401Y-25019000D01*
X41884428Y-24835907D01*
X41884772Y-24441822D01*
X41734279Y-24077603D01*
X41570174Y-23913212D01*
X41614865Y-23884454D01*
X41701859Y-23757134D01*
X41732464Y-23606000D01*
X41732464Y-23106000D01*
X41705897Y-22964810D01*
X41622454Y-22835135D01*
X41495134Y-22748141D01*
X41344000Y-22717536D01*
X40444000Y-22717536D01*
X40302810Y-22744103D01*
X40173135Y-22827546D01*
X40086141Y-22954866D01*
X40055536Y-23106000D01*
X40055536Y-23606000D01*
X40082103Y-23747190D01*
X40165546Y-23876865D01*
X40218248Y-23912875D01*
X40054700Y-24076138D01*
X39903572Y-24440093D01*
X39903228Y-24834178D01*
X40053721Y-25198397D01*
X40332138Y-25477300D01*
X40696093Y-25628428D01*
X40767000Y-25628490D01*
X40767000Y-26694701D01*
X40741599Y-26822401D01*
X40741599Y-33807488D01*
X40443822Y-33807228D01*
X40208199Y-33904586D01*
X40208199Y-31075999D01*
X40163729Y-30852435D01*
X40037091Y-30662907D01*
X38573464Y-29199280D01*
X38573464Y-29037000D01*
X38546897Y-28895810D01*
X38463454Y-28766135D01*
X38368813Y-28701470D01*
X38455865Y-28645454D01*
X38542859Y-28518134D01*
X38573464Y-28367000D01*
X38573464Y-27767000D01*
X38546897Y-27625810D01*
X38463454Y-27496135D01*
X38368813Y-27431470D01*
X38455865Y-27375454D01*
X38542859Y-27248134D01*
X38573464Y-27097000D01*
X38573464Y-26497000D01*
X38546897Y-26355810D01*
X38463454Y-26226135D01*
X38336134Y-26139141D01*
X38185000Y-26108536D01*
X36235000Y-26108536D01*
X36093810Y-26135103D01*
X35964135Y-26218546D01*
X35877141Y-26345866D01*
X35846536Y-26497000D01*
X35846536Y-27097000D01*
X35873103Y-27238190D01*
X35956546Y-27367865D01*
X36051187Y-27432530D01*
X35964135Y-27488546D01*
X35877141Y-27615866D01*
X35846536Y-27767000D01*
X35846536Y-28367000D01*
X35873103Y-28508190D01*
X35956546Y-28637865D01*
X36051187Y-28702530D01*
X35973065Y-28752800D01*
X35548443Y-28752800D01*
X35534897Y-28680810D01*
X35451454Y-28551135D01*
X35324134Y-28464141D01*
X35173000Y-28433536D01*
X34423000Y-28433536D01*
X34281810Y-28460103D01*
X34152135Y-28543546D01*
X34065141Y-28670866D01*
X34034536Y-28822000D01*
X34034536Y-29622000D01*
X34061103Y-29763190D01*
X34144546Y-29892865D01*
X34271866Y-29979859D01*
X34423000Y-30010464D01*
X35173000Y-30010464D01*
X35314190Y-29983897D01*
X35411625Y-29921200D01*
X35976062Y-29921200D01*
X36083866Y-29994859D01*
X36235000Y-30025464D01*
X37747280Y-30025464D01*
X39039799Y-31317983D01*
X39039799Y-39802017D01*
X38573464Y-40268352D01*
X38573464Y-40213000D01*
X38546897Y-40071810D01*
X38463454Y-39942135D01*
X38336134Y-39855141D01*
X38185000Y-39824536D01*
X36235000Y-39824536D01*
X36093810Y-39851103D01*
X35964135Y-39934546D01*
X35877141Y-40061866D01*
X35846536Y-40213000D01*
X35846536Y-40813000D01*
X35873103Y-40954190D01*
X35956546Y-41083865D01*
X36051187Y-41148530D01*
X35964135Y-41204546D01*
X35877141Y-41331866D01*
X35846536Y-41483000D01*
X35846536Y-42083000D01*
X35873103Y-42224190D01*
X35956546Y-42353865D01*
X36051187Y-42418530D01*
X35973065Y-42468800D01*
X35548443Y-42468800D01*
X35534897Y-42396810D01*
X35451454Y-42267135D01*
X35324134Y-42180141D01*
X35173000Y-42149536D01*
X34423000Y-42149536D01*
X34290000Y-42174562D01*
X34290000Y-40614601D01*
X34486178Y-40614772D01*
X34850397Y-40464279D01*
X35129300Y-40185862D01*
X35280428Y-39821907D01*
X35280772Y-39427822D01*
X35130279Y-39063603D01*
X34851862Y-38784700D01*
X34487907Y-38633572D01*
X34093822Y-38633228D01*
X33782000Y-38762071D01*
X33782000Y-38564420D01*
X34881420Y-37465000D01*
X35916094Y-37465000D01*
X35956546Y-37527865D01*
X36083866Y-37614859D01*
X36235000Y-37645464D01*
X38185000Y-37645464D01*
X38326190Y-37618897D01*
X38455865Y-37535454D01*
X38542859Y-37408134D01*
X38573464Y-37257000D01*
X38573464Y-36657000D01*
X38546897Y-36515810D01*
X38463454Y-36386135D01*
X38368813Y-36321470D01*
X38455865Y-36265454D01*
X38542859Y-36138134D01*
X38573464Y-35987000D01*
X38573464Y-35387000D01*
X38546897Y-35245810D01*
X38463454Y-35116135D01*
X38336134Y-35029141D01*
X38185000Y-34998536D01*
X36564956Y-34998536D01*
X32271408Y-30704988D01*
X32106601Y-30594867D01*
X31912198Y-30556198D01*
X31044894Y-30556198D01*
X30850491Y-30594867D01*
X30685684Y-30704987D01*
X30562083Y-30828588D01*
X26902742Y-30828588D01*
X26884080Y-30729412D01*
X26908464Y-30609000D01*
X26908464Y-30492000D01*
X27201374Y-30492000D01*
X27203103Y-30501190D01*
X27286546Y-30630865D01*
X27413866Y-30717859D01*
X27565000Y-30748464D01*
X28315000Y-30748464D01*
X28456190Y-30721897D01*
X28585865Y-30638454D01*
X28672859Y-30511134D01*
X28703464Y-30360000D01*
X28703464Y-29560000D01*
X28676897Y-29418810D01*
X28593454Y-29289135D01*
X28466134Y-29202141D01*
X28315000Y-29171536D01*
X27565000Y-29171536D01*
X27423810Y-29198103D01*
X27294135Y-29281546D01*
X27207141Y-29408866D01*
X27193546Y-29476000D01*
X26908464Y-29476000D01*
X26908464Y-29359000D01*
X26884080Y-29229412D01*
X26908464Y-29109000D01*
X26908464Y-28859000D01*
X26884080Y-28729412D01*
X26908464Y-28609000D01*
X26908464Y-28359000D01*
X26884080Y-28229412D01*
X26908464Y-28109000D01*
X26908464Y-27859000D01*
X26881897Y-27717810D01*
X26798454Y-27588135D01*
X26671134Y-27501141D01*
X26625994Y-27492000D01*
X27027579Y-27492000D01*
X27072789Y-27537210D01*
X27237596Y-27647331D01*
X27265142Y-27652810D01*
X27432000Y-27686000D01*
X30380071Y-27686000D01*
X30401721Y-27738397D01*
X30680138Y-28017300D01*
X31044093Y-28168428D01*
X31438178Y-28168772D01*
X31802397Y-28018279D01*
X32081300Y-27739862D01*
X32232428Y-27375907D01*
X32232772Y-26981822D01*
X32082279Y-26617603D01*
X31987562Y-26522721D01*
X32056397Y-26494279D01*
X32335300Y-26215862D01*
X32486428Y-25851907D01*
X32486653Y-25594611D01*
X32568093Y-25628428D01*
X32962178Y-25628772D01*
X33326397Y-25478279D01*
X33605300Y-25199862D01*
X33756428Y-24835907D01*
X33756429Y-24834178D01*
X37363228Y-24834178D01*
X37513721Y-25198397D01*
X37792138Y-25477300D01*
X38156093Y-25628428D01*
X38550178Y-25628772D01*
X38914397Y-25478279D01*
X39193300Y-25199862D01*
X39344428Y-24835907D01*
X39344772Y-24441822D01*
X39194279Y-24077603D01*
X39030174Y-23913212D01*
X39074865Y-23884454D01*
X39161859Y-23757134D01*
X39192464Y-23606000D01*
X39192464Y-23106000D01*
X39165897Y-22964810D01*
X39082454Y-22835135D01*
X38955134Y-22748141D01*
X38804000Y-22717536D01*
X37904000Y-22717536D01*
X37762810Y-22744103D01*
X37633135Y-22827546D01*
X37546141Y-22954866D01*
X37515536Y-23106000D01*
X37515536Y-23606000D01*
X37542103Y-23747190D01*
X37625546Y-23876865D01*
X37678248Y-23912875D01*
X37514700Y-24076138D01*
X37363572Y-24440093D01*
X37363228Y-24834178D01*
X33756429Y-24834178D01*
X33756772Y-24441822D01*
X33606279Y-24077603D01*
X33434880Y-23905905D01*
X33486865Y-23872454D01*
X33573859Y-23745134D01*
X33604464Y-23594000D01*
X33604464Y-23094000D01*
X33577897Y-22952810D01*
X33494454Y-22823135D01*
X33367134Y-22736141D01*
X33216000Y-22705536D01*
X32316000Y-22705536D01*
X32174810Y-22732103D01*
X32045135Y-22815546D01*
X31958141Y-22942866D01*
X31927536Y-23094000D01*
X31927536Y-23594000D01*
X31954103Y-23735190D01*
X32037546Y-23864865D01*
X32097385Y-23905751D01*
X31926700Y-24076138D01*
X31775572Y-24440093D01*
X31775347Y-24697389D01*
X31693907Y-24663572D01*
X31299822Y-24663228D01*
X31216549Y-24697636D01*
X31216772Y-24441822D01*
X31066279Y-24077603D01*
X30894880Y-23905905D01*
X30946865Y-23872454D01*
X31033859Y-23745134D01*
X31064464Y-23594000D01*
X31064464Y-23094000D01*
X31037897Y-22952810D01*
X30954454Y-22823135D01*
X30827134Y-22736141D01*
X30676000Y-22705536D01*
X29776000Y-22705536D01*
X29634810Y-22732103D01*
X29505135Y-22815546D01*
X29418141Y-22942866D01*
X29387536Y-23094000D01*
X29387536Y-23594000D01*
X29414103Y-23735190D01*
X29497546Y-23864865D01*
X29557385Y-23905751D01*
X29386700Y-24076138D01*
X29235572Y-24440093D01*
X29235228Y-24834178D01*
X29364071Y-25146000D01*
X28585885Y-25146000D01*
X28633549Y-25098419D01*
X28784677Y-24734464D01*
X28785021Y-24340379D01*
X28634528Y-23976160D01*
X28457307Y-23798630D01*
X28493859Y-23745134D01*
X28524464Y-23594000D01*
X28524464Y-23094000D01*
X28497897Y-22952810D01*
X28414454Y-22823135D01*
X28287134Y-22736141D01*
X28136000Y-22705536D01*
X27236000Y-22705536D01*
X27094810Y-22732103D01*
X26965135Y-22815546D01*
X26878141Y-22942866D01*
X26847536Y-23094000D01*
X26847536Y-23594000D01*
X26874103Y-23735190D01*
X26957546Y-23864865D01*
X27021320Y-23908440D01*
X26954949Y-23974695D01*
X26803821Y-24338650D01*
X26803652Y-24532216D01*
X26573080Y-24532015D01*
X26208861Y-24682508D01*
X25929958Y-24960925D01*
X25778830Y-25324880D01*
X25778486Y-25718965D01*
X25928979Y-26083184D01*
X26207396Y-26362087D01*
X26468569Y-26470536D01*
X25520000Y-26470536D01*
X25378810Y-26497103D01*
X25249135Y-26580546D01*
X25162141Y-26707866D01*
X25131536Y-26859000D01*
X25131536Y-27109000D01*
X25158103Y-27250190D01*
X25241546Y-27379865D01*
X25368866Y-27466859D01*
X25451072Y-27483506D01*
X25378810Y-27497103D01*
X25249135Y-27580546D01*
X25162141Y-27707866D01*
X25131536Y-27859000D01*
X25131536Y-28109000D01*
X25155920Y-28238588D01*
X25131536Y-28359000D01*
X25131536Y-28609000D01*
X25155920Y-28738588D01*
X25131536Y-28859000D01*
X25131536Y-29109000D01*
X25155920Y-29238588D01*
X25131536Y-29359000D01*
X25131536Y-29476000D01*
X23634000Y-29476000D01*
X23634000Y-29314648D01*
X23932093Y-29438428D01*
X24326178Y-29438772D01*
X24690397Y-29288279D01*
X24969300Y-29009862D01*
X25120428Y-28645907D01*
X25120772Y-28251822D01*
X24970279Y-27887603D01*
X24758681Y-27675635D01*
X24801501Y-27632815D01*
X24911622Y-27468009D01*
X24950291Y-27273605D01*
X24950291Y-26341197D01*
X24911622Y-26146794D01*
X24906508Y-26139141D01*
X24801502Y-25981987D01*
X24706870Y-25887356D01*
X24675530Y-25729796D01*
X24612706Y-25635774D01*
X24578000Y-25583832D01*
X24578000Y-25560982D01*
X24583464Y-25534000D01*
X24583464Y-24600956D01*
X25475956Y-23708464D01*
X25771000Y-23708464D01*
X25912190Y-23681897D01*
X26041865Y-23598454D01*
X26128859Y-23471134D01*
X26159464Y-23320000D01*
X26159464Y-22320000D01*
X26132897Y-22178810D01*
X26049454Y-22049135D01*
X25922134Y-21962141D01*
X25771000Y-21931536D01*
X24521000Y-21931536D01*
X24379810Y-21958103D01*
X24358489Y-21971822D01*
X24358772Y-21647822D01*
X24336534Y-21594000D01*
X26847536Y-21594000D01*
X26847536Y-22094000D01*
X26874103Y-22235190D01*
X26957546Y-22364865D01*
X27084866Y-22451859D01*
X27236000Y-22482464D01*
X28136000Y-22482464D01*
X28277190Y-22455897D01*
X28406865Y-22372454D01*
X28493859Y-22245134D01*
X28524464Y-22094000D01*
X28524464Y-21594000D01*
X29387536Y-21594000D01*
X29387536Y-22094000D01*
X29414103Y-22235190D01*
X29497546Y-22364865D01*
X29624866Y-22451859D01*
X29776000Y-22482464D01*
X30676000Y-22482464D01*
X30817190Y-22455897D01*
X30946865Y-22372454D01*
X31033859Y-22245134D01*
X31064464Y-22094000D01*
X31064464Y-21594000D01*
X31927536Y-21594000D01*
X31927536Y-22094000D01*
X31954103Y-22235190D01*
X32037546Y-22364865D01*
X32164866Y-22451859D01*
X32316000Y-22482464D01*
X33216000Y-22482464D01*
X33357190Y-22455897D01*
X33486865Y-22372454D01*
X33573859Y-22245134D01*
X33604464Y-22094000D01*
X33604464Y-21606000D01*
X37515536Y-21606000D01*
X37515536Y-22106000D01*
X37542103Y-22247190D01*
X37625546Y-22376865D01*
X37752866Y-22463859D01*
X37904000Y-22494464D01*
X38804000Y-22494464D01*
X38945190Y-22467897D01*
X39074865Y-22384454D01*
X39161859Y-22257134D01*
X39192464Y-22106000D01*
X39192464Y-21606000D01*
X40055536Y-21606000D01*
X40055536Y-22106000D01*
X40082103Y-22247190D01*
X40165546Y-22376865D01*
X40292866Y-22463859D01*
X40444000Y-22494464D01*
X41344000Y-22494464D01*
X41485190Y-22467897D01*
X41614865Y-22384454D01*
X41701859Y-22257134D01*
X41732464Y-22106000D01*
X41732464Y-21606000D01*
X42595536Y-21606000D01*
X42595536Y-22106000D01*
X42622103Y-22247190D01*
X42705546Y-22376865D01*
X42832866Y-22463859D01*
X42984000Y-22494464D01*
X43884000Y-22494464D01*
X44025190Y-22467897D01*
X44154865Y-22384454D01*
X44241859Y-22257134D01*
X44272464Y-22106000D01*
X44272464Y-21606000D01*
X45135536Y-21606000D01*
X45135536Y-22106000D01*
X45162103Y-22247190D01*
X45245546Y-22376865D01*
X45372866Y-22463859D01*
X45524000Y-22494464D01*
X46424000Y-22494464D01*
X46565190Y-22467897D01*
X46694865Y-22384454D01*
X46781859Y-22257134D01*
X46812464Y-22106000D01*
X46812464Y-21606000D01*
X46785897Y-21464810D01*
X46702454Y-21335135D01*
X46575134Y-21248141D01*
X46431200Y-21218994D01*
X46431200Y-20818938D01*
X46504859Y-20711134D01*
X46535464Y-20560000D01*
X46535464Y-19060000D01*
X46508897Y-18918810D01*
X46425454Y-18789135D01*
X46298134Y-18702141D01*
X46147000Y-18671536D01*
X45547000Y-18671536D01*
X45405810Y-18698103D01*
X45276135Y-18781546D01*
X45189141Y-18908866D01*
X45158536Y-19060000D01*
X45158536Y-20560000D01*
X45185103Y-20701190D01*
X45262800Y-20821935D01*
X45262800Y-21321327D01*
X45253135Y-21327546D01*
X45166141Y-21454866D01*
X45135536Y-21606000D01*
X44272464Y-21606000D01*
X44245897Y-21464810D01*
X44162454Y-21335135D01*
X44035134Y-21248141D01*
X43891200Y-21218994D01*
X43891200Y-20818938D01*
X43964859Y-20711134D01*
X43995464Y-20560000D01*
X43995464Y-19060000D01*
X43968897Y-18918810D01*
X43885454Y-18789135D01*
X43758134Y-18702141D01*
X43607000Y-18671536D01*
X43007000Y-18671536D01*
X42865810Y-18698103D01*
X42736135Y-18781546D01*
X42649141Y-18908866D01*
X42618536Y-19060000D01*
X42618536Y-20560000D01*
X42645103Y-20701190D01*
X42722800Y-20821935D01*
X42722800Y-21321327D01*
X42713135Y-21327546D01*
X42626141Y-21454866D01*
X42595536Y-21606000D01*
X41732464Y-21606000D01*
X41705897Y-21464810D01*
X41622454Y-21335135D01*
X41495134Y-21248141D01*
X41351200Y-21218994D01*
X41351200Y-20818938D01*
X41424859Y-20711134D01*
X41455464Y-20560000D01*
X41455464Y-19060000D01*
X41428897Y-18918810D01*
X41345454Y-18789135D01*
X41218134Y-18702141D01*
X41067000Y-18671536D01*
X40467000Y-18671536D01*
X40325810Y-18698103D01*
X40196135Y-18781546D01*
X40109141Y-18908866D01*
X40078536Y-19060000D01*
X40078536Y-20560000D01*
X40105103Y-20701190D01*
X40182800Y-20821935D01*
X40182800Y-21321327D01*
X40173135Y-21327546D01*
X40086141Y-21454866D01*
X40055536Y-21606000D01*
X39192464Y-21606000D01*
X39165897Y-21464810D01*
X39082454Y-21335135D01*
X38955134Y-21248141D01*
X38811200Y-21218994D01*
X38811200Y-20818938D01*
X38884859Y-20711134D01*
X38915464Y-20560000D01*
X38915464Y-19060000D01*
X38888897Y-18918810D01*
X38805454Y-18789135D01*
X38678134Y-18702141D01*
X38527000Y-18671536D01*
X37927000Y-18671536D01*
X37785810Y-18698103D01*
X37656135Y-18781546D01*
X37569141Y-18908866D01*
X37538536Y-19060000D01*
X37538536Y-20560000D01*
X37565103Y-20701190D01*
X37642800Y-20821935D01*
X37642800Y-21321327D01*
X37633135Y-21327546D01*
X37546141Y-21454866D01*
X37515536Y-21606000D01*
X33604464Y-21606000D01*
X33604464Y-21594000D01*
X33577897Y-21452810D01*
X33494454Y-21323135D01*
X33367134Y-21236141D01*
X33223200Y-21206994D01*
X33223200Y-20818938D01*
X33296859Y-20711134D01*
X33327464Y-20560000D01*
X33327464Y-19060000D01*
X33300897Y-18918810D01*
X33217454Y-18789135D01*
X33090134Y-18702141D01*
X32939000Y-18671536D01*
X32339000Y-18671536D01*
X32197810Y-18698103D01*
X32068135Y-18781546D01*
X31981141Y-18908866D01*
X31950536Y-19060000D01*
X31950536Y-20560000D01*
X31977103Y-20701190D01*
X32054800Y-20821935D01*
X32054800Y-21309327D01*
X32045135Y-21315546D01*
X31958141Y-21442866D01*
X31927536Y-21594000D01*
X31064464Y-21594000D01*
X31037897Y-21452810D01*
X30954454Y-21323135D01*
X30827134Y-21236141D01*
X30683200Y-21206994D01*
X30683200Y-20818938D01*
X30756859Y-20711134D01*
X30787464Y-20560000D01*
X30787464Y-19060000D01*
X30760897Y-18918810D01*
X30677454Y-18789135D01*
X30550134Y-18702141D01*
X30399000Y-18671536D01*
X29799000Y-18671536D01*
X29657810Y-18698103D01*
X29528135Y-18781546D01*
X29441141Y-18908866D01*
X29410536Y-19060000D01*
X29410536Y-20560000D01*
X29437103Y-20701190D01*
X29514800Y-20821935D01*
X29514800Y-21309327D01*
X29505135Y-21315546D01*
X29418141Y-21442866D01*
X29387536Y-21594000D01*
X28524464Y-21594000D01*
X28497897Y-21452810D01*
X28414454Y-21323135D01*
X28287134Y-21236141D01*
X28143200Y-21206994D01*
X28143200Y-20818938D01*
X28216859Y-20711134D01*
X28247464Y-20560000D01*
X28247464Y-19060000D01*
X28220897Y-18918810D01*
X28137454Y-18789135D01*
X28010134Y-18702141D01*
X27859000Y-18671536D01*
X27259000Y-18671536D01*
X27117810Y-18698103D01*
X26988135Y-18781546D01*
X26901141Y-18908866D01*
X26870536Y-19060000D01*
X26870536Y-20560000D01*
X26897103Y-20701190D01*
X26974800Y-20821935D01*
X26974800Y-21309327D01*
X26965135Y-21315546D01*
X26878141Y-21442866D01*
X26847536Y-21594000D01*
X24336534Y-21594000D01*
X24208279Y-21283603D01*
X23929862Y-21004700D01*
X23565907Y-20853572D01*
X23171822Y-20853228D01*
X22807603Y-21003721D01*
X22528700Y-21282138D01*
X22377572Y-21646093D01*
X22377228Y-22040178D01*
X22527721Y-22404397D01*
X22636823Y-22513690D01*
X22586141Y-22587866D01*
X22555536Y-22739000D01*
X22555536Y-23489000D01*
X22580562Y-23622000D01*
X21078000Y-23622000D01*
X21078000Y-23606000D01*
X21039331Y-23411597D01*
X20994164Y-23344000D01*
X20929211Y-23246790D01*
X20829464Y-23147043D01*
X20829464Y-22702000D01*
X20802897Y-22560810D01*
X20719454Y-22431135D01*
X20592134Y-22344141D01*
X20441000Y-22313536D01*
X19691000Y-22313536D01*
X19558000Y-22338562D01*
X19558000Y-21590000D01*
X19551798Y-21558819D01*
X19519331Y-21395596D01*
X19409210Y-21230790D01*
X16256000Y-18077580D01*
X16256000Y-13338813D01*
X16456138Y-13539300D01*
X16820093Y-13690428D01*
X17214178Y-13690772D01*
X17578397Y-13540279D01*
X17857300Y-13261862D01*
X17879666Y-13208000D01*
X18021411Y-13208000D01*
X18022187Y-13208530D01*
G36*
X27203103Y-33065190D02*
X27286546Y-33194865D01*
X27413866Y-33281859D01*
X27565000Y-33312464D01*
X28270199Y-33312464D01*
X28270199Y-38805105D01*
X28308868Y-38999508D01*
X28418989Y-39164315D01*
X28448000Y-39193326D01*
X28448000Y-39368536D01*
X27806000Y-39368536D01*
X27664810Y-39395103D01*
X27535135Y-39478546D01*
X27448141Y-39605866D01*
X27417536Y-39757000D01*
X27417536Y-40507000D01*
X27444103Y-40648190D01*
X27527546Y-40777865D01*
X27559000Y-40799357D01*
X27559000Y-41176194D01*
X27542135Y-41187046D01*
X27455141Y-41314366D01*
X27424536Y-41465500D01*
X27424536Y-42200115D01*
X26902210Y-41677790D01*
X26737403Y-41567669D01*
X26677464Y-41555746D01*
X26677464Y-41465500D01*
X26650897Y-41324310D01*
X26567454Y-41194635D01*
X26440134Y-41107641D01*
X26289000Y-41077036D01*
X25781000Y-41077036D01*
X25639810Y-41103603D01*
X25510135Y-41187046D01*
X25423141Y-41314366D01*
X25400274Y-41427288D01*
X25380897Y-41324310D01*
X25297454Y-41194635D01*
X25170134Y-41107641D01*
X25019000Y-41077036D01*
X24511000Y-41077036D01*
X24369810Y-41103603D01*
X24240135Y-41187046D01*
X24153141Y-41314366D01*
X24130274Y-41427288D01*
X24110897Y-41324310D01*
X24027454Y-41194635D01*
X23900134Y-41107641D01*
X23749000Y-41077036D01*
X23241000Y-41077036D01*
X23099810Y-41103603D01*
X22970135Y-41187046D01*
X22883141Y-41314366D01*
X22860274Y-41427288D01*
X22840897Y-41324310D01*
X22757454Y-41194635D01*
X22733000Y-41177926D01*
X22733000Y-40895464D01*
X22764000Y-40895464D01*
X22905190Y-40868897D01*
X23034865Y-40785454D01*
X23121859Y-40658134D01*
X23152464Y-40507000D01*
X23152464Y-40061956D01*
X23969210Y-39245210D01*
X24060977Y-39107872D01*
X24151190Y-39090897D01*
X24280865Y-39007454D01*
X24367859Y-38880134D01*
X24398464Y-38729000D01*
X24398464Y-37979000D01*
X24371897Y-37837810D01*
X24288454Y-37708135D01*
X24161134Y-37621141D01*
X24078000Y-37604306D01*
X24078000Y-37322464D01*
X24195000Y-37322464D01*
X24258065Y-37310597D01*
X24342618Y-37515229D01*
X24621035Y-37794132D01*
X24984990Y-37945260D01*
X25379075Y-37945604D01*
X25743294Y-37795111D01*
X26022197Y-37516694D01*
X26150336Y-37208103D01*
X26218093Y-37236238D01*
X26612178Y-37236582D01*
X26976397Y-37086089D01*
X27255300Y-36807672D01*
X27406428Y-36443717D01*
X27406772Y-36049632D01*
X27256279Y-35685413D01*
X26977862Y-35406510D01*
X26613907Y-35255382D01*
X26528000Y-35255307D01*
X26528000Y-34995959D01*
X26661190Y-34970897D01*
X26790865Y-34887454D01*
X26877859Y-34760134D01*
X26908464Y-34609000D01*
X26908464Y-34359000D01*
X26884080Y-34229412D01*
X26908464Y-34109000D01*
X26908464Y-33859000D01*
X26881897Y-33717810D01*
X26798454Y-33588135D01*
X26671134Y-33501141D01*
X26588928Y-33484494D01*
X26661190Y-33470897D01*
X26790865Y-33387454D01*
X26877859Y-33260134D01*
X26908464Y-33109000D01*
X26908464Y-32992000D01*
X27189331Y-32992000D01*
X27203103Y-33065190D01*
X27203103Y-33065190D01*
G37*
X27203103Y-33065190D02*
X27286546Y-33194865D01*
X27413866Y-33281859D01*
X27565000Y-33312464D01*
X28270199Y-33312464D01*
X28270199Y-38805105D01*
X28308868Y-38999508D01*
X28418989Y-39164315D01*
X28448000Y-39193326D01*
X28448000Y-39368536D01*
X27806000Y-39368536D01*
X27664810Y-39395103D01*
X27535135Y-39478546D01*
X27448141Y-39605866D01*
X27417536Y-39757000D01*
X27417536Y-40507000D01*
X27444103Y-40648190D01*
X27527546Y-40777865D01*
X27559000Y-40799357D01*
X27559000Y-41176194D01*
X27542135Y-41187046D01*
X27455141Y-41314366D01*
X27424536Y-41465500D01*
X27424536Y-42200115D01*
X26902210Y-41677790D01*
X26737403Y-41567669D01*
X26677464Y-41555746D01*
X26677464Y-41465500D01*
X26650897Y-41324310D01*
X26567454Y-41194635D01*
X26440134Y-41107641D01*
X26289000Y-41077036D01*
X25781000Y-41077036D01*
X25639810Y-41103603D01*
X25510135Y-41187046D01*
X25423141Y-41314366D01*
X25400274Y-41427288D01*
X25380897Y-41324310D01*
X25297454Y-41194635D01*
X25170134Y-41107641D01*
X25019000Y-41077036D01*
X24511000Y-41077036D01*
X24369810Y-41103603D01*
X24240135Y-41187046D01*
X24153141Y-41314366D01*
X24130274Y-41427288D01*
X24110897Y-41324310D01*
X24027454Y-41194635D01*
X23900134Y-41107641D01*
X23749000Y-41077036D01*
X23241000Y-41077036D01*
X23099810Y-41103603D01*
X22970135Y-41187046D01*
X22883141Y-41314366D01*
X22860274Y-41427288D01*
X22840897Y-41324310D01*
X22757454Y-41194635D01*
X22733000Y-41177926D01*
X22733000Y-40895464D01*
X22764000Y-40895464D01*
X22905190Y-40868897D01*
X23034865Y-40785454D01*
X23121859Y-40658134D01*
X23152464Y-40507000D01*
X23152464Y-40061956D01*
X23969210Y-39245210D01*
X24060977Y-39107872D01*
X24151190Y-39090897D01*
X24280865Y-39007454D01*
X24367859Y-38880134D01*
X24398464Y-38729000D01*
X24398464Y-37979000D01*
X24371897Y-37837810D01*
X24288454Y-37708135D01*
X24161134Y-37621141D01*
X24078000Y-37604306D01*
X24078000Y-37322464D01*
X24195000Y-37322464D01*
X24258065Y-37310597D01*
X24342618Y-37515229D01*
X24621035Y-37794132D01*
X24984990Y-37945260D01*
X25379075Y-37945604D01*
X25743294Y-37795111D01*
X26022197Y-37516694D01*
X26150336Y-37208103D01*
X26218093Y-37236238D01*
X26612178Y-37236582D01*
X26976397Y-37086089D01*
X27255300Y-36807672D01*
X27406428Y-36443717D01*
X27406772Y-36049632D01*
X27256279Y-35685413D01*
X26977862Y-35406510D01*
X26613907Y-35255382D01*
X26528000Y-35255307D01*
X26528000Y-34995959D01*
X26661190Y-34970897D01*
X26790865Y-34887454D01*
X26877859Y-34760134D01*
X26908464Y-34609000D01*
X26908464Y-34359000D01*
X26884080Y-34229412D01*
X26908464Y-34109000D01*
X26908464Y-33859000D01*
X26881897Y-33717810D01*
X26798454Y-33588135D01*
X26671134Y-33501141D01*
X26588928Y-33484494D01*
X26661190Y-33470897D01*
X26790865Y-33387454D01*
X26877859Y-33260134D01*
X26908464Y-33109000D01*
X26908464Y-32992000D01*
X27189331Y-32992000D01*
X27203103Y-33065190D01*
G36*
X29385721Y-33834397D02*
X29664138Y-34113300D01*
X29718000Y-34135666D01*
X29718000Y-34136104D01*
X29756669Y-34330507D01*
X29866790Y-34495314D01*
X30149801Y-34778325D01*
X30149801Y-40998940D01*
X30137669Y-41017097D01*
X30107054Y-41171011D01*
X30082135Y-41187046D01*
X29995141Y-41314366D01*
X29972274Y-41427288D01*
X29952897Y-41324310D01*
X29869454Y-41194635D01*
X29837271Y-41172646D01*
X29806331Y-41017097D01*
X29806331Y-41017096D01*
X29696210Y-40852289D01*
X29464000Y-40620080D01*
X29464000Y-38982906D01*
X29425331Y-38788503D01*
X29415507Y-38773800D01*
X29315211Y-38623696D01*
X29286199Y-38594684D01*
X29286199Y-33593537D01*
X29385721Y-33834397D01*
X29385721Y-33834397D01*
G37*
X29385721Y-33834397D02*
X29664138Y-34113300D01*
X29718000Y-34135666D01*
X29718000Y-34136104D01*
X29756669Y-34330507D01*
X29866790Y-34495314D01*
X30149801Y-34778325D01*
X30149801Y-40998940D01*
X30137669Y-41017097D01*
X30107054Y-41171011D01*
X30082135Y-41187046D01*
X29995141Y-41314366D01*
X29972274Y-41427288D01*
X29952897Y-41324310D01*
X29869454Y-41194635D01*
X29837271Y-41172646D01*
X29806331Y-41017097D01*
X29806331Y-41017096D01*
X29696210Y-40852289D01*
X29464000Y-40620080D01*
X29464000Y-38982906D01*
X29425331Y-38788503D01*
X29415507Y-38773800D01*
X29315211Y-38623696D01*
X29286199Y-38594684D01*
X29286199Y-33593537D01*
X29385721Y-33834397D01*
G36*
X15550055Y-33203114D02*
X15549711Y-33597199D01*
X15571983Y-33651101D01*
X15571674Y-33651410D01*
X15461553Y-33816217D01*
X15422884Y-34010620D01*
X15422884Y-34126101D01*
X15398454Y-34088135D01*
X15271134Y-34001141D01*
X15188928Y-33984494D01*
X15261190Y-33970897D01*
X15390865Y-33887454D01*
X15477859Y-33760134D01*
X15508464Y-33609000D01*
X15508464Y-33359000D01*
X15481897Y-33217810D01*
X15398454Y-33088135D01*
X15271134Y-33001141D01*
X15225994Y-32992000D01*
X15374000Y-32992000D01*
X15488569Y-32969211D01*
X15647180Y-32969211D01*
X15550055Y-33203114D01*
X15550055Y-33203114D01*
G37*
X15550055Y-33203114D02*
X15549711Y-33597199D01*
X15571983Y-33651101D01*
X15571674Y-33651410D01*
X15461553Y-33816217D01*
X15422884Y-34010620D01*
X15422884Y-34126101D01*
X15398454Y-34088135D01*
X15271134Y-34001141D01*
X15188928Y-33984494D01*
X15261190Y-33970897D01*
X15390865Y-33887454D01*
X15477859Y-33760134D01*
X15508464Y-33609000D01*
X15508464Y-33359000D01*
X15481897Y-33217810D01*
X15398454Y-33088135D01*
X15271134Y-33001141D01*
X15225994Y-32992000D01*
X15374000Y-32992000D01*
X15488569Y-32969211D01*
X15647180Y-32969211D01*
X15550055Y-33203114D01*
G36*
X58433536Y-27610720D02*
X58433536Y-27823000D01*
X58460103Y-27964190D01*
X58543546Y-28093865D01*
X58670866Y-28180859D01*
X58822000Y-28211464D01*
X59867800Y-28211464D01*
X59867800Y-28684536D01*
X58822000Y-28684536D01*
X58680810Y-28711103D01*
X58551135Y-28794546D01*
X58485914Y-28890000D01*
X57548420Y-28890000D01*
X56767009Y-28108589D01*
X56643464Y-28026039D01*
X56643464Y-27735720D01*
X57028384Y-27350800D01*
X58173616Y-27350800D01*
X58433536Y-27610720D01*
X58433536Y-27610720D01*
G37*
X58433536Y-27610720D02*
X58433536Y-27823000D01*
X58460103Y-27964190D01*
X58543546Y-28093865D01*
X58670866Y-28180859D01*
X58822000Y-28211464D01*
X59867800Y-28211464D01*
X59867800Y-28684536D01*
X58822000Y-28684536D01*
X58680810Y-28711103D01*
X58551135Y-28794546D01*
X58485914Y-28890000D01*
X57548420Y-28890000D01*
X56767009Y-28108589D01*
X56643464Y-28026039D01*
X56643464Y-27735720D01*
X57028384Y-27350800D01*
X58173616Y-27350800D01*
X58433536Y-27610720D01*
G36*
X24345536Y-7934595D02*
X24345536Y-8249000D01*
X24372103Y-8390190D01*
X24455546Y-8519865D01*
X24582866Y-8606859D01*
X24626000Y-8615594D01*
X24626000Y-9272460D01*
X24558810Y-9285103D01*
X24429135Y-9368546D01*
X24342141Y-9495866D01*
X24311536Y-9647000D01*
X24311536Y-10297000D01*
X24338103Y-10438190D01*
X24342605Y-10445187D01*
X24342141Y-10445866D01*
X24311536Y-10597000D01*
X24311536Y-11247000D01*
X24337608Y-11385560D01*
X24251596Y-11402669D01*
X24086790Y-11512790D01*
X23948464Y-11651116D01*
X23948464Y-11547000D01*
X23921897Y-11405810D01*
X23838454Y-11276135D01*
X23711134Y-11189141D01*
X23560000Y-11158536D01*
X22500000Y-11158536D01*
X22358810Y-11185103D01*
X22229135Y-11268546D01*
X22194625Y-11319053D01*
X22038403Y-11214669D01*
X21844000Y-11176000D01*
X21818732Y-11176000D01*
X21810454Y-11163135D01*
X21683134Y-11076141D01*
X21532000Y-11045536D01*
X21136957Y-11045536D01*
X20913885Y-10822464D01*
X21532000Y-10822464D01*
X21673190Y-10795897D01*
X21802865Y-10712454D01*
X21889859Y-10585134D01*
X21911149Y-10480000D01*
X22165007Y-10480000D01*
X22221546Y-10567865D01*
X22348866Y-10654859D01*
X22500000Y-10685464D01*
X23560000Y-10685464D01*
X23701190Y-10658897D01*
X23830865Y-10575454D01*
X23917859Y-10448134D01*
X23948464Y-10297000D01*
X23948464Y-9647000D01*
X23921897Y-9505810D01*
X23838454Y-9376135D01*
X23711134Y-9289141D01*
X23560000Y-9258536D01*
X22500000Y-9258536D01*
X22358810Y-9285103D01*
X22229135Y-9368546D01*
X22163914Y-9464000D01*
X21713435Y-9464000D01*
X21802865Y-9406454D01*
X21889859Y-9279134D01*
X21920464Y-9128000D01*
X21920464Y-8628000D01*
X21893897Y-8486810D01*
X21810454Y-8357135D01*
X21683134Y-8270141D01*
X21532000Y-8239536D01*
X20632000Y-8239536D01*
X20490810Y-8266103D01*
X20361135Y-8349546D01*
X20274141Y-8476866D01*
X20243536Y-8628000D01*
X20243536Y-9128000D01*
X20270103Y-9269190D01*
X20353546Y-9398865D01*
X20480866Y-9485859D01*
X20574000Y-9504719D01*
X20574000Y-9556450D01*
X20490810Y-9572103D01*
X20361135Y-9655546D01*
X20274141Y-9782866D01*
X20243536Y-9934000D01*
X20243536Y-10152116D01*
X20094464Y-10003044D01*
X20094464Y-9733000D01*
X20067897Y-9591810D01*
X19984454Y-9462135D01*
X19889813Y-9397470D01*
X19976865Y-9341454D01*
X20063859Y-9214134D01*
X20094464Y-9063000D01*
X20094464Y-8463000D01*
X20067897Y-8321810D01*
X19984454Y-8192135D01*
X19889813Y-8127470D01*
X19976865Y-8071454D01*
X20025004Y-8001000D01*
X20555635Y-8001000D01*
X20632000Y-8016464D01*
X21532000Y-8016464D01*
X21673190Y-7989897D01*
X21802865Y-7906454D01*
X21889859Y-7779134D01*
X21920464Y-7628000D01*
X21920464Y-7457957D01*
X21996421Y-7382000D01*
X23792942Y-7382000D01*
X24345536Y-7934595D01*
X24345536Y-7934595D01*
G37*
X24345536Y-7934595D02*
X24345536Y-8249000D01*
X24372103Y-8390190D01*
X24455546Y-8519865D01*
X24582866Y-8606859D01*
X24626000Y-8615594D01*
X24626000Y-9272460D01*
X24558810Y-9285103D01*
X24429135Y-9368546D01*
X24342141Y-9495866D01*
X24311536Y-9647000D01*
X24311536Y-10297000D01*
X24338103Y-10438190D01*
X24342605Y-10445187D01*
X24342141Y-10445866D01*
X24311536Y-10597000D01*
X24311536Y-11247000D01*
X24337608Y-11385560D01*
X24251596Y-11402669D01*
X24086790Y-11512790D01*
X23948464Y-11651116D01*
X23948464Y-11547000D01*
X23921897Y-11405810D01*
X23838454Y-11276135D01*
X23711134Y-11189141D01*
X23560000Y-11158536D01*
X22500000Y-11158536D01*
X22358810Y-11185103D01*
X22229135Y-11268546D01*
X22194625Y-11319053D01*
X22038403Y-11214669D01*
X21844000Y-11176000D01*
X21818732Y-11176000D01*
X21810454Y-11163135D01*
X21683134Y-11076141D01*
X21532000Y-11045536D01*
X21136957Y-11045536D01*
X20913885Y-10822464D01*
X21532000Y-10822464D01*
X21673190Y-10795897D01*
X21802865Y-10712454D01*
X21889859Y-10585134D01*
X21911149Y-10480000D01*
X22165007Y-10480000D01*
X22221546Y-10567865D01*
X22348866Y-10654859D01*
X22500000Y-10685464D01*
X23560000Y-10685464D01*
X23701190Y-10658897D01*
X23830865Y-10575454D01*
X23917859Y-10448134D01*
X23948464Y-10297000D01*
X23948464Y-9647000D01*
X23921897Y-9505810D01*
X23838454Y-9376135D01*
X23711134Y-9289141D01*
X23560000Y-9258536D01*
X22500000Y-9258536D01*
X22358810Y-9285103D01*
X22229135Y-9368546D01*
X22163914Y-9464000D01*
X21713435Y-9464000D01*
X21802865Y-9406454D01*
X21889859Y-9279134D01*
X21920464Y-9128000D01*
X21920464Y-8628000D01*
X21893897Y-8486810D01*
X21810454Y-8357135D01*
X21683134Y-8270141D01*
X21532000Y-8239536D01*
X20632000Y-8239536D01*
X20490810Y-8266103D01*
X20361135Y-8349546D01*
X20274141Y-8476866D01*
X20243536Y-8628000D01*
X20243536Y-9128000D01*
X20270103Y-9269190D01*
X20353546Y-9398865D01*
X20480866Y-9485859D01*
X20574000Y-9504719D01*
X20574000Y-9556450D01*
X20490810Y-9572103D01*
X20361135Y-9655546D01*
X20274141Y-9782866D01*
X20243536Y-9934000D01*
X20243536Y-10152116D01*
X20094464Y-10003044D01*
X20094464Y-9733000D01*
X20067897Y-9591810D01*
X19984454Y-9462135D01*
X19889813Y-9397470D01*
X19976865Y-9341454D01*
X20063859Y-9214134D01*
X20094464Y-9063000D01*
X20094464Y-8463000D01*
X20067897Y-8321810D01*
X19984454Y-8192135D01*
X19889813Y-8127470D01*
X19976865Y-8071454D01*
X20025004Y-8001000D01*
X20555635Y-8001000D01*
X20632000Y-8016464D01*
X21532000Y-8016464D01*
X21673190Y-7989897D01*
X21802865Y-7906454D01*
X21889859Y-7779134D01*
X21920464Y-7628000D01*
X21920464Y-7457957D01*
X21996421Y-7382000D01*
X23792942Y-7382000D01*
X24345536Y-7934595D01*
G36*
X35433000Y-11176000D02*
X35443006Y-11225410D01*
X35471447Y-11267035D01*
X35513841Y-11294315D01*
X35560000Y-11303000D01*
X46951548Y-11303000D01*
X47625000Y-11751968D01*
X47625000Y-13657338D01*
X47134538Y-14147800D01*
X46479806Y-14147800D01*
X46504859Y-14111134D01*
X46535464Y-13960000D01*
X46535464Y-12460000D01*
X46508897Y-12318810D01*
X46425454Y-12189135D01*
X46298134Y-12102141D01*
X46147000Y-12071536D01*
X45547000Y-12071536D01*
X45405810Y-12098103D01*
X45276135Y-12181546D01*
X45189141Y-12308866D01*
X45158536Y-12460000D01*
X45158536Y-13960000D01*
X45185103Y-14101190D01*
X45262800Y-14221935D01*
X45262800Y-14351000D01*
X44117784Y-14351000D01*
X43929568Y-14162784D01*
X43964859Y-14111134D01*
X43995464Y-13960000D01*
X43995464Y-12460000D01*
X43968897Y-12318810D01*
X43885454Y-12189135D01*
X43758134Y-12102141D01*
X43607000Y-12071536D01*
X43007000Y-12071536D01*
X42865810Y-12098103D01*
X42736135Y-12181546D01*
X42649141Y-12308866D01*
X42618536Y-12460000D01*
X42618536Y-13960000D01*
X42645103Y-14101190D01*
X42722800Y-14221935D01*
X42722800Y-14351000D01*
X41478200Y-14351000D01*
X41478200Y-13337000D01*
X41455464Y-13222699D01*
X41455464Y-12460000D01*
X41428897Y-12318810D01*
X41345454Y-12189135D01*
X41218134Y-12102141D01*
X41067000Y-12071536D01*
X40467000Y-12071536D01*
X40325810Y-12098103D01*
X40196135Y-12181546D01*
X40109141Y-12308866D01*
X40078536Y-12460000D01*
X40078536Y-13960000D01*
X40105103Y-14101190D01*
X40188546Y-14230865D01*
X40309800Y-14313714D01*
X40309800Y-14351000D01*
X38811200Y-14351000D01*
X38811200Y-14218938D01*
X38884859Y-14111134D01*
X38915464Y-13960000D01*
X38915464Y-12460000D01*
X38888897Y-12318810D01*
X38805454Y-12189135D01*
X38678134Y-12102141D01*
X38527000Y-12071536D01*
X37927000Y-12071536D01*
X37785810Y-12098103D01*
X37656135Y-12181546D01*
X37569141Y-12308866D01*
X37538536Y-12460000D01*
X37538536Y-13960000D01*
X37565103Y-14101190D01*
X37642800Y-14221935D01*
X37642800Y-14351000D01*
X33350200Y-14351000D01*
X33350200Y-13337000D01*
X33327464Y-13222699D01*
X33327464Y-12460000D01*
X34490536Y-12460000D01*
X34490536Y-13960000D01*
X34517103Y-14101190D01*
X34600546Y-14230865D01*
X34727866Y-14317859D01*
X34879000Y-14348464D01*
X35479000Y-14348464D01*
X35620190Y-14321897D01*
X35749865Y-14238454D01*
X35814530Y-14143813D01*
X35870546Y-14230865D01*
X35997866Y-14317859D01*
X36149000Y-14348464D01*
X36749000Y-14348464D01*
X36890190Y-14321897D01*
X37019865Y-14238454D01*
X37106859Y-14111134D01*
X37137464Y-13960000D01*
X37137464Y-12460000D01*
X37110897Y-12318810D01*
X37027454Y-12189135D01*
X36900134Y-12102141D01*
X36749000Y-12071536D01*
X36149000Y-12071536D01*
X36007810Y-12098103D01*
X35878135Y-12181546D01*
X35813470Y-12276187D01*
X35757454Y-12189135D01*
X35630134Y-12102141D01*
X35479000Y-12071536D01*
X34879000Y-12071536D01*
X34737810Y-12098103D01*
X34608135Y-12181546D01*
X34521141Y-12308866D01*
X34490536Y-12460000D01*
X33327464Y-12460000D01*
X33300897Y-12318810D01*
X33217454Y-12189135D01*
X33090134Y-12102141D01*
X32939000Y-12071536D01*
X32339000Y-12071536D01*
X32197810Y-12098103D01*
X32068135Y-12181546D01*
X31981141Y-12308866D01*
X31950536Y-12460000D01*
X31950536Y-13222700D01*
X31927800Y-13337000D01*
X31950536Y-13451300D01*
X31950536Y-13960000D01*
X31977103Y-14101190D01*
X32060546Y-14230865D01*
X32181800Y-14313714D01*
X32181800Y-14351000D01*
X30556200Y-14351000D01*
X30556200Y-14311595D01*
X30669865Y-14238454D01*
X30756859Y-14111134D01*
X30787464Y-13960000D01*
X30787464Y-12460000D01*
X30760897Y-12318810D01*
X30677454Y-12189135D01*
X30550134Y-12102141D01*
X30399000Y-12071536D01*
X29799000Y-12071536D01*
X29657810Y-12098103D01*
X29528135Y-12181546D01*
X29441141Y-12308866D01*
X29410536Y-12460000D01*
X29410536Y-13222699D01*
X29387800Y-13337000D01*
X29387800Y-14351000D01*
X28321000Y-14351000D01*
X28321000Y-456000D01*
X35433000Y-456000D01*
X35433000Y-11176000D01*
X35433000Y-11176000D01*
G37*
X35433000Y-11176000D02*
X35443006Y-11225410D01*
X35471447Y-11267035D01*
X35513841Y-11294315D01*
X35560000Y-11303000D01*
X46951548Y-11303000D01*
X47625000Y-11751968D01*
X47625000Y-13657338D01*
X47134538Y-14147800D01*
X46479806Y-14147800D01*
X46504859Y-14111134D01*
X46535464Y-13960000D01*
X46535464Y-12460000D01*
X46508897Y-12318810D01*
X46425454Y-12189135D01*
X46298134Y-12102141D01*
X46147000Y-12071536D01*
X45547000Y-12071536D01*
X45405810Y-12098103D01*
X45276135Y-12181546D01*
X45189141Y-12308866D01*
X45158536Y-12460000D01*
X45158536Y-13960000D01*
X45185103Y-14101190D01*
X45262800Y-14221935D01*
X45262800Y-14351000D01*
X44117784Y-14351000D01*
X43929568Y-14162784D01*
X43964859Y-14111134D01*
X43995464Y-13960000D01*
X43995464Y-12460000D01*
X43968897Y-12318810D01*
X43885454Y-12189135D01*
X43758134Y-12102141D01*
X43607000Y-12071536D01*
X43007000Y-12071536D01*
X42865810Y-12098103D01*
X42736135Y-12181546D01*
X42649141Y-12308866D01*
X42618536Y-12460000D01*
X42618536Y-13960000D01*
X42645103Y-14101190D01*
X42722800Y-14221935D01*
X42722800Y-14351000D01*
X41478200Y-14351000D01*
X41478200Y-13337000D01*
X41455464Y-13222699D01*
X41455464Y-12460000D01*
X41428897Y-12318810D01*
X41345454Y-12189135D01*
X41218134Y-12102141D01*
X41067000Y-12071536D01*
X40467000Y-12071536D01*
X40325810Y-12098103D01*
X40196135Y-12181546D01*
X40109141Y-12308866D01*
X40078536Y-12460000D01*
X40078536Y-13960000D01*
X40105103Y-14101190D01*
X40188546Y-14230865D01*
X40309800Y-14313714D01*
X40309800Y-14351000D01*
X38811200Y-14351000D01*
X38811200Y-14218938D01*
X38884859Y-14111134D01*
X38915464Y-13960000D01*
X38915464Y-12460000D01*
X38888897Y-12318810D01*
X38805454Y-12189135D01*
X38678134Y-12102141D01*
X38527000Y-12071536D01*
X37927000Y-12071536D01*
X37785810Y-12098103D01*
X37656135Y-12181546D01*
X37569141Y-12308866D01*
X37538536Y-12460000D01*
X37538536Y-13960000D01*
X37565103Y-14101190D01*
X37642800Y-14221935D01*
X37642800Y-14351000D01*
X33350200Y-14351000D01*
X33350200Y-13337000D01*
X33327464Y-13222699D01*
X33327464Y-12460000D01*
X34490536Y-12460000D01*
X34490536Y-13960000D01*
X34517103Y-14101190D01*
X34600546Y-14230865D01*
X34727866Y-14317859D01*
X34879000Y-14348464D01*
X35479000Y-14348464D01*
X35620190Y-14321897D01*
X35749865Y-14238454D01*
X35814530Y-14143813D01*
X35870546Y-14230865D01*
X35997866Y-14317859D01*
X36149000Y-14348464D01*
X36749000Y-14348464D01*
X36890190Y-14321897D01*
X37019865Y-14238454D01*
X37106859Y-14111134D01*
X37137464Y-13960000D01*
X37137464Y-12460000D01*
X37110897Y-12318810D01*
X37027454Y-12189135D01*
X36900134Y-12102141D01*
X36749000Y-12071536D01*
X36149000Y-12071536D01*
X36007810Y-12098103D01*
X35878135Y-12181546D01*
X35813470Y-12276187D01*
X35757454Y-12189135D01*
X35630134Y-12102141D01*
X35479000Y-12071536D01*
X34879000Y-12071536D01*
X34737810Y-12098103D01*
X34608135Y-12181546D01*
X34521141Y-12308866D01*
X34490536Y-12460000D01*
X33327464Y-12460000D01*
X33300897Y-12318810D01*
X33217454Y-12189135D01*
X33090134Y-12102141D01*
X32939000Y-12071536D01*
X32339000Y-12071536D01*
X32197810Y-12098103D01*
X32068135Y-12181546D01*
X31981141Y-12308866D01*
X31950536Y-12460000D01*
X31950536Y-13222700D01*
X31927800Y-13337000D01*
X31950536Y-13451300D01*
X31950536Y-13960000D01*
X31977103Y-14101190D01*
X32060546Y-14230865D01*
X32181800Y-14313714D01*
X32181800Y-14351000D01*
X30556200Y-14351000D01*
X30556200Y-14311595D01*
X30669865Y-14238454D01*
X30756859Y-14111134D01*
X30787464Y-13960000D01*
X30787464Y-12460000D01*
X30760897Y-12318810D01*
X30677454Y-12189135D01*
X30550134Y-12102141D01*
X30399000Y-12071536D01*
X29799000Y-12071536D01*
X29657810Y-12098103D01*
X29528135Y-12181546D01*
X29441141Y-12308866D01*
X29410536Y-12460000D01*
X29410536Y-13222699D01*
X29387800Y-13337000D01*
X29387800Y-14351000D01*
X28321000Y-14351000D01*
X28321000Y-456000D01*
X35433000Y-456000D01*
X35433000Y-11176000D01*
G36*
X65584000Y-14097000D02*
X49911000Y-14097000D01*
X49911000Y-12954000D01*
X49900994Y-12904590D01*
X49873803Y-12864197D01*
X49703200Y-12693594D01*
X49703200Y-10278464D01*
X49744000Y-10278464D01*
X49885190Y-10251897D01*
X50014865Y-10168454D01*
X50101859Y-10041134D01*
X50132464Y-9890000D01*
X50132464Y-9220200D01*
X51071936Y-9220200D01*
X51071936Y-9499600D01*
X51098503Y-9640790D01*
X51181946Y-9770465D01*
X51309266Y-9857459D01*
X51460400Y-9888064D01*
X53187600Y-9888064D01*
X53328790Y-9861497D01*
X53458465Y-9778054D01*
X53545459Y-9650734D01*
X53576064Y-9499600D01*
X53576064Y-8611617D01*
X53619400Y-8611617D01*
X53619400Y-8660383D01*
X53714140Y-9136671D01*
X53983935Y-9540448D01*
X54279800Y-9738139D01*
X54279800Y-10803536D01*
X54082000Y-10803536D01*
X53940810Y-10830103D01*
X53811135Y-10913546D01*
X53724141Y-11040866D01*
X53693536Y-11192000D01*
X53693536Y-13192000D01*
X53720103Y-13333190D01*
X53803546Y-13462865D01*
X53930866Y-13549859D01*
X54082000Y-13580464D01*
X55332000Y-13580464D01*
X55473190Y-13553897D01*
X55602865Y-13470454D01*
X55689859Y-13343134D01*
X55720464Y-13192000D01*
X55720464Y-11192000D01*
X56039536Y-11192000D01*
X56039536Y-13192000D01*
X56066103Y-13333190D01*
X56149546Y-13462865D01*
X56276866Y-13549859D01*
X56428000Y-13580464D01*
X57678000Y-13580464D01*
X57819190Y-13553897D01*
X57948865Y-13470454D01*
X58035859Y-13343134D01*
X58066464Y-13192000D01*
X58066464Y-11192000D01*
X58039897Y-11050810D01*
X57988200Y-10970470D01*
X57988200Y-9738139D01*
X58284065Y-9540448D01*
X58553860Y-9136671D01*
X58648600Y-8660383D01*
X58648600Y-8611617D01*
X58699400Y-8611617D01*
X58699400Y-8660383D01*
X58794140Y-9136671D01*
X59063935Y-9540448D01*
X59467712Y-9810243D01*
X59944000Y-9904983D01*
X60420288Y-9810243D01*
X60824065Y-9540448D01*
X61038048Y-9220200D01*
X61857536Y-9220200D01*
X61857536Y-10120000D01*
X61884103Y-10261190D01*
X61967546Y-10390865D01*
X62094866Y-10477859D01*
X62246000Y-10508464D01*
X64246000Y-10508464D01*
X64387190Y-10481897D01*
X64516865Y-10398454D01*
X64603859Y-10271134D01*
X64634464Y-10120000D01*
X64634464Y-8870000D01*
X64607897Y-8728810D01*
X64524454Y-8599135D01*
X64397134Y-8512141D01*
X64246000Y-8481536D01*
X63058720Y-8481536D01*
X62800092Y-8222908D01*
X62610564Y-8096270D01*
X62387000Y-8051800D01*
X61038048Y-8051800D01*
X60824065Y-7731552D01*
X60420288Y-7461757D01*
X59944000Y-7367017D01*
X59467712Y-7461757D01*
X59063935Y-7731552D01*
X58794140Y-8135329D01*
X58699400Y-8611617D01*
X58648600Y-8611617D01*
X58553860Y-8135329D01*
X58284065Y-7731552D01*
X57880288Y-7461757D01*
X57404000Y-7367017D01*
X56927712Y-7461757D01*
X56523935Y-7731552D01*
X56254140Y-8135329D01*
X56159400Y-8611617D01*
X56159400Y-8660383D01*
X56254140Y-9136671D01*
X56523935Y-9540448D01*
X56819800Y-9738139D01*
X56819800Y-10803536D01*
X56428000Y-10803536D01*
X56286810Y-10830103D01*
X56157135Y-10913546D01*
X56070141Y-11040866D01*
X56039536Y-11192000D01*
X55720464Y-11192000D01*
X55693897Y-11050810D01*
X55610454Y-10921135D01*
X55483134Y-10834141D01*
X55448200Y-10827067D01*
X55448200Y-9738139D01*
X55744065Y-9540448D01*
X56013860Y-9136671D01*
X56108600Y-8660383D01*
X56108600Y-8611617D01*
X56013860Y-8135329D01*
X55744065Y-7731552D01*
X55340288Y-7461757D01*
X54864000Y-7367017D01*
X54387712Y-7461757D01*
X53983935Y-7731552D01*
X53714140Y-8135329D01*
X53619400Y-8611617D01*
X53576064Y-8611617D01*
X53576064Y-7772400D01*
X53549497Y-7631210D01*
X53466054Y-7501535D01*
X53338734Y-7414541D01*
X53187600Y-7383936D01*
X51460400Y-7383936D01*
X51319210Y-7410503D01*
X51189535Y-7493946D01*
X51102541Y-7621266D01*
X51071936Y-7772400D01*
X51071936Y-8051800D01*
X50132464Y-8051800D01*
X50132464Y-7890000D01*
X50105897Y-7748810D01*
X50022454Y-7619135D01*
X49895134Y-7532141D01*
X49744000Y-7501536D01*
X48494000Y-7501536D01*
X48352810Y-7528103D01*
X48223135Y-7611546D01*
X48136141Y-7738866D01*
X48105536Y-7890000D01*
X48105536Y-9890000D01*
X48132103Y-10031190D01*
X48215546Y-10160865D01*
X48342866Y-10247859D01*
X48494000Y-10278464D01*
X48534800Y-10278464D01*
X48534800Y-11525194D01*
X47587803Y-10578197D01*
X47545789Y-10550334D01*
X47498000Y-10541000D01*
X36195000Y-10541000D01*
X36195000Y-4842000D01*
X48105536Y-4842000D01*
X48105536Y-6842000D01*
X48132103Y-6983190D01*
X48215546Y-7112865D01*
X48342866Y-7199859D01*
X48494000Y-7230464D01*
X49744000Y-7230464D01*
X49885190Y-7203897D01*
X50014865Y-7120454D01*
X50101859Y-6993134D01*
X50132464Y-6842000D01*
X50132464Y-6680200D01*
X51229952Y-6680200D01*
X51443935Y-7000448D01*
X51847712Y-7270243D01*
X52324000Y-7364983D01*
X52800288Y-7270243D01*
X53204065Y-7000448D01*
X53473860Y-6596671D01*
X53568600Y-6120383D01*
X53568600Y-6071617D01*
X53619400Y-6071617D01*
X53619400Y-6120383D01*
X53714140Y-6596671D01*
X53983935Y-7000448D01*
X54387712Y-7270243D01*
X54864000Y-7364983D01*
X55340288Y-7270243D01*
X55744065Y-7000448D01*
X56013860Y-6596671D01*
X56108600Y-6120383D01*
X56108600Y-6071617D01*
X56013860Y-5595329D01*
X55744065Y-5191552D01*
X55448200Y-4993861D01*
X55448200Y-3906599D01*
X55473190Y-3901897D01*
X55602865Y-3818454D01*
X55689859Y-3691134D01*
X55720464Y-3540000D01*
X55720464Y-1540000D01*
X56039536Y-1540000D01*
X56039536Y-3540000D01*
X56066103Y-3681190D01*
X56149546Y-3810865D01*
X56276866Y-3897859D01*
X56428000Y-3928464D01*
X56819800Y-3928464D01*
X56819800Y-4993861D01*
X56523935Y-5191552D01*
X56254140Y-5595329D01*
X56159400Y-6071617D01*
X56159400Y-6120383D01*
X56254140Y-6596671D01*
X56523935Y-7000448D01*
X56927712Y-7270243D01*
X57404000Y-7364983D01*
X57880288Y-7270243D01*
X58284065Y-7000448D01*
X58553860Y-6596671D01*
X58648600Y-6120383D01*
X58648600Y-6071617D01*
X58553860Y-5595329D01*
X58284065Y-5191552D01*
X57988200Y-4993861D01*
X57988200Y-3760885D01*
X58035859Y-3691134D01*
X58066464Y-3540000D01*
X58066464Y-1540000D01*
X58039897Y-1398810D01*
X57956454Y-1269135D01*
X57829134Y-1182141D01*
X57678000Y-1151536D01*
X56428000Y-1151536D01*
X56286810Y-1178103D01*
X56157135Y-1261546D01*
X56070141Y-1388866D01*
X56039536Y-1540000D01*
X55720464Y-1540000D01*
X55693897Y-1398810D01*
X55610454Y-1269135D01*
X55483134Y-1182141D01*
X55332000Y-1151536D01*
X54082000Y-1151536D01*
X53940810Y-1178103D01*
X53811135Y-1261546D01*
X53724141Y-1388866D01*
X53693536Y-1540000D01*
X53693536Y-3540000D01*
X53720103Y-3681190D01*
X53803546Y-3810865D01*
X53930866Y-3897859D01*
X54082000Y-3928464D01*
X54279800Y-3928464D01*
X54279800Y-4993861D01*
X53983935Y-5191552D01*
X53714140Y-5595329D01*
X53619400Y-6071617D01*
X53568600Y-6071617D01*
X53473860Y-5595329D01*
X53204065Y-5191552D01*
X52800288Y-4921757D01*
X52324000Y-4827017D01*
X51847712Y-4921757D01*
X51443935Y-5191552D01*
X51229952Y-5511800D01*
X50132464Y-5511800D01*
X50132464Y-4842000D01*
X50105897Y-4700810D01*
X50022454Y-4571135D01*
X49895134Y-4484141D01*
X49744000Y-4453536D01*
X48494000Y-4453536D01*
X48352810Y-4480103D01*
X48223135Y-4563546D01*
X48136141Y-4690866D01*
X48105536Y-4842000D01*
X36195000Y-4842000D01*
X36195000Y-456000D01*
X65584000Y-456000D01*
X65584000Y-14097000D01*
X65584000Y-14097000D01*
G37*
X65584000Y-14097000D02*
X49911000Y-14097000D01*
X49911000Y-12954000D01*
X49900994Y-12904590D01*
X49873803Y-12864197D01*
X49703200Y-12693594D01*
X49703200Y-10278464D01*
X49744000Y-10278464D01*
X49885190Y-10251897D01*
X50014865Y-10168454D01*
X50101859Y-10041134D01*
X50132464Y-9890000D01*
X50132464Y-9220200D01*
X51071936Y-9220200D01*
X51071936Y-9499600D01*
X51098503Y-9640790D01*
X51181946Y-9770465D01*
X51309266Y-9857459D01*
X51460400Y-9888064D01*
X53187600Y-9888064D01*
X53328790Y-9861497D01*
X53458465Y-9778054D01*
X53545459Y-9650734D01*
X53576064Y-9499600D01*
X53576064Y-8611617D01*
X53619400Y-8611617D01*
X53619400Y-8660383D01*
X53714140Y-9136671D01*
X53983935Y-9540448D01*
X54279800Y-9738139D01*
X54279800Y-10803536D01*
X54082000Y-10803536D01*
X53940810Y-10830103D01*
X53811135Y-10913546D01*
X53724141Y-11040866D01*
X53693536Y-11192000D01*
X53693536Y-13192000D01*
X53720103Y-13333190D01*
X53803546Y-13462865D01*
X53930866Y-13549859D01*
X54082000Y-13580464D01*
X55332000Y-13580464D01*
X55473190Y-13553897D01*
X55602865Y-13470454D01*
X55689859Y-13343134D01*
X55720464Y-13192000D01*
X55720464Y-11192000D01*
X56039536Y-11192000D01*
X56039536Y-13192000D01*
X56066103Y-13333190D01*
X56149546Y-13462865D01*
X56276866Y-13549859D01*
X56428000Y-13580464D01*
X57678000Y-13580464D01*
X57819190Y-13553897D01*
X57948865Y-13470454D01*
X58035859Y-13343134D01*
X58066464Y-13192000D01*
X58066464Y-11192000D01*
X58039897Y-11050810D01*
X57988200Y-10970470D01*
X57988200Y-9738139D01*
X58284065Y-9540448D01*
X58553860Y-9136671D01*
X58648600Y-8660383D01*
X58648600Y-8611617D01*
X58699400Y-8611617D01*
X58699400Y-8660383D01*
X58794140Y-9136671D01*
X59063935Y-9540448D01*
X59467712Y-9810243D01*
X59944000Y-9904983D01*
X60420288Y-9810243D01*
X60824065Y-9540448D01*
X61038048Y-9220200D01*
X61857536Y-9220200D01*
X61857536Y-10120000D01*
X61884103Y-10261190D01*
X61967546Y-10390865D01*
X62094866Y-10477859D01*
X62246000Y-10508464D01*
X64246000Y-10508464D01*
X64387190Y-10481897D01*
X64516865Y-10398454D01*
X64603859Y-10271134D01*
X64634464Y-10120000D01*
X64634464Y-8870000D01*
X64607897Y-8728810D01*
X64524454Y-8599135D01*
X64397134Y-8512141D01*
X64246000Y-8481536D01*
X63058720Y-8481536D01*
X62800092Y-8222908D01*
X62610564Y-8096270D01*
X62387000Y-8051800D01*
X61038048Y-8051800D01*
X60824065Y-7731552D01*
X60420288Y-7461757D01*
X59944000Y-7367017D01*
X59467712Y-7461757D01*
X59063935Y-7731552D01*
X58794140Y-8135329D01*
X58699400Y-8611617D01*
X58648600Y-8611617D01*
X58553860Y-8135329D01*
X58284065Y-7731552D01*
X57880288Y-7461757D01*
X57404000Y-7367017D01*
X56927712Y-7461757D01*
X56523935Y-7731552D01*
X56254140Y-8135329D01*
X56159400Y-8611617D01*
X56159400Y-8660383D01*
X56254140Y-9136671D01*
X56523935Y-9540448D01*
X56819800Y-9738139D01*
X56819800Y-10803536D01*
X56428000Y-10803536D01*
X56286810Y-10830103D01*
X56157135Y-10913546D01*
X56070141Y-11040866D01*
X56039536Y-11192000D01*
X55720464Y-11192000D01*
X55693897Y-11050810D01*
X55610454Y-10921135D01*
X55483134Y-10834141D01*
X55448200Y-10827067D01*
X55448200Y-9738139D01*
X55744065Y-9540448D01*
X56013860Y-9136671D01*
X56108600Y-8660383D01*
X56108600Y-8611617D01*
X56013860Y-8135329D01*
X55744065Y-7731552D01*
X55340288Y-7461757D01*
X54864000Y-7367017D01*
X54387712Y-7461757D01*
X53983935Y-7731552D01*
X53714140Y-8135329D01*
X53619400Y-8611617D01*
X53576064Y-8611617D01*
X53576064Y-7772400D01*
X53549497Y-7631210D01*
X53466054Y-7501535D01*
X53338734Y-7414541D01*
X53187600Y-7383936D01*
X51460400Y-7383936D01*
X51319210Y-7410503D01*
X51189535Y-7493946D01*
X51102541Y-7621266D01*
X51071936Y-7772400D01*
X51071936Y-8051800D01*
X50132464Y-8051800D01*
X50132464Y-7890000D01*
X50105897Y-7748810D01*
X50022454Y-7619135D01*
X49895134Y-7532141D01*
X49744000Y-7501536D01*
X48494000Y-7501536D01*
X48352810Y-7528103D01*
X48223135Y-7611546D01*
X48136141Y-7738866D01*
X48105536Y-7890000D01*
X48105536Y-9890000D01*
X48132103Y-10031190D01*
X48215546Y-10160865D01*
X48342866Y-10247859D01*
X48494000Y-10278464D01*
X48534800Y-10278464D01*
X48534800Y-11525194D01*
X47587803Y-10578197D01*
X47545789Y-10550334D01*
X47498000Y-10541000D01*
X36195000Y-10541000D01*
X36195000Y-4842000D01*
X48105536Y-4842000D01*
X48105536Y-6842000D01*
X48132103Y-6983190D01*
X48215546Y-7112865D01*
X48342866Y-7199859D01*
X48494000Y-7230464D01*
X49744000Y-7230464D01*
X49885190Y-7203897D01*
X50014865Y-7120454D01*
X50101859Y-6993134D01*
X50132464Y-6842000D01*
X50132464Y-6680200D01*
X51229952Y-6680200D01*
X51443935Y-7000448D01*
X51847712Y-7270243D01*
X52324000Y-7364983D01*
X52800288Y-7270243D01*
X53204065Y-7000448D01*
X53473860Y-6596671D01*
X53568600Y-6120383D01*
X53568600Y-6071617D01*
X53619400Y-6071617D01*
X53619400Y-6120383D01*
X53714140Y-6596671D01*
X53983935Y-7000448D01*
X54387712Y-7270243D01*
X54864000Y-7364983D01*
X55340288Y-7270243D01*
X55744065Y-7000448D01*
X56013860Y-6596671D01*
X56108600Y-6120383D01*
X56108600Y-6071617D01*
X56013860Y-5595329D01*
X55744065Y-5191552D01*
X55448200Y-4993861D01*
X55448200Y-3906599D01*
X55473190Y-3901897D01*
X55602865Y-3818454D01*
X55689859Y-3691134D01*
X55720464Y-3540000D01*
X55720464Y-1540000D01*
X56039536Y-1540000D01*
X56039536Y-3540000D01*
X56066103Y-3681190D01*
X56149546Y-3810865D01*
X56276866Y-3897859D01*
X56428000Y-3928464D01*
X56819800Y-3928464D01*
X56819800Y-4993861D01*
X56523935Y-5191552D01*
X56254140Y-5595329D01*
X56159400Y-6071617D01*
X56159400Y-6120383D01*
X56254140Y-6596671D01*
X56523935Y-7000448D01*
X56927712Y-7270243D01*
X57404000Y-7364983D01*
X57880288Y-7270243D01*
X58284065Y-7000448D01*
X58553860Y-6596671D01*
X58648600Y-6120383D01*
X58648600Y-6071617D01*
X58553860Y-5595329D01*
X58284065Y-5191552D01*
X57988200Y-4993861D01*
X57988200Y-3760885D01*
X58035859Y-3691134D01*
X58066464Y-3540000D01*
X58066464Y-1540000D01*
X58039897Y-1398810D01*
X57956454Y-1269135D01*
X57829134Y-1182141D01*
X57678000Y-1151536D01*
X56428000Y-1151536D01*
X56286810Y-1178103D01*
X56157135Y-1261546D01*
X56070141Y-1388866D01*
X56039536Y-1540000D01*
X55720464Y-1540000D01*
X55693897Y-1398810D01*
X55610454Y-1269135D01*
X55483134Y-1182141D01*
X55332000Y-1151536D01*
X54082000Y-1151536D01*
X53940810Y-1178103D01*
X53811135Y-1261546D01*
X53724141Y-1388866D01*
X53693536Y-1540000D01*
X53693536Y-3540000D01*
X53720103Y-3681190D01*
X53803546Y-3810865D01*
X53930866Y-3897859D01*
X54082000Y-3928464D01*
X54279800Y-3928464D01*
X54279800Y-4993861D01*
X53983935Y-5191552D01*
X53714140Y-5595329D01*
X53619400Y-6071617D01*
X53568600Y-6071617D01*
X53473860Y-5595329D01*
X53204065Y-5191552D01*
X52800288Y-4921757D01*
X52324000Y-4827017D01*
X51847712Y-4921757D01*
X51443935Y-5191552D01*
X51229952Y-5511800D01*
X50132464Y-5511800D01*
X50132464Y-4842000D01*
X50105897Y-4700810D01*
X50022454Y-4571135D01*
X49895134Y-4484141D01*
X49744000Y-4453536D01*
X48494000Y-4453536D01*
X48352810Y-4480103D01*
X48223135Y-4563546D01*
X48136141Y-4690866D01*
X48105536Y-4842000D01*
X36195000Y-4842000D01*
X36195000Y-456000D01*
X65584000Y-456000D01*
X65584000Y-14097000D01*
G36*
X11557000Y-43688000D02*
X11567006Y-43737410D01*
X11594197Y-43777803D01*
X11848197Y-44031803D01*
X11890211Y-44059666D01*
X11938000Y-44069000D01*
X13663394Y-44069000D01*
X13843000Y-44248606D01*
X13843000Y-47244000D01*
X13853006Y-47293410D01*
X13880197Y-47333803D01*
X14642197Y-48095803D01*
X14684211Y-48123666D01*
X14732000Y-48133000D01*
X19431000Y-48133000D01*
X19431000Y-53213000D01*
X4216405Y-53213000D01*
X4191000Y-53151516D01*
X4191000Y-51538791D01*
X4226078Y-51623686D01*
X4761495Y-52160039D01*
X5461410Y-52450668D01*
X6219265Y-52451330D01*
X6919686Y-52161922D01*
X7456039Y-51626505D01*
X7746668Y-50926590D01*
X7747330Y-50168735D01*
X7457922Y-49468314D01*
X6922505Y-48931961D01*
X6222590Y-48641332D01*
X5464735Y-48640670D01*
X4764314Y-48930078D01*
X4227961Y-49465495D01*
X4191000Y-49554507D01*
X4191000Y-44323000D01*
X9398000Y-44323000D01*
X9447410Y-44312994D01*
X9487803Y-44285803D01*
X9741803Y-44031803D01*
X9769666Y-43989789D01*
X9779000Y-43942000D01*
X9779000Y-41021000D01*
X11557000Y-41021000D01*
X11557000Y-43688000D01*
X11557000Y-43688000D01*
G37*
X11557000Y-43688000D02*
X11567006Y-43737410D01*
X11594197Y-43777803D01*
X11848197Y-44031803D01*
X11890211Y-44059666D01*
X11938000Y-44069000D01*
X13663394Y-44069000D01*
X13843000Y-44248606D01*
X13843000Y-47244000D01*
X13853006Y-47293410D01*
X13880197Y-47333803D01*
X14642197Y-48095803D01*
X14684211Y-48123666D01*
X14732000Y-48133000D01*
X19431000Y-48133000D01*
X19431000Y-53213000D01*
X4216405Y-53213000D01*
X4191000Y-53151516D01*
X4191000Y-51538791D01*
X4226078Y-51623686D01*
X4761495Y-52160039D01*
X5461410Y-52450668D01*
X6219265Y-52451330D01*
X6919686Y-52161922D01*
X7456039Y-51626505D01*
X7746668Y-50926590D01*
X7747330Y-50168735D01*
X7457922Y-49468314D01*
X6922505Y-48931961D01*
X6222590Y-48641332D01*
X5464735Y-48640670D01*
X4764314Y-48930078D01*
X4227961Y-49465495D01*
X4191000Y-49554507D01*
X4191000Y-44323000D01*
X9398000Y-44323000D01*
X9447410Y-44312994D01*
X9487803Y-44285803D01*
X9741803Y-44031803D01*
X9769666Y-43989789D01*
X9779000Y-43942000D01*
X9779000Y-41021000D01*
X11557000Y-41021000D01*
X11557000Y-43688000D01*
G36*
X51181000Y-53975000D02*
X45593000Y-53975000D01*
X45593000Y-51689000D01*
X51181000Y-51689000D01*
X51181000Y-53975000D01*
X51181000Y-53975000D01*
G37*
X51181000Y-53975000D02*
X45593000Y-53975000D01*
X45593000Y-51689000D01*
X51181000Y-51689000D01*
X51181000Y-53975000D01*
G36*
X51181000Y-39243000D02*
X45593000Y-39243000D01*
X45593000Y-37973000D01*
X51181000Y-37973000D01*
X51181000Y-39243000D01*
X51181000Y-39243000D01*
G37*
X51181000Y-39243000D02*
X45593000Y-39243000D01*
X45593000Y-37973000D01*
X51181000Y-37973000D01*
X51181000Y-39243000D01*
M02*
