G04 #@! TF.FileFunction,Profile,NP*
%FSLAX46Y46*%
G04 Gerber Fmt 4.6, Leading zero omitted, Abs format (unit mm)*
G04 Created by KiCad (PCBNEW 4.0.7) date 01/04/18 13:19:04*
%MOMM*%
%LPD*%
G01*
G04 APERTURE LIST*
%ADD10C,0.100000*%
%ADD11C,0.150000*%
G04 APERTURE END LIST*
D10*
D11*
X62647795Y-133516884D02*
G75*
G03X62484000Y-133578600I293405J-1026916D01*
G01*
X62842093Y-133444485D02*
G75*
G03X62687200Y-133477000I149907J-1099315D01*
G01*
X63501057Y-133679143D02*
G75*
G03X62890400Y-133426200I-610657J-610657D01*
G01*
X63748145Y-133988100D02*
G75*
G03X63550800Y-133731000I-857745J-454100D01*
G01*
X63783338Y-134096139D02*
G75*
G03X63754000Y-134035800I-892938J-396861D01*
G01*
X63804800Y-134239000D02*
X63804800Y-134188200D01*
X62254930Y-133806730D02*
G75*
G03X62230000Y-133832600I686270J-686270D01*
G01*
X62305568Y-133759579D02*
G75*
G03X62280800Y-133781800I635632J-733421D01*
G01*
X62405638Y-133664256D02*
G75*
G03X62382400Y-133680200I586362J-879544D01*
G01*
X62207823Y-133897131D02*
G75*
G03X62179200Y-133934200I733377J-595869D01*
G01*
X62135734Y-134024967D02*
G75*
G03X62128400Y-134035800I754666J-518833D01*
G01*
X63804895Y-134302500D02*
G75*
G03X62103000Y-134315200I-850995J0D01*
G01*
X185928000Y-133477000D02*
X183197500Y-133477000D01*
X185928000Y-129603500D02*
X185928000Y-133477000D01*
X185928000Y-118110000D02*
X185928000Y-129603500D01*
X185928000Y-108775500D02*
X185928000Y-118110000D01*
X185928000Y-104013000D02*
X185928000Y-108775500D01*
X185928000Y-95885000D02*
X185928000Y-104013000D01*
X185928000Y-85471000D02*
X185928000Y-95885000D01*
X185928000Y-77152500D02*
X185928000Y-85471000D01*
X185928000Y-68008500D02*
X185928000Y-77152500D01*
X185928000Y-60325000D02*
X185928000Y-68008500D01*
X185928000Y-40259000D02*
X185928000Y-60325000D01*
X185928000Y-36322000D02*
X185928000Y-40259000D01*
X185928000Y-33020000D02*
X185928000Y-36322000D01*
X50850800Y-48945800D02*
X50850800Y-44526200D01*
X50850800Y-44526200D02*
X50850800Y-37465000D01*
X50850800Y-37465000D02*
X50850800Y-32994600D01*
X50850800Y-32994600D02*
X84328000Y-32994600D01*
X50850800Y-68859400D02*
X50850800Y-58699400D01*
X50850800Y-58699400D02*
X50850800Y-54127400D01*
X50850800Y-54127400D02*
X50850800Y-48945800D01*
X123850400Y-32994600D02*
X133197600Y-32994600D01*
X84328000Y-32994600D02*
X103225600Y-32994600D01*
X103225600Y-32994600D02*
X111302800Y-32994600D01*
X111302800Y-32994600D02*
X123850400Y-32994600D01*
X163220400Y-133477000D02*
X183184800Y-133477000D01*
X138988800Y-133477000D02*
X163220400Y-133477000D01*
X135128000Y-133477000D02*
X135128000Y-133578600D01*
X135128000Y-133477000D02*
X138988800Y-133477000D01*
X62077600Y-136220200D02*
X62077600Y-134289800D01*
X62077600Y-141300200D02*
X62077600Y-136220200D01*
X61518800Y-141859000D02*
X62077600Y-141300200D01*
X51409600Y-141859000D02*
X61518800Y-141859000D01*
X50850800Y-141300200D02*
X51409600Y-141859000D01*
X50850800Y-139623800D02*
X50850800Y-141300200D01*
X50850800Y-133324600D02*
X50850800Y-139623800D01*
X63804800Y-141300200D02*
X63804800Y-134289800D01*
X63855600Y-141351000D02*
X63804800Y-141300200D01*
X64363600Y-141859000D02*
X63855600Y-141351000D01*
X76200000Y-141859000D02*
X64363600Y-141859000D01*
X89916000Y-141859000D02*
X76200000Y-141859000D01*
X97993200Y-141859000D02*
X89916000Y-141859000D01*
X109829600Y-141859000D02*
X97993200Y-141859000D01*
X123088400Y-141859000D02*
X109829600Y-141859000D01*
X134569200Y-141859000D02*
X123088400Y-141859000D01*
X134620000Y-141808200D02*
X134569200Y-141859000D01*
X135128000Y-141300200D02*
X134620000Y-141808200D01*
X135128000Y-133578600D02*
X135128000Y-141300200D01*
X146456400Y-32994600D02*
X185864500Y-33020000D01*
X133197600Y-32994600D02*
X146456400Y-32994600D01*
X50850800Y-80695800D02*
X50850800Y-68859400D01*
X50850800Y-92075000D02*
X50850800Y-80695800D01*
X50850800Y-100609400D02*
X50850800Y-92075000D01*
X50850800Y-109956600D02*
X50850800Y-100609400D01*
X50850800Y-117322600D02*
X50850800Y-109956600D01*
X50850800Y-123164600D02*
X50850800Y-117322600D01*
X50850800Y-128193800D02*
X50850800Y-123164600D01*
X50850800Y-133273800D02*
X50850800Y-128193800D01*
M02*
