G04 #@! TF.FileFunction,Legend,Bot*
%FSLAX46Y46*%
G04 Gerber Fmt 4.6, Leading zero omitted, Abs format (unit mm)*
G04 Created by KiCad (PCBNEW 4.0.7) date 01/07/18 14:46:33*
%MOMM*%
%LPD*%
G01*
G04 APERTURE LIST*
%ADD10C,0.100000*%
%ADD11C,0.120000*%
%ADD12C,0.150000*%
%ADD13C,1.300000*%
%ADD14C,2.432000*%
%ADD15C,3.448000*%
%ADD16R,1.300000X1.600000*%
%ADD17R,2.100000X2.100000*%
%ADD18O,2.100000X2.100000*%
%ADD19C,3.956000*%
%ADD20C,7.004000*%
%ADD21R,1.600000X1.300000*%
G04 APERTURE END LIST*
D10*
D11*
X56306000Y-47490000D02*
X56306000Y-46490000D01*
X54946000Y-46490000D02*
X54946000Y-47490000D01*
X56306000Y-59682000D02*
X56306000Y-58682000D01*
X54946000Y-58682000D02*
X54946000Y-59682000D01*
X180357400Y-34372000D02*
X179357400Y-34372000D01*
X179357400Y-35732000D02*
X180357400Y-35732000D01*
X141597000Y-35642000D02*
X140597000Y-35642000D01*
X140597000Y-37002000D02*
X141597000Y-37002000D01*
X134120000Y-37002000D02*
X135120000Y-37002000D01*
X135120000Y-35642000D02*
X134120000Y-35642000D01*
X166336600Y-34372000D02*
X165336600Y-34372000D01*
X165336600Y-35732000D02*
X166336600Y-35732000D01*
X147820000Y-35642000D02*
X146820000Y-35642000D01*
X146820000Y-37002000D02*
X147820000Y-37002000D01*
D12*
X54628381Y-46347143D02*
X54152190Y-46013809D01*
X54628381Y-45775714D02*
X53628381Y-45775714D01*
X53628381Y-46156667D01*
X53676000Y-46251905D01*
X53723619Y-46299524D01*
X53818857Y-46347143D01*
X53961714Y-46347143D01*
X54056952Y-46299524D01*
X54104571Y-46251905D01*
X54152190Y-46156667D01*
X54152190Y-45775714D01*
X53628381Y-46680476D02*
X53628381Y-47299524D01*
X54009333Y-46966190D01*
X54009333Y-47109048D01*
X54056952Y-47204286D01*
X54104571Y-47251905D01*
X54199810Y-47299524D01*
X54437905Y-47299524D01*
X54533143Y-47251905D01*
X54580762Y-47204286D01*
X54628381Y-47109048D01*
X54628381Y-46823333D01*
X54580762Y-46728095D01*
X54533143Y-46680476D01*
X53628381Y-47918571D02*
X53628381Y-48013810D01*
X53676000Y-48109048D01*
X53723619Y-48156667D01*
X53818857Y-48204286D01*
X54009333Y-48251905D01*
X54247429Y-48251905D01*
X54437905Y-48204286D01*
X54533143Y-48156667D01*
X54580762Y-48109048D01*
X54628381Y-48013810D01*
X54628381Y-47918571D01*
X54580762Y-47823333D01*
X54533143Y-47775714D01*
X54437905Y-47728095D01*
X54247429Y-47680476D01*
X54009333Y-47680476D01*
X53818857Y-47728095D01*
X53723619Y-47775714D01*
X53676000Y-47823333D01*
X53628381Y-47918571D01*
X54628381Y-58564543D02*
X54152190Y-58231209D01*
X54628381Y-57993114D02*
X53628381Y-57993114D01*
X53628381Y-58374067D01*
X53676000Y-58469305D01*
X53723619Y-58516924D01*
X53818857Y-58564543D01*
X53961714Y-58564543D01*
X54056952Y-58516924D01*
X54104571Y-58469305D01*
X54152190Y-58374067D01*
X54152190Y-57993114D01*
X53628381Y-58897876D02*
X53628381Y-59516924D01*
X54009333Y-59183590D01*
X54009333Y-59326448D01*
X54056952Y-59421686D01*
X54104571Y-59469305D01*
X54199810Y-59516924D01*
X54437905Y-59516924D01*
X54533143Y-59469305D01*
X54580762Y-59421686D01*
X54628381Y-59326448D01*
X54628381Y-59040733D01*
X54580762Y-58945495D01*
X54533143Y-58897876D01*
X54628381Y-60469305D02*
X54628381Y-59897876D01*
X54628381Y-60183590D02*
X53628381Y-60183590D01*
X53771238Y-60088352D01*
X53866476Y-59993114D01*
X53914095Y-59897876D01*
X177969386Y-35936181D02*
X178302720Y-35459990D01*
X178540815Y-35936181D02*
X178540815Y-34936181D01*
X178159862Y-34936181D01*
X178064624Y-34983800D01*
X178017005Y-35031419D01*
X177969386Y-35126657D01*
X177969386Y-35269514D01*
X178017005Y-35364752D01*
X178064624Y-35412371D01*
X178159862Y-35459990D01*
X178540815Y-35459990D01*
X177636053Y-34936181D02*
X177017005Y-34936181D01*
X177350339Y-35317133D01*
X177207481Y-35317133D01*
X177112243Y-35364752D01*
X177064624Y-35412371D01*
X177017005Y-35507610D01*
X177017005Y-35745705D01*
X177064624Y-35840943D01*
X177112243Y-35888562D01*
X177207481Y-35936181D01*
X177493196Y-35936181D01*
X177588434Y-35888562D01*
X177636053Y-35840943D01*
X141816057Y-35301181D02*
X142149391Y-34824990D01*
X142387486Y-35301181D02*
X142387486Y-34301181D01*
X142006533Y-34301181D01*
X141911295Y-34348800D01*
X141863676Y-34396419D01*
X141816057Y-34491657D01*
X141816057Y-34634514D01*
X141863676Y-34729752D01*
X141911295Y-34777371D01*
X142006533Y-34824990D01*
X142387486Y-34824990D01*
X140863676Y-35301181D02*
X141435105Y-35301181D01*
X141149391Y-35301181D02*
X141149391Y-34301181D01*
X141244629Y-34444038D01*
X141339867Y-34539276D01*
X141435105Y-34586895D01*
X139911295Y-35301181D02*
X140482724Y-35301181D01*
X140197010Y-35301181D02*
X140197010Y-34301181D01*
X140292248Y-34444038D01*
X140387486Y-34539276D01*
X140482724Y-34586895D01*
X135262857Y-35324381D02*
X135596191Y-34848190D01*
X135834286Y-35324381D02*
X135834286Y-34324381D01*
X135453333Y-34324381D01*
X135358095Y-34372000D01*
X135310476Y-34419619D01*
X135262857Y-34514857D01*
X135262857Y-34657714D01*
X135310476Y-34752952D01*
X135358095Y-34800571D01*
X135453333Y-34848190D01*
X135834286Y-34848190D01*
X134310476Y-35324381D02*
X134881905Y-35324381D01*
X134596191Y-35324381D02*
X134596191Y-34324381D01*
X134691429Y-34467238D01*
X134786667Y-34562476D01*
X134881905Y-34610095D01*
X133929524Y-34419619D02*
X133881905Y-34372000D01*
X133786667Y-34324381D01*
X133548571Y-34324381D01*
X133453333Y-34372000D01*
X133405714Y-34419619D01*
X133358095Y-34514857D01*
X133358095Y-34610095D01*
X133405714Y-34752952D01*
X133977143Y-35324381D01*
X133358095Y-35324381D01*
X166479457Y-34158181D02*
X166812791Y-33681990D01*
X167050886Y-34158181D02*
X167050886Y-33158181D01*
X166669933Y-33158181D01*
X166574695Y-33205800D01*
X166527076Y-33253419D01*
X166479457Y-33348657D01*
X166479457Y-33491514D01*
X166527076Y-33586752D01*
X166574695Y-33634371D01*
X166669933Y-33681990D01*
X167050886Y-33681990D01*
X165527076Y-34158181D02*
X166098505Y-34158181D01*
X165812791Y-34158181D02*
X165812791Y-33158181D01*
X165908029Y-33301038D01*
X166003267Y-33396276D01*
X166098505Y-33443895D01*
X164622314Y-33158181D02*
X165098505Y-33158181D01*
X165146124Y-33634371D01*
X165098505Y-33586752D01*
X165003267Y-33539133D01*
X164765171Y-33539133D01*
X164669933Y-33586752D01*
X164622314Y-33634371D01*
X164574695Y-33729610D01*
X164574695Y-33967705D01*
X164622314Y-34062943D01*
X164669933Y-34110562D01*
X164765171Y-34158181D01*
X165003267Y-34158181D01*
X165098505Y-34110562D01*
X165146124Y-34062943D01*
X147937457Y-35326581D02*
X148270791Y-34850390D01*
X148508886Y-35326581D02*
X148508886Y-34326581D01*
X148127933Y-34326581D01*
X148032695Y-34374200D01*
X147985076Y-34421819D01*
X147937457Y-34517057D01*
X147937457Y-34659914D01*
X147985076Y-34755152D01*
X148032695Y-34802771D01*
X148127933Y-34850390D01*
X148508886Y-34850390D01*
X147556505Y-34421819D02*
X147508886Y-34374200D01*
X147413648Y-34326581D01*
X147175552Y-34326581D01*
X147080314Y-34374200D01*
X147032695Y-34421819D01*
X146985076Y-34517057D01*
X146985076Y-34612295D01*
X147032695Y-34755152D01*
X147604124Y-35326581D01*
X146985076Y-35326581D01*
X146508886Y-35326581D02*
X146318410Y-35326581D01*
X146223171Y-35278962D01*
X146175552Y-35231343D01*
X146080314Y-35088486D01*
X146032695Y-34898010D01*
X146032695Y-34517057D01*
X146080314Y-34421819D01*
X146127933Y-34374200D01*
X146223171Y-34326581D01*
X146413648Y-34326581D01*
X146508886Y-34374200D01*
X146556505Y-34421819D01*
X146604124Y-34517057D01*
X146604124Y-34755152D01*
X146556505Y-34850390D01*
X146508886Y-34898010D01*
X146413648Y-34945629D01*
X146223171Y-34945629D01*
X146127933Y-34898010D01*
X146080314Y-34850390D01*
X146032695Y-34755152D01*
%LPC*%
D13*
X56334000Y-122996600D03*
X56334000Y-127396600D03*
D14*
X88392000Y-75438000D03*
X88392000Y-80518000D03*
X68072000Y-67818000D03*
X68072000Y-77978000D03*
X68072000Y-88138000D03*
X88392000Y-88138000D03*
D15*
X67564000Y-60706000D03*
D14*
X67564000Y-56896000D03*
X67564000Y-53086000D03*
X67564000Y-49276000D03*
D15*
X67564000Y-45466000D03*
D14*
X118364000Y-45466000D03*
X118364000Y-53086000D03*
X118364000Y-60706000D03*
X118364000Y-60706000D03*
X118364000Y-53086000D03*
X118364000Y-45466000D03*
D15*
X67564000Y-45466000D03*
D14*
X67564000Y-49276000D03*
X67564000Y-53086000D03*
X67564000Y-56896000D03*
D15*
X67564000Y-60706000D03*
D16*
X55626000Y-45890000D03*
X55626000Y-48090000D03*
X55626000Y-58082000D03*
X55626000Y-60282000D03*
D17*
X59944000Y-96520000D03*
D18*
X59944000Y-93980000D03*
D17*
X174142400Y-35433000D03*
D18*
X171602400Y-35433000D03*
D19*
X59436000Y-44196000D03*
X59436000Y-49326800D03*
X59436000Y-56388000D03*
X59436000Y-61518800D03*
D15*
X179034440Y-84769960D03*
X182438040Y-84769960D03*
X182438040Y-71307960D03*
X179034440Y-71307960D03*
X179158900Y-121475500D03*
X182562500Y-121475500D03*
X182562500Y-108013500D03*
X179158900Y-108013500D03*
D17*
X60134500Y-114935000D03*
D18*
X60134500Y-112395000D03*
D20*
X180517800Y-47472600D03*
X180517800Y-40309800D03*
D19*
X176560480Y-64759840D03*
X181691280Y-64759840D03*
X176974500Y-101854000D03*
X182105300Y-101854000D03*
D20*
X166608760Y-47619920D03*
X166608760Y-40457120D03*
X145262600Y-41656000D03*
X152425400Y-41656000D03*
X127228600Y-41656000D03*
X134391400Y-41656000D03*
D21*
X178757400Y-35052000D03*
X180957400Y-35052000D03*
X139997000Y-36322000D03*
X142197000Y-36322000D03*
X135720000Y-36322000D03*
X133520000Y-36322000D03*
X164736600Y-35052000D03*
X166936600Y-35052000D03*
X146220000Y-36322000D03*
X148420000Y-36322000D03*
M02*
