G04 #@! TF.FileFunction,Soldermask,Bot*
%FSLAX46Y46*%
G04 Gerber Fmt 4.6, Leading zero omitted, Abs format (unit mm)*
G04 Created by KiCad (PCBNEW 4.0.7) date 01/07/18 14:46:33*
%MOMM*%
%LPD*%
G01*
G04 APERTURE LIST*
%ADD10C,0.100000*%
%ADD11C,1.300000*%
%ADD12C,2.432000*%
%ADD13C,3.448000*%
%ADD14R,1.300000X1.600000*%
%ADD15R,2.100000X2.100000*%
%ADD16O,2.100000X2.100000*%
%ADD17C,3.956000*%
%ADD18C,7.004000*%
%ADD19R,1.600000X1.300000*%
G04 APERTURE END LIST*
D10*
D11*
X56334000Y-122996600D03*
X56334000Y-127396600D03*
D12*
X88392000Y-75438000D03*
X88392000Y-80518000D03*
X68072000Y-67818000D03*
X68072000Y-77978000D03*
X68072000Y-88138000D03*
X88392000Y-88138000D03*
D13*
X67564000Y-60706000D03*
D12*
X67564000Y-56896000D03*
X67564000Y-53086000D03*
X67564000Y-49276000D03*
D13*
X67564000Y-45466000D03*
D12*
X118364000Y-45466000D03*
X118364000Y-53086000D03*
X118364000Y-60706000D03*
X118364000Y-60706000D03*
X118364000Y-53086000D03*
X118364000Y-45466000D03*
D13*
X67564000Y-45466000D03*
D12*
X67564000Y-49276000D03*
X67564000Y-53086000D03*
X67564000Y-56896000D03*
D13*
X67564000Y-60706000D03*
D14*
X55626000Y-45890000D03*
X55626000Y-48090000D03*
X55626000Y-58082000D03*
X55626000Y-60282000D03*
D15*
X59944000Y-96520000D03*
D16*
X59944000Y-93980000D03*
D15*
X174142400Y-35433000D03*
D16*
X171602400Y-35433000D03*
D17*
X59436000Y-44196000D03*
X59436000Y-49326800D03*
X59436000Y-56388000D03*
X59436000Y-61518800D03*
D13*
X179034440Y-84769960D03*
X182438040Y-84769960D03*
X182438040Y-71307960D03*
X179034440Y-71307960D03*
X179158900Y-121475500D03*
X182562500Y-121475500D03*
X182562500Y-108013500D03*
X179158900Y-108013500D03*
D15*
X60134500Y-114935000D03*
D16*
X60134500Y-112395000D03*
D18*
X180517800Y-47472600D03*
X180517800Y-40309800D03*
D17*
X176560480Y-64759840D03*
X181691280Y-64759840D03*
X176974500Y-101854000D03*
X182105300Y-101854000D03*
D18*
X166608760Y-47619920D03*
X166608760Y-40457120D03*
X145262600Y-41656000D03*
X152425400Y-41656000D03*
X127228600Y-41656000D03*
X134391400Y-41656000D03*
D19*
X178757400Y-35052000D03*
X180957400Y-35052000D03*
X139997000Y-36322000D03*
X142197000Y-36322000D03*
X135720000Y-36322000D03*
X133520000Y-36322000D03*
X164736600Y-35052000D03*
X166936600Y-35052000D03*
X146220000Y-36322000D03*
X148420000Y-36322000D03*
M02*
