G04 #@! TF.FileFunction,Other,User*
%FSLAX46Y46*%
G04 Gerber Fmt 4.6, Leading zero omitted, Abs format (unit mm)*
G04 Created by KiCad (PCBNEW 4.0.7) date 01/04/18 13:19:04*
%MOMM*%
%LPD*%
G01*
G04 APERTURE LIST*
%ADD10C,0.100000*%
%ADD11C,0.300000*%
G04 APERTURE END LIST*
D10*
D11*
X112229073Y-29888571D02*
X111371930Y-29888571D01*
X111800502Y-29888571D02*
X111800502Y-28388571D01*
X111657645Y-28602857D01*
X111514787Y-28745714D01*
X111371930Y-28817143D01*
X112729073Y-28388571D02*
X113657644Y-28388571D01*
X113157644Y-28960000D01*
X113371930Y-28960000D01*
X113514787Y-29031429D01*
X113586216Y-29102857D01*
X113657644Y-29245714D01*
X113657644Y-29602857D01*
X113586216Y-29745714D01*
X113514787Y-29817143D01*
X113371930Y-29888571D01*
X112943358Y-29888571D01*
X112800501Y-29817143D01*
X112729073Y-29745714D01*
X115014787Y-28388571D02*
X114300501Y-28388571D01*
X114229072Y-29102857D01*
X114300501Y-29031429D01*
X114443358Y-28960000D01*
X114800501Y-28960000D01*
X114943358Y-29031429D01*
X115014787Y-29102857D01*
X115086215Y-29245714D01*
X115086215Y-29602857D01*
X115014787Y-29745714D01*
X114943358Y-29817143D01*
X114800501Y-29888571D01*
X114443358Y-29888571D01*
X114300501Y-29817143D01*
X114229072Y-29745714D01*
X115729072Y-29745714D02*
X115800500Y-29817143D01*
X115729072Y-29888571D01*
X115657643Y-29817143D01*
X115729072Y-29745714D01*
X115729072Y-29888571D01*
X116729072Y-28388571D02*
X116871929Y-28388571D01*
X117014786Y-28460000D01*
X117086215Y-28531429D01*
X117157644Y-28674286D01*
X117229072Y-28960000D01*
X117229072Y-29317143D01*
X117157644Y-29602857D01*
X117086215Y-29745714D01*
X117014786Y-29817143D01*
X116871929Y-29888571D01*
X116729072Y-29888571D01*
X116586215Y-29817143D01*
X116514786Y-29745714D01*
X116443358Y-29602857D01*
X116371929Y-29317143D01*
X116371929Y-28960000D01*
X116443358Y-28674286D01*
X116514786Y-28531429D01*
X116586215Y-28460000D01*
X116729072Y-28388571D01*
X118157643Y-28388571D02*
X118300500Y-28388571D01*
X118443357Y-28460000D01*
X118514786Y-28531429D01*
X118586215Y-28674286D01*
X118657643Y-28960000D01*
X118657643Y-29317143D01*
X118586215Y-29602857D01*
X118514786Y-29745714D01*
X118443357Y-29817143D01*
X118300500Y-29888571D01*
X118157643Y-29888571D01*
X118014786Y-29817143D01*
X117943357Y-29745714D01*
X117871929Y-29602857D01*
X117800500Y-29317143D01*
X117800500Y-28960000D01*
X117871929Y-28674286D01*
X117943357Y-28531429D01*
X118014786Y-28460000D01*
X118157643Y-28388571D01*
X120086214Y-29888571D02*
X119229071Y-29888571D01*
X119657643Y-29888571D02*
X119657643Y-28388571D01*
X119514786Y-28602857D01*
X119371928Y-28745714D01*
X119229071Y-28817143D01*
X121871928Y-29888571D02*
X121871928Y-28888571D01*
X121871928Y-29031429D02*
X121943356Y-28960000D01*
X122086214Y-28888571D01*
X122300499Y-28888571D01*
X122443356Y-28960000D01*
X122514785Y-29102857D01*
X122514785Y-29888571D01*
X122514785Y-29102857D02*
X122586214Y-28960000D01*
X122729071Y-28888571D01*
X122943356Y-28888571D01*
X123086214Y-28960000D01*
X123157642Y-29102857D01*
X123157642Y-29888571D01*
X123871928Y-29888571D02*
X123871928Y-28888571D01*
X123871928Y-29031429D02*
X123943356Y-28960000D01*
X124086214Y-28888571D01*
X124300499Y-28888571D01*
X124443356Y-28960000D01*
X124514785Y-29102857D01*
X124514785Y-29888571D01*
X124514785Y-29102857D02*
X124586214Y-28960000D01*
X124729071Y-28888571D01*
X124943356Y-28888571D01*
X125086214Y-28960000D01*
X125157642Y-29102857D01*
X125157642Y-29888571D01*
X50800000Y-29210000D02*
X185801000Y-29210000D01*
X50800000Y-29210000D02*
X50800000Y-29210000D01*
X185801000Y-29210000D02*
X185801000Y-29210000D01*
X185801000Y-29210000D02*
X184674496Y-29796421D01*
X185801000Y-29210000D02*
X184674496Y-28623579D01*
X50800000Y-29210000D02*
X51926504Y-29796421D01*
X50800000Y-29210000D02*
X51926504Y-28623579D01*
M02*
