G04 #@! TF.FileFunction,Soldermask,Top*
%FSLAX46Y46*%
G04 Gerber Fmt 4.6, Leading zero omitted, Abs format (unit mm)*
G04 Created by KiCad (PCBNEW 4.0.7) date 01/07/18 14:46:33*
%MOMM*%
%LPD*%
G01*
G04 APERTURE LIST*
%ADD10C,0.100000*%
%ADD11R,2.700000X0.900000*%
%ADD12R,2.900000X2.400000*%
%ADD13C,1.300000*%
%ADD14R,1.101040X4.400500*%
%ADD15R,1.101040X3.600400*%
%ADD16C,2.432000*%
%ADD17R,1.600000X1.150000*%
%ADD18R,1.900000X1.000000*%
%ADD19C,3.448000*%
%ADD20R,2.100000X2.100000*%
%ADD21O,2.100000X2.100000*%
%ADD22R,1.300000X1.600000*%
%ADD23R,1.600000X1.300000*%
%ADD24C,3.956000*%
%ADD25R,1.150000X1.600000*%
%ADD26R,1.650000X1.900000*%
%ADD27R,1.900000X1.650000*%
%ADD28R,1.100000X1.000000*%
%ADD29C,7.004000*%
%ADD30R,2.600000X1.600000*%
%ADD31R,6.800000X6.200000*%
%ADD32R,1.200000X5.000000*%
%ADD33R,11.200000X9.800000*%
%ADD34R,1.300000X0.900000*%
%ADD35R,0.900000X1.300000*%
%ADD36R,1.050000X1.460000*%
%ADD37R,1.700000X0.650000*%
%ADD38R,0.650000X1.700000*%
%ADD39R,0.850000X1.850000*%
%ADD40R,2.600000X2.800000*%
G04 APERTURE END LIST*
D10*
D11*
X58934000Y-123596600D03*
X58934000Y-124396600D03*
X58934000Y-125196600D03*
X58934000Y-125996600D03*
X58934000Y-126796600D03*
D12*
X58834000Y-120746600D03*
X53334000Y-120746600D03*
X58834000Y-129646600D03*
X53334000Y-129646600D03*
D13*
X56334000Y-122996600D03*
X56334000Y-127396600D03*
D14*
X64467740Y-138176000D03*
X65465960Y-138176000D03*
X66466720Y-138176000D03*
X67467480Y-138176000D03*
X68465700Y-138176000D03*
X69466460Y-138176000D03*
X70467220Y-138176000D03*
X64467740Y-138176000D03*
X65465960Y-138176000D03*
X66466720Y-138176000D03*
X67467480Y-138176000D03*
X68465700Y-138176000D03*
X69466460Y-138176000D03*
X70467220Y-138176000D03*
X61465460Y-138176000D03*
D15*
X51465480Y-137777220D03*
D14*
X52466240Y-138176000D03*
X53467000Y-138176000D03*
X54467760Y-138176000D03*
X55465980Y-138176000D03*
X56466740Y-138176000D03*
X57467500Y-138176000D03*
X58465720Y-138176000D03*
X59466480Y-138176000D03*
X60467240Y-138176000D03*
X51465480Y-138176000D03*
X52466240Y-138176000D03*
X53467000Y-138176000D03*
X54467760Y-138176000D03*
X55465980Y-138176000D03*
X56466740Y-138176000D03*
X57467500Y-138176000D03*
X58465720Y-138176000D03*
X59466480Y-138176000D03*
X60467240Y-138176000D03*
X61465460Y-138176000D03*
X71465440Y-138176000D03*
X72466200Y-138176000D03*
X73466960Y-138176000D03*
X74467720Y-138176000D03*
X75465940Y-138176000D03*
X76466700Y-138176000D03*
X77467460Y-138176000D03*
X78465680Y-138176000D03*
X79466440Y-138176000D03*
X80467200Y-138176000D03*
X81465420Y-138176000D03*
X82466180Y-138176000D03*
X83466940Y-138176000D03*
X84467700Y-138176000D03*
X71465440Y-138176000D03*
X72466200Y-138176000D03*
X73466960Y-138176000D03*
X74467720Y-138176000D03*
X75465940Y-138176000D03*
X76466700Y-138176000D03*
X77467460Y-138176000D03*
X78465680Y-138176000D03*
X79466440Y-138176000D03*
X80467200Y-138176000D03*
X81465420Y-138176000D03*
X82466180Y-138176000D03*
X83466940Y-138176000D03*
X84467700Y-138176000D03*
X85465920Y-138176000D03*
X86466680Y-138176000D03*
X87467440Y-138176000D03*
X88465660Y-138176000D03*
X89466420Y-138176000D03*
X90467180Y-138176000D03*
X91465400Y-138176000D03*
X92466160Y-138176000D03*
X93466920Y-138176000D03*
X94467680Y-138176000D03*
X95465900Y-138176000D03*
X96466660Y-138176000D03*
X97467420Y-138176000D03*
X98465640Y-138176000D03*
X99466400Y-138176000D03*
X100467160Y-138176000D03*
X101465380Y-138176000D03*
X85465920Y-138176000D03*
X86466680Y-138176000D03*
X87467440Y-138176000D03*
X88465660Y-138176000D03*
X89466420Y-138176000D03*
X90467180Y-138176000D03*
X91465400Y-138176000D03*
X92466160Y-138176000D03*
X93466920Y-138176000D03*
X94467680Y-138176000D03*
X95465900Y-138176000D03*
X96466660Y-138176000D03*
X97467420Y-138176000D03*
X98465640Y-138176000D03*
X99466400Y-138176000D03*
X100467160Y-138176000D03*
X101465380Y-138176000D03*
X102466140Y-138176000D03*
X103466900Y-138176000D03*
X104467660Y-138176000D03*
X105465880Y-138176000D03*
X106466640Y-138176000D03*
X107467400Y-138176000D03*
X108465620Y-138176000D03*
X109466380Y-138176000D03*
X110467140Y-138176000D03*
X111465360Y-138176000D03*
X112466120Y-138176000D03*
X113466880Y-138176000D03*
X114467640Y-138176000D03*
X115465860Y-138176000D03*
X116466620Y-138176000D03*
X117467380Y-138176000D03*
X118465600Y-138176000D03*
X119466360Y-138176000D03*
X120467120Y-138176000D03*
X121465340Y-138176000D03*
X122466100Y-138176000D03*
X123466860Y-138176000D03*
X124467620Y-138176000D03*
X125465840Y-138176000D03*
X126466600Y-138176000D03*
X127467360Y-138176000D03*
X128465580Y-138176000D03*
X129466340Y-138176000D03*
X130467100Y-138176000D03*
X131467860Y-138176000D03*
X132466080Y-138176000D03*
X133466840Y-138176000D03*
X134467600Y-138176000D03*
X102466140Y-138176000D03*
X103466900Y-138176000D03*
X104467660Y-138176000D03*
X105465880Y-138176000D03*
X106466640Y-138176000D03*
X107467400Y-138176000D03*
X108465620Y-138176000D03*
X109466380Y-138176000D03*
X110467140Y-138176000D03*
X111465360Y-138176000D03*
X112466120Y-138176000D03*
X113466880Y-138176000D03*
X114467640Y-138176000D03*
X115465860Y-138176000D03*
X116466620Y-138176000D03*
X117467380Y-138176000D03*
X118465600Y-138176000D03*
X119466360Y-138176000D03*
X120467120Y-138176000D03*
X121465340Y-138176000D03*
X122466100Y-138176000D03*
X123466860Y-138176000D03*
X124467620Y-138176000D03*
X125465840Y-138176000D03*
X126466600Y-138176000D03*
X127467360Y-138176000D03*
X128465580Y-138176000D03*
X129466340Y-138176000D03*
X130467100Y-138176000D03*
X131467860Y-138176000D03*
X132466080Y-138176000D03*
D15*
X133466840Y-137777220D03*
D14*
X134467600Y-138176000D03*
D16*
X88392000Y-75438000D03*
X88392000Y-80518000D03*
X68072000Y-67818000D03*
X68072000Y-77978000D03*
X68072000Y-88138000D03*
X88392000Y-88138000D03*
D17*
X99189500Y-123063000D03*
X101089500Y-123063000D03*
D18*
X106938000Y-108458000D03*
X106938000Y-109728000D03*
X106938000Y-110998000D03*
X106938000Y-112268000D03*
X106938000Y-113538000D03*
X106938000Y-114808000D03*
X106938000Y-116078000D03*
X106938000Y-117348000D03*
X113538000Y-117348000D03*
X113538000Y-116078000D03*
X113538000Y-114808000D03*
X113538000Y-113538000D03*
X113538000Y-112268000D03*
X113538000Y-110998000D03*
X113538000Y-109728000D03*
X113538000Y-108458000D03*
D19*
X67564000Y-60706000D03*
D16*
X67564000Y-56896000D03*
X67564000Y-53086000D03*
X67564000Y-49276000D03*
D19*
X67564000Y-45466000D03*
D16*
X118364000Y-45466000D03*
X118364000Y-53086000D03*
X118364000Y-60706000D03*
X118364000Y-60706000D03*
X118364000Y-53086000D03*
X118364000Y-45466000D03*
D19*
X67564000Y-45466000D03*
D16*
X67564000Y-49276000D03*
X67564000Y-53086000D03*
X67564000Y-56896000D03*
D19*
X67564000Y-60706000D03*
D18*
X106934000Y-122174000D03*
X106934000Y-123444000D03*
X106934000Y-124714000D03*
X106934000Y-125984000D03*
X106934000Y-127254000D03*
X106934000Y-128524000D03*
X106934000Y-129794000D03*
X106934000Y-131064000D03*
X113534000Y-131064000D03*
X113534000Y-129794000D03*
X113534000Y-128524000D03*
X113534000Y-127254000D03*
X113534000Y-125984000D03*
X113534000Y-124714000D03*
X113534000Y-123444000D03*
X113534000Y-122174000D03*
D20*
X59944000Y-96520000D03*
D21*
X59944000Y-93980000D03*
D22*
X55626000Y-60282000D03*
X55626000Y-58082000D03*
D23*
X76304500Y-116205000D03*
X74104500Y-116205000D03*
D20*
X174142400Y-35433000D03*
D21*
X171602400Y-35433000D03*
D22*
X55626000Y-48090000D03*
X55626000Y-45890000D03*
D24*
X59436000Y-44196000D03*
X59436000Y-49326800D03*
D23*
X78846500Y-116205000D03*
X81046500Y-116205000D03*
D24*
X59436000Y-56388000D03*
X59436000Y-61518800D03*
D25*
X85026500Y-116581000D03*
X85026500Y-114681000D03*
D17*
X72966500Y-101981000D03*
X74866500Y-101981000D03*
D26*
X63436500Y-105049000D03*
X63436500Y-107549000D03*
D17*
X77732824Y-101981000D03*
X79632824Y-101981000D03*
X93286500Y-120015000D03*
X95186500Y-120015000D03*
D27*
X85300500Y-110871000D03*
X87800500Y-110871000D03*
D17*
X93163409Y-125603000D03*
X95063409Y-125603000D03*
X87632500Y-120015000D03*
X89532500Y-120015000D03*
D25*
X87820500Y-114747000D03*
X87820500Y-116647000D03*
X92900500Y-114305000D03*
X92900500Y-116205000D03*
X59880500Y-107503000D03*
X59880500Y-105603000D03*
D27*
X95484000Y-130810000D03*
X92984000Y-130810000D03*
X99080000Y-119888000D03*
X101580000Y-119888000D03*
D17*
X95055077Y-128270000D03*
X93155077Y-128270000D03*
X95118000Y-122936000D03*
X93218000Y-122936000D03*
X99151400Y-130937000D03*
X101051400Y-130937000D03*
X99189500Y-128270000D03*
X101089500Y-128270000D03*
X99126000Y-125603000D03*
X101026000Y-125603000D03*
D28*
X172212000Y-57237400D03*
X172212000Y-58637400D03*
D23*
X180906600Y-35052000D03*
X178706600Y-35052000D03*
D28*
X171434760Y-93056480D03*
X171434760Y-94456480D03*
D23*
X181848400Y-60797440D03*
X184048400Y-60797440D03*
D28*
X171640500Y-128141500D03*
X171640500Y-129541500D03*
D23*
X181335500Y-97472500D03*
X183535500Y-97472500D03*
X139997000Y-36322000D03*
X142197000Y-36322000D03*
D28*
X158031180Y-57287160D03*
X158031180Y-58687160D03*
D23*
X166936600Y-35052000D03*
X164736600Y-35052000D03*
X135720000Y-36322000D03*
X133520000Y-36322000D03*
X148420000Y-36322000D03*
X146220000Y-36322000D03*
D19*
X179034440Y-84769960D03*
X182438040Y-84769960D03*
X182438040Y-71307960D03*
X179034440Y-71307960D03*
X179158900Y-121475500D03*
X182562500Y-121475500D03*
X182562500Y-108013500D03*
X179158900Y-108013500D03*
D20*
X60134500Y-114935000D03*
D21*
X60134500Y-112395000D03*
D25*
X66484500Y-107569000D03*
X66484500Y-105669000D03*
D17*
X85346500Y-107315000D03*
X87246500Y-107315000D03*
D29*
X180517800Y-47472600D03*
X180517800Y-40309800D03*
D24*
X176560480Y-64759840D03*
X181691280Y-64759840D03*
X176974500Y-101854000D03*
X182105300Y-101854000D03*
D29*
X166608760Y-47619920D03*
X166608760Y-40457120D03*
X145262600Y-41656000D03*
X152425400Y-41656000D03*
X127228600Y-41656000D03*
X134391400Y-41656000D03*
D30*
X174960280Y-53502560D03*
X174960280Y-58062560D03*
D31*
X181260280Y-55782560D03*
D30*
X174384040Y-89943320D03*
X174384040Y-94503320D03*
D31*
X180684040Y-92223320D03*
D30*
X174206500Y-126867840D03*
X174206500Y-131427840D03*
D31*
X180506500Y-129147840D03*
D30*
X160519000Y-53536500D03*
X160519000Y-58096500D03*
D31*
X166819000Y-55816500D03*
D32*
X143967200Y-49433480D03*
X142697200Y-49433480D03*
X145237200Y-49433480D03*
X147777200Y-49433480D03*
X149047200Y-49433480D03*
D33*
X146507200Y-58577480D03*
D32*
X150317200Y-49433480D03*
X127508000Y-49403000D03*
X126238000Y-49403000D03*
X128778000Y-49403000D03*
X131318000Y-49403000D03*
X132588000Y-49403000D03*
D33*
X130048000Y-58547000D03*
D32*
X133858000Y-49403000D03*
D22*
X172257720Y-55290720D03*
X172257720Y-53090720D03*
D23*
X174762160Y-50327560D03*
X172562160Y-50327560D03*
D34*
X169346880Y-90789760D03*
X169346880Y-89289760D03*
X171490640Y-90799920D03*
X171490640Y-89299920D03*
D35*
X179679600Y-60833000D03*
X178179600Y-60833000D03*
D34*
X169672000Y-129782000D03*
X169672000Y-128282000D03*
D35*
X171438000Y-125793500D03*
X169938000Y-125793500D03*
X178689000Y-97472500D03*
X177189000Y-97472500D03*
D23*
X87228500Y-125603000D03*
X89428500Y-125603000D03*
D22*
X157995620Y-55298520D03*
X157995620Y-53098520D03*
D23*
X160370700Y-50800000D03*
X158170700Y-50800000D03*
D22*
X64960500Y-114595000D03*
X64960500Y-112395000D03*
D23*
X77492500Y-105283000D03*
X79692500Y-105283000D03*
X68602500Y-116205000D03*
X70802500Y-116205000D03*
X75034500Y-105283000D03*
X72834500Y-105283000D03*
D22*
X92900500Y-111717000D03*
X92900500Y-109517000D03*
X70358000Y-119931000D03*
X70358000Y-122131000D03*
D23*
X87398500Y-130937000D03*
X89598500Y-130937000D03*
X87228500Y-128143000D03*
X89428500Y-128143000D03*
X87292000Y-123063000D03*
X89492000Y-123063000D03*
X99230000Y-108585000D03*
X101430000Y-108585000D03*
X99230000Y-111125000D03*
X101430000Y-111125000D03*
X99230000Y-113728500D03*
X101430000Y-113728500D03*
X99230000Y-116459000D03*
X101430000Y-116459000D03*
D36*
X68648500Y-112649000D03*
X69598500Y-112649000D03*
X70548500Y-112649000D03*
X70548500Y-110449000D03*
X68648500Y-110449000D03*
X69598500Y-110449000D03*
D37*
X74326500Y-122853000D03*
X74326500Y-123353000D03*
X74326500Y-123853000D03*
X74326500Y-124353000D03*
X74326500Y-124853000D03*
X74326500Y-125353000D03*
X74326500Y-125853000D03*
X74326500Y-126353000D03*
X74326500Y-126853000D03*
X74326500Y-127353000D03*
X74326500Y-127853000D03*
X74326500Y-128353000D03*
D38*
X75926500Y-129953000D03*
X76426500Y-129953000D03*
X76926500Y-129953000D03*
X77426500Y-129953000D03*
X77926500Y-129953000D03*
X78426500Y-129953000D03*
X78926500Y-129953000D03*
X79426500Y-129953000D03*
X79926500Y-129953000D03*
X80426500Y-129953000D03*
X80926500Y-129953000D03*
X81426500Y-129953000D03*
D37*
X83026500Y-128353000D03*
X83026500Y-127853000D03*
X83026500Y-127353000D03*
X83026500Y-126853000D03*
X83026500Y-126353000D03*
X83026500Y-125853000D03*
X83026500Y-125353000D03*
X83026500Y-124853000D03*
X83026500Y-124353000D03*
X83026500Y-123853000D03*
X83026500Y-123353000D03*
X83026500Y-122853000D03*
D38*
X81426500Y-121253000D03*
X80926500Y-121253000D03*
X80426500Y-121253000D03*
X79926500Y-121253000D03*
X79426500Y-121253000D03*
X78926500Y-121253000D03*
X78426500Y-121253000D03*
X77926500Y-121253000D03*
X77426500Y-121253000D03*
X76926500Y-121253000D03*
X76426500Y-121253000D03*
X75926500Y-121253000D03*
D39*
X155153000Y-47520500D03*
X154503000Y-47520500D03*
X153853000Y-47520500D03*
X153203000Y-47520500D03*
X153203000Y-51920500D03*
X153853000Y-51920500D03*
X154503000Y-51920500D03*
X155153000Y-51920500D03*
X139638680Y-47365560D03*
X138988680Y-47365560D03*
X138338680Y-47365560D03*
X137688680Y-47365560D03*
X137688680Y-51765560D03*
X138338680Y-51765560D03*
X138988680Y-51765560D03*
X139638680Y-51765560D03*
D40*
X80708500Y-111125000D03*
X74408500Y-111125000D03*
M02*
