M48
;DRILL file {KiCad 4.0.7} date 01/07/18 14:46:37
;FORMAT={-:-/ absolute / inch / decimal}
FMAT,2
INCH,TZ
T1C0.024
T2C0.039
T3C0.044
T4C0.068
T5C0.100
T6C0.104
T7C0.172
%
G90
G05
M72
T1
X2.053Y-2.1225
X2.053Y-5.3085
X2.16Y-1.75
X2.16Y-2.22
X2.185Y-2.445
X2.196Y-2.09
X2.229Y-4.753
X2.229Y-5.074
X2.249Y-5.28
X2.254Y-4.06
X2.342Y-5.304
X2.388Y-5.324
X2.4085Y-4.885
X2.4105Y-4.816
X2.4105Y-4.931
X2.4175Y-4.235
X2.4258Y-4.1576
X2.459Y-4.7045
X2.565Y-5.325
X2.619Y-4.3005
X2.6275Y-5.2415
X2.6765Y-5.242
X2.714Y-4.5012
X2.7775Y-4.285
X2.7875Y-4.645
X2.795Y-4.505
X2.845Y-5.328
X2.94Y-4.775
X2.945Y-3.96
X2.95Y-4.625
X3.Y-4.955
X3.02Y-4.88
X3.0475Y-4.235
X3.0675Y-4.635
X3.1137Y-4.672
X3.115Y-4.835
X3.12Y-4.965
X3.19Y-5.18
X3.205Y-4.015
X3.205Y-4.855
X3.2175Y-4.105
X3.2675Y-4.485
X3.3475Y-4.825
X3.3475Y-4.875
X3.46Y-5.25
X3.525Y-4.665
X3.53Y-4.52
X3.665Y-4.89
X3.6675Y-4.645
X3.735Y-4.5
X3.7375Y-4.575
X3.745Y-4.89
X3.815Y-4.725
X3.8154Y-4.84
X3.83Y-5.15
X3.845Y-4.275
X3.98Y-4.895
X4.125Y-4.91
X4.125Y-5.115
X4.285Y-4.37
X4.29Y-4.57
X4.4Y-4.37
X4.47Y-5.22
X4.535Y-4.96
X4.56Y-4.57
X4.57Y-4.91
X4.605Y-4.81
X4.64Y-5.01
X4.675Y-5.11
X4.71Y-5.01
X4.745Y-4.745
X5.35Y-2.04
X5.43Y-1.49
X5.5Y-1.5
X5.91Y-1.45
X6.045Y-2.115
X6.165Y-2.04
X6.382Y-1.427
X6.6355Y-1.3944
X6.65Y-4.9975
X6.7525Y-3.4725
X6.81Y-2.55
X6.84Y-2.035
X6.979Y-1.437
X7.185Y-2.445
X7.212Y-1.403
T2
X2.36Y-3.7
X2.36Y-3.8
X2.3675Y-4.425
X2.3675Y-4.525
X6.756Y-1.395
X6.856Y-1.395
T3
X2.66Y-1.94
X2.66Y-1.94
X2.66Y-2.09
X2.66Y-2.09
X2.66Y-2.24
X2.66Y-2.24
X2.68Y-2.67
X2.68Y-3.07
X2.68Y-3.47
X3.48Y-2.97
X3.48Y-3.17
X3.48Y-3.47
X4.66Y-1.79
X4.66Y-1.79
X4.66Y-2.09
X4.66Y-2.09
X4.66Y-2.39
X4.66Y-2.39
T4
X2.66Y-1.79
X2.66Y-1.79
X2.66Y-2.39
X2.66Y-2.39
X7.0486Y-2.8074
X7.0486Y-3.3374
X7.0535Y-4.2525
X7.0535Y-4.7825
X7.1826Y-2.8074
X7.1826Y-3.3374
X7.1875Y-4.2525
X7.1875Y-4.7825
T5
X2.34Y-1.74
X2.34Y-2.22
X6.9512Y-2.5496
X6.9675Y-4.01
T6
X2.34Y-1.942
X2.34Y-2.422
X7.1532Y-2.5496
X7.1695Y-4.01
T7
X5.009Y-1.64
X5.291Y-1.64
X5.719Y-1.64
X6.001Y-1.64
X6.5594Y-1.5928
X6.5594Y-1.8748
X7.107Y-1.587
X7.107Y-1.869
T0
M30
