G04 #@! TF.FileFunction,Copper,L1,Top,Signal*
%FSLAX46Y46*%
G04 Gerber Fmt 4.6, Leading zero omitted, Abs format (unit mm)*
G04 Created by KiCad (PCBNEW 4.0.7) date 01/07/18 14:46:33*
%MOMM*%
%LPD*%
G01*
G04 APERTURE LIST*
%ADD10C,0.100000*%
%ADD11R,2.300000X0.500000*%
%ADD12R,2.500000X2.000000*%
%ADD13R,0.701040X4.000500*%
%ADD14R,0.701040X3.200400*%
%ADD15C,2.032000*%
%ADD16R,1.200000X0.750000*%
%ADD17R,1.500000X0.600000*%
%ADD18C,3.048000*%
%ADD19R,1.700000X1.700000*%
%ADD20O,1.700000X1.700000*%
%ADD21R,0.900000X1.200000*%
%ADD22R,1.200000X0.900000*%
%ADD23C,3.556000*%
%ADD24R,0.750000X1.200000*%
%ADD25R,1.250000X1.500000*%
%ADD26R,1.500000X1.250000*%
%ADD27R,0.700000X0.600000*%
%ADD28C,6.604000*%
%ADD29R,2.200000X1.200000*%
%ADD30R,6.400000X5.800000*%
%ADD31R,3.050000X2.750000*%
%ADD32R,0.800000X4.600000*%
%ADD33R,10.800000X9.400000*%
%ADD34R,0.900000X0.500000*%
%ADD35R,0.500000X0.900000*%
%ADD36R,0.650000X1.060000*%
%ADD37R,1.300000X0.250000*%
%ADD38R,0.250000X1.300000*%
%ADD39R,0.450000X1.450000*%
%ADD40R,2.200000X2.400000*%
%ADD41C,1.016000*%
%ADD42C,0.508000*%
%ADD43C,0.812800*%
%ADD44C,0.254000*%
%ADD45C,0.381000*%
%ADD46C,1.270000*%
%ADD47C,0.546100*%
%ADD48C,2.108200*%
G04 APERTURE END LIST*
D10*
D11*
X58934000Y-123596600D03*
X58934000Y-124396600D03*
X58934000Y-125196600D03*
X58934000Y-125996600D03*
X58934000Y-126796600D03*
D12*
X58834000Y-120746600D03*
X53334000Y-120746600D03*
X58834000Y-129646600D03*
X53334000Y-129646600D03*
D13*
X64467740Y-138176000D03*
X65465960Y-138176000D03*
X66466720Y-138176000D03*
X67467480Y-138176000D03*
X68465700Y-138176000D03*
X69466460Y-138176000D03*
X70467220Y-138176000D03*
X51465480Y-138176000D03*
X52466240Y-138176000D03*
X53467000Y-138176000D03*
X54467760Y-138176000D03*
X55465980Y-138176000D03*
X56466740Y-138176000D03*
X57467500Y-138176000D03*
X58465720Y-138176000D03*
X59466480Y-138176000D03*
X60467240Y-138176000D03*
X61465460Y-138176000D03*
X71465440Y-138176000D03*
X72466200Y-138176000D03*
X73466960Y-138176000D03*
X74467720Y-138176000D03*
X75465940Y-138176000D03*
X76466700Y-138176000D03*
X77467460Y-138176000D03*
X78465680Y-138176000D03*
X79466440Y-138176000D03*
X80467200Y-138176000D03*
X81465420Y-138176000D03*
X82466180Y-138176000D03*
X83466940Y-138176000D03*
X84467700Y-138176000D03*
X85465920Y-138176000D03*
X86466680Y-138176000D03*
X87467440Y-138176000D03*
X88465660Y-138176000D03*
X89466420Y-138176000D03*
X90467180Y-138176000D03*
X91465400Y-138176000D03*
X92466160Y-138176000D03*
X93466920Y-138176000D03*
X94467680Y-138176000D03*
X95465900Y-138176000D03*
X96466660Y-138176000D03*
X97467420Y-138176000D03*
X98465640Y-138176000D03*
X99466400Y-138176000D03*
X100467160Y-138176000D03*
X101465380Y-138176000D03*
X102466140Y-138176000D03*
X103466900Y-138176000D03*
X104467660Y-138176000D03*
X105465880Y-138176000D03*
X106466640Y-138176000D03*
X107467400Y-138176000D03*
X108465620Y-138176000D03*
X109466380Y-138176000D03*
X110467140Y-138176000D03*
X111465360Y-138176000D03*
X112466120Y-138176000D03*
X113466880Y-138176000D03*
X114467640Y-138176000D03*
X115465860Y-138176000D03*
X116466620Y-138176000D03*
X117467380Y-138176000D03*
X118465600Y-138176000D03*
X119466360Y-138176000D03*
X120467120Y-138176000D03*
X121465340Y-138176000D03*
X122466100Y-138176000D03*
X123466860Y-138176000D03*
X124467620Y-138176000D03*
X125465840Y-138176000D03*
X126466600Y-138176000D03*
X127467360Y-138176000D03*
X128465580Y-138176000D03*
X129466340Y-138176000D03*
X130467100Y-138176000D03*
X131467860Y-138176000D03*
X132466080Y-138176000D03*
D14*
X133466840Y-137777220D03*
D13*
X134467600Y-138176000D03*
D15*
X88392000Y-75438000D03*
X88392000Y-80518000D03*
X68072000Y-67818000D03*
X68072000Y-77978000D03*
X68072000Y-88138000D03*
X88392000Y-88138000D03*
D16*
X99189500Y-123063000D03*
X101089500Y-123063000D03*
D17*
X106938000Y-108458000D03*
X106938000Y-109728000D03*
X106938000Y-110998000D03*
X106938000Y-112268000D03*
X106938000Y-113538000D03*
X106938000Y-114808000D03*
X106938000Y-116078000D03*
X106938000Y-117348000D03*
X113538000Y-117348000D03*
X113538000Y-116078000D03*
X113538000Y-114808000D03*
X113538000Y-113538000D03*
X113538000Y-112268000D03*
X113538000Y-110998000D03*
X113538000Y-109728000D03*
X113538000Y-108458000D03*
D18*
X67564000Y-60706000D03*
D15*
X67564000Y-56896000D03*
X67564000Y-53086000D03*
X67564000Y-49276000D03*
D18*
X67564000Y-45466000D03*
D15*
X118364000Y-45466000D03*
X118364000Y-53086000D03*
X118364000Y-60706000D03*
X118364000Y-60706000D03*
X118364000Y-53086000D03*
X118364000Y-45466000D03*
D18*
X67564000Y-45466000D03*
D15*
X67564000Y-49276000D03*
X67564000Y-53086000D03*
X67564000Y-56896000D03*
D18*
X67564000Y-60706000D03*
D17*
X106934000Y-122174000D03*
X106934000Y-123444000D03*
X106934000Y-124714000D03*
X106934000Y-125984000D03*
X106934000Y-127254000D03*
X106934000Y-128524000D03*
X106934000Y-129794000D03*
X106934000Y-131064000D03*
X113534000Y-131064000D03*
X113534000Y-129794000D03*
X113534000Y-128524000D03*
X113534000Y-127254000D03*
X113534000Y-125984000D03*
X113534000Y-124714000D03*
X113534000Y-123444000D03*
X113534000Y-122174000D03*
D19*
X59944000Y-96520000D03*
D20*
X59944000Y-93980000D03*
D21*
X55626000Y-60282000D03*
X55626000Y-58082000D03*
D22*
X76304500Y-116205000D03*
X74104500Y-116205000D03*
D19*
X174142400Y-35433000D03*
D20*
X171602400Y-35433000D03*
D21*
X55626000Y-48090000D03*
X55626000Y-45890000D03*
D23*
X59436000Y-44196000D03*
X59436000Y-49326800D03*
D22*
X78846500Y-116205000D03*
X81046500Y-116205000D03*
D23*
X59436000Y-56388000D03*
X59436000Y-61518800D03*
D24*
X85026500Y-116581000D03*
X85026500Y-114681000D03*
D16*
X72966500Y-101981000D03*
X74866500Y-101981000D03*
D25*
X63436500Y-105049000D03*
X63436500Y-107549000D03*
D16*
X77732824Y-101981000D03*
X79632824Y-101981000D03*
X93286500Y-120015000D03*
X95186500Y-120015000D03*
D26*
X85300500Y-110871000D03*
X87800500Y-110871000D03*
D16*
X93163409Y-125603000D03*
X95063409Y-125603000D03*
X87632500Y-120015000D03*
X89532500Y-120015000D03*
D24*
X87820500Y-114747000D03*
X87820500Y-116647000D03*
X92900500Y-114305000D03*
X92900500Y-116205000D03*
X59880500Y-107503000D03*
X59880500Y-105603000D03*
D26*
X95484000Y-130810000D03*
X92984000Y-130810000D03*
X99080000Y-119888000D03*
X101580000Y-119888000D03*
D16*
X95055077Y-128270000D03*
X93155077Y-128270000D03*
X95118000Y-122936000D03*
X93218000Y-122936000D03*
X99151400Y-130937000D03*
X101051400Y-130937000D03*
X99189500Y-128270000D03*
X101089500Y-128270000D03*
X99126000Y-125603000D03*
X101026000Y-125603000D03*
D27*
X172212000Y-57237400D03*
X172212000Y-58637400D03*
D22*
X180906600Y-35052000D03*
X178706600Y-35052000D03*
D27*
X171434760Y-93056480D03*
X171434760Y-94456480D03*
D22*
X181848400Y-60797440D03*
X184048400Y-60797440D03*
D27*
X171640500Y-128141500D03*
X171640500Y-129541500D03*
D22*
X181335500Y-97472500D03*
X183535500Y-97472500D03*
X139997000Y-36322000D03*
X142197000Y-36322000D03*
D27*
X158031180Y-57287160D03*
X158031180Y-58687160D03*
D22*
X166936600Y-35052000D03*
X164736600Y-35052000D03*
X135720000Y-36322000D03*
X133520000Y-36322000D03*
X148420000Y-36322000D03*
X146220000Y-36322000D03*
D18*
X179034440Y-84769960D03*
X182438040Y-84769960D03*
X182438040Y-71307960D03*
X179034440Y-71307960D03*
X179158900Y-121475500D03*
X182562500Y-121475500D03*
X182562500Y-108013500D03*
X179158900Y-108013500D03*
D19*
X60134500Y-114935000D03*
D20*
X60134500Y-112395000D03*
D24*
X66484500Y-107569000D03*
X66484500Y-105669000D03*
D16*
X85346500Y-107315000D03*
X87246500Y-107315000D03*
D28*
X180517800Y-47472600D03*
X180517800Y-40309800D03*
D23*
X176560480Y-64759840D03*
X181691280Y-64759840D03*
X176974500Y-101854000D03*
X182105300Y-101854000D03*
D28*
X166608760Y-47619920D03*
X166608760Y-40457120D03*
X145262600Y-41656000D03*
X152425400Y-41656000D03*
X127228600Y-41656000D03*
X134391400Y-41656000D03*
D29*
X174960280Y-53502560D03*
X174960280Y-58062560D03*
D30*
X181260280Y-55782560D03*
D31*
X182935280Y-57307560D03*
X179585280Y-54257560D03*
X182935280Y-54257560D03*
X179585280Y-57307560D03*
D29*
X174384040Y-89943320D03*
X174384040Y-94503320D03*
D30*
X180684040Y-92223320D03*
D31*
X182359040Y-93748320D03*
X179009040Y-90698320D03*
X182359040Y-90698320D03*
X179009040Y-93748320D03*
D29*
X174206500Y-126867840D03*
X174206500Y-131427840D03*
D30*
X180506500Y-129147840D03*
D31*
X182181500Y-130672840D03*
X178831500Y-127622840D03*
X182181500Y-127622840D03*
X178831500Y-130672840D03*
D29*
X160519000Y-53536500D03*
X160519000Y-58096500D03*
D30*
X166819000Y-55816500D03*
D31*
X168494000Y-57341500D03*
X165144000Y-54291500D03*
X168494000Y-54291500D03*
X165144000Y-57341500D03*
D32*
X143967200Y-49433480D03*
X142697200Y-49433480D03*
X145237200Y-49433480D03*
X147777200Y-49433480D03*
X149047200Y-49433480D03*
D33*
X146507200Y-58577480D03*
D32*
X150317200Y-49433480D03*
X127508000Y-49403000D03*
X126238000Y-49403000D03*
X128778000Y-49403000D03*
X131318000Y-49403000D03*
X132588000Y-49403000D03*
D33*
X130048000Y-58547000D03*
D32*
X133858000Y-49403000D03*
D21*
X172257720Y-55290720D03*
X172257720Y-53090720D03*
D22*
X174762160Y-50327560D03*
X172562160Y-50327560D03*
D34*
X169346880Y-90789760D03*
X169346880Y-89289760D03*
X171490640Y-90799920D03*
X171490640Y-89299920D03*
D35*
X179679600Y-60833000D03*
X178179600Y-60833000D03*
D34*
X169672000Y-129782000D03*
X169672000Y-128282000D03*
D35*
X171438000Y-125793500D03*
X169938000Y-125793500D03*
X178689000Y-97472500D03*
X177189000Y-97472500D03*
D22*
X87228500Y-125603000D03*
X89428500Y-125603000D03*
D21*
X157995620Y-55298520D03*
X157995620Y-53098520D03*
D22*
X160370700Y-50800000D03*
X158170700Y-50800000D03*
D21*
X64960500Y-114595000D03*
X64960500Y-112395000D03*
D22*
X77492500Y-105283000D03*
X79692500Y-105283000D03*
X68602500Y-116205000D03*
X70802500Y-116205000D03*
X75034500Y-105283000D03*
X72834500Y-105283000D03*
D21*
X92900500Y-111717000D03*
X92900500Y-109517000D03*
X70358000Y-119931000D03*
X70358000Y-122131000D03*
D22*
X87398500Y-130937000D03*
X89598500Y-130937000D03*
X87228500Y-128143000D03*
X89428500Y-128143000D03*
X87292000Y-123063000D03*
X89492000Y-123063000D03*
X99230000Y-108585000D03*
X101430000Y-108585000D03*
X99230000Y-111125000D03*
X101430000Y-111125000D03*
X99230000Y-113728500D03*
X101430000Y-113728500D03*
X99230000Y-116459000D03*
X101430000Y-116459000D03*
D36*
X68648500Y-112649000D03*
X69598500Y-112649000D03*
X70548500Y-112649000D03*
X70548500Y-110449000D03*
X68648500Y-110449000D03*
X69598500Y-110449000D03*
D37*
X74326500Y-122853000D03*
X74326500Y-123353000D03*
X74326500Y-123853000D03*
X74326500Y-124353000D03*
X74326500Y-124853000D03*
X74326500Y-125353000D03*
X74326500Y-125853000D03*
X74326500Y-126353000D03*
X74326500Y-126853000D03*
X74326500Y-127353000D03*
X74326500Y-127853000D03*
X74326500Y-128353000D03*
D38*
X75926500Y-129953000D03*
X76426500Y-129953000D03*
X76926500Y-129953000D03*
X77426500Y-129953000D03*
X77926500Y-129953000D03*
X78426500Y-129953000D03*
X78926500Y-129953000D03*
X79426500Y-129953000D03*
X79926500Y-129953000D03*
X80426500Y-129953000D03*
X80926500Y-129953000D03*
X81426500Y-129953000D03*
D37*
X83026500Y-128353000D03*
X83026500Y-127853000D03*
X83026500Y-127353000D03*
X83026500Y-126853000D03*
X83026500Y-126353000D03*
X83026500Y-125853000D03*
X83026500Y-125353000D03*
X83026500Y-124853000D03*
X83026500Y-124353000D03*
X83026500Y-123853000D03*
X83026500Y-123353000D03*
X83026500Y-122853000D03*
D38*
X81426500Y-121253000D03*
X80926500Y-121253000D03*
X80426500Y-121253000D03*
X79926500Y-121253000D03*
X79426500Y-121253000D03*
X78926500Y-121253000D03*
X78426500Y-121253000D03*
X77926500Y-121253000D03*
X77426500Y-121253000D03*
X76926500Y-121253000D03*
X76426500Y-121253000D03*
X75926500Y-121253000D03*
D39*
X155153000Y-47520500D03*
X154503000Y-47520500D03*
X153853000Y-47520500D03*
X153203000Y-47520500D03*
X153203000Y-51920500D03*
X153853000Y-51920500D03*
X154503000Y-51920500D03*
X155153000Y-51920500D03*
X139638680Y-47365560D03*
X138988680Y-47365560D03*
X138338680Y-47365560D03*
X137688680Y-47365560D03*
X137688680Y-51765560D03*
X138338680Y-51765560D03*
X138988680Y-51765560D03*
X139638680Y-51765560D03*
D40*
X80708500Y-111125000D03*
X74408500Y-111125000D03*
D41*
X62458600Y-119494300D03*
X72263000Y-135331200D03*
X68936580Y-114330315D03*
X81026000Y-131572000D03*
X74803000Y-100584000D03*
X81407000Y-101981000D03*
X79121000Y-122809000D03*
X81407000Y-123317000D03*
X61615500Y-105603000D03*
X74676000Y-121285000D03*
X76200000Y-125857000D03*
X95123000Y-124206000D03*
X108839000Y-110998000D03*
X108966000Y-116078000D03*
X104775000Y-124714000D03*
X104775000Y-129921000D03*
X101092000Y-124333000D03*
X96901000Y-120015000D03*
X89535000Y-118491000D03*
X94869000Y-114300000D03*
X89662000Y-114808000D03*
X66522600Y-109232700D03*
X61226700Y-122326400D03*
X56616610Y-128879600D03*
X56616610Y-120726200D03*
X60655200Y-135229600D03*
X57251600Y-103124000D03*
X81724500Y-104267000D03*
X82994500Y-113919000D03*
X93154500Y-117983000D03*
X85026500Y-123825000D03*
X93091000Y-124206000D03*
X79248000Y-126111000D03*
X85026500Y-122555000D03*
X94932500Y-116205000D03*
X77406500Y-107569000D03*
X61404500Y-107569000D03*
X97282000Y-130810000D03*
X87884000Y-133350000D03*
X76708000Y-123952000D03*
X96911000Y-122936000D03*
X172974000Y-64770000D03*
X135890000Y-51816000D03*
X153543000Y-53721000D03*
X182499000Y-62103000D03*
X115824000Y-116078000D03*
X111760000Y-110998000D03*
X113538000Y-132588000D03*
X52146200Y-134835900D03*
X52146200Y-53911500D03*
X55778400Y-53086000D03*
X57124600Y-134112000D03*
X65151000Y-135255000D03*
X55499000Y-62103000D03*
X59486800Y-134721600D03*
X183184800Y-35636200D03*
X168542013Y-35416858D03*
X54864000Y-44450000D03*
X54864000Y-56388000D03*
X115189000Y-125984000D03*
X120523000Y-120523000D03*
X116078000Y-124714000D03*
X173736000Y-51689000D03*
X119634000Y-127254000D03*
X117856000Y-127254000D03*
X171513500Y-88201500D03*
X118745000Y-129794000D03*
X168910000Y-126936500D03*
X116967000Y-122174000D03*
X156591000Y-51816000D03*
X70993000Y-114427000D03*
X74930000Y-117475000D03*
X70802500Y-117983000D03*
X79088300Y-118668800D03*
X70548500Y-108839000D03*
X77914500Y-117729000D03*
X139700000Y-38100000D03*
X137922000Y-37846000D03*
X150114000Y-36830000D03*
X97663000Y-108585000D03*
X177266600Y-36499800D03*
X162102800Y-36245800D03*
X61226700Y-125247400D03*
X66738500Y-133134100D03*
X61175392Y-124080125D03*
X67983100Y-133146800D03*
D42*
X60361700Y-119468900D02*
X62433200Y-119468900D01*
X62433200Y-119468900D02*
X62458600Y-119494300D01*
X58834000Y-120746600D02*
X59084000Y-120746600D01*
X59084000Y-120746600D02*
X60361700Y-119468900D01*
X53334000Y-120746600D02*
X55092000Y-120746600D01*
X55092000Y-120746600D02*
X55986001Y-121640601D01*
X55986001Y-121640601D02*
X57939999Y-121640601D01*
X57939999Y-121640601D02*
X58834000Y-120746600D01*
X58934000Y-126796600D02*
X58934000Y-129546600D01*
X58934000Y-129546600D02*
X58834000Y-129646600D01*
X55740300Y-126390400D02*
X56869800Y-126390400D01*
X56869800Y-126390400D02*
X57276000Y-126796600D01*
X57276000Y-126796600D02*
X58934000Y-126796600D01*
X55016400Y-127114300D02*
X55740300Y-126390400D01*
X55016400Y-127446726D02*
X55016400Y-127114300D01*
X53334000Y-129646600D02*
X53334000Y-129129126D01*
X53334000Y-129129126D02*
X55016400Y-127446726D01*
X53334000Y-120746600D02*
X53334000Y-122254600D01*
X53334000Y-122254600D02*
X53334000Y-129646600D01*
D43*
X68954648Y-135331200D02*
X72263000Y-135331200D01*
X68465700Y-138176000D02*
X68465700Y-135820148D01*
X68465700Y-135820148D02*
X68954648Y-135331200D01*
D44*
X68961000Y-114070500D02*
X68961000Y-114305895D01*
X68961000Y-114305895D02*
X68936580Y-114330315D01*
X69598500Y-112649000D02*
X69598500Y-113433000D01*
X69598500Y-113433000D02*
X68961000Y-114070500D01*
X74326500Y-127353000D02*
X74326500Y-127853000D01*
X74326500Y-127353000D02*
X75720000Y-127353000D01*
X75720000Y-127353000D02*
X76200000Y-126873000D01*
X76200000Y-126873000D02*
X76200000Y-125857000D01*
X80926500Y-129953000D02*
X80926500Y-131472500D01*
X80926500Y-131472500D02*
X81026000Y-131572000D01*
X74866500Y-101981000D02*
X74866500Y-100647500D01*
X74866500Y-100647500D02*
X74803000Y-100584000D01*
X79632824Y-101981000D02*
X81407000Y-101981000D01*
X79248000Y-121253000D02*
X78926500Y-121253000D01*
X79426500Y-121253000D02*
X79248000Y-121253000D01*
X79248000Y-121253000D02*
X79248000Y-122682000D01*
X79248000Y-122682000D02*
X79121000Y-122809000D01*
X83026500Y-123353000D02*
X81443000Y-123353000D01*
X81443000Y-123353000D02*
X81407000Y-123317000D01*
X63436500Y-107549000D02*
X63436500Y-107424000D01*
X63436500Y-107424000D02*
X61615500Y-105603000D01*
X59880500Y-105603000D02*
X61615500Y-105603000D01*
X57779900Y-121026000D02*
X69286000Y-121153000D01*
X69286000Y-121153000D02*
X70358000Y-120081000D01*
X70358000Y-120081000D02*
X70358000Y-119931000D01*
X76200000Y-121253000D02*
X76426500Y-121253000D01*
X75926500Y-121253000D02*
X76200000Y-121253000D01*
X76200000Y-121253000D02*
X76168000Y-121285000D01*
X76168000Y-121285000D02*
X74676000Y-121285000D01*
X74104500Y-116205000D02*
X74104500Y-116909000D01*
X74091799Y-120700799D02*
X74676000Y-121285000D01*
X74104500Y-116909000D02*
X74091799Y-116921701D01*
X74091799Y-116921701D02*
X74091799Y-120700799D01*
X75585000Y-124353000D02*
X76200000Y-124968000D01*
X76200000Y-124968000D02*
X76200000Y-125857000D01*
X75195862Y-124353000D02*
X75585000Y-124353000D01*
X95063409Y-125603000D02*
X95063409Y-124265591D01*
X95063409Y-124265591D02*
X95123000Y-124206000D01*
X93599000Y-126746000D02*
X93155077Y-127189923D01*
X93155077Y-127189923D02*
X93155077Y-128270000D01*
X94549409Y-126746000D02*
X93599000Y-126746000D01*
X95063409Y-125603000D02*
X95063409Y-126232000D01*
X95063409Y-126232000D02*
X94549409Y-126746000D01*
X93155077Y-128270000D02*
X93155077Y-130638923D01*
X93155077Y-130638923D02*
X92984000Y-130810000D01*
X106938000Y-112268000D02*
X108331000Y-112268000D01*
X108331000Y-112268000D02*
X108839000Y-111760000D01*
X108839000Y-111760000D02*
X108839000Y-110998000D01*
X108204000Y-109728000D02*
X108839000Y-110363000D01*
X108839000Y-110363000D02*
X108839000Y-110998000D01*
X107942000Y-109728000D02*
X108204000Y-109728000D01*
X108458000Y-117348000D02*
X108966000Y-116840000D01*
X108966000Y-116840000D02*
X108966000Y-116078000D01*
X106938000Y-117348000D02*
X108458000Y-117348000D01*
X108331000Y-114808000D02*
X108966000Y-115443000D01*
X108966000Y-115443000D02*
X108966000Y-116078000D01*
X107942000Y-114808000D02*
X108331000Y-114808000D01*
X104775000Y-124587000D02*
X104775000Y-125349000D01*
X104775000Y-124079000D02*
X104775000Y-124587000D01*
X104775000Y-124587000D02*
X104775000Y-124714000D01*
X104775000Y-129667000D02*
X104775000Y-129159000D01*
X104775000Y-130556000D02*
X104775000Y-129667000D01*
X104775000Y-129667000D02*
X104775000Y-129921000D01*
X106934000Y-131064000D02*
X105283000Y-131064000D01*
X105283000Y-131064000D02*
X104775000Y-130556000D01*
X104775000Y-129159000D02*
X105410000Y-128524000D01*
X105410000Y-128524000D02*
X106934000Y-128524000D01*
X106934000Y-123444000D02*
X105410000Y-123444000D01*
X105410000Y-123444000D02*
X104775000Y-124079000D01*
X104775000Y-125349000D02*
X105410000Y-125984000D01*
X105410000Y-125984000D02*
X105930000Y-125984000D01*
X105930000Y-125984000D02*
X106934000Y-125984000D01*
X101026000Y-125603000D02*
X101026000Y-124399000D01*
X101026000Y-124399000D02*
X101092000Y-124333000D01*
X101026000Y-125603000D02*
X101026000Y-128206500D01*
X101026000Y-128206500D02*
X101089500Y-128270000D01*
X101089500Y-128270000D02*
X101089500Y-130898900D01*
X101089500Y-130898900D02*
X101051400Y-130937000D01*
X101051400Y-128737400D02*
X101051400Y-130937000D01*
X105918000Y-128524000D02*
X106934000Y-128524000D01*
X106938000Y-114808000D02*
X107942000Y-114808000D01*
X108204000Y-117348000D02*
X106938000Y-117348000D01*
X106938000Y-109728000D02*
X107942000Y-109728000D01*
X101580000Y-119888000D02*
X104952000Y-119888000D01*
X104952000Y-119888000D02*
X106938000Y-117902000D01*
X106938000Y-117902000D02*
X106938000Y-117348000D01*
X95186500Y-120015000D02*
X96901000Y-120015000D01*
X89532500Y-120015000D02*
X89532500Y-118493500D01*
X89532500Y-118493500D02*
X89535000Y-118491000D01*
X93726000Y-121539000D02*
X93218000Y-122047000D01*
X93218000Y-122047000D02*
X93218000Y-122936000D01*
X94840000Y-121539000D02*
X93726000Y-121539000D01*
X95186500Y-120015000D02*
X95186500Y-121192500D01*
X95186500Y-121192500D02*
X94840000Y-121539000D01*
X92900500Y-114305000D02*
X94864000Y-114305000D01*
X94864000Y-114305000D02*
X94869000Y-114300000D01*
X87820500Y-114747000D02*
X89601000Y-114747000D01*
X89601000Y-114747000D02*
X89662000Y-114808000D01*
X87820500Y-114747000D02*
X85092500Y-114747000D01*
X85092500Y-114747000D02*
X85026500Y-114681000D01*
X87800500Y-110871000D02*
X87800500Y-114727000D01*
X87800500Y-114727000D02*
X87820500Y-114747000D01*
X83026500Y-122853000D02*
X83026500Y-123364290D01*
X74326500Y-127853000D02*
X74326500Y-127508000D01*
X74326500Y-127508000D02*
X74326500Y-126839701D01*
X74326500Y-124353000D02*
X75195862Y-124353000D01*
X80926500Y-129953000D02*
X80426500Y-129953000D01*
X85346500Y-107315000D02*
X85346500Y-108966000D01*
X85346500Y-108966000D02*
X85346500Y-110825000D01*
X92900500Y-109517000D02*
X92196500Y-109517000D01*
X92196500Y-109517000D02*
X91645500Y-108966000D01*
X91645500Y-108966000D02*
X85346500Y-108966000D01*
X80645000Y-128353000D02*
X80264000Y-128353000D01*
X80918500Y-128353000D02*
X80645000Y-128353000D01*
X80645000Y-128353000D02*
X80645000Y-124612402D01*
X80645000Y-124612402D02*
X79679799Y-123647201D01*
X81426500Y-129953000D02*
X81426500Y-128861000D01*
X81426500Y-128861000D02*
X80918500Y-128353000D01*
X80264000Y-128353000D02*
X74326500Y-128353000D01*
X80471299Y-121839701D02*
X80471299Y-121297799D01*
X80471299Y-121297799D02*
X80426500Y-121253000D01*
X79679799Y-123647201D02*
X80426500Y-122900500D01*
X80426500Y-122900500D02*
X80426500Y-121884500D01*
X80426500Y-121884500D02*
X80471299Y-121839701D01*
X78244701Y-123647201D02*
X79679799Y-123647201D01*
X76926500Y-121253000D02*
X76926500Y-122329000D01*
X76926500Y-122329000D02*
X78244701Y-123647201D01*
X99189500Y-123063000D02*
X99414500Y-123063000D01*
X109093000Y-120904000D02*
X110236000Y-119761000D01*
X110236000Y-119761000D02*
X110236000Y-106934000D01*
X99414500Y-123063000D02*
X100811500Y-121666000D01*
X105410000Y-121666000D02*
X106172000Y-120904000D01*
X100811500Y-121666000D02*
X105410000Y-121666000D01*
X106172000Y-120904000D02*
X109093000Y-120904000D01*
X110236000Y-106934000D02*
X109413000Y-106111000D01*
X109413000Y-106111000D02*
X107000000Y-106111000D01*
X107000000Y-106111000D02*
X85346500Y-106111000D01*
X85300500Y-110871000D02*
X85300500Y-111750000D01*
X84397500Y-116581000D02*
X85026500Y-116581000D01*
X85300500Y-111750000D02*
X83947000Y-113103500D01*
X83947000Y-113103500D02*
X83947000Y-116130500D01*
X83947000Y-116130500D02*
X84397500Y-116581000D01*
X99126000Y-125603000D02*
X99126000Y-123126500D01*
X99126000Y-123126500D02*
X99189500Y-123063000D01*
X99189500Y-128270000D02*
X99189500Y-125666500D01*
X99189500Y-125666500D02*
X99126000Y-125603000D01*
X99189500Y-128270000D02*
X99189500Y-130898900D01*
X99189500Y-130898900D02*
X99151400Y-130937000D01*
X85346500Y-110825000D02*
X85300500Y-110871000D01*
X99019500Y-123233000D02*
X99189500Y-123063000D01*
X99126000Y-128206500D02*
X99189500Y-128270000D01*
X99189500Y-125539500D02*
X99126000Y-125603000D01*
X81458500Y-129921000D02*
X81426500Y-129953000D01*
X81216500Y-119559000D02*
X83730500Y-119559000D01*
X83730500Y-119559000D02*
X85026500Y-118263000D01*
X80426500Y-121253000D02*
X80426500Y-120349000D01*
X80426500Y-120349000D02*
X81216500Y-119559000D01*
X80426500Y-122273000D02*
X80426500Y-121253000D01*
X85026500Y-116581000D02*
X85026500Y-118263000D01*
X85026500Y-118263000D02*
X86778500Y-120015000D01*
X86778500Y-120015000D02*
X87632500Y-120015000D01*
X99085400Y-130871000D02*
X99151400Y-130937000D01*
X84518500Y-105283000D02*
X85346500Y-106111000D01*
X85346500Y-106111000D02*
X85346500Y-107315000D01*
X79692500Y-105283000D02*
X84518500Y-105283000D01*
X72834500Y-105283000D02*
X72834500Y-104013000D01*
X72834500Y-104013000D02*
X73342500Y-103505000D01*
X79692500Y-104013000D02*
X79692500Y-105283000D01*
X73342500Y-103505000D02*
X79184500Y-103505000D01*
X79184500Y-103505000D02*
X79692500Y-104013000D01*
X68648500Y-110449000D02*
X68648500Y-107945000D01*
X71310500Y-105283000D02*
X72834500Y-105283000D01*
X68648500Y-107945000D02*
X71310500Y-105283000D01*
X64960500Y-112395000D02*
X64960500Y-111541000D01*
X64960500Y-111541000D02*
X66052500Y-110449000D01*
X66052500Y-110449000D02*
X68069500Y-110449000D01*
X68069500Y-110449000D02*
X68648500Y-110449000D01*
X60134500Y-112395000D02*
X64960500Y-112395000D01*
D45*
X66522600Y-109232700D02*
X66522600Y-107607100D01*
X66522600Y-107607100D02*
X66484500Y-107569000D01*
X59573200Y-122326400D02*
X61226700Y-122326400D01*
X58934000Y-123596600D02*
X58934000Y-122965600D01*
X58934000Y-122965600D02*
X59573200Y-122326400D01*
D44*
X72741500Y-101981000D02*
X67153500Y-107569000D01*
X67153500Y-107569000D02*
X66484500Y-107569000D01*
X72966500Y-101981000D02*
X72741500Y-101981000D01*
D42*
X56591200Y-129933700D02*
X56591200Y-128905010D01*
X56591200Y-128905010D02*
X56616610Y-128879600D01*
X54508400Y-132016500D02*
X56591200Y-129933700D01*
X52260500Y-132016500D02*
X54508400Y-132016500D01*
X51384200Y-131140200D02*
X52260500Y-132016500D01*
X51384200Y-130022600D02*
X51384200Y-131140200D01*
X51384200Y-123659900D02*
X51384200Y-130022600D01*
X51384200Y-119062500D02*
X51384200Y-123659900D01*
X51854110Y-118592590D02*
X51384200Y-119062500D01*
X54483000Y-118592590D02*
X51854110Y-118592590D01*
X56616610Y-120726200D02*
X54483000Y-118592590D01*
X60655200Y-135229600D02*
X60655200Y-137988040D01*
X60655200Y-137988040D02*
X60467240Y-138176000D01*
X57823100Y-103149400D02*
X57277000Y-103149400D01*
X57277000Y-103149400D02*
X57251600Y-103124000D01*
X60590398Y-103149400D02*
X57823100Y-103149400D01*
X63436500Y-105049000D02*
X62489998Y-105049000D01*
X62489998Y-105049000D02*
X60590398Y-103149400D01*
X63436500Y-105049000D02*
X63436500Y-104924000D01*
X76454000Y-99060000D02*
X77732824Y-100338824D01*
X77732824Y-100338824D02*
X77732824Y-101981000D01*
X72898000Y-99060000D02*
X76454000Y-99060000D01*
X71249824Y-100708176D02*
X72898000Y-99060000D01*
X71220324Y-100708176D02*
X71249824Y-100708176D01*
D45*
X79905791Y-120248629D02*
X79842292Y-120248629D01*
X79842292Y-120248629D02*
X79905790Y-120248628D01*
D42*
X79842292Y-120107012D02*
X79842292Y-120248629D01*
D45*
X79842292Y-120133315D02*
X79905791Y-120133315D01*
D42*
X81046500Y-116205000D02*
X81046500Y-118902804D01*
X81046500Y-118902804D02*
X79842292Y-120107012D01*
X79842292Y-120107012D02*
X79842292Y-120133315D01*
X82486500Y-116205000D02*
X81046500Y-116205000D01*
X82994500Y-113919000D02*
X82994500Y-115697000D01*
X82994500Y-115697000D02*
X82486500Y-116205000D01*
D45*
X80117080Y-103378000D02*
X81006080Y-104267000D01*
D42*
X77732824Y-101981000D02*
X77732824Y-102864000D01*
X77732824Y-102864000D02*
X77789614Y-102920790D01*
X77789614Y-102920790D02*
X79659870Y-102920790D01*
X79659870Y-102920790D02*
X80117080Y-103378000D01*
X66484500Y-105669000D02*
X66484500Y-105444000D01*
X66484500Y-105444000D02*
X71220324Y-100708176D01*
X77732824Y-101098000D02*
X77732824Y-101981000D01*
X63436500Y-105049000D02*
X65864500Y-105049000D01*
X65864500Y-105049000D02*
X66484500Y-105669000D01*
D44*
X79905791Y-120248629D02*
X79926500Y-120269338D01*
X79926500Y-120269338D02*
X79926500Y-121253000D01*
D45*
X79905791Y-120133315D02*
X79905791Y-120248629D01*
X81006080Y-104267000D02*
X81724500Y-104267000D01*
D44*
X92900500Y-111717000D02*
X92196500Y-111717000D01*
X92196500Y-111717000D02*
X91122500Y-112791000D01*
X91122500Y-112791000D02*
X91122500Y-117729000D01*
X91122500Y-117729000D02*
X91376500Y-117983000D01*
X91376500Y-117983000D02*
X93154500Y-117983000D01*
X93154500Y-117983000D02*
X93154500Y-119893000D01*
X93408500Y-119893000D02*
X93286500Y-120015000D01*
X83026500Y-123853000D02*
X84998500Y-123853000D01*
X84998500Y-123853000D02*
X85026500Y-123825000D01*
X79248000Y-126111000D02*
X78359000Y-126111000D01*
X77546201Y-123595293D02*
X76803908Y-122853000D01*
X78359000Y-126111000D02*
X77546201Y-125298201D01*
X77546201Y-125298201D02*
X77546201Y-123595293D01*
X76803908Y-122853000D02*
X74326500Y-122853000D01*
X93091000Y-124206000D02*
X93091000Y-125530591D01*
X93091000Y-125530591D02*
X93163409Y-125603000D01*
X93091000Y-125675409D02*
X93163409Y-125603000D01*
X73342500Y-114173000D02*
X76306500Y-114173000D01*
X76306500Y-114173000D02*
X79354500Y-111125000D01*
X79354500Y-111125000D02*
X80708500Y-111125000D01*
X72834500Y-114681000D02*
X73342500Y-114173000D01*
X72834500Y-121373000D02*
X72834500Y-114681000D01*
X74326500Y-122853000D02*
X74314500Y-122853000D01*
X74314500Y-122853000D02*
X72834500Y-121373000D01*
X90551000Y-117221000D02*
X89977000Y-116647000D01*
X89977000Y-116647000D02*
X87820500Y-116647000D01*
X90551000Y-117983000D02*
X90551000Y-117221000D01*
X90932000Y-118364000D02*
X90551000Y-117983000D01*
X90614500Y-120967500D02*
X90932000Y-120650000D01*
X90932000Y-120650000D02*
X90932000Y-118364000D01*
X90614500Y-121031000D02*
X90614500Y-120967500D01*
X87820500Y-116647000D02*
X87820500Y-116872000D01*
X84867512Y-121031000D02*
X83852722Y-120016210D01*
X90614500Y-121031000D02*
X84867512Y-121031000D01*
X83852722Y-120016210D02*
X81405882Y-120016210D01*
X81405882Y-120016210D02*
X80926500Y-120495592D01*
X80926500Y-120495592D02*
X80926500Y-121253000D01*
X85026500Y-122555000D02*
X85026500Y-121836580D01*
X85026500Y-121836580D02*
X84442920Y-121253000D01*
X84442920Y-121253000D02*
X81805500Y-121253000D01*
X81805500Y-121253000D02*
X81426500Y-121253000D01*
X94678500Y-116205000D02*
X94932500Y-116205000D01*
X92900500Y-116205000D02*
X94678500Y-116205000D01*
X72580500Y-111599000D02*
X73054500Y-111125000D01*
X73124500Y-123353000D02*
X73124500Y-122309592D01*
X73124500Y-122309592D02*
X72377290Y-121562382D01*
X72377290Y-121562382D02*
X72377290Y-111802210D01*
X72377290Y-111802210D02*
X72580500Y-111599000D01*
X75120500Y-108331000D02*
X74408500Y-109043000D01*
X74408500Y-109043000D02*
X74408500Y-111125000D01*
X76644500Y-108331000D02*
X75120500Y-108331000D01*
X77406500Y-107569000D02*
X76644500Y-108331000D01*
X61338500Y-107503000D02*
X61404500Y-107569000D01*
X59880500Y-107503000D02*
X61338500Y-107503000D01*
X74326500Y-123353000D02*
X73124500Y-123353000D01*
X73054500Y-111125000D02*
X74408500Y-111125000D01*
X97282000Y-130810000D02*
X95484000Y-130810000D01*
X72898000Y-132334000D02*
X73914000Y-133350000D01*
X73914000Y-133350000D02*
X87884000Y-133350000D01*
X72898000Y-126877500D02*
X72898000Y-132334000D01*
X74326500Y-126353000D02*
X73422500Y-126353000D01*
X73422500Y-126353000D02*
X72898000Y-126877500D01*
X101089500Y-123063000D02*
X101943500Y-123063000D01*
X101943500Y-123063000D02*
X102362000Y-123481500D01*
X102362000Y-123481500D02*
X102362000Y-131572000D01*
X102362000Y-131572000D02*
X101803210Y-132130790D01*
X95484000Y-131806000D02*
X95484000Y-130810000D01*
X101803210Y-132130790D02*
X95808790Y-132130790D01*
X95808790Y-132130790D02*
X95484000Y-131806000D01*
X95055077Y-129091077D02*
X95484000Y-129520000D01*
X95484000Y-129520000D02*
X95484000Y-130810000D01*
X95055077Y-128270000D02*
X95055077Y-129091077D01*
X76708000Y-123952000D02*
X76609000Y-123853000D01*
X76609000Y-123853000D02*
X74326500Y-123853000D01*
X95118000Y-122936000D02*
X96911000Y-122936000D01*
X99080000Y-119888000D02*
X99080000Y-120767000D01*
X99080000Y-120767000D02*
X96911000Y-122936000D01*
X100330000Y-118763000D02*
X100330000Y-108040638D01*
X100330000Y-108040638D02*
X99604362Y-107315000D01*
X99604362Y-107315000D02*
X88100500Y-107315000D01*
X88100500Y-107315000D02*
X87246500Y-107315000D01*
X99080000Y-119888000D02*
X99205000Y-119888000D01*
X99205000Y-119888000D02*
X100330000Y-118763000D01*
X140970000Y-46228000D02*
X140970000Y-49455240D01*
X140970000Y-49455240D02*
X139638680Y-50786560D01*
X139638680Y-50786560D02*
X139638680Y-51765560D01*
X140193881Y-45451881D02*
X140970000Y-46228000D01*
X138760201Y-38531799D02*
X140193881Y-39965479D01*
X140193881Y-39965479D02*
X140193881Y-45451881D01*
X138938000Y-35306000D02*
X138760201Y-35483799D01*
X138760201Y-35483799D02*
X138760201Y-38531799D01*
X144350000Y-35306000D02*
X138938000Y-35306000D01*
X146220000Y-36322000D02*
X145366000Y-36322000D01*
X145366000Y-36322000D02*
X144350000Y-35306000D01*
X172257720Y-55290720D02*
X171553720Y-55290720D01*
X171553720Y-55290720D02*
X171196000Y-55648440D01*
X171196000Y-55648440D02*
X171196000Y-58225400D01*
X171608000Y-58637400D02*
X172212000Y-58637400D01*
X171196000Y-58225400D02*
X171608000Y-58637400D01*
X172212000Y-58637400D02*
X174385440Y-58637400D01*
X174385440Y-58637400D02*
X174960280Y-58062560D01*
X156009520Y-55298520D02*
X155153000Y-54442000D01*
X155153000Y-54442000D02*
X155153000Y-51920500D01*
X157995620Y-55298520D02*
X156009520Y-55298520D01*
X158031180Y-58687160D02*
X159928340Y-58687160D01*
X159928340Y-58687160D02*
X160519000Y-58096500D01*
X171434760Y-94456480D02*
X170830760Y-94456480D01*
X170830760Y-94456480D02*
X169346880Y-92972600D01*
X169346880Y-92972600D02*
X169346880Y-91293760D01*
X169346880Y-91293760D02*
X169346880Y-90789760D01*
X174384040Y-94503320D02*
X171481600Y-94503320D01*
X171481600Y-94503320D02*
X171434760Y-94456480D01*
X169672000Y-131000500D02*
X170099340Y-131427840D01*
X170099340Y-131427840D02*
X174206500Y-131427840D01*
X171640500Y-129541500D02*
X171640500Y-131127500D01*
X171640500Y-131127500D02*
X171940840Y-131427840D01*
X171940840Y-131427840D02*
X174206500Y-131427840D01*
X169672000Y-129782000D02*
X169672000Y-131000500D01*
X139065000Y-56134000D02*
X136652000Y-58547000D01*
X136652000Y-58547000D02*
X130048000Y-58547000D01*
X139065000Y-52820880D02*
X139065000Y-56134000D01*
X138988680Y-51765560D02*
X138988680Y-52744560D01*
X138988680Y-52744560D02*
X139065000Y-52820880D01*
X139638680Y-51765560D02*
X138988680Y-51765560D01*
X154503000Y-51920500D02*
X154503000Y-56235680D01*
X154503000Y-56235680D02*
X152161200Y-58577480D01*
X152161200Y-58577480D02*
X146507200Y-58577480D01*
X154503000Y-51920500D02*
X155153000Y-51920500D01*
D43*
X55626000Y-134569200D02*
X55626000Y-132594587D01*
X55626000Y-132594587D02*
X56508897Y-131711690D01*
X56508897Y-131711690D02*
X71305809Y-131711690D01*
X71305809Y-131711690D02*
X74391929Y-134797810D01*
X74391929Y-134797810D02*
X111328190Y-134797810D01*
X111328190Y-134797810D02*
X113030001Y-133095999D01*
X113030001Y-133095999D02*
X113538000Y-132588000D01*
X56419750Y-135362950D02*
X55626000Y-134569200D01*
X57467500Y-135362950D02*
X56419750Y-135362950D01*
X57467500Y-138176000D02*
X57467500Y-135362950D01*
D44*
X166936600Y-35052000D02*
X166936600Y-40129280D01*
X166936600Y-40129280D02*
X166608760Y-40457120D01*
X180906600Y-35052000D02*
X180906600Y-39921000D01*
X180906600Y-39921000D02*
X180517800Y-40309800D01*
X166936600Y-35052000D02*
X167086600Y-35052000D01*
X181335500Y-97472500D02*
X180873401Y-97472500D01*
X180873401Y-97472500D02*
X179920901Y-96520000D01*
X179920901Y-96520000D02*
X176580800Y-96520000D01*
X176580800Y-96520000D02*
X175971200Y-97129600D01*
X175971200Y-97129600D02*
X175971200Y-98336229D01*
X175971200Y-98336229D02*
X176974500Y-99339529D01*
X176974500Y-99339529D02*
X176974500Y-101854000D01*
X111760000Y-110998000D02*
X111760000Y-112014000D01*
X112014000Y-112268000D02*
X113538000Y-112268000D01*
X111760000Y-112014000D02*
X112014000Y-112268000D01*
X113538000Y-109728000D02*
X112014000Y-109728000D01*
X112014000Y-109728000D02*
X111760000Y-109982000D01*
X111760000Y-109982000D02*
X111760000Y-110998000D01*
X176560480Y-64759840D02*
X172984160Y-64759840D01*
X172984160Y-64759840D02*
X172974000Y-64770000D01*
X137688680Y-51765560D02*
X135940440Y-51765560D01*
X135940440Y-51765560D02*
X135890000Y-51816000D01*
X153203000Y-51920500D02*
X153203000Y-53381000D01*
X153203000Y-53381000D02*
X153543000Y-53721000D01*
X181848400Y-60797440D02*
X181848400Y-61452400D01*
X181848400Y-61452400D02*
X182499000Y-62103000D01*
X115951000Y-116586000D02*
X115824000Y-116459000D01*
X115824000Y-116459000D02*
X115824000Y-116078000D01*
X115189000Y-117348000D02*
X115951000Y-116586000D01*
X113538000Y-117348000D02*
X115189000Y-117348000D01*
X115062000Y-114808000D02*
X115824000Y-115570000D01*
X115824000Y-115570000D02*
X115824000Y-116078000D01*
X114542000Y-114808000D02*
X115062000Y-114808000D01*
X113538000Y-114808000D02*
X114542000Y-114808000D01*
X113534000Y-131064000D02*
X113534000Y-132584000D01*
X113534000Y-132584000D02*
X113538000Y-132588000D01*
X113534000Y-128524000D02*
X112530000Y-128524000D01*
X112530000Y-128524000D02*
X112014000Y-129040000D01*
X112014000Y-129040000D02*
X112014000Y-130810000D01*
X112014000Y-130810000D02*
X112268000Y-131064000D01*
X112268000Y-131064000D02*
X113534000Y-131064000D01*
D43*
X52146200Y-134835900D02*
X52146200Y-137855960D01*
X52146200Y-137855960D02*
X52466240Y-138176000D01*
D46*
X54234480Y-53911500D02*
X52146200Y-53911500D01*
X55778400Y-53086000D02*
X55059980Y-53086000D01*
X55059980Y-53086000D02*
X54234480Y-53911500D01*
D47*
X52044600Y-138176000D02*
X51440080Y-138176000D01*
X53441600Y-138176000D02*
X52044600Y-138176000D01*
D43*
X53022500Y-138176000D02*
X52466240Y-138176000D01*
X53467000Y-138176000D02*
X53022500Y-138176000D01*
X52466240Y-138176000D02*
X51465480Y-138176000D01*
D48*
X67564000Y-60706000D02*
X65151000Y-60706000D01*
X65151000Y-60706000D02*
X63500000Y-59055000D01*
X63500000Y-59055000D02*
X63500000Y-53390800D01*
X63500000Y-53390800D02*
X59436000Y-49326800D01*
D42*
X66118000Y-60833000D02*
X66381160Y-60833000D01*
X66381160Y-60833000D02*
X67818000Y-60833000D01*
D45*
X55626000Y-48090000D02*
X55626000Y-47940000D01*
X55626000Y-47940000D02*
X59370000Y-44196000D01*
X59370000Y-44196000D02*
X59436000Y-44196000D01*
D43*
X58559700Y-132676900D02*
X57124600Y-134112000D01*
X63868300Y-132676900D02*
X58559700Y-132676900D01*
X65151000Y-135255000D02*
X65151000Y-133959600D01*
X65151000Y-133959600D02*
X63868300Y-132676900D01*
D44*
X65151000Y-135255000D02*
X65151000Y-135973420D01*
X65465960Y-136288380D02*
X65465960Y-138176000D01*
X65151000Y-135973420D02*
X65465960Y-136288380D01*
X55499000Y-48217000D02*
X55626000Y-48090000D01*
X55499000Y-62103000D02*
X55499000Y-60409000D01*
X55499000Y-60409000D02*
X55626000Y-60282000D01*
X55626000Y-48090000D02*
X55626000Y-48240000D01*
D42*
X58465720Y-138176000D02*
X58465720Y-135742680D01*
X58465720Y-135742680D02*
X59486800Y-134721600D01*
X58465720Y-136164320D02*
X58465720Y-138176000D01*
D43*
X59436000Y-61518800D02*
X65735200Y-67818000D01*
X65735200Y-67818000D02*
X68072000Y-67818000D01*
D44*
X174561500Y-56578500D02*
X174960280Y-56179720D01*
X174960280Y-56179720D02*
X174960280Y-53502560D01*
X172920900Y-56578500D02*
X174561500Y-56578500D01*
X172212000Y-57237400D02*
X172262000Y-57237400D01*
X172262000Y-57237400D02*
X172920900Y-56578500D01*
X174960280Y-53502560D02*
X174960280Y-50525680D01*
X174960280Y-50525680D02*
X174762160Y-50327560D01*
X183184800Y-35636200D02*
X181820399Y-34271799D01*
X181820399Y-34271799D02*
X179636801Y-34271799D01*
X179636801Y-34271799D02*
X178856600Y-35052000D01*
X178856600Y-35052000D02*
X178706600Y-35052000D01*
X171490640Y-90799920D02*
X171490640Y-93000600D01*
X171490640Y-93000600D02*
X171434760Y-93056480D01*
X174384040Y-89943320D02*
X171843240Y-89943320D01*
X171843240Y-89943320D02*
X171490640Y-90295920D01*
X171490640Y-90295920D02*
X171490640Y-90799920D01*
X179679600Y-60833000D02*
X179679600Y-60129000D01*
X179679600Y-60129000D02*
X179991600Y-59817000D01*
X179991600Y-59817000D02*
X183832500Y-59817000D01*
X183832500Y-59817000D02*
X184048400Y-60032900D01*
X184048400Y-60032900D02*
X184048400Y-60797440D01*
X171640500Y-128141500D02*
X173786840Y-128141500D01*
X173786840Y-128141500D02*
X174206500Y-127721840D01*
X174206500Y-127721840D02*
X174206500Y-126867840D01*
X171438000Y-125793500D02*
X171438000Y-127939000D01*
X171438000Y-127939000D02*
X171640500Y-128141500D01*
X178689000Y-97472500D02*
X178689000Y-98176500D01*
X178689000Y-98176500D02*
X179128000Y-98615500D01*
X179128000Y-98615500D02*
X183096500Y-98615500D01*
X178689000Y-97590000D02*
X178689000Y-97790000D01*
X183096500Y-98615500D02*
X183535500Y-98176500D01*
X183535500Y-98176500D02*
X183535500Y-97472500D01*
X149825680Y-46101000D02*
X154712500Y-46101000D01*
X154712500Y-46101000D02*
X155153000Y-46541500D01*
X155153000Y-46541500D02*
X155153000Y-47520500D01*
X149047200Y-49433480D02*
X149047200Y-46879480D01*
X149047200Y-46879480D02*
X149825680Y-46101000D01*
X142197000Y-36322000D02*
X142197000Y-38590400D01*
X142197000Y-38590400D02*
X145262600Y-41656000D01*
X160519000Y-53536500D02*
X160519000Y-54849340D01*
X160519000Y-54849340D02*
X158081180Y-57287160D01*
X158081180Y-57287160D02*
X158031180Y-57287160D01*
X160519000Y-53536500D02*
X160519000Y-50948300D01*
X160519000Y-50948300D02*
X160370700Y-50800000D01*
X168542013Y-35416858D02*
X168034014Y-34908859D01*
X168034014Y-34908859D02*
X168034014Y-34505052D01*
X168034014Y-34505052D02*
X167800761Y-34271799D01*
X167800761Y-34271799D02*
X165666801Y-34271799D01*
X165666801Y-34271799D02*
X164886600Y-35052000D01*
X164886600Y-35052000D02*
X164736600Y-35052000D01*
X54864000Y-44450000D02*
X54864000Y-45128000D01*
X54864000Y-45128000D02*
X55626000Y-45890000D01*
X54864000Y-56388000D02*
X54864000Y-57320000D01*
X54864000Y-57320000D02*
X55626000Y-58082000D01*
X178179600Y-61657100D02*
X178752500Y-62230000D01*
X178752500Y-62230000D02*
X181165500Y-62230000D01*
X178179600Y-61404500D02*
X178179600Y-61537000D01*
X178179600Y-60833000D02*
X178179600Y-61404500D01*
X178179600Y-61404500D02*
X178179600Y-61657100D01*
X181691280Y-64759840D02*
X181691280Y-70561200D01*
X181691280Y-70561200D02*
X182438040Y-71307960D01*
X181673500Y-62738000D02*
X181673500Y-64742060D01*
X181673500Y-64742060D02*
X181691280Y-64759840D01*
X181165500Y-62230000D02*
X181673500Y-62738000D01*
X177189000Y-97472500D02*
X177189000Y-98176500D01*
X179088501Y-100076001D02*
X179199501Y-100076001D01*
X177189000Y-98176500D02*
X179088501Y-100076001D01*
X179199501Y-100076001D02*
X180327301Y-100076001D01*
X180327301Y-100076001D02*
X182105300Y-101854000D01*
X179846501Y-100076001D02*
X180327301Y-100076001D01*
X115189000Y-125984000D02*
X113534000Y-125984000D01*
X112141000Y-125730000D02*
X112395000Y-125984000D01*
X112395000Y-125984000D02*
X113534000Y-125984000D01*
X112141000Y-123833000D02*
X112141000Y-125730000D01*
X113534000Y-123444000D02*
X112530000Y-123444000D01*
X112530000Y-123444000D02*
X112141000Y-123833000D01*
X118364000Y-53086000D02*
X84353400Y-53086000D01*
X83693000Y-83439000D02*
X88392000Y-88138000D01*
X84353400Y-53086000D02*
X83693000Y-53746400D01*
X83693000Y-53746400D02*
X83693000Y-83439000D01*
X88392000Y-88138000D02*
X86955160Y-88138000D01*
X86955160Y-88138000D02*
X81113160Y-93980000D01*
X81113160Y-93980000D02*
X61146081Y-93980000D01*
X61146081Y-93980000D02*
X59944000Y-93980000D01*
X150317200Y-49433480D02*
X151790020Y-49433480D01*
X151790020Y-49433480D02*
X153203000Y-48020500D01*
X153203000Y-48020500D02*
X153203000Y-47520500D01*
X137688680Y-47365560D02*
X137688680Y-48344560D01*
X137688680Y-48344560D02*
X136630240Y-49403000D01*
X136630240Y-49403000D02*
X134512000Y-49403000D01*
X134512000Y-49403000D02*
X133858000Y-49403000D01*
X120523000Y-113157000D02*
X120523000Y-120523000D01*
X118364000Y-110998000D02*
X120523000Y-113157000D01*
X113988000Y-110998000D02*
X118364000Y-110998000D01*
X113538000Y-110998000D02*
X113988000Y-110998000D01*
X115697000Y-124714000D02*
X115824000Y-124714000D01*
X113534000Y-124714000D02*
X115697000Y-124714000D01*
X115697000Y-124714000D02*
X116078000Y-124714000D01*
X172562160Y-50327560D02*
X172562160Y-51689000D01*
X172562160Y-51689000D02*
X172562160Y-52786280D01*
X173736000Y-51689000D02*
X173017580Y-51689000D01*
X173017580Y-51689000D02*
X172562160Y-51689000D01*
X172562160Y-52786280D02*
X172257720Y-53090720D01*
X119634000Y-114935000D02*
X118237000Y-113538000D01*
X118237000Y-113538000D02*
X113538000Y-113538000D01*
X119634000Y-127254000D02*
X119634000Y-114935000D01*
X113534000Y-127254000D02*
X117856000Y-127254000D01*
X171490640Y-89299920D02*
X169357040Y-89299920D01*
X169357040Y-89299920D02*
X169346880Y-89289760D01*
X171513500Y-88201500D02*
X171513500Y-89277060D01*
X171513500Y-89277060D02*
X171490640Y-89299920D01*
X169672000Y-128282000D02*
X169672000Y-127698500D01*
X169672000Y-127698500D02*
X168910000Y-126936500D01*
X118745000Y-129794000D02*
X118745000Y-121666000D01*
X111760000Y-119888000D02*
X111760000Y-116840000D01*
X118745000Y-121666000D02*
X117729000Y-120650000D01*
X117729000Y-120650000D02*
X112522000Y-120650000D01*
X112522000Y-120650000D02*
X111760000Y-119888000D01*
X111760000Y-116840000D02*
X112522000Y-116078000D01*
X112522000Y-116078000D02*
X113538000Y-116078000D01*
X113534000Y-129794000D02*
X113984000Y-129794000D01*
X113984000Y-129794000D02*
X118745000Y-129794000D01*
X113534000Y-129794000D02*
X114538000Y-129794000D01*
X168910000Y-126936500D02*
X168910000Y-126821500D01*
X168910000Y-126821500D02*
X169938000Y-125793500D01*
X86327092Y-125603000D02*
X87228500Y-125603000D01*
X83026500Y-127853000D02*
X84077092Y-127853000D01*
X84077092Y-127853000D02*
X86327092Y-125603000D01*
X89428500Y-125603000D02*
X90282500Y-125603000D01*
X109982000Y-133096000D02*
X110490000Y-132588000D01*
X90282500Y-125603000D02*
X91186000Y-126506500D01*
X91186000Y-126506500D02*
X91186000Y-132588000D01*
X91186000Y-132588000D02*
X91694000Y-133096000D01*
X91694000Y-133096000D02*
X109982000Y-133096000D01*
X110490000Y-132588000D02*
X110490000Y-127762000D01*
X110490000Y-127762000D02*
X109982000Y-127254000D01*
X109982000Y-127254000D02*
X106934000Y-127254000D01*
X111633000Y-121412000D02*
X111887000Y-121666000D01*
X112014000Y-108458000D02*
X110921799Y-109550201D01*
X111887000Y-121666000D02*
X112395000Y-122174000D01*
X110921799Y-109550201D02*
X110921799Y-120700799D01*
X110921799Y-120700799D02*
X111887000Y-121666000D01*
X113538000Y-108458000D02*
X112014000Y-108458000D01*
X113534000Y-122174000D02*
X116967000Y-122174000D01*
X113538000Y-108458000D02*
X113088000Y-108458000D01*
X112395000Y-122174000D02*
X113534000Y-122174000D01*
X157154700Y-51816000D02*
X157162500Y-51816000D01*
X157162500Y-51816000D02*
X157995620Y-52649120D01*
X157995620Y-52649120D02*
X157995620Y-53098520D01*
X156591000Y-51816000D02*
X157154700Y-51816000D01*
X157154700Y-51816000D02*
X158170700Y-50800000D01*
X68648500Y-112649000D02*
X68648500Y-113433000D01*
X68648500Y-113433000D02*
X67486500Y-114595000D01*
X67486500Y-114595000D02*
X65664500Y-114595000D01*
X65664500Y-114595000D02*
X64960500Y-114595000D01*
X64960500Y-114595000D02*
X67696500Y-114595000D01*
X67696500Y-114595000D02*
X68602500Y-115501000D01*
X68602500Y-115501000D02*
X68602500Y-116205000D01*
X71386700Y-113525300D02*
X70993000Y-113919000D01*
X70993000Y-113919000D02*
X70993000Y-114427000D01*
X71386700Y-112037838D02*
X71386700Y-113525300D01*
X69998500Y-111633000D02*
X70802500Y-111633000D01*
X70802500Y-111633000D02*
X70813862Y-111633000D01*
X71386700Y-112037838D02*
X70981862Y-111633000D01*
X70981862Y-111633000D02*
X70802500Y-111633000D01*
X75882500Y-117475000D02*
X74930000Y-117475000D01*
X76390500Y-117983000D02*
X75882500Y-117475000D01*
X76390500Y-119313000D02*
X76390500Y-117983000D01*
X77426500Y-121253000D02*
X77426500Y-120349000D01*
X77426500Y-120349000D02*
X76390500Y-119313000D01*
X69598500Y-110449000D02*
X69598500Y-111233000D01*
X72178710Y-108732790D02*
X73342500Y-107569000D01*
X69598500Y-111233000D02*
X69998500Y-111633000D01*
X70813862Y-111633000D02*
X72178710Y-110268152D01*
X72178710Y-110268152D02*
X72178710Y-108732790D01*
X73342500Y-107569000D02*
X75628500Y-107569000D01*
X75628500Y-107569000D02*
X76136500Y-107061000D01*
X76136500Y-106045000D02*
X76898500Y-105283000D01*
X76136500Y-107061000D02*
X76136500Y-106045000D01*
X76898500Y-105283000D02*
X77492500Y-105283000D01*
X70548500Y-112649000D02*
X70548500Y-113433000D01*
X70548500Y-113433000D02*
X69850000Y-114131500D01*
X69850000Y-114131500D02*
X69850000Y-115402500D01*
X69850000Y-115402500D02*
X70652500Y-116205000D01*
X70652500Y-116205000D02*
X70802500Y-116205000D01*
X70802500Y-117983000D02*
X70802500Y-116205000D01*
X78426500Y-121253000D02*
X78426500Y-120349000D01*
X78426500Y-120349000D02*
X79088300Y-119687200D01*
X79088300Y-119687200D02*
X79088300Y-118668800D01*
X70548500Y-115951000D02*
X70802500Y-116205000D01*
X70548500Y-108839000D02*
X70548500Y-110449000D01*
X77926500Y-121253000D02*
X77926500Y-117741000D01*
X77926500Y-117741000D02*
X77914500Y-117729000D01*
X70548500Y-110449000D02*
X71127500Y-110449000D01*
X71127500Y-110449000D02*
X71721500Y-109855000D01*
X71721500Y-109855000D02*
X71721500Y-108174000D01*
X71721500Y-108174000D02*
X72834500Y-107061000D01*
X72834500Y-107061000D02*
X74866500Y-107061000D01*
X74866500Y-107061000D02*
X75034500Y-106893000D01*
X75034500Y-106893000D02*
X75034500Y-105283000D01*
X74326500Y-124853000D02*
X73533000Y-124853000D01*
X73533000Y-124853000D02*
X73422500Y-124853000D01*
X72910000Y-124853000D02*
X73533000Y-124853000D01*
X72390000Y-124333000D02*
X72910000Y-124853000D01*
X72390000Y-123063000D02*
X72390000Y-124333000D01*
X71458000Y-122131000D02*
X72390000Y-123063000D01*
X70358000Y-122131000D02*
X71458000Y-122131000D01*
X79926500Y-129953000D02*
X79926500Y-131742500D01*
X86741000Y-132588000D02*
X87398500Y-131930500D01*
X79926500Y-131742500D02*
X80772000Y-132588000D01*
X80772000Y-132588000D02*
X86741000Y-132588000D01*
X87398500Y-131930500D02*
X87398500Y-130937000D01*
X87566500Y-131105000D02*
X87398500Y-130937000D01*
X111506000Y-122682000D02*
X110998000Y-122174000D01*
X110998000Y-122174000D02*
X106934000Y-122174000D01*
X111506000Y-133350000D02*
X111506000Y-122682000D01*
X110744000Y-134112000D02*
X111506000Y-133350000D01*
X90170000Y-134112000D02*
X110744000Y-134112000D01*
X89598500Y-133540500D02*
X90170000Y-134112000D01*
X89598500Y-130937000D02*
X89598500Y-133540500D01*
X108204000Y-122174000D02*
X106934000Y-122174000D01*
X87228500Y-128143000D02*
X86374500Y-128143000D01*
X86374500Y-128143000D02*
X86164500Y-128353000D01*
X86164500Y-128353000D02*
X83930500Y-128353000D01*
X83930500Y-128353000D02*
X83026500Y-128353000D01*
X110998000Y-125476000D02*
X110236000Y-124714000D01*
X110236000Y-124714000D02*
X106934000Y-124714000D01*
X110998000Y-132842000D02*
X110998000Y-125476000D01*
X110236000Y-133604000D02*
X110998000Y-132842000D01*
X91440000Y-133604000D02*
X110236000Y-133604000D01*
X90678000Y-132842000D02*
X91440000Y-133604000D01*
X90678000Y-129242500D02*
X90678000Y-132842000D01*
X89578500Y-128143000D02*
X90678000Y-129242500D01*
X89428500Y-128143000D02*
X89578500Y-128143000D01*
X83930500Y-127353000D02*
X87292000Y-123991500D01*
X87292000Y-123991500D02*
X87292000Y-123063000D01*
X83930500Y-127353000D02*
X83026500Y-127353000D01*
X89492000Y-123063000D02*
X90346000Y-123063000D01*
X90346000Y-123063000D02*
X91694000Y-124411000D01*
X91694000Y-124411000D02*
X91694000Y-132334000D01*
X91694000Y-132334000D02*
X91948000Y-132588000D01*
X109474000Y-132588000D02*
X109982000Y-132080000D01*
X91948000Y-132588000D02*
X109474000Y-132588000D01*
X109982000Y-132080000D02*
X109982000Y-130302000D01*
X109474000Y-129794000D02*
X106934000Y-129794000D01*
X109982000Y-130302000D02*
X109474000Y-129794000D01*
X101430000Y-108585000D02*
X106811000Y-108585000D01*
X106811000Y-108585000D02*
X106938000Y-108458000D01*
X101917500Y-108458000D02*
X101391900Y-108458000D01*
X101430000Y-111125000D02*
X106811000Y-111125000D01*
X106811000Y-111125000D02*
X106938000Y-110998000D01*
X101430000Y-113728500D02*
X106747500Y-113728500D01*
X106747500Y-113728500D02*
X106938000Y-113538000D01*
X101790500Y-113411000D02*
X101282500Y-113411000D01*
X101430000Y-116459000D02*
X106557000Y-116459000D01*
X106557000Y-116459000D02*
X106938000Y-116078000D01*
X101516500Y-116205000D02*
X101366500Y-116205000D01*
X78846500Y-116205000D02*
X76304500Y-116205000D01*
X139997000Y-36322000D02*
X139997000Y-37803000D01*
X139997000Y-37803000D02*
X139700000Y-38100000D01*
X137922000Y-37670000D02*
X137922000Y-37846000D01*
X135720000Y-36322000D02*
X136574000Y-36322000D01*
X136574000Y-36322000D02*
X137922000Y-37670000D01*
X133590000Y-45847000D02*
X139099120Y-45847000D01*
X139099120Y-45847000D02*
X139638680Y-46386560D01*
X139638680Y-46386560D02*
X139638680Y-47365560D01*
X132588000Y-49403000D02*
X132588000Y-46849000D01*
X132588000Y-46849000D02*
X133590000Y-45847000D01*
D43*
X127228600Y-41656000D02*
X127228600Y-49123600D01*
X127228600Y-49123600D02*
X127508000Y-49403000D01*
D44*
X133520000Y-36322000D02*
X132562600Y-36322000D01*
X132562600Y-36322000D02*
X127228600Y-41656000D01*
X148420000Y-36322000D02*
X149606000Y-36322000D01*
X149606000Y-36322000D02*
X150114000Y-36830000D01*
X99230000Y-108585000D02*
X97663000Y-108585000D01*
X99230000Y-108585000D02*
X99230000Y-111125000D01*
X99230000Y-111125000D02*
X99230000Y-111829000D01*
X99230000Y-111829000D02*
X99230000Y-113728500D01*
X99230000Y-108585000D02*
X99230000Y-116459000D01*
X99107900Y-108542000D02*
X99191900Y-108458000D01*
X99082500Y-110769400D02*
X99107900Y-110744000D01*
X99166500Y-113495000D02*
X99082500Y-113411000D01*
X176149000Y-43103800D02*
X176149000Y-37617400D01*
X176149000Y-37617400D02*
X177266600Y-36499800D01*
X176149000Y-43103800D02*
X180517800Y-47472600D01*
X184851040Y-46680120D02*
X184058560Y-47472600D01*
X184058560Y-47472600D02*
X180517800Y-47472600D01*
X162102800Y-43113960D02*
X162102800Y-36245800D01*
X166608760Y-47619920D02*
X162102800Y-43113960D01*
X61226700Y-125247400D02*
X67017900Y-125247400D01*
X67393955Y-125665230D02*
X67441034Y-125670535D01*
X67949238Y-125268351D02*
X67993955Y-125252704D01*
X72056550Y-125247400D02*
X72662150Y-125853000D01*
X67017900Y-125247400D02*
X67064978Y-125252704D01*
X67808515Y-125550763D02*
X67824162Y-125506046D01*
X67834771Y-125411888D02*
X67850418Y-125367171D01*
X67064978Y-125252704D02*
X67109695Y-125268351D01*
X67109695Y-125268351D02*
X67149809Y-125293557D01*
X67349238Y-125649583D02*
X67393955Y-125665230D01*
X67309124Y-125624377D02*
X67349238Y-125649583D01*
X67149809Y-125293557D02*
X67183309Y-125327057D01*
X67183309Y-125327057D02*
X67208515Y-125367171D01*
X67749809Y-125624377D02*
X67783309Y-125590877D01*
X67224162Y-125411888D02*
X67234771Y-125506046D01*
X67208515Y-125367171D02*
X67224162Y-125411888D01*
X67275624Y-125590877D02*
X67309124Y-125624377D01*
X67234771Y-125506046D02*
X67250418Y-125550763D01*
X67250418Y-125550763D02*
X67275624Y-125590877D01*
X67441034Y-125670535D02*
X67617900Y-125670535D01*
X67909124Y-125293557D02*
X67949238Y-125268351D01*
X67617900Y-125670535D02*
X67664978Y-125665230D01*
X67664978Y-125665230D02*
X67709695Y-125649583D01*
X67709695Y-125649583D02*
X67749809Y-125624377D01*
X67783309Y-125590877D02*
X67808515Y-125550763D01*
X73422500Y-125853000D02*
X74326500Y-125853000D01*
X67824162Y-125506046D02*
X67834771Y-125411888D01*
X67850418Y-125367171D02*
X67875624Y-125327057D01*
X67875624Y-125327057D02*
X67909124Y-125293557D01*
X67993955Y-125252704D02*
X68041034Y-125247400D01*
X68041034Y-125247400D02*
X72056550Y-125247400D01*
X72662150Y-125853000D02*
X73422500Y-125853000D01*
X58934000Y-125196600D02*
X61175900Y-125196600D01*
X61175900Y-125196600D02*
X61226700Y-125247400D01*
X66738500Y-135649970D02*
X66738500Y-133134100D01*
X66466720Y-138176000D02*
X66466720Y-135921750D01*
X66466720Y-135921750D02*
X66738500Y-135649970D01*
X74326500Y-125353000D02*
X72736900Y-125353000D01*
X71464025Y-124080125D02*
X67039267Y-124080125D01*
X72736900Y-125353000D02*
X71464025Y-124080125D01*
X67039267Y-124080125D02*
X61175392Y-124080125D01*
X58934000Y-124396600D02*
X60858917Y-124396600D01*
X60858917Y-124396600D02*
X61175392Y-124080125D01*
X67467480Y-134627620D02*
X67983100Y-134112000D01*
X67983100Y-134112000D02*
X67983100Y-133146800D01*
X67467480Y-138176000D02*
X67467480Y-134627620D01*
G36*
X184658000Y-59055000D02*
X176974500Y-59055000D01*
X176974500Y-44259500D01*
X184658000Y-44259500D01*
X184658000Y-59055000D01*
X184658000Y-59055000D01*
G37*
X184658000Y-59055000D02*
X176974500Y-59055000D01*
X176974500Y-44259500D01*
X184658000Y-44259500D01*
X184658000Y-59055000D01*
G36*
X170307000Y-59118500D02*
X162623500Y-59118500D01*
X162623500Y-44323000D01*
X170307000Y-44323000D01*
X170307000Y-59118500D01*
X170307000Y-59118500D01*
G37*
X170307000Y-59118500D02*
X162623500Y-59118500D01*
X162623500Y-44323000D01*
X170307000Y-44323000D01*
X170307000Y-59118500D01*
G36*
X181850697Y-63071423D02*
X182270646Y-63245801D01*
X182725359Y-63246198D01*
X183145612Y-63072554D01*
X183226306Y-62992000D01*
X184150000Y-62992000D01*
X184150000Y-74485500D01*
X177355500Y-74485500D01*
X177355500Y-68961000D01*
X179641500Y-68961000D01*
X179690910Y-68950994D01*
X179732535Y-68922553D01*
X179759815Y-68880159D01*
X179768500Y-68834000D01*
X179768500Y-63037288D01*
X179916915Y-63037288D01*
X180168804Y-63440310D01*
X180276500Y-63373000D01*
X180336265Y-63260941D01*
X179916915Y-63037288D01*
X179768500Y-63037288D01*
X179768500Y-62992000D01*
X181771412Y-62992000D01*
X181850697Y-63071423D01*
X181850697Y-63071423D01*
G37*
X181850697Y-63071423D02*
X182270646Y-63245801D01*
X182725359Y-63246198D01*
X183145612Y-63072554D01*
X183226306Y-62992000D01*
X184150000Y-62992000D01*
X184150000Y-74485500D01*
X177355500Y-74485500D01*
X177355500Y-68961000D01*
X179641500Y-68961000D01*
X179690910Y-68950994D01*
X179732535Y-68922553D01*
X179759815Y-68880159D01*
X179768500Y-68834000D01*
X179768500Y-63037288D01*
X179916915Y-63037288D01*
X180168804Y-63440310D01*
X180276500Y-63373000D01*
X180336265Y-63260941D01*
X179916915Y-63037288D01*
X179768500Y-63037288D01*
X179768500Y-62992000D01*
X181771412Y-62992000D01*
X181850697Y-63071423D01*
G36*
X184086500Y-110871000D02*
X177292000Y-110871000D01*
X177292000Y-105346500D01*
X179578000Y-105346500D01*
X179627410Y-105336494D01*
X179669035Y-105308053D01*
X179696315Y-105265659D01*
X179705000Y-105219500D01*
X179705000Y-99419833D01*
X179696427Y-99377500D01*
X184086500Y-99377500D01*
X184086500Y-110871000D01*
X184086500Y-110871000D01*
G37*
X184086500Y-110871000D02*
X177292000Y-110871000D01*
X177292000Y-105346500D01*
X179578000Y-105346500D01*
X179627410Y-105336494D01*
X179669035Y-105308053D01*
X179696315Y-105265659D01*
X179705000Y-105219500D01*
X179705000Y-99419833D01*
X179696427Y-99377500D01*
X184086500Y-99377500D01*
X184086500Y-110871000D01*
G36*
X184594500Y-132717958D02*
X176911000Y-132717958D01*
X176911000Y-117922458D01*
X184594500Y-117922458D01*
X184594500Y-132717958D01*
X184594500Y-132717958D01*
G37*
X184594500Y-132717958D02*
X176911000Y-132717958D01*
X176911000Y-117922458D01*
X184594500Y-117922458D01*
X184594500Y-132717958D01*
G36*
X184467500Y-95758000D02*
X176784000Y-95758000D01*
X176784000Y-81534000D01*
X184467500Y-81534000D01*
X184467500Y-95758000D01*
X184467500Y-95758000D01*
G37*
X184467500Y-95758000D02*
X176784000Y-95758000D01*
X176784000Y-81534000D01*
X184467500Y-81534000D01*
X184467500Y-95758000D01*
G36*
X152463500Y-59753500D02*
X152473506Y-59802910D01*
X152501947Y-59844535D01*
X152544341Y-59871815D01*
X152590500Y-59880500D01*
X159194500Y-59880500D01*
X159243910Y-59870494D01*
X159285535Y-59842053D01*
X159312815Y-59799659D01*
X159321500Y-59753500D01*
X159321500Y-57467500D01*
X161734500Y-57467500D01*
X161734500Y-59690000D01*
X161744506Y-59739410D01*
X161772947Y-59781035D01*
X161815341Y-59808315D01*
X161861500Y-59817000D01*
X173736000Y-59817000D01*
X173785410Y-59806994D01*
X173827035Y-59778553D01*
X173854315Y-59736159D01*
X173863000Y-59690000D01*
X173863000Y-57340500D01*
X176149000Y-57340500D01*
X176149000Y-61849000D01*
X172085000Y-61849000D01*
X172035590Y-61859006D01*
X171993965Y-61887447D01*
X171966685Y-61929841D01*
X171958000Y-61976000D01*
X171958000Y-86868000D01*
X168211500Y-86868000D01*
X168162090Y-86878006D01*
X168120465Y-86906447D01*
X168093185Y-86948841D01*
X168084500Y-86995000D01*
X168084500Y-95250000D01*
X168094506Y-95299410D01*
X168122947Y-95341035D01*
X168165341Y-95368315D01*
X168211500Y-95377000D01*
X172910500Y-95377000D01*
X172959910Y-95366994D01*
X173001535Y-95338553D01*
X173028815Y-95296159D01*
X173037390Y-95255287D01*
X173095819Y-93853000D01*
X175387000Y-93853000D01*
X175387000Y-98302031D01*
X173541405Y-98361566D01*
X173492344Y-98373160D01*
X173451658Y-98402928D01*
X173425759Y-98446180D01*
X173418500Y-98488500D01*
X173418500Y-124270951D01*
X168019540Y-124333008D01*
X167970248Y-124343581D01*
X167928954Y-124372499D01*
X167902163Y-124415204D01*
X167894000Y-124460000D01*
X167894000Y-130492500D01*
X167904006Y-130541910D01*
X167932447Y-130583535D01*
X167974841Y-130610815D01*
X168021000Y-130619500D01*
X175517215Y-130619500D01*
X175574202Y-132842000D01*
X165862441Y-132842000D01*
X156655376Y-132778503D01*
X156653648Y-132778503D01*
X147192727Y-132841999D01*
X125476371Y-132778501D01*
X125474451Y-132778509D01*
X124561135Y-132789647D01*
X124434599Y-97865740D01*
X124424414Y-97816366D01*
X124395823Y-97774845D01*
X124353330Y-97747719D01*
X124307696Y-97739200D01*
X90678800Y-97713896D01*
X90804993Y-85599323D01*
X90805000Y-85598000D01*
X90805000Y-77724000D01*
X90794994Y-77674590D01*
X90766553Y-77632965D01*
X90724159Y-77605685D01*
X90678000Y-77597000D01*
X86360000Y-77597000D01*
X86360000Y-70485259D01*
X86385142Y-58140600D01*
X122135900Y-58140600D01*
X122185310Y-58130594D01*
X122226935Y-58102153D01*
X122254215Y-58059759D01*
X122262899Y-58013963D01*
X122275238Y-53695442D01*
X152463500Y-53657659D01*
X152463500Y-59753500D01*
X152463500Y-59753500D01*
G37*
X152463500Y-59753500D02*
X152473506Y-59802910D01*
X152501947Y-59844535D01*
X152544341Y-59871815D01*
X152590500Y-59880500D01*
X159194500Y-59880500D01*
X159243910Y-59870494D01*
X159285535Y-59842053D01*
X159312815Y-59799659D01*
X159321500Y-59753500D01*
X159321500Y-57467500D01*
X161734500Y-57467500D01*
X161734500Y-59690000D01*
X161744506Y-59739410D01*
X161772947Y-59781035D01*
X161815341Y-59808315D01*
X161861500Y-59817000D01*
X173736000Y-59817000D01*
X173785410Y-59806994D01*
X173827035Y-59778553D01*
X173854315Y-59736159D01*
X173863000Y-59690000D01*
X173863000Y-57340500D01*
X176149000Y-57340500D01*
X176149000Y-61849000D01*
X172085000Y-61849000D01*
X172035590Y-61859006D01*
X171993965Y-61887447D01*
X171966685Y-61929841D01*
X171958000Y-61976000D01*
X171958000Y-86868000D01*
X168211500Y-86868000D01*
X168162090Y-86878006D01*
X168120465Y-86906447D01*
X168093185Y-86948841D01*
X168084500Y-86995000D01*
X168084500Y-95250000D01*
X168094506Y-95299410D01*
X168122947Y-95341035D01*
X168165341Y-95368315D01*
X168211500Y-95377000D01*
X172910500Y-95377000D01*
X172959910Y-95366994D01*
X173001535Y-95338553D01*
X173028815Y-95296159D01*
X173037390Y-95255287D01*
X173095819Y-93853000D01*
X175387000Y-93853000D01*
X175387000Y-98302031D01*
X173541405Y-98361566D01*
X173492344Y-98373160D01*
X173451658Y-98402928D01*
X173425759Y-98446180D01*
X173418500Y-98488500D01*
X173418500Y-124270951D01*
X168019540Y-124333008D01*
X167970248Y-124343581D01*
X167928954Y-124372499D01*
X167902163Y-124415204D01*
X167894000Y-124460000D01*
X167894000Y-130492500D01*
X167904006Y-130541910D01*
X167932447Y-130583535D01*
X167974841Y-130610815D01*
X168021000Y-130619500D01*
X175517215Y-130619500D01*
X175574202Y-132842000D01*
X165862441Y-132842000D01*
X156655376Y-132778503D01*
X156653648Y-132778503D01*
X147192727Y-132841999D01*
X125476371Y-132778501D01*
X125474451Y-132778509D01*
X124561135Y-132789647D01*
X124434599Y-97865740D01*
X124424414Y-97816366D01*
X124395823Y-97774845D01*
X124353330Y-97747719D01*
X124307696Y-97739200D01*
X90678800Y-97713896D01*
X90804993Y-85599323D01*
X90805000Y-85598000D01*
X90805000Y-77724000D01*
X90794994Y-77674590D01*
X90766553Y-77632965D01*
X90724159Y-77605685D01*
X90678000Y-77597000D01*
X86360000Y-77597000D01*
X86360000Y-70485259D01*
X86385142Y-58140600D01*
X122135900Y-58140600D01*
X122185310Y-58130594D01*
X122226935Y-58102153D01*
X122254215Y-58059759D01*
X122262899Y-58013963D01*
X122275238Y-53695442D01*
X152463500Y-53657659D01*
X152463500Y-59753500D01*
G36*
X130683000Y-40320567D02*
X130455085Y-40869447D01*
X130453718Y-42435682D01*
X130683000Y-42990587D01*
X130683000Y-45720000D01*
X130693006Y-45769410D01*
X130721447Y-45811035D01*
X130763841Y-45838315D01*
X130810000Y-45847000D01*
X133093434Y-45847000D01*
X133078522Y-46592603D01*
X133006559Y-46638910D01*
X132861569Y-46851110D01*
X132810560Y-47103000D01*
X132810560Y-51703000D01*
X132854838Y-51938317D01*
X132857851Y-51943000D01*
X123317000Y-51943000D01*
X123317000Y-38227000D01*
X130683000Y-38227000D01*
X130683000Y-40320567D01*
X130683000Y-40320567D01*
G37*
X130683000Y-40320567D02*
X130455085Y-40869447D01*
X130453718Y-42435682D01*
X130683000Y-42990587D01*
X130683000Y-45720000D01*
X130693006Y-45769410D01*
X130721447Y-45811035D01*
X130763841Y-45838315D01*
X130810000Y-45847000D01*
X133093434Y-45847000D01*
X133078522Y-46592603D01*
X133006559Y-46638910D01*
X132861569Y-46851110D01*
X132810560Y-47103000D01*
X132810560Y-51703000D01*
X132854838Y-51938317D01*
X132857851Y-51943000D01*
X123317000Y-51943000D01*
X123317000Y-38227000D01*
X130683000Y-38227000D01*
X130683000Y-40320567D01*
G36*
X148717000Y-40320567D02*
X148489085Y-40869447D01*
X148487718Y-42435682D01*
X148717000Y-42990587D01*
X148717000Y-45720000D01*
X148727006Y-45769410D01*
X148755447Y-45811035D01*
X148797841Y-45838315D01*
X148844000Y-45847000D01*
X149479000Y-45847000D01*
X149479000Y-46660870D01*
X149465759Y-46669390D01*
X149320769Y-46881590D01*
X149269760Y-47133480D01*
X149269760Y-51733480D01*
X149314038Y-51968797D01*
X149376771Y-52066287D01*
X141859000Y-51945032D01*
X141859000Y-38227000D01*
X148717000Y-38227000D01*
X148717000Y-40320567D01*
X148717000Y-40320567D01*
G37*
X148717000Y-40320567D02*
X148489085Y-40869447D01*
X148487718Y-42435682D01*
X148717000Y-42990587D01*
X148717000Y-45720000D01*
X148727006Y-45769410D01*
X148755447Y-45811035D01*
X148797841Y-45838315D01*
X148844000Y-45847000D01*
X149479000Y-45847000D01*
X149479000Y-46660870D01*
X149465759Y-46669390D01*
X149320769Y-46881590D01*
X149269760Y-47133480D01*
X149269760Y-51733480D01*
X149314038Y-51968797D01*
X149376771Y-52066287D01*
X141859000Y-51945032D01*
X141859000Y-38227000D01*
X148717000Y-38227000D01*
X148717000Y-40320567D01*
M02*
