G04 #@! TF.FileFunction,Copper,L2,Bot,Signal*
%FSLAX46Y46*%
G04 Gerber Fmt 4.6, Leading zero omitted, Abs format (unit mm)*
G04 Created by KiCad (PCBNEW 4.0.6) date 06/24/17 11:55:09*
%MOMM*%
%LPD*%
G01*
G04 APERTURE LIST*
%ADD10C,0.100000*%
%ADD11C,3.048000*%
%ADD12R,2.286000X1.778000*%
%ADD13R,1.727200X1.727200*%
%ADD14O,1.727200X1.727200*%
%ADD15C,6.604000*%
%ADD16C,1.219200*%
%ADD17C,0.254000*%
%ADD18C,0.406400*%
G04 APERTURE END LIST*
D10*
D11*
X5842000Y-50546000D03*
X50292000Y-22606000D03*
D12*
X55372000Y-21590000D03*
X55372000Y-19050000D03*
X55372000Y-16510000D03*
D13*
X52324000Y-8636000D03*
D14*
X52324000Y-6096000D03*
X54864000Y-8636000D03*
X54864000Y-6096000D03*
X57404000Y-8636000D03*
X57404000Y-6096000D03*
X59944000Y-8636000D03*
X59944000Y-6096000D03*
D15*
X39395400Y-5842000D03*
X32232600Y-5842000D03*
D12*
X55372000Y-38608000D03*
X55372000Y-36068000D03*
X55372000Y-33528000D03*
X55626000Y-49276000D03*
X55626000Y-46736000D03*
X55626000Y-44196000D03*
D11*
X3048000Y-2794000D03*
D16*
X19844875Y-31268218D03*
X24130000Y-32334190D03*
X19812000Y-28194000D03*
X24130000Y-28448000D03*
X29718000Y-38354000D03*
X21082000Y-39624000D03*
X25654000Y-40132000D03*
X25146000Y-25654000D03*
X22860000Y-26670000D03*
X57658000Y-30480000D03*
X57658000Y-28194000D03*
X22606000Y-5842000D03*
X22606000Y-8834198D03*
X28117810Y-44485560D03*
X20320000Y-42418000D03*
X18796000Y-50292000D03*
X17018000Y-38100000D03*
X14986000Y-38100000D03*
X21977021Y-45389810D03*
X23876000Y-15748000D03*
X23368000Y-21844000D03*
X3302000Y-53594000D03*
X5080000Y-42366000D03*
X5074919Y-31031181D03*
X39878000Y-54610000D03*
X28448000Y-53594000D03*
X22352000Y-53594000D03*
X59182000Y-25146000D03*
X51054000Y-38354000D03*
X51054000Y-29464000D03*
X51054000Y-52070000D03*
X51054000Y-43434000D03*
X50546000Y-17018000D03*
X37084000Y-17780000D03*
X29972000Y-17018000D03*
X40894000Y-15494000D03*
X32766000Y-15494000D03*
X27686000Y-15494000D03*
X18509643Y-26804011D03*
X18034000Y-17526000D03*
X16002000Y-21336000D03*
X17018000Y-12700000D03*
X24892000Y-13208000D03*
X19854940Y-26341807D03*
X15748000Y-10922000D03*
X45974000Y-24638000D03*
X19833247Y-33041247D03*
X27794249Y-24536557D03*
X21844000Y-32359587D03*
X30226000Y-24638000D03*
X21844000Y-33782000D03*
X32990452Y-33483549D03*
X32773094Y-35363160D03*
X32766000Y-24638000D03*
X21208543Y-35121300D03*
X38354000Y-24638000D03*
X23557889Y-34672999D03*
X25182897Y-36954832D03*
X40894000Y-24638000D03*
X26416000Y-36245810D03*
X40640000Y-34798000D03*
X25062477Y-45747208D03*
X63246000Y-29718000D03*
X23368000Y-46482000D03*
X63500000Y-27432000D03*
X16374480Y-31049453D03*
X13370584Y-39458395D03*
X18059943Y-30026304D03*
X16540483Y-33401021D03*
X17224097Y-10993391D03*
X16256000Y-4064000D03*
X62484000Y-25908000D03*
X18530297Y-33839509D03*
X17650723Y-35005912D03*
X23622000Y-43434000D03*
X14478000Y-35560000D03*
X26162000Y-43942000D03*
X31667721Y-44559592D03*
X31242000Y-27178000D03*
X30226000Y-33274000D03*
X26769258Y-25522787D03*
X21261358Y-26679246D03*
X31496000Y-25654000D03*
X31496000Y-32004000D03*
X32004000Y-39624000D03*
X34290000Y-39624000D03*
D17*
X19812000Y-31235343D02*
X19844875Y-31268218D01*
X19812000Y-28194000D02*
X19812000Y-31235343D01*
X20706979Y-31268218D02*
X19844875Y-31268218D01*
X23064028Y-31268218D02*
X20706979Y-31268218D01*
X24130000Y-32334190D02*
X23064028Y-31268218D01*
X24130000Y-28448000D02*
X24130000Y-32334190D01*
D18*
X27940000Y-40132000D02*
X29718000Y-38354000D01*
X25654000Y-40132000D02*
X27940000Y-40132000D01*
X21590000Y-40132000D02*
X21082000Y-39624000D01*
X25654000Y-40132000D02*
X21590000Y-40132000D01*
D17*
X22860000Y-26670000D02*
X23876000Y-25654000D01*
X23876000Y-25654000D02*
X25146000Y-25654000D01*
D18*
X57658000Y-28194000D02*
X57658000Y-30480000D01*
D17*
X22606000Y-8834198D02*
X22606000Y-5842000D01*
X25924253Y-45095159D02*
X27508211Y-45095159D01*
X24090782Y-45389810D02*
X24827381Y-44653211D01*
X25482305Y-44653211D02*
X25924253Y-45095159D01*
X24827381Y-44653211D02*
X25482305Y-44653211D01*
X21977021Y-45389810D02*
X24090782Y-45389810D01*
X27508211Y-45095159D02*
X28117810Y-44485560D01*
X21891739Y-45475092D02*
X21977021Y-45389810D01*
X17018000Y-38100000D02*
X17018000Y-39116000D01*
X17018000Y-39116000D02*
X20320000Y-42418000D01*
X21977021Y-45389810D02*
X21977021Y-47110979D01*
X21977021Y-47110979D02*
X18796000Y-50292000D01*
X14986000Y-38100000D02*
X16764000Y-38100000D01*
X16764000Y-38354000D02*
X17018000Y-38100000D01*
X23368000Y-21844000D02*
X23368000Y-16256000D01*
X23368000Y-16256000D02*
X23876000Y-15748000D01*
D18*
X28448000Y-53594000D02*
X38862000Y-53594000D01*
X38862000Y-53594000D02*
X39878000Y-54610000D01*
X22352000Y-53594000D02*
X28448000Y-53594000D01*
X59182000Y-25146000D02*
X59791599Y-24536401D01*
X59791599Y-24536401D02*
X63398401Y-24536401D01*
X63398401Y-24536401D02*
X65278000Y-26416000D01*
X65278000Y-30226000D02*
X60452000Y-35052000D01*
X60452000Y-52070000D02*
X57912000Y-54610000D01*
X65278000Y-26416000D02*
X65278000Y-30226000D01*
X60452000Y-35052000D02*
X60452000Y-52070000D01*
X57912000Y-54610000D02*
X39878000Y-54610000D01*
X21489896Y-53594000D02*
X3302000Y-53594000D01*
X22352000Y-53594000D02*
X21489896Y-53594000D01*
X5080000Y-34036000D02*
X5080000Y-42366000D01*
X4465320Y-33421320D02*
X5080000Y-34036000D01*
X5074919Y-31031181D02*
X4465320Y-31640780D01*
X4465320Y-31640780D02*
X4465320Y-33421320D01*
X51054000Y-29464000D02*
X51054000Y-33528000D01*
X51054000Y-33528000D02*
X51054000Y-38354000D01*
X55372000Y-33528000D02*
X53822600Y-33528000D01*
X53822600Y-33528000D02*
X51054000Y-33528000D01*
X55626000Y-44196000D02*
X51816000Y-44196000D01*
X51816000Y-44196000D02*
X51054000Y-43434000D01*
X51054000Y-43434000D02*
X51054000Y-52070000D01*
X50546000Y-17018000D02*
X56642000Y-10922000D01*
X56642000Y-10922000D02*
X57658000Y-10922000D01*
X57658000Y-10922000D02*
X59944000Y-8636000D01*
X38863486Y-18338833D02*
X37642833Y-18338833D01*
X37642833Y-18338833D02*
X37084000Y-17780000D01*
X57404000Y-8636000D02*
X49784000Y-16256000D01*
X42393207Y-18338833D02*
X38863486Y-18338833D01*
X44476040Y-16256000D02*
X42393207Y-18338833D01*
X49784000Y-16256000D02*
X44476040Y-16256000D01*
X48260000Y-15240000D02*
X54000401Y-9499599D01*
X44629924Y-15240000D02*
X48260000Y-15240000D01*
X42140699Y-17729223D02*
X44629924Y-15240000D01*
X39727103Y-17729223D02*
X42140699Y-17729223D01*
X37999880Y-16002000D02*
X39727103Y-17729223D01*
X36068000Y-16002000D02*
X37999880Y-16002000D01*
X34442401Y-17627599D02*
X36068000Y-16002000D01*
X30581599Y-17627599D02*
X34442401Y-17627599D01*
X29972000Y-17018000D02*
X30581599Y-17627599D01*
X54000401Y-9499599D02*
X54864000Y-8636000D01*
X40894000Y-15494000D02*
X44450000Y-11938000D01*
X44450000Y-11938000D02*
X46482000Y-11938000D01*
X56085314Y-3556000D02*
X57404000Y-4874686D01*
X46482000Y-11938000D02*
X47244000Y-11176000D01*
X47244000Y-11176000D02*
X47244000Y-6096000D01*
X47244000Y-6096000D02*
X49784000Y-3556000D01*
X57404000Y-4874686D02*
X57404000Y-6096000D01*
X49784000Y-3556000D02*
X56085314Y-3556000D01*
X54864000Y-6096000D02*
X53086000Y-4318000D01*
X46482000Y-12954000D02*
X45191684Y-12954000D01*
X53086000Y-4318000D02*
X50292000Y-4318000D01*
X48006000Y-11430000D02*
X46482000Y-12954000D01*
X33782000Y-14478000D02*
X32766000Y-15494000D01*
X50292000Y-4318000D02*
X48006000Y-6604000D01*
X48006000Y-6604000D02*
X48006000Y-11430000D01*
X45191684Y-12954000D02*
X41635682Y-16510002D01*
X41635682Y-16510002D02*
X40386002Y-16510002D01*
X40386002Y-16510002D02*
X38354000Y-14478000D01*
X38354000Y-14478000D02*
X33782000Y-14478000D01*
X31242000Y-16764000D02*
X29972000Y-15494000D01*
X29972000Y-15494000D02*
X27686000Y-15494000D01*
X31750000Y-16764000D02*
X31242000Y-16764000D01*
X34290000Y-16764000D02*
X31750000Y-16764000D01*
X34798000Y-16256000D02*
X34290000Y-16764000D01*
X35814000Y-15240000D02*
X34798000Y-16256000D01*
X38100000Y-15240000D02*
X35814000Y-15240000D01*
X39979612Y-17119612D02*
X38100000Y-15240000D01*
X40153808Y-17119612D02*
X39979612Y-17119612D01*
X46990000Y-13716000D02*
X45291804Y-13716000D01*
X41888191Y-17119613D02*
X40153808Y-17119612D01*
X48768000Y-9652000D02*
X48768000Y-11938000D01*
X48768000Y-11938000D02*
X46990000Y-13716000D01*
X52324000Y-6096000D02*
X48768000Y-9652000D01*
X45291804Y-13716000D02*
X41888191Y-17119613D01*
D17*
X18034000Y-26328368D02*
X18509643Y-26804011D01*
X18034000Y-17526000D02*
X18034000Y-26328368D01*
X16002000Y-21336000D02*
X16002000Y-13716000D01*
X16002000Y-13716000D02*
X17018000Y-12700000D01*
X16764000Y-12954000D02*
X17018000Y-12700000D01*
X24892000Y-13208000D02*
X17526000Y-13208000D01*
X17526000Y-13208000D02*
X17018000Y-12700000D01*
X15748000Y-10922000D02*
X14732000Y-11938000D01*
X14732000Y-11938000D02*
X14732000Y-24717684D01*
X17758129Y-27743813D02*
X18915538Y-27743813D01*
X14732000Y-24717684D02*
X17758129Y-27743813D01*
X18915538Y-27743813D02*
X19854940Y-26804411D01*
X19854940Y-26804411D02*
X19854940Y-26341807D01*
X27934499Y-38100000D02*
X29077512Y-36956987D01*
X19833247Y-33903351D02*
X19812000Y-33924598D01*
X19812000Y-35560000D02*
X22352000Y-38100000D01*
X22352000Y-38100000D02*
X27934499Y-38100000D01*
X45974000Y-25500104D02*
X45974000Y-24638000D01*
X45974000Y-37084000D02*
X45974000Y-25500104D01*
X31501501Y-38100000D02*
X44958000Y-38100000D01*
X30358488Y-36956987D02*
X31501501Y-38100000D01*
X19812000Y-33924598D02*
X19812000Y-35560000D01*
X44958000Y-38100000D02*
X45974000Y-37084000D01*
X29077512Y-36956987D02*
X30358488Y-36956987D01*
X19833247Y-33041247D02*
X19833247Y-33903351D01*
X21844000Y-32359587D02*
X22758413Y-33274000D01*
X22758413Y-33274000D02*
X25769408Y-33274000D01*
X25769408Y-33274000D02*
X27794249Y-31249159D01*
X27794249Y-31249159D02*
X27794249Y-25398661D01*
X27794249Y-25398661D02*
X27794249Y-24536557D01*
X25956811Y-33733189D02*
X30226000Y-29464000D01*
X30226000Y-29464000D02*
X30226000Y-24638000D01*
X23099970Y-33733189D02*
X25956811Y-33733189D01*
X21844000Y-33782000D02*
X23051159Y-33782000D01*
X23051159Y-33782000D02*
X23099970Y-33733189D01*
X21818142Y-35730899D02*
X24975101Y-35730899D01*
X31910990Y-35363160D02*
X32773094Y-35363160D01*
X31853830Y-35306000D02*
X31910990Y-35363160D01*
X25400000Y-35306000D02*
X31853830Y-35306000D01*
X21208543Y-35121300D02*
X21818142Y-35730899D01*
X32766000Y-24638000D02*
X32766000Y-33259097D01*
X32766000Y-33259097D02*
X32990452Y-33483549D01*
X24975101Y-35730899D02*
X25400000Y-35306000D01*
X23557889Y-34672999D02*
X24419993Y-34672999D01*
X24726794Y-34366198D02*
X32482195Y-34366198D01*
X32482195Y-34366198D02*
X32539347Y-34423350D01*
X38354000Y-34036000D02*
X38354000Y-25500104D01*
X37717001Y-34672999D02*
X38354000Y-34036000D01*
X33523907Y-34672999D02*
X37717001Y-34672999D01*
X24419993Y-34672999D02*
X24726794Y-34366198D01*
X32539347Y-34423350D02*
X33274258Y-34423350D01*
X38354000Y-25500104D02*
X38354000Y-24638000D01*
X33274258Y-34423350D02*
X33523907Y-34672999D01*
X41579802Y-25323802D02*
X41579802Y-35249106D01*
X25792496Y-37564431D02*
X25182897Y-36954832D01*
X27823475Y-37564431D02*
X25792496Y-37564431D01*
X28888130Y-36499776D02*
X27823475Y-37564431D01*
X30547870Y-36499776D02*
X28888130Y-36499776D01*
X41579802Y-35249106D02*
X39998908Y-36830000D01*
X40894000Y-24638000D02*
X41579802Y-25323802D01*
X30878093Y-36830000D02*
X30547870Y-36499776D01*
X39998908Y-36830000D02*
X30878093Y-36830000D01*
X27278104Y-36245810D02*
X26416000Y-36245810D01*
X27481349Y-36042565D02*
X27278104Y-36245810D01*
X30737252Y-36042565D02*
X27481349Y-36042565D01*
X30997648Y-36302961D02*
X30737252Y-36042565D01*
X39135039Y-36302961D02*
X30997648Y-36302961D01*
X40640000Y-34798000D02*
X39135039Y-36302961D01*
X34770792Y-45747208D02*
X25924581Y-45747208D01*
X25924581Y-45747208D02*
X25062477Y-45747208D01*
X59182000Y-33782000D02*
X59182000Y-39116000D01*
X59182000Y-39116000D02*
X57150000Y-41148000D01*
X57150000Y-41148000D02*
X39370000Y-41148000D01*
X39370000Y-41148000D02*
X34770792Y-45747208D01*
X63246000Y-29718000D02*
X59182000Y-33782000D01*
X64516000Y-28448000D02*
X64516000Y-29972000D01*
X63500000Y-27432000D02*
X64516000Y-28448000D01*
X64516000Y-29972000D02*
X59690000Y-34798000D01*
X59690000Y-34798000D02*
X59690000Y-39624000D01*
X59690000Y-39624000D02*
X57658000Y-41656000D01*
X57658000Y-41656000D02*
X39624000Y-41656000D01*
X39624000Y-41656000D02*
X34798000Y-46482000D01*
X34798000Y-46482000D02*
X25671431Y-46482000D01*
X25671431Y-46482000D02*
X25061832Y-47091599D01*
X25061832Y-47091599D02*
X23977599Y-47091599D01*
X23977599Y-47091599D02*
X23368000Y-46482000D01*
X13370584Y-34053349D02*
X15764881Y-31659052D01*
X15764881Y-31659052D02*
X16374480Y-31049453D01*
X13370584Y-39458395D02*
X13370584Y-34053349D01*
X17150082Y-32791422D02*
X16540483Y-33401021D01*
X18059943Y-31881561D02*
X17150082Y-32791422D01*
X18059943Y-30026304D02*
X18059943Y-31881561D01*
X16614498Y-10383792D02*
X17224097Y-10993391D01*
X16256000Y-10025294D02*
X16614498Y-10383792D01*
X16256000Y-4064000D02*
X16256000Y-10025294D01*
X52170104Y-26569896D02*
X61822104Y-26569896D01*
X48006000Y-38608000D02*
X49784000Y-36830000D01*
X31362908Y-38608000D02*
X48006000Y-38608000D01*
X61822104Y-26569896D02*
X61874401Y-26517599D01*
X61874401Y-26517599D02*
X62484000Y-25908000D01*
X49784000Y-28956000D02*
X52170104Y-26569896D01*
X49784000Y-36830000D02*
X49784000Y-28956000D01*
X30169106Y-37414198D02*
X31362908Y-38608000D01*
X29266894Y-37414198D02*
X30169106Y-37414198D01*
X28073092Y-38608000D02*
X29266894Y-37414198D01*
X22098000Y-38608000D02*
X28073092Y-38608000D01*
X19139896Y-35649896D02*
X22098000Y-38608000D01*
X19139896Y-34449108D02*
X19139896Y-35649896D01*
X18530297Y-33839509D02*
X19139896Y-34449108D01*
X18260322Y-35615511D02*
X17650723Y-35005912D01*
X18260322Y-38934426D02*
X18260322Y-35615511D01*
X22759896Y-43434000D02*
X18260322Y-38934426D01*
X23622000Y-43434000D02*
X22759896Y-43434000D01*
X14478000Y-39236906D02*
X14046199Y-38805105D01*
X14046199Y-38805105D02*
X14046199Y-36853905D01*
X24384000Y-44450000D02*
X18542000Y-44450000D01*
X18542000Y-44450000D02*
X14478000Y-40386000D01*
X14478000Y-40386000D02*
X14478000Y-39236906D01*
X14046199Y-36853905D02*
X14478000Y-36422104D01*
X14478000Y-36422104D02*
X14478000Y-35560000D01*
X24892000Y-43942000D02*
X24384000Y-44450000D01*
X26162000Y-43942000D02*
X24892000Y-43942000D01*
X30226000Y-30988000D02*
X31242000Y-29972000D01*
X31242000Y-29972000D02*
X31242000Y-27178000D01*
X30226000Y-33274000D02*
X30226000Y-30988000D01*
X26159659Y-24913188D02*
X26769258Y-25522787D01*
X25960669Y-24714198D02*
X26159659Y-24913188D01*
X21261358Y-26679246D02*
X23226406Y-24714198D01*
X23226406Y-24714198D02*
X25960669Y-24714198D01*
X32258000Y-31242000D02*
X32258000Y-26416000D01*
X32258000Y-26416000D02*
X31496000Y-25654000D01*
X32105599Y-31394401D02*
X32258000Y-31242000D01*
X31496000Y-32004000D02*
X32105599Y-31394401D01*
X34290000Y-39624000D02*
X32004000Y-39624000D01*
M02*
