G04 #@! TF.FileFunction,Soldermask,Top*
%FSLAX46Y46*%
G04 Gerber Fmt 4.6, Leading zero omitted, Abs format (unit mm)*
G04 Created by KiCad (PCBNEW 4.0.6) date 06/24/17 11:55:09*
%MOMM*%
%LPD*%
G01*
G04 APERTURE LIST*
%ADD10C,0.100000*%
%ADD11C,3.448000*%
%ADD12R,1.200000X1.150000*%
%ADD13R,1.150000X1.200000*%
%ADD14R,1.197560X1.197560*%
%ADD15R,2.400000X1.650000*%
%ADD16R,1.650000X2.400000*%
%ADD17R,1.650000X1.400000*%
%ADD18R,1.400000X1.650000*%
%ADD19R,2.701240X0.900380*%
%ADD20R,2.899360X2.398980*%
%ADD21C,1.299160*%
%ADD22R,2.686000X2.178000*%
%ADD23R,2.127200X2.127200*%
%ADD24O,2.127200X2.127200*%
%ADD25C,7.004000*%
%ADD26R,0.900000X1.300000*%
%ADD27R,1.300000X0.900000*%
%ADD28R,1.900000X1.000000*%
%ADD29R,1.460000X1.050000*%
%ADD30R,0.908000X1.543000*%
%ADD31R,1.000000X1.900000*%
%ADD32R,2.350000X1.000000*%
%ADD33R,2.599640X2.800300*%
%ADD34R,1.400000X2.000000*%
%ADD35R,1.400000X0.650000*%
%ADD36R,0.650000X1.400000*%
%ADD37R,1.600000X2.600000*%
%ADD38R,3.900000X2.600000*%
G04 APERTURE END LIST*
D10*
D11*
X5842000Y-50546000D03*
X50292000Y-22606000D03*
D12*
X16788000Y-23114000D03*
X18288000Y-23114000D03*
D13*
X11176000Y-31508000D03*
X11176000Y-33008000D03*
X27940000Y-32524000D03*
X27940000Y-34024000D03*
D12*
X18300000Y-38354000D03*
X19800000Y-38354000D03*
D13*
X27940000Y-29960000D03*
X27940000Y-28460000D03*
X20066000Y-23102000D03*
X20066000Y-21602000D03*
X12954000Y-31496000D03*
X12954000Y-32996000D03*
X11176000Y-28956000D03*
X11176000Y-27456000D03*
X6604000Y-39358000D03*
X6604000Y-37858000D03*
X13462000Y-20574000D03*
X13462000Y-22074000D03*
D12*
X19038000Y-5842000D03*
X17538000Y-5842000D03*
X25134000Y-7874000D03*
X23634000Y-7874000D03*
D13*
X55880000Y-27698000D03*
X55880000Y-29198000D03*
X54102000Y-29198000D03*
X54102000Y-27698000D03*
D12*
X22364000Y-40132000D03*
X23864000Y-40132000D03*
X22618000Y-50292000D03*
X24118000Y-50292000D03*
X28206000Y-40132000D03*
X29706000Y-40132000D03*
X28460000Y-50292000D03*
X29960000Y-50292000D03*
D13*
X34798000Y-30722000D03*
X34798000Y-29222000D03*
X34798000Y-44438000D03*
X34798000Y-42938000D03*
X49276000Y-26694000D03*
X49276000Y-28194000D03*
X49276000Y-31218000D03*
X49276000Y-29718000D03*
X49276000Y-33806000D03*
X49276000Y-35306000D03*
X49276000Y-38330000D03*
X49276000Y-36830000D03*
X49276000Y-40410000D03*
X49276000Y-41910000D03*
X49276000Y-44934000D03*
X49276000Y-43434000D03*
X49276000Y-47510000D03*
X49276000Y-49010000D03*
X49276000Y-52046000D03*
X49276000Y-50546000D03*
X51054000Y-28194000D03*
X51054000Y-26694000D03*
X51054000Y-41910000D03*
X51054000Y-40410000D03*
D14*
X5829300Y-6096000D03*
X4330700Y-6096000D03*
X2781300Y-7620000D03*
X1282700Y-7620000D03*
X5829300Y-8890000D03*
X4330700Y-8890000D03*
X2781300Y-10160000D03*
X1282700Y-10160000D03*
X5829300Y-11430000D03*
X4330700Y-11430000D03*
X2781300Y-12700000D03*
X1282700Y-12700000D03*
X5829300Y-13970000D03*
X4330700Y-13970000D03*
X2781300Y-15240000D03*
X1282700Y-15240000D03*
D15*
X63246000Y-5745000D03*
X63246000Y-9495000D03*
D16*
X60803000Y-12192000D03*
X57053000Y-12192000D03*
X50957000Y-12192000D03*
X54707000Y-12192000D03*
X45369000Y-8890000D03*
X49119000Y-8890000D03*
X60803000Y-2540000D03*
X57053000Y-2540000D03*
X50957000Y-2540000D03*
X54707000Y-2540000D03*
X45369000Y-5842000D03*
X49119000Y-5842000D03*
D17*
X15748000Y-48752000D03*
X15748000Y-46752000D03*
X18796000Y-48736000D03*
X18796000Y-46736000D03*
D18*
X57388000Y-25654000D03*
X55388000Y-25654000D03*
D19*
X8529320Y-29133800D03*
X8529320Y-29933900D03*
X8529320Y-30734000D03*
X8529320Y-31534100D03*
X8529320Y-32334200D03*
D20*
X8430260Y-26283920D03*
X2931160Y-26283920D03*
X8430260Y-35184080D03*
X2931160Y-35184080D03*
D21*
X5930900Y-28534360D03*
X5930900Y-32933640D03*
D22*
X55372000Y-21590000D03*
X55372000Y-19050000D03*
X55372000Y-16510000D03*
D23*
X52324000Y-8636000D03*
D24*
X52324000Y-6096000D03*
X54864000Y-8636000D03*
X54864000Y-6096000D03*
X57404000Y-8636000D03*
X57404000Y-6096000D03*
X59944000Y-8636000D03*
X59944000Y-6096000D03*
D25*
X39395400Y-5842000D03*
X32232600Y-5842000D03*
D22*
X55372000Y-38608000D03*
X55372000Y-36068000D03*
X55372000Y-33528000D03*
X55626000Y-49276000D03*
X55626000Y-46736000D03*
X55626000Y-44196000D03*
D26*
X7378000Y-6096000D03*
X8878000Y-6096000D03*
X10172000Y-7620000D03*
X11672000Y-7620000D03*
X7378000Y-8890000D03*
X8878000Y-8890000D03*
X10172000Y-10160000D03*
X11672000Y-10160000D03*
X7378000Y-11430000D03*
X8878000Y-11430000D03*
X10172000Y-12700000D03*
X11672000Y-12700000D03*
X7378000Y-13970000D03*
X8878000Y-13970000D03*
X10172000Y-15240000D03*
X11672000Y-15240000D03*
X17538000Y-4064000D03*
X19038000Y-4064000D03*
D27*
X21082000Y-8878000D03*
X21082000Y-7378000D03*
D26*
X20840000Y-14478000D03*
X22340000Y-14478000D03*
X25134000Y-14478000D03*
X23634000Y-14478000D03*
D27*
X21082000Y-11684000D03*
X21082000Y-10184000D03*
X12954000Y-27698000D03*
X12954000Y-29198000D03*
X12192000Y-36044000D03*
X12192000Y-34544000D03*
X45974000Y-23356000D03*
X45974000Y-21856000D03*
X27686000Y-23344000D03*
X27686000Y-21844000D03*
X30226000Y-23344000D03*
X30226000Y-21844000D03*
X32766000Y-23344000D03*
X32766000Y-21844000D03*
X38354000Y-23356000D03*
X38354000Y-21856000D03*
X40894000Y-23356000D03*
X40894000Y-21856000D03*
X43434000Y-23356000D03*
X43434000Y-21856000D03*
D28*
X13556000Y-7493000D03*
X13556000Y-8763000D03*
X13556000Y-10033000D03*
X13556000Y-11303000D03*
X13556000Y-12573000D03*
X13556000Y-13843000D03*
X13556000Y-15113000D03*
X13556000Y-16383000D03*
X18956000Y-16383000D03*
X18956000Y-15113000D03*
X18956000Y-13843000D03*
X18956000Y-12573000D03*
X18956000Y-11303000D03*
X18956000Y-10033000D03*
X18956000Y-8763000D03*
X18956000Y-7493000D03*
D29*
X59352000Y-27498000D03*
X59352000Y-28448000D03*
X59352000Y-29398000D03*
X61552000Y-29398000D03*
X61552000Y-27498000D03*
X61552000Y-28448000D03*
D30*
X22225000Y-42037000D03*
X23495000Y-42037000D03*
X24765000Y-42037000D03*
X26035000Y-42037000D03*
X26035000Y-48387000D03*
X24765000Y-48387000D03*
X23495000Y-48387000D03*
X22225000Y-48387000D03*
X28067000Y-42037000D03*
X29337000Y-42037000D03*
X30607000Y-42037000D03*
X31877000Y-42037000D03*
X31877000Y-48387000D03*
X30607000Y-48387000D03*
X29337000Y-48387000D03*
X28067000Y-48387000D03*
D31*
X38227000Y-19810000D03*
X39497000Y-19810000D03*
X40767000Y-19810000D03*
X42037000Y-19810000D03*
X43307000Y-19810000D03*
X44577000Y-19810000D03*
X45847000Y-19810000D03*
X47117000Y-19810000D03*
X47117000Y-13210000D03*
X45847000Y-13210000D03*
X44577000Y-13210000D03*
X43307000Y-13210000D03*
X42037000Y-13210000D03*
X40767000Y-13210000D03*
X39497000Y-13210000D03*
X38227000Y-13210000D03*
X27559000Y-19810000D03*
X28829000Y-19810000D03*
X30099000Y-19810000D03*
X31369000Y-19810000D03*
X32639000Y-19810000D03*
X33909000Y-19810000D03*
X35179000Y-19810000D03*
X36449000Y-19810000D03*
X36449000Y-13210000D03*
X35179000Y-13210000D03*
X33909000Y-13210000D03*
X32639000Y-13210000D03*
X31369000Y-13210000D03*
X30099000Y-13210000D03*
X28829000Y-13210000D03*
X27559000Y-13210000D03*
D32*
X37210000Y-26797000D03*
X37210000Y-28067000D03*
X37210000Y-29337000D03*
X37210000Y-30607000D03*
X37210000Y-31877000D03*
X37210000Y-33147000D03*
X37210000Y-34417000D03*
X37210000Y-35687000D03*
X37210000Y-36957000D03*
X37210000Y-38227000D03*
X46610000Y-38227000D03*
X46610000Y-36957000D03*
X46610000Y-35687000D03*
X46610000Y-34417000D03*
X46610000Y-33147000D03*
X46610000Y-31877000D03*
X46610000Y-30607000D03*
X46610000Y-29337000D03*
X46610000Y-28067000D03*
X46610000Y-26797000D03*
X37210000Y-40513000D03*
X37210000Y-41783000D03*
X37210000Y-43053000D03*
X37210000Y-44323000D03*
X37210000Y-45593000D03*
X37210000Y-46863000D03*
X37210000Y-48133000D03*
X37210000Y-49403000D03*
X37210000Y-50673000D03*
X37210000Y-51943000D03*
X46610000Y-51943000D03*
X46610000Y-50673000D03*
X46610000Y-49403000D03*
X46610000Y-48133000D03*
X46610000Y-46863000D03*
X46610000Y-45593000D03*
X46610000Y-44323000D03*
X46610000Y-43053000D03*
X46610000Y-41783000D03*
X46610000Y-40513000D03*
D33*
X10769600Y-20574000D03*
X4470400Y-20574000D03*
D12*
X23610000Y-38354000D03*
X22110000Y-38354000D03*
D34*
X8406000Y-39370000D03*
X11406000Y-39370000D03*
D12*
X23344000Y-23114000D03*
X21844000Y-23114000D03*
D13*
X1778000Y-20586000D03*
X1778000Y-22086000D03*
D35*
X14620000Y-26984000D03*
X14620000Y-27484000D03*
X14620000Y-27984000D03*
X14620000Y-28484000D03*
X14620000Y-28984000D03*
X14620000Y-29484000D03*
X14620000Y-29984000D03*
X14620000Y-30484000D03*
X14620000Y-30984000D03*
X14620000Y-31484000D03*
X14620000Y-31984000D03*
X14620000Y-32484000D03*
X14620000Y-32984000D03*
X14620000Y-33484000D03*
X14620000Y-33984000D03*
X14620000Y-34484000D03*
D36*
X16570000Y-36434000D03*
X17070000Y-36434000D03*
X17570000Y-36434000D03*
X18070000Y-36434000D03*
X18570000Y-36434000D03*
X19070000Y-36434000D03*
X19570000Y-36434000D03*
X20070000Y-36434000D03*
X20570000Y-36434000D03*
X21070000Y-36434000D03*
X21570000Y-36434000D03*
X22070000Y-36434000D03*
X22570000Y-36434000D03*
X23070000Y-36434000D03*
X23570000Y-36434000D03*
X24070000Y-36434000D03*
D35*
X26020000Y-34484000D03*
X26020000Y-33984000D03*
X26020000Y-33484000D03*
X26020000Y-32984000D03*
X26020000Y-32484000D03*
X26020000Y-31984000D03*
X26020000Y-31484000D03*
X26020000Y-30984000D03*
X26020000Y-30484000D03*
X26020000Y-29984000D03*
X26020000Y-29484000D03*
X26020000Y-28984000D03*
X26020000Y-28484000D03*
X26020000Y-27984000D03*
X26020000Y-27484000D03*
X26020000Y-26984000D03*
D36*
X24070000Y-25034000D03*
X23570000Y-25034000D03*
X23070000Y-25034000D03*
X22570000Y-25034000D03*
X22070000Y-25034000D03*
X21570000Y-25034000D03*
X21070000Y-25034000D03*
X20570000Y-25034000D03*
X20070000Y-25034000D03*
X19570000Y-25034000D03*
X19070000Y-25034000D03*
X18570000Y-25034000D03*
X18070000Y-25034000D03*
X17570000Y-25034000D03*
X17070000Y-25034000D03*
X16570000Y-25034000D03*
D29*
X23030000Y-9972000D03*
X23030000Y-10922000D03*
X23030000Y-11872000D03*
X25230000Y-11872000D03*
X25230000Y-9972000D03*
X25230000Y-10922000D03*
D37*
X12968000Y-42366000D03*
X10668000Y-42366000D03*
X8368000Y-42366000D03*
D38*
X10668000Y-48566000D03*
D11*
X3048000Y-2794000D03*
D17*
X15748000Y-43291000D03*
X15748000Y-41291000D03*
X18796000Y-43291000D03*
X18796000Y-41291000D03*
X25146000Y-22820000D03*
X25146000Y-20820000D03*
M02*
