M48
;DRILL file {KiCad 4.0.6} date 06/24/17 11:55:15
;FORMAT={-:-/ absolute / inch / decimal}
FMAT,2
INCH,TZ
T1C0.024
T2C0.036
T3C0.040
T4C0.120
T5C0.172
%
G90
G05
M72
T1
X4.83Y-5.11
X4.8998Y-4.2217
X4.9Y-4.668
X5.2264Y-4.5535
X5.27Y-4.4
X5.29Y-4.5
X5.32Y-3.43
X5.33Y-3.84
X5.34Y-3.16
X5.3447Y-4.2224
X5.3512Y-4.315
X5.37Y-3.5
X5.37Y-4.5
X5.3781Y-3.4328
X5.3949Y-4.3782
X5.41Y-3.69
X5.411Y-4.1821
X5.4287Y-4.0553
X5.4295Y-4.3323
X5.44Y-4.98
X5.48Y-4.11
X5.4808Y-4.3008
X5.4813Y-4.231
X5.4817Y-4.0371
X5.5Y-4.67
X5.53Y-4.56
X5.535Y-4.3827
X5.5371Y-4.0504
X5.56Y-4.274
X5.56Y-4.33
X5.5652Y-4.787
X5.58Y-5.11
X5.59Y-3.23
X5.59Y-3.3478
X5.6Y-4.05
X5.62Y-3.86
X5.62Y-4.83
X5.6275Y-4.3651
X5.63Y-4.71
X5.64Y-3.62
X5.65Y-4.12
X5.65Y-4.273
X5.68Y-3.52
X5.6867Y-4.8011
X5.69Y-4.01
X5.6915Y-4.4549
X5.71Y-4.58
X5.73Y-4.73
X5.74Y-4.427
X5.7539Y-4.0048
X5.79Y-3.61
X5.7943Y-3.966
X5.807Y-4.7514
X5.82Y-5.11
X5.87Y-4.51
X5.88Y-3.67
X5.89Y-3.97
X5.89Y-4.31
X5.93Y-4.07
X5.94Y-4.01
X5.94Y-4.26
X5.9468Y-4.7543
X5.96Y-4.56
X5.99Y-3.61
X5.99Y-3.97
X5.9903Y-4.3923
X5.9988Y-4.3182
X6.05Y-4.56
X6.16Y-3.7
X6.21Y-3.97
X6.27Y-5.15
X6.3Y-4.37
X6.31Y-3.61
X6.31Y-3.97
X6.51Y-3.97
X6.69Y-3.67
X6.71Y-4.16
X6.71Y-4.51
X6.71Y-4.71
X6.71Y-5.05
X6.97Y-4.11
X6.97Y-4.2
X7.03Y-3.99
X7.16Y-4.02
X7.19Y-4.17
X7.2Y-4.08
T2
X6.88Y-3.65
X6.88Y-3.75
X6.88Y-3.85
X6.88Y-4.32
X6.88Y-4.42
X6.88Y-4.52
X6.89Y-4.74
X6.89Y-4.84
X6.89Y-4.94
T3
X6.76Y-3.24
X6.76Y-3.34
X6.86Y-3.24
X6.86Y-3.34
X6.96Y-3.24
X6.96Y-3.34
X7.06Y-3.24
X7.06Y-3.34
T4
X4.82Y-3.11
X4.93Y-4.99
X6.68Y-3.89
T5
X5.969Y-3.23
X6.251Y-3.23
T0
M30
