G04 #@! TF.FileFunction,Profile,NP*
%FSLAX46Y46*%
G04 Gerber Fmt 4.6, Leading zero omitted, Abs format (unit mm)*
G04 Created by KiCad (PCBNEW 4.0.6) date Friday, 09 June 2017 'AMt' 10:28:24*
%MOMM*%
%LPD*%
G01*
G04 APERTURE LIST*
%ADD10C,0.100000*%
%ADD11C,0.150000*%
G04 APERTURE END LIST*
D10*
D11*
X203200000Y-172720000D02*
X137160000Y-172720000D01*
X203200000Y-116840000D02*
X203200000Y-172720000D01*
X137160000Y-116840000D02*
X203200000Y-116840000D01*
X137160000Y-172720000D02*
X137160000Y-116840000D01*
X68580000Y-172720000D02*
X68580000Y-116840000D01*
X68580000Y-116840000D02*
X134620000Y-116840000D01*
X134620000Y-116840000D02*
X134620000Y-172720000D01*
X134620000Y-172720000D02*
X68580000Y-172720000D01*
X66040000Y-172720000D02*
X0Y-172720000D01*
X66040000Y-116840000D02*
X66040000Y-172720000D01*
X0Y-116840000D02*
X66040000Y-116840000D01*
X0Y-172720000D02*
X0Y-116840000D01*
X205740000Y-172720000D02*
X205740000Y-116840000D01*
X205740000Y-116840000D02*
X271780000Y-116840000D01*
X271780000Y-116840000D02*
X271780000Y-172720000D01*
X271780000Y-172720000D02*
X205740000Y-172720000D01*
X205740000Y-55880000D02*
X205740000Y0D01*
X205740000Y0D02*
X271780000Y0D01*
X271780000Y0D02*
X271780000Y-55880000D01*
X271780000Y-55880000D02*
X205740000Y-55880000D01*
X271780000Y-114300000D02*
X205740000Y-114300000D01*
X271780000Y-58420000D02*
X271780000Y-114300000D01*
X205740000Y-58420000D02*
X271780000Y-58420000D01*
X205740000Y-114300000D02*
X205740000Y-58420000D01*
X0Y-114300000D02*
X0Y-58420000D01*
X0Y-58420000D02*
X66040000Y-58420000D01*
X66040000Y-58420000D02*
X66040000Y-114300000D01*
X66040000Y-114300000D02*
X0Y-114300000D01*
X134620000Y-114300000D02*
X68580000Y-114300000D01*
X134620000Y-58420000D02*
X134620000Y-114300000D01*
X68580000Y-58420000D02*
X134620000Y-58420000D01*
X68580000Y-114300000D02*
X68580000Y-58420000D01*
X137160000Y-114300000D02*
X137160000Y-58420000D01*
X137160000Y-58420000D02*
X203200000Y-58420000D01*
X203200000Y-58420000D02*
X203200000Y-114300000D01*
X203200000Y-114300000D02*
X137160000Y-114300000D01*
X203200000Y-55880000D02*
X137160000Y-55880000D01*
X203200000Y0D02*
X203200000Y-55880000D01*
X137160000Y0D02*
X203200000Y0D01*
X137160000Y-55880000D02*
X137160000Y0D01*
X68580000Y-55880000D02*
X68580000Y0D01*
X68580000Y0D02*
X134620000Y0D01*
X134620000Y0D02*
X134620000Y-55880000D01*
X134620000Y-55880000D02*
X68580000Y-55880000D01*
X1666666Y0D02*
G75*
G03X1666666Y0I-1666666J0D01*
G01*
X-2500000Y0D02*
X2500000Y0D01*
X0Y2500000D02*
X0Y-2500000D01*
X66040000Y-55880000D02*
X0Y-55880000D01*
X66040000Y0D02*
X66040000Y-55880000D01*
X0Y0D02*
X66040000Y0D01*
X0Y-55880000D02*
X0Y0D01*
M02*
