G04 #@! TF.FileFunction,Copper,L2,Bot,Signal*
%FSLAX46Y46*%
G04 Gerber Fmt 4.6, Leading zero omitted, Abs format (unit mm)*
G04 Created by KiCad (PCBNEW 4.0.6) date Friday, 09 June 2017 'AMt' 10:28:24*
%MOMM*%
%LPD*%
G01*
G04 APERTURE LIST*
%ADD10C,0.100000*%
%ADD11C,3.048000*%
%ADD12R,2.286000X1.778000*%
%ADD13R,1.727200X1.727200*%
%ADD14O,1.727200X1.727200*%
%ADD15C,6.604000*%
%ADD16C,1.219200*%
%ADD17C,0.254000*%
%ADD18C,0.406400*%
G04 APERTURE END LIST*
D10*
D11*
X143002000Y-167386000D03*
X187452000Y-139446000D03*
D12*
X192532000Y-138430000D03*
X192532000Y-135890000D03*
X192532000Y-133350000D03*
D13*
X189484000Y-125476000D03*
D14*
X189484000Y-122936000D03*
X192024000Y-125476000D03*
X192024000Y-122936000D03*
X194564000Y-125476000D03*
X194564000Y-122936000D03*
X197104000Y-125476000D03*
X197104000Y-122936000D03*
D15*
X176555400Y-122682000D03*
X169392600Y-122682000D03*
D12*
X192532000Y-155448000D03*
X192532000Y-152908000D03*
X192532000Y-150368000D03*
X192786000Y-166116000D03*
X192786000Y-163576000D03*
X192786000Y-161036000D03*
D11*
X140208000Y-119634000D03*
X71628000Y-119634000D03*
D12*
X124206000Y-166116000D03*
X124206000Y-163576000D03*
X124206000Y-161036000D03*
X123952000Y-155448000D03*
X123952000Y-152908000D03*
X123952000Y-150368000D03*
D15*
X107975400Y-122682000D03*
X100812600Y-122682000D03*
D13*
X120904000Y-125476000D03*
D14*
X120904000Y-122936000D03*
X123444000Y-125476000D03*
X123444000Y-122936000D03*
X125984000Y-125476000D03*
X125984000Y-122936000D03*
X128524000Y-125476000D03*
X128524000Y-122936000D03*
D12*
X123952000Y-138430000D03*
X123952000Y-135890000D03*
X123952000Y-133350000D03*
D11*
X118872000Y-139446000D03*
X74422000Y-167386000D03*
X5842000Y-167386000D03*
X50292000Y-139446000D03*
D12*
X55372000Y-138430000D03*
X55372000Y-135890000D03*
X55372000Y-133350000D03*
D13*
X52324000Y-125476000D03*
D14*
X52324000Y-122936000D03*
X54864000Y-125476000D03*
X54864000Y-122936000D03*
X57404000Y-125476000D03*
X57404000Y-122936000D03*
X59944000Y-125476000D03*
X59944000Y-122936000D03*
D15*
X39395400Y-122682000D03*
X32232600Y-122682000D03*
D12*
X55372000Y-155448000D03*
X55372000Y-152908000D03*
X55372000Y-150368000D03*
X55626000Y-166116000D03*
X55626000Y-163576000D03*
X55626000Y-161036000D03*
D11*
X3048000Y-119634000D03*
X208788000Y-119634000D03*
D12*
X261366000Y-166116000D03*
X261366000Y-163576000D03*
X261366000Y-161036000D03*
X261112000Y-155448000D03*
X261112000Y-152908000D03*
X261112000Y-150368000D03*
D15*
X245135400Y-122682000D03*
X237972600Y-122682000D03*
D13*
X258064000Y-125476000D03*
D14*
X258064000Y-122936000D03*
X260604000Y-125476000D03*
X260604000Y-122936000D03*
X263144000Y-125476000D03*
X263144000Y-122936000D03*
X265684000Y-125476000D03*
X265684000Y-122936000D03*
D12*
X261112000Y-138430000D03*
X261112000Y-135890000D03*
X261112000Y-133350000D03*
D11*
X256032000Y-139446000D03*
X211582000Y-167386000D03*
X208788000Y-2794000D03*
D12*
X261366000Y-49276000D03*
X261366000Y-46736000D03*
X261366000Y-44196000D03*
X261112000Y-38608000D03*
X261112000Y-36068000D03*
X261112000Y-33528000D03*
D15*
X245135400Y-5842000D03*
X237972600Y-5842000D03*
D13*
X258064000Y-8636000D03*
D14*
X258064000Y-6096000D03*
X260604000Y-8636000D03*
X260604000Y-6096000D03*
X263144000Y-8636000D03*
X263144000Y-6096000D03*
X265684000Y-8636000D03*
X265684000Y-6096000D03*
D12*
X261112000Y-21590000D03*
X261112000Y-19050000D03*
X261112000Y-16510000D03*
D11*
X256032000Y-22606000D03*
X211582000Y-50546000D03*
X211582000Y-108966000D03*
X256032000Y-81026000D03*
D12*
X261112000Y-80010000D03*
X261112000Y-77470000D03*
X261112000Y-74930000D03*
D13*
X258064000Y-67056000D03*
D14*
X258064000Y-64516000D03*
X260604000Y-67056000D03*
X260604000Y-64516000D03*
X263144000Y-67056000D03*
X263144000Y-64516000D03*
X265684000Y-67056000D03*
X265684000Y-64516000D03*
D15*
X245135400Y-64262000D03*
X237972600Y-64262000D03*
D12*
X261112000Y-97028000D03*
X261112000Y-94488000D03*
X261112000Y-91948000D03*
X261366000Y-107696000D03*
X261366000Y-105156000D03*
X261366000Y-102616000D03*
D11*
X208788000Y-61214000D03*
X3048000Y-61214000D03*
D12*
X55626000Y-107696000D03*
X55626000Y-105156000D03*
X55626000Y-102616000D03*
X55372000Y-97028000D03*
X55372000Y-94488000D03*
X55372000Y-91948000D03*
D15*
X39395400Y-64262000D03*
X32232600Y-64262000D03*
D13*
X52324000Y-67056000D03*
D14*
X52324000Y-64516000D03*
X54864000Y-67056000D03*
X54864000Y-64516000D03*
X57404000Y-67056000D03*
X57404000Y-64516000D03*
X59944000Y-67056000D03*
X59944000Y-64516000D03*
D12*
X55372000Y-80010000D03*
X55372000Y-77470000D03*
X55372000Y-74930000D03*
D11*
X50292000Y-81026000D03*
X5842000Y-108966000D03*
X74422000Y-108966000D03*
X118872000Y-81026000D03*
D12*
X123952000Y-80010000D03*
X123952000Y-77470000D03*
X123952000Y-74930000D03*
D13*
X120904000Y-67056000D03*
D14*
X120904000Y-64516000D03*
X123444000Y-67056000D03*
X123444000Y-64516000D03*
X125984000Y-67056000D03*
X125984000Y-64516000D03*
X128524000Y-67056000D03*
X128524000Y-64516000D03*
D15*
X107975400Y-64262000D03*
X100812600Y-64262000D03*
D12*
X123952000Y-97028000D03*
X123952000Y-94488000D03*
X123952000Y-91948000D03*
X124206000Y-107696000D03*
X124206000Y-105156000D03*
X124206000Y-102616000D03*
D11*
X71628000Y-61214000D03*
X140208000Y-61214000D03*
D12*
X192786000Y-107696000D03*
X192786000Y-105156000D03*
X192786000Y-102616000D03*
X192532000Y-97028000D03*
X192532000Y-94488000D03*
X192532000Y-91948000D03*
D15*
X176555400Y-64262000D03*
X169392600Y-64262000D03*
D13*
X189484000Y-67056000D03*
D14*
X189484000Y-64516000D03*
X192024000Y-67056000D03*
X192024000Y-64516000D03*
X194564000Y-67056000D03*
X194564000Y-64516000D03*
X197104000Y-67056000D03*
X197104000Y-64516000D03*
D12*
X192532000Y-80010000D03*
X192532000Y-77470000D03*
X192532000Y-74930000D03*
D11*
X187452000Y-81026000D03*
X143002000Y-108966000D03*
X143002000Y-50546000D03*
X187452000Y-22606000D03*
D12*
X192532000Y-21590000D03*
X192532000Y-19050000D03*
X192532000Y-16510000D03*
D13*
X189484000Y-8636000D03*
D14*
X189484000Y-6096000D03*
X192024000Y-8636000D03*
X192024000Y-6096000D03*
X194564000Y-8636000D03*
X194564000Y-6096000D03*
X197104000Y-8636000D03*
X197104000Y-6096000D03*
D15*
X176555400Y-5842000D03*
X169392600Y-5842000D03*
D12*
X192532000Y-38608000D03*
X192532000Y-36068000D03*
X192532000Y-33528000D03*
X192786000Y-49276000D03*
X192786000Y-46736000D03*
X192786000Y-44196000D03*
D11*
X140208000Y-2794000D03*
X71628000Y-2794000D03*
D12*
X124206000Y-49276000D03*
X124206000Y-46736000D03*
X124206000Y-44196000D03*
X123952000Y-38608000D03*
X123952000Y-36068000D03*
X123952000Y-33528000D03*
D15*
X107975400Y-5842000D03*
X100812600Y-5842000D03*
D13*
X120904000Y-8636000D03*
D14*
X120904000Y-6096000D03*
X123444000Y-8636000D03*
X123444000Y-6096000D03*
X125984000Y-8636000D03*
X125984000Y-6096000D03*
X128524000Y-8636000D03*
X128524000Y-6096000D03*
D12*
X123952000Y-21590000D03*
X123952000Y-19050000D03*
X123952000Y-16510000D03*
D11*
X118872000Y-22606000D03*
X74422000Y-50546000D03*
X5842000Y-50546000D03*
X50292000Y-22606000D03*
D12*
X55372000Y-21590000D03*
X55372000Y-19050000D03*
X55372000Y-16510000D03*
D13*
X52324000Y-8636000D03*
D14*
X52324000Y-6096000D03*
X54864000Y-8636000D03*
X54864000Y-6096000D03*
X57404000Y-8636000D03*
X57404000Y-6096000D03*
X59944000Y-8636000D03*
X59944000Y-6096000D03*
D15*
X39395400Y-5842000D03*
X32232600Y-5842000D03*
D12*
X55372000Y-38608000D03*
X55372000Y-36068000D03*
X55372000Y-33528000D03*
X55626000Y-49276000D03*
X55626000Y-46736000D03*
X55626000Y-44196000D03*
D11*
X3048000Y-2794000D03*
D16*
X157004875Y-148108218D03*
X161290000Y-149174190D03*
X156972000Y-145034000D03*
X161290000Y-145288000D03*
X92710000Y-145288000D03*
X88392000Y-145034000D03*
X92710000Y-149174190D03*
X88424875Y-148108218D03*
X19844875Y-148108218D03*
X24130000Y-149174190D03*
X19812000Y-145034000D03*
X24130000Y-145288000D03*
X229870000Y-145288000D03*
X225552000Y-145034000D03*
X229870000Y-149174190D03*
X225584875Y-148108218D03*
X229870000Y-28448000D03*
X225552000Y-28194000D03*
X229870000Y-32334190D03*
X225584875Y-31268218D03*
X225584875Y-89688218D03*
X229870000Y-90754190D03*
X225552000Y-86614000D03*
X229870000Y-86868000D03*
X24130000Y-86868000D03*
X19812000Y-86614000D03*
X24130000Y-90754190D03*
X19844875Y-89688218D03*
X88424875Y-89688218D03*
X92710000Y-90754190D03*
X88392000Y-86614000D03*
X92710000Y-86868000D03*
X161290000Y-86868000D03*
X156972000Y-86614000D03*
X161290000Y-90754190D03*
X157004875Y-89688218D03*
X157004875Y-31268218D03*
X161290000Y-32334190D03*
X156972000Y-28194000D03*
X161290000Y-28448000D03*
X92710000Y-28448000D03*
X88392000Y-28194000D03*
X92710000Y-32334190D03*
X88424875Y-31268218D03*
X19844875Y-31268218D03*
X24130000Y-32334190D03*
X19812000Y-28194000D03*
X24130000Y-28448000D03*
X159766000Y-122682000D03*
X159766000Y-125674198D03*
X91186000Y-125674198D03*
X91186000Y-122682000D03*
X22606000Y-122682000D03*
X22606000Y-125674198D03*
X228346000Y-125674198D03*
X228346000Y-122682000D03*
X228346000Y-8834198D03*
X228346000Y-5842000D03*
X228346000Y-64262000D03*
X228346000Y-67254198D03*
X22606000Y-67254198D03*
X22606000Y-64262000D03*
X91186000Y-64262000D03*
X91186000Y-67254198D03*
X159766000Y-67254198D03*
X159766000Y-64262000D03*
X159766000Y-5842000D03*
X159766000Y-8834198D03*
X91186000Y-8834198D03*
X91186000Y-5842000D03*
X22606000Y-5842000D03*
X22606000Y-8834198D03*
X157480000Y-159258000D03*
X155956000Y-167132000D03*
X154178000Y-154940000D03*
X152146000Y-155194000D03*
X159137021Y-162229810D03*
X165354000Y-161290000D03*
X161036000Y-132588000D03*
X160528000Y-138684000D03*
X91948000Y-138684000D03*
X92456000Y-132588000D03*
X96774000Y-161290000D03*
X90557021Y-162229810D03*
X83566000Y-155194000D03*
X85598000Y-154940000D03*
X87376000Y-167132000D03*
X88900000Y-159258000D03*
X20320000Y-159258000D03*
X18796000Y-167132000D03*
X17018000Y-154940000D03*
X14986000Y-155194000D03*
X21977021Y-162229810D03*
X28194000Y-161290000D03*
X23876000Y-132588000D03*
X23368000Y-138684000D03*
X229108000Y-138684000D03*
X229616000Y-132588000D03*
X233934000Y-161290000D03*
X227717021Y-162229810D03*
X220726000Y-155194000D03*
X222758000Y-154940000D03*
X224536000Y-167132000D03*
X226060000Y-159258000D03*
X229108000Y-21844000D03*
X229616000Y-15748000D03*
X233934000Y-44450000D03*
X227717021Y-45389810D03*
X220726000Y-38354000D03*
X222758000Y-38100000D03*
X224536000Y-50292000D03*
X226060000Y-42418000D03*
X226060000Y-100838000D03*
X224536000Y-108712000D03*
X222758000Y-96520000D03*
X220726000Y-96774000D03*
X227717021Y-103809810D03*
X233934000Y-102870000D03*
X229616000Y-74168000D03*
X229108000Y-80264000D03*
X23368000Y-80264000D03*
X23876000Y-74168000D03*
X28194000Y-102870000D03*
X21977021Y-103809810D03*
X14986000Y-96774000D03*
X17018000Y-96520000D03*
X18796000Y-108712000D03*
X20320000Y-100838000D03*
X88900000Y-100838000D03*
X87376000Y-108712000D03*
X85598000Y-96520000D03*
X83566000Y-96774000D03*
X90557021Y-103809810D03*
X96774000Y-102870000D03*
X92456000Y-74168000D03*
X91948000Y-80264000D03*
X160528000Y-80264000D03*
X161036000Y-74168000D03*
X165354000Y-102870000D03*
X159137021Y-103809810D03*
X152146000Y-96774000D03*
X154178000Y-96520000D03*
X155956000Y-108712000D03*
X157480000Y-100838000D03*
X157480000Y-42418000D03*
X155956000Y-50292000D03*
X154178000Y-38100000D03*
X152146000Y-38354000D03*
X159137021Y-45389810D03*
X165354000Y-44450000D03*
X161036000Y-15748000D03*
X160528000Y-21844000D03*
X91948000Y-21844000D03*
X92456000Y-15748000D03*
X96774000Y-44450000D03*
X90557021Y-45389810D03*
X83566000Y-38354000D03*
X85598000Y-38100000D03*
X87376000Y-50292000D03*
X88900000Y-42418000D03*
X20320000Y-42418000D03*
X18796000Y-50292000D03*
X17018000Y-38100000D03*
X14986000Y-38354000D03*
X21977021Y-45389810D03*
X28194000Y-44450000D03*
X23876000Y-15748000D03*
X23368000Y-21844000D03*
X140462000Y-170434000D03*
X142240000Y-159206000D03*
X142234919Y-147871181D03*
X177038000Y-171450000D03*
X165608000Y-170434000D03*
X159512000Y-170434000D03*
X196342000Y-141986000D03*
X127762000Y-141986000D03*
X90932000Y-170434000D03*
X97028000Y-170434000D03*
X108458000Y-171450000D03*
X73654919Y-147871181D03*
X73660000Y-159206000D03*
X71882000Y-170434000D03*
X3302000Y-170434000D03*
X5080000Y-159206000D03*
X5074919Y-147871181D03*
X39878000Y-171450000D03*
X28448000Y-170434000D03*
X22352000Y-170434000D03*
X59182000Y-141986000D03*
X264922000Y-141986000D03*
X228092000Y-170434000D03*
X234188000Y-170434000D03*
X245618000Y-171450000D03*
X210814919Y-147871181D03*
X210820000Y-159206000D03*
X209042000Y-170434000D03*
X264922000Y-25146000D03*
X228092000Y-53594000D03*
X234188000Y-53594000D03*
X245618000Y-54610000D03*
X210814919Y-31031181D03*
X210820000Y-42366000D03*
X209042000Y-53594000D03*
X209042000Y-112014000D03*
X210820000Y-100786000D03*
X210814919Y-89451181D03*
X245618000Y-113030000D03*
X234188000Y-112014000D03*
X228092000Y-112014000D03*
X264922000Y-83566000D03*
X59182000Y-83566000D03*
X22352000Y-112014000D03*
X28448000Y-112014000D03*
X39878000Y-113030000D03*
X5074919Y-89451181D03*
X5080000Y-100786000D03*
X3302000Y-112014000D03*
X71882000Y-112014000D03*
X73660000Y-100786000D03*
X73654919Y-89451181D03*
X108458000Y-113030000D03*
X97028000Y-112014000D03*
X90932000Y-112014000D03*
X127762000Y-83566000D03*
X196342000Y-83566000D03*
X159512000Y-112014000D03*
X165608000Y-112014000D03*
X177038000Y-113030000D03*
X142234919Y-89451181D03*
X142240000Y-100786000D03*
X140462000Y-112014000D03*
X140462000Y-53594000D03*
X142240000Y-42366000D03*
X142234919Y-31031181D03*
X177038000Y-54610000D03*
X165608000Y-53594000D03*
X159512000Y-53594000D03*
X196342000Y-25146000D03*
X127762000Y-25146000D03*
X90932000Y-53594000D03*
X97028000Y-53594000D03*
X108458000Y-54610000D03*
X73654919Y-31031181D03*
X73660000Y-42366000D03*
X71882000Y-53594000D03*
X3302000Y-53594000D03*
X5080000Y-42366000D03*
X5074919Y-31031181D03*
X39878000Y-54610000D03*
X28448000Y-53594000D03*
X22352000Y-53594000D03*
X59182000Y-25146000D03*
X188214000Y-155194000D03*
X188214000Y-146304000D03*
X119634000Y-146304000D03*
X119634000Y-155194000D03*
X51054000Y-155194000D03*
X51054000Y-146304000D03*
X256794000Y-146304000D03*
X256794000Y-155194000D03*
X256794000Y-29464000D03*
X256794000Y-38354000D03*
X256794000Y-96774000D03*
X256794000Y-87884000D03*
X51054000Y-87884000D03*
X51054000Y-96774000D03*
X119634000Y-96774000D03*
X119634000Y-87884000D03*
X188214000Y-87884000D03*
X188214000Y-96774000D03*
X188214000Y-38354000D03*
X188214000Y-29464000D03*
X119634000Y-29464000D03*
X119634000Y-38354000D03*
X51054000Y-38354000D03*
X51054000Y-29464000D03*
X188214000Y-168910000D03*
X188214000Y-160274000D03*
X119634000Y-160274000D03*
X119634000Y-168910000D03*
X51054000Y-168910000D03*
X51054000Y-160274000D03*
X256794000Y-160274000D03*
X256794000Y-168910000D03*
X256794000Y-43434000D03*
X256794000Y-52070000D03*
X256794000Y-110490000D03*
X256794000Y-101854000D03*
X51054000Y-101854000D03*
X51054000Y-110490000D03*
X119634000Y-110490000D03*
X119634000Y-101854000D03*
X188214000Y-101854000D03*
X188214000Y-110490000D03*
X188214000Y-52070000D03*
X188214000Y-43434000D03*
X119634000Y-43434000D03*
X119634000Y-52070000D03*
X51054000Y-52070000D03*
X51054000Y-43434000D03*
X187706000Y-133858000D03*
X119126000Y-133858000D03*
X50546000Y-133858000D03*
X256286000Y-133858000D03*
X256286000Y-17018000D03*
X256286000Y-75438000D03*
X50546000Y-75438000D03*
X119126000Y-75438000D03*
X187706000Y-75438000D03*
X187706000Y-17018000D03*
X119126000Y-17018000D03*
X50546000Y-17018000D03*
X174244000Y-134620000D03*
X105664000Y-134620000D03*
X37084000Y-134620000D03*
X242824000Y-134620000D03*
X242824000Y-17780000D03*
X242824000Y-76200000D03*
X37084000Y-76200000D03*
X105664000Y-76200000D03*
X174244000Y-76200000D03*
X174244000Y-17780000D03*
X105664000Y-17780000D03*
X37084000Y-17780000D03*
X167132000Y-133858000D03*
X98552000Y-133858000D03*
X29972000Y-133858000D03*
X235712000Y-133858000D03*
X235712000Y-17018000D03*
X235712000Y-75438000D03*
X29972000Y-75438000D03*
X98552000Y-75438000D03*
X167132000Y-75438000D03*
X167132000Y-17018000D03*
X98552000Y-17018000D03*
X29972000Y-17018000D03*
X178054000Y-132334000D03*
X109474000Y-132334000D03*
X40894000Y-132334000D03*
X246634000Y-132334000D03*
X246634000Y-15494000D03*
X246634000Y-73914000D03*
X40894000Y-73914000D03*
X109474000Y-73914000D03*
X178054000Y-73914000D03*
X178054000Y-15494000D03*
X109474000Y-15494000D03*
X40894000Y-15494000D03*
X169926000Y-132334000D03*
X101346000Y-132334000D03*
X32766000Y-132334000D03*
X238506000Y-132334000D03*
X238506000Y-15494000D03*
X238506000Y-73914000D03*
X32766000Y-73914000D03*
X101346000Y-73914000D03*
X169926000Y-73914000D03*
X169926000Y-15494000D03*
X101346000Y-15494000D03*
X32766000Y-15494000D03*
X164846000Y-132334000D03*
X96266000Y-132334000D03*
X27686000Y-132334000D03*
X233426000Y-132334000D03*
X233426000Y-15494000D03*
X233426000Y-73914000D03*
X27686000Y-73914000D03*
X96266000Y-73914000D03*
X164846000Y-73914000D03*
X164846000Y-15494000D03*
X96266000Y-15494000D03*
X27686000Y-15494000D03*
X155669643Y-143644011D03*
X155194000Y-134366000D03*
X86614000Y-134366000D03*
X87089643Y-143644011D03*
X18509643Y-143644011D03*
X18034000Y-134366000D03*
X223774000Y-134366000D03*
X224249643Y-143644011D03*
X223774000Y-17526000D03*
X224249643Y-26804011D03*
X224249643Y-85224011D03*
X223774000Y-75946000D03*
X18034000Y-75946000D03*
X18509643Y-85224011D03*
X87089643Y-85224011D03*
X86614000Y-75946000D03*
X155194000Y-75946000D03*
X155669643Y-85224011D03*
X155669643Y-26804011D03*
X155194000Y-17526000D03*
X86614000Y-17526000D03*
X87089643Y-26804011D03*
X18509643Y-26804011D03*
X18034000Y-17526000D03*
X154178000Y-138176000D03*
X154178000Y-129540000D03*
X162052000Y-130048000D03*
X93472000Y-130048000D03*
X85598000Y-129540000D03*
X85598000Y-138176000D03*
X17018000Y-138176000D03*
X17018000Y-129540000D03*
X24892000Y-130048000D03*
X230632000Y-130048000D03*
X222758000Y-129540000D03*
X222758000Y-138176000D03*
X230632000Y-13208000D03*
X222758000Y-12700000D03*
X222758000Y-21336000D03*
X222758000Y-79756000D03*
X222758000Y-71120000D03*
X230632000Y-71628000D03*
X24892000Y-71628000D03*
X17018000Y-71120000D03*
X17018000Y-79756000D03*
X85598000Y-79756000D03*
X85598000Y-71120000D03*
X93472000Y-71628000D03*
X162052000Y-71628000D03*
X154178000Y-71120000D03*
X154178000Y-79756000D03*
X154178000Y-21336000D03*
X154178000Y-12700000D03*
X162052000Y-13208000D03*
X93472000Y-13208000D03*
X85598000Y-12700000D03*
X85598000Y-21336000D03*
X17018000Y-21336000D03*
X17018000Y-12700000D03*
X24892000Y-13208000D03*
X157014940Y-143181807D03*
X152908000Y-127762000D03*
X84328000Y-127762000D03*
X88434940Y-143181807D03*
X19854940Y-143181807D03*
X15748000Y-127762000D03*
X221488000Y-127762000D03*
X225594940Y-143181807D03*
X221488000Y-10922000D03*
X225594940Y-26341807D03*
X225594940Y-84761807D03*
X221488000Y-69342000D03*
X15748000Y-69342000D03*
X19854940Y-84761807D03*
X88434940Y-84761807D03*
X84328000Y-69342000D03*
X152908000Y-69342000D03*
X157014940Y-84761807D03*
X157014940Y-26341807D03*
X152908000Y-10922000D03*
X84328000Y-10922000D03*
X88434940Y-26341807D03*
X19854940Y-26341807D03*
X15748000Y-10922000D03*
X183134000Y-141478000D03*
X156993247Y-149881247D03*
X88413247Y-149881247D03*
X114554000Y-141478000D03*
X45974000Y-141478000D03*
X19833247Y-149881247D03*
X225573247Y-149881247D03*
X251714000Y-141478000D03*
X225573247Y-33041247D03*
X251714000Y-24638000D03*
X251714000Y-83058000D03*
X225573247Y-91461247D03*
X19833247Y-91461247D03*
X45974000Y-83058000D03*
X114554000Y-83058000D03*
X88413247Y-91461247D03*
X156993247Y-91461247D03*
X183134000Y-83058000D03*
X183134000Y-24638000D03*
X156993247Y-33041247D03*
X88413247Y-33041247D03*
X114554000Y-24638000D03*
X45974000Y-24638000D03*
X19833247Y-33041247D03*
X164846000Y-141478000D03*
X159004000Y-149199587D03*
X90424000Y-149199587D03*
X96266000Y-141478000D03*
X27686000Y-141478000D03*
X21844000Y-149199587D03*
X227584000Y-149199587D03*
X233426000Y-141478000D03*
X227584000Y-32359587D03*
X233426000Y-24638000D03*
X233426000Y-83058000D03*
X227584000Y-90779587D03*
X21844000Y-90779587D03*
X27686000Y-83058000D03*
X96266000Y-83058000D03*
X90424000Y-90779587D03*
X159004000Y-90779587D03*
X164846000Y-83058000D03*
X164846000Y-24638000D03*
X159004000Y-32359587D03*
X90424000Y-32359587D03*
X96266000Y-24638000D03*
X27686000Y-24638000D03*
X21844000Y-32359587D03*
X167386000Y-141478000D03*
X159004000Y-150622000D03*
X90424000Y-150622000D03*
X98806000Y-141478000D03*
X30226000Y-141478000D03*
X21844000Y-150622000D03*
X227584000Y-150622000D03*
X235966000Y-141478000D03*
X227584000Y-33782000D03*
X235966000Y-24638000D03*
X235966000Y-83058000D03*
X227584000Y-92202000D03*
X21844000Y-92202000D03*
X30226000Y-83058000D03*
X98806000Y-83058000D03*
X90424000Y-92202000D03*
X159004000Y-92202000D03*
X167386000Y-83058000D03*
X167386000Y-24638000D03*
X159004000Y-33782000D03*
X90424000Y-33782000D03*
X98806000Y-24638000D03*
X30226000Y-24638000D03*
X21844000Y-33782000D03*
X170150452Y-150323549D03*
X169933094Y-152203160D03*
X169926000Y-141478000D03*
X158368543Y-151961300D03*
X89788543Y-151961300D03*
X101346000Y-141478000D03*
X101353094Y-152203160D03*
X101570452Y-150323549D03*
X32990452Y-150323549D03*
X32773094Y-152203160D03*
X32766000Y-141478000D03*
X21208543Y-151961300D03*
X226948543Y-151961300D03*
X238506000Y-141478000D03*
X238513094Y-152203160D03*
X238730452Y-150323549D03*
X226948543Y-35121300D03*
X238506000Y-24638000D03*
X238513094Y-35363160D03*
X238730452Y-33483549D03*
X238730452Y-91903549D03*
X238513094Y-93783160D03*
X238506000Y-83058000D03*
X226948543Y-93541300D03*
X21208543Y-93541300D03*
X32766000Y-83058000D03*
X32773094Y-93783160D03*
X32990452Y-91903549D03*
X101570452Y-91903549D03*
X101353094Y-93783160D03*
X101346000Y-83058000D03*
X89788543Y-93541300D03*
X158368543Y-93541300D03*
X169926000Y-83058000D03*
X169933094Y-93783160D03*
X170150452Y-91903549D03*
X170150452Y-33483549D03*
X169933094Y-35363160D03*
X169926000Y-24638000D03*
X158368543Y-35121300D03*
X89788543Y-35121300D03*
X101346000Y-24638000D03*
X101353094Y-35363160D03*
X101570452Y-33483549D03*
X32990452Y-33483549D03*
X32773094Y-35363160D03*
X32766000Y-24638000D03*
X21208543Y-35121300D03*
X175514000Y-141478000D03*
X160717889Y-151512999D03*
X92137889Y-151512999D03*
X106934000Y-141478000D03*
X38354000Y-141478000D03*
X23557889Y-151512999D03*
X229297889Y-151512999D03*
X244094000Y-141478000D03*
X229297889Y-34672999D03*
X244094000Y-24638000D03*
X244094000Y-83058000D03*
X229297889Y-93092999D03*
X23557889Y-93092999D03*
X38354000Y-83058000D03*
X106934000Y-83058000D03*
X92137889Y-93092999D03*
X160717889Y-93092999D03*
X175514000Y-83058000D03*
X175514000Y-24638000D03*
X160717889Y-34672999D03*
X92137889Y-34672999D03*
X106934000Y-24638000D03*
X38354000Y-24638000D03*
X23557889Y-34672999D03*
X162342897Y-153794832D03*
X178054000Y-141478000D03*
X109474000Y-141478000D03*
X93762897Y-153794832D03*
X25182897Y-153794832D03*
X40894000Y-141478000D03*
X246634000Y-141478000D03*
X230922897Y-153794832D03*
X246634000Y-24638000D03*
X230922897Y-36954832D03*
X230922897Y-95374832D03*
X246634000Y-83058000D03*
X40894000Y-83058000D03*
X25182897Y-95374832D03*
X93762897Y-95374832D03*
X109474000Y-83058000D03*
X178054000Y-83058000D03*
X162342897Y-95374832D03*
X162342897Y-36954832D03*
X178054000Y-24638000D03*
X109474000Y-24638000D03*
X93762897Y-36954832D03*
X25182897Y-36954832D03*
X40894000Y-24638000D03*
X163576000Y-153085810D03*
X177800000Y-151638000D03*
X109220000Y-151638000D03*
X94996000Y-153085810D03*
X26416000Y-153085810D03*
X40640000Y-151638000D03*
X246380000Y-151638000D03*
X232156000Y-153085810D03*
X246380000Y-34798000D03*
X232156000Y-36245810D03*
X232156000Y-94665810D03*
X246380000Y-93218000D03*
X40640000Y-93218000D03*
X26416000Y-94665810D03*
X94996000Y-94665810D03*
X109220000Y-93218000D03*
X177800000Y-93218000D03*
X163576000Y-94665810D03*
X163576000Y-36245810D03*
X177800000Y-34798000D03*
X109220000Y-34798000D03*
X94996000Y-36245810D03*
X26416000Y-36245810D03*
X40640000Y-34798000D03*
X162222477Y-162587208D03*
X200406000Y-146558000D03*
X131826000Y-146558000D03*
X93642477Y-162587208D03*
X25062477Y-162587208D03*
X63246000Y-146558000D03*
X268986000Y-146558000D03*
X230802477Y-162587208D03*
X268986000Y-29718000D03*
X230802477Y-45747208D03*
X230802477Y-104167208D03*
X268986000Y-88138000D03*
X63246000Y-88138000D03*
X25062477Y-104167208D03*
X93642477Y-104167208D03*
X131826000Y-88138000D03*
X200406000Y-88138000D03*
X162222477Y-104167208D03*
X162222477Y-45747208D03*
X200406000Y-29718000D03*
X131826000Y-29718000D03*
X93642477Y-45747208D03*
X25062477Y-45747208D03*
X63246000Y-29718000D03*
X160528000Y-163322000D03*
X200660000Y-144272000D03*
X132080000Y-144272000D03*
X91948000Y-163322000D03*
X23368000Y-163322000D03*
X63500000Y-144272000D03*
X269240000Y-144272000D03*
X229108000Y-163322000D03*
X269240000Y-27432000D03*
X229108000Y-46482000D03*
X229108000Y-104902000D03*
X269240000Y-85852000D03*
X63500000Y-85852000D03*
X23368000Y-104902000D03*
X91948000Y-104902000D03*
X132080000Y-85852000D03*
X200660000Y-85852000D03*
X160528000Y-104902000D03*
X160528000Y-46482000D03*
X200660000Y-27432000D03*
X132080000Y-27432000D03*
X91948000Y-46482000D03*
X23368000Y-46482000D03*
X63500000Y-27432000D03*
X153534480Y-147889453D03*
X150530584Y-156298395D03*
X81950584Y-156298395D03*
X84954480Y-147889453D03*
X16374480Y-147889453D03*
X13370584Y-156298395D03*
X219110584Y-156298395D03*
X222114480Y-147889453D03*
X219110584Y-39458395D03*
X222114480Y-31049453D03*
X222114480Y-89469453D03*
X219110584Y-97878395D03*
X13370584Y-97878395D03*
X16374480Y-89469453D03*
X84954480Y-89469453D03*
X81950584Y-97878395D03*
X150530584Y-97878395D03*
X153534480Y-89469453D03*
X153534480Y-31049453D03*
X150530584Y-39458395D03*
X81950584Y-39458395D03*
X84954480Y-31049453D03*
X16374480Y-31049453D03*
X13370584Y-39458395D03*
X155219943Y-146866304D03*
X153700483Y-150241021D03*
X85120483Y-150241021D03*
X86639943Y-146866304D03*
X18059943Y-146866304D03*
X16540483Y-150241021D03*
X222280483Y-150241021D03*
X223799943Y-146866304D03*
X222280483Y-33401021D03*
X223799943Y-30026304D03*
X223799943Y-88446304D03*
X222280483Y-91821021D03*
X16540483Y-91821021D03*
X18059943Y-88446304D03*
X86639943Y-88446304D03*
X85120483Y-91821021D03*
X153700483Y-91821021D03*
X155219943Y-88446304D03*
X155219943Y-30026304D03*
X153700483Y-33401021D03*
X85120483Y-33401021D03*
X86639943Y-30026304D03*
X18059943Y-30026304D03*
X16540483Y-33401021D03*
X154384097Y-127833391D03*
X153416000Y-120904000D03*
X84836000Y-120904000D03*
X85804097Y-127833391D03*
X17224097Y-127833391D03*
X16256000Y-120904000D03*
X221996000Y-120904000D03*
X222964097Y-127833391D03*
X221996000Y-4064000D03*
X222964097Y-10993391D03*
X222964097Y-69413391D03*
X221996000Y-62484000D03*
X16256000Y-62484000D03*
X17224097Y-69413391D03*
X85804097Y-69413391D03*
X84836000Y-62484000D03*
X153416000Y-62484000D03*
X154384097Y-69413391D03*
X154384097Y-10993391D03*
X153416000Y-4064000D03*
X84836000Y-4064000D03*
X85804097Y-10993391D03*
X17224097Y-10993391D03*
X16256000Y-4064000D03*
X199644000Y-142748000D03*
X155690297Y-150679509D03*
X87110297Y-150679509D03*
X131064000Y-142748000D03*
X62484000Y-142748000D03*
X18530297Y-150679509D03*
X224270297Y-150679509D03*
X268224000Y-142748000D03*
X224270297Y-33839509D03*
X268224000Y-25908000D03*
X268224000Y-84328000D03*
X224270297Y-92259509D03*
X18530297Y-92259509D03*
X62484000Y-84328000D03*
X131064000Y-84328000D03*
X87110297Y-92259509D03*
X155690297Y-92259509D03*
X199644000Y-84328000D03*
X199644000Y-25908000D03*
X155690297Y-33839509D03*
X87110297Y-33839509D03*
X131064000Y-25908000D03*
X62484000Y-25908000D03*
X18530297Y-33839509D03*
X154810723Y-151845912D03*
X160782000Y-160274000D03*
X92202000Y-160274000D03*
X86230723Y-151845912D03*
X17650723Y-151845912D03*
X23622000Y-160274000D03*
X229362000Y-160274000D03*
X223390723Y-151845912D03*
X229362000Y-43434000D03*
X223390723Y-35005912D03*
X223390723Y-93425912D03*
X229362000Y-101854000D03*
X23622000Y-101854000D03*
X17650723Y-93425912D03*
X86230723Y-93425912D03*
X92202000Y-101854000D03*
X160782000Y-101854000D03*
X154810723Y-93425912D03*
X154810723Y-35005912D03*
X160782000Y-43434000D03*
X92202000Y-43434000D03*
X86230723Y-35005912D03*
X17650723Y-35005912D03*
X23622000Y-43434000D03*
X151638000Y-152400000D03*
X163322000Y-160782000D03*
X94742000Y-160782000D03*
X83058000Y-152400000D03*
X14478000Y-152400000D03*
X26162000Y-160782000D03*
X231902000Y-160782000D03*
X220218000Y-152400000D03*
X231902000Y-43942000D03*
X220218000Y-35560000D03*
X220218000Y-93980000D03*
X231902000Y-102362000D03*
X26162000Y-102362000D03*
X14478000Y-93980000D03*
X83058000Y-93980000D03*
X94742000Y-102362000D03*
X163322000Y-102362000D03*
X151638000Y-93980000D03*
X151638000Y-35560000D03*
X163322000Y-43942000D03*
X94742000Y-43942000D03*
X83058000Y-35560000D03*
X14478000Y-35560000D03*
X26162000Y-43942000D03*
X168402000Y-144018000D03*
X167386000Y-150114000D03*
X168656000Y-161290000D03*
X100076000Y-161290000D03*
X98806000Y-150114000D03*
X99822000Y-144018000D03*
X31242000Y-144018000D03*
X30226000Y-150114000D03*
X31496000Y-161290000D03*
X237236000Y-161290000D03*
X235966000Y-150114000D03*
X236982000Y-144018000D03*
X237236000Y-44450000D03*
X235966000Y-33274000D03*
X236982000Y-27178000D03*
X236982000Y-85598000D03*
X235966000Y-91694000D03*
X237236000Y-102870000D03*
X31496000Y-102870000D03*
X30226000Y-91694000D03*
X31242000Y-85598000D03*
X99822000Y-85598000D03*
X98806000Y-91694000D03*
X100076000Y-102870000D03*
X168656000Y-102870000D03*
X167386000Y-91694000D03*
X168402000Y-85598000D03*
X168402000Y-27178000D03*
X167386000Y-33274000D03*
X168656000Y-44450000D03*
X100076000Y-44450000D03*
X98806000Y-33274000D03*
X99822000Y-27178000D03*
X31242000Y-27178000D03*
X30226000Y-33274000D03*
X31496000Y-44450000D03*
X163576000Y-142494000D03*
X158496000Y-143510000D03*
X168656000Y-142494000D03*
X168656000Y-148844000D03*
X169164000Y-156464000D03*
X171450000Y-156464000D03*
X102870000Y-156464000D03*
X100584000Y-156464000D03*
X100076000Y-148844000D03*
X100076000Y-142494000D03*
X89916000Y-143510000D03*
X94996000Y-142494000D03*
X26416000Y-142494000D03*
X21336000Y-143510000D03*
X31496000Y-142494000D03*
X31496000Y-148844000D03*
X32004000Y-156464000D03*
X34290000Y-156464000D03*
X240030000Y-156464000D03*
X237744000Y-156464000D03*
X237236000Y-148844000D03*
X237236000Y-142494000D03*
X227076000Y-143510000D03*
X232156000Y-142494000D03*
X240030000Y-39624000D03*
X237744000Y-39624000D03*
X237236000Y-32004000D03*
X237236000Y-25654000D03*
X227076000Y-26670000D03*
X232156000Y-25654000D03*
X232156000Y-84074000D03*
X227076000Y-85090000D03*
X237236000Y-84074000D03*
X237236000Y-90424000D03*
X237744000Y-98044000D03*
X240030000Y-98044000D03*
X34290000Y-98044000D03*
X32004000Y-98044000D03*
X31496000Y-90424000D03*
X31496000Y-84074000D03*
X21336000Y-85090000D03*
X26416000Y-84074000D03*
X94996000Y-84074000D03*
X89916000Y-85090000D03*
X100076000Y-84074000D03*
X100076000Y-90424000D03*
X100584000Y-98044000D03*
X102870000Y-98044000D03*
X171450000Y-98044000D03*
X169164000Y-98044000D03*
X168656000Y-90424000D03*
X168656000Y-84074000D03*
X158496000Y-85090000D03*
X163576000Y-84074000D03*
X163576000Y-25654000D03*
X158496000Y-26670000D03*
X168656000Y-25654000D03*
X168656000Y-32004000D03*
X169164000Y-39624000D03*
X171450000Y-39624000D03*
X102870000Y-39624000D03*
X100584000Y-39624000D03*
X100076000Y-32004000D03*
X100076000Y-25654000D03*
X89916000Y-26670000D03*
X94996000Y-25654000D03*
X26416000Y-25654000D03*
X21336000Y-26670000D03*
X31496000Y-25654000D03*
X31496000Y-32004000D03*
X32004000Y-39624000D03*
X34290000Y-39624000D03*
D17*
X156972000Y-148075343D02*
X157004875Y-148108218D01*
X156972000Y-145034000D02*
X156972000Y-148075343D01*
X157866979Y-148108218D02*
X157004875Y-148108218D01*
X160224028Y-148108218D02*
X157866979Y-148108218D01*
X161290000Y-149174190D02*
X160224028Y-148108218D01*
X161290000Y-145288000D02*
X161290000Y-149174190D01*
X92710000Y-145288000D02*
X92710000Y-149174190D01*
X92710000Y-149174190D02*
X91644028Y-148108218D01*
X91644028Y-148108218D02*
X89286979Y-148108218D01*
X89286979Y-148108218D02*
X88424875Y-148108218D01*
X88392000Y-145034000D02*
X88392000Y-148075343D01*
X88392000Y-148075343D02*
X88424875Y-148108218D01*
X19812000Y-148075343D02*
X19844875Y-148108218D01*
X19812000Y-145034000D02*
X19812000Y-148075343D01*
X20706979Y-148108218D02*
X19844875Y-148108218D01*
X23064028Y-148108218D02*
X20706979Y-148108218D01*
X24130000Y-149174190D02*
X23064028Y-148108218D01*
X24130000Y-145288000D02*
X24130000Y-149174190D01*
X229870000Y-145288000D02*
X229870000Y-149174190D01*
X229870000Y-149174190D02*
X228804028Y-148108218D01*
X228804028Y-148108218D02*
X226446979Y-148108218D01*
X226446979Y-148108218D02*
X225584875Y-148108218D01*
X225552000Y-145034000D02*
X225552000Y-148075343D01*
X225552000Y-148075343D02*
X225584875Y-148108218D01*
X229870000Y-28448000D02*
X229870000Y-32334190D01*
X229870000Y-32334190D02*
X228804028Y-31268218D01*
X228804028Y-31268218D02*
X226446979Y-31268218D01*
X226446979Y-31268218D02*
X225584875Y-31268218D01*
X225552000Y-28194000D02*
X225552000Y-31235343D01*
X225552000Y-31235343D02*
X225584875Y-31268218D01*
X225552000Y-89655343D02*
X225584875Y-89688218D01*
X225552000Y-86614000D02*
X225552000Y-89655343D01*
X226446979Y-89688218D02*
X225584875Y-89688218D01*
X228804028Y-89688218D02*
X226446979Y-89688218D01*
X229870000Y-90754190D02*
X228804028Y-89688218D01*
X229870000Y-86868000D02*
X229870000Y-90754190D01*
X24130000Y-86868000D02*
X24130000Y-90754190D01*
X24130000Y-90754190D02*
X23064028Y-89688218D01*
X23064028Y-89688218D02*
X20706979Y-89688218D01*
X20706979Y-89688218D02*
X19844875Y-89688218D01*
X19812000Y-86614000D02*
X19812000Y-89655343D01*
X19812000Y-89655343D02*
X19844875Y-89688218D01*
X88392000Y-89655343D02*
X88424875Y-89688218D01*
X88392000Y-86614000D02*
X88392000Y-89655343D01*
X89286979Y-89688218D02*
X88424875Y-89688218D01*
X91644028Y-89688218D02*
X89286979Y-89688218D01*
X92710000Y-90754190D02*
X91644028Y-89688218D01*
X92710000Y-86868000D02*
X92710000Y-90754190D01*
X161290000Y-86868000D02*
X161290000Y-90754190D01*
X161290000Y-90754190D02*
X160224028Y-89688218D01*
X160224028Y-89688218D02*
X157866979Y-89688218D01*
X157866979Y-89688218D02*
X157004875Y-89688218D01*
X156972000Y-86614000D02*
X156972000Y-89655343D01*
X156972000Y-89655343D02*
X157004875Y-89688218D01*
X156972000Y-31235343D02*
X157004875Y-31268218D01*
X156972000Y-28194000D02*
X156972000Y-31235343D01*
X157866979Y-31268218D02*
X157004875Y-31268218D01*
X160224028Y-31268218D02*
X157866979Y-31268218D01*
X161290000Y-32334190D02*
X160224028Y-31268218D01*
X161290000Y-28448000D02*
X161290000Y-32334190D01*
X92710000Y-28448000D02*
X92710000Y-32334190D01*
X92710000Y-32334190D02*
X91644028Y-31268218D01*
X91644028Y-31268218D02*
X89286979Y-31268218D01*
X89286979Y-31268218D02*
X88424875Y-31268218D01*
X88392000Y-28194000D02*
X88392000Y-31235343D01*
X88392000Y-31235343D02*
X88424875Y-31268218D01*
X19812000Y-31235343D02*
X19844875Y-31268218D01*
X19812000Y-28194000D02*
X19812000Y-31235343D01*
X20706979Y-31268218D02*
X19844875Y-31268218D01*
X23064028Y-31268218D02*
X20706979Y-31268218D01*
X24130000Y-32334190D02*
X23064028Y-31268218D01*
X24130000Y-28448000D02*
X24130000Y-32334190D01*
X159766000Y-125674198D02*
X159766000Y-122682000D01*
X91186000Y-125674198D02*
X91186000Y-122682000D01*
X22606000Y-125674198D02*
X22606000Y-122682000D01*
X228346000Y-125674198D02*
X228346000Y-122682000D01*
X228346000Y-8834198D02*
X228346000Y-5842000D01*
X228346000Y-67254198D02*
X228346000Y-64262000D01*
X22606000Y-67254198D02*
X22606000Y-64262000D01*
X91186000Y-67254198D02*
X91186000Y-64262000D01*
X159766000Y-67254198D02*
X159766000Y-64262000D01*
X159766000Y-8834198D02*
X159766000Y-5842000D01*
X91186000Y-8834198D02*
X91186000Y-5842000D01*
X22606000Y-8834198D02*
X22606000Y-5842000D01*
X159051739Y-162315092D02*
X159137021Y-162229810D01*
X154178000Y-154940000D02*
X154178000Y-155956000D01*
X154178000Y-155956000D02*
X157480000Y-159258000D01*
X159137021Y-162229810D02*
X159137021Y-163950979D01*
X159137021Y-163950979D02*
X155956000Y-167132000D01*
X152146000Y-155194000D02*
X153924000Y-155194000D01*
X153924000Y-155194000D02*
X154178000Y-154940000D01*
X159999125Y-162229810D02*
X159137021Y-162229810D01*
X161250782Y-162229810D02*
X159999125Y-162229810D01*
X161987381Y-161493211D02*
X161250782Y-162229810D01*
X162642305Y-161493211D02*
X161987381Y-161493211D01*
X163048693Y-161899599D02*
X162642305Y-161493211D01*
X164744401Y-161899599D02*
X163048693Y-161899599D01*
X165354000Y-161290000D02*
X164744401Y-161899599D01*
X160528000Y-138684000D02*
X160528000Y-133096000D01*
X160528000Y-133096000D02*
X161036000Y-132588000D01*
X91948000Y-133096000D02*
X92456000Y-132588000D01*
X91948000Y-138684000D02*
X91948000Y-133096000D01*
X96774000Y-161290000D02*
X96164401Y-161899599D01*
X96164401Y-161899599D02*
X94468693Y-161899599D01*
X94468693Y-161899599D02*
X94062305Y-161493211D01*
X94062305Y-161493211D02*
X93407381Y-161493211D01*
X93407381Y-161493211D02*
X92670782Y-162229810D01*
X92670782Y-162229810D02*
X91419125Y-162229810D01*
X91419125Y-162229810D02*
X90557021Y-162229810D01*
X85344000Y-155194000D02*
X85598000Y-154940000D01*
X83566000Y-155194000D02*
X85344000Y-155194000D01*
X90557021Y-163950979D02*
X87376000Y-167132000D01*
X90557021Y-162229810D02*
X90557021Y-163950979D01*
X85598000Y-155956000D02*
X88900000Y-159258000D01*
X85598000Y-154940000D02*
X85598000Y-155956000D01*
X90471739Y-162315092D02*
X90557021Y-162229810D01*
X21891739Y-162315092D02*
X21977021Y-162229810D01*
X17018000Y-154940000D02*
X17018000Y-155956000D01*
X17018000Y-155956000D02*
X20320000Y-159258000D01*
X21977021Y-162229810D02*
X21977021Y-163950979D01*
X21977021Y-163950979D02*
X18796000Y-167132000D01*
X14986000Y-155194000D02*
X16764000Y-155194000D01*
X16764000Y-155194000D02*
X17018000Y-154940000D01*
X22839125Y-162229810D02*
X21977021Y-162229810D01*
X24090782Y-162229810D02*
X22839125Y-162229810D01*
X24827381Y-161493211D02*
X24090782Y-162229810D01*
X25482305Y-161493211D02*
X24827381Y-161493211D01*
X25888693Y-161899599D02*
X25482305Y-161493211D01*
X27584401Y-161899599D02*
X25888693Y-161899599D01*
X28194000Y-161290000D02*
X27584401Y-161899599D01*
X23368000Y-138684000D02*
X23368000Y-133096000D01*
X23368000Y-133096000D02*
X23876000Y-132588000D01*
X229108000Y-133096000D02*
X229616000Y-132588000D01*
X229108000Y-138684000D02*
X229108000Y-133096000D01*
X233934000Y-161290000D02*
X233324401Y-161899599D01*
X233324401Y-161899599D02*
X231628693Y-161899599D01*
X231628693Y-161899599D02*
X231222305Y-161493211D01*
X231222305Y-161493211D02*
X230567381Y-161493211D01*
X230567381Y-161493211D02*
X229830782Y-162229810D01*
X229830782Y-162229810D02*
X228579125Y-162229810D01*
X228579125Y-162229810D02*
X227717021Y-162229810D01*
X222504000Y-155194000D02*
X222758000Y-154940000D01*
X220726000Y-155194000D02*
X222504000Y-155194000D01*
X227717021Y-163950979D02*
X224536000Y-167132000D01*
X227717021Y-162229810D02*
X227717021Y-163950979D01*
X222758000Y-155956000D02*
X226060000Y-159258000D01*
X222758000Y-154940000D02*
X222758000Y-155956000D01*
X227631739Y-162315092D02*
X227717021Y-162229810D01*
X229108000Y-16256000D02*
X229616000Y-15748000D01*
X229108000Y-21844000D02*
X229108000Y-16256000D01*
X233934000Y-44450000D02*
X233324401Y-45059599D01*
X233324401Y-45059599D02*
X231628693Y-45059599D01*
X231628693Y-45059599D02*
X231222305Y-44653211D01*
X231222305Y-44653211D02*
X230567381Y-44653211D01*
X230567381Y-44653211D02*
X229830782Y-45389810D01*
X229830782Y-45389810D02*
X228579125Y-45389810D01*
X228579125Y-45389810D02*
X227717021Y-45389810D01*
X222504000Y-38354000D02*
X222758000Y-38100000D01*
X220726000Y-38354000D02*
X222504000Y-38354000D01*
X227717021Y-47110979D02*
X224536000Y-50292000D01*
X227717021Y-45389810D02*
X227717021Y-47110979D01*
X222758000Y-39116000D02*
X226060000Y-42418000D01*
X222758000Y-38100000D02*
X222758000Y-39116000D01*
X227631739Y-45475092D02*
X227717021Y-45389810D01*
X227631739Y-103895092D02*
X227717021Y-103809810D01*
X222758000Y-96520000D02*
X222758000Y-97536000D01*
X222758000Y-97536000D02*
X226060000Y-100838000D01*
X227717021Y-103809810D02*
X227717021Y-105530979D01*
X227717021Y-105530979D02*
X224536000Y-108712000D01*
X220726000Y-96774000D02*
X222504000Y-96774000D01*
X222504000Y-96774000D02*
X222758000Y-96520000D01*
X228579125Y-103809810D02*
X227717021Y-103809810D01*
X229830782Y-103809810D02*
X228579125Y-103809810D01*
X230567381Y-103073211D02*
X229830782Y-103809810D01*
X231222305Y-103073211D02*
X230567381Y-103073211D01*
X231628693Y-103479599D02*
X231222305Y-103073211D01*
X233324401Y-103479599D02*
X231628693Y-103479599D01*
X233934000Y-102870000D02*
X233324401Y-103479599D01*
X229108000Y-80264000D02*
X229108000Y-74676000D01*
X229108000Y-74676000D02*
X229616000Y-74168000D01*
X23368000Y-74676000D02*
X23876000Y-74168000D01*
X23368000Y-80264000D02*
X23368000Y-74676000D01*
X28194000Y-102870000D02*
X27584401Y-103479599D01*
X27584401Y-103479599D02*
X25888693Y-103479599D01*
X25888693Y-103479599D02*
X25482305Y-103073211D01*
X25482305Y-103073211D02*
X24827381Y-103073211D01*
X24827381Y-103073211D02*
X24090782Y-103809810D01*
X24090782Y-103809810D02*
X22839125Y-103809810D01*
X22839125Y-103809810D02*
X21977021Y-103809810D01*
X16764000Y-96774000D02*
X17018000Y-96520000D01*
X14986000Y-96774000D02*
X16764000Y-96774000D01*
X21977021Y-105530979D02*
X18796000Y-108712000D01*
X21977021Y-103809810D02*
X21977021Y-105530979D01*
X17018000Y-97536000D02*
X20320000Y-100838000D01*
X17018000Y-96520000D02*
X17018000Y-97536000D01*
X21891739Y-103895092D02*
X21977021Y-103809810D01*
X90471739Y-103895092D02*
X90557021Y-103809810D01*
X85598000Y-96520000D02*
X85598000Y-97536000D01*
X85598000Y-97536000D02*
X88900000Y-100838000D01*
X90557021Y-103809810D02*
X90557021Y-105530979D01*
X90557021Y-105530979D02*
X87376000Y-108712000D01*
X83566000Y-96774000D02*
X85344000Y-96774000D01*
X85344000Y-96774000D02*
X85598000Y-96520000D01*
X91419125Y-103809810D02*
X90557021Y-103809810D01*
X92670782Y-103809810D02*
X91419125Y-103809810D01*
X93407381Y-103073211D02*
X92670782Y-103809810D01*
X94062305Y-103073211D02*
X93407381Y-103073211D01*
X94468693Y-103479599D02*
X94062305Y-103073211D01*
X96164401Y-103479599D02*
X94468693Y-103479599D01*
X96774000Y-102870000D02*
X96164401Y-103479599D01*
X91948000Y-80264000D02*
X91948000Y-74676000D01*
X91948000Y-74676000D02*
X92456000Y-74168000D01*
X160528000Y-74676000D02*
X161036000Y-74168000D01*
X160528000Y-80264000D02*
X160528000Y-74676000D01*
X165354000Y-102870000D02*
X164744401Y-103479599D01*
X164744401Y-103479599D02*
X163048693Y-103479599D01*
X163048693Y-103479599D02*
X162642305Y-103073211D01*
X162642305Y-103073211D02*
X161987381Y-103073211D01*
X161987381Y-103073211D02*
X161250782Y-103809810D01*
X161250782Y-103809810D02*
X159999125Y-103809810D01*
X159999125Y-103809810D02*
X159137021Y-103809810D01*
X153924000Y-96774000D02*
X154178000Y-96520000D01*
X152146000Y-96774000D02*
X153924000Y-96774000D01*
X159137021Y-105530979D02*
X155956000Y-108712000D01*
X159137021Y-103809810D02*
X159137021Y-105530979D01*
X154178000Y-97536000D02*
X157480000Y-100838000D01*
X154178000Y-96520000D02*
X154178000Y-97536000D01*
X159051739Y-103895092D02*
X159137021Y-103809810D01*
X159051739Y-45475092D02*
X159137021Y-45389810D01*
X154178000Y-38100000D02*
X154178000Y-39116000D01*
X154178000Y-39116000D02*
X157480000Y-42418000D01*
X159137021Y-45389810D02*
X159137021Y-47110979D01*
X159137021Y-47110979D02*
X155956000Y-50292000D01*
X152146000Y-38354000D02*
X153924000Y-38354000D01*
X153924000Y-38354000D02*
X154178000Y-38100000D01*
X159999125Y-45389810D02*
X159137021Y-45389810D01*
X161250782Y-45389810D02*
X159999125Y-45389810D01*
X161987381Y-44653211D02*
X161250782Y-45389810D01*
X162642305Y-44653211D02*
X161987381Y-44653211D01*
X163048693Y-45059599D02*
X162642305Y-44653211D01*
X164744401Y-45059599D02*
X163048693Y-45059599D01*
X165354000Y-44450000D02*
X164744401Y-45059599D01*
X160528000Y-21844000D02*
X160528000Y-16256000D01*
X160528000Y-16256000D02*
X161036000Y-15748000D01*
X91948000Y-16256000D02*
X92456000Y-15748000D01*
X91948000Y-21844000D02*
X91948000Y-16256000D01*
X96774000Y-44450000D02*
X96164401Y-45059599D01*
X96164401Y-45059599D02*
X94468693Y-45059599D01*
X94468693Y-45059599D02*
X94062305Y-44653211D01*
X94062305Y-44653211D02*
X93407381Y-44653211D01*
X93407381Y-44653211D02*
X92670782Y-45389810D01*
X92670782Y-45389810D02*
X91419125Y-45389810D01*
X91419125Y-45389810D02*
X90557021Y-45389810D01*
X85344000Y-38354000D02*
X85598000Y-38100000D01*
X83566000Y-38354000D02*
X85344000Y-38354000D01*
X90557021Y-47110979D02*
X87376000Y-50292000D01*
X90557021Y-45389810D02*
X90557021Y-47110979D01*
X85598000Y-39116000D02*
X88900000Y-42418000D01*
X85598000Y-38100000D02*
X85598000Y-39116000D01*
X90471739Y-45475092D02*
X90557021Y-45389810D01*
X21891739Y-45475092D02*
X21977021Y-45389810D01*
X17018000Y-38100000D02*
X17018000Y-39116000D01*
X17018000Y-39116000D02*
X20320000Y-42418000D01*
X21977021Y-45389810D02*
X21977021Y-47110979D01*
X21977021Y-47110979D02*
X18796000Y-50292000D01*
X14986000Y-38354000D02*
X16764000Y-38354000D01*
X16764000Y-38354000D02*
X17018000Y-38100000D01*
X22839125Y-45389810D02*
X21977021Y-45389810D01*
X24090782Y-45389810D02*
X22839125Y-45389810D01*
X24827381Y-44653211D02*
X24090782Y-45389810D01*
X25482305Y-44653211D02*
X24827381Y-44653211D01*
X25888693Y-45059599D02*
X25482305Y-44653211D01*
X27584401Y-45059599D02*
X25888693Y-45059599D01*
X28194000Y-44450000D02*
X27584401Y-45059599D01*
X23368000Y-21844000D02*
X23368000Y-16256000D01*
X23368000Y-16256000D02*
X23876000Y-15748000D01*
D18*
X165608000Y-170434000D02*
X176022000Y-170434000D01*
X176022000Y-170434000D02*
X177038000Y-171450000D01*
X159512000Y-170434000D02*
X165608000Y-170434000D01*
X196342000Y-141986000D02*
X196951599Y-141376401D01*
X196951599Y-141376401D02*
X200558401Y-141376401D01*
X200558401Y-141376401D02*
X202438000Y-143256000D01*
X202438000Y-147066000D02*
X197612000Y-151892000D01*
X197612000Y-168910000D02*
X195072000Y-171450000D01*
X202438000Y-143256000D02*
X202438000Y-147066000D01*
X197612000Y-151892000D02*
X197612000Y-168910000D01*
X195072000Y-171450000D02*
X177038000Y-171450000D01*
X158649896Y-170434000D02*
X140462000Y-170434000D01*
X159512000Y-170434000D02*
X158649896Y-170434000D01*
X142240000Y-150876000D02*
X142240000Y-159206000D01*
X141625320Y-150261320D02*
X142240000Y-150876000D01*
X142234919Y-147871181D02*
X141625320Y-148480780D01*
X141625320Y-148480780D02*
X141625320Y-150261320D01*
X73045320Y-148480780D02*
X73045320Y-150261320D01*
X73654919Y-147871181D02*
X73045320Y-148480780D01*
X73045320Y-150261320D02*
X73660000Y-150876000D01*
X73660000Y-150876000D02*
X73660000Y-159206000D01*
X90932000Y-170434000D02*
X90069896Y-170434000D01*
X90069896Y-170434000D02*
X71882000Y-170434000D01*
X126492000Y-171450000D02*
X108458000Y-171450000D01*
X129032000Y-151892000D02*
X129032000Y-168910000D01*
X133858000Y-143256000D02*
X133858000Y-147066000D01*
X129032000Y-168910000D02*
X126492000Y-171450000D01*
X133858000Y-147066000D02*
X129032000Y-151892000D01*
X131978401Y-141376401D02*
X133858000Y-143256000D01*
X128371599Y-141376401D02*
X131978401Y-141376401D01*
X127762000Y-141986000D02*
X128371599Y-141376401D01*
X90932000Y-170434000D02*
X97028000Y-170434000D01*
X107442000Y-170434000D02*
X108458000Y-171450000D01*
X97028000Y-170434000D02*
X107442000Y-170434000D01*
X28448000Y-170434000D02*
X38862000Y-170434000D01*
X38862000Y-170434000D02*
X39878000Y-171450000D01*
X22352000Y-170434000D02*
X28448000Y-170434000D01*
X59182000Y-141986000D02*
X59791599Y-141376401D01*
X59791599Y-141376401D02*
X63398401Y-141376401D01*
X63398401Y-141376401D02*
X65278000Y-143256000D01*
X65278000Y-147066000D02*
X60452000Y-151892000D01*
X60452000Y-168910000D02*
X57912000Y-171450000D01*
X65278000Y-143256000D02*
X65278000Y-147066000D01*
X60452000Y-151892000D02*
X60452000Y-168910000D01*
X57912000Y-171450000D02*
X39878000Y-171450000D01*
X21489896Y-170434000D02*
X3302000Y-170434000D01*
X22352000Y-170434000D02*
X21489896Y-170434000D01*
X5080000Y-150876000D02*
X5080000Y-159206000D01*
X4465320Y-150261320D02*
X5080000Y-150876000D01*
X5074919Y-147871181D02*
X4465320Y-148480780D01*
X4465320Y-148480780D02*
X4465320Y-150261320D01*
X210205320Y-148480780D02*
X210205320Y-150261320D01*
X210814919Y-147871181D02*
X210205320Y-148480780D01*
X210205320Y-150261320D02*
X210820000Y-150876000D01*
X210820000Y-150876000D02*
X210820000Y-159206000D01*
X228092000Y-170434000D02*
X227229896Y-170434000D01*
X227229896Y-170434000D02*
X209042000Y-170434000D01*
X263652000Y-171450000D02*
X245618000Y-171450000D01*
X266192000Y-151892000D02*
X266192000Y-168910000D01*
X271018000Y-143256000D02*
X271018000Y-147066000D01*
X266192000Y-168910000D02*
X263652000Y-171450000D01*
X271018000Y-147066000D02*
X266192000Y-151892000D01*
X269138401Y-141376401D02*
X271018000Y-143256000D01*
X265531599Y-141376401D02*
X269138401Y-141376401D01*
X264922000Y-141986000D02*
X265531599Y-141376401D01*
X228092000Y-170434000D02*
X234188000Y-170434000D01*
X244602000Y-170434000D02*
X245618000Y-171450000D01*
X234188000Y-170434000D02*
X244602000Y-170434000D01*
X210205320Y-31640780D02*
X210205320Y-33421320D01*
X210814919Y-31031181D02*
X210205320Y-31640780D01*
X210205320Y-33421320D02*
X210820000Y-34036000D01*
X210820000Y-34036000D02*
X210820000Y-42366000D01*
X228092000Y-53594000D02*
X227229896Y-53594000D01*
X227229896Y-53594000D02*
X209042000Y-53594000D01*
X263652000Y-54610000D02*
X245618000Y-54610000D01*
X266192000Y-35052000D02*
X266192000Y-52070000D01*
X271018000Y-26416000D02*
X271018000Y-30226000D01*
X266192000Y-52070000D02*
X263652000Y-54610000D01*
X271018000Y-30226000D02*
X266192000Y-35052000D01*
X269138401Y-24536401D02*
X271018000Y-26416000D01*
X265531599Y-24536401D02*
X269138401Y-24536401D01*
X264922000Y-25146000D02*
X265531599Y-24536401D01*
X228092000Y-53594000D02*
X234188000Y-53594000D01*
X244602000Y-53594000D02*
X245618000Y-54610000D01*
X234188000Y-53594000D02*
X244602000Y-53594000D01*
X234188000Y-112014000D02*
X244602000Y-112014000D01*
X244602000Y-112014000D02*
X245618000Y-113030000D01*
X228092000Y-112014000D02*
X234188000Y-112014000D01*
X264922000Y-83566000D02*
X265531599Y-82956401D01*
X265531599Y-82956401D02*
X269138401Y-82956401D01*
X269138401Y-82956401D02*
X271018000Y-84836000D01*
X271018000Y-88646000D02*
X266192000Y-93472000D01*
X266192000Y-110490000D02*
X263652000Y-113030000D01*
X271018000Y-84836000D02*
X271018000Y-88646000D01*
X266192000Y-93472000D02*
X266192000Y-110490000D01*
X263652000Y-113030000D02*
X245618000Y-113030000D01*
X227229896Y-112014000D02*
X209042000Y-112014000D01*
X228092000Y-112014000D02*
X227229896Y-112014000D01*
X210820000Y-92456000D02*
X210820000Y-100786000D01*
X210205320Y-91841320D02*
X210820000Y-92456000D01*
X210814919Y-89451181D02*
X210205320Y-90060780D01*
X210205320Y-90060780D02*
X210205320Y-91841320D01*
X4465320Y-90060780D02*
X4465320Y-91841320D01*
X5074919Y-89451181D02*
X4465320Y-90060780D01*
X4465320Y-91841320D02*
X5080000Y-92456000D01*
X5080000Y-92456000D02*
X5080000Y-100786000D01*
X22352000Y-112014000D02*
X21489896Y-112014000D01*
X21489896Y-112014000D02*
X3302000Y-112014000D01*
X57912000Y-113030000D02*
X39878000Y-113030000D01*
X60452000Y-93472000D02*
X60452000Y-110490000D01*
X65278000Y-84836000D02*
X65278000Y-88646000D01*
X60452000Y-110490000D02*
X57912000Y-113030000D01*
X65278000Y-88646000D02*
X60452000Y-93472000D01*
X63398401Y-82956401D02*
X65278000Y-84836000D01*
X59791599Y-82956401D02*
X63398401Y-82956401D01*
X59182000Y-83566000D02*
X59791599Y-82956401D01*
X22352000Y-112014000D02*
X28448000Y-112014000D01*
X38862000Y-112014000D02*
X39878000Y-113030000D01*
X28448000Y-112014000D02*
X38862000Y-112014000D01*
X97028000Y-112014000D02*
X107442000Y-112014000D01*
X107442000Y-112014000D02*
X108458000Y-113030000D01*
X90932000Y-112014000D02*
X97028000Y-112014000D01*
X127762000Y-83566000D02*
X128371599Y-82956401D01*
X128371599Y-82956401D02*
X131978401Y-82956401D01*
X131978401Y-82956401D02*
X133858000Y-84836000D01*
X133858000Y-88646000D02*
X129032000Y-93472000D01*
X129032000Y-110490000D02*
X126492000Y-113030000D01*
X133858000Y-84836000D02*
X133858000Y-88646000D01*
X129032000Y-93472000D02*
X129032000Y-110490000D01*
X126492000Y-113030000D02*
X108458000Y-113030000D01*
X90069896Y-112014000D02*
X71882000Y-112014000D01*
X90932000Y-112014000D02*
X90069896Y-112014000D01*
X73660000Y-92456000D02*
X73660000Y-100786000D01*
X73045320Y-91841320D02*
X73660000Y-92456000D01*
X73654919Y-89451181D02*
X73045320Y-90060780D01*
X73045320Y-90060780D02*
X73045320Y-91841320D01*
X141625320Y-90060780D02*
X141625320Y-91841320D01*
X142234919Y-89451181D02*
X141625320Y-90060780D01*
X141625320Y-91841320D02*
X142240000Y-92456000D01*
X142240000Y-92456000D02*
X142240000Y-100786000D01*
X159512000Y-112014000D02*
X158649896Y-112014000D01*
X158649896Y-112014000D02*
X140462000Y-112014000D01*
X195072000Y-113030000D02*
X177038000Y-113030000D01*
X197612000Y-93472000D02*
X197612000Y-110490000D01*
X202438000Y-84836000D02*
X202438000Y-88646000D01*
X197612000Y-110490000D02*
X195072000Y-113030000D01*
X202438000Y-88646000D02*
X197612000Y-93472000D01*
X200558401Y-82956401D02*
X202438000Y-84836000D01*
X196951599Y-82956401D02*
X200558401Y-82956401D01*
X196342000Y-83566000D02*
X196951599Y-82956401D01*
X159512000Y-112014000D02*
X165608000Y-112014000D01*
X176022000Y-112014000D02*
X177038000Y-113030000D01*
X165608000Y-112014000D02*
X176022000Y-112014000D01*
X165608000Y-53594000D02*
X176022000Y-53594000D01*
X176022000Y-53594000D02*
X177038000Y-54610000D01*
X159512000Y-53594000D02*
X165608000Y-53594000D01*
X196342000Y-25146000D02*
X196951599Y-24536401D01*
X196951599Y-24536401D02*
X200558401Y-24536401D01*
X200558401Y-24536401D02*
X202438000Y-26416000D01*
X202438000Y-30226000D02*
X197612000Y-35052000D01*
X197612000Y-52070000D02*
X195072000Y-54610000D01*
X202438000Y-26416000D02*
X202438000Y-30226000D01*
X197612000Y-35052000D02*
X197612000Y-52070000D01*
X195072000Y-54610000D02*
X177038000Y-54610000D01*
X158649896Y-53594000D02*
X140462000Y-53594000D01*
X159512000Y-53594000D02*
X158649896Y-53594000D01*
X142240000Y-34036000D02*
X142240000Y-42366000D01*
X141625320Y-33421320D02*
X142240000Y-34036000D01*
X142234919Y-31031181D02*
X141625320Y-31640780D01*
X141625320Y-31640780D02*
X141625320Y-33421320D01*
X73045320Y-31640780D02*
X73045320Y-33421320D01*
X73654919Y-31031181D02*
X73045320Y-31640780D01*
X73045320Y-33421320D02*
X73660000Y-34036000D01*
X73660000Y-34036000D02*
X73660000Y-42366000D01*
X90932000Y-53594000D02*
X90069896Y-53594000D01*
X90069896Y-53594000D02*
X71882000Y-53594000D01*
X126492000Y-54610000D02*
X108458000Y-54610000D01*
X129032000Y-35052000D02*
X129032000Y-52070000D01*
X133858000Y-26416000D02*
X133858000Y-30226000D01*
X129032000Y-52070000D02*
X126492000Y-54610000D01*
X133858000Y-30226000D02*
X129032000Y-35052000D01*
X131978401Y-24536401D02*
X133858000Y-26416000D01*
X128371599Y-24536401D02*
X131978401Y-24536401D01*
X127762000Y-25146000D02*
X128371599Y-24536401D01*
X90932000Y-53594000D02*
X97028000Y-53594000D01*
X107442000Y-53594000D02*
X108458000Y-54610000D01*
X97028000Y-53594000D02*
X107442000Y-53594000D01*
X28448000Y-53594000D02*
X38862000Y-53594000D01*
X38862000Y-53594000D02*
X39878000Y-54610000D01*
X22352000Y-53594000D02*
X28448000Y-53594000D01*
X59182000Y-25146000D02*
X59791599Y-24536401D01*
X59791599Y-24536401D02*
X63398401Y-24536401D01*
X63398401Y-24536401D02*
X65278000Y-26416000D01*
X65278000Y-30226000D02*
X60452000Y-35052000D01*
X60452000Y-52070000D02*
X57912000Y-54610000D01*
X65278000Y-26416000D02*
X65278000Y-30226000D01*
X60452000Y-35052000D02*
X60452000Y-52070000D01*
X57912000Y-54610000D02*
X39878000Y-54610000D01*
X21489896Y-53594000D02*
X3302000Y-53594000D01*
X22352000Y-53594000D02*
X21489896Y-53594000D01*
X5080000Y-34036000D02*
X5080000Y-42366000D01*
X4465320Y-33421320D02*
X5080000Y-34036000D01*
X5074919Y-31031181D02*
X4465320Y-31640780D01*
X4465320Y-31640780D02*
X4465320Y-33421320D01*
X188214000Y-146304000D02*
X188214000Y-150368000D01*
X188214000Y-150368000D02*
X188214000Y-155194000D01*
X192532000Y-150368000D02*
X190982600Y-150368000D01*
X190982600Y-150368000D02*
X188214000Y-150368000D01*
X122402600Y-150368000D02*
X119634000Y-150368000D01*
X123952000Y-150368000D02*
X122402600Y-150368000D01*
X119634000Y-150368000D02*
X119634000Y-155194000D01*
X119634000Y-146304000D02*
X119634000Y-150368000D01*
X51054000Y-146304000D02*
X51054000Y-150368000D01*
X51054000Y-150368000D02*
X51054000Y-155194000D01*
X55372000Y-150368000D02*
X53822600Y-150368000D01*
X53822600Y-150368000D02*
X51054000Y-150368000D01*
X259562600Y-150368000D02*
X256794000Y-150368000D01*
X261112000Y-150368000D02*
X259562600Y-150368000D01*
X256794000Y-150368000D02*
X256794000Y-155194000D01*
X256794000Y-146304000D02*
X256794000Y-150368000D01*
X259562600Y-33528000D02*
X256794000Y-33528000D01*
X261112000Y-33528000D02*
X259562600Y-33528000D01*
X256794000Y-33528000D02*
X256794000Y-38354000D01*
X256794000Y-29464000D02*
X256794000Y-33528000D01*
X256794000Y-87884000D02*
X256794000Y-91948000D01*
X256794000Y-91948000D02*
X256794000Y-96774000D01*
X261112000Y-91948000D02*
X259562600Y-91948000D01*
X259562600Y-91948000D02*
X256794000Y-91948000D01*
X53822600Y-91948000D02*
X51054000Y-91948000D01*
X55372000Y-91948000D02*
X53822600Y-91948000D01*
X51054000Y-91948000D02*
X51054000Y-96774000D01*
X51054000Y-87884000D02*
X51054000Y-91948000D01*
X119634000Y-87884000D02*
X119634000Y-91948000D01*
X119634000Y-91948000D02*
X119634000Y-96774000D01*
X123952000Y-91948000D02*
X122402600Y-91948000D01*
X122402600Y-91948000D02*
X119634000Y-91948000D01*
X190982600Y-91948000D02*
X188214000Y-91948000D01*
X192532000Y-91948000D02*
X190982600Y-91948000D01*
X188214000Y-91948000D02*
X188214000Y-96774000D01*
X188214000Y-87884000D02*
X188214000Y-91948000D01*
X188214000Y-29464000D02*
X188214000Y-33528000D01*
X188214000Y-33528000D02*
X188214000Y-38354000D01*
X192532000Y-33528000D02*
X190982600Y-33528000D01*
X190982600Y-33528000D02*
X188214000Y-33528000D01*
X122402600Y-33528000D02*
X119634000Y-33528000D01*
X123952000Y-33528000D02*
X122402600Y-33528000D01*
X119634000Y-33528000D02*
X119634000Y-38354000D01*
X119634000Y-29464000D02*
X119634000Y-33528000D01*
X51054000Y-29464000D02*
X51054000Y-33528000D01*
X51054000Y-33528000D02*
X51054000Y-38354000D01*
X55372000Y-33528000D02*
X53822600Y-33528000D01*
X53822600Y-33528000D02*
X51054000Y-33528000D01*
X192786000Y-161036000D02*
X188976000Y-161036000D01*
X188976000Y-161036000D02*
X188214000Y-160274000D01*
X188214000Y-160274000D02*
X188214000Y-168910000D01*
X119634000Y-160274000D02*
X119634000Y-168910000D01*
X120396000Y-161036000D02*
X119634000Y-160274000D01*
X124206000Y-161036000D02*
X120396000Y-161036000D01*
X55626000Y-161036000D02*
X51816000Y-161036000D01*
X51816000Y-161036000D02*
X51054000Y-160274000D01*
X51054000Y-160274000D02*
X51054000Y-168910000D01*
X256794000Y-160274000D02*
X256794000Y-168910000D01*
X257556000Y-161036000D02*
X256794000Y-160274000D01*
X261366000Y-161036000D02*
X257556000Y-161036000D01*
X256794000Y-43434000D02*
X256794000Y-52070000D01*
X257556000Y-44196000D02*
X256794000Y-43434000D01*
X261366000Y-44196000D02*
X257556000Y-44196000D01*
X261366000Y-102616000D02*
X257556000Y-102616000D01*
X257556000Y-102616000D02*
X256794000Y-101854000D01*
X256794000Y-101854000D02*
X256794000Y-110490000D01*
X51054000Y-101854000D02*
X51054000Y-110490000D01*
X51816000Y-102616000D02*
X51054000Y-101854000D01*
X55626000Y-102616000D02*
X51816000Y-102616000D01*
X124206000Y-102616000D02*
X120396000Y-102616000D01*
X120396000Y-102616000D02*
X119634000Y-101854000D01*
X119634000Y-101854000D02*
X119634000Y-110490000D01*
X188214000Y-101854000D02*
X188214000Y-110490000D01*
X188976000Y-102616000D02*
X188214000Y-101854000D01*
X192786000Y-102616000D02*
X188976000Y-102616000D01*
X192786000Y-44196000D02*
X188976000Y-44196000D01*
X188976000Y-44196000D02*
X188214000Y-43434000D01*
X188214000Y-43434000D02*
X188214000Y-52070000D01*
X119634000Y-43434000D02*
X119634000Y-52070000D01*
X120396000Y-44196000D02*
X119634000Y-43434000D01*
X124206000Y-44196000D02*
X120396000Y-44196000D01*
X55626000Y-44196000D02*
X51816000Y-44196000D01*
X51816000Y-44196000D02*
X51054000Y-43434000D01*
X51054000Y-43434000D02*
X51054000Y-52070000D01*
X187706000Y-133858000D02*
X193802000Y-127762000D01*
X193802000Y-127762000D02*
X194818000Y-127762000D01*
X194818000Y-127762000D02*
X197104000Y-125476000D01*
X126238000Y-127762000D02*
X128524000Y-125476000D01*
X125222000Y-127762000D02*
X126238000Y-127762000D01*
X119126000Y-133858000D02*
X125222000Y-127762000D01*
X50546000Y-133858000D02*
X56642000Y-127762000D01*
X56642000Y-127762000D02*
X57658000Y-127762000D01*
X57658000Y-127762000D02*
X59944000Y-125476000D01*
X263398000Y-127762000D02*
X265684000Y-125476000D01*
X262382000Y-127762000D02*
X263398000Y-127762000D01*
X256286000Y-133858000D02*
X262382000Y-127762000D01*
X263398000Y-10922000D02*
X265684000Y-8636000D01*
X262382000Y-10922000D02*
X263398000Y-10922000D01*
X256286000Y-17018000D02*
X262382000Y-10922000D01*
X256286000Y-75438000D02*
X262382000Y-69342000D01*
X262382000Y-69342000D02*
X263398000Y-69342000D01*
X263398000Y-69342000D02*
X265684000Y-67056000D01*
X57658000Y-69342000D02*
X59944000Y-67056000D01*
X56642000Y-69342000D02*
X57658000Y-69342000D01*
X50546000Y-75438000D02*
X56642000Y-69342000D01*
X119126000Y-75438000D02*
X125222000Y-69342000D01*
X125222000Y-69342000D02*
X126238000Y-69342000D01*
X126238000Y-69342000D02*
X128524000Y-67056000D01*
X194818000Y-69342000D02*
X197104000Y-67056000D01*
X193802000Y-69342000D02*
X194818000Y-69342000D01*
X187706000Y-75438000D02*
X193802000Y-69342000D01*
X187706000Y-17018000D02*
X193802000Y-10922000D01*
X193802000Y-10922000D02*
X194818000Y-10922000D01*
X194818000Y-10922000D02*
X197104000Y-8636000D01*
X126238000Y-10922000D02*
X128524000Y-8636000D01*
X125222000Y-10922000D02*
X126238000Y-10922000D01*
X119126000Y-17018000D02*
X125222000Y-10922000D01*
X50546000Y-17018000D02*
X56642000Y-10922000D01*
X56642000Y-10922000D02*
X57658000Y-10922000D01*
X57658000Y-10922000D02*
X59944000Y-8636000D01*
X176023486Y-135178833D02*
X174802833Y-135178833D01*
X174802833Y-135178833D02*
X174244000Y-134620000D01*
X194564000Y-125476000D02*
X186944000Y-133096000D01*
X179553207Y-135178833D02*
X176023486Y-135178833D01*
X181636040Y-133096000D02*
X179553207Y-135178833D01*
X186944000Y-133096000D02*
X181636040Y-133096000D01*
X118364000Y-133096000D02*
X113056040Y-133096000D01*
X113056040Y-133096000D02*
X110973207Y-135178833D01*
X110973207Y-135178833D02*
X107443486Y-135178833D01*
X125984000Y-125476000D02*
X118364000Y-133096000D01*
X106222833Y-135178833D02*
X105664000Y-134620000D01*
X107443486Y-135178833D02*
X106222833Y-135178833D01*
X38863486Y-135178833D02*
X37642833Y-135178833D01*
X37642833Y-135178833D02*
X37084000Y-134620000D01*
X57404000Y-125476000D02*
X49784000Y-133096000D01*
X42393207Y-135178833D02*
X38863486Y-135178833D01*
X44476040Y-133096000D02*
X42393207Y-135178833D01*
X49784000Y-133096000D02*
X44476040Y-133096000D01*
X255524000Y-133096000D02*
X250216040Y-133096000D01*
X250216040Y-133096000D02*
X248133207Y-135178833D01*
X248133207Y-135178833D02*
X244603486Y-135178833D01*
X263144000Y-125476000D02*
X255524000Y-133096000D01*
X243382833Y-135178833D02*
X242824000Y-134620000D01*
X244603486Y-135178833D02*
X243382833Y-135178833D01*
X255524000Y-16256000D02*
X250216040Y-16256000D01*
X250216040Y-16256000D02*
X248133207Y-18338833D01*
X248133207Y-18338833D02*
X244603486Y-18338833D01*
X263144000Y-8636000D02*
X255524000Y-16256000D01*
X243382833Y-18338833D02*
X242824000Y-17780000D01*
X244603486Y-18338833D02*
X243382833Y-18338833D01*
X244603486Y-76758833D02*
X243382833Y-76758833D01*
X243382833Y-76758833D02*
X242824000Y-76200000D01*
X263144000Y-67056000D02*
X255524000Y-74676000D01*
X248133207Y-76758833D02*
X244603486Y-76758833D01*
X250216040Y-74676000D02*
X248133207Y-76758833D01*
X255524000Y-74676000D02*
X250216040Y-74676000D01*
X49784000Y-74676000D02*
X44476040Y-74676000D01*
X44476040Y-74676000D02*
X42393207Y-76758833D01*
X42393207Y-76758833D02*
X38863486Y-76758833D01*
X57404000Y-67056000D02*
X49784000Y-74676000D01*
X37642833Y-76758833D02*
X37084000Y-76200000D01*
X38863486Y-76758833D02*
X37642833Y-76758833D01*
X107443486Y-76758833D02*
X106222833Y-76758833D01*
X106222833Y-76758833D02*
X105664000Y-76200000D01*
X125984000Y-67056000D02*
X118364000Y-74676000D01*
X110973207Y-76758833D02*
X107443486Y-76758833D01*
X113056040Y-74676000D02*
X110973207Y-76758833D01*
X118364000Y-74676000D02*
X113056040Y-74676000D01*
X186944000Y-74676000D02*
X181636040Y-74676000D01*
X181636040Y-74676000D02*
X179553207Y-76758833D01*
X179553207Y-76758833D02*
X176023486Y-76758833D01*
X194564000Y-67056000D02*
X186944000Y-74676000D01*
X174802833Y-76758833D02*
X174244000Y-76200000D01*
X176023486Y-76758833D02*
X174802833Y-76758833D01*
X176023486Y-18338833D02*
X174802833Y-18338833D01*
X174802833Y-18338833D02*
X174244000Y-17780000D01*
X194564000Y-8636000D02*
X186944000Y-16256000D01*
X179553207Y-18338833D02*
X176023486Y-18338833D01*
X181636040Y-16256000D02*
X179553207Y-18338833D01*
X186944000Y-16256000D02*
X181636040Y-16256000D01*
X118364000Y-16256000D02*
X113056040Y-16256000D01*
X113056040Y-16256000D02*
X110973207Y-18338833D01*
X110973207Y-18338833D02*
X107443486Y-18338833D01*
X125984000Y-8636000D02*
X118364000Y-16256000D01*
X106222833Y-18338833D02*
X105664000Y-17780000D01*
X107443486Y-18338833D02*
X106222833Y-18338833D01*
X38863486Y-18338833D02*
X37642833Y-18338833D01*
X37642833Y-18338833D02*
X37084000Y-17780000D01*
X57404000Y-8636000D02*
X49784000Y-16256000D01*
X42393207Y-18338833D02*
X38863486Y-18338833D01*
X44476040Y-16256000D02*
X42393207Y-18338833D01*
X49784000Y-16256000D02*
X44476040Y-16256000D01*
X185420000Y-132080000D02*
X191160401Y-126339599D01*
X181789924Y-132080000D02*
X185420000Y-132080000D01*
X179300699Y-134569223D02*
X181789924Y-132080000D01*
X176887103Y-134569223D02*
X179300699Y-134569223D01*
X175159880Y-132842000D02*
X176887103Y-134569223D01*
X173228000Y-132842000D02*
X175159880Y-132842000D01*
X171602401Y-134467599D02*
X173228000Y-132842000D01*
X167741599Y-134467599D02*
X171602401Y-134467599D01*
X167132000Y-133858000D02*
X167741599Y-134467599D01*
X191160401Y-126339599D02*
X192024000Y-125476000D01*
X122580401Y-126339599D02*
X123444000Y-125476000D01*
X98552000Y-133858000D02*
X99161599Y-134467599D01*
X99161599Y-134467599D02*
X103022401Y-134467599D01*
X103022401Y-134467599D02*
X104648000Y-132842000D01*
X104648000Y-132842000D02*
X106579880Y-132842000D01*
X106579880Y-132842000D02*
X108307103Y-134569223D01*
X108307103Y-134569223D02*
X110720699Y-134569223D01*
X110720699Y-134569223D02*
X113209924Y-132080000D01*
X113209924Y-132080000D02*
X116840000Y-132080000D01*
X116840000Y-132080000D02*
X122580401Y-126339599D01*
X48260000Y-132080000D02*
X54000401Y-126339599D01*
X44629924Y-132080000D02*
X48260000Y-132080000D01*
X42140699Y-134569223D02*
X44629924Y-132080000D01*
X39727103Y-134569223D02*
X42140699Y-134569223D01*
X37999880Y-132842000D02*
X39727103Y-134569223D01*
X36068000Y-132842000D02*
X37999880Y-132842000D01*
X34442401Y-134467599D02*
X36068000Y-132842000D01*
X30581599Y-134467599D02*
X34442401Y-134467599D01*
X29972000Y-133858000D02*
X30581599Y-134467599D01*
X54000401Y-126339599D02*
X54864000Y-125476000D01*
X259740401Y-126339599D02*
X260604000Y-125476000D01*
X235712000Y-133858000D02*
X236321599Y-134467599D01*
X236321599Y-134467599D02*
X240182401Y-134467599D01*
X240182401Y-134467599D02*
X241808000Y-132842000D01*
X241808000Y-132842000D02*
X243739880Y-132842000D01*
X243739880Y-132842000D02*
X245467103Y-134569223D01*
X245467103Y-134569223D02*
X247880699Y-134569223D01*
X247880699Y-134569223D02*
X250369924Y-132080000D01*
X250369924Y-132080000D02*
X254000000Y-132080000D01*
X254000000Y-132080000D02*
X259740401Y-126339599D01*
X259740401Y-9499599D02*
X260604000Y-8636000D01*
X235712000Y-17018000D02*
X236321599Y-17627599D01*
X236321599Y-17627599D02*
X240182401Y-17627599D01*
X240182401Y-17627599D02*
X241808000Y-16002000D01*
X241808000Y-16002000D02*
X243739880Y-16002000D01*
X243739880Y-16002000D02*
X245467103Y-17729223D01*
X245467103Y-17729223D02*
X247880699Y-17729223D01*
X247880699Y-17729223D02*
X250369924Y-15240000D01*
X250369924Y-15240000D02*
X254000000Y-15240000D01*
X254000000Y-15240000D02*
X259740401Y-9499599D01*
X254000000Y-73660000D02*
X259740401Y-67919599D01*
X250369924Y-73660000D02*
X254000000Y-73660000D01*
X247880699Y-76149223D02*
X250369924Y-73660000D01*
X245467103Y-76149223D02*
X247880699Y-76149223D01*
X243739880Y-74422000D02*
X245467103Y-76149223D01*
X241808000Y-74422000D02*
X243739880Y-74422000D01*
X240182401Y-76047599D02*
X241808000Y-74422000D01*
X236321599Y-76047599D02*
X240182401Y-76047599D01*
X235712000Y-75438000D02*
X236321599Y-76047599D01*
X259740401Y-67919599D02*
X260604000Y-67056000D01*
X54000401Y-67919599D02*
X54864000Y-67056000D01*
X29972000Y-75438000D02*
X30581599Y-76047599D01*
X30581599Y-76047599D02*
X34442401Y-76047599D01*
X34442401Y-76047599D02*
X36068000Y-74422000D01*
X36068000Y-74422000D02*
X37999880Y-74422000D01*
X37999880Y-74422000D02*
X39727103Y-76149223D01*
X39727103Y-76149223D02*
X42140699Y-76149223D01*
X42140699Y-76149223D02*
X44629924Y-73660000D01*
X44629924Y-73660000D02*
X48260000Y-73660000D01*
X48260000Y-73660000D02*
X54000401Y-67919599D01*
X116840000Y-73660000D02*
X122580401Y-67919599D01*
X113209924Y-73660000D02*
X116840000Y-73660000D01*
X110720699Y-76149223D02*
X113209924Y-73660000D01*
X108307103Y-76149223D02*
X110720699Y-76149223D01*
X106579880Y-74422000D02*
X108307103Y-76149223D01*
X104648000Y-74422000D02*
X106579880Y-74422000D01*
X103022401Y-76047599D02*
X104648000Y-74422000D01*
X99161599Y-76047599D02*
X103022401Y-76047599D01*
X98552000Y-75438000D02*
X99161599Y-76047599D01*
X122580401Y-67919599D02*
X123444000Y-67056000D01*
X191160401Y-67919599D02*
X192024000Y-67056000D01*
X167132000Y-75438000D02*
X167741599Y-76047599D01*
X167741599Y-76047599D02*
X171602401Y-76047599D01*
X171602401Y-76047599D02*
X173228000Y-74422000D01*
X173228000Y-74422000D02*
X175159880Y-74422000D01*
X175159880Y-74422000D02*
X176887103Y-76149223D01*
X176887103Y-76149223D02*
X179300699Y-76149223D01*
X179300699Y-76149223D02*
X181789924Y-73660000D01*
X181789924Y-73660000D02*
X185420000Y-73660000D01*
X185420000Y-73660000D02*
X191160401Y-67919599D01*
X185420000Y-15240000D02*
X191160401Y-9499599D01*
X181789924Y-15240000D02*
X185420000Y-15240000D01*
X179300699Y-17729223D02*
X181789924Y-15240000D01*
X176887103Y-17729223D02*
X179300699Y-17729223D01*
X175159880Y-16002000D02*
X176887103Y-17729223D01*
X173228000Y-16002000D02*
X175159880Y-16002000D01*
X171602401Y-17627599D02*
X173228000Y-16002000D01*
X167741599Y-17627599D02*
X171602401Y-17627599D01*
X167132000Y-17018000D02*
X167741599Y-17627599D01*
X191160401Y-9499599D02*
X192024000Y-8636000D01*
X122580401Y-9499599D02*
X123444000Y-8636000D01*
X98552000Y-17018000D02*
X99161599Y-17627599D01*
X99161599Y-17627599D02*
X103022401Y-17627599D01*
X103022401Y-17627599D02*
X104648000Y-16002000D01*
X104648000Y-16002000D02*
X106579880Y-16002000D01*
X106579880Y-16002000D02*
X108307103Y-17729223D01*
X108307103Y-17729223D02*
X110720699Y-17729223D01*
X110720699Y-17729223D02*
X113209924Y-15240000D01*
X113209924Y-15240000D02*
X116840000Y-15240000D01*
X116840000Y-15240000D02*
X122580401Y-9499599D01*
X48260000Y-15240000D02*
X54000401Y-9499599D01*
X44629924Y-15240000D02*
X48260000Y-15240000D01*
X42140699Y-17729223D02*
X44629924Y-15240000D01*
X39727103Y-17729223D02*
X42140699Y-17729223D01*
X37999880Y-16002000D02*
X39727103Y-17729223D01*
X36068000Y-16002000D02*
X37999880Y-16002000D01*
X34442401Y-17627599D02*
X36068000Y-16002000D01*
X30581599Y-17627599D02*
X34442401Y-17627599D01*
X29972000Y-17018000D02*
X30581599Y-17627599D01*
X54000401Y-9499599D02*
X54864000Y-8636000D01*
X178054000Y-132334000D02*
X181610000Y-128778000D01*
X181610000Y-128778000D02*
X183642000Y-128778000D01*
X193245314Y-120396000D02*
X194564000Y-121714686D01*
X183642000Y-128778000D02*
X184404000Y-128016000D01*
X184404000Y-128016000D02*
X184404000Y-122936000D01*
X184404000Y-122936000D02*
X186944000Y-120396000D01*
X194564000Y-121714686D02*
X194564000Y-122936000D01*
X186944000Y-120396000D02*
X193245314Y-120396000D01*
X118364000Y-120396000D02*
X124665314Y-120396000D01*
X125984000Y-121714686D02*
X125984000Y-122936000D01*
X115824000Y-122936000D02*
X118364000Y-120396000D01*
X115824000Y-128016000D02*
X115824000Y-122936000D01*
X115062000Y-128778000D02*
X115824000Y-128016000D01*
X124665314Y-120396000D02*
X125984000Y-121714686D01*
X113030000Y-128778000D02*
X115062000Y-128778000D01*
X109474000Y-132334000D02*
X113030000Y-128778000D01*
X40894000Y-132334000D02*
X44450000Y-128778000D01*
X44450000Y-128778000D02*
X46482000Y-128778000D01*
X56085314Y-120396000D02*
X57404000Y-121714686D01*
X46482000Y-128778000D02*
X47244000Y-128016000D01*
X47244000Y-128016000D02*
X47244000Y-122936000D01*
X47244000Y-122936000D02*
X49784000Y-120396000D01*
X57404000Y-121714686D02*
X57404000Y-122936000D01*
X49784000Y-120396000D02*
X56085314Y-120396000D01*
X255524000Y-120396000D02*
X261825314Y-120396000D01*
X263144000Y-121714686D02*
X263144000Y-122936000D01*
X252984000Y-122936000D02*
X255524000Y-120396000D01*
X252984000Y-128016000D02*
X252984000Y-122936000D01*
X252222000Y-128778000D02*
X252984000Y-128016000D01*
X261825314Y-120396000D02*
X263144000Y-121714686D01*
X250190000Y-128778000D02*
X252222000Y-128778000D01*
X246634000Y-132334000D02*
X250190000Y-128778000D01*
X255524000Y-3556000D02*
X261825314Y-3556000D01*
X263144000Y-4874686D02*
X263144000Y-6096000D01*
X252984000Y-6096000D02*
X255524000Y-3556000D01*
X252984000Y-11176000D02*
X252984000Y-6096000D01*
X252222000Y-11938000D02*
X252984000Y-11176000D01*
X261825314Y-3556000D02*
X263144000Y-4874686D01*
X250190000Y-11938000D02*
X252222000Y-11938000D01*
X246634000Y-15494000D02*
X250190000Y-11938000D01*
X246634000Y-73914000D02*
X250190000Y-70358000D01*
X250190000Y-70358000D02*
X252222000Y-70358000D01*
X261825314Y-61976000D02*
X263144000Y-63294686D01*
X252222000Y-70358000D02*
X252984000Y-69596000D01*
X252984000Y-69596000D02*
X252984000Y-64516000D01*
X252984000Y-64516000D02*
X255524000Y-61976000D01*
X263144000Y-63294686D02*
X263144000Y-64516000D01*
X255524000Y-61976000D02*
X261825314Y-61976000D01*
X49784000Y-61976000D02*
X56085314Y-61976000D01*
X57404000Y-63294686D02*
X57404000Y-64516000D01*
X47244000Y-64516000D02*
X49784000Y-61976000D01*
X47244000Y-69596000D02*
X47244000Y-64516000D01*
X46482000Y-70358000D02*
X47244000Y-69596000D01*
X56085314Y-61976000D02*
X57404000Y-63294686D01*
X44450000Y-70358000D02*
X46482000Y-70358000D01*
X40894000Y-73914000D02*
X44450000Y-70358000D01*
X109474000Y-73914000D02*
X113030000Y-70358000D01*
X113030000Y-70358000D02*
X115062000Y-70358000D01*
X124665314Y-61976000D02*
X125984000Y-63294686D01*
X115062000Y-70358000D02*
X115824000Y-69596000D01*
X115824000Y-69596000D02*
X115824000Y-64516000D01*
X115824000Y-64516000D02*
X118364000Y-61976000D01*
X125984000Y-63294686D02*
X125984000Y-64516000D01*
X118364000Y-61976000D02*
X124665314Y-61976000D01*
X186944000Y-61976000D02*
X193245314Y-61976000D01*
X194564000Y-63294686D02*
X194564000Y-64516000D01*
X184404000Y-64516000D02*
X186944000Y-61976000D01*
X184404000Y-69596000D02*
X184404000Y-64516000D01*
X183642000Y-70358000D02*
X184404000Y-69596000D01*
X193245314Y-61976000D02*
X194564000Y-63294686D01*
X181610000Y-70358000D02*
X183642000Y-70358000D01*
X178054000Y-73914000D02*
X181610000Y-70358000D01*
X178054000Y-15494000D02*
X181610000Y-11938000D01*
X181610000Y-11938000D02*
X183642000Y-11938000D01*
X193245314Y-3556000D02*
X194564000Y-4874686D01*
X183642000Y-11938000D02*
X184404000Y-11176000D01*
X184404000Y-11176000D02*
X184404000Y-6096000D01*
X184404000Y-6096000D02*
X186944000Y-3556000D01*
X194564000Y-4874686D02*
X194564000Y-6096000D01*
X186944000Y-3556000D02*
X193245314Y-3556000D01*
X118364000Y-3556000D02*
X124665314Y-3556000D01*
X125984000Y-4874686D02*
X125984000Y-6096000D01*
X115824000Y-6096000D02*
X118364000Y-3556000D01*
X115824000Y-11176000D02*
X115824000Y-6096000D01*
X115062000Y-11938000D02*
X115824000Y-11176000D01*
X124665314Y-3556000D02*
X125984000Y-4874686D01*
X113030000Y-11938000D02*
X115062000Y-11938000D01*
X109474000Y-15494000D02*
X113030000Y-11938000D01*
X40894000Y-15494000D02*
X44450000Y-11938000D01*
X44450000Y-11938000D02*
X46482000Y-11938000D01*
X56085314Y-3556000D02*
X57404000Y-4874686D01*
X46482000Y-11938000D02*
X47244000Y-11176000D01*
X47244000Y-11176000D02*
X47244000Y-6096000D01*
X47244000Y-6096000D02*
X49784000Y-3556000D01*
X57404000Y-4874686D02*
X57404000Y-6096000D01*
X49784000Y-3556000D02*
X56085314Y-3556000D01*
X192024000Y-122936000D02*
X190246000Y-121158000D01*
X183642000Y-129794000D02*
X182351684Y-129794000D01*
X190246000Y-121158000D02*
X187452000Y-121158000D01*
X185166000Y-128270000D02*
X183642000Y-129794000D01*
X170942000Y-131318000D02*
X169926000Y-132334000D01*
X187452000Y-121158000D02*
X185166000Y-123444000D01*
X185166000Y-123444000D02*
X185166000Y-128270000D01*
X182351684Y-129794000D02*
X178795682Y-133350002D01*
X178795682Y-133350002D02*
X177546002Y-133350002D01*
X177546002Y-133350002D02*
X175514000Y-131318000D01*
X175514000Y-131318000D02*
X170942000Y-131318000D01*
X106934000Y-131318000D02*
X102362000Y-131318000D01*
X108966002Y-133350002D02*
X106934000Y-131318000D01*
X110215682Y-133350002D02*
X108966002Y-133350002D01*
X113771684Y-129794000D02*
X110215682Y-133350002D01*
X116586000Y-123444000D02*
X116586000Y-128270000D01*
X118872000Y-121158000D02*
X116586000Y-123444000D01*
X102362000Y-131318000D02*
X101346000Y-132334000D01*
X116586000Y-128270000D02*
X115062000Y-129794000D01*
X121666000Y-121158000D02*
X118872000Y-121158000D01*
X115062000Y-129794000D02*
X113771684Y-129794000D01*
X123444000Y-122936000D02*
X121666000Y-121158000D01*
X54864000Y-122936000D02*
X53086000Y-121158000D01*
X46482000Y-129794000D02*
X45191684Y-129794000D01*
X53086000Y-121158000D02*
X50292000Y-121158000D01*
X48006000Y-128270000D02*
X46482000Y-129794000D01*
X33782000Y-131318000D02*
X32766000Y-132334000D01*
X50292000Y-121158000D02*
X48006000Y-123444000D01*
X48006000Y-123444000D02*
X48006000Y-128270000D01*
X45191684Y-129794000D02*
X41635682Y-133350002D01*
X41635682Y-133350002D02*
X40386002Y-133350002D01*
X40386002Y-133350002D02*
X38354000Y-131318000D01*
X38354000Y-131318000D02*
X33782000Y-131318000D01*
X244094000Y-131318000D02*
X239522000Y-131318000D01*
X246126002Y-133350002D02*
X244094000Y-131318000D01*
X247375682Y-133350002D02*
X246126002Y-133350002D01*
X250931684Y-129794000D02*
X247375682Y-133350002D01*
X253746000Y-123444000D02*
X253746000Y-128270000D01*
X256032000Y-121158000D02*
X253746000Y-123444000D01*
X239522000Y-131318000D02*
X238506000Y-132334000D01*
X253746000Y-128270000D02*
X252222000Y-129794000D01*
X258826000Y-121158000D02*
X256032000Y-121158000D01*
X252222000Y-129794000D02*
X250931684Y-129794000D01*
X260604000Y-122936000D02*
X258826000Y-121158000D01*
X244094000Y-14478000D02*
X239522000Y-14478000D01*
X246126002Y-16510002D02*
X244094000Y-14478000D01*
X247375682Y-16510002D02*
X246126002Y-16510002D01*
X250931684Y-12954000D02*
X247375682Y-16510002D01*
X253746000Y-6604000D02*
X253746000Y-11430000D01*
X256032000Y-4318000D02*
X253746000Y-6604000D01*
X239522000Y-14478000D02*
X238506000Y-15494000D01*
X253746000Y-11430000D02*
X252222000Y-12954000D01*
X258826000Y-4318000D02*
X256032000Y-4318000D01*
X252222000Y-12954000D02*
X250931684Y-12954000D01*
X260604000Y-6096000D02*
X258826000Y-4318000D01*
X260604000Y-64516000D02*
X258826000Y-62738000D01*
X252222000Y-71374000D02*
X250931684Y-71374000D01*
X258826000Y-62738000D02*
X256032000Y-62738000D01*
X253746000Y-69850000D02*
X252222000Y-71374000D01*
X239522000Y-72898000D02*
X238506000Y-73914000D01*
X256032000Y-62738000D02*
X253746000Y-65024000D01*
X253746000Y-65024000D02*
X253746000Y-69850000D01*
X250931684Y-71374000D02*
X247375682Y-74930002D01*
X247375682Y-74930002D02*
X246126002Y-74930002D01*
X246126002Y-74930002D02*
X244094000Y-72898000D01*
X244094000Y-72898000D02*
X239522000Y-72898000D01*
X38354000Y-72898000D02*
X33782000Y-72898000D01*
X40386002Y-74930002D02*
X38354000Y-72898000D01*
X41635682Y-74930002D02*
X40386002Y-74930002D01*
X45191684Y-71374000D02*
X41635682Y-74930002D01*
X48006000Y-65024000D02*
X48006000Y-69850000D01*
X50292000Y-62738000D02*
X48006000Y-65024000D01*
X33782000Y-72898000D02*
X32766000Y-73914000D01*
X48006000Y-69850000D02*
X46482000Y-71374000D01*
X53086000Y-62738000D02*
X50292000Y-62738000D01*
X46482000Y-71374000D02*
X45191684Y-71374000D01*
X54864000Y-64516000D02*
X53086000Y-62738000D01*
X123444000Y-64516000D02*
X121666000Y-62738000D01*
X115062000Y-71374000D02*
X113771684Y-71374000D01*
X121666000Y-62738000D02*
X118872000Y-62738000D01*
X116586000Y-69850000D02*
X115062000Y-71374000D01*
X102362000Y-72898000D02*
X101346000Y-73914000D01*
X118872000Y-62738000D02*
X116586000Y-65024000D01*
X116586000Y-65024000D02*
X116586000Y-69850000D01*
X113771684Y-71374000D02*
X110215682Y-74930002D01*
X110215682Y-74930002D02*
X108966002Y-74930002D01*
X108966002Y-74930002D02*
X106934000Y-72898000D01*
X106934000Y-72898000D02*
X102362000Y-72898000D01*
X175514000Y-72898000D02*
X170942000Y-72898000D01*
X177546002Y-74930002D02*
X175514000Y-72898000D01*
X178795682Y-74930002D02*
X177546002Y-74930002D01*
X182351684Y-71374000D02*
X178795682Y-74930002D01*
X185166000Y-65024000D02*
X185166000Y-69850000D01*
X187452000Y-62738000D02*
X185166000Y-65024000D01*
X170942000Y-72898000D02*
X169926000Y-73914000D01*
X185166000Y-69850000D02*
X183642000Y-71374000D01*
X190246000Y-62738000D02*
X187452000Y-62738000D01*
X183642000Y-71374000D02*
X182351684Y-71374000D01*
X192024000Y-64516000D02*
X190246000Y-62738000D01*
X192024000Y-6096000D02*
X190246000Y-4318000D01*
X183642000Y-12954000D02*
X182351684Y-12954000D01*
X190246000Y-4318000D02*
X187452000Y-4318000D01*
X185166000Y-11430000D02*
X183642000Y-12954000D01*
X170942000Y-14478000D02*
X169926000Y-15494000D01*
X187452000Y-4318000D02*
X185166000Y-6604000D01*
X185166000Y-6604000D02*
X185166000Y-11430000D01*
X182351684Y-12954000D02*
X178795682Y-16510002D01*
X178795682Y-16510002D02*
X177546002Y-16510002D01*
X177546002Y-16510002D02*
X175514000Y-14478000D01*
X175514000Y-14478000D02*
X170942000Y-14478000D01*
X106934000Y-14478000D02*
X102362000Y-14478000D01*
X108966002Y-16510002D02*
X106934000Y-14478000D01*
X110215682Y-16510002D02*
X108966002Y-16510002D01*
X113771684Y-12954000D02*
X110215682Y-16510002D01*
X116586000Y-6604000D02*
X116586000Y-11430000D01*
X118872000Y-4318000D02*
X116586000Y-6604000D01*
X102362000Y-14478000D02*
X101346000Y-15494000D01*
X116586000Y-11430000D02*
X115062000Y-12954000D01*
X121666000Y-4318000D02*
X118872000Y-4318000D01*
X115062000Y-12954000D02*
X113771684Y-12954000D01*
X123444000Y-6096000D02*
X121666000Y-4318000D01*
X54864000Y-6096000D02*
X53086000Y-4318000D01*
X46482000Y-12954000D02*
X45191684Y-12954000D01*
X53086000Y-4318000D02*
X50292000Y-4318000D01*
X48006000Y-11430000D02*
X46482000Y-12954000D01*
X33782000Y-14478000D02*
X32766000Y-15494000D01*
X50292000Y-4318000D02*
X48006000Y-6604000D01*
X48006000Y-6604000D02*
X48006000Y-11430000D01*
X45191684Y-12954000D02*
X41635682Y-16510002D01*
X41635682Y-16510002D02*
X40386002Y-16510002D01*
X40386002Y-16510002D02*
X38354000Y-14478000D01*
X38354000Y-14478000D02*
X33782000Y-14478000D01*
X168402000Y-133604000D02*
X167132000Y-132334000D01*
X167132000Y-132334000D02*
X164846000Y-132334000D01*
X168910000Y-133604000D02*
X168402000Y-133604000D01*
X171450000Y-133604000D02*
X168910000Y-133604000D01*
X171958000Y-133096000D02*
X171450000Y-133604000D01*
X172974000Y-132080000D02*
X171958000Y-133096000D01*
X175260000Y-132080000D02*
X172974000Y-132080000D01*
X177139612Y-133959612D02*
X175260000Y-132080000D01*
X177313808Y-133959612D02*
X177139612Y-133959612D01*
X184150000Y-130556000D02*
X182451804Y-130556000D01*
X179048191Y-133959613D02*
X177313808Y-133959612D01*
X185928000Y-126492000D02*
X185928000Y-128778000D01*
X185928000Y-128778000D02*
X184150000Y-130556000D01*
X189484000Y-122936000D02*
X185928000Y-126492000D01*
X182451804Y-130556000D02*
X179048191Y-133959613D01*
X113871804Y-130556000D02*
X110468191Y-133959613D01*
X120904000Y-122936000D02*
X117348000Y-126492000D01*
X117348000Y-128778000D02*
X115570000Y-130556000D01*
X117348000Y-126492000D02*
X117348000Y-128778000D01*
X110468191Y-133959613D02*
X108733808Y-133959612D01*
X115570000Y-130556000D02*
X113871804Y-130556000D01*
X108733808Y-133959612D02*
X108559612Y-133959612D01*
X108559612Y-133959612D02*
X106680000Y-132080000D01*
X106680000Y-132080000D02*
X104394000Y-132080000D01*
X104394000Y-132080000D02*
X103378000Y-133096000D01*
X103378000Y-133096000D02*
X102870000Y-133604000D01*
X102870000Y-133604000D02*
X100330000Y-133604000D01*
X100330000Y-133604000D02*
X99822000Y-133604000D01*
X98552000Y-132334000D02*
X96266000Y-132334000D01*
X99822000Y-133604000D02*
X98552000Y-132334000D01*
X31242000Y-133604000D02*
X29972000Y-132334000D01*
X29972000Y-132334000D02*
X27686000Y-132334000D01*
X31750000Y-133604000D02*
X31242000Y-133604000D01*
X34290000Y-133604000D02*
X31750000Y-133604000D01*
X34798000Y-133096000D02*
X34290000Y-133604000D01*
X35814000Y-132080000D02*
X34798000Y-133096000D01*
X38100000Y-132080000D02*
X35814000Y-132080000D01*
X39979612Y-133959612D02*
X38100000Y-132080000D01*
X40153808Y-133959612D02*
X39979612Y-133959612D01*
X46990000Y-130556000D02*
X45291804Y-130556000D01*
X41888191Y-133959613D02*
X40153808Y-133959612D01*
X48768000Y-126492000D02*
X48768000Y-128778000D01*
X48768000Y-128778000D02*
X46990000Y-130556000D01*
X52324000Y-122936000D02*
X48768000Y-126492000D01*
X45291804Y-130556000D02*
X41888191Y-133959613D01*
X251031804Y-130556000D02*
X247628191Y-133959613D01*
X258064000Y-122936000D02*
X254508000Y-126492000D01*
X254508000Y-128778000D02*
X252730000Y-130556000D01*
X254508000Y-126492000D02*
X254508000Y-128778000D01*
X247628191Y-133959613D02*
X245893808Y-133959612D01*
X252730000Y-130556000D02*
X251031804Y-130556000D01*
X245893808Y-133959612D02*
X245719612Y-133959612D01*
X245719612Y-133959612D02*
X243840000Y-132080000D01*
X243840000Y-132080000D02*
X241554000Y-132080000D01*
X241554000Y-132080000D02*
X240538000Y-133096000D01*
X240538000Y-133096000D02*
X240030000Y-133604000D01*
X240030000Y-133604000D02*
X237490000Y-133604000D01*
X237490000Y-133604000D02*
X236982000Y-133604000D01*
X235712000Y-132334000D02*
X233426000Y-132334000D01*
X236982000Y-133604000D02*
X235712000Y-132334000D01*
X251031804Y-13716000D02*
X247628191Y-17119613D01*
X258064000Y-6096000D02*
X254508000Y-9652000D01*
X254508000Y-11938000D02*
X252730000Y-13716000D01*
X254508000Y-9652000D02*
X254508000Y-11938000D01*
X247628191Y-17119613D02*
X245893808Y-17119612D01*
X252730000Y-13716000D02*
X251031804Y-13716000D01*
X245893808Y-17119612D02*
X245719612Y-17119612D01*
X245719612Y-17119612D02*
X243840000Y-15240000D01*
X243840000Y-15240000D02*
X241554000Y-15240000D01*
X241554000Y-15240000D02*
X240538000Y-16256000D01*
X240538000Y-16256000D02*
X240030000Y-16764000D01*
X240030000Y-16764000D02*
X237490000Y-16764000D01*
X237490000Y-16764000D02*
X236982000Y-16764000D01*
X235712000Y-15494000D02*
X233426000Y-15494000D01*
X236982000Y-16764000D02*
X235712000Y-15494000D01*
X236982000Y-75184000D02*
X235712000Y-73914000D01*
X235712000Y-73914000D02*
X233426000Y-73914000D01*
X237490000Y-75184000D02*
X236982000Y-75184000D01*
X240030000Y-75184000D02*
X237490000Y-75184000D01*
X240538000Y-74676000D02*
X240030000Y-75184000D01*
X241554000Y-73660000D02*
X240538000Y-74676000D01*
X243840000Y-73660000D02*
X241554000Y-73660000D01*
X245719612Y-75539612D02*
X243840000Y-73660000D01*
X245893808Y-75539612D02*
X245719612Y-75539612D01*
X252730000Y-72136000D02*
X251031804Y-72136000D01*
X247628191Y-75539613D02*
X245893808Y-75539612D01*
X254508000Y-68072000D02*
X254508000Y-70358000D01*
X254508000Y-70358000D02*
X252730000Y-72136000D01*
X258064000Y-64516000D02*
X254508000Y-68072000D01*
X251031804Y-72136000D02*
X247628191Y-75539613D01*
X45291804Y-72136000D02*
X41888191Y-75539613D01*
X52324000Y-64516000D02*
X48768000Y-68072000D01*
X48768000Y-70358000D02*
X46990000Y-72136000D01*
X48768000Y-68072000D02*
X48768000Y-70358000D01*
X41888191Y-75539613D02*
X40153808Y-75539612D01*
X46990000Y-72136000D02*
X45291804Y-72136000D01*
X40153808Y-75539612D02*
X39979612Y-75539612D01*
X39979612Y-75539612D02*
X38100000Y-73660000D01*
X38100000Y-73660000D02*
X35814000Y-73660000D01*
X35814000Y-73660000D02*
X34798000Y-74676000D01*
X34798000Y-74676000D02*
X34290000Y-75184000D01*
X34290000Y-75184000D02*
X31750000Y-75184000D01*
X31750000Y-75184000D02*
X31242000Y-75184000D01*
X29972000Y-73914000D02*
X27686000Y-73914000D01*
X31242000Y-75184000D02*
X29972000Y-73914000D01*
X99822000Y-75184000D02*
X98552000Y-73914000D01*
X98552000Y-73914000D02*
X96266000Y-73914000D01*
X100330000Y-75184000D02*
X99822000Y-75184000D01*
X102870000Y-75184000D02*
X100330000Y-75184000D01*
X103378000Y-74676000D02*
X102870000Y-75184000D01*
X104394000Y-73660000D02*
X103378000Y-74676000D01*
X106680000Y-73660000D02*
X104394000Y-73660000D01*
X108559612Y-75539612D02*
X106680000Y-73660000D01*
X108733808Y-75539612D02*
X108559612Y-75539612D01*
X115570000Y-72136000D02*
X113871804Y-72136000D01*
X110468191Y-75539613D02*
X108733808Y-75539612D01*
X117348000Y-68072000D02*
X117348000Y-70358000D01*
X117348000Y-70358000D02*
X115570000Y-72136000D01*
X120904000Y-64516000D02*
X117348000Y-68072000D01*
X113871804Y-72136000D02*
X110468191Y-75539613D01*
X182451804Y-72136000D02*
X179048191Y-75539613D01*
X189484000Y-64516000D02*
X185928000Y-68072000D01*
X185928000Y-70358000D02*
X184150000Y-72136000D01*
X185928000Y-68072000D02*
X185928000Y-70358000D01*
X179048191Y-75539613D02*
X177313808Y-75539612D01*
X184150000Y-72136000D02*
X182451804Y-72136000D01*
X177313808Y-75539612D02*
X177139612Y-75539612D01*
X177139612Y-75539612D02*
X175260000Y-73660000D01*
X175260000Y-73660000D02*
X172974000Y-73660000D01*
X172974000Y-73660000D02*
X171958000Y-74676000D01*
X171958000Y-74676000D02*
X171450000Y-75184000D01*
X171450000Y-75184000D02*
X168910000Y-75184000D01*
X168910000Y-75184000D02*
X168402000Y-75184000D01*
X167132000Y-73914000D02*
X164846000Y-73914000D01*
X168402000Y-75184000D02*
X167132000Y-73914000D01*
X168402000Y-16764000D02*
X167132000Y-15494000D01*
X167132000Y-15494000D02*
X164846000Y-15494000D01*
X168910000Y-16764000D02*
X168402000Y-16764000D01*
X171450000Y-16764000D02*
X168910000Y-16764000D01*
X171958000Y-16256000D02*
X171450000Y-16764000D01*
X172974000Y-15240000D02*
X171958000Y-16256000D01*
X175260000Y-15240000D02*
X172974000Y-15240000D01*
X177139612Y-17119612D02*
X175260000Y-15240000D01*
X177313808Y-17119612D02*
X177139612Y-17119612D01*
X184150000Y-13716000D02*
X182451804Y-13716000D01*
X179048191Y-17119613D02*
X177313808Y-17119612D01*
X185928000Y-9652000D02*
X185928000Y-11938000D01*
X185928000Y-11938000D02*
X184150000Y-13716000D01*
X189484000Y-6096000D02*
X185928000Y-9652000D01*
X182451804Y-13716000D02*
X179048191Y-17119613D01*
X113871804Y-13716000D02*
X110468191Y-17119613D01*
X120904000Y-6096000D02*
X117348000Y-9652000D01*
X117348000Y-11938000D02*
X115570000Y-13716000D01*
X117348000Y-9652000D02*
X117348000Y-11938000D01*
X110468191Y-17119613D02*
X108733808Y-17119612D01*
X115570000Y-13716000D02*
X113871804Y-13716000D01*
X108733808Y-17119612D02*
X108559612Y-17119612D01*
X108559612Y-17119612D02*
X106680000Y-15240000D01*
X106680000Y-15240000D02*
X104394000Y-15240000D01*
X104394000Y-15240000D02*
X103378000Y-16256000D01*
X103378000Y-16256000D02*
X102870000Y-16764000D01*
X102870000Y-16764000D02*
X100330000Y-16764000D01*
X100330000Y-16764000D02*
X99822000Y-16764000D01*
X98552000Y-15494000D02*
X96266000Y-15494000D01*
X99822000Y-16764000D02*
X98552000Y-15494000D01*
X31242000Y-16764000D02*
X29972000Y-15494000D01*
X29972000Y-15494000D02*
X27686000Y-15494000D01*
X31750000Y-16764000D02*
X31242000Y-16764000D01*
X34290000Y-16764000D02*
X31750000Y-16764000D01*
X34798000Y-16256000D02*
X34290000Y-16764000D01*
X35814000Y-15240000D02*
X34798000Y-16256000D01*
X38100000Y-15240000D02*
X35814000Y-15240000D01*
X39979612Y-17119612D02*
X38100000Y-15240000D01*
X40153808Y-17119612D02*
X39979612Y-17119612D01*
X46990000Y-13716000D02*
X45291804Y-13716000D01*
X41888191Y-17119613D02*
X40153808Y-17119612D01*
X48768000Y-9652000D02*
X48768000Y-11938000D01*
X48768000Y-11938000D02*
X46990000Y-13716000D01*
X52324000Y-6096000D02*
X48768000Y-9652000D01*
X45291804Y-13716000D02*
X41888191Y-17119613D01*
D17*
X155194000Y-143168368D02*
X155669643Y-143644011D01*
X155194000Y-134366000D02*
X155194000Y-143168368D01*
X86614000Y-134366000D02*
X86614000Y-143168368D01*
X86614000Y-143168368D02*
X87089643Y-143644011D01*
X18034000Y-143168368D02*
X18509643Y-143644011D01*
X18034000Y-134366000D02*
X18034000Y-143168368D01*
X223774000Y-134366000D02*
X223774000Y-143168368D01*
X223774000Y-143168368D02*
X224249643Y-143644011D01*
X223774000Y-17526000D02*
X223774000Y-26328368D01*
X223774000Y-26328368D02*
X224249643Y-26804011D01*
X223774000Y-84748368D02*
X224249643Y-85224011D01*
X223774000Y-75946000D02*
X223774000Y-84748368D01*
X18034000Y-75946000D02*
X18034000Y-84748368D01*
X18034000Y-84748368D02*
X18509643Y-85224011D01*
X86614000Y-84748368D02*
X87089643Y-85224011D01*
X86614000Y-75946000D02*
X86614000Y-84748368D01*
X155194000Y-75946000D02*
X155194000Y-84748368D01*
X155194000Y-84748368D02*
X155669643Y-85224011D01*
X155194000Y-26328368D02*
X155669643Y-26804011D01*
X155194000Y-17526000D02*
X155194000Y-26328368D01*
X86614000Y-17526000D02*
X86614000Y-26328368D01*
X86614000Y-26328368D02*
X87089643Y-26804011D01*
X18034000Y-26328368D02*
X18509643Y-26804011D01*
X18034000Y-17526000D02*
X18034000Y-26328368D01*
X154178000Y-130402104D02*
X154178000Y-138176000D01*
X154178000Y-129540000D02*
X154178000Y-130402104D01*
X162052000Y-130048000D02*
X154686000Y-130048000D01*
X154686000Y-130048000D02*
X154178000Y-129540000D01*
X86106000Y-130048000D02*
X85598000Y-129540000D01*
X93472000Y-130048000D02*
X86106000Y-130048000D01*
X85598000Y-129540000D02*
X85598000Y-130402104D01*
X85598000Y-130402104D02*
X85598000Y-138176000D01*
X17018000Y-130402104D02*
X17018000Y-138176000D01*
X17018000Y-129540000D02*
X17018000Y-130402104D01*
X24892000Y-130048000D02*
X17526000Y-130048000D01*
X17526000Y-130048000D02*
X17018000Y-129540000D01*
X223266000Y-130048000D02*
X222758000Y-129540000D01*
X230632000Y-130048000D02*
X223266000Y-130048000D01*
X222758000Y-129540000D02*
X222758000Y-130402104D01*
X222758000Y-130402104D02*
X222758000Y-138176000D01*
X223266000Y-13208000D02*
X222758000Y-12700000D01*
X230632000Y-13208000D02*
X223266000Y-13208000D01*
X222758000Y-12700000D02*
X222758000Y-13562104D01*
X222758000Y-13562104D02*
X222758000Y-21336000D01*
X222758000Y-71982104D02*
X222758000Y-79756000D01*
X222758000Y-71120000D02*
X222758000Y-71982104D01*
X230632000Y-71628000D02*
X223266000Y-71628000D01*
X223266000Y-71628000D02*
X222758000Y-71120000D01*
X17526000Y-71628000D02*
X17018000Y-71120000D01*
X24892000Y-71628000D02*
X17526000Y-71628000D01*
X17018000Y-71120000D02*
X17018000Y-71982104D01*
X17018000Y-71982104D02*
X17018000Y-79756000D01*
X85598000Y-71982104D02*
X85598000Y-79756000D01*
X85598000Y-71120000D02*
X85598000Y-71982104D01*
X93472000Y-71628000D02*
X86106000Y-71628000D01*
X86106000Y-71628000D02*
X85598000Y-71120000D01*
X154686000Y-71628000D02*
X154178000Y-71120000D01*
X162052000Y-71628000D02*
X154686000Y-71628000D01*
X154178000Y-71120000D02*
X154178000Y-71982104D01*
X154178000Y-71982104D02*
X154178000Y-79756000D01*
X154178000Y-13562104D02*
X154178000Y-21336000D01*
X154178000Y-12700000D02*
X154178000Y-13562104D01*
X162052000Y-13208000D02*
X154686000Y-13208000D01*
X154686000Y-13208000D02*
X154178000Y-12700000D01*
X86106000Y-13208000D02*
X85598000Y-12700000D01*
X93472000Y-13208000D02*
X86106000Y-13208000D01*
X85598000Y-12700000D02*
X85598000Y-13562104D01*
X85598000Y-13562104D02*
X85598000Y-21336000D01*
X17018000Y-13562104D02*
X17018000Y-21336000D01*
X17018000Y-12700000D02*
X17018000Y-13562104D01*
X24892000Y-13208000D02*
X17526000Y-13208000D01*
X17526000Y-13208000D02*
X17018000Y-12700000D01*
X156075538Y-144583813D02*
X157014940Y-143644411D01*
X154918129Y-144583813D02*
X156075538Y-144583813D01*
X152908000Y-127762000D02*
X152908000Y-142573684D01*
X157014940Y-143644411D02*
X157014940Y-143181807D01*
X152908000Y-142573684D02*
X154918129Y-144583813D01*
X84328000Y-142573684D02*
X86338129Y-144583813D01*
X88434940Y-143644411D02*
X88434940Y-143181807D01*
X84328000Y-127762000D02*
X84328000Y-142573684D01*
X86338129Y-144583813D02*
X87495538Y-144583813D01*
X87495538Y-144583813D02*
X88434940Y-143644411D01*
X18915538Y-144583813D02*
X19854940Y-143644411D01*
X17758129Y-144583813D02*
X18915538Y-144583813D01*
X15748000Y-127762000D02*
X15748000Y-142573684D01*
X19854940Y-143644411D02*
X19854940Y-143181807D01*
X15748000Y-142573684D02*
X17758129Y-144583813D01*
X221488000Y-142573684D02*
X223498129Y-144583813D01*
X225594940Y-143644411D02*
X225594940Y-143181807D01*
X221488000Y-127762000D02*
X221488000Y-142573684D01*
X223498129Y-144583813D02*
X224655538Y-144583813D01*
X224655538Y-144583813D02*
X225594940Y-143644411D01*
X221488000Y-25733684D02*
X223498129Y-27743813D01*
X225594940Y-26804411D02*
X225594940Y-26341807D01*
X221488000Y-10922000D02*
X221488000Y-25733684D01*
X223498129Y-27743813D02*
X224655538Y-27743813D01*
X224655538Y-27743813D02*
X225594940Y-26804411D01*
X224655538Y-86163813D02*
X225594940Y-85224411D01*
X223498129Y-86163813D02*
X224655538Y-86163813D01*
X221488000Y-69342000D02*
X221488000Y-84153684D01*
X225594940Y-85224411D02*
X225594940Y-84761807D01*
X221488000Y-84153684D02*
X223498129Y-86163813D01*
X15748000Y-84153684D02*
X17758129Y-86163813D01*
X19854940Y-85224411D02*
X19854940Y-84761807D01*
X15748000Y-69342000D02*
X15748000Y-84153684D01*
X17758129Y-86163813D02*
X18915538Y-86163813D01*
X18915538Y-86163813D02*
X19854940Y-85224411D01*
X87495538Y-86163813D02*
X88434940Y-85224411D01*
X86338129Y-86163813D02*
X87495538Y-86163813D01*
X84328000Y-69342000D02*
X84328000Y-84153684D01*
X88434940Y-85224411D02*
X88434940Y-84761807D01*
X84328000Y-84153684D02*
X86338129Y-86163813D01*
X152908000Y-84153684D02*
X154918129Y-86163813D01*
X157014940Y-85224411D02*
X157014940Y-84761807D01*
X152908000Y-69342000D02*
X152908000Y-84153684D01*
X154918129Y-86163813D02*
X156075538Y-86163813D01*
X156075538Y-86163813D02*
X157014940Y-85224411D01*
X156075538Y-27743813D02*
X157014940Y-26804411D01*
X154918129Y-27743813D02*
X156075538Y-27743813D01*
X152908000Y-10922000D02*
X152908000Y-25733684D01*
X157014940Y-26804411D02*
X157014940Y-26341807D01*
X152908000Y-25733684D02*
X154918129Y-27743813D01*
X84328000Y-25733684D02*
X86338129Y-27743813D01*
X88434940Y-26804411D02*
X88434940Y-26341807D01*
X84328000Y-10922000D02*
X84328000Y-25733684D01*
X86338129Y-27743813D02*
X87495538Y-27743813D01*
X87495538Y-27743813D02*
X88434940Y-26804411D01*
X18915538Y-27743813D02*
X19854940Y-26804411D01*
X17758129Y-27743813D02*
X18915538Y-27743813D01*
X15748000Y-10922000D02*
X15748000Y-25733684D01*
X19854940Y-26804411D02*
X19854940Y-26341807D01*
X15748000Y-25733684D02*
X17758129Y-27743813D01*
X182118000Y-154940000D02*
X183134000Y-153924000D01*
X183134000Y-153924000D02*
X183134000Y-141478000D01*
X166370000Y-154940000D02*
X182118000Y-154940000D01*
X159512000Y-154940000D02*
X166370000Y-154940000D01*
X158673801Y-154101801D02*
X159512000Y-154940000D01*
X156993247Y-150743351D02*
X156993247Y-149881247D01*
X158673801Y-154101801D02*
X156972000Y-152400000D01*
X156972000Y-152400000D02*
X156972000Y-150764598D01*
X156972000Y-150764598D02*
X156993247Y-150743351D01*
X88392000Y-150764598D02*
X88413247Y-150743351D01*
X88392000Y-152400000D02*
X88392000Y-150764598D01*
X90093801Y-154101801D02*
X88392000Y-152400000D01*
X88413247Y-150743351D02*
X88413247Y-149881247D01*
X90093801Y-154101801D02*
X90932000Y-154940000D01*
X90932000Y-154940000D02*
X97790000Y-154940000D01*
X97790000Y-154940000D02*
X113538000Y-154940000D01*
X114554000Y-153924000D02*
X114554000Y-141478000D01*
X113538000Y-154940000D02*
X114554000Y-153924000D01*
X44958000Y-154940000D02*
X45974000Y-153924000D01*
X45974000Y-153924000D02*
X45974000Y-141478000D01*
X29210000Y-154940000D02*
X44958000Y-154940000D01*
X22352000Y-154940000D02*
X29210000Y-154940000D01*
X21513801Y-154101801D02*
X22352000Y-154940000D01*
X19833247Y-150743351D02*
X19833247Y-149881247D01*
X21513801Y-154101801D02*
X19812000Y-152400000D01*
X19812000Y-152400000D02*
X19812000Y-150764598D01*
X19812000Y-150764598D02*
X19833247Y-150743351D01*
X225552000Y-150764598D02*
X225573247Y-150743351D01*
X225552000Y-152400000D02*
X225552000Y-150764598D01*
X227253801Y-154101801D02*
X225552000Y-152400000D01*
X225573247Y-150743351D02*
X225573247Y-149881247D01*
X227253801Y-154101801D02*
X228092000Y-154940000D01*
X228092000Y-154940000D02*
X234950000Y-154940000D01*
X234950000Y-154940000D02*
X250698000Y-154940000D01*
X251714000Y-153924000D02*
X251714000Y-141478000D01*
X250698000Y-154940000D02*
X251714000Y-153924000D01*
X225552000Y-33924598D02*
X225573247Y-33903351D01*
X225552000Y-35560000D02*
X225552000Y-33924598D01*
X227253801Y-37261801D02*
X225552000Y-35560000D01*
X225573247Y-33903351D02*
X225573247Y-33041247D01*
X227253801Y-37261801D02*
X228092000Y-38100000D01*
X228092000Y-38100000D02*
X234950000Y-38100000D01*
X234950000Y-38100000D02*
X250698000Y-38100000D01*
X251714000Y-37084000D02*
X251714000Y-24638000D01*
X250698000Y-38100000D02*
X251714000Y-37084000D01*
X250698000Y-96520000D02*
X251714000Y-95504000D01*
X251714000Y-95504000D02*
X251714000Y-83058000D01*
X234950000Y-96520000D02*
X250698000Y-96520000D01*
X228092000Y-96520000D02*
X234950000Y-96520000D01*
X227253801Y-95681801D02*
X228092000Y-96520000D01*
X225573247Y-92323351D02*
X225573247Y-91461247D01*
X227253801Y-95681801D02*
X225552000Y-93980000D01*
X225552000Y-93980000D02*
X225552000Y-92344598D01*
X225552000Y-92344598D02*
X225573247Y-92323351D01*
X19812000Y-92344598D02*
X19833247Y-92323351D01*
X19812000Y-93980000D02*
X19812000Y-92344598D01*
X21513801Y-95681801D02*
X19812000Y-93980000D01*
X19833247Y-92323351D02*
X19833247Y-91461247D01*
X21513801Y-95681801D02*
X22352000Y-96520000D01*
X22352000Y-96520000D02*
X29210000Y-96520000D01*
X29210000Y-96520000D02*
X44958000Y-96520000D01*
X45974000Y-95504000D02*
X45974000Y-83058000D01*
X44958000Y-96520000D02*
X45974000Y-95504000D01*
X113538000Y-96520000D02*
X114554000Y-95504000D01*
X114554000Y-95504000D02*
X114554000Y-83058000D01*
X97790000Y-96520000D02*
X113538000Y-96520000D01*
X90932000Y-96520000D02*
X97790000Y-96520000D01*
X90093801Y-95681801D02*
X90932000Y-96520000D01*
X88413247Y-92323351D02*
X88413247Y-91461247D01*
X90093801Y-95681801D02*
X88392000Y-93980000D01*
X88392000Y-93980000D02*
X88392000Y-92344598D01*
X88392000Y-92344598D02*
X88413247Y-92323351D01*
X156972000Y-92344598D02*
X156993247Y-92323351D01*
X156972000Y-93980000D02*
X156972000Y-92344598D01*
X158673801Y-95681801D02*
X156972000Y-93980000D01*
X156993247Y-92323351D02*
X156993247Y-91461247D01*
X158673801Y-95681801D02*
X159512000Y-96520000D01*
X159512000Y-96520000D02*
X166370000Y-96520000D01*
X166370000Y-96520000D02*
X182118000Y-96520000D01*
X183134000Y-95504000D02*
X183134000Y-83058000D01*
X182118000Y-96520000D02*
X183134000Y-95504000D01*
X182118000Y-38100000D02*
X183134000Y-37084000D01*
X183134000Y-37084000D02*
X183134000Y-24638000D01*
X166370000Y-38100000D02*
X182118000Y-38100000D01*
X159512000Y-38100000D02*
X166370000Y-38100000D01*
X158673801Y-37261801D02*
X159512000Y-38100000D01*
X156993247Y-33903351D02*
X156993247Y-33041247D01*
X158673801Y-37261801D02*
X156972000Y-35560000D01*
X156972000Y-35560000D02*
X156972000Y-33924598D01*
X156972000Y-33924598D02*
X156993247Y-33903351D01*
X88392000Y-33924598D02*
X88413247Y-33903351D01*
X88392000Y-35560000D02*
X88392000Y-33924598D01*
X90093801Y-37261801D02*
X88392000Y-35560000D01*
X88413247Y-33903351D02*
X88413247Y-33041247D01*
X90093801Y-37261801D02*
X90932000Y-38100000D01*
X90932000Y-38100000D02*
X97790000Y-38100000D01*
X97790000Y-38100000D02*
X113538000Y-38100000D01*
X114554000Y-37084000D02*
X114554000Y-24638000D01*
X113538000Y-38100000D02*
X114554000Y-37084000D01*
X44958000Y-38100000D02*
X45974000Y-37084000D01*
X45974000Y-37084000D02*
X45974000Y-24638000D01*
X29210000Y-38100000D02*
X44958000Y-38100000D01*
X22352000Y-38100000D02*
X29210000Y-38100000D01*
X21513801Y-37261801D02*
X22352000Y-38100000D01*
X19833247Y-33903351D02*
X19833247Y-33041247D01*
X21513801Y-37261801D02*
X19812000Y-35560000D01*
X19812000Y-35560000D02*
X19812000Y-33924598D01*
X19812000Y-33924598D02*
X19833247Y-33903351D01*
X164846000Y-142340104D02*
X164846000Y-141478000D01*
X164846000Y-148197408D02*
X164846000Y-142340104D01*
X162929408Y-150114000D02*
X164846000Y-148197408D01*
X159918413Y-150114000D02*
X162929408Y-150114000D01*
X159004000Y-149199587D02*
X159918413Y-150114000D01*
X90424000Y-149199587D02*
X91338413Y-150114000D01*
X91338413Y-150114000D02*
X94349408Y-150114000D01*
X94349408Y-150114000D02*
X96266000Y-148197408D01*
X96266000Y-148197408D02*
X96266000Y-142340104D01*
X96266000Y-142340104D02*
X96266000Y-141478000D01*
X27686000Y-142340104D02*
X27686000Y-141478000D01*
X27686000Y-148197408D02*
X27686000Y-142340104D01*
X25769408Y-150114000D02*
X27686000Y-148197408D01*
X22758413Y-150114000D02*
X25769408Y-150114000D01*
X21844000Y-149199587D02*
X22758413Y-150114000D01*
X227584000Y-149199587D02*
X228498413Y-150114000D01*
X228498413Y-150114000D02*
X231509408Y-150114000D01*
X231509408Y-150114000D02*
X233426000Y-148197408D01*
X233426000Y-148197408D02*
X233426000Y-142340104D01*
X233426000Y-142340104D02*
X233426000Y-141478000D01*
X227584000Y-32359587D02*
X228498413Y-33274000D01*
X228498413Y-33274000D02*
X231509408Y-33274000D01*
X231509408Y-33274000D02*
X233426000Y-31357408D01*
X233426000Y-31357408D02*
X233426000Y-25500104D01*
X233426000Y-25500104D02*
X233426000Y-24638000D01*
X233426000Y-83920104D02*
X233426000Y-83058000D01*
X233426000Y-89777408D02*
X233426000Y-83920104D01*
X231509408Y-91694000D02*
X233426000Y-89777408D01*
X228498413Y-91694000D02*
X231509408Y-91694000D01*
X227584000Y-90779587D02*
X228498413Y-91694000D01*
X21844000Y-90779587D02*
X22758413Y-91694000D01*
X22758413Y-91694000D02*
X25769408Y-91694000D01*
X25769408Y-91694000D02*
X27686000Y-89777408D01*
X27686000Y-89777408D02*
X27686000Y-83920104D01*
X27686000Y-83920104D02*
X27686000Y-83058000D01*
X96266000Y-83920104D02*
X96266000Y-83058000D01*
X96266000Y-89777408D02*
X96266000Y-83920104D01*
X94349408Y-91694000D02*
X96266000Y-89777408D01*
X91338413Y-91694000D02*
X94349408Y-91694000D01*
X90424000Y-90779587D02*
X91338413Y-91694000D01*
X159004000Y-90779587D02*
X159918413Y-91694000D01*
X159918413Y-91694000D02*
X162929408Y-91694000D01*
X162929408Y-91694000D02*
X164846000Y-89777408D01*
X164846000Y-89777408D02*
X164846000Y-83920104D01*
X164846000Y-83920104D02*
X164846000Y-83058000D01*
X164846000Y-25500104D02*
X164846000Y-24638000D01*
X164846000Y-31357408D02*
X164846000Y-25500104D01*
X162929408Y-33274000D02*
X164846000Y-31357408D01*
X159918413Y-33274000D02*
X162929408Y-33274000D01*
X159004000Y-32359587D02*
X159918413Y-33274000D01*
X90424000Y-32359587D02*
X91338413Y-33274000D01*
X91338413Y-33274000D02*
X94349408Y-33274000D01*
X94349408Y-33274000D02*
X96266000Y-31357408D01*
X96266000Y-31357408D02*
X96266000Y-25500104D01*
X96266000Y-25500104D02*
X96266000Y-24638000D01*
X27686000Y-25500104D02*
X27686000Y-24638000D01*
X27686000Y-31357408D02*
X27686000Y-25500104D01*
X25769408Y-33274000D02*
X27686000Y-31357408D01*
X22758413Y-33274000D02*
X25769408Y-33274000D01*
X21844000Y-32359587D02*
X22758413Y-33274000D01*
X163116811Y-150573189D02*
X167386000Y-146304000D01*
X167386000Y-146304000D02*
X167386000Y-141478000D01*
X160259970Y-150573189D02*
X163116811Y-150573189D01*
X159004000Y-150622000D02*
X160211159Y-150622000D01*
X160211159Y-150622000D02*
X160259970Y-150573189D01*
X91631159Y-150622000D02*
X91679970Y-150573189D01*
X90424000Y-150622000D02*
X91631159Y-150622000D01*
X91679970Y-150573189D02*
X94536811Y-150573189D01*
X98806000Y-146304000D02*
X98806000Y-141478000D01*
X94536811Y-150573189D02*
X98806000Y-146304000D01*
X25956811Y-150573189D02*
X30226000Y-146304000D01*
X30226000Y-146304000D02*
X30226000Y-141478000D01*
X23099970Y-150573189D02*
X25956811Y-150573189D01*
X21844000Y-150622000D02*
X23051159Y-150622000D01*
X23051159Y-150622000D02*
X23099970Y-150573189D01*
X228791159Y-150622000D02*
X228839970Y-150573189D01*
X227584000Y-150622000D02*
X228791159Y-150622000D01*
X228839970Y-150573189D02*
X231696811Y-150573189D01*
X235966000Y-146304000D02*
X235966000Y-141478000D01*
X231696811Y-150573189D02*
X235966000Y-146304000D01*
X228791159Y-33782000D02*
X228839970Y-33733189D01*
X227584000Y-33782000D02*
X228791159Y-33782000D01*
X228839970Y-33733189D02*
X231696811Y-33733189D01*
X235966000Y-29464000D02*
X235966000Y-24638000D01*
X231696811Y-33733189D02*
X235966000Y-29464000D01*
X231696811Y-92153189D02*
X235966000Y-87884000D01*
X235966000Y-87884000D02*
X235966000Y-83058000D01*
X228839970Y-92153189D02*
X231696811Y-92153189D01*
X227584000Y-92202000D02*
X228791159Y-92202000D01*
X228791159Y-92202000D02*
X228839970Y-92153189D01*
X23051159Y-92202000D02*
X23099970Y-92153189D01*
X21844000Y-92202000D02*
X23051159Y-92202000D01*
X23099970Y-92153189D02*
X25956811Y-92153189D01*
X30226000Y-87884000D02*
X30226000Y-83058000D01*
X25956811Y-92153189D02*
X30226000Y-87884000D01*
X94536811Y-92153189D02*
X98806000Y-87884000D01*
X98806000Y-87884000D02*
X98806000Y-83058000D01*
X91679970Y-92153189D02*
X94536811Y-92153189D01*
X90424000Y-92202000D02*
X91631159Y-92202000D01*
X91631159Y-92202000D02*
X91679970Y-92153189D01*
X160211159Y-92202000D02*
X160259970Y-92153189D01*
X159004000Y-92202000D02*
X160211159Y-92202000D01*
X160259970Y-92153189D02*
X163116811Y-92153189D01*
X167386000Y-87884000D02*
X167386000Y-83058000D01*
X163116811Y-92153189D02*
X167386000Y-87884000D01*
X163116811Y-33733189D02*
X167386000Y-29464000D01*
X167386000Y-29464000D02*
X167386000Y-24638000D01*
X160259970Y-33733189D02*
X163116811Y-33733189D01*
X159004000Y-33782000D02*
X160211159Y-33782000D01*
X160211159Y-33782000D02*
X160259970Y-33733189D01*
X91631159Y-33782000D02*
X91679970Y-33733189D01*
X90424000Y-33782000D02*
X91631159Y-33782000D01*
X91679970Y-33733189D02*
X94536811Y-33733189D01*
X98806000Y-29464000D02*
X98806000Y-24638000D01*
X94536811Y-33733189D02*
X98806000Y-29464000D01*
X25956811Y-33733189D02*
X30226000Y-29464000D01*
X30226000Y-29464000D02*
X30226000Y-24638000D01*
X23099970Y-33733189D02*
X25956811Y-33733189D01*
X21844000Y-33782000D02*
X23051159Y-33782000D01*
X23051159Y-33782000D02*
X23099970Y-33733189D01*
X158978142Y-152570899D02*
X162135101Y-152570899D01*
X169070990Y-152203160D02*
X169933094Y-152203160D01*
X169013830Y-152146000D02*
X169070990Y-152203160D01*
X162560000Y-152146000D02*
X169013830Y-152146000D01*
X158368543Y-151961300D02*
X158978142Y-152570899D01*
X169926000Y-141478000D02*
X169926000Y-150099097D01*
X169926000Y-150099097D02*
X170150452Y-150323549D01*
X162135101Y-152570899D02*
X162560000Y-152146000D01*
X93555101Y-152570899D02*
X93980000Y-152146000D01*
X101346000Y-150099097D02*
X101570452Y-150323549D01*
X101346000Y-141478000D02*
X101346000Y-150099097D01*
X89788543Y-151961300D02*
X90398142Y-152570899D01*
X93980000Y-152146000D02*
X100433830Y-152146000D01*
X100433830Y-152146000D02*
X100490990Y-152203160D01*
X100490990Y-152203160D02*
X101353094Y-152203160D01*
X90398142Y-152570899D02*
X93555101Y-152570899D01*
X21818142Y-152570899D02*
X24975101Y-152570899D01*
X31910990Y-152203160D02*
X32773094Y-152203160D01*
X31853830Y-152146000D02*
X31910990Y-152203160D01*
X25400000Y-152146000D02*
X31853830Y-152146000D01*
X21208543Y-151961300D02*
X21818142Y-152570899D01*
X32766000Y-141478000D02*
X32766000Y-150099097D01*
X32766000Y-150099097D02*
X32990452Y-150323549D01*
X24975101Y-152570899D02*
X25400000Y-152146000D01*
X230715101Y-152570899D02*
X231140000Y-152146000D01*
X238506000Y-150099097D02*
X238730452Y-150323549D01*
X238506000Y-141478000D02*
X238506000Y-150099097D01*
X226948543Y-151961300D02*
X227558142Y-152570899D01*
X231140000Y-152146000D02*
X237593830Y-152146000D01*
X237593830Y-152146000D02*
X237650990Y-152203160D01*
X237650990Y-152203160D02*
X238513094Y-152203160D01*
X227558142Y-152570899D02*
X230715101Y-152570899D01*
X230715101Y-35730899D02*
X231140000Y-35306000D01*
X238506000Y-33259097D02*
X238730452Y-33483549D01*
X238506000Y-24638000D02*
X238506000Y-33259097D01*
X226948543Y-35121300D02*
X227558142Y-35730899D01*
X231140000Y-35306000D02*
X237593830Y-35306000D01*
X237593830Y-35306000D02*
X237650990Y-35363160D01*
X237650990Y-35363160D02*
X238513094Y-35363160D01*
X227558142Y-35730899D02*
X230715101Y-35730899D01*
X227558142Y-94150899D02*
X230715101Y-94150899D01*
X237650990Y-93783160D02*
X238513094Y-93783160D01*
X237593830Y-93726000D02*
X237650990Y-93783160D01*
X231140000Y-93726000D02*
X237593830Y-93726000D01*
X226948543Y-93541300D02*
X227558142Y-94150899D01*
X238506000Y-83058000D02*
X238506000Y-91679097D01*
X238506000Y-91679097D02*
X238730452Y-91903549D01*
X230715101Y-94150899D02*
X231140000Y-93726000D01*
X24975101Y-94150899D02*
X25400000Y-93726000D01*
X32766000Y-91679097D02*
X32990452Y-91903549D01*
X32766000Y-83058000D02*
X32766000Y-91679097D01*
X21208543Y-93541300D02*
X21818142Y-94150899D01*
X25400000Y-93726000D02*
X31853830Y-93726000D01*
X31853830Y-93726000D02*
X31910990Y-93783160D01*
X31910990Y-93783160D02*
X32773094Y-93783160D01*
X21818142Y-94150899D02*
X24975101Y-94150899D01*
X90398142Y-94150899D02*
X93555101Y-94150899D01*
X100490990Y-93783160D02*
X101353094Y-93783160D01*
X100433830Y-93726000D02*
X100490990Y-93783160D01*
X93980000Y-93726000D02*
X100433830Y-93726000D01*
X89788543Y-93541300D02*
X90398142Y-94150899D01*
X101346000Y-83058000D02*
X101346000Y-91679097D01*
X101346000Y-91679097D02*
X101570452Y-91903549D01*
X93555101Y-94150899D02*
X93980000Y-93726000D01*
X162135101Y-94150899D02*
X162560000Y-93726000D01*
X169926000Y-91679097D02*
X170150452Y-91903549D01*
X169926000Y-83058000D02*
X169926000Y-91679097D01*
X158368543Y-93541300D02*
X158978142Y-94150899D01*
X162560000Y-93726000D02*
X169013830Y-93726000D01*
X169013830Y-93726000D02*
X169070990Y-93783160D01*
X169070990Y-93783160D02*
X169933094Y-93783160D01*
X158978142Y-94150899D02*
X162135101Y-94150899D01*
X158978142Y-35730899D02*
X162135101Y-35730899D01*
X169070990Y-35363160D02*
X169933094Y-35363160D01*
X169013830Y-35306000D02*
X169070990Y-35363160D01*
X162560000Y-35306000D02*
X169013830Y-35306000D01*
X158368543Y-35121300D02*
X158978142Y-35730899D01*
X169926000Y-24638000D02*
X169926000Y-33259097D01*
X169926000Y-33259097D02*
X170150452Y-33483549D01*
X162135101Y-35730899D02*
X162560000Y-35306000D01*
X93555101Y-35730899D02*
X93980000Y-35306000D01*
X101346000Y-33259097D02*
X101570452Y-33483549D01*
X101346000Y-24638000D02*
X101346000Y-33259097D01*
X89788543Y-35121300D02*
X90398142Y-35730899D01*
X93980000Y-35306000D02*
X100433830Y-35306000D01*
X100433830Y-35306000D02*
X100490990Y-35363160D01*
X100490990Y-35363160D02*
X101353094Y-35363160D01*
X90398142Y-35730899D02*
X93555101Y-35730899D01*
X21818142Y-35730899D02*
X24975101Y-35730899D01*
X31910990Y-35363160D02*
X32773094Y-35363160D01*
X31853830Y-35306000D02*
X31910990Y-35363160D01*
X25400000Y-35306000D02*
X31853830Y-35306000D01*
X21208543Y-35121300D02*
X21818142Y-35730899D01*
X32766000Y-24638000D02*
X32766000Y-33259097D01*
X32766000Y-33259097D02*
X32990452Y-33483549D01*
X24975101Y-35730899D02*
X25400000Y-35306000D01*
X160717889Y-151512999D02*
X161579993Y-151512999D01*
X161886794Y-151206198D02*
X169642195Y-151206198D01*
X169642195Y-151206198D02*
X169699347Y-151263350D01*
X175514000Y-150876000D02*
X175514000Y-142340104D01*
X174877001Y-151512999D02*
X175514000Y-150876000D01*
X170683907Y-151512999D02*
X174877001Y-151512999D01*
X161579993Y-151512999D02*
X161886794Y-151206198D01*
X169699347Y-151263350D02*
X170434258Y-151263350D01*
X175514000Y-142340104D02*
X175514000Y-141478000D01*
X170434258Y-151263350D02*
X170683907Y-151512999D01*
X101854258Y-151263350D02*
X102103907Y-151512999D01*
X106934000Y-142340104D02*
X106934000Y-141478000D01*
X101119347Y-151263350D02*
X101854258Y-151263350D01*
X92999993Y-151512999D02*
X93306794Y-151206198D01*
X102103907Y-151512999D02*
X106297001Y-151512999D01*
X106297001Y-151512999D02*
X106934000Y-150876000D01*
X106934000Y-150876000D02*
X106934000Y-142340104D01*
X101062195Y-151206198D02*
X101119347Y-151263350D01*
X93306794Y-151206198D02*
X101062195Y-151206198D01*
X92137889Y-151512999D02*
X92999993Y-151512999D01*
X23557889Y-151512999D02*
X24419993Y-151512999D01*
X24726794Y-151206198D02*
X32482195Y-151206198D01*
X32482195Y-151206198D02*
X32539347Y-151263350D01*
X38354000Y-150876000D02*
X38354000Y-142340104D01*
X37717001Y-151512999D02*
X38354000Y-150876000D01*
X33523907Y-151512999D02*
X37717001Y-151512999D01*
X24419993Y-151512999D02*
X24726794Y-151206198D01*
X32539347Y-151263350D02*
X33274258Y-151263350D01*
X38354000Y-142340104D02*
X38354000Y-141478000D01*
X33274258Y-151263350D02*
X33523907Y-151512999D01*
X239014258Y-151263350D02*
X239263907Y-151512999D01*
X244094000Y-142340104D02*
X244094000Y-141478000D01*
X238279347Y-151263350D02*
X239014258Y-151263350D01*
X230159993Y-151512999D02*
X230466794Y-151206198D01*
X239263907Y-151512999D02*
X243457001Y-151512999D01*
X243457001Y-151512999D02*
X244094000Y-150876000D01*
X244094000Y-150876000D02*
X244094000Y-142340104D01*
X238222195Y-151206198D02*
X238279347Y-151263350D01*
X230466794Y-151206198D02*
X238222195Y-151206198D01*
X229297889Y-151512999D02*
X230159993Y-151512999D01*
X239014258Y-34423350D02*
X239263907Y-34672999D01*
X244094000Y-25500104D02*
X244094000Y-24638000D01*
X238279347Y-34423350D02*
X239014258Y-34423350D01*
X230159993Y-34672999D02*
X230466794Y-34366198D01*
X239263907Y-34672999D02*
X243457001Y-34672999D01*
X243457001Y-34672999D02*
X244094000Y-34036000D01*
X244094000Y-34036000D02*
X244094000Y-25500104D01*
X238222195Y-34366198D02*
X238279347Y-34423350D01*
X230466794Y-34366198D02*
X238222195Y-34366198D01*
X229297889Y-34672999D02*
X230159993Y-34672999D01*
X229297889Y-93092999D02*
X230159993Y-93092999D01*
X230466794Y-92786198D02*
X238222195Y-92786198D01*
X238222195Y-92786198D02*
X238279347Y-92843350D01*
X244094000Y-92456000D02*
X244094000Y-83920104D01*
X243457001Y-93092999D02*
X244094000Y-92456000D01*
X239263907Y-93092999D02*
X243457001Y-93092999D01*
X230159993Y-93092999D02*
X230466794Y-92786198D01*
X238279347Y-92843350D02*
X239014258Y-92843350D01*
X244094000Y-83920104D02*
X244094000Y-83058000D01*
X239014258Y-92843350D02*
X239263907Y-93092999D01*
X33274258Y-92843350D02*
X33523907Y-93092999D01*
X38354000Y-83920104D02*
X38354000Y-83058000D01*
X32539347Y-92843350D02*
X33274258Y-92843350D01*
X24419993Y-93092999D02*
X24726794Y-92786198D01*
X33523907Y-93092999D02*
X37717001Y-93092999D01*
X37717001Y-93092999D02*
X38354000Y-92456000D01*
X38354000Y-92456000D02*
X38354000Y-83920104D01*
X32482195Y-92786198D02*
X32539347Y-92843350D01*
X24726794Y-92786198D02*
X32482195Y-92786198D01*
X23557889Y-93092999D02*
X24419993Y-93092999D01*
X92137889Y-93092999D02*
X92999993Y-93092999D01*
X93306794Y-92786198D02*
X101062195Y-92786198D01*
X101062195Y-92786198D02*
X101119347Y-92843350D01*
X106934000Y-92456000D02*
X106934000Y-83920104D01*
X106297001Y-93092999D02*
X106934000Y-92456000D01*
X102103907Y-93092999D02*
X106297001Y-93092999D01*
X92999993Y-93092999D02*
X93306794Y-92786198D01*
X101119347Y-92843350D02*
X101854258Y-92843350D01*
X106934000Y-83920104D02*
X106934000Y-83058000D01*
X101854258Y-92843350D02*
X102103907Y-93092999D01*
X170434258Y-92843350D02*
X170683907Y-93092999D01*
X175514000Y-83920104D02*
X175514000Y-83058000D01*
X169699347Y-92843350D02*
X170434258Y-92843350D01*
X161579993Y-93092999D02*
X161886794Y-92786198D01*
X170683907Y-93092999D02*
X174877001Y-93092999D01*
X174877001Y-93092999D02*
X175514000Y-92456000D01*
X175514000Y-92456000D02*
X175514000Y-83920104D01*
X169642195Y-92786198D02*
X169699347Y-92843350D01*
X161886794Y-92786198D02*
X169642195Y-92786198D01*
X160717889Y-93092999D02*
X161579993Y-93092999D01*
X160717889Y-34672999D02*
X161579993Y-34672999D01*
X161886794Y-34366198D02*
X169642195Y-34366198D01*
X169642195Y-34366198D02*
X169699347Y-34423350D01*
X175514000Y-34036000D02*
X175514000Y-25500104D01*
X174877001Y-34672999D02*
X175514000Y-34036000D01*
X170683907Y-34672999D02*
X174877001Y-34672999D01*
X161579993Y-34672999D02*
X161886794Y-34366198D01*
X169699347Y-34423350D02*
X170434258Y-34423350D01*
X175514000Y-25500104D02*
X175514000Y-24638000D01*
X170434258Y-34423350D02*
X170683907Y-34672999D01*
X101854258Y-34423350D02*
X102103907Y-34672999D01*
X106934000Y-25500104D02*
X106934000Y-24638000D01*
X101119347Y-34423350D02*
X101854258Y-34423350D01*
X92999993Y-34672999D02*
X93306794Y-34366198D01*
X102103907Y-34672999D02*
X106297001Y-34672999D01*
X106297001Y-34672999D02*
X106934000Y-34036000D01*
X106934000Y-34036000D02*
X106934000Y-25500104D01*
X101062195Y-34366198D02*
X101119347Y-34423350D01*
X93306794Y-34366198D02*
X101062195Y-34366198D01*
X92137889Y-34672999D02*
X92999993Y-34672999D01*
X23557889Y-34672999D02*
X24419993Y-34672999D01*
X24726794Y-34366198D02*
X32482195Y-34366198D01*
X32482195Y-34366198D02*
X32539347Y-34423350D01*
X38354000Y-34036000D02*
X38354000Y-25500104D01*
X37717001Y-34672999D02*
X38354000Y-34036000D01*
X33523907Y-34672999D02*
X37717001Y-34672999D01*
X24419993Y-34672999D02*
X24726794Y-34366198D01*
X32539347Y-34423350D02*
X33274258Y-34423350D01*
X38354000Y-25500104D02*
X38354000Y-24638000D01*
X33274258Y-34423350D02*
X33523907Y-34672999D01*
X164382716Y-153670000D02*
X163648285Y-154404431D01*
X177158908Y-153670000D02*
X164382716Y-153670000D01*
X178739802Y-152089106D02*
X177158908Y-153670000D01*
X178739802Y-142163802D02*
X178739802Y-152089106D01*
X178054000Y-141478000D02*
X178739802Y-142163802D01*
X163648285Y-154404431D02*
X162952496Y-154404431D01*
X162952496Y-154404431D02*
X162342897Y-153794832D01*
X94372496Y-154404431D02*
X93762897Y-153794832D01*
X95068285Y-154404431D02*
X94372496Y-154404431D01*
X109474000Y-141478000D02*
X110159802Y-142163802D01*
X110159802Y-142163802D02*
X110159802Y-152089106D01*
X110159802Y-152089106D02*
X108578908Y-153670000D01*
X108578908Y-153670000D02*
X95802716Y-153670000D01*
X95802716Y-153670000D02*
X95068285Y-154404431D01*
X27222716Y-153670000D02*
X26488285Y-154404431D01*
X39998908Y-153670000D02*
X27222716Y-153670000D01*
X41579802Y-152089106D02*
X39998908Y-153670000D01*
X41579802Y-142163802D02*
X41579802Y-152089106D01*
X40894000Y-141478000D02*
X41579802Y-142163802D01*
X26488285Y-154404431D02*
X25792496Y-154404431D01*
X25792496Y-154404431D02*
X25182897Y-153794832D01*
X231532496Y-154404431D02*
X230922897Y-153794832D01*
X232228285Y-154404431D02*
X231532496Y-154404431D01*
X246634000Y-141478000D02*
X247319802Y-142163802D01*
X247319802Y-142163802D02*
X247319802Y-152089106D01*
X247319802Y-152089106D02*
X245738908Y-153670000D01*
X245738908Y-153670000D02*
X232962716Y-153670000D01*
X232962716Y-153670000D02*
X232228285Y-154404431D01*
X231532496Y-37564431D02*
X230922897Y-36954832D01*
X232228285Y-37564431D02*
X231532496Y-37564431D01*
X246634000Y-24638000D02*
X247319802Y-25323802D01*
X247319802Y-25323802D02*
X247319802Y-35249106D01*
X247319802Y-35249106D02*
X245738908Y-36830000D01*
X245738908Y-36830000D02*
X232962716Y-36830000D01*
X232962716Y-36830000D02*
X232228285Y-37564431D01*
X232962716Y-95250000D02*
X232228285Y-95984431D01*
X245738908Y-95250000D02*
X232962716Y-95250000D01*
X247319802Y-93669106D02*
X245738908Y-95250000D01*
X247319802Y-83743802D02*
X247319802Y-93669106D01*
X246634000Y-83058000D02*
X247319802Y-83743802D01*
X232228285Y-95984431D02*
X231532496Y-95984431D01*
X231532496Y-95984431D02*
X230922897Y-95374832D01*
X25792496Y-95984431D02*
X25182897Y-95374832D01*
X26488285Y-95984431D02*
X25792496Y-95984431D01*
X40894000Y-83058000D02*
X41579802Y-83743802D01*
X41579802Y-83743802D02*
X41579802Y-93669106D01*
X41579802Y-93669106D02*
X39998908Y-95250000D01*
X39998908Y-95250000D02*
X27222716Y-95250000D01*
X27222716Y-95250000D02*
X26488285Y-95984431D01*
X95802716Y-95250000D02*
X95068285Y-95984431D01*
X108578908Y-95250000D02*
X95802716Y-95250000D01*
X110159802Y-93669106D02*
X108578908Y-95250000D01*
X110159802Y-83743802D02*
X110159802Y-93669106D01*
X109474000Y-83058000D02*
X110159802Y-83743802D01*
X95068285Y-95984431D02*
X94372496Y-95984431D01*
X94372496Y-95984431D02*
X93762897Y-95374832D01*
X162952496Y-95984431D02*
X162342897Y-95374832D01*
X163648285Y-95984431D02*
X162952496Y-95984431D01*
X178054000Y-83058000D02*
X178739802Y-83743802D01*
X178739802Y-83743802D02*
X178739802Y-93669106D01*
X178739802Y-93669106D02*
X177158908Y-95250000D01*
X177158908Y-95250000D02*
X164382716Y-95250000D01*
X164382716Y-95250000D02*
X163648285Y-95984431D01*
X164382716Y-36830000D02*
X163648285Y-37564431D01*
X177158908Y-36830000D02*
X164382716Y-36830000D01*
X178739802Y-35249106D02*
X177158908Y-36830000D01*
X178739802Y-25323802D02*
X178739802Y-35249106D01*
X178054000Y-24638000D02*
X178739802Y-25323802D01*
X163648285Y-37564431D02*
X162952496Y-37564431D01*
X162952496Y-37564431D02*
X162342897Y-36954832D01*
X94372496Y-37564431D02*
X93762897Y-36954832D01*
X95068285Y-37564431D02*
X94372496Y-37564431D01*
X109474000Y-24638000D02*
X110159802Y-25323802D01*
X110159802Y-25323802D02*
X110159802Y-35249106D01*
X110159802Y-35249106D02*
X108578908Y-36830000D01*
X108578908Y-36830000D02*
X95802716Y-36830000D01*
X95802716Y-36830000D02*
X95068285Y-37564431D01*
X27222716Y-36830000D02*
X26488285Y-37564431D01*
X39998908Y-36830000D02*
X27222716Y-36830000D01*
X41579802Y-35249106D02*
X39998908Y-36830000D01*
X41579802Y-25323802D02*
X41579802Y-35249106D01*
X40894000Y-24638000D02*
X41579802Y-25323802D01*
X26488285Y-37564431D02*
X25792496Y-37564431D01*
X25792496Y-37564431D02*
X25182897Y-36954832D01*
X177800000Y-151638000D02*
X176295039Y-153142961D01*
X169424838Y-153085810D02*
X164438104Y-153085810D01*
X169481989Y-153142961D02*
X169424838Y-153085810D01*
X176295039Y-153142961D02*
X169481989Y-153142961D01*
X164438104Y-153085810D02*
X163576000Y-153085810D01*
X95858104Y-153085810D02*
X94996000Y-153085810D01*
X107715039Y-153142961D02*
X100901989Y-153142961D01*
X100901989Y-153142961D02*
X100844838Y-153085810D01*
X100844838Y-153085810D02*
X95858104Y-153085810D01*
X109220000Y-151638000D02*
X107715039Y-153142961D01*
X40640000Y-151638000D02*
X39135039Y-153142961D01*
X32264838Y-153085810D02*
X27278104Y-153085810D01*
X32321989Y-153142961D02*
X32264838Y-153085810D01*
X39135039Y-153142961D02*
X32321989Y-153142961D01*
X27278104Y-153085810D02*
X26416000Y-153085810D01*
X233018104Y-153085810D02*
X232156000Y-153085810D01*
X244875039Y-153142961D02*
X238061989Y-153142961D01*
X238061989Y-153142961D02*
X238004838Y-153085810D01*
X238004838Y-153085810D02*
X233018104Y-153085810D01*
X246380000Y-151638000D02*
X244875039Y-153142961D01*
X233018104Y-36245810D02*
X232156000Y-36245810D01*
X244875039Y-36302961D02*
X238061989Y-36302961D01*
X238061989Y-36302961D02*
X238004838Y-36245810D01*
X238004838Y-36245810D02*
X233018104Y-36245810D01*
X246380000Y-34798000D02*
X244875039Y-36302961D01*
X246380000Y-93218000D02*
X244875039Y-94722961D01*
X238004838Y-94665810D02*
X233018104Y-94665810D01*
X238061989Y-94722961D02*
X238004838Y-94665810D01*
X244875039Y-94722961D02*
X238061989Y-94722961D01*
X233018104Y-94665810D02*
X232156000Y-94665810D01*
X27278104Y-94665810D02*
X26416000Y-94665810D01*
X39135039Y-94722961D02*
X32321989Y-94722961D01*
X32321989Y-94722961D02*
X32264838Y-94665810D01*
X32264838Y-94665810D02*
X27278104Y-94665810D01*
X40640000Y-93218000D02*
X39135039Y-94722961D01*
X109220000Y-93218000D02*
X107715039Y-94722961D01*
X100844838Y-94665810D02*
X95858104Y-94665810D01*
X100901989Y-94722961D02*
X100844838Y-94665810D01*
X107715039Y-94722961D02*
X100901989Y-94722961D01*
X95858104Y-94665810D02*
X94996000Y-94665810D01*
X164438104Y-94665810D02*
X163576000Y-94665810D01*
X176295039Y-94722961D02*
X169481989Y-94722961D01*
X169481989Y-94722961D02*
X169424838Y-94665810D01*
X169424838Y-94665810D02*
X164438104Y-94665810D01*
X177800000Y-93218000D02*
X176295039Y-94722961D01*
X177800000Y-34798000D02*
X176295039Y-36302961D01*
X169424838Y-36245810D02*
X164438104Y-36245810D01*
X169481989Y-36302961D02*
X169424838Y-36245810D01*
X176295039Y-36302961D02*
X169481989Y-36302961D01*
X164438104Y-36245810D02*
X163576000Y-36245810D01*
X95858104Y-36245810D02*
X94996000Y-36245810D01*
X107715039Y-36302961D02*
X100901989Y-36302961D01*
X100901989Y-36302961D02*
X100844838Y-36245810D01*
X100844838Y-36245810D02*
X95858104Y-36245810D01*
X109220000Y-34798000D02*
X107715039Y-36302961D01*
X40640000Y-34798000D02*
X39135039Y-36302961D01*
X32264838Y-36245810D02*
X27278104Y-36245810D01*
X32321989Y-36302961D02*
X32264838Y-36245810D01*
X39135039Y-36302961D02*
X32321989Y-36302961D01*
X27278104Y-36245810D02*
X26416000Y-36245810D01*
X171930792Y-162587208D02*
X163084581Y-162587208D01*
X163084581Y-162587208D02*
X162222477Y-162587208D01*
X196342000Y-150622000D02*
X196342000Y-155956000D01*
X196342000Y-155956000D02*
X194310000Y-157988000D01*
X194310000Y-157988000D02*
X176530000Y-157988000D01*
X176530000Y-157988000D02*
X171930792Y-162587208D01*
X200406000Y-146558000D02*
X196342000Y-150622000D01*
X131826000Y-146558000D02*
X127762000Y-150622000D01*
X107950000Y-157988000D02*
X103350792Y-162587208D01*
X125730000Y-157988000D02*
X107950000Y-157988000D01*
X127762000Y-155956000D02*
X125730000Y-157988000D01*
X127762000Y-150622000D02*
X127762000Y-155956000D01*
X94504581Y-162587208D02*
X93642477Y-162587208D01*
X103350792Y-162587208D02*
X94504581Y-162587208D01*
X34770792Y-162587208D02*
X25924581Y-162587208D01*
X25924581Y-162587208D02*
X25062477Y-162587208D01*
X59182000Y-150622000D02*
X59182000Y-155956000D01*
X59182000Y-155956000D02*
X57150000Y-157988000D01*
X57150000Y-157988000D02*
X39370000Y-157988000D01*
X39370000Y-157988000D02*
X34770792Y-162587208D01*
X63246000Y-146558000D02*
X59182000Y-150622000D01*
X268986000Y-146558000D02*
X264922000Y-150622000D01*
X245110000Y-157988000D02*
X240510792Y-162587208D01*
X262890000Y-157988000D02*
X245110000Y-157988000D01*
X264922000Y-155956000D02*
X262890000Y-157988000D01*
X264922000Y-150622000D02*
X264922000Y-155956000D01*
X231664581Y-162587208D02*
X230802477Y-162587208D01*
X240510792Y-162587208D02*
X231664581Y-162587208D01*
X268986000Y-29718000D02*
X264922000Y-33782000D01*
X245110000Y-41148000D02*
X240510792Y-45747208D01*
X262890000Y-41148000D02*
X245110000Y-41148000D01*
X264922000Y-39116000D02*
X262890000Y-41148000D01*
X264922000Y-33782000D02*
X264922000Y-39116000D01*
X231664581Y-45747208D02*
X230802477Y-45747208D01*
X240510792Y-45747208D02*
X231664581Y-45747208D01*
X240510792Y-104167208D02*
X231664581Y-104167208D01*
X231664581Y-104167208D02*
X230802477Y-104167208D01*
X264922000Y-92202000D02*
X264922000Y-97536000D01*
X264922000Y-97536000D02*
X262890000Y-99568000D01*
X262890000Y-99568000D02*
X245110000Y-99568000D01*
X245110000Y-99568000D02*
X240510792Y-104167208D01*
X268986000Y-88138000D02*
X264922000Y-92202000D01*
X63246000Y-88138000D02*
X59182000Y-92202000D01*
X39370000Y-99568000D02*
X34770792Y-104167208D01*
X57150000Y-99568000D02*
X39370000Y-99568000D01*
X59182000Y-97536000D02*
X57150000Y-99568000D01*
X59182000Y-92202000D02*
X59182000Y-97536000D01*
X25924581Y-104167208D02*
X25062477Y-104167208D01*
X34770792Y-104167208D02*
X25924581Y-104167208D01*
X103350792Y-104167208D02*
X94504581Y-104167208D01*
X94504581Y-104167208D02*
X93642477Y-104167208D01*
X127762000Y-92202000D02*
X127762000Y-97536000D01*
X127762000Y-97536000D02*
X125730000Y-99568000D01*
X125730000Y-99568000D02*
X107950000Y-99568000D01*
X107950000Y-99568000D02*
X103350792Y-104167208D01*
X131826000Y-88138000D02*
X127762000Y-92202000D01*
X200406000Y-88138000D02*
X196342000Y-92202000D01*
X176530000Y-99568000D02*
X171930792Y-104167208D01*
X194310000Y-99568000D02*
X176530000Y-99568000D01*
X196342000Y-97536000D02*
X194310000Y-99568000D01*
X196342000Y-92202000D02*
X196342000Y-97536000D01*
X163084581Y-104167208D02*
X162222477Y-104167208D01*
X171930792Y-104167208D02*
X163084581Y-104167208D01*
X171930792Y-45747208D02*
X163084581Y-45747208D01*
X163084581Y-45747208D02*
X162222477Y-45747208D01*
X196342000Y-33782000D02*
X196342000Y-39116000D01*
X196342000Y-39116000D02*
X194310000Y-41148000D01*
X194310000Y-41148000D02*
X176530000Y-41148000D01*
X176530000Y-41148000D02*
X171930792Y-45747208D01*
X200406000Y-29718000D02*
X196342000Y-33782000D01*
X131826000Y-29718000D02*
X127762000Y-33782000D01*
X107950000Y-41148000D02*
X103350792Y-45747208D01*
X125730000Y-41148000D02*
X107950000Y-41148000D01*
X127762000Y-39116000D02*
X125730000Y-41148000D01*
X127762000Y-33782000D02*
X127762000Y-39116000D01*
X94504581Y-45747208D02*
X93642477Y-45747208D01*
X103350792Y-45747208D02*
X94504581Y-45747208D01*
X34770792Y-45747208D02*
X25924581Y-45747208D01*
X25924581Y-45747208D02*
X25062477Y-45747208D01*
X59182000Y-33782000D02*
X59182000Y-39116000D01*
X59182000Y-39116000D02*
X57150000Y-41148000D01*
X57150000Y-41148000D02*
X39370000Y-41148000D01*
X39370000Y-41148000D02*
X34770792Y-45747208D01*
X63246000Y-29718000D02*
X59182000Y-33782000D01*
X201676000Y-145288000D02*
X201676000Y-146812000D01*
X200660000Y-144272000D02*
X201676000Y-145288000D01*
X201676000Y-146812000D02*
X196850000Y-151638000D01*
X196850000Y-151638000D02*
X196850000Y-156464000D01*
X196850000Y-156464000D02*
X194818000Y-158496000D01*
X194818000Y-158496000D02*
X176784000Y-158496000D01*
X176784000Y-158496000D02*
X171958000Y-163322000D01*
X171958000Y-163322000D02*
X162831431Y-163322000D01*
X162831431Y-163322000D02*
X162221832Y-163931599D01*
X162221832Y-163931599D02*
X161137599Y-163931599D01*
X161137599Y-163931599D02*
X160528000Y-163322000D01*
X92557599Y-163931599D02*
X91948000Y-163322000D01*
X93641832Y-163931599D02*
X92557599Y-163931599D01*
X94251431Y-163322000D02*
X93641832Y-163931599D01*
X103378000Y-163322000D02*
X94251431Y-163322000D01*
X108204000Y-158496000D02*
X103378000Y-163322000D01*
X126238000Y-158496000D02*
X108204000Y-158496000D01*
X128270000Y-156464000D02*
X126238000Y-158496000D01*
X128270000Y-151638000D02*
X128270000Y-156464000D01*
X133096000Y-146812000D02*
X128270000Y-151638000D01*
X132080000Y-144272000D02*
X133096000Y-145288000D01*
X133096000Y-145288000D02*
X133096000Y-146812000D01*
X64516000Y-145288000D02*
X64516000Y-146812000D01*
X63500000Y-144272000D02*
X64516000Y-145288000D01*
X64516000Y-146812000D02*
X59690000Y-151638000D01*
X59690000Y-151638000D02*
X59690000Y-156464000D01*
X59690000Y-156464000D02*
X57658000Y-158496000D01*
X57658000Y-158496000D02*
X39624000Y-158496000D01*
X39624000Y-158496000D02*
X34798000Y-163322000D01*
X34798000Y-163322000D02*
X25671431Y-163322000D01*
X25671431Y-163322000D02*
X25061832Y-163931599D01*
X25061832Y-163931599D02*
X23977599Y-163931599D01*
X23977599Y-163931599D02*
X23368000Y-163322000D01*
X229717599Y-163931599D02*
X229108000Y-163322000D01*
X230801832Y-163931599D02*
X229717599Y-163931599D01*
X231411431Y-163322000D02*
X230801832Y-163931599D01*
X240538000Y-163322000D02*
X231411431Y-163322000D01*
X245364000Y-158496000D02*
X240538000Y-163322000D01*
X263398000Y-158496000D02*
X245364000Y-158496000D01*
X265430000Y-156464000D02*
X263398000Y-158496000D01*
X265430000Y-151638000D02*
X265430000Y-156464000D01*
X270256000Y-146812000D02*
X265430000Y-151638000D01*
X269240000Y-144272000D02*
X270256000Y-145288000D01*
X270256000Y-145288000D02*
X270256000Y-146812000D01*
X229717599Y-47091599D02*
X229108000Y-46482000D01*
X230801832Y-47091599D02*
X229717599Y-47091599D01*
X231411431Y-46482000D02*
X230801832Y-47091599D01*
X240538000Y-46482000D02*
X231411431Y-46482000D01*
X245364000Y-41656000D02*
X240538000Y-46482000D01*
X263398000Y-41656000D02*
X245364000Y-41656000D01*
X265430000Y-39624000D02*
X263398000Y-41656000D01*
X265430000Y-34798000D02*
X265430000Y-39624000D01*
X270256000Y-29972000D02*
X265430000Y-34798000D01*
X269240000Y-27432000D02*
X270256000Y-28448000D01*
X270256000Y-28448000D02*
X270256000Y-29972000D01*
X270256000Y-86868000D02*
X270256000Y-88392000D01*
X269240000Y-85852000D02*
X270256000Y-86868000D01*
X270256000Y-88392000D02*
X265430000Y-93218000D01*
X265430000Y-93218000D02*
X265430000Y-98044000D01*
X265430000Y-98044000D02*
X263398000Y-100076000D01*
X263398000Y-100076000D02*
X245364000Y-100076000D01*
X245364000Y-100076000D02*
X240538000Y-104902000D01*
X240538000Y-104902000D02*
X231411431Y-104902000D01*
X231411431Y-104902000D02*
X230801832Y-105511599D01*
X230801832Y-105511599D02*
X229717599Y-105511599D01*
X229717599Y-105511599D02*
X229108000Y-104902000D01*
X23977599Y-105511599D02*
X23368000Y-104902000D01*
X25061832Y-105511599D02*
X23977599Y-105511599D01*
X25671431Y-104902000D02*
X25061832Y-105511599D01*
X34798000Y-104902000D02*
X25671431Y-104902000D01*
X39624000Y-100076000D02*
X34798000Y-104902000D01*
X57658000Y-100076000D02*
X39624000Y-100076000D01*
X59690000Y-98044000D02*
X57658000Y-100076000D01*
X59690000Y-93218000D02*
X59690000Y-98044000D01*
X64516000Y-88392000D02*
X59690000Y-93218000D01*
X63500000Y-85852000D02*
X64516000Y-86868000D01*
X64516000Y-86868000D02*
X64516000Y-88392000D01*
X133096000Y-86868000D02*
X133096000Y-88392000D01*
X132080000Y-85852000D02*
X133096000Y-86868000D01*
X133096000Y-88392000D02*
X128270000Y-93218000D01*
X128270000Y-93218000D02*
X128270000Y-98044000D01*
X128270000Y-98044000D02*
X126238000Y-100076000D01*
X126238000Y-100076000D02*
X108204000Y-100076000D01*
X108204000Y-100076000D02*
X103378000Y-104902000D01*
X103378000Y-104902000D02*
X94251431Y-104902000D01*
X94251431Y-104902000D02*
X93641832Y-105511599D01*
X93641832Y-105511599D02*
X92557599Y-105511599D01*
X92557599Y-105511599D02*
X91948000Y-104902000D01*
X161137599Y-105511599D02*
X160528000Y-104902000D01*
X162221832Y-105511599D02*
X161137599Y-105511599D01*
X162831431Y-104902000D02*
X162221832Y-105511599D01*
X171958000Y-104902000D02*
X162831431Y-104902000D01*
X176784000Y-100076000D02*
X171958000Y-104902000D01*
X194818000Y-100076000D02*
X176784000Y-100076000D01*
X196850000Y-98044000D02*
X194818000Y-100076000D01*
X196850000Y-93218000D02*
X196850000Y-98044000D01*
X201676000Y-88392000D02*
X196850000Y-93218000D01*
X200660000Y-85852000D02*
X201676000Y-86868000D01*
X201676000Y-86868000D02*
X201676000Y-88392000D01*
X201676000Y-28448000D02*
X201676000Y-29972000D01*
X200660000Y-27432000D02*
X201676000Y-28448000D01*
X201676000Y-29972000D02*
X196850000Y-34798000D01*
X196850000Y-34798000D02*
X196850000Y-39624000D01*
X196850000Y-39624000D02*
X194818000Y-41656000D01*
X194818000Y-41656000D02*
X176784000Y-41656000D01*
X176784000Y-41656000D02*
X171958000Y-46482000D01*
X171958000Y-46482000D02*
X162831431Y-46482000D01*
X162831431Y-46482000D02*
X162221832Y-47091599D01*
X162221832Y-47091599D02*
X161137599Y-47091599D01*
X161137599Y-47091599D02*
X160528000Y-46482000D01*
X92557599Y-47091599D02*
X91948000Y-46482000D01*
X93641832Y-47091599D02*
X92557599Y-47091599D01*
X94251431Y-46482000D02*
X93641832Y-47091599D01*
X103378000Y-46482000D02*
X94251431Y-46482000D01*
X108204000Y-41656000D02*
X103378000Y-46482000D01*
X126238000Y-41656000D02*
X108204000Y-41656000D01*
X128270000Y-39624000D02*
X126238000Y-41656000D01*
X128270000Y-34798000D02*
X128270000Y-39624000D01*
X133096000Y-29972000D02*
X128270000Y-34798000D01*
X132080000Y-27432000D02*
X133096000Y-28448000D01*
X133096000Y-28448000D02*
X133096000Y-29972000D01*
X64516000Y-28448000D02*
X64516000Y-29972000D01*
X63500000Y-27432000D02*
X64516000Y-28448000D01*
X64516000Y-29972000D02*
X59690000Y-34798000D01*
X59690000Y-34798000D02*
X59690000Y-39624000D01*
X59690000Y-39624000D02*
X57658000Y-41656000D01*
X57658000Y-41656000D02*
X39624000Y-41656000D01*
X39624000Y-41656000D02*
X34798000Y-46482000D01*
X34798000Y-46482000D02*
X25671431Y-46482000D01*
X25671431Y-46482000D02*
X25061832Y-47091599D01*
X25061832Y-47091599D02*
X23977599Y-47091599D01*
X23977599Y-47091599D02*
X23368000Y-46482000D01*
X150530584Y-150893349D02*
X152924881Y-148499052D01*
X152924881Y-148499052D02*
X153534480Y-147889453D01*
X150530584Y-156298395D02*
X150530584Y-150893349D01*
X81950584Y-156298395D02*
X81950584Y-150893349D01*
X84344881Y-148499052D02*
X84954480Y-147889453D01*
X81950584Y-150893349D02*
X84344881Y-148499052D01*
X13370584Y-150893349D02*
X15764881Y-148499052D01*
X15764881Y-148499052D02*
X16374480Y-147889453D01*
X13370584Y-156298395D02*
X13370584Y-150893349D01*
X219110584Y-156298395D02*
X219110584Y-150893349D01*
X221504881Y-148499052D02*
X222114480Y-147889453D01*
X219110584Y-150893349D02*
X221504881Y-148499052D01*
X219110584Y-39458395D02*
X219110584Y-34053349D01*
X221504881Y-31659052D02*
X222114480Y-31049453D01*
X219110584Y-34053349D02*
X221504881Y-31659052D01*
X219110584Y-92473349D02*
X221504881Y-90079052D01*
X221504881Y-90079052D02*
X222114480Y-89469453D01*
X219110584Y-97878395D02*
X219110584Y-92473349D01*
X13370584Y-97878395D02*
X13370584Y-92473349D01*
X15764881Y-90079052D02*
X16374480Y-89469453D01*
X13370584Y-92473349D02*
X15764881Y-90079052D01*
X81950584Y-92473349D02*
X84344881Y-90079052D01*
X84344881Y-90079052D02*
X84954480Y-89469453D01*
X81950584Y-97878395D02*
X81950584Y-92473349D01*
X150530584Y-97878395D02*
X150530584Y-92473349D01*
X152924881Y-90079052D02*
X153534480Y-89469453D01*
X150530584Y-92473349D02*
X152924881Y-90079052D01*
X150530584Y-34053349D02*
X152924881Y-31659052D01*
X152924881Y-31659052D02*
X153534480Y-31049453D01*
X150530584Y-39458395D02*
X150530584Y-34053349D01*
X81950584Y-39458395D02*
X81950584Y-34053349D01*
X84344881Y-31659052D02*
X84954480Y-31049453D01*
X81950584Y-34053349D02*
X84344881Y-31659052D01*
X13370584Y-34053349D02*
X15764881Y-31659052D01*
X15764881Y-31659052D02*
X16374480Y-31049453D01*
X13370584Y-39458395D02*
X13370584Y-34053349D01*
X154310082Y-149631422D02*
X153700483Y-150241021D01*
X155219943Y-148721561D02*
X154310082Y-149631422D01*
X155219943Y-146866304D02*
X155219943Y-148721561D01*
X86639943Y-146866304D02*
X86639943Y-148721561D01*
X86639943Y-148721561D02*
X85730082Y-149631422D01*
X85730082Y-149631422D02*
X85120483Y-150241021D01*
X17150082Y-149631422D02*
X16540483Y-150241021D01*
X18059943Y-148721561D02*
X17150082Y-149631422D01*
X18059943Y-146866304D02*
X18059943Y-148721561D01*
X223799943Y-146866304D02*
X223799943Y-148721561D01*
X223799943Y-148721561D02*
X222890082Y-149631422D01*
X222890082Y-149631422D02*
X222280483Y-150241021D01*
X223799943Y-30026304D02*
X223799943Y-31881561D01*
X223799943Y-31881561D02*
X222890082Y-32791422D01*
X222890082Y-32791422D02*
X222280483Y-33401021D01*
X222890082Y-91211422D02*
X222280483Y-91821021D01*
X223799943Y-90301561D02*
X222890082Y-91211422D01*
X223799943Y-88446304D02*
X223799943Y-90301561D01*
X18059943Y-88446304D02*
X18059943Y-90301561D01*
X18059943Y-90301561D02*
X17150082Y-91211422D01*
X17150082Y-91211422D02*
X16540483Y-91821021D01*
X85730082Y-91211422D02*
X85120483Y-91821021D01*
X86639943Y-90301561D02*
X85730082Y-91211422D01*
X86639943Y-88446304D02*
X86639943Y-90301561D01*
X155219943Y-88446304D02*
X155219943Y-90301561D01*
X155219943Y-90301561D02*
X154310082Y-91211422D01*
X154310082Y-91211422D02*
X153700483Y-91821021D01*
X154310082Y-32791422D02*
X153700483Y-33401021D01*
X155219943Y-31881561D02*
X154310082Y-32791422D01*
X155219943Y-30026304D02*
X155219943Y-31881561D01*
X86639943Y-30026304D02*
X86639943Y-31881561D01*
X86639943Y-31881561D02*
X85730082Y-32791422D01*
X85730082Y-32791422D02*
X85120483Y-33401021D01*
X17150082Y-32791422D02*
X16540483Y-33401021D01*
X18059943Y-31881561D02*
X17150082Y-32791422D01*
X18059943Y-30026304D02*
X18059943Y-31881561D01*
X153774498Y-127223792D02*
X154384097Y-127833391D01*
X153416000Y-126865294D02*
X153774498Y-127223792D01*
X153416000Y-120904000D02*
X153416000Y-126865294D01*
X84836000Y-120904000D02*
X84836000Y-126865294D01*
X84836000Y-126865294D02*
X85194498Y-127223792D01*
X85194498Y-127223792D02*
X85804097Y-127833391D01*
X16614498Y-127223792D02*
X17224097Y-127833391D01*
X16256000Y-126865294D02*
X16614498Y-127223792D01*
X16256000Y-120904000D02*
X16256000Y-126865294D01*
X221996000Y-120904000D02*
X221996000Y-126865294D01*
X221996000Y-126865294D02*
X222354498Y-127223792D01*
X222354498Y-127223792D02*
X222964097Y-127833391D01*
X221996000Y-4064000D02*
X221996000Y-10025294D01*
X221996000Y-10025294D02*
X222354498Y-10383792D01*
X222354498Y-10383792D02*
X222964097Y-10993391D01*
X222354498Y-68803792D02*
X222964097Y-69413391D01*
X221996000Y-68445294D02*
X222354498Y-68803792D01*
X221996000Y-62484000D02*
X221996000Y-68445294D01*
X16256000Y-62484000D02*
X16256000Y-68445294D01*
X16256000Y-68445294D02*
X16614498Y-68803792D01*
X16614498Y-68803792D02*
X17224097Y-69413391D01*
X85194498Y-68803792D02*
X85804097Y-69413391D01*
X84836000Y-68445294D02*
X85194498Y-68803792D01*
X84836000Y-62484000D02*
X84836000Y-68445294D01*
X153416000Y-62484000D02*
X153416000Y-68445294D01*
X153416000Y-68445294D02*
X153774498Y-68803792D01*
X153774498Y-68803792D02*
X154384097Y-69413391D01*
X153774498Y-10383792D02*
X154384097Y-10993391D01*
X153416000Y-10025294D02*
X153774498Y-10383792D01*
X153416000Y-4064000D02*
X153416000Y-10025294D01*
X84836000Y-4064000D02*
X84836000Y-10025294D01*
X84836000Y-10025294D02*
X85194498Y-10383792D01*
X85194498Y-10383792D02*
X85804097Y-10993391D01*
X16614498Y-10383792D02*
X17224097Y-10993391D01*
X16256000Y-10025294D02*
X16614498Y-10383792D01*
X16256000Y-4064000D02*
X16256000Y-10025294D01*
X198628000Y-143409896D02*
X198982104Y-143409896D01*
X198982104Y-143409896D02*
X199644000Y-142748000D01*
X155690297Y-150679509D02*
X155956000Y-150945212D01*
X155956000Y-150945212D02*
X155956000Y-152146000D01*
X185166000Y-155448000D02*
X186944000Y-153670000D01*
X155956000Y-152146000D02*
X159258000Y-155448000D01*
X159258000Y-155448000D02*
X185166000Y-155448000D01*
X186944000Y-153670000D02*
X186944000Y-145796000D01*
X186944000Y-145796000D02*
X189330104Y-143409896D01*
X189330104Y-143409896D02*
X198628000Y-143409896D01*
X120750104Y-143409896D02*
X130048000Y-143409896D01*
X118364000Y-145796000D02*
X120750104Y-143409896D01*
X118364000Y-153670000D02*
X118364000Y-145796000D01*
X90678000Y-155448000D02*
X116586000Y-155448000D01*
X87376000Y-152146000D02*
X90678000Y-155448000D01*
X116586000Y-155448000D02*
X118364000Y-153670000D01*
X87376000Y-150945212D02*
X87376000Y-152146000D01*
X87110297Y-150679509D02*
X87376000Y-150945212D01*
X130402104Y-143409896D02*
X131064000Y-142748000D01*
X130048000Y-143409896D02*
X130402104Y-143409896D01*
X61468000Y-143409896D02*
X61822104Y-143409896D01*
X61822104Y-143409896D02*
X62484000Y-142748000D01*
X18530297Y-150679509D02*
X18796000Y-150945212D01*
X18796000Y-150945212D02*
X18796000Y-152146000D01*
X48006000Y-155448000D02*
X49784000Y-153670000D01*
X18796000Y-152146000D02*
X22098000Y-155448000D01*
X22098000Y-155448000D02*
X48006000Y-155448000D01*
X49784000Y-153670000D02*
X49784000Y-145796000D01*
X49784000Y-145796000D02*
X52170104Y-143409896D01*
X52170104Y-143409896D02*
X61468000Y-143409896D01*
X257910104Y-143409896D02*
X267208000Y-143409896D01*
X255524000Y-145796000D02*
X257910104Y-143409896D01*
X255524000Y-153670000D02*
X255524000Y-145796000D01*
X227838000Y-155448000D02*
X253746000Y-155448000D01*
X224536000Y-152146000D02*
X227838000Y-155448000D01*
X253746000Y-155448000D02*
X255524000Y-153670000D01*
X224536000Y-150945212D02*
X224536000Y-152146000D01*
X224270297Y-150679509D02*
X224536000Y-150945212D01*
X267562104Y-143409896D02*
X268224000Y-142748000D01*
X267208000Y-143409896D02*
X267562104Y-143409896D01*
X257910104Y-26569896D02*
X267208000Y-26569896D01*
X255524000Y-28956000D02*
X257910104Y-26569896D01*
X255524000Y-36830000D02*
X255524000Y-28956000D01*
X227838000Y-38608000D02*
X253746000Y-38608000D01*
X224536000Y-35306000D02*
X227838000Y-38608000D01*
X253746000Y-38608000D02*
X255524000Y-36830000D01*
X224536000Y-34105212D02*
X224536000Y-35306000D01*
X224270297Y-33839509D02*
X224536000Y-34105212D01*
X267562104Y-26569896D02*
X268224000Y-25908000D01*
X267208000Y-26569896D02*
X267562104Y-26569896D01*
X267208000Y-84989896D02*
X267562104Y-84989896D01*
X267562104Y-84989896D02*
X268224000Y-84328000D01*
X224270297Y-92259509D02*
X224536000Y-92525212D01*
X224536000Y-92525212D02*
X224536000Y-93726000D01*
X253746000Y-97028000D02*
X255524000Y-95250000D01*
X224536000Y-93726000D02*
X227838000Y-97028000D01*
X227838000Y-97028000D02*
X253746000Y-97028000D01*
X255524000Y-95250000D02*
X255524000Y-87376000D01*
X255524000Y-87376000D02*
X257910104Y-84989896D01*
X257910104Y-84989896D02*
X267208000Y-84989896D01*
X52170104Y-84989896D02*
X61468000Y-84989896D01*
X49784000Y-87376000D02*
X52170104Y-84989896D01*
X49784000Y-95250000D02*
X49784000Y-87376000D01*
X22098000Y-97028000D02*
X48006000Y-97028000D01*
X18796000Y-93726000D02*
X22098000Y-97028000D01*
X48006000Y-97028000D02*
X49784000Y-95250000D01*
X18796000Y-92525212D02*
X18796000Y-93726000D01*
X18530297Y-92259509D02*
X18796000Y-92525212D01*
X61822104Y-84989896D02*
X62484000Y-84328000D01*
X61468000Y-84989896D02*
X61822104Y-84989896D01*
X130048000Y-84989896D02*
X130402104Y-84989896D01*
X130402104Y-84989896D02*
X131064000Y-84328000D01*
X87110297Y-92259509D02*
X87376000Y-92525212D01*
X87376000Y-92525212D02*
X87376000Y-93726000D01*
X116586000Y-97028000D02*
X118364000Y-95250000D01*
X87376000Y-93726000D02*
X90678000Y-97028000D01*
X90678000Y-97028000D02*
X116586000Y-97028000D01*
X118364000Y-95250000D02*
X118364000Y-87376000D01*
X118364000Y-87376000D02*
X120750104Y-84989896D01*
X120750104Y-84989896D02*
X130048000Y-84989896D01*
X189330104Y-84989896D02*
X198628000Y-84989896D01*
X186944000Y-87376000D02*
X189330104Y-84989896D01*
X186944000Y-95250000D02*
X186944000Y-87376000D01*
X159258000Y-97028000D02*
X185166000Y-97028000D01*
X155956000Y-93726000D02*
X159258000Y-97028000D01*
X185166000Y-97028000D02*
X186944000Y-95250000D01*
X155956000Y-92525212D02*
X155956000Y-93726000D01*
X155690297Y-92259509D02*
X155956000Y-92525212D01*
X198982104Y-84989896D02*
X199644000Y-84328000D01*
X198628000Y-84989896D02*
X198982104Y-84989896D01*
X198628000Y-26569896D02*
X198982104Y-26569896D01*
X198982104Y-26569896D02*
X199644000Y-25908000D01*
X155690297Y-33839509D02*
X155956000Y-34105212D01*
X155956000Y-34105212D02*
X155956000Y-35306000D01*
X185166000Y-38608000D02*
X186944000Y-36830000D01*
X155956000Y-35306000D02*
X159258000Y-38608000D01*
X159258000Y-38608000D02*
X185166000Y-38608000D01*
X186944000Y-36830000D02*
X186944000Y-28956000D01*
X186944000Y-28956000D02*
X189330104Y-26569896D01*
X189330104Y-26569896D02*
X198628000Y-26569896D01*
X120750104Y-26569896D02*
X130048000Y-26569896D01*
X118364000Y-28956000D02*
X120750104Y-26569896D01*
X118364000Y-36830000D02*
X118364000Y-28956000D01*
X90678000Y-38608000D02*
X116586000Y-38608000D01*
X87376000Y-35306000D02*
X90678000Y-38608000D01*
X116586000Y-38608000D02*
X118364000Y-36830000D01*
X87376000Y-34105212D02*
X87376000Y-35306000D01*
X87110297Y-33839509D02*
X87376000Y-34105212D01*
X130402104Y-26569896D02*
X131064000Y-25908000D01*
X130048000Y-26569896D02*
X130402104Y-26569896D01*
X61468000Y-26569896D02*
X61822104Y-26569896D01*
X61822104Y-26569896D02*
X62484000Y-25908000D01*
X18530297Y-33839509D02*
X18796000Y-34105212D01*
X18796000Y-34105212D02*
X18796000Y-35306000D01*
X48006000Y-38608000D02*
X49784000Y-36830000D01*
X18796000Y-35306000D02*
X22098000Y-38608000D01*
X22098000Y-38608000D02*
X48006000Y-38608000D01*
X49784000Y-36830000D02*
X49784000Y-28956000D01*
X49784000Y-28956000D02*
X52170104Y-26569896D01*
X52170104Y-26569896D02*
X61468000Y-26569896D01*
X160782000Y-160274000D02*
X160782000Y-157817189D01*
X160782000Y-157817189D02*
X155420322Y-152455511D01*
X155420322Y-152455511D02*
X154810723Y-151845912D01*
X86840322Y-152455511D02*
X86230723Y-151845912D01*
X92202000Y-157817189D02*
X86840322Y-152455511D01*
X92202000Y-160274000D02*
X92202000Y-157817189D01*
X23622000Y-160274000D02*
X23622000Y-157817189D01*
X23622000Y-157817189D02*
X18260322Y-152455511D01*
X18260322Y-152455511D02*
X17650723Y-151845912D01*
X224000322Y-152455511D02*
X223390723Y-151845912D01*
X229362000Y-157817189D02*
X224000322Y-152455511D01*
X229362000Y-160274000D02*
X229362000Y-157817189D01*
X224000322Y-35615511D02*
X223390723Y-35005912D01*
X229362000Y-40977189D02*
X224000322Y-35615511D01*
X229362000Y-43434000D02*
X229362000Y-40977189D01*
X229362000Y-101854000D02*
X229362000Y-99397189D01*
X229362000Y-99397189D02*
X224000322Y-94035511D01*
X224000322Y-94035511D02*
X223390723Y-93425912D01*
X18260322Y-94035511D02*
X17650723Y-93425912D01*
X23622000Y-99397189D02*
X18260322Y-94035511D01*
X23622000Y-101854000D02*
X23622000Y-99397189D01*
X92202000Y-101854000D02*
X92202000Y-99397189D01*
X92202000Y-99397189D02*
X86840322Y-94035511D01*
X86840322Y-94035511D02*
X86230723Y-93425912D01*
X155420322Y-94035511D02*
X154810723Y-93425912D01*
X160782000Y-99397189D02*
X155420322Y-94035511D01*
X160782000Y-101854000D02*
X160782000Y-99397189D01*
X160782000Y-43434000D02*
X160782000Y-40977189D01*
X160782000Y-40977189D02*
X155420322Y-35615511D01*
X155420322Y-35615511D02*
X154810723Y-35005912D01*
X86840322Y-35615511D02*
X86230723Y-35005912D01*
X92202000Y-40977189D02*
X86840322Y-35615511D01*
X92202000Y-43434000D02*
X92202000Y-40977189D01*
X23622000Y-43434000D02*
X23622000Y-40977189D01*
X23622000Y-40977189D02*
X18260322Y-35615511D01*
X18260322Y-35615511D02*
X17650723Y-35005912D01*
X151638000Y-156076906D02*
X151206199Y-155645105D01*
X151206199Y-155645105D02*
X151206199Y-153693905D01*
X161544000Y-161290000D02*
X155702000Y-161290000D01*
X155702000Y-161290000D02*
X151638000Y-157226000D01*
X151638000Y-157226000D02*
X151638000Y-156076906D01*
X151206199Y-153693905D02*
X151638000Y-153262104D01*
X151638000Y-153262104D02*
X151638000Y-152400000D01*
X162052000Y-160782000D02*
X161544000Y-161290000D01*
X163322000Y-160782000D02*
X162052000Y-160782000D01*
X94742000Y-160782000D02*
X93472000Y-160782000D01*
X93472000Y-160782000D02*
X92964000Y-161290000D01*
X83058000Y-153262104D02*
X83058000Y-152400000D01*
X82626199Y-153693905D02*
X83058000Y-153262104D01*
X83058000Y-157226000D02*
X83058000Y-156076906D01*
X87122000Y-161290000D02*
X83058000Y-157226000D01*
X92964000Y-161290000D02*
X87122000Y-161290000D01*
X82626199Y-155645105D02*
X82626199Y-153693905D01*
X83058000Y-156076906D02*
X82626199Y-155645105D01*
X14478000Y-156076906D02*
X14046199Y-155645105D01*
X14046199Y-155645105D02*
X14046199Y-153693905D01*
X24384000Y-161290000D02*
X18542000Y-161290000D01*
X18542000Y-161290000D02*
X14478000Y-157226000D01*
X14478000Y-157226000D02*
X14478000Y-156076906D01*
X14046199Y-153693905D02*
X14478000Y-153262104D01*
X14478000Y-153262104D02*
X14478000Y-152400000D01*
X24892000Y-160782000D02*
X24384000Y-161290000D01*
X26162000Y-160782000D02*
X24892000Y-160782000D01*
X231902000Y-160782000D02*
X230632000Y-160782000D01*
X230632000Y-160782000D02*
X230124000Y-161290000D01*
X220218000Y-153262104D02*
X220218000Y-152400000D01*
X219786199Y-153693905D02*
X220218000Y-153262104D01*
X220218000Y-157226000D02*
X220218000Y-156076906D01*
X224282000Y-161290000D02*
X220218000Y-157226000D01*
X230124000Y-161290000D02*
X224282000Y-161290000D01*
X219786199Y-155645105D02*
X219786199Y-153693905D01*
X220218000Y-156076906D02*
X219786199Y-155645105D01*
X231902000Y-43942000D02*
X230632000Y-43942000D01*
X230632000Y-43942000D02*
X230124000Y-44450000D01*
X220218000Y-36422104D02*
X220218000Y-35560000D01*
X219786199Y-36853905D02*
X220218000Y-36422104D01*
X220218000Y-40386000D02*
X220218000Y-39236906D01*
X224282000Y-44450000D02*
X220218000Y-40386000D01*
X230124000Y-44450000D02*
X224282000Y-44450000D01*
X219786199Y-38805105D02*
X219786199Y-36853905D01*
X220218000Y-39236906D02*
X219786199Y-38805105D01*
X220218000Y-97656906D02*
X219786199Y-97225105D01*
X219786199Y-97225105D02*
X219786199Y-95273905D01*
X230124000Y-102870000D02*
X224282000Y-102870000D01*
X224282000Y-102870000D02*
X220218000Y-98806000D01*
X220218000Y-98806000D02*
X220218000Y-97656906D01*
X219786199Y-95273905D02*
X220218000Y-94842104D01*
X220218000Y-94842104D02*
X220218000Y-93980000D01*
X230632000Y-102362000D02*
X230124000Y-102870000D01*
X231902000Y-102362000D02*
X230632000Y-102362000D01*
X26162000Y-102362000D02*
X24892000Y-102362000D01*
X24892000Y-102362000D02*
X24384000Y-102870000D01*
X14478000Y-94842104D02*
X14478000Y-93980000D01*
X14046199Y-95273905D02*
X14478000Y-94842104D01*
X14478000Y-98806000D02*
X14478000Y-97656906D01*
X18542000Y-102870000D02*
X14478000Y-98806000D01*
X24384000Y-102870000D02*
X18542000Y-102870000D01*
X14046199Y-97225105D02*
X14046199Y-95273905D01*
X14478000Y-97656906D02*
X14046199Y-97225105D01*
X83058000Y-97656906D02*
X82626199Y-97225105D01*
X82626199Y-97225105D02*
X82626199Y-95273905D01*
X92964000Y-102870000D02*
X87122000Y-102870000D01*
X87122000Y-102870000D02*
X83058000Y-98806000D01*
X83058000Y-98806000D02*
X83058000Y-97656906D01*
X82626199Y-95273905D02*
X83058000Y-94842104D01*
X83058000Y-94842104D02*
X83058000Y-93980000D01*
X93472000Y-102362000D02*
X92964000Y-102870000D01*
X94742000Y-102362000D02*
X93472000Y-102362000D01*
X163322000Y-102362000D02*
X162052000Y-102362000D01*
X162052000Y-102362000D02*
X161544000Y-102870000D01*
X151638000Y-94842104D02*
X151638000Y-93980000D01*
X151206199Y-95273905D02*
X151638000Y-94842104D01*
X151638000Y-98806000D02*
X151638000Y-97656906D01*
X155702000Y-102870000D02*
X151638000Y-98806000D01*
X161544000Y-102870000D02*
X155702000Y-102870000D01*
X151206199Y-97225105D02*
X151206199Y-95273905D01*
X151638000Y-97656906D02*
X151206199Y-97225105D01*
X151638000Y-39236906D02*
X151206199Y-38805105D01*
X151206199Y-38805105D02*
X151206199Y-36853905D01*
X161544000Y-44450000D02*
X155702000Y-44450000D01*
X155702000Y-44450000D02*
X151638000Y-40386000D01*
X151638000Y-40386000D02*
X151638000Y-39236906D01*
X151206199Y-36853905D02*
X151638000Y-36422104D01*
X151638000Y-36422104D02*
X151638000Y-35560000D01*
X162052000Y-43942000D02*
X161544000Y-44450000D01*
X163322000Y-43942000D02*
X162052000Y-43942000D01*
X94742000Y-43942000D02*
X93472000Y-43942000D01*
X93472000Y-43942000D02*
X92964000Y-44450000D01*
X83058000Y-36422104D02*
X83058000Y-35560000D01*
X82626199Y-36853905D02*
X83058000Y-36422104D01*
X83058000Y-40386000D02*
X83058000Y-39236906D01*
X87122000Y-44450000D02*
X83058000Y-40386000D01*
X92964000Y-44450000D02*
X87122000Y-44450000D01*
X82626199Y-38805105D02*
X82626199Y-36853905D01*
X83058000Y-39236906D02*
X82626199Y-38805105D01*
X14478000Y-39236906D02*
X14046199Y-38805105D01*
X14046199Y-38805105D02*
X14046199Y-36853905D01*
X24384000Y-44450000D02*
X18542000Y-44450000D01*
X18542000Y-44450000D02*
X14478000Y-40386000D01*
X14478000Y-40386000D02*
X14478000Y-39236906D01*
X14046199Y-36853905D02*
X14478000Y-36422104D01*
X14478000Y-36422104D02*
X14478000Y-35560000D01*
X24892000Y-43942000D02*
X24384000Y-44450000D01*
X26162000Y-43942000D02*
X24892000Y-43942000D01*
X167386000Y-147828000D02*
X168402000Y-146812000D01*
X168402000Y-146812000D02*
X168402000Y-144018000D01*
X167386000Y-150114000D02*
X167386000Y-147828000D01*
X98806000Y-150114000D02*
X98806000Y-147828000D01*
X99822000Y-146812000D02*
X99822000Y-144018000D01*
X98806000Y-147828000D02*
X99822000Y-146812000D01*
X30226000Y-147828000D02*
X31242000Y-146812000D01*
X31242000Y-146812000D02*
X31242000Y-144018000D01*
X30226000Y-150114000D02*
X30226000Y-147828000D01*
X235966000Y-150114000D02*
X235966000Y-147828000D01*
X236982000Y-146812000D02*
X236982000Y-144018000D01*
X235966000Y-147828000D02*
X236982000Y-146812000D01*
X235966000Y-33274000D02*
X235966000Y-30988000D01*
X236982000Y-29972000D02*
X236982000Y-27178000D01*
X235966000Y-30988000D02*
X236982000Y-29972000D01*
X235966000Y-89408000D02*
X236982000Y-88392000D01*
X236982000Y-88392000D02*
X236982000Y-85598000D01*
X235966000Y-91694000D02*
X235966000Y-89408000D01*
X30226000Y-91694000D02*
X30226000Y-89408000D01*
X31242000Y-88392000D02*
X31242000Y-85598000D01*
X30226000Y-89408000D02*
X31242000Y-88392000D01*
X98806000Y-89408000D02*
X99822000Y-88392000D01*
X99822000Y-88392000D02*
X99822000Y-85598000D01*
X98806000Y-91694000D02*
X98806000Y-89408000D01*
X167386000Y-91694000D02*
X167386000Y-89408000D01*
X168402000Y-88392000D02*
X168402000Y-85598000D01*
X167386000Y-89408000D02*
X168402000Y-88392000D01*
X167386000Y-30988000D02*
X168402000Y-29972000D01*
X168402000Y-29972000D02*
X168402000Y-27178000D01*
X167386000Y-33274000D02*
X167386000Y-30988000D01*
X98806000Y-33274000D02*
X98806000Y-30988000D01*
X99822000Y-29972000D02*
X99822000Y-27178000D01*
X98806000Y-30988000D02*
X99822000Y-29972000D01*
X30226000Y-30988000D02*
X31242000Y-29972000D01*
X31242000Y-29972000D02*
X31242000Y-27178000D01*
X30226000Y-33274000D02*
X30226000Y-30988000D01*
X161544000Y-143510000D02*
X162560000Y-142494000D01*
X162560000Y-142494000D02*
X163576000Y-142494000D01*
X158496000Y-143510000D02*
X161544000Y-143510000D01*
X169418000Y-148082000D02*
X169418000Y-143256000D01*
X169418000Y-143256000D02*
X168656000Y-142494000D01*
X169265599Y-148234401D02*
X169418000Y-148082000D01*
X168656000Y-148844000D02*
X169265599Y-148234401D01*
X171450000Y-156464000D02*
X169164000Y-156464000D01*
X102870000Y-156464000D02*
X100584000Y-156464000D01*
X100076000Y-148844000D02*
X100685599Y-148234401D01*
X100685599Y-148234401D02*
X100838000Y-148082000D01*
X100838000Y-143256000D02*
X100076000Y-142494000D01*
X100838000Y-148082000D02*
X100838000Y-143256000D01*
X89916000Y-143510000D02*
X92964000Y-143510000D01*
X93980000Y-142494000D02*
X94996000Y-142494000D01*
X92964000Y-143510000D02*
X93980000Y-142494000D01*
X24384000Y-143510000D02*
X25400000Y-142494000D01*
X25400000Y-142494000D02*
X26416000Y-142494000D01*
X21336000Y-143510000D02*
X24384000Y-143510000D01*
X32258000Y-148082000D02*
X32258000Y-143256000D01*
X32258000Y-143256000D02*
X31496000Y-142494000D01*
X32105599Y-148234401D02*
X32258000Y-148082000D01*
X31496000Y-148844000D02*
X32105599Y-148234401D01*
X34290000Y-156464000D02*
X32004000Y-156464000D01*
X240030000Y-156464000D02*
X237744000Y-156464000D01*
X237236000Y-148844000D02*
X237845599Y-148234401D01*
X237845599Y-148234401D02*
X237998000Y-148082000D01*
X237998000Y-143256000D02*
X237236000Y-142494000D01*
X237998000Y-148082000D02*
X237998000Y-143256000D01*
X227076000Y-143510000D02*
X230124000Y-143510000D01*
X231140000Y-142494000D02*
X232156000Y-142494000D01*
X230124000Y-143510000D02*
X231140000Y-142494000D01*
X240030000Y-39624000D02*
X237744000Y-39624000D01*
X237236000Y-32004000D02*
X237845599Y-31394401D01*
X237845599Y-31394401D02*
X237998000Y-31242000D01*
X237998000Y-26416000D02*
X237236000Y-25654000D01*
X237998000Y-31242000D02*
X237998000Y-26416000D01*
X227076000Y-26670000D02*
X230124000Y-26670000D01*
X231140000Y-25654000D02*
X232156000Y-25654000D01*
X230124000Y-26670000D02*
X231140000Y-25654000D01*
X230124000Y-85090000D02*
X231140000Y-84074000D01*
X231140000Y-84074000D02*
X232156000Y-84074000D01*
X227076000Y-85090000D02*
X230124000Y-85090000D01*
X237998000Y-89662000D02*
X237998000Y-84836000D01*
X237998000Y-84836000D02*
X237236000Y-84074000D01*
X237845599Y-89814401D02*
X237998000Y-89662000D01*
X237236000Y-90424000D02*
X237845599Y-89814401D01*
X240030000Y-98044000D02*
X237744000Y-98044000D01*
X34290000Y-98044000D02*
X32004000Y-98044000D01*
X31496000Y-90424000D02*
X32105599Y-89814401D01*
X32105599Y-89814401D02*
X32258000Y-89662000D01*
X32258000Y-84836000D02*
X31496000Y-84074000D01*
X32258000Y-89662000D02*
X32258000Y-84836000D01*
X21336000Y-85090000D02*
X24384000Y-85090000D01*
X25400000Y-84074000D02*
X26416000Y-84074000D01*
X24384000Y-85090000D02*
X25400000Y-84074000D01*
X92964000Y-85090000D02*
X93980000Y-84074000D01*
X93980000Y-84074000D02*
X94996000Y-84074000D01*
X89916000Y-85090000D02*
X92964000Y-85090000D01*
X100838000Y-89662000D02*
X100838000Y-84836000D01*
X100838000Y-84836000D02*
X100076000Y-84074000D01*
X100685599Y-89814401D02*
X100838000Y-89662000D01*
X100076000Y-90424000D02*
X100685599Y-89814401D01*
X102870000Y-98044000D02*
X100584000Y-98044000D01*
X171450000Y-98044000D02*
X169164000Y-98044000D01*
X168656000Y-90424000D02*
X169265599Y-89814401D01*
X169265599Y-89814401D02*
X169418000Y-89662000D01*
X169418000Y-84836000D02*
X168656000Y-84074000D01*
X169418000Y-89662000D02*
X169418000Y-84836000D01*
X158496000Y-85090000D02*
X161544000Y-85090000D01*
X162560000Y-84074000D02*
X163576000Y-84074000D01*
X161544000Y-85090000D02*
X162560000Y-84074000D01*
X161544000Y-26670000D02*
X162560000Y-25654000D01*
X162560000Y-25654000D02*
X163576000Y-25654000D01*
X158496000Y-26670000D02*
X161544000Y-26670000D01*
X169418000Y-31242000D02*
X169418000Y-26416000D01*
X169418000Y-26416000D02*
X168656000Y-25654000D01*
X169265599Y-31394401D02*
X169418000Y-31242000D01*
X168656000Y-32004000D02*
X169265599Y-31394401D01*
X171450000Y-39624000D02*
X169164000Y-39624000D01*
X102870000Y-39624000D02*
X100584000Y-39624000D01*
X100076000Y-32004000D02*
X100685599Y-31394401D01*
X100685599Y-31394401D02*
X100838000Y-31242000D01*
X100838000Y-26416000D02*
X100076000Y-25654000D01*
X100838000Y-31242000D02*
X100838000Y-26416000D01*
X89916000Y-26670000D02*
X92964000Y-26670000D01*
X93980000Y-25654000D02*
X94996000Y-25654000D01*
X92964000Y-26670000D02*
X93980000Y-25654000D01*
X24384000Y-26670000D02*
X25400000Y-25654000D01*
X25400000Y-25654000D02*
X26416000Y-25654000D01*
X21336000Y-26670000D02*
X24384000Y-26670000D01*
X32258000Y-31242000D02*
X32258000Y-26416000D01*
X32258000Y-26416000D02*
X31496000Y-25654000D01*
X32105599Y-31394401D02*
X32258000Y-31242000D01*
X31496000Y-32004000D02*
X32105599Y-31394401D01*
X34290000Y-39624000D02*
X32004000Y-39624000D01*
M02*
