G04 #@! TF.FileFunction,Soldermask,Bot*
%FSLAX46Y46*%
G04 Gerber Fmt 4.6, Leading zero omitted, Abs format (unit mm)*
G04 Created by KiCad (PCBNEW 4.0.6) date Friday, 09 June 2017 'AMt' 10:28:24*
%MOMM*%
%LPD*%
G01*
G04 APERTURE LIST*
%ADD10C,0.100000*%
%ADD11C,3.448000*%
%ADD12C,1.299160*%
%ADD13R,2.686000X2.178000*%
%ADD14R,2.127200X2.127200*%
%ADD15O,2.127200X2.127200*%
%ADD16C,7.004000*%
G04 APERTURE END LIST*
D10*
D11*
X143002000Y-167386000D03*
X187452000Y-139446000D03*
D12*
X143090900Y-145374360D03*
X143090900Y-149773640D03*
D13*
X192532000Y-138430000D03*
X192532000Y-135890000D03*
X192532000Y-133350000D03*
D14*
X189484000Y-125476000D03*
D15*
X189484000Y-122936000D03*
X192024000Y-125476000D03*
X192024000Y-122936000D03*
X194564000Y-125476000D03*
X194564000Y-122936000D03*
X197104000Y-125476000D03*
X197104000Y-122936000D03*
D16*
X176555400Y-122682000D03*
X169392600Y-122682000D03*
D13*
X192532000Y-155448000D03*
X192532000Y-152908000D03*
X192532000Y-150368000D03*
X192786000Y-166116000D03*
X192786000Y-163576000D03*
X192786000Y-161036000D03*
D11*
X140208000Y-119634000D03*
X71628000Y-119634000D03*
D13*
X124206000Y-166116000D03*
X124206000Y-163576000D03*
X124206000Y-161036000D03*
X123952000Y-155448000D03*
X123952000Y-152908000D03*
X123952000Y-150368000D03*
D16*
X107975400Y-122682000D03*
X100812600Y-122682000D03*
D14*
X120904000Y-125476000D03*
D15*
X120904000Y-122936000D03*
X123444000Y-125476000D03*
X123444000Y-122936000D03*
X125984000Y-125476000D03*
X125984000Y-122936000D03*
X128524000Y-125476000D03*
X128524000Y-122936000D03*
D13*
X123952000Y-138430000D03*
X123952000Y-135890000D03*
X123952000Y-133350000D03*
D12*
X74510900Y-145374360D03*
X74510900Y-149773640D03*
D11*
X118872000Y-139446000D03*
X74422000Y-167386000D03*
X5842000Y-167386000D03*
X50292000Y-139446000D03*
D12*
X5930900Y-145374360D03*
X5930900Y-149773640D03*
D13*
X55372000Y-138430000D03*
X55372000Y-135890000D03*
X55372000Y-133350000D03*
D14*
X52324000Y-125476000D03*
D15*
X52324000Y-122936000D03*
X54864000Y-125476000D03*
X54864000Y-122936000D03*
X57404000Y-125476000D03*
X57404000Y-122936000D03*
X59944000Y-125476000D03*
X59944000Y-122936000D03*
D16*
X39395400Y-122682000D03*
X32232600Y-122682000D03*
D13*
X55372000Y-155448000D03*
X55372000Y-152908000D03*
X55372000Y-150368000D03*
X55626000Y-166116000D03*
X55626000Y-163576000D03*
X55626000Y-161036000D03*
D11*
X3048000Y-119634000D03*
X208788000Y-119634000D03*
D13*
X261366000Y-166116000D03*
X261366000Y-163576000D03*
X261366000Y-161036000D03*
X261112000Y-155448000D03*
X261112000Y-152908000D03*
X261112000Y-150368000D03*
D16*
X245135400Y-122682000D03*
X237972600Y-122682000D03*
D14*
X258064000Y-125476000D03*
D15*
X258064000Y-122936000D03*
X260604000Y-125476000D03*
X260604000Y-122936000D03*
X263144000Y-125476000D03*
X263144000Y-122936000D03*
X265684000Y-125476000D03*
X265684000Y-122936000D03*
D13*
X261112000Y-138430000D03*
X261112000Y-135890000D03*
X261112000Y-133350000D03*
D12*
X211670900Y-145374360D03*
X211670900Y-149773640D03*
D11*
X256032000Y-139446000D03*
X211582000Y-167386000D03*
X208788000Y-2794000D03*
D13*
X261366000Y-49276000D03*
X261366000Y-46736000D03*
X261366000Y-44196000D03*
X261112000Y-38608000D03*
X261112000Y-36068000D03*
X261112000Y-33528000D03*
D16*
X245135400Y-5842000D03*
X237972600Y-5842000D03*
D14*
X258064000Y-8636000D03*
D15*
X258064000Y-6096000D03*
X260604000Y-8636000D03*
X260604000Y-6096000D03*
X263144000Y-8636000D03*
X263144000Y-6096000D03*
X265684000Y-8636000D03*
X265684000Y-6096000D03*
D13*
X261112000Y-21590000D03*
X261112000Y-19050000D03*
X261112000Y-16510000D03*
D12*
X211670900Y-28534360D03*
X211670900Y-32933640D03*
D11*
X256032000Y-22606000D03*
X211582000Y-50546000D03*
X211582000Y-108966000D03*
X256032000Y-81026000D03*
D12*
X211670900Y-86954360D03*
X211670900Y-91353640D03*
D13*
X261112000Y-80010000D03*
X261112000Y-77470000D03*
X261112000Y-74930000D03*
D14*
X258064000Y-67056000D03*
D15*
X258064000Y-64516000D03*
X260604000Y-67056000D03*
X260604000Y-64516000D03*
X263144000Y-67056000D03*
X263144000Y-64516000D03*
X265684000Y-67056000D03*
X265684000Y-64516000D03*
D16*
X245135400Y-64262000D03*
X237972600Y-64262000D03*
D13*
X261112000Y-97028000D03*
X261112000Y-94488000D03*
X261112000Y-91948000D03*
X261366000Y-107696000D03*
X261366000Y-105156000D03*
X261366000Y-102616000D03*
D11*
X208788000Y-61214000D03*
X3048000Y-61214000D03*
D13*
X55626000Y-107696000D03*
X55626000Y-105156000D03*
X55626000Y-102616000D03*
X55372000Y-97028000D03*
X55372000Y-94488000D03*
X55372000Y-91948000D03*
D16*
X39395400Y-64262000D03*
X32232600Y-64262000D03*
D14*
X52324000Y-67056000D03*
D15*
X52324000Y-64516000D03*
X54864000Y-67056000D03*
X54864000Y-64516000D03*
X57404000Y-67056000D03*
X57404000Y-64516000D03*
X59944000Y-67056000D03*
X59944000Y-64516000D03*
D13*
X55372000Y-80010000D03*
X55372000Y-77470000D03*
X55372000Y-74930000D03*
D12*
X5930900Y-86954360D03*
X5930900Y-91353640D03*
D11*
X50292000Y-81026000D03*
X5842000Y-108966000D03*
X74422000Y-108966000D03*
X118872000Y-81026000D03*
D12*
X74510900Y-86954360D03*
X74510900Y-91353640D03*
D13*
X123952000Y-80010000D03*
X123952000Y-77470000D03*
X123952000Y-74930000D03*
D14*
X120904000Y-67056000D03*
D15*
X120904000Y-64516000D03*
X123444000Y-67056000D03*
X123444000Y-64516000D03*
X125984000Y-67056000D03*
X125984000Y-64516000D03*
X128524000Y-67056000D03*
X128524000Y-64516000D03*
D16*
X107975400Y-64262000D03*
X100812600Y-64262000D03*
D13*
X123952000Y-97028000D03*
X123952000Y-94488000D03*
X123952000Y-91948000D03*
X124206000Y-107696000D03*
X124206000Y-105156000D03*
X124206000Y-102616000D03*
D11*
X71628000Y-61214000D03*
X140208000Y-61214000D03*
D13*
X192786000Y-107696000D03*
X192786000Y-105156000D03*
X192786000Y-102616000D03*
X192532000Y-97028000D03*
X192532000Y-94488000D03*
X192532000Y-91948000D03*
D16*
X176555400Y-64262000D03*
X169392600Y-64262000D03*
D14*
X189484000Y-67056000D03*
D15*
X189484000Y-64516000D03*
X192024000Y-67056000D03*
X192024000Y-64516000D03*
X194564000Y-67056000D03*
X194564000Y-64516000D03*
X197104000Y-67056000D03*
X197104000Y-64516000D03*
D13*
X192532000Y-80010000D03*
X192532000Y-77470000D03*
X192532000Y-74930000D03*
D12*
X143090900Y-86954360D03*
X143090900Y-91353640D03*
D11*
X187452000Y-81026000D03*
X143002000Y-108966000D03*
X143002000Y-50546000D03*
X187452000Y-22606000D03*
D12*
X143090900Y-28534360D03*
X143090900Y-32933640D03*
D13*
X192532000Y-21590000D03*
X192532000Y-19050000D03*
X192532000Y-16510000D03*
D14*
X189484000Y-8636000D03*
D15*
X189484000Y-6096000D03*
X192024000Y-8636000D03*
X192024000Y-6096000D03*
X194564000Y-8636000D03*
X194564000Y-6096000D03*
X197104000Y-8636000D03*
X197104000Y-6096000D03*
D16*
X176555400Y-5842000D03*
X169392600Y-5842000D03*
D13*
X192532000Y-38608000D03*
X192532000Y-36068000D03*
X192532000Y-33528000D03*
X192786000Y-49276000D03*
X192786000Y-46736000D03*
X192786000Y-44196000D03*
D11*
X140208000Y-2794000D03*
X71628000Y-2794000D03*
D13*
X124206000Y-49276000D03*
X124206000Y-46736000D03*
X124206000Y-44196000D03*
X123952000Y-38608000D03*
X123952000Y-36068000D03*
X123952000Y-33528000D03*
D16*
X107975400Y-5842000D03*
X100812600Y-5842000D03*
D14*
X120904000Y-8636000D03*
D15*
X120904000Y-6096000D03*
X123444000Y-8636000D03*
X123444000Y-6096000D03*
X125984000Y-8636000D03*
X125984000Y-6096000D03*
X128524000Y-8636000D03*
X128524000Y-6096000D03*
D13*
X123952000Y-21590000D03*
X123952000Y-19050000D03*
X123952000Y-16510000D03*
D12*
X74510900Y-28534360D03*
X74510900Y-32933640D03*
D11*
X118872000Y-22606000D03*
X74422000Y-50546000D03*
X5842000Y-50546000D03*
X50292000Y-22606000D03*
D12*
X5930900Y-28534360D03*
X5930900Y-32933640D03*
D13*
X55372000Y-21590000D03*
X55372000Y-19050000D03*
X55372000Y-16510000D03*
D14*
X52324000Y-8636000D03*
D15*
X52324000Y-6096000D03*
X54864000Y-8636000D03*
X54864000Y-6096000D03*
X57404000Y-8636000D03*
X57404000Y-6096000D03*
X59944000Y-8636000D03*
X59944000Y-6096000D03*
D16*
X39395400Y-5842000D03*
X32232600Y-5842000D03*
D13*
X55372000Y-38608000D03*
X55372000Y-36068000D03*
X55372000Y-33528000D03*
X55626000Y-49276000D03*
X55626000Y-46736000D03*
X55626000Y-44196000D03*
D11*
X3048000Y-2794000D03*
M02*
