M48
;DRILL file {KiCad 4.0.6} date 06/24/17 11:57:53
;FORMAT={-:-/ absolute / inch / decimal}
FMAT,2
INCH,TZ
T1C0.039
%
G90
G05
M72
T1
X5.8Y-2.7016
X5.8Y-2.8
X5.8Y-2.8984
X5.8Y-2.9969
X5.8Y-3.0953
X5.8Y-3.1937
X5.8Y-3.2921
X6.15Y-2.7047
X6.15Y-2.8031
X6.15Y-2.9016
X6.15Y-3.
X6.15Y-3.0984
X6.15Y-3.1969
X6.15Y-3.2953
X6.5Y-2.7047
X6.5Y-2.8031
X6.5Y-2.9016
X6.5Y-3.
X6.5Y-3.0984
X6.5Y-3.1969
X6.5Y-3.2953
X6.85Y-2.7031
X6.85Y-2.8016
X6.85Y-2.9
X6.85Y-2.9984
X6.85Y-3.0969
X6.85Y-3.1953
X6.85Y-3.2937
T0
M30
