G04 #@! TF.FileFunction,Paste,Top*
%FSLAX46Y46*%
G04 Gerber Fmt 4.6, Leading zero omitted, Abs format (unit mm)*
G04 Created by KiCad (PCBNEW 4.0.7) date 01/05/18 11:34:56*
%MOMM*%
%LPD*%
G01*
G04 APERTURE LIST*
%ADD10C,0.100000*%
%ADD11R,0.250000X1.000000*%
%ADD12R,1.000000X0.250000*%
%ADD13R,0.800000X0.750000*%
%ADD14R,0.750000X0.800000*%
%ADD15R,1.000000X1.250000*%
%ADD16R,1.250000X1.000000*%
%ADD17R,0.797560X0.797560*%
%ADD18R,1.250000X2.000000*%
%ADD19R,2.000000X1.250000*%
%ADD20R,0.800000X0.900000*%
%ADD21R,0.500380X2.301240*%
%ADD22R,1.998980X2.499360*%
%ADD23R,0.900000X0.800000*%
%ADD24R,0.900000X0.500000*%
%ADD25R,0.500000X0.900000*%
%ADD26R,1.060000X0.650000*%
%ADD27R,0.650000X1.060000*%
%ADD28R,2.000000X3.800000*%
%ADD29R,2.000000X1.500000*%
G04 APERTURE END LIST*
D10*
D11*
X145250000Y-106950000D03*
X145750000Y-106950000D03*
X146250000Y-106950000D03*
X146750000Y-106950000D03*
X147250000Y-106950000D03*
X147750000Y-106950000D03*
X148250000Y-106950000D03*
X148750000Y-106950000D03*
X149250000Y-106950000D03*
X149750000Y-106950000D03*
X150250000Y-106950000D03*
X150750000Y-106950000D03*
X151250000Y-106950000D03*
X151750000Y-106950000D03*
X152250000Y-106950000D03*
X152750000Y-106950000D03*
D12*
X154700000Y-105000000D03*
X154700000Y-104500000D03*
X154700000Y-104000000D03*
X154700000Y-103500000D03*
X154700000Y-103000000D03*
X154700000Y-102500000D03*
X154700000Y-102000000D03*
X154700000Y-101500000D03*
X154700000Y-101000000D03*
X154700000Y-100500000D03*
X154700000Y-100000000D03*
X154700000Y-99500000D03*
X154700000Y-99000000D03*
X154700000Y-98500000D03*
X154700000Y-98000000D03*
X154700000Y-97500000D03*
D11*
X152750000Y-95550000D03*
X152250000Y-95550000D03*
X151750000Y-95550000D03*
X151250000Y-95550000D03*
X150750000Y-95550000D03*
X150250000Y-95550000D03*
X149750000Y-95550000D03*
X149250000Y-95550000D03*
X148750000Y-95550000D03*
X148250000Y-95550000D03*
X147750000Y-95550000D03*
X147250000Y-95550000D03*
X146750000Y-95550000D03*
X146250000Y-95550000D03*
X145750000Y-95550000D03*
X145250000Y-95550000D03*
D12*
X143300000Y-97500000D03*
X143300000Y-98000000D03*
X143300000Y-98500000D03*
X143300000Y-99000000D03*
X143300000Y-99500000D03*
X143300000Y-100000000D03*
X143300000Y-100500000D03*
X143300000Y-101000000D03*
X143300000Y-101500000D03*
X143300000Y-102000000D03*
X143300000Y-102500000D03*
X143300000Y-103000000D03*
X143300000Y-103500000D03*
X143300000Y-104000000D03*
X143300000Y-104500000D03*
X143300000Y-105000000D03*
D13*
X150750000Y-108750000D03*
X152250000Y-108750000D03*
X150500000Y-93750000D03*
X152000000Y-93750000D03*
D14*
X141500000Y-105500000D03*
X141500000Y-107000000D03*
X156500000Y-103000000D03*
X156500000Y-101500000D03*
X156464000Y-98044000D03*
X156464000Y-99544000D03*
D13*
X148000000Y-93750000D03*
X146500000Y-93750000D03*
D14*
X141500000Y-101750000D03*
X141500000Y-100250000D03*
D15*
X128150000Y-102850000D03*
X130150000Y-102850000D03*
X128150000Y-99822000D03*
X130150000Y-99822000D03*
D13*
X128400000Y-104850000D03*
X129900000Y-104850000D03*
X128400000Y-97790000D03*
X129900000Y-97790000D03*
X129650000Y-115100000D03*
X131150000Y-115100000D03*
D16*
X123650000Y-111600000D03*
X123650000Y-109600000D03*
D14*
X135483600Y-110478000D03*
X135483600Y-108978000D03*
D16*
X141250000Y-96500000D03*
X141250000Y-98500000D03*
D13*
X161200000Y-86450000D03*
X162700000Y-86450000D03*
X161200000Y-84700000D03*
X162700000Y-84700000D03*
X141172000Y-112956800D03*
X139672000Y-112956800D03*
D17*
X159999300Y-102000000D03*
X158500700Y-102000000D03*
X160000000Y-100500000D03*
X158501400Y-100500000D03*
D18*
X171312000Y-96000000D03*
X175062000Y-96000000D03*
D19*
X178062000Y-99000000D03*
X178062000Y-102750000D03*
X178062000Y-105000000D03*
X178062000Y-108750000D03*
X174812000Y-113875000D03*
X174812000Y-110125000D03*
X171812000Y-113875000D03*
X171812000Y-110125000D03*
X168562000Y-105000000D03*
X168562000Y-108750000D03*
X168562000Y-99000000D03*
X168562000Y-102750000D03*
D20*
X147300000Y-114000000D03*
X149200000Y-114000000D03*
X148250000Y-112000000D03*
D21*
X150100560Y-78598420D03*
X149300460Y-78598420D03*
X148500360Y-78598420D03*
X147700260Y-78598420D03*
X146900160Y-78598420D03*
D22*
X152950440Y-78499360D03*
X152950440Y-73000260D03*
X144050280Y-78499360D03*
X144050280Y-73000260D03*
D15*
X124150000Y-103100000D03*
X126150000Y-103100000D03*
X124150000Y-100600000D03*
X126150000Y-100600000D03*
X127650000Y-114850000D03*
X125650000Y-114850000D03*
D16*
X164700000Y-88200000D03*
X164700000Y-90200000D03*
D23*
X134650000Y-102550000D03*
X134650000Y-100650000D03*
X132650000Y-101600000D03*
D24*
X156616400Y-107062400D03*
X156616400Y-105562400D03*
X132740400Y-105601200D03*
X132740400Y-104101200D03*
X147400000Y-108750000D03*
X147400000Y-110250000D03*
D25*
X158500000Y-103750000D03*
X160000000Y-103750000D03*
D24*
X149100000Y-108750000D03*
X149100000Y-110250000D03*
D25*
X158500000Y-98750000D03*
X160000000Y-98750000D03*
D24*
X145694400Y-109028800D03*
X145694400Y-110528800D03*
D25*
X153750000Y-108750000D03*
X155250000Y-108750000D03*
D24*
X137422000Y-112206800D03*
X137422000Y-113706800D03*
X143422000Y-114956800D03*
X143422000Y-116456800D03*
X145172000Y-114956800D03*
X145172000Y-116456800D03*
X137422000Y-116456800D03*
X137422000Y-114956800D03*
D26*
X139322000Y-114756800D03*
X139322000Y-115706800D03*
X139322000Y-116656800D03*
X141522000Y-116656800D03*
X141522000Y-114756800D03*
X141522000Y-115706800D03*
D27*
X162650000Y-88200000D03*
X161700000Y-88200000D03*
X160750000Y-88200000D03*
X160750000Y-90400000D03*
X162650000Y-90400000D03*
X161700000Y-90400000D03*
D28*
X132550000Y-109600000D03*
D29*
X126250000Y-109600000D03*
X126250000Y-111900000D03*
X126250000Y-107300000D03*
M02*
