G04 #@! TF.FileFunction,Legend,Bot*
%FSLAX46Y46*%
G04 Gerber Fmt 4.6, Leading zero omitted, Abs format (unit mm)*
G04 Created by KiCad (PCBNEW 4.0.7) date 01/05/18 11:34:56*
%MOMM*%
%LPD*%
G01*
G04 APERTURE LIST*
%ADD10C,0.100000*%
%ADD11C,0.150000*%
%ADD12C,3.448000*%
%ADD13R,1.200000X1.150000*%
%ADD14R,1.050000X4.000000*%
%ADD15R,1.050000X5.000000*%
%ADD16O,1.050000X1.050000*%
%ADD17R,2.178000X2.686000*%
%ADD18R,2.127200X2.127200*%
%ADD19O,2.127200X2.127200*%
%ADD20C,1.299160*%
%ADD21C,7.004000*%
%ADD22R,0.900000X1.300000*%
%ADD23R,1.000000X2.350000*%
%ADD24R,1.900000X1.000000*%
%ADD25R,2.599640X2.800300*%
%ADD26R,2.100000X2.100000*%
%ADD27O,2.100000X2.100000*%
G04 APERTURE END LIST*
D10*
D11*
X135540000Y-86866000D02*
X134840000Y-86866000D01*
X134840000Y-88066000D02*
X135540000Y-88066000D01*
X135540000Y-85266000D02*
X134840000Y-85266000D01*
X134840000Y-86466000D02*
X135540000Y-86466000D01*
X132430000Y-100746000D02*
X131730000Y-100746000D01*
X131730000Y-101946000D02*
X132430000Y-101946000D01*
X132540000Y-86866000D02*
X131840000Y-86866000D01*
X131840000Y-88066000D02*
X132540000Y-88066000D01*
X126840000Y-88066000D02*
X127540000Y-88066000D01*
X127540000Y-86866000D02*
X126840000Y-86866000D01*
X123840000Y-88066000D02*
X124540000Y-88066000D01*
X124540000Y-86866000D02*
X123840000Y-86866000D01*
X141550000Y-109800000D02*
X140850000Y-109800000D01*
X140850000Y-111000000D02*
X141550000Y-111000000D01*
X144000000Y-111000000D02*
X144700000Y-111000000D01*
X144700000Y-109800000D02*
X144000000Y-109800000D01*
X156120000Y-96683000D02*
X157120000Y-96683000D01*
X157120000Y-95333000D02*
X156120000Y-95333000D01*
X156120000Y-108683000D02*
X157120000Y-108683000D01*
X157120000Y-107333000D02*
X156120000Y-107333000D01*
X156120000Y-99183000D02*
X157120000Y-99183000D01*
X157120000Y-97833000D02*
X156120000Y-97833000D01*
X156120000Y-111183000D02*
X157120000Y-111183000D01*
X157120000Y-109833000D02*
X156120000Y-109833000D01*
X156120000Y-101683000D02*
X157120000Y-101683000D01*
X157120000Y-100333000D02*
X156120000Y-100333000D01*
X156120000Y-113683000D02*
X157120000Y-113683000D01*
X157120000Y-112333000D02*
X156120000Y-112333000D01*
X156120000Y-104183000D02*
X157120000Y-104183000D01*
X157120000Y-102833000D02*
X156120000Y-102833000D01*
X136230000Y-98241000D02*
X135980000Y-98241000D01*
X136230000Y-90491000D02*
X135895000Y-90491000D01*
X123080000Y-90491000D02*
X123415000Y-90491000D01*
X123080000Y-98241000D02*
X123415000Y-98241000D01*
X136230000Y-98241000D02*
X136230000Y-90491000D01*
X123080000Y-98241000D02*
X123080000Y-90491000D01*
X135980000Y-98241000D02*
X135980000Y-100041000D01*
X161245000Y-105833000D02*
X161245000Y-105558000D01*
X165995000Y-105833000D02*
X165995000Y-105478000D01*
X165995000Y-95183000D02*
X165995000Y-95538000D01*
X161245000Y-95183000D02*
X161245000Y-95538000D01*
X161245000Y-105833000D02*
X165995000Y-105833000D01*
X161345000Y-95183000D02*
X165895000Y-95183000D01*
X161245000Y-105558000D02*
X159835000Y-105558000D01*
X161245000Y-117833000D02*
X161245000Y-117558000D01*
X165995000Y-117833000D02*
X165995000Y-117478000D01*
X165995000Y-107183000D02*
X165995000Y-107538000D01*
X161245000Y-107183000D02*
X161245000Y-107538000D01*
X161245000Y-117833000D02*
X165995000Y-117833000D01*
X161345000Y-107183000D02*
X165895000Y-107183000D01*
X161245000Y-117558000D02*
X159835000Y-117558000D01*
X139000960Y-111500640D02*
X139000960Y-112300740D01*
X139000960Y-116499360D02*
X139000960Y-115699260D01*
X146499040Y-116499360D02*
X146499040Y-115699260D01*
X146499040Y-111500640D02*
X146499040Y-112300740D01*
X139000960Y-111500640D02*
X146499040Y-111500640D01*
X146499040Y-116499360D02*
X139000960Y-116499360D01*
X156116400Y-116194200D02*
X157116400Y-116194200D01*
X157116400Y-114844200D02*
X156116400Y-114844200D01*
X137834666Y-87860143D02*
X137882285Y-87907762D01*
X138025142Y-87955381D01*
X138120380Y-87955381D01*
X138263238Y-87907762D01*
X138358476Y-87812524D01*
X138406095Y-87717286D01*
X138453714Y-87526810D01*
X138453714Y-87383952D01*
X138406095Y-87193476D01*
X138358476Y-87098238D01*
X138263238Y-87003000D01*
X138120380Y-86955381D01*
X138025142Y-86955381D01*
X137882285Y-87003000D01*
X137834666Y-87050619D01*
X137263238Y-87383952D02*
X137358476Y-87336333D01*
X137406095Y-87288714D01*
X137453714Y-87193476D01*
X137453714Y-87145857D01*
X137406095Y-87050619D01*
X137358476Y-87003000D01*
X137263238Y-86955381D01*
X137072761Y-86955381D01*
X136977523Y-87003000D01*
X136929904Y-87050619D01*
X136882285Y-87145857D01*
X136882285Y-87193476D01*
X136929904Y-87288714D01*
X136977523Y-87336333D01*
X137072761Y-87383952D01*
X137263238Y-87383952D01*
X137358476Y-87431571D01*
X137406095Y-87479190D01*
X137453714Y-87574429D01*
X137453714Y-87764905D01*
X137406095Y-87860143D01*
X137358476Y-87907762D01*
X137263238Y-87955381D01*
X137072761Y-87955381D01*
X136977523Y-87907762D01*
X136929904Y-87860143D01*
X136882285Y-87764905D01*
X136882285Y-87574429D01*
X136929904Y-87479190D01*
X136977523Y-87431571D01*
X137072761Y-87383952D01*
X137707666Y-86209143D02*
X137755285Y-86256762D01*
X137898142Y-86304381D01*
X137993380Y-86304381D01*
X138136238Y-86256762D01*
X138231476Y-86161524D01*
X138279095Y-86066286D01*
X138326714Y-85875810D01*
X138326714Y-85732952D01*
X138279095Y-85542476D01*
X138231476Y-85447238D01*
X138136238Y-85352000D01*
X137993380Y-85304381D01*
X137898142Y-85304381D01*
X137755285Y-85352000D01*
X137707666Y-85399619D01*
X137231476Y-86304381D02*
X137041000Y-86304381D01*
X136945761Y-86256762D01*
X136898142Y-86209143D01*
X136802904Y-86066286D01*
X136755285Y-85875810D01*
X136755285Y-85494857D01*
X136802904Y-85399619D01*
X136850523Y-85352000D01*
X136945761Y-85304381D01*
X137136238Y-85304381D01*
X137231476Y-85352000D01*
X137279095Y-85399619D01*
X137326714Y-85494857D01*
X137326714Y-85732952D01*
X137279095Y-85828190D01*
X137231476Y-85875810D01*
X137136238Y-85923429D01*
X136945761Y-85923429D01*
X136850523Y-85875810D01*
X136802904Y-85828190D01*
X136755285Y-85732952D01*
X132722857Y-99803143D02*
X132770476Y-99850762D01*
X132913333Y-99898381D01*
X133008571Y-99898381D01*
X133151429Y-99850762D01*
X133246667Y-99755524D01*
X133294286Y-99660286D01*
X133341905Y-99469810D01*
X133341905Y-99326952D01*
X133294286Y-99136476D01*
X133246667Y-99041238D01*
X133151429Y-98946000D01*
X133008571Y-98898381D01*
X132913333Y-98898381D01*
X132770476Y-98946000D01*
X132722857Y-98993619D01*
X131770476Y-99898381D02*
X132341905Y-99898381D01*
X132056191Y-99898381D02*
X132056191Y-98898381D01*
X132151429Y-99041238D01*
X132246667Y-99136476D01*
X132341905Y-99184095D01*
X130913333Y-99231714D02*
X130913333Y-99898381D01*
X131151429Y-98850762D02*
X131389524Y-99565048D01*
X130770476Y-99565048D01*
X132832857Y-85923143D02*
X132880476Y-85970762D01*
X133023333Y-86018381D01*
X133118571Y-86018381D01*
X133261429Y-85970762D01*
X133356667Y-85875524D01*
X133404286Y-85780286D01*
X133451905Y-85589810D01*
X133451905Y-85446952D01*
X133404286Y-85256476D01*
X133356667Y-85161238D01*
X133261429Y-85066000D01*
X133118571Y-85018381D01*
X133023333Y-85018381D01*
X132880476Y-85066000D01*
X132832857Y-85113619D01*
X131880476Y-86018381D02*
X132451905Y-86018381D01*
X132166191Y-86018381D02*
X132166191Y-85018381D01*
X132261429Y-85161238D01*
X132356667Y-85256476D01*
X132451905Y-85304095D01*
X130975714Y-85018381D02*
X131451905Y-85018381D01*
X131499524Y-85494571D01*
X131451905Y-85446952D01*
X131356667Y-85399333D01*
X131118571Y-85399333D01*
X131023333Y-85446952D01*
X130975714Y-85494571D01*
X130928095Y-85589810D01*
X130928095Y-85827905D01*
X130975714Y-85923143D01*
X131023333Y-85970762D01*
X131118571Y-86018381D01*
X131356667Y-86018381D01*
X131451905Y-85970762D01*
X131499524Y-85923143D01*
X127832857Y-86463143D02*
X127880476Y-86510762D01*
X128023333Y-86558381D01*
X128118571Y-86558381D01*
X128261429Y-86510762D01*
X128356667Y-86415524D01*
X128404286Y-86320286D01*
X128451905Y-86129810D01*
X128451905Y-85986952D01*
X128404286Y-85796476D01*
X128356667Y-85701238D01*
X128261429Y-85606000D01*
X128118571Y-85558381D01*
X128023333Y-85558381D01*
X127880476Y-85606000D01*
X127832857Y-85653619D01*
X126880476Y-86558381D02*
X127451905Y-86558381D01*
X127166191Y-86558381D02*
X127166191Y-85558381D01*
X127261429Y-85701238D01*
X127356667Y-85796476D01*
X127451905Y-85844095D01*
X126023333Y-85558381D02*
X126213810Y-85558381D01*
X126309048Y-85606000D01*
X126356667Y-85653619D01*
X126451905Y-85796476D01*
X126499524Y-85986952D01*
X126499524Y-86367905D01*
X126451905Y-86463143D01*
X126404286Y-86510762D01*
X126309048Y-86558381D01*
X126118571Y-86558381D01*
X126023333Y-86510762D01*
X125975714Y-86463143D01*
X125928095Y-86367905D01*
X125928095Y-86129810D01*
X125975714Y-86034571D01*
X126023333Y-85986952D01*
X126118571Y-85939333D01*
X126309048Y-85939333D01*
X126404286Y-85986952D01*
X126451905Y-86034571D01*
X126499524Y-86129810D01*
X124848857Y-86463143D02*
X124896476Y-86510762D01*
X125039333Y-86558381D01*
X125134571Y-86558381D01*
X125277429Y-86510762D01*
X125372667Y-86415524D01*
X125420286Y-86320286D01*
X125467905Y-86129810D01*
X125467905Y-85986952D01*
X125420286Y-85796476D01*
X125372667Y-85701238D01*
X125277429Y-85606000D01*
X125134571Y-85558381D01*
X125039333Y-85558381D01*
X124896476Y-85606000D01*
X124848857Y-85653619D01*
X124467905Y-85653619D02*
X124420286Y-85606000D01*
X124325048Y-85558381D01*
X124086952Y-85558381D01*
X123991714Y-85606000D01*
X123944095Y-85653619D01*
X123896476Y-85748857D01*
X123896476Y-85844095D01*
X123944095Y-85986952D01*
X124515524Y-86558381D01*
X123896476Y-86558381D01*
X123277429Y-85558381D02*
X123182190Y-85558381D01*
X123086952Y-85606000D01*
X123039333Y-85653619D01*
X122991714Y-85748857D01*
X122944095Y-85939333D01*
X122944095Y-86177429D01*
X122991714Y-86367905D01*
X123039333Y-86463143D01*
X123086952Y-86510762D01*
X123182190Y-86558381D01*
X123277429Y-86558381D01*
X123372667Y-86510762D01*
X123420286Y-86463143D01*
X123467905Y-86367905D01*
X123515524Y-86177429D01*
X123515524Y-85939333D01*
X123467905Y-85748857D01*
X123420286Y-85653619D01*
X123372667Y-85606000D01*
X123277429Y-85558381D01*
X141866857Y-109450143D02*
X141914476Y-109497762D01*
X142057333Y-109545381D01*
X142152571Y-109545381D01*
X142295429Y-109497762D01*
X142390667Y-109402524D01*
X142438286Y-109307286D01*
X142485905Y-109116810D01*
X142485905Y-108973952D01*
X142438286Y-108783476D01*
X142390667Y-108688238D01*
X142295429Y-108593000D01*
X142152571Y-108545381D01*
X142057333Y-108545381D01*
X141914476Y-108593000D01*
X141866857Y-108640619D01*
X141485905Y-108640619D02*
X141438286Y-108593000D01*
X141343048Y-108545381D01*
X141104952Y-108545381D01*
X141009714Y-108593000D01*
X140962095Y-108640619D01*
X140914476Y-108735857D01*
X140914476Y-108831095D01*
X140962095Y-108973952D01*
X141533524Y-109545381D01*
X140914476Y-109545381D01*
X140009714Y-108545381D02*
X140485905Y-108545381D01*
X140533524Y-109021571D01*
X140485905Y-108973952D01*
X140390667Y-108926333D01*
X140152571Y-108926333D01*
X140057333Y-108973952D01*
X140009714Y-109021571D01*
X139962095Y-109116810D01*
X139962095Y-109354905D01*
X140009714Y-109450143D01*
X140057333Y-109497762D01*
X140152571Y-109545381D01*
X140390667Y-109545381D01*
X140485905Y-109497762D01*
X140533524Y-109450143D01*
X144992857Y-109450143D02*
X145040476Y-109497762D01*
X145183333Y-109545381D01*
X145278571Y-109545381D01*
X145421429Y-109497762D01*
X145516667Y-109402524D01*
X145564286Y-109307286D01*
X145611905Y-109116810D01*
X145611905Y-108973952D01*
X145564286Y-108783476D01*
X145516667Y-108688238D01*
X145421429Y-108593000D01*
X145278571Y-108545381D01*
X145183333Y-108545381D01*
X145040476Y-108593000D01*
X144992857Y-108640619D01*
X144611905Y-108640619D02*
X144564286Y-108593000D01*
X144469048Y-108545381D01*
X144230952Y-108545381D01*
X144135714Y-108593000D01*
X144088095Y-108640619D01*
X144040476Y-108735857D01*
X144040476Y-108831095D01*
X144088095Y-108973952D01*
X144659524Y-109545381D01*
X144040476Y-109545381D01*
X143183333Y-108545381D02*
X143373810Y-108545381D01*
X143469048Y-108593000D01*
X143516667Y-108640619D01*
X143611905Y-108783476D01*
X143659524Y-108973952D01*
X143659524Y-109354905D01*
X143611905Y-109450143D01*
X143564286Y-109497762D01*
X143469048Y-109545381D01*
X143278571Y-109545381D01*
X143183333Y-109497762D01*
X143135714Y-109450143D01*
X143088095Y-109354905D01*
X143088095Y-109116810D01*
X143135714Y-109021571D01*
X143183333Y-108973952D01*
X143278571Y-108926333D01*
X143469048Y-108926333D01*
X143564286Y-108973952D01*
X143611905Y-109021571D01*
X143659524Y-109116810D01*
X154439857Y-96591381D02*
X154773191Y-96115190D01*
X155011286Y-96591381D02*
X155011286Y-95591381D01*
X154630333Y-95591381D01*
X154535095Y-95639000D01*
X154487476Y-95686619D01*
X154439857Y-95781857D01*
X154439857Y-95924714D01*
X154487476Y-96019952D01*
X154535095Y-96067571D01*
X154630333Y-96115190D01*
X155011286Y-96115190D01*
X153487476Y-96591381D02*
X154058905Y-96591381D01*
X153773191Y-96591381D02*
X153773191Y-95591381D01*
X153868429Y-95734238D01*
X153963667Y-95829476D01*
X154058905Y-95877095D01*
X153106524Y-95686619D02*
X153058905Y-95639000D01*
X152963667Y-95591381D01*
X152725571Y-95591381D01*
X152630333Y-95639000D01*
X152582714Y-95686619D01*
X152535095Y-95781857D01*
X152535095Y-95877095D01*
X152582714Y-96019952D01*
X153154143Y-96591381D01*
X152535095Y-96591381D01*
X154185857Y-108529381D02*
X154519191Y-108053190D01*
X154757286Y-108529381D02*
X154757286Y-107529381D01*
X154376333Y-107529381D01*
X154281095Y-107577000D01*
X154233476Y-107624619D01*
X154185857Y-107719857D01*
X154185857Y-107862714D01*
X154233476Y-107957952D01*
X154281095Y-108005571D01*
X154376333Y-108053190D01*
X154757286Y-108053190D01*
X153233476Y-108529381D02*
X153804905Y-108529381D01*
X153519191Y-108529381D02*
X153519191Y-107529381D01*
X153614429Y-107672238D01*
X153709667Y-107767476D01*
X153804905Y-107815095D01*
X152900143Y-107529381D02*
X152281095Y-107529381D01*
X152614429Y-107910333D01*
X152471571Y-107910333D01*
X152376333Y-107957952D01*
X152328714Y-108005571D01*
X152281095Y-108100810D01*
X152281095Y-108338905D01*
X152328714Y-108434143D01*
X152376333Y-108481762D01*
X152471571Y-108529381D01*
X152757286Y-108529381D01*
X152852524Y-108481762D01*
X152900143Y-108434143D01*
X154439857Y-99004381D02*
X154773191Y-98528190D01*
X155011286Y-99004381D02*
X155011286Y-98004381D01*
X154630333Y-98004381D01*
X154535095Y-98052000D01*
X154487476Y-98099619D01*
X154439857Y-98194857D01*
X154439857Y-98337714D01*
X154487476Y-98432952D01*
X154535095Y-98480571D01*
X154630333Y-98528190D01*
X155011286Y-98528190D01*
X153487476Y-99004381D02*
X154058905Y-99004381D01*
X153773191Y-99004381D02*
X153773191Y-98004381D01*
X153868429Y-98147238D01*
X153963667Y-98242476D01*
X154058905Y-98290095D01*
X152630333Y-98337714D02*
X152630333Y-99004381D01*
X152868429Y-97956762D02*
X153106524Y-98671048D01*
X152487476Y-98671048D01*
X154312857Y-111069381D02*
X154646191Y-110593190D01*
X154884286Y-111069381D02*
X154884286Y-110069381D01*
X154503333Y-110069381D01*
X154408095Y-110117000D01*
X154360476Y-110164619D01*
X154312857Y-110259857D01*
X154312857Y-110402714D01*
X154360476Y-110497952D01*
X154408095Y-110545571D01*
X154503333Y-110593190D01*
X154884286Y-110593190D01*
X153360476Y-111069381D02*
X153931905Y-111069381D01*
X153646191Y-111069381D02*
X153646191Y-110069381D01*
X153741429Y-110212238D01*
X153836667Y-110307476D01*
X153931905Y-110355095D01*
X152455714Y-110069381D02*
X152931905Y-110069381D01*
X152979524Y-110545571D01*
X152931905Y-110497952D01*
X152836667Y-110450333D01*
X152598571Y-110450333D01*
X152503333Y-110497952D01*
X152455714Y-110545571D01*
X152408095Y-110640810D01*
X152408095Y-110878905D01*
X152455714Y-110974143D01*
X152503333Y-111021762D01*
X152598571Y-111069381D01*
X152836667Y-111069381D01*
X152931905Y-111021762D01*
X152979524Y-110974143D01*
X154439857Y-101544381D02*
X154773191Y-101068190D01*
X155011286Y-101544381D02*
X155011286Y-100544381D01*
X154630333Y-100544381D01*
X154535095Y-100592000D01*
X154487476Y-100639619D01*
X154439857Y-100734857D01*
X154439857Y-100877714D01*
X154487476Y-100972952D01*
X154535095Y-101020571D01*
X154630333Y-101068190D01*
X155011286Y-101068190D01*
X153487476Y-101544381D02*
X154058905Y-101544381D01*
X153773191Y-101544381D02*
X153773191Y-100544381D01*
X153868429Y-100687238D01*
X153963667Y-100782476D01*
X154058905Y-100830095D01*
X153154143Y-100544381D02*
X152487476Y-100544381D01*
X152916048Y-101544381D01*
X154312857Y-113482381D02*
X154646191Y-113006190D01*
X154884286Y-113482381D02*
X154884286Y-112482381D01*
X154503333Y-112482381D01*
X154408095Y-112530000D01*
X154360476Y-112577619D01*
X154312857Y-112672857D01*
X154312857Y-112815714D01*
X154360476Y-112910952D01*
X154408095Y-112958571D01*
X154503333Y-113006190D01*
X154884286Y-113006190D01*
X153360476Y-113482381D02*
X153931905Y-113482381D01*
X153646191Y-113482381D02*
X153646191Y-112482381D01*
X153741429Y-112625238D01*
X153836667Y-112720476D01*
X153931905Y-112768095D01*
X152789048Y-112910952D02*
X152884286Y-112863333D01*
X152931905Y-112815714D01*
X152979524Y-112720476D01*
X152979524Y-112672857D01*
X152931905Y-112577619D01*
X152884286Y-112530000D01*
X152789048Y-112482381D01*
X152598571Y-112482381D01*
X152503333Y-112530000D01*
X152455714Y-112577619D01*
X152408095Y-112672857D01*
X152408095Y-112720476D01*
X152455714Y-112815714D01*
X152503333Y-112863333D01*
X152598571Y-112910952D01*
X152789048Y-112910952D01*
X152884286Y-112958571D01*
X152931905Y-113006190D01*
X152979524Y-113101429D01*
X152979524Y-113291905D01*
X152931905Y-113387143D01*
X152884286Y-113434762D01*
X152789048Y-113482381D01*
X152598571Y-113482381D01*
X152503333Y-113434762D01*
X152455714Y-113387143D01*
X152408095Y-113291905D01*
X152408095Y-113101429D01*
X152455714Y-113006190D01*
X152503333Y-112958571D01*
X152598571Y-112910952D01*
X154439857Y-103957381D02*
X154773191Y-103481190D01*
X155011286Y-103957381D02*
X155011286Y-102957381D01*
X154630333Y-102957381D01*
X154535095Y-103005000D01*
X154487476Y-103052619D01*
X154439857Y-103147857D01*
X154439857Y-103290714D01*
X154487476Y-103385952D01*
X154535095Y-103433571D01*
X154630333Y-103481190D01*
X155011286Y-103481190D01*
X153487476Y-103957381D02*
X154058905Y-103957381D01*
X153773191Y-103957381D02*
X153773191Y-102957381D01*
X153868429Y-103100238D01*
X153963667Y-103195476D01*
X154058905Y-103243095D01*
X153011286Y-103957381D02*
X152820810Y-103957381D01*
X152725571Y-103909762D01*
X152677952Y-103862143D01*
X152582714Y-103719286D01*
X152535095Y-103528810D01*
X152535095Y-103147857D01*
X152582714Y-103052619D01*
X152630333Y-103005000D01*
X152725571Y-102957381D01*
X152916048Y-102957381D01*
X153011286Y-103005000D01*
X153058905Y-103052619D01*
X153106524Y-103147857D01*
X153106524Y-103385952D01*
X153058905Y-103481190D01*
X153011286Y-103528810D01*
X152916048Y-103576429D01*
X152725571Y-103576429D01*
X152630333Y-103528810D01*
X152582714Y-103481190D01*
X152535095Y-103385952D01*
X136607381Y-93604095D02*
X137416905Y-93604095D01*
X137512143Y-93651714D01*
X137559762Y-93699333D01*
X137607381Y-93794571D01*
X137607381Y-93985048D01*
X137559762Y-94080286D01*
X137512143Y-94127905D01*
X137416905Y-94175524D01*
X136607381Y-94175524D01*
X136607381Y-94556476D02*
X136607381Y-95175524D01*
X136988333Y-94842190D01*
X136988333Y-94985048D01*
X137035952Y-95080286D01*
X137083571Y-95127905D01*
X137178810Y-95175524D01*
X137416905Y-95175524D01*
X137512143Y-95127905D01*
X137559762Y-95080286D01*
X137607381Y-94985048D01*
X137607381Y-94699333D01*
X137559762Y-94604095D01*
X137512143Y-94556476D01*
X164210905Y-93813381D02*
X164210905Y-94622905D01*
X164163286Y-94718143D01*
X164115667Y-94765762D01*
X164020429Y-94813381D01*
X163829952Y-94813381D01*
X163734714Y-94765762D01*
X163687095Y-94718143D01*
X163639476Y-94622905D01*
X163639476Y-93813381D01*
X162687095Y-93813381D02*
X163163286Y-93813381D01*
X163210905Y-94289571D01*
X163163286Y-94241952D01*
X163068048Y-94194333D01*
X162829952Y-94194333D01*
X162734714Y-94241952D01*
X162687095Y-94289571D01*
X162639476Y-94384810D01*
X162639476Y-94622905D01*
X162687095Y-94718143D01*
X162734714Y-94765762D01*
X162829952Y-94813381D01*
X163068048Y-94813381D01*
X163163286Y-94765762D01*
X163210905Y-94718143D01*
X164381905Y-118210381D02*
X164381905Y-119019905D01*
X164334286Y-119115143D01*
X164286667Y-119162762D01*
X164191429Y-119210381D01*
X164000952Y-119210381D01*
X163905714Y-119162762D01*
X163858095Y-119115143D01*
X163810476Y-119019905D01*
X163810476Y-118210381D01*
X162905714Y-118210381D02*
X163096191Y-118210381D01*
X163191429Y-118258000D01*
X163239048Y-118305619D01*
X163334286Y-118448476D01*
X163381905Y-118638952D01*
X163381905Y-119019905D01*
X163334286Y-119115143D01*
X163286667Y-119162762D01*
X163191429Y-119210381D01*
X163000952Y-119210381D01*
X162905714Y-119162762D01*
X162858095Y-119115143D01*
X162810476Y-119019905D01*
X162810476Y-118781810D01*
X162858095Y-118686571D01*
X162905714Y-118638952D01*
X163000952Y-118591333D01*
X163191429Y-118591333D01*
X163286667Y-118638952D01*
X163334286Y-118686571D01*
X163381905Y-118781810D01*
X143097191Y-117324190D02*
X143097191Y-117800381D01*
X143430524Y-116800381D02*
X143097191Y-117324190D01*
X142763857Y-116800381D01*
X141906714Y-117800381D02*
X142478143Y-117800381D01*
X142192429Y-117800381D02*
X142192429Y-116800381D01*
X142287667Y-116943238D01*
X142382905Y-117038476D01*
X142478143Y-117086095D01*
X154312857Y-116022381D02*
X154646191Y-115546190D01*
X154884286Y-116022381D02*
X154884286Y-115022381D01*
X154503333Y-115022381D01*
X154408095Y-115070000D01*
X154360476Y-115117619D01*
X154312857Y-115212857D01*
X154312857Y-115355714D01*
X154360476Y-115450952D01*
X154408095Y-115498571D01*
X154503333Y-115546190D01*
X154884286Y-115546190D01*
X153931905Y-115117619D02*
X153884286Y-115070000D01*
X153789048Y-115022381D01*
X153550952Y-115022381D01*
X153455714Y-115070000D01*
X153408095Y-115117619D01*
X153360476Y-115212857D01*
X153360476Y-115308095D01*
X153408095Y-115450952D01*
X153979524Y-116022381D01*
X153360476Y-116022381D01*
X152741429Y-115022381D02*
X152646190Y-115022381D01*
X152550952Y-115070000D01*
X152503333Y-115117619D01*
X152455714Y-115212857D01*
X152408095Y-115403333D01*
X152408095Y-115641429D01*
X152455714Y-115831905D01*
X152503333Y-115927143D01*
X152550952Y-115974762D01*
X152646190Y-116022381D01*
X152741429Y-116022381D01*
X152836667Y-115974762D01*
X152884286Y-115927143D01*
X152931905Y-115831905D01*
X152979524Y-115641429D01*
X152979524Y-115403333D01*
X152931905Y-115212857D01*
X152884286Y-115117619D01*
X152836667Y-115070000D01*
X152741429Y-115022381D01*
%LPC*%
D12*
X177292000Y-117398800D03*
X177292000Y-72745600D03*
D13*
X135940000Y-87466000D03*
X134440000Y-87466000D03*
X135940000Y-85866000D03*
X134440000Y-85866000D03*
X132830000Y-101346000D03*
X131330000Y-101346000D03*
X132940000Y-87466000D03*
X131440000Y-87466000D03*
X126440000Y-87466000D03*
X127940000Y-87466000D03*
X123440000Y-87466000D03*
X124940000Y-87466000D03*
X141950000Y-110400000D03*
X140450000Y-110400000D03*
X143600000Y-110400000D03*
X145100000Y-110400000D03*
D14*
X141000000Y-125500000D03*
D15*
X142000000Y-126000000D03*
X143000000Y-126000000D03*
X144000000Y-126000000D03*
X145000000Y-126000000D03*
X146000000Y-126000000D03*
X147000000Y-126000000D03*
X148000000Y-126000000D03*
X149000000Y-126000000D03*
X150000000Y-126000000D03*
X151000000Y-126000000D03*
X156000000Y-126000000D03*
X157000000Y-126000000D03*
X158000000Y-126000000D03*
X159000000Y-126000000D03*
X160000000Y-126000000D03*
X154000000Y-126000000D03*
X155000000Y-126000000D03*
D16*
X144000000Y-128300000D03*
X145000000Y-128300000D03*
X146000000Y-128300000D03*
X147000000Y-128300000D03*
X148000000Y-128300000D03*
X149000000Y-128300000D03*
X150000000Y-128300000D03*
X156000000Y-128300000D03*
X157000000Y-128300000D03*
X143000000Y-128300000D03*
X155000000Y-128300000D03*
X158000000Y-128300000D03*
X151000000Y-128300000D03*
X154000000Y-128300000D03*
X159000000Y-128300000D03*
X160000000Y-128300000D03*
X142000000Y-128300000D03*
D17*
X134140000Y-80600000D03*
X131600000Y-80600000D03*
X129060000Y-80600000D03*
X164600000Y-80500000D03*
X162060000Y-80500000D03*
X159520000Y-80500000D03*
D18*
X174562000Y-107080000D03*
D19*
X172022000Y-107080000D03*
X174562000Y-104540000D03*
X172022000Y-104540000D03*
X174562000Y-102000000D03*
X172022000Y-102000000D03*
X174562000Y-99460000D03*
X172022000Y-99460000D03*
D20*
X150700000Y-76000000D03*
X146300720Y-76000000D03*
D21*
X173900000Y-86300000D03*
X173900000Y-79137200D03*
D22*
X157370000Y-96008000D03*
X155870000Y-96008000D03*
X157370000Y-108008000D03*
X155870000Y-108008000D03*
X157370000Y-98508000D03*
X155870000Y-98508000D03*
X157370000Y-110508000D03*
X155870000Y-110508000D03*
X157370000Y-101008000D03*
X155870000Y-101008000D03*
X157370000Y-113008000D03*
X155870000Y-113008000D03*
X157370000Y-103508000D03*
X155870000Y-103508000D03*
D23*
X135370000Y-99066000D03*
X134100000Y-99066000D03*
X132830000Y-99066000D03*
X131560000Y-99066000D03*
X130290000Y-99066000D03*
X129020000Y-99066000D03*
X127750000Y-99066000D03*
X126480000Y-99066000D03*
X125210000Y-99066000D03*
X123940000Y-99066000D03*
X123940000Y-89666000D03*
X125210000Y-89666000D03*
X126480000Y-89666000D03*
X127750000Y-89666000D03*
X129020000Y-89666000D03*
X130290000Y-89666000D03*
X131560000Y-89666000D03*
X132830000Y-89666000D03*
X134100000Y-89666000D03*
X135370000Y-89666000D03*
D24*
X160320000Y-104953000D03*
X160320000Y-103683000D03*
X160320000Y-102413000D03*
X160320000Y-101143000D03*
X160320000Y-99873000D03*
X160320000Y-98603000D03*
X160320000Y-97333000D03*
X160320000Y-96063000D03*
X166920000Y-96063000D03*
X166920000Y-97333000D03*
X166920000Y-98603000D03*
X166920000Y-99873000D03*
X166920000Y-101143000D03*
X166920000Y-102413000D03*
X166920000Y-103683000D03*
X166920000Y-104953000D03*
X160320000Y-116953000D03*
X160320000Y-115683000D03*
X160320000Y-114413000D03*
X160320000Y-113143000D03*
X160320000Y-111873000D03*
X160320000Y-110603000D03*
X160320000Y-109333000D03*
X160320000Y-108063000D03*
X166920000Y-108063000D03*
X166920000Y-109333000D03*
X166920000Y-110603000D03*
X166920000Y-111873000D03*
X166920000Y-113143000D03*
X166920000Y-114413000D03*
X166920000Y-115683000D03*
X166920000Y-116953000D03*
D25*
X139600400Y-114000000D03*
X145899600Y-114000000D03*
D12*
X122682000Y-72745600D03*
D26*
X170027600Y-116687600D03*
D27*
X172567600Y-116687600D03*
D22*
X157366400Y-115519200D03*
X155866400Y-115519200D03*
M02*
