G04 #@! TF.FileFunction,Soldermask,Top*
%FSLAX46Y46*%
G04 Gerber Fmt 4.6, Leading zero omitted, Abs format (unit mm)*
G04 Created by KiCad (PCBNEW 4.0.7) date 01/05/18 11:34:56*
%MOMM*%
%LPD*%
G01*
G04 APERTURE LIST*
%ADD10C,0.100000*%
%ADD11C,3.448000*%
%ADD12R,0.650000X1.400000*%
%ADD13R,1.400000X0.650000*%
%ADD14R,1.200000X1.150000*%
%ADD15R,1.150000X1.200000*%
%ADD16R,1.400000X1.650000*%
%ADD17R,1.650000X1.400000*%
%ADD18C,1.050000*%
%ADD19R,1.050000X5.000000*%
%ADD20R,1.050000X4.000000*%
%ADD21R,1.197560X1.197560*%
%ADD22R,1.650000X2.400000*%
%ADD23R,2.400000X1.650000*%
%ADD24R,1.200000X1.300000*%
%ADD25R,2.178000X2.686000*%
%ADD26R,2.127200X2.127200*%
%ADD27O,2.127200X2.127200*%
%ADD28R,0.900380X2.701240*%
%ADD29R,2.398980X2.899360*%
%ADD30C,1.299160*%
%ADD31C,7.004000*%
%ADD32R,1.300000X1.200000*%
%ADD33R,1.300000X0.900000*%
%ADD34R,0.900000X1.300000*%
%ADD35R,1.460000X1.050000*%
%ADD36R,1.050000X1.460000*%
%ADD37R,2.400000X4.200000*%
%ADD38R,2.400000X1.900000*%
%ADD39R,2.100000X2.100000*%
%ADD40O,2.100000X2.100000*%
G04 APERTURE END LIST*
D10*
D11*
X177292000Y-117398800D03*
X177292000Y-72745600D03*
D12*
X145250000Y-106950000D03*
X145750000Y-106950000D03*
X146250000Y-106950000D03*
X146750000Y-106950000D03*
X147250000Y-106950000D03*
X147750000Y-106950000D03*
X148250000Y-106950000D03*
X148750000Y-106950000D03*
X149250000Y-106950000D03*
X149750000Y-106950000D03*
X150250000Y-106950000D03*
X150750000Y-106950000D03*
X151250000Y-106950000D03*
X151750000Y-106950000D03*
X152250000Y-106950000D03*
X152750000Y-106950000D03*
D13*
X154700000Y-105000000D03*
X154700000Y-104500000D03*
X154700000Y-104000000D03*
X154700000Y-103500000D03*
X154700000Y-103000000D03*
X154700000Y-102500000D03*
X154700000Y-102000000D03*
X154700000Y-101500000D03*
X154700000Y-101000000D03*
X154700000Y-100500000D03*
X154700000Y-100000000D03*
X154700000Y-99500000D03*
X154700000Y-99000000D03*
X154700000Y-98500000D03*
X154700000Y-98000000D03*
X154700000Y-97500000D03*
D12*
X152750000Y-95550000D03*
X152250000Y-95550000D03*
X151750000Y-95550000D03*
X151250000Y-95550000D03*
X150750000Y-95550000D03*
X150250000Y-95550000D03*
X149750000Y-95550000D03*
X149250000Y-95550000D03*
X148750000Y-95550000D03*
X148250000Y-95550000D03*
X147750000Y-95550000D03*
X147250000Y-95550000D03*
X146750000Y-95550000D03*
X146250000Y-95550000D03*
X145750000Y-95550000D03*
X145250000Y-95550000D03*
D13*
X143300000Y-97500000D03*
X143300000Y-98000000D03*
X143300000Y-98500000D03*
X143300000Y-99000000D03*
X143300000Y-99500000D03*
X143300000Y-100000000D03*
X143300000Y-100500000D03*
X143300000Y-101000000D03*
X143300000Y-101500000D03*
X143300000Y-102000000D03*
X143300000Y-102500000D03*
X143300000Y-103000000D03*
X143300000Y-103500000D03*
X143300000Y-104000000D03*
X143300000Y-104500000D03*
X143300000Y-105000000D03*
D14*
X150750000Y-108750000D03*
X152250000Y-108750000D03*
X150500000Y-93750000D03*
X152000000Y-93750000D03*
D15*
X141500000Y-105500000D03*
X141500000Y-107000000D03*
X156500000Y-103000000D03*
X156500000Y-101500000D03*
X156464000Y-98044000D03*
X156464000Y-99544000D03*
D14*
X148000000Y-93750000D03*
X146500000Y-93750000D03*
D15*
X141500000Y-101750000D03*
X141500000Y-100250000D03*
D16*
X128150000Y-102850000D03*
X130150000Y-102850000D03*
X128150000Y-99822000D03*
X130150000Y-99822000D03*
D14*
X128400000Y-104850000D03*
X129900000Y-104850000D03*
X128400000Y-97790000D03*
X129900000Y-97790000D03*
X129650000Y-115100000D03*
X131150000Y-115100000D03*
D17*
X123650000Y-111600000D03*
X123650000Y-109600000D03*
D15*
X135483600Y-110478000D03*
X135483600Y-108978000D03*
D17*
X141250000Y-96500000D03*
X141250000Y-98500000D03*
D14*
X161200000Y-86450000D03*
X162700000Y-86450000D03*
X161200000Y-84700000D03*
X162700000Y-84700000D03*
X141172000Y-112956800D03*
X139672000Y-112956800D03*
D18*
X160000000Y-128300000D03*
D19*
X141000000Y-126000000D03*
X142000000Y-126000000D03*
X143000000Y-126000000D03*
X144000000Y-126000000D03*
X145000000Y-126000000D03*
X146000000Y-126000000D03*
X147000000Y-126000000D03*
X148000000Y-126000000D03*
X149000000Y-126000000D03*
X150000000Y-126000000D03*
X151000000Y-126000000D03*
X156000000Y-126000000D03*
X157000000Y-126000000D03*
X158000000Y-126000000D03*
D20*
X159000000Y-125500000D03*
D19*
X160000000Y-126000000D03*
X154000000Y-126000000D03*
X155000000Y-126000000D03*
D18*
X143000000Y-128300000D03*
X144000000Y-128300000D03*
X145000000Y-128300000D03*
X146000000Y-128300000D03*
X147000000Y-128300000D03*
X148000000Y-128300000D03*
X149000000Y-128300000D03*
X150000000Y-128300000D03*
X151000000Y-128300000D03*
X141000000Y-128300000D03*
X154000000Y-128300000D03*
X155000000Y-128300000D03*
X156000000Y-128300000D03*
X157000000Y-128300000D03*
X158000000Y-128300000D03*
X142000000Y-128300000D03*
D21*
X159999300Y-102000000D03*
X158500700Y-102000000D03*
X160000000Y-100500000D03*
X158501400Y-100500000D03*
D22*
X171312000Y-96000000D03*
X175062000Y-96000000D03*
D23*
X178062000Y-99000000D03*
X178062000Y-102750000D03*
X178062000Y-105000000D03*
X178062000Y-108750000D03*
X174812000Y-113875000D03*
X174812000Y-110125000D03*
X171812000Y-113875000D03*
X171812000Y-110125000D03*
X168562000Y-105000000D03*
X168562000Y-108750000D03*
X168562000Y-99000000D03*
X168562000Y-102750000D03*
D24*
X147300000Y-114000000D03*
X149200000Y-114000000D03*
X148250000Y-112000000D03*
D25*
X134140000Y-80600000D03*
X131600000Y-80600000D03*
X129060000Y-80600000D03*
X164600000Y-80500000D03*
X162060000Y-80500000D03*
X159520000Y-80500000D03*
D26*
X174562000Y-107080000D03*
D27*
X172022000Y-107080000D03*
X174562000Y-104540000D03*
X172022000Y-104540000D03*
X174562000Y-102000000D03*
X172022000Y-102000000D03*
X174562000Y-99460000D03*
X172022000Y-99460000D03*
D28*
X150100560Y-78598420D03*
X149300460Y-78598420D03*
X148500360Y-78598420D03*
X147700260Y-78598420D03*
X146900160Y-78598420D03*
D29*
X152950440Y-78499360D03*
X152950440Y-73000260D03*
X144050280Y-78499360D03*
X144050280Y-73000260D03*
D30*
X150700000Y-76000000D03*
X146300720Y-76000000D03*
D16*
X124150000Y-103100000D03*
X126150000Y-103100000D03*
X124150000Y-100600000D03*
X126150000Y-100600000D03*
X127650000Y-114850000D03*
X125650000Y-114850000D03*
D17*
X164700000Y-88200000D03*
X164700000Y-90200000D03*
D31*
X173900000Y-86300000D03*
X173900000Y-79137200D03*
D32*
X134650000Y-102550000D03*
X134650000Y-100650000D03*
X132650000Y-101600000D03*
D33*
X156616400Y-107062400D03*
X156616400Y-105562400D03*
X132740400Y-105601200D03*
X132740400Y-104101200D03*
X147400000Y-108750000D03*
X147400000Y-110250000D03*
D34*
X158500000Y-103750000D03*
X160000000Y-103750000D03*
D33*
X149100000Y-108750000D03*
X149100000Y-110250000D03*
D34*
X158500000Y-98750000D03*
X160000000Y-98750000D03*
D33*
X145694400Y-109028800D03*
X145694400Y-110528800D03*
D34*
X153750000Y-108750000D03*
X155250000Y-108750000D03*
D33*
X137422000Y-112206800D03*
X137422000Y-113706800D03*
X143422000Y-114956800D03*
X143422000Y-116456800D03*
X145172000Y-114956800D03*
X145172000Y-116456800D03*
X137422000Y-116456800D03*
X137422000Y-114956800D03*
D35*
X139322000Y-114756800D03*
X139322000Y-115706800D03*
X139322000Y-116656800D03*
X141522000Y-116656800D03*
X141522000Y-114756800D03*
X141522000Y-115706800D03*
D36*
X162650000Y-88200000D03*
X161700000Y-88200000D03*
X160750000Y-88200000D03*
X160750000Y-90400000D03*
X162650000Y-90400000D03*
X161700000Y-90400000D03*
D37*
X132550000Y-109600000D03*
D38*
X126250000Y-109600000D03*
X126250000Y-111900000D03*
X126250000Y-107300000D03*
D11*
X122682000Y-72745600D03*
D39*
X170027600Y-116687600D03*
D40*
X172567600Y-116687600D03*
M02*
